G04*
G04 #@! TF.GenerationSoftware,Altium Limited,Altium Designer,23.11.1 (41)*
G04*
G04 Layer_Physical_Order=1*
G04 Layer_Color=255*
%FSLAX44Y44*%
%MOMM*%
G71*
G04*
G04 #@! TF.SameCoordinates,00D06A11-A73A-467B-94DC-87872A238894*
G04*
G04*
G04 #@! TF.FilePolarity,Positive*
G04*
G01*
G75*
%ADD11R,1.8000X1.0000*%
%ADD12R,0.7400X1.7000*%
%ADD13R,1.0000X1.8000*%
%ADD14R,1.7000X0.7400*%
%ADD20C,0.4000*%
%ADD21C,1.0000*%
D11*
X843350Y262890D02*
D03*
Y288290D02*
D03*
X895350Y262890D02*
D03*
Y288290D02*
D03*
X843350Y339090D02*
D03*
X895350D02*
D03*
X843350Y364490D02*
D03*
X895350D02*
D03*
X843350Y440690D02*
D03*
X895350D02*
D03*
X843350Y491490D02*
D03*
X895350D02*
D03*
X843350Y567690D02*
D03*
X895350D02*
D03*
X843350Y593090D02*
D03*
X895350D02*
D03*
Y542290D02*
D03*
X843350D02*
D03*
X895350Y516890D02*
D03*
X843350D02*
D03*
X895350Y466090D02*
D03*
X843350D02*
D03*
X895350Y415290D02*
D03*
X843350D02*
D03*
X895350Y389890D02*
D03*
X843350D02*
D03*
X895350Y313690D02*
D03*
X843350D02*
D03*
X81950Y218440D02*
D03*
Y243840D02*
D03*
X133950Y218440D02*
D03*
Y243840D02*
D03*
X81950Y294640D02*
D03*
X133950D02*
D03*
X81950Y320040D02*
D03*
X133950D02*
D03*
X81950Y396240D02*
D03*
X133950D02*
D03*
X81950Y447040D02*
D03*
X133950D02*
D03*
X81950Y523240D02*
D03*
X133950D02*
D03*
X81950Y548640D02*
D03*
X133950D02*
D03*
Y497840D02*
D03*
X81950D02*
D03*
X133950Y472440D02*
D03*
X81950D02*
D03*
X133950Y421640D02*
D03*
X81950D02*
D03*
X133950Y370840D02*
D03*
X81950D02*
D03*
X133950Y345440D02*
D03*
X81950D02*
D03*
X133950Y269240D02*
D03*
X81950D02*
D03*
D12*
X465240Y214580D02*
D03*
X477940D02*
D03*
X465240Y255580D02*
D03*
X477940D02*
D03*
X490640Y214580D02*
D03*
Y255580D02*
D03*
X566840Y214580D02*
D03*
Y255580D02*
D03*
X554140D02*
D03*
X541440D02*
D03*
X554140Y214580D02*
D03*
X541440D02*
D03*
X528740Y255580D02*
D03*
Y214580D02*
D03*
X516040Y255580D02*
D03*
X503340D02*
D03*
X516040Y214580D02*
D03*
X503340D02*
D03*
X452540Y255580D02*
D03*
X439840D02*
D03*
X427140D02*
D03*
X414440D02*
D03*
X401740D02*
D03*
X452540Y214580D02*
D03*
X439840D02*
D03*
X427140D02*
D03*
X414440D02*
D03*
X401740D02*
D03*
X465240Y534580D02*
D03*
X477940D02*
D03*
X465240Y575580D02*
D03*
X477940D02*
D03*
X490640Y534580D02*
D03*
Y575580D02*
D03*
X566840Y534580D02*
D03*
Y575580D02*
D03*
X554140D02*
D03*
X541440D02*
D03*
X554140Y534580D02*
D03*
X541440D02*
D03*
X528740Y575580D02*
D03*
Y534580D02*
D03*
X516040Y575580D02*
D03*
X503340D02*
D03*
X516040Y534580D02*
D03*
X503340D02*
D03*
X452540Y575580D02*
D03*
X439840D02*
D03*
X427140D02*
D03*
X414440D02*
D03*
X401740D02*
D03*
X452540Y534580D02*
D03*
X439840D02*
D03*
X427140D02*
D03*
X414440D02*
D03*
X401740D02*
D03*
D13*
X652780Y61630D02*
D03*
X627380D02*
D03*
X652780Y113630D02*
D03*
X627380D02*
D03*
X576580Y61630D02*
D03*
Y113630D02*
D03*
X551180Y61630D02*
D03*
Y113630D02*
D03*
X474980Y61630D02*
D03*
Y113630D02*
D03*
X424180Y61630D02*
D03*
Y113630D02*
D03*
X347980Y61630D02*
D03*
Y113630D02*
D03*
X322580Y61630D02*
D03*
Y113630D02*
D03*
X373380D02*
D03*
Y61630D02*
D03*
X398780Y113630D02*
D03*
Y61630D02*
D03*
X449580Y113630D02*
D03*
Y61630D02*
D03*
X500380Y113630D02*
D03*
Y61630D02*
D03*
X525780Y113630D02*
D03*
Y61630D02*
D03*
X601980Y113630D02*
D03*
Y61630D02*
D03*
X647700Y689610D02*
D03*
X622300D02*
D03*
X647700Y741610D02*
D03*
X622300D02*
D03*
X571500Y689610D02*
D03*
Y741610D02*
D03*
X546100Y689610D02*
D03*
Y741610D02*
D03*
X469900Y689610D02*
D03*
Y741610D02*
D03*
X419100Y689610D02*
D03*
Y741610D02*
D03*
X342900Y689610D02*
D03*
Y741610D02*
D03*
X317500Y689610D02*
D03*
Y741610D02*
D03*
X368300D02*
D03*
Y689610D02*
D03*
X393700Y741610D02*
D03*
Y689610D02*
D03*
X444500Y741610D02*
D03*
Y689610D02*
D03*
X495300Y741610D02*
D03*
Y689610D02*
D03*
X520700Y741610D02*
D03*
Y689610D02*
D03*
X596900Y741610D02*
D03*
Y689610D02*
D03*
D14*
X313790Y424130D02*
D03*
Y411430D02*
D03*
X354790Y424130D02*
D03*
Y411430D02*
D03*
X313790Y398730D02*
D03*
X354790D02*
D03*
X313790Y322530D02*
D03*
X354790D02*
D03*
Y335230D02*
D03*
Y347930D02*
D03*
X313790Y335230D02*
D03*
Y347930D02*
D03*
X354790Y360630D02*
D03*
X313790D02*
D03*
X354790Y373330D02*
D03*
Y386030D02*
D03*
X313790Y373330D02*
D03*
Y386030D02*
D03*
X354790Y436830D02*
D03*
Y449530D02*
D03*
Y462230D02*
D03*
Y474930D02*
D03*
Y487630D02*
D03*
X313790Y436830D02*
D03*
Y449530D02*
D03*
Y462230D02*
D03*
Y474930D02*
D03*
Y487630D02*
D03*
X613790Y424130D02*
D03*
Y411430D02*
D03*
X654790Y424130D02*
D03*
Y411430D02*
D03*
X613790Y398730D02*
D03*
X654790D02*
D03*
X613790Y322530D02*
D03*
X654790D02*
D03*
Y335230D02*
D03*
Y347930D02*
D03*
X613790Y335230D02*
D03*
Y347930D02*
D03*
X654790Y360630D02*
D03*
X613790D02*
D03*
X654790Y373330D02*
D03*
Y386030D02*
D03*
X613790Y373330D02*
D03*
Y386030D02*
D03*
X654790Y436830D02*
D03*
Y449530D02*
D03*
Y462230D02*
D03*
Y474930D02*
D03*
Y487630D02*
D03*
X613790Y436830D02*
D03*
Y449530D02*
D03*
Y462230D02*
D03*
Y474930D02*
D03*
Y487630D02*
D03*
D20*
X566210Y257810D02*
Y286810D01*
X553510Y257810D02*
Y298240D01*
X413810Y255580D02*
Y286810D01*
X401110Y257810D02*
Y298240D01*
X813615Y669745D02*
X814705Y670836D01*
X813615Y669745D02*
X813615D01*
X808990Y674370D02*
X813615Y669745D01*
X819150Y675640D02*
X820420D01*
X822763Y673297D01*
X827164D01*
X829310Y675443D01*
Y675640D01*
Y679647D01*
X826967Y681990D02*
X829310Y679647D01*
X826770Y681990D02*
X826967D01*
X824230Y684530D02*
X826770Y681990D01*
X824230Y684530D02*
Y692150D01*
Y693420D01*
X820997Y696653D02*
X824230Y693420D01*
X817683Y696653D02*
X820997D01*
X815340Y694310D02*
X817683Y696653D01*
X815340Y685800D02*
Y694310D01*
X814070Y684530D02*
X815340Y685800D01*
X808990Y679450D02*
X814070Y684530D01*
X808990Y674370D02*
Y679450D01*
X553300Y187300D02*
Y225790D01*
X627380Y113630D02*
Y117630D01*
X557710Y187300D02*
X627380Y117630D01*
X553300Y187300D02*
X557710D01*
X650240Y111760D02*
Y136750D01*
X566000Y220990D02*
X650240Y136750D01*
X566000Y220990D02*
Y225790D01*
X599440Y111760D02*
Y115760D01*
X540600Y174600D02*
X599440Y115760D01*
X540600Y174600D02*
Y225790D01*
X574040Y111760D02*
Y115760D01*
X527900Y161900D02*
X574040Y115760D01*
X527900Y161900D02*
Y225790D01*
X548640Y111760D02*
Y115760D01*
X515200Y149200D02*
X548640Y115760D01*
X515200Y149200D02*
Y225790D01*
X523240Y111760D02*
Y115760D01*
X502500Y136500D02*
Y225790D01*
Y136500D02*
X523240Y115760D01*
X497840Y111760D02*
Y115760D01*
X489800Y123800D02*
X497840Y115760D01*
X489800Y123800D02*
Y225790D01*
X472440Y111760D02*
Y115760D01*
X477100Y120420D01*
Y225790D01*
X447040Y111760D02*
Y115760D01*
X464400Y133120D01*
Y225790D01*
X421640Y111760D02*
Y115760D01*
X451700Y145820D01*
Y225790D01*
X396240Y111760D02*
Y115760D01*
X439000Y158520D01*
Y225790D01*
X370840Y111760D02*
Y115760D01*
X426300Y171220D01*
Y225790D01*
X345440Y111760D02*
Y115760D01*
X413600Y183920D01*
Y225790D01*
X320040Y111760D02*
Y115760D01*
X400900Y196620D01*
Y225790D01*
X566210Y286810D02*
X566420Y287020D01*
X553510Y298240D02*
X553720Y298450D01*
X526840Y260350D02*
Y298240D01*
X527050Y298450D01*
X539540Y286810D02*
X539750Y287020D01*
X539540Y257810D02*
Y286810D01*
X488740Y261620D02*
Y286810D01*
X488950Y287020D01*
X476040Y298240D02*
X476250Y298450D01*
X476040Y260350D02*
Y298240D01*
X502710Y261620D02*
Y298240D01*
X502920Y298450D01*
X515410Y286810D02*
X515620Y287020D01*
X515410Y259080D02*
Y286810D01*
X437940Y260350D02*
Y286810D01*
X438150Y287020D01*
X425240Y298240D02*
X425450Y298450D01*
X425240Y259080D02*
Y298240D01*
X451910Y261620D02*
Y298240D01*
X452120Y298450D01*
X464610Y286810D02*
X464820Y287020D01*
X464610Y260350D02*
Y286810D01*
X401110Y298240D02*
X401320Y298450D01*
X413810Y286810D02*
X414020Y287020D01*
X553930Y514560D02*
Y534370D01*
X553720Y514350D02*
X553930Y514560D01*
X566420Y502920D02*
X566630Y503130D01*
Y534370D01*
X503130Y514560D02*
Y534370D01*
X502920Y514350D02*
X503130Y514560D01*
X515620Y502920D02*
X515830Y503130D01*
Y534370D01*
X542500Y503130D02*
Y534370D01*
X542290Y502920D02*
X542500Y503130D01*
X529590Y514350D02*
X529800Y514560D01*
Y534370D01*
X452330Y514560D02*
Y534370D01*
X452120Y514350D02*
X452330Y514560D01*
X464820Y502920D02*
X465030Y503130D01*
Y534370D01*
X491700Y503130D02*
Y534370D01*
X491490Y502920D02*
X491700Y503130D01*
X478790Y514350D02*
X479000Y514560D01*
Y534370D01*
X428200Y514560D02*
Y534370D01*
X427990Y514350D02*
X428200Y514560D01*
X440690Y502920D02*
X440900Y503130D01*
Y534370D01*
X414230D02*
X414440Y534580D01*
X414230Y503130D02*
Y534370D01*
X414020Y502920D02*
X414230Y503130D01*
X401320Y514350D02*
X401530Y514560D01*
Y534370D01*
X401740Y534580D01*
X566840Y575580D02*
Y604750D01*
X647700Y685610D01*
Y689610D01*
X554140Y575580D02*
Y617450D01*
X622300Y685610D01*
Y689610D01*
X541440Y575580D02*
Y630150D01*
X596900Y685610D01*
Y689610D01*
X528740Y575580D02*
Y642850D01*
X571500Y685610D01*
Y689610D01*
X516040Y575580D02*
Y655550D01*
X546100Y685610D01*
Y689610D01*
X503340Y575580D02*
Y668250D01*
X520700Y685610D01*
Y689610D01*
X490640Y575580D02*
Y680950D01*
X495300Y685610D01*
Y689610D01*
X477940Y575580D02*
Y677570D01*
X469900Y685610D02*
X477940Y677570D01*
X469900Y685610D02*
Y689610D01*
X444500Y685610D02*
X465240Y664870D01*
Y575580D02*
Y664870D01*
X444500Y685610D02*
Y689610D01*
X452540Y575580D02*
Y652170D01*
X419100Y685610D02*
X452540Y652170D01*
X419100Y685610D02*
Y689610D01*
X439840Y575580D02*
Y639470D01*
X393700Y685610D02*
X439840Y639470D01*
X393700Y685610D02*
Y689610D01*
X427140Y575580D02*
Y626770D01*
X368300Y685610D02*
X427140Y626770D01*
X368300Y685610D02*
Y689610D01*
X414440Y575580D02*
Y614070D01*
X342900Y685610D02*
X414440Y614070D01*
X342900Y685610D02*
Y689610D01*
X401740Y575580D02*
Y580380D01*
X317500Y664620D02*
X401740Y580380D01*
X317500Y664620D02*
Y689610D01*
X654790Y386030D02*
X835490D01*
X839350Y389890D01*
X843350D01*
X654790Y398730D02*
X822790D01*
X839350Y415290D01*
X843350D01*
X664110Y412800D02*
X812060D01*
X839950Y440690D01*
X843950D01*
X654790Y322530D02*
X783710D01*
X839350Y262890D02*
X843350D01*
X836350Y265890D02*
X839350Y262890D01*
X783710Y322530D02*
X836350Y269890D01*
Y265890D02*
Y269890D01*
X654790Y335230D02*
X792410D01*
X839350Y288290D01*
X843350D01*
X839950Y313690D02*
X843950D01*
X804340Y349300D02*
X839950Y313690D01*
X664110Y349300D02*
X804340D01*
X839950Y339090D02*
X843950D01*
X664110Y362000D02*
X817040D01*
X839950Y339090D01*
Y364490D02*
X843950D01*
X829740Y374700D02*
X839950Y364490D01*
X664110Y374700D02*
X829740D01*
X839950Y466090D02*
X843950D01*
X799360Y425500D02*
X839950Y466090D01*
X664110Y425500D02*
X799360D01*
X839950Y491490D02*
X843950D01*
X786660Y438200D02*
X839950Y491490D01*
X664110Y438200D02*
X786660D01*
X839950Y516890D02*
X843950D01*
X773960Y450900D02*
X839950Y516890D01*
X664110Y450900D02*
X773960D01*
X839950Y542290D02*
X843950D01*
X761260Y463600D02*
X839950Y542290D01*
X664110Y463600D02*
X761260D01*
X839950Y567690D02*
X843950D01*
X748560Y476300D02*
X839950Y567690D01*
X664110Y476300D02*
X748560D01*
X739860Y489000D02*
X836950Y586090D01*
Y590090D01*
X839950Y593090D01*
X843950D01*
X664110Y489000D02*
X739860D01*
X623085Y323875D02*
X623110Y323900D01*
X591845Y323875D02*
X623085D01*
X591820Y323850D02*
X591845Y323875D01*
X571500Y336550D02*
X571525Y336575D01*
X623085D01*
X623110Y336600D01*
X572770Y361950D02*
X572795Y361975D01*
X593090Y349250D02*
X593115Y349275D01*
X574040Y387350D02*
X574065Y387375D01*
X594360Y374650D02*
X594385Y374675D01*
X570255Y411505D02*
X621815D01*
X570230Y411480D02*
X570255Y411505D01*
X590550Y398780D02*
X590575Y398805D01*
X621815D01*
X572770Y438150D02*
X572795Y438175D01*
X593090Y425450D02*
X593115Y425475D01*
X572770Y463550D02*
X572795Y463575D01*
X593090Y450850D02*
X593115Y450875D01*
X571525Y488975D02*
X623085D01*
X571500Y488950D02*
X571525Y488975D01*
X591820Y476250D02*
X591845Y476275D01*
X623085D01*
X593115Y349275D02*
X624355D01*
X572795Y361975D02*
X624355D01*
X594385Y374675D02*
X625625D01*
X574065Y387375D02*
X625625D01*
X593115Y425475D02*
X624355D01*
X572795Y438175D02*
X624355D01*
X593115Y450875D02*
X624355D01*
X572795Y463575D02*
X624355D01*
X353545Y347955D02*
X405105D01*
X353545Y360655D02*
X384785D01*
X353545Y373355D02*
X405105D01*
X353545Y386055D02*
X384785D01*
X352275Y424155D02*
X403835D01*
X352275Y436855D02*
X383515D01*
X353545Y449555D02*
X405105D01*
X353545Y462255D02*
X384785D01*
X354815Y335255D02*
X386055D01*
X386080Y335280D01*
X406375Y322555D02*
X406400Y322580D01*
X354815Y322555D02*
X406375D01*
X384785Y360655D02*
X384810Y360680D01*
X405105Y347955D02*
X405130Y347980D01*
X384785Y386055D02*
X384810Y386080D01*
X405105Y373355D02*
X405130Y373380D01*
X356085Y412725D02*
X387325D01*
X387350Y412750D01*
X407645Y400025D02*
X407670Y400050D01*
X356085Y400025D02*
X407645D01*
X383515Y436855D02*
X383540Y436880D01*
X403835Y424155D02*
X403860Y424180D01*
X384785Y462255D02*
X384810Y462280D01*
X405105Y449555D02*
X405130Y449580D01*
X354790Y474930D02*
X354815Y474955D01*
X406375D01*
X406400Y474980D01*
X386055Y487655D02*
X386080Y487680D01*
X354815Y487655D02*
X386055D01*
X354790Y487630D02*
X354815Y487655D01*
X238040Y322530D02*
X313790D01*
X133950Y218440D02*
X137950D01*
X140950Y221440D01*
Y225440D01*
X238040Y322530D01*
X229340Y335230D02*
X313790D01*
X137950Y243840D02*
X229340Y335230D01*
X133950Y243840D02*
X137950D01*
X216640Y347930D02*
X313790D01*
X137950Y269240D02*
X216640Y347930D01*
X133950Y269240D02*
X137950D01*
X203940Y360630D02*
X313790D01*
X137950Y294640D02*
X203940Y360630D01*
X133950Y294640D02*
X137950D01*
X191240Y373330D02*
X313790D01*
X137950Y320040D02*
X191240Y373330D01*
X133950Y320040D02*
X137950D01*
X178540Y386030D02*
X313790D01*
X137950Y345440D02*
X178540Y386030D01*
X133950Y345440D02*
X137950D01*
X165840Y398730D02*
X313790D01*
X137950Y370840D02*
X165840Y398730D01*
X133950Y370840D02*
X137950D01*
X153140Y411430D02*
X313790D01*
X137950Y396240D02*
X153140Y411430D01*
X133950Y396240D02*
X137950D01*
X312545Y422885D02*
X313790Y424130D01*
X135195Y422885D02*
X312545D01*
X133950Y421640D02*
X135195Y422885D01*
X148160Y436830D02*
X313790D01*
X137950Y447040D02*
X148160Y436830D01*
X133950Y447040D02*
X137950D01*
Y472440D02*
X160860Y449530D01*
X313790D01*
X133950Y472440D02*
X137950D01*
X173560Y462230D02*
X313790D01*
X137950Y497840D02*
X173560Y462230D01*
X133950Y497840D02*
X137950D01*
X186260Y474930D02*
X313790D01*
X137950Y523240D02*
X186260Y474930D01*
X133950Y523240D02*
X137950D01*
Y548640D02*
X198960Y487630D01*
X313790D01*
X133950Y548640D02*
X137950D01*
D21*
X566420Y287020D02*
D03*
X553720Y298450D02*
D03*
X527050D02*
D03*
X539750Y287020D02*
D03*
X488950D02*
D03*
X476250Y298450D02*
D03*
X502920D02*
D03*
X515620Y287020D02*
D03*
X438150D02*
D03*
X425450Y298450D02*
D03*
X452120D02*
D03*
X464820Y287020D02*
D03*
X401320Y298450D02*
D03*
X414020Y287020D02*
D03*
X650240Y60960D02*
D03*
X624840D02*
D03*
X598170Y62230D02*
D03*
X575310Y58420D02*
D03*
X547370Y62230D02*
D03*
X521970Y59690D02*
D03*
X497840Y62230D02*
D03*
X472440Y59690D02*
D03*
X447040D02*
D03*
X420370Y60960D02*
D03*
X397510D02*
D03*
X370840D02*
D03*
X345440Y59690D02*
D03*
X321310Y58420D02*
D03*
X646430Y742950D02*
D03*
X622300Y741680D02*
D03*
X596900Y740410D02*
D03*
X570230D02*
D03*
X547370D02*
D03*
X520700Y741680D02*
D03*
X495300D02*
D03*
X469900Y739140D02*
D03*
X445770Y741680D02*
D03*
X420370Y739140D02*
D03*
X392430Y742950D02*
D03*
X369570Y739140D02*
D03*
X342900Y740410D02*
D03*
X317500D02*
D03*
X553720Y514350D02*
D03*
X566420Y502920D02*
D03*
X502920Y514350D02*
D03*
X515620Y502920D02*
D03*
X542290D02*
D03*
X529590Y514350D02*
D03*
X452120D02*
D03*
X464820Y502920D02*
D03*
X491490D02*
D03*
X478790Y514350D02*
D03*
X427990D02*
D03*
X440690Y502920D02*
D03*
X414020D02*
D03*
X401320Y514350D02*
D03*
X591820Y323850D02*
D03*
X571500Y336550D02*
D03*
X572770Y361950D02*
D03*
X593090Y349250D02*
D03*
X574040Y387350D02*
D03*
X594360Y374650D02*
D03*
X570230Y411480D02*
D03*
X590550Y398780D02*
D03*
X572770Y438150D02*
D03*
X593090Y425450D02*
D03*
X572770Y463550D02*
D03*
X593090Y450850D02*
D03*
X571500Y488950D02*
D03*
X591820Y476250D02*
D03*
X892810Y264160D02*
D03*
X895350Y288290D02*
D03*
X894080Y313690D02*
D03*
X892810Y340360D02*
D03*
Y364490D02*
D03*
X894080Y389890D02*
D03*
X892810Y414020D02*
D03*
Y439420D02*
D03*
Y464820D02*
D03*
Y488950D02*
D03*
X891540Y515620D02*
D03*
Y541020D02*
D03*
X894080Y567690D02*
D03*
X895350Y593090D02*
D03*
X82550Y218440D02*
D03*
X83820Y243840D02*
D03*
X86360Y270510D02*
D03*
Y295910D02*
D03*
X85090Y322580D02*
D03*
Y346710D02*
D03*
Y372110D02*
D03*
Y397510D02*
D03*
X83820Y421640D02*
D03*
X85090Y447040D02*
D03*
Y471170D02*
D03*
X83820Y497840D02*
D03*
X82550Y523240D02*
D03*
X85090Y547370D02*
D03*
X386080Y335280D02*
D03*
X406400Y322580D02*
D03*
X384810Y360680D02*
D03*
X405130Y347980D02*
D03*
X384810Y386080D02*
D03*
X405130Y373380D02*
D03*
X387350Y412750D02*
D03*
X407670Y400050D02*
D03*
X383540Y436880D02*
D03*
X403860Y424180D02*
D03*
X384810Y462280D02*
D03*
X405130Y449580D02*
D03*
X406400Y474980D02*
D03*
X386080Y487680D02*
D03*
M02*
