G04*
G04 #@! TF.GenerationSoftware,Altium Limited,Altium Designer,23.11.1 (41)*
G04*
G04 Layer_Physical_Order=2*
G04 Layer_Color=16711680*
%FSLAX44Y44*%
%MOMM*%
G71*
G04*
G04 #@! TF.SameCoordinates,00D06A11-A73A-467B-94DC-87872A238894*
G04*
G04*
G04 #@! TF.FilePolarity,Positive*
G04*
G01*
G75*
%ADD20C,0.4000*%
%ADD21C,1.0000*%
D20*
X566420Y144780D02*
Y287020D01*
X553720Y132080D02*
Y298450D01*
X566420Y144780D02*
X650240Y60960D01*
X553720Y132080D02*
X624840Y60960D01*
X539750Y120650D02*
X598170Y62230D01*
X539750Y120650D02*
Y287020D01*
X527050Y106680D02*
Y298450D01*
Y106680D02*
X575310Y58420D01*
X515620Y93980D02*
X547370Y62230D01*
X515620Y93980D02*
Y287020D01*
X502920Y78740D02*
X521970Y59690D01*
X502920Y78740D02*
Y298450D01*
X488950Y71120D02*
X497840Y62230D01*
X488950Y71120D02*
Y287020D01*
X472440Y59690D02*
X476250Y63500D01*
Y298450D01*
X447040Y59690D02*
X464820Y77470D01*
Y287020D01*
X420370Y60960D02*
X452120Y92710D01*
Y298450D01*
X397510Y60960D02*
X438150Y101600D01*
Y287020D01*
X370840Y60960D02*
X425450Y115570D01*
Y298450D01*
X414020Y128270D02*
Y287020D01*
X345440Y59690D02*
X414020Y128270D01*
X321310Y58420D02*
X401320Y138430D01*
Y298450D01*
X566420Y502920D02*
Y662940D01*
X646430Y742950D01*
X553720Y673100D02*
X622300Y741680D01*
X553720Y514350D02*
Y673100D01*
X542290Y502920D02*
Y685800D01*
X596900Y740410D01*
X529590Y514350D02*
Y699770D01*
X570230Y740410D01*
X515620Y502920D02*
Y708660D01*
X547370Y740410D01*
X502920Y514350D02*
Y723900D01*
X520700Y741680D01*
X491490Y502920D02*
Y737870D01*
X495300Y741680D01*
X478790Y514350D02*
Y730250D01*
X469900Y739140D02*
X478790Y730250D01*
X464820Y502920D02*
Y722630D01*
X445770Y741680D02*
X464820Y722630D01*
X452120Y514350D02*
Y707390D01*
X420370Y739140D02*
X452120Y707390D01*
X392430Y742950D02*
X440690Y694690D01*
Y502920D02*
Y694690D01*
X427990Y514350D02*
Y680720D01*
X369570Y739140D02*
X427990Y680720D01*
X342900Y740410D02*
X414020Y669290D01*
X317500Y740410D02*
X401320Y656590D01*
X414020Y502920D02*
Y669290D01*
X401320Y514350D02*
Y656590D01*
X833120Y323850D02*
X892810Y264160D01*
X591820Y323850D02*
X833120D01*
X892810Y264160D02*
X894080Y265430D01*
X571500Y336550D02*
X847090D01*
X895350Y288290D01*
X858520Y349250D02*
X894080Y313690D01*
X593090Y349250D02*
X858520D01*
X572770Y361950D02*
X871220D01*
X892810Y340360D01*
X882650Y374650D02*
X892810Y364490D01*
X594360Y374650D02*
X882650D01*
X892456Y389890D02*
X894080D01*
X889916Y387350D02*
X892456Y389890D01*
X574040Y387350D02*
X889916D01*
X877570Y398780D02*
X892810Y414020D01*
X590550Y398780D02*
X877570D01*
X864870Y411480D02*
X892810Y439420D01*
X570230Y411480D02*
X864870D01*
X853440Y425450D02*
X892810Y464820D01*
X593090Y425450D02*
X853440D01*
X842010Y438150D02*
X892810Y488950D01*
X572770Y438150D02*
X842010D01*
X826770Y450850D02*
X891540Y515620D01*
X593090Y450850D02*
X826770D01*
X814070Y463550D02*
X891540Y541020D01*
X572770Y463550D02*
X814070D01*
X802640Y476250D02*
X894080Y567690D01*
X591820Y476250D02*
X802640D01*
X571500Y488950D02*
X791210D01*
X895350Y593090D01*
X82550Y218440D02*
X186690Y322580D01*
X406400D01*
X175260Y335280D02*
X386080D01*
X83820Y243840D02*
X175260Y335280D01*
X163830Y347980D02*
X405130D01*
X86360Y270510D02*
X163830Y347980D01*
X151130Y360680D02*
X384810D01*
X86360Y295910D02*
X151130Y360680D01*
X135890Y373380D02*
X405130D01*
X85090Y322580D02*
X135890Y373380D01*
X124460Y386080D02*
X384810D01*
X85090Y346710D02*
X124460Y386080D01*
X113030Y400050D02*
X407670D01*
X85090Y372110D02*
X113030Y400050D01*
X100330Y412750D02*
X387350D01*
X85090Y397510D02*
X100330Y412750D01*
X87984Y424180D02*
X403860D01*
X85444Y421640D02*
X87984Y424180D01*
X83820Y421640D02*
X85444D01*
X95250Y436880D02*
X383540D01*
X85090Y447040D02*
X95250Y436880D01*
X85090Y471170D02*
X106680Y449580D01*
X405130D01*
X119380Y462280D02*
X384810D01*
X83820Y497840D02*
X119380Y462280D01*
X82550Y523240D02*
X130810Y474980D01*
X406400D01*
X144780Y487680D02*
X386080D01*
X83820Y546100D02*
X85090Y547370D01*
X144780Y487680D01*
D21*
X566420Y287020D02*
D03*
X553720Y298450D02*
D03*
X527050D02*
D03*
X539750Y287020D02*
D03*
X488950D02*
D03*
X476250Y298450D02*
D03*
X502920D02*
D03*
X515620Y287020D02*
D03*
X438150D02*
D03*
X425450Y298450D02*
D03*
X452120D02*
D03*
X464820Y287020D02*
D03*
X401320Y298450D02*
D03*
X414020Y287020D02*
D03*
X650240Y60960D02*
D03*
X624840D02*
D03*
X598170Y62230D02*
D03*
X575310Y58420D02*
D03*
X547370Y62230D02*
D03*
X521970Y59690D02*
D03*
X497840Y62230D02*
D03*
X472440Y59690D02*
D03*
X447040D02*
D03*
X420370Y60960D02*
D03*
X397510D02*
D03*
X370840D02*
D03*
X345440Y59690D02*
D03*
X321310Y58420D02*
D03*
X646430Y742950D02*
D03*
X622300Y741680D02*
D03*
X596900Y740410D02*
D03*
X570230D02*
D03*
X547370D02*
D03*
X520700Y741680D02*
D03*
X495300D02*
D03*
X469900Y739140D02*
D03*
X445770Y741680D02*
D03*
X420370Y739140D02*
D03*
X392430Y742950D02*
D03*
X369570Y739140D02*
D03*
X342900Y740410D02*
D03*
X317500D02*
D03*
X553720Y514350D02*
D03*
X566420Y502920D02*
D03*
X502920Y514350D02*
D03*
X515620Y502920D02*
D03*
X542290D02*
D03*
X529590Y514350D02*
D03*
X452120D02*
D03*
X464820Y502920D02*
D03*
X491490D02*
D03*
X478790Y514350D02*
D03*
X427990D02*
D03*
X440690Y502920D02*
D03*
X414020D02*
D03*
X401320Y514350D02*
D03*
X591820Y323850D02*
D03*
X571500Y336550D02*
D03*
X572770Y361950D02*
D03*
X593090Y349250D02*
D03*
X574040Y387350D02*
D03*
X594360Y374650D02*
D03*
X570230Y411480D02*
D03*
X590550Y398780D02*
D03*
X572770Y438150D02*
D03*
X593090Y425450D02*
D03*
X572770Y463550D02*
D03*
X593090Y450850D02*
D03*
X571500Y488950D02*
D03*
X591820Y476250D02*
D03*
X892810Y264160D02*
D03*
X895350Y288290D02*
D03*
X894080Y313690D02*
D03*
X892810Y340360D02*
D03*
Y364490D02*
D03*
X894080Y389890D02*
D03*
X892810Y414020D02*
D03*
Y439420D02*
D03*
Y464820D02*
D03*
Y488950D02*
D03*
X891540Y515620D02*
D03*
Y541020D02*
D03*
X894080Y567690D02*
D03*
X895350Y593090D02*
D03*
X82550Y218440D02*
D03*
X83820Y243840D02*
D03*
X86360Y270510D02*
D03*
Y295910D02*
D03*
X85090Y322580D02*
D03*
Y346710D02*
D03*
Y372110D02*
D03*
Y397510D02*
D03*
X83820Y421640D02*
D03*
X85090Y447040D02*
D03*
Y471170D02*
D03*
X83820Y497840D02*
D03*
X82550Y523240D02*
D03*
X85090Y547370D02*
D03*
X386080Y335280D02*
D03*
X406400Y322580D02*
D03*
X384810Y360680D02*
D03*
X405130Y347980D02*
D03*
X384810Y386080D02*
D03*
X405130Y373380D02*
D03*
X387350Y412750D02*
D03*
X407670Y400050D02*
D03*
X383540Y436880D02*
D03*
X403860Y424180D02*
D03*
X384810Y462280D02*
D03*
X405130Y449580D02*
D03*
X406400Y474980D02*
D03*
X386080Y487680D02*
D03*
M02*
