G04*
G04 #@! TF.GenerationSoftware,Altium Limited,Altium Designer,23.11.1 (41)*
G04*
G04 Layer_Physical_Order=4*
G04 Layer_Color=16711680*
%FSLAX44Y44*%
%MOMM*%
G71*
G04*
G04 #@! TF.SameCoordinates,A8DA5B03-C177-4F87-9ED7-5337E7294582*
G04*
G04*
G04 #@! TF.FilePolarity,Positive*
G04*
G01*
G75*
%ADD10C,0.2500*%
%ADD12C,0.6000*%
%ADD15C,0.2000*%
%ADD19R,1.3000X0.9000*%
%ADD21R,1.3500X1.1500*%
%ADD24C,2.0000*%
%ADD28R,0.9000X1.3000*%
%ADD32R,1.9500X1.4000*%
%ADD68C,1.6000*%
%ADD73C,1.5000*%
%ADD80C,0.3000*%
%ADD81C,7.0000*%
%ADD82C,1.3000*%
%ADD83C,0.7000*%
G04:AMPARAMS|DCode=84|XSize=1.6mm|YSize=1.6mm|CornerRadius=0.4mm|HoleSize=0mm|Usage=FLASHONLY|Rotation=270.000|XOffset=0mm|YOffset=0mm|HoleType=Round|Shape=RoundedRectangle|*
%AMROUNDEDRECTD84*
21,1,1.6000,0.8000,0,0,270.0*
21,1,0.8000,1.6000,0,0,270.0*
1,1,0.8000,-0.4000,-0.4000*
1,1,0.8000,-0.4000,0.4000*
1,1,0.8000,0.4000,0.4000*
1,1,0.8000,0.4000,-0.4000*
%
%ADD84ROUNDEDRECTD84*%
G04:AMPARAMS|DCode=85|XSize=2mm|YSize=2mm|CornerRadius=0.5mm|HoleSize=0mm|Usage=FLASHONLY|Rotation=90.000|XOffset=0mm|YOffset=0mm|HoleType=Round|Shape=RoundedRectangle|*
%AMROUNDEDRECTD85*
21,1,2.0000,1.0000,0,0,90.0*
21,1,1.0000,2.0000,0,0,90.0*
1,1,1.0000,0.5000,0.5000*
1,1,1.0000,0.5000,-0.5000*
1,1,1.0000,-0.5000,-0.5000*
1,1,1.0000,-0.5000,0.5000*
%
%ADD85ROUNDEDRECTD85*%
%ADD86C,1.2000*%
%ADD87C,0.4500*%
%ADD88C,0.5000*%
%ADD89C,0.4000*%
%ADD90C,0.3000*%
%ADD91R,0.7500X2.4000*%
G04:AMPARAMS|DCode=92|XSize=1.75mm|YSize=1.25mm|CornerRadius=0.3125mm|HoleSize=0mm|Usage=FLASHONLY|Rotation=0.000|XOffset=0mm|YOffset=0mm|HoleType=Round|Shape=RoundedRectangle|*
%AMROUNDEDRECTD92*
21,1,1.7500,0.6250,0,0,0.0*
21,1,1.1250,1.2500,0,0,0.0*
1,1,0.6250,0.5625,-0.3125*
1,1,0.6250,-0.5625,-0.3125*
1,1,0.6250,-0.5625,0.3125*
1,1,0.6250,0.5625,0.3125*
%
%ADD92ROUNDEDRECTD92*%
%ADD93R,1.2000X1.6000*%
%ADD94R,2.4000X0.7500*%
G36*
X700000Y550000D02*
X703277D01*
X709775Y549144D01*
X716106Y547448D01*
X722162Y544940D01*
X727838Y541663D01*
X733038Y537673D01*
X737673Y533038D01*
X741663Y527838D01*
X744940Y522162D01*
X747448Y516106D01*
X749144Y509775D01*
X750000Y503277D01*
Y500000D01*
X750000Y500000D01*
X750000Y500000D01*
X750000Y50000D01*
Y46723D01*
X749145Y40224D01*
X747448Y33893D01*
X744940Y27838D01*
X741663Y22162D01*
X737673Y16962D01*
X733038Y12327D01*
X727838Y8337D01*
X722162Y5060D01*
X716106Y2552D01*
X709775Y856D01*
X703277Y0D01*
X700000Y0D01*
X50000Y0D01*
X46723D01*
X40224Y856D01*
X33893Y2552D01*
X27838Y5060D01*
X22162Y8337D01*
X16962Y12327D01*
X12327Y16962D01*
X8337Y22162D01*
X5060Y27838D01*
X2552Y33893D01*
X856Y40224D01*
X0Y46723D01*
X0Y50000D01*
X0Y500000D01*
Y503277D01*
X856Y509775D01*
X2552Y516106D01*
X5060Y522162D01*
X8337Y527838D01*
X12327Y533038D01*
X16962Y537673D01*
X22162Y541663D01*
X27838Y544940D01*
X33893Y547448D01*
X40224Y549144D01*
X46723Y550000D01*
X50000D01*
X50000Y550000D01*
X700000Y550000D01*
D02*
G37*
%LPC*%
G36*
X282000Y541500D02*
X269000D01*
Y524500D01*
X282000D01*
Y529941D01*
X299729D01*
X299729Y529941D01*
X300900Y530174D01*
X301892Y530837D01*
X302768Y531713D01*
X303000Y531667D01*
X304658Y531997D01*
X306064Y532936D01*
X307003Y534342D01*
X307333Y536000D01*
X307003Y537658D01*
X306064Y539064D01*
X304658Y540003D01*
X303000Y540333D01*
X301342Y540003D01*
X299936Y539064D01*
X298997Y537658D01*
X298732Y536329D01*
X298462Y536059D01*
X282000D01*
Y541500D01*
D02*
G37*
G36*
X577200Y537582D02*
X574720Y537256D01*
X572409Y536298D01*
X570424Y534776D01*
X568902Y532791D01*
X567944Y530480D01*
X567618Y528000D01*
X567944Y525520D01*
X568902Y523209D01*
X570424Y521225D01*
X572409Y519702D01*
X574720Y518745D01*
X577200Y518418D01*
X579680Y518745D01*
X581991Y519702D01*
X583975Y521225D01*
X585498Y523209D01*
X586455Y525520D01*
X586782Y528000D01*
X586455Y530480D01*
X585498Y532791D01*
X583975Y534776D01*
X581991Y536298D01*
X579680Y537256D01*
X577200Y537582D01*
D02*
G37*
G36*
X531690Y531514D02*
X529602Y531239D01*
X527655Y530433D01*
X525984Y529151D01*
X524702Y527480D01*
X523896Y525533D01*
X523621Y523445D01*
X523896Y521357D01*
X524702Y519411D01*
X525984Y517739D01*
X527655Y516457D01*
X529602Y515651D01*
X531690Y515376D01*
X533778Y515651D01*
X535724Y516457D01*
X537396Y517739D01*
X538678Y519411D01*
X539484Y521357D01*
X539759Y523445D01*
X539484Y525533D01*
X538678Y527480D01*
X537396Y529151D01*
X535724Y530433D01*
X533778Y531239D01*
X531690Y531514D01*
D02*
G37*
G36*
X327500Y538059D02*
X326329Y537826D01*
X325337Y537163D01*
X324837Y536663D01*
X324837Y536663D01*
X324337Y536163D01*
X323674Y535171D01*
X323441Y534000D01*
X323441Y534000D01*
Y513000D01*
X323674Y511829D01*
X324337Y510837D01*
X325330Y510174D01*
X326500Y509941D01*
X327671Y510174D01*
X328663Y510837D01*
X329326Y511829D01*
X329559Y513000D01*
Y532733D01*
X329663Y532837D01*
X330326Y533829D01*
X330559Y535000D01*
X330326Y536171D01*
X329663Y537163D01*
X328671Y537826D01*
X327500Y538059D01*
D02*
G37*
G36*
X412310Y531514D02*
X410222Y531239D01*
X408275Y530433D01*
X406604Y529151D01*
X405322Y527480D01*
X404516Y525533D01*
X404241Y523445D01*
X404516Y521357D01*
X405322Y519411D01*
X406528Y517839D01*
X406387Y517099D01*
X406207Y516569D01*
X394500D01*
X393134Y516297D01*
X391977Y515523D01*
X391203Y514366D01*
X390931Y513000D01*
X391203Y511634D01*
X391977Y510477D01*
X393134Y509703D01*
X394500Y509431D01*
X440445D01*
X441811Y509703D01*
X442968Y510477D01*
X444523Y512032D01*
X445297Y513189D01*
X445569Y514555D01*
X445297Y515921D01*
X444523Y517078D01*
X443366Y517852D01*
X442000Y518124D01*
X440634Y517852D01*
X439477Y517078D01*
X438967Y516569D01*
X418413D01*
X418233Y517099D01*
X418092Y517839D01*
X419298Y519411D01*
X420104Y521357D01*
X420379Y523445D01*
X420104Y525533D01*
X419298Y527480D01*
X418016Y529151D01*
X416344Y530433D01*
X414398Y531239D01*
X412310Y531514D01*
D02*
G37*
G36*
X357000Y543500D02*
X344000D01*
Y526500D01*
X350155D01*
X350295Y525794D01*
X350959Y524802D01*
X351272Y524488D01*
Y523218D01*
X350837Y522784D01*
X350174Y521792D01*
X350116Y521500D01*
X343000D01*
Y504500D01*
X354836D01*
X354958Y504316D01*
X376937Y482338D01*
Y480059D01*
X366267D01*
X365332Y480994D01*
X365333Y481000D01*
X365003Y482658D01*
X364064Y484064D01*
X362658Y485003D01*
X361000Y485333D01*
X359342Y485003D01*
X357936Y484064D01*
X356997Y482658D01*
X356667Y481000D01*
X356997Y479342D01*
X357936Y477936D01*
X359342Y476997D01*
X361000Y476667D01*
X361006Y476668D01*
X362837Y474837D01*
X362837Y474837D01*
X363829Y474174D01*
X365000Y473941D01*
X365000Y473941D01*
X371459D01*
X371845Y472671D01*
X370936Y472064D01*
X369997Y470658D01*
X369667Y469000D01*
X369997Y467342D01*
X370936Y465936D01*
X370941Y465932D01*
Y436939D01*
X370941Y436938D01*
X371174Y435768D01*
X371230Y435684D01*
X371067Y434862D01*
X371142Y434482D01*
X370337Y433500D01*
X363370D01*
X363300Y433500D01*
X362100D01*
X362030Y433500D01*
X350670D01*
X350600Y433500D01*
X349400D01*
X349330Y433500D01*
X337970D01*
X337900Y433500D01*
X336700D01*
X336630Y433500D01*
X325270D01*
X325200Y433500D01*
X324000D01*
X323930Y433500D01*
X312500D01*
Y433500D01*
X311300D01*
Y433500D01*
X299800D01*
Y433500D01*
X298600D01*
X298024Y434577D01*
X298175Y434803D01*
X298505Y436461D01*
X298175Y438119D01*
X297236Y439525D01*
X297230Y439528D01*
Y444539D01*
X298926D01*
X298927Y444539D01*
X300097Y444772D01*
X301089Y445435D01*
X321768Y466114D01*
X322941Y465628D01*
Y463000D01*
X322941Y463000D01*
X323174Y461829D01*
X323837Y460837D01*
X324668Y460006D01*
X324667Y460000D01*
X324997Y458342D01*
X325936Y456936D01*
X327342Y455997D01*
X329000Y455667D01*
X330658Y455997D01*
X332064Y456936D01*
X333003Y458342D01*
X333333Y460000D01*
X333003Y461658D01*
X332064Y463064D01*
X330658Y464003D01*
X329059Y464322D01*
Y470671D01*
X329059Y470672D01*
X328826Y471842D01*
X328163Y472834D01*
X328991Y473680D01*
X330163Y474852D01*
X330163Y474852D01*
X330826Y475844D01*
X331059Y477015D01*
X331059Y477015D01*
Y486264D01*
X332064Y486936D01*
X333003Y488342D01*
X333333Y490000D01*
X333003Y491658D01*
X332064Y493064D01*
X330658Y494003D01*
X329000Y494333D01*
X327342Y494003D01*
X325936Y493064D01*
X324997Y491658D01*
X324667Y490000D01*
X324997Y488342D01*
X325006Y488327D01*
X324941Y488000D01*
Y478902D01*
X321515D01*
X320344Y478669D01*
X319352Y478006D01*
X319352Y478006D01*
X297329Y455983D01*
X296059Y456509D01*
Y459182D01*
X296064Y459186D01*
X297003Y460592D01*
X297333Y462250D01*
X297003Y463908D01*
X296064Y465314D01*
X294658Y466253D01*
X293000Y466583D01*
X291342Y466253D01*
X289936Y465314D01*
X288997Y463908D01*
X288667Y462250D01*
X288997Y460592D01*
X289936Y459186D01*
X289941Y459182D01*
Y453941D01*
X289941Y453941D01*
X290174Y452771D01*
X290837Y451778D01*
X292382Y450233D01*
Y448963D01*
X292009Y448589D01*
X291346Y447597D01*
X291113Y446427D01*
X291113Y446426D01*
Y439528D01*
X291108Y439525D01*
X290168Y438119D01*
X289838Y436461D01*
X290168Y434803D01*
X290290Y434620D01*
X289691Y433500D01*
X287183D01*
X286802Y433580D01*
X286082Y434411D01*
X286089Y434770D01*
X286333Y436000D01*
X286003Y437658D01*
X285064Y439064D01*
X283658Y440003D01*
X282000Y440333D01*
X281994Y440332D01*
X278663Y443663D01*
X277670Y444326D01*
X276500Y444559D01*
X276500Y444559D01*
X273000D01*
Y455500D01*
X260000D01*
Y438500D01*
X269704D01*
X270000Y438441D01*
X270000Y438441D01*
X275233D01*
X277668Y436006D01*
X277667Y436000D01*
X277911Y434770D01*
X277148Y433500D01*
X274400D01*
Y433500D01*
X273200D01*
Y433500D01*
X273130Y433500D01*
X261700D01*
Y405500D01*
X268153D01*
X273177Y400477D01*
X274334Y399703D01*
X275700Y399431D01*
X281191D01*
X281842Y398997D01*
X283500Y398667D01*
X285158Y398997D01*
X286564Y399936D01*
X287503Y401342D01*
X287833Y403000D01*
X287589Y404230D01*
X288224Y405287D01*
X288468Y405500D01*
X298600D01*
Y405500D01*
X299800D01*
Y405500D01*
X311300D01*
Y405500D01*
X312500D01*
Y405500D01*
X323930D01*
X324000Y405500D01*
X325200D01*
X325270Y405500D01*
X336630D01*
X336700Y405500D01*
X337900D01*
X337970Y405500D01*
X349330D01*
X349400Y405500D01*
X350600D01*
X350670Y405500D01*
X362030D01*
X362100Y405500D01*
X363300D01*
X363370Y405500D01*
X374800D01*
Y405500D01*
X376000D01*
Y405500D01*
X387500D01*
Y405500D01*
X388700D01*
Y405500D01*
X400130D01*
X400200Y405500D01*
X401400D01*
X401470Y405500D01*
X412900D01*
Y405500D01*
X414100D01*
Y405500D01*
X425600D01*
Y405500D01*
X426800D01*
Y405500D01*
X438300D01*
Y433500D01*
X426800D01*
Y433500D01*
X425600D01*
Y433500D01*
X414100D01*
Y433500D01*
X412900D01*
Y433500D01*
X409652D01*
X409000Y434500D01*
X409000Y434770D01*
Y451500D01*
X405559D01*
Y459301D01*
X405559Y459301D01*
X405326Y460472D01*
X404663Y461464D01*
X394964Y471163D01*
X393972Y471826D01*
X393754Y471869D01*
X393546Y472190D01*
X393280Y473259D01*
X394003Y474342D01*
X394333Y476000D01*
X394003Y477658D01*
X393064Y479064D01*
X391658Y480003D01*
X390000Y480333D01*
X388342Y480003D01*
X388175Y479892D01*
X387054Y480490D01*
Y485262D01*
X387054Y485262D01*
X386822Y486432D01*
X386158Y487425D01*
X370256Y503327D01*
X370742Y504500D01*
X378000D01*
Y509941D01*
X379932D01*
X379936Y509936D01*
X381342Y508997D01*
X383000Y508667D01*
X384658Y508997D01*
X386064Y509936D01*
X387003Y511342D01*
X387333Y513000D01*
X387003Y514658D01*
X386064Y516064D01*
X386059Y516068D01*
Y532765D01*
X386314Y532936D01*
X387253Y534342D01*
X387583Y536000D01*
X387253Y537658D01*
X386314Y539064D01*
X384908Y540003D01*
X383250Y540333D01*
X381592Y540003D01*
X380186Y539064D01*
X379247Y537658D01*
X378917Y536000D01*
X379247Y534342D01*
X379941Y533302D01*
Y516068D01*
X379936Y516064D01*
X379932Y516059D01*
X378000D01*
Y521500D01*
X365071D01*
X364704Y521821D01*
X364152Y522419D01*
X363947Y523449D01*
X363284Y524441D01*
X363284Y524441D01*
X359770Y527956D01*
X358777Y528619D01*
X357607Y528852D01*
X357000Y529857D01*
Y543500D01*
D02*
G37*
G36*
X502000Y526659D02*
X498867Y526246D01*
X495948Y525037D01*
X493442Y523114D01*
X491518Y520607D01*
X490309Y517688D01*
X489896Y514555D01*
X490309Y511422D01*
X491518Y508503D01*
X493442Y505997D01*
X495948Y504073D01*
X498867Y502864D01*
X502000Y502451D01*
X505133Y502864D01*
X508052Y504073D01*
X510559Y505997D01*
X512482Y508503D01*
X513691Y511422D01*
X514104Y514555D01*
X513691Y517688D01*
X512482Y520607D01*
X510559Y523114D01*
X508052Y525037D01*
X505133Y526246D01*
X502000Y526659D01*
D02*
G37*
G36*
X472000D02*
X468867Y526246D01*
X465948Y525037D01*
X463442Y523114D01*
X461518Y520607D01*
X460309Y517688D01*
X459896Y514555D01*
X460309Y511422D01*
X461518Y508503D01*
X463442Y505997D01*
X465948Y504073D01*
X468867Y502864D01*
X472000Y502451D01*
X475133Y502864D01*
X478052Y504073D01*
X480559Y505997D01*
X482482Y508503D01*
X483691Y511422D01*
X484104Y514555D01*
X483691Y517688D01*
X482482Y520607D01*
X480559Y523114D01*
X478052Y525037D01*
X475133Y526246D01*
X472000Y526659D01*
D02*
G37*
G36*
X282000Y513500D02*
X269000D01*
Y496500D01*
X282000D01*
Y501941D01*
X299932D01*
X299936Y501936D01*
X301342Y500997D01*
X303000Y500667D01*
X304658Y500997D01*
X306064Y501936D01*
X307003Y503342D01*
X307333Y505000D01*
X307003Y506658D01*
X306064Y508064D01*
X304658Y509003D01*
X303000Y509333D01*
X301342Y509003D01*
X299936Y508064D01*
X299932Y508059D01*
X282000D01*
Y513500D01*
D02*
G37*
G36*
X507000Y496615D02*
X497000D01*
X495173Y496375D01*
X493470Y495670D01*
X492007Y494548D01*
X490886Y493085D01*
X490180Y491382D01*
X489940Y489555D01*
Y479555D01*
X490180Y477728D01*
X490886Y476025D01*
X492007Y474563D01*
X493470Y473441D01*
X495173Y472735D01*
X497000Y472495D01*
X507000D01*
X508827Y472735D01*
X510530Y473441D01*
X511992Y474563D01*
X513115Y476025D01*
X513820Y477728D01*
X514060Y479555D01*
Y489555D01*
X513820Y491382D01*
X513115Y493085D01*
X511992Y494548D01*
X510530Y495670D01*
X508827Y496375D01*
X507000Y496615D01*
D02*
G37*
G36*
X472000Y496659D02*
X468867Y496246D01*
X465948Y495037D01*
X463442Y493114D01*
X461518Y490607D01*
X460309Y487688D01*
X459896Y484555D01*
X460309Y481422D01*
X461518Y478503D01*
X463442Y475997D01*
X465948Y474073D01*
X468867Y472864D01*
X472000Y472452D01*
X475133Y472864D01*
X478052Y474073D01*
X480559Y475997D01*
X482482Y478503D01*
X483691Y481422D01*
X484104Y484555D01*
X483691Y487688D01*
X482482Y490607D01*
X480559Y493114D01*
X478052Y495037D01*
X475133Y496246D01*
X472000Y496659D01*
D02*
G37*
G36*
X442000D02*
X438867Y496246D01*
X435948Y495037D01*
X433442Y493114D01*
X431518Y490607D01*
X430309Y487688D01*
X429896Y484555D01*
X430309Y481422D01*
X431518Y478503D01*
X433442Y475997D01*
X435948Y474073D01*
X438867Y472864D01*
X442000Y472452D01*
X445133Y472864D01*
X448052Y474073D01*
X450559Y475997D01*
X452482Y478503D01*
X453691Y481422D01*
X454104Y484555D01*
X453691Y487688D01*
X452482Y490607D01*
X450559Y493114D01*
X448052Y495037D01*
X445133Y496246D01*
X442000Y496659D01*
D02*
G37*
G36*
X252500Y536059D02*
X251329Y535826D01*
X250337Y535163D01*
X249674Y534170D01*
X249441Y533000D01*
Y506267D01*
X247837Y504663D01*
X247174Y503671D01*
X246941Y502500D01*
X246941Y502500D01*
Y474547D01*
X245830Y474326D01*
X244837Y473663D01*
X241337Y470163D01*
X240674Y469170D01*
X240441Y468000D01*
X240441Y468000D01*
Y447000D01*
X240674Y445830D01*
X241337Y444837D01*
X242330Y444174D01*
X243500Y443941D01*
X244671Y444174D01*
X245663Y444837D01*
X246326Y445830D01*
X246559Y447000D01*
Y466733D01*
X248267Y468441D01*
X248828D01*
X248828Y468441D01*
X249999Y468674D01*
X250991Y469337D01*
X252163Y470509D01*
X252163Y470509D01*
X252826Y471501D01*
X253059Y472672D01*
X253059Y472672D01*
Y501233D01*
X254663Y502837D01*
X255326Y503829D01*
X255559Y505000D01*
X255559Y505000D01*
Y533000D01*
X255326Y534170D01*
X254663Y535163D01*
X253671Y535826D01*
X252500Y536059D01*
D02*
G37*
G36*
X273000Y474500D02*
X260000D01*
Y457500D01*
X273000D01*
Y462941D01*
X277715D01*
X278667Y462250D01*
X278997Y460592D01*
X279936Y459186D01*
X281342Y458247D01*
X283000Y457917D01*
X284658Y458247D01*
X286064Y459186D01*
X287003Y460592D01*
X287333Y462250D01*
X287003Y463908D01*
X286064Y465314D01*
X284658Y466253D01*
X283000Y466583D01*
X282994Y466582D01*
X281413Y468163D01*
X280420Y468826D01*
X279250Y469059D01*
X279250Y469059D01*
X273000D01*
Y474500D01*
D02*
G37*
G36*
X485000Y446569D02*
X425500D01*
X424134Y446297D01*
X422977Y445523D01*
X422203Y444366D01*
X421931Y443000D01*
X422203Y441634D01*
X422977Y440477D01*
X424134Y439703D01*
X425500Y439431D01*
X485000D01*
X486366Y439703D01*
X487523Y440477D01*
X488297Y441634D01*
X488569Y443000D01*
X488297Y444366D01*
X487523Y445523D01*
X486366Y446297D01*
X485000Y446569D01*
D02*
G37*
G36*
X79000Y445078D02*
X77439Y444768D01*
X76116Y443884D01*
X75232Y442561D01*
X74922Y441000D01*
X75232Y439439D01*
X76116Y438116D01*
X77439Y437232D01*
X79000Y436922D01*
X80561Y437232D01*
X81884Y438116D01*
X82768Y439439D01*
X83078Y441000D01*
X82768Y442561D01*
X81884Y443884D01*
X80561Y444768D01*
X79000Y445078D01*
D02*
G37*
G36*
X619500Y450000D02*
X602500D01*
Y448098D01*
X586000D01*
X584049Y447710D01*
X582395Y446605D01*
X581290Y444951D01*
X580902Y443000D01*
X581290Y441049D01*
X582395Y439395D01*
X584049Y438290D01*
X586000Y437902D01*
X602500D01*
Y437000D01*
X619500D01*
Y437402D01*
X625500D01*
Y436000D01*
X642500D01*
Y449000D01*
X625500D01*
Y447598D01*
X619500D01*
Y450000D01*
D02*
G37*
G36*
X361500Y464059D02*
X360330Y463826D01*
X359337Y463163D01*
X358674Y462170D01*
X358441Y461000D01*
X358674Y459829D01*
X359337Y458837D01*
X359441Y458733D01*
Y458000D01*
X359674Y456829D01*
X360006Y456332D01*
X358837Y455163D01*
X358174Y454170D01*
X357941Y453000D01*
X357941Y453000D01*
Y439000D01*
X358174Y437830D01*
X358837Y436837D01*
X359829Y436174D01*
X361000Y435941D01*
X362170Y436174D01*
X363163Y436837D01*
X363826Y437830D01*
X364059Y439000D01*
Y451733D01*
X365163Y452837D01*
X365826Y453829D01*
X366059Y455000D01*
X365826Y456171D01*
X365340Y456898D01*
X365559Y458000D01*
Y460000D01*
X365326Y461171D01*
X364663Y462163D01*
X363663Y463163D01*
X362671Y463826D01*
X361500Y464059D01*
D02*
G37*
G36*
X628000Y537582D02*
X625520Y537256D01*
X623209Y536298D01*
X621225Y534776D01*
X619702Y532791D01*
X618745Y530480D01*
X618418Y528000D01*
X618745Y525520D01*
X619702Y523209D01*
X621225Y521225D01*
X623209Y519702D01*
X625520Y518745D01*
X628000Y518418D01*
X630480Y518745D01*
X632791Y519702D01*
X634775Y521225D01*
X635079Y521620D01*
X635642Y521449D01*
X639094Y519604D01*
X642120Y517120D01*
X644604Y514094D01*
X646449Y510642D01*
X647586Y506896D01*
X647947Y503226D01*
X647902Y503000D01*
Y463650D01*
X647909Y463617D01*
X648281Y458880D01*
X649398Y454227D01*
X651230Y449806D01*
X653730Y445726D01*
X656837Y442088D01*
X660476Y438980D01*
X664556Y436480D01*
X668977Y434649D01*
X673630Y433531D01*
X678367Y433159D01*
X678400Y433152D01*
X680542D01*
X680547Y433125D01*
X681680Y431430D01*
X683375Y430297D01*
X685375Y429900D01*
X696625D01*
X698625Y430297D01*
X700320Y431430D01*
X701453Y433125D01*
X701850Y435125D01*
Y441375D01*
X701453Y443375D01*
X700320Y445070D01*
X698625Y446203D01*
X696625Y446600D01*
X685375D01*
X683375Y446203D01*
X681680Y445070D01*
X680547Y443375D01*
X680542Y443348D01*
X678400D01*
X678168Y443302D01*
X674426Y443670D01*
X670604Y444829D01*
X667082Y446712D01*
X663995Y449245D01*
X661462Y452332D01*
X659580Y455854D01*
X658420Y459676D01*
X658052Y463418D01*
X658098Y463650D01*
Y503000D01*
X658089Y503043D01*
X657722Y507707D01*
X656620Y512299D01*
X654813Y516662D01*
X652346Y520688D01*
X649279Y524279D01*
X645688Y527346D01*
X641662Y529813D01*
X637299Y531620D01*
X636726Y531758D01*
X636298Y532791D01*
X634775Y534776D01*
X632791Y536298D01*
X630480Y537256D01*
X628000Y537582D01*
D02*
G37*
G36*
X734000Y447118D02*
X726000D01*
X723659Y446652D01*
X721674Y445326D01*
X720348Y443341D01*
X719883Y441000D01*
Y433000D01*
X720348Y430659D01*
X721674Y428674D01*
X723659Y427348D01*
X726000Y426883D01*
X734000D01*
X736341Y427348D01*
X738326Y428674D01*
X739652Y430659D01*
X740117Y433000D01*
Y441000D01*
X739652Y443341D01*
X738326Y445326D01*
X736341Y446652D01*
X734000Y447118D01*
D02*
G37*
G36*
X730000Y421686D02*
X727390Y421343D01*
X724957Y420335D01*
X722868Y418732D01*
X721265Y416643D01*
X720257Y414211D01*
X719914Y411600D01*
X720257Y408989D01*
X721265Y406557D01*
X722868Y404468D01*
X724957Y402865D01*
X727390Y401857D01*
X730000Y401514D01*
X732610Y401857D01*
X735043Y402865D01*
X737132Y404468D01*
X738735Y406557D01*
X739743Y408989D01*
X740086Y411600D01*
X739743Y414211D01*
X738735Y416643D01*
X737132Y418732D01*
X735043Y420335D01*
X732610Y421343D01*
X730000Y421686D01*
D02*
G37*
G36*
X106750Y431250D02*
X89250D01*
Y415750D01*
X106750D01*
Y420441D01*
X109233D01*
X124668Y405006D01*
X124667Y405000D01*
X124997Y403342D01*
X125936Y401936D01*
X127342Y400997D01*
X129000Y400667D01*
X130658Y400997D01*
X132064Y401936D01*
X133003Y403342D01*
X133333Y405000D01*
X133003Y406658D01*
X132064Y408064D01*
X130658Y409003D01*
X129000Y409333D01*
X128994Y409332D01*
X112663Y425663D01*
X111671Y426326D01*
X110500Y426559D01*
X110500Y426559D01*
X106750D01*
Y431250D01*
D02*
G37*
G36*
X696625Y418100D02*
X685375D01*
X683375Y417703D01*
X681680Y416570D01*
X680547Y414875D01*
X680150Y412875D01*
Y406625D01*
X680547Y404625D01*
X681680Y402930D01*
X683375Y401797D01*
X685375Y401400D01*
X685902D01*
Y400767D01*
X686290Y398816D01*
X687395Y397162D01*
X689049Y396057D01*
X691000Y395669D01*
X692951Y396057D01*
X694605Y397162D01*
X695710Y398816D01*
X696098Y400767D01*
Y401400D01*
X696625D01*
X698625Y401797D01*
X700320Y402930D01*
X701453Y404625D01*
X701850Y406625D01*
Y412875D01*
X701453Y414875D01*
X700320Y416570D01*
X698625Y417703D01*
X696625Y418100D01*
D02*
G37*
G36*
X426800Y394500D02*
X425600D01*
Y394500D01*
X414170D01*
X414100Y394500D01*
Y394500D01*
X412900D01*
Y394500D01*
X401470D01*
X401400Y394500D01*
Y394500D01*
X400200D01*
Y394500D01*
X388770D01*
X388700Y394500D01*
X387500D01*
X387430Y394500D01*
X376070D01*
X376000Y394500D01*
Y394500D01*
X374800D01*
Y394500D01*
X363370D01*
X363300Y394500D01*
Y394500D01*
X362100D01*
Y394500D01*
X350670D01*
X350600Y394500D01*
Y394500D01*
X349400D01*
Y394500D01*
X337970D01*
X337900Y394500D01*
Y394500D01*
X336700D01*
Y394500D01*
X325270D01*
X325200Y394500D01*
X324000D01*
X323930Y394500D01*
X312500D01*
Y394500D01*
X311300D01*
Y394500D01*
X311230Y394500D01*
X299800D01*
Y394500D01*
X298600D01*
Y394500D01*
X298530Y394500D01*
X287100D01*
Y394500D01*
X285900D01*
Y394500D01*
X285830Y394500D01*
X274400D01*
Y394500D01*
X273200D01*
Y394500D01*
X273130Y394500D01*
X261700D01*
Y366500D01*
X268874D01*
X290011Y345363D01*
Y302666D01*
X289582Y302285D01*
X288312Y302856D01*
Y315403D01*
X288312Y315403D01*
X288079Y316574D01*
X287416Y317566D01*
X277720Y327263D01*
X276727Y327926D01*
X275557Y328159D01*
X275557Y328159D01*
X258167D01*
X250059Y336267D01*
Y365432D01*
X250064Y365436D01*
X251003Y366842D01*
X251333Y368500D01*
X251003Y370158D01*
X250064Y371564D01*
X248658Y372503D01*
X247000Y372833D01*
X245342Y372503D01*
X243936Y371564D01*
X242997Y370158D01*
X242667Y368500D01*
X242997Y366842D01*
X243936Y365436D01*
X243941Y365432D01*
Y335000D01*
X243941Y335000D01*
X244174Y333829D01*
X244837Y332837D01*
X252342Y325332D01*
X251856Y324159D01*
X240467D01*
X233500Y331126D01*
Y338300D01*
X205500D01*
Y326870D01*
X205500Y326800D01*
X205500D01*
Y325600D01*
X205500D01*
Y314170D01*
X205500Y314100D01*
X205500D01*
Y312900D01*
X205500D01*
Y301470D01*
X205500Y301400D01*
X205500D01*
Y300200D01*
X205500D01*
Y288770D01*
X205500Y288700D01*
X205500D01*
Y287500D01*
X205500D01*
Y276070D01*
X205500Y276000D01*
X205500D01*
Y274800D01*
X205500D01*
Y263370D01*
X205500Y263300D01*
X205500D01*
Y262100D01*
X205500D01*
Y250670D01*
X205500Y250600D01*
X205500D01*
Y249400D01*
X205500D01*
Y237970D01*
X205500Y237900D01*
X205500D01*
Y236700D01*
X205500D01*
Y225270D01*
X205500Y225200D01*
X205500D01*
Y224000D01*
X205500D01*
Y212570D01*
X205500Y212500D01*
X205500D01*
Y211300D01*
X205500D01*
Y199870D01*
X205500Y199800D01*
X205500D01*
Y198600D01*
X205500D01*
Y195909D01*
X201800D01*
X201658Y196003D01*
X200000Y196333D01*
X198342Y196003D01*
X196936Y195064D01*
X195997Y193658D01*
X195805Y192696D01*
X195770Y192519D01*
X194562Y192638D01*
Y192638D01*
X194562Y192638D01*
X194500Y193882D01*
Y198600D01*
X194500D01*
Y199800D01*
X194500D01*
Y211300D01*
X194500D01*
Y212500D01*
X194500D01*
Y223930D01*
X194500Y224000D01*
Y225200D01*
X194500Y225270D01*
Y236630D01*
X194500Y236700D01*
Y237900D01*
X194500Y237970D01*
Y249330D01*
X194500Y249400D01*
Y250600D01*
X194500Y250670D01*
Y260299D01*
X195770Y260684D01*
X195936Y260436D01*
X197342Y259497D01*
X199000Y259167D01*
X200658Y259497D01*
X202064Y260436D01*
X203003Y261842D01*
X203333Y263500D01*
X203003Y265158D01*
X202064Y266564D01*
X200658Y267503D01*
X199000Y267833D01*
X197342Y267503D01*
X195936Y266564D01*
X195770Y266316D01*
X194500Y266701D01*
Y274730D01*
X194500Y274800D01*
Y276000D01*
X194500Y276070D01*
Y287430D01*
X194500Y287500D01*
Y288700D01*
X194500Y288770D01*
Y300130D01*
X194500Y300200D01*
Y301400D01*
X194500Y301470D01*
Y312830D01*
X194500Y312900D01*
Y314100D01*
X194500Y314170D01*
Y325530D01*
X194500Y325600D01*
Y326800D01*
X194500Y326870D01*
Y338300D01*
X166500D01*
Y326870D01*
X166500Y326800D01*
Y325600D01*
X166500Y325530D01*
Y314170D01*
X166500Y314100D01*
Y312900D01*
X166500Y312830D01*
Y301470D01*
X166500Y301400D01*
Y300200D01*
X166500Y300130D01*
Y288770D01*
X166500Y288700D01*
Y287500D01*
X166500Y287430D01*
Y276070D01*
X166500Y276000D01*
Y274800D01*
X166500Y274730D01*
Y263370D01*
X166500Y263300D01*
Y262100D01*
X166500Y262030D01*
Y250670D01*
X166500Y250600D01*
Y249400D01*
X166500Y249330D01*
Y237970D01*
X166500Y237900D01*
Y236700D01*
X166500Y236630D01*
Y225270D01*
X166500Y225200D01*
Y224000D01*
X166500Y223930D01*
Y218862D01*
X165708Y218705D01*
X164716Y218042D01*
X164716Y218041D01*
X150837Y204163D01*
X150174Y203171D01*
X149941Y202000D01*
X149941Y202000D01*
Y191000D01*
X141500D01*
Y187559D01*
X136500D01*
Y190000D01*
X119500D01*
Y177000D01*
X136500D01*
Y181441D01*
X141500D01*
Y178000D01*
X156441D01*
Y172000D01*
X141500D01*
Y168559D01*
X136500D01*
Y171000D01*
X119500D01*
Y168059D01*
X119000D01*
X117829Y167826D01*
X116837Y167163D01*
X116837Y167163D01*
X112837Y163163D01*
X112174Y162171D01*
X111941Y161000D01*
X111941Y161000D01*
Y133000D01*
X111941Y133000D01*
X112174Y131830D01*
X112837Y130837D01*
X115837Y127837D01*
X115837Y127837D01*
X116830Y127174D01*
X118000Y126941D01*
X118500Y125864D01*
Y122000D01*
X135500D01*
Y126941D01*
X138500D01*
Y122000D01*
X155500D01*
Y135000D01*
X155500D01*
X155342Y136205D01*
X155338Y136270D01*
X165663Y146594D01*
X166326Y147587D01*
X166559Y148757D01*
X166559Y148757D01*
Y161700D01*
X190174D01*
X206037Y145837D01*
X206037Y145837D01*
X207029Y145174D01*
X208200Y144941D01*
X280678D01*
X280678Y144941D01*
X281848Y145174D01*
X282840Y145837D01*
X324163Y187159D01*
X324163Y187160D01*
X324826Y188152D01*
X324854Y188295D01*
X326242Y188759D01*
X326441Y188581D01*
Y182817D01*
X285183Y141559D01*
X279158D01*
X279157Y141559D01*
X277987Y141326D01*
X276994Y140663D01*
X276994Y140663D01*
X269813Y133482D01*
X269030Y133326D01*
X268037Y132663D01*
X265287Y129913D01*
X264624Y128920D01*
X264391Y127750D01*
X264391Y127750D01*
Y113500D01*
X261700D01*
Y85500D01*
X273200D01*
Y85500D01*
X274400D01*
Y85500D01*
X285900D01*
Y85500D01*
X287100D01*
Y85500D01*
X290495D01*
X290981Y84327D01*
X289999Y83345D01*
X275076D01*
X273125Y82957D01*
X271471Y81852D01*
X267795Y78176D01*
X266690Y76522D01*
X266362Y74871D01*
X265990Y74500D01*
X261700D01*
Y46500D01*
X273130D01*
X273200Y46500D01*
Y46500D01*
X274400D01*
Y46500D01*
X285900D01*
Y46500D01*
X287100Y46500D01*
Y46500D01*
X298530D01*
X298600Y46500D01*
X299800Y46500D01*
X299870Y46500D01*
X311230D01*
X311300Y46500D01*
X312500D01*
X312570Y46500D01*
X323930D01*
X324000Y46500D01*
X325200D01*
X325270Y46500D01*
X336630D01*
X336700Y46500D01*
X337900D01*
X337970Y46500D01*
X349330D01*
X349400Y46500D01*
X350600D01*
X350670Y46500D01*
X362030D01*
X362100Y46500D01*
X363300D01*
X363370Y46500D01*
X374730D01*
X374800Y46500D01*
X376000D01*
X376070Y46500D01*
X387430D01*
X387500Y46500D01*
X388700D01*
X388770Y46500D01*
X400130D01*
X400200Y46500D01*
X401400D01*
X401470Y46500D01*
X412830D01*
X412900Y46500D01*
X414100D01*
X414170Y46500D01*
X425600D01*
Y74500D01*
X414170D01*
X414100Y74500D01*
X412900D01*
X412830Y74500D01*
X401470D01*
X401400Y74500D01*
X400200D01*
X400130Y74500D01*
X388770D01*
X388700Y74500D01*
X387500D01*
X387430Y74500D01*
X376070D01*
X376000Y74500D01*
X374800D01*
X374730Y74500D01*
X363370D01*
X363300Y74500D01*
X362100D01*
X362030Y74500D01*
X350670D01*
X350600Y74500D01*
X349400D01*
X349330Y74500D01*
X337970D01*
X337900Y74500D01*
X336700D01*
X336630Y74500D01*
X325270D01*
X325200Y74500D01*
X324000D01*
X323930Y74500D01*
X312570D01*
X312500Y74500D01*
X311300D01*
X311230Y74500D01*
X299870D01*
X299800Y74500D01*
X298600Y74500D01*
X298530Y74500D01*
X297369D01*
X296843Y75770D01*
X299391Y78318D01*
X300482Y79949D01*
X300975Y80048D01*
X302381Y80987D01*
X303320Y82393D01*
X303650Y84051D01*
X303557Y84518D01*
X304363Y85500D01*
X311300D01*
Y85500D01*
X312500D01*
Y85500D01*
X324000D01*
Y85500D01*
X325200D01*
Y85500D01*
X336700D01*
Y85500D01*
X337900D01*
Y85500D01*
X349400D01*
Y85500D01*
X350600D01*
Y85500D01*
X362100D01*
Y85500D01*
X363300D01*
Y85500D01*
X374800D01*
Y85500D01*
X376000D01*
Y85500D01*
X387500D01*
Y85500D01*
X388700D01*
Y85500D01*
X400200D01*
Y85500D01*
X401400D01*
Y85500D01*
X412900D01*
Y85500D01*
X414100D01*
Y85500D01*
X425600D01*
Y85500D01*
X426800D01*
Y85500D01*
X438300D01*
Y86098D01*
X439570Y86484D01*
X439936Y85936D01*
X441342Y84997D01*
X443000Y84667D01*
X444658Y84997D01*
X446064Y85936D01*
X447003Y87342D01*
X447333Y89000D01*
X447003Y90658D01*
X446064Y92064D01*
X444658Y93003D01*
X443000Y93333D01*
X441342Y93003D01*
X439936Y92064D01*
X439570Y91516D01*
X438300Y91902D01*
Y113500D01*
X435864D01*
Y127750D01*
X435611Y129018D01*
X434893Y130093D01*
X409628Y155358D01*
X408553Y156077D01*
X407285Y156329D01*
X398517D01*
X398454Y156424D01*
X397048Y157363D01*
X395785Y157615D01*
X395259Y157982D01*
X394851Y158881D01*
X395073Y160000D01*
X394743Y161658D01*
X393804Y163064D01*
X392398Y164003D01*
X390740Y164333D01*
X389082Y164003D01*
X387676Y163064D01*
X386737Y161658D01*
X386407Y160000D01*
X386737Y158342D01*
X387044Y157882D01*
Y157221D01*
X386843Y156920D01*
X386591Y155652D01*
Y154827D01*
X386576Y154755D01*
Y150763D01*
X386001Y150590D01*
X384814Y151597D01*
Y153278D01*
X384561Y154546D01*
X383936Y155482D01*
Y156882D01*
X384243Y157342D01*
X384573Y159000D01*
X384243Y160658D01*
X383304Y162064D01*
X381898Y163003D01*
X380240Y163333D01*
X378582Y163003D01*
X377176Y162064D01*
X376237Y160658D01*
X375907Y159000D01*
X376237Y157342D01*
X376699Y156649D01*
X376103Y155534D01*
X374861Y155311D01*
X373814Y156062D01*
Y157695D01*
X374073Y159000D01*
X373743Y160658D01*
X372804Y162064D01*
X371398Y163003D01*
X369740Y163333D01*
X368082Y163003D01*
X366676Y162064D01*
X365737Y160658D01*
X365407Y159000D01*
X365737Y157342D01*
X366676Y155936D01*
X367186Y155595D01*
Y152062D01*
X365916Y151151D01*
X365000Y151333D01*
X364084Y151151D01*
X362814Y152062D01*
Y154699D01*
X363243Y155342D01*
X363573Y157000D01*
X363243Y158658D01*
X362304Y160064D01*
X360898Y161003D01*
X359240Y161333D01*
X357582Y161003D01*
X356176Y160064D01*
X355237Y158658D01*
X354907Y157000D01*
X354912Y156974D01*
X354023Y155898D01*
X353496Y155883D01*
X352622Y156706D01*
X352494Y156969D01*
X352743Y157342D01*
X353073Y159000D01*
X352743Y160658D01*
X351804Y162064D01*
X350398Y163003D01*
X348740Y163333D01*
X347082Y163003D01*
X345676Y162064D01*
X344737Y160658D01*
X344407Y159000D01*
X344737Y157342D01*
X345411Y156332D01*
X345171Y155254D01*
X344686Y155050D01*
X343793Y154913D01*
X343658Y155003D01*
X342000Y155333D01*
X340342Y155003D01*
X338936Y154064D01*
X337997Y152658D01*
X337754Y151441D01*
X336007Y149694D01*
X329260D01*
X329142Y149670D01*
X328516Y150841D01*
X342523Y164847D01*
X342523Y164847D01*
X343186Y165839D01*
X343419Y167010D01*
X343419Y167010D01*
Y181423D01*
X345163Y183167D01*
X345826Y184159D01*
X346059Y185330D01*
Y195932D01*
X346064Y195936D01*
X347003Y197342D01*
X347333Y199000D01*
X347003Y200658D01*
X346064Y202064D01*
X344658Y203003D01*
X343000Y203333D01*
X341342Y203003D01*
X339936Y202064D01*
X338997Y200658D01*
X338667Y199000D01*
X338997Y197342D01*
X339936Y195936D01*
X339941Y195932D01*
Y191876D01*
X339726Y191718D01*
X338000Y192016D01*
X337814Y192294D01*
X336408Y193233D01*
X334750Y193563D01*
X333329Y193281D01*
X333136Y193379D01*
X332603Y194742D01*
X333003Y195342D01*
X333333Y197000D01*
X333003Y198658D01*
X332064Y200064D01*
X330658Y201003D01*
X329000Y201333D01*
X327342Y201003D01*
X326329Y200326D01*
X325059Y200863D01*
Y207932D01*
X325064Y207936D01*
X326003Y209342D01*
X326333Y211000D01*
X326003Y212658D01*
X325064Y214064D01*
X323658Y215003D01*
X322000Y215333D01*
X320342Y215003D01*
X318936Y214064D01*
X317997Y212658D01*
X317667Y211000D01*
X317997Y209342D01*
X318936Y207936D01*
X318941Y207932D01*
Y202493D01*
X317821Y201895D01*
X317658Y202003D01*
X316000Y202333D01*
X314342Y202003D01*
X312936Y201064D01*
X311997Y199658D01*
X311667Y198000D01*
X311997Y196342D01*
X312869Y195036D01*
X312668Y193947D01*
X311488Y193449D01*
X310658Y194003D01*
X309000Y194333D01*
X307342Y194003D01*
X305936Y193064D01*
X304997Y191658D01*
X304667Y190000D01*
X304668Y189994D01*
X302953Y188279D01*
X302284Y188344D01*
X300878Y189284D01*
X299979Y189463D01*
Y190758D01*
X300923Y190945D01*
X302329Y191885D01*
X303268Y193290D01*
X303598Y194949D01*
X303268Y196607D01*
X302329Y198013D01*
X300923Y198952D01*
X299265Y199282D01*
X297607Y198952D01*
X296201Y198013D01*
X296197Y198008D01*
X275763D01*
X275763Y198008D01*
X274592Y197775D01*
X273600Y197112D01*
X273600Y197111D01*
X273553Y197064D01*
X253262D01*
X233500Y216826D01*
Y219215D01*
X234673Y219701D01*
X252366Y202008D01*
X252366Y202008D01*
X253358Y201345D01*
X254529Y201112D01*
X254529Y201113D01*
X279667D01*
X279668Y201112D01*
X280838Y201345D01*
X281730Y201941D01*
X282850D01*
X282854Y201936D01*
X284259Y200997D01*
X285918Y200667D01*
X287576Y200997D01*
X288982Y201936D01*
X289921Y203342D01*
X290251Y205000D01*
X289921Y206658D01*
X288982Y208064D01*
X287576Y209003D01*
X285918Y209333D01*
X284259Y209003D01*
X282854Y208064D01*
X282850Y208059D01*
X280496D01*
X280496Y208059D01*
X279326Y207826D01*
X278434Y207230D01*
X255796D01*
X233500Y229526D01*
Y231915D01*
X234673Y232401D01*
X245237Y221837D01*
X245237Y221837D01*
X246229Y221174D01*
X247400Y220941D01*
X247400Y220941D01*
X288942D01*
X289850Y219671D01*
X289667Y218750D01*
X289997Y217092D01*
X290936Y215686D01*
X292342Y214747D01*
X294000Y214417D01*
X295658Y214747D01*
X297064Y215686D01*
X298003Y217092D01*
X298333Y218750D01*
X298150Y219671D01*
X299058Y220941D01*
X303459D01*
X303845Y219671D01*
X302936Y219064D01*
X301997Y217658D01*
X301667Y216000D01*
X301997Y214342D01*
X302936Y212936D01*
X304342Y211997D01*
X306000Y211667D01*
X307658Y211997D01*
X309064Y212936D01*
X310003Y214342D01*
X310333Y216000D01*
X310003Y217658D01*
X309465Y218464D01*
X309982Y219862D01*
X310658Y219997D01*
X312064Y220936D01*
X313003Y222342D01*
X313333Y224000D01*
X313003Y225658D01*
X312064Y227064D01*
X310658Y228003D01*
X309000Y228333D01*
X307342Y228003D01*
X305936Y227064D01*
X305932Y227059D01*
X297507D01*
X296828Y228329D01*
X297003Y228592D01*
X297333Y230250D01*
X297146Y231193D01*
X298044Y232463D01*
X301644D01*
X302342Y231997D01*
X304000Y231667D01*
X305658Y231997D01*
X307064Y232936D01*
X308003Y234342D01*
X308333Y236000D01*
X308003Y237658D01*
X307064Y239064D01*
X305658Y240003D01*
X304000Y240333D01*
X302342Y240003D01*
X300936Y239064D01*
X300613Y238580D01*
X299073D01*
X298154Y239851D01*
X298333Y240750D01*
X298003Y242408D01*
X297064Y243814D01*
X295658Y244753D01*
X294000Y245083D01*
X292342Y244753D01*
X291164Y243966D01*
X290160Y244550D01*
X290077Y244629D01*
X290065Y244654D01*
X290333Y246000D01*
X290003Y247658D01*
X289064Y249064D01*
X287658Y250003D01*
X286000Y250333D01*
X284342Y250003D01*
X282936Y249064D01*
X281997Y247658D01*
X281667Y246000D01*
X281997Y244342D01*
X282106Y244179D01*
X281507Y243059D01*
X270767D01*
X233500Y280326D01*
Y282715D01*
X234673Y283201D01*
X255037Y262837D01*
X255037Y262837D01*
X256029Y262174D01*
X257200Y261941D01*
X257200Y261941D01*
X287932D01*
X287936Y261936D01*
X289342Y260997D01*
X291000Y260667D01*
X292658Y260997D01*
X294064Y261936D01*
X295003Y263342D01*
X295333Y265000D01*
X295003Y266658D01*
X294064Y268064D01*
X293155Y268671D01*
X293541Y269941D01*
X297932D01*
X297936Y269936D01*
X299342Y268997D01*
X301000Y268667D01*
X302658Y268997D01*
X304064Y269936D01*
X305003Y271342D01*
X305333Y273000D01*
X305003Y274658D01*
X304064Y276064D01*
X302658Y277003D01*
X301000Y277333D01*
X299342Y277003D01*
X297936Y276064D01*
X297932Y276059D01*
X293663D01*
X293323Y276699D01*
X293160Y277329D01*
X294003Y278592D01*
X294333Y280250D01*
X294003Y281908D01*
X293064Y283314D01*
X292174Y283909D01*
X291685Y284641D01*
X291684Y284641D01*
X289972Y286354D01*
X289972Y286354D01*
X289972Y286354D01*
X287957Y288368D01*
X287997Y288637D01*
X289261Y289680D01*
X289261Y289680D01*
X291994D01*
X293668Y288006D01*
X293667Y288000D01*
X293997Y286342D01*
X294936Y284936D01*
X296342Y283997D01*
X298000Y283667D01*
X299658Y283997D01*
X301064Y284936D01*
X302003Y286342D01*
X302333Y288000D01*
X302003Y289658D01*
X301064Y291064D01*
X299658Y292003D01*
X298000Y292333D01*
X297994Y292332D01*
X295962Y294364D01*
X296016Y295927D01*
X296134Y296006D01*
X297074Y297412D01*
X297403Y299070D01*
X297074Y300728D01*
X296134Y302134D01*
X296129Y302138D01*
Y312417D01*
X297399Y313096D01*
X297724Y312879D01*
X298972Y312630D01*
X300167Y312125D01*
X300497Y310467D01*
X301436Y309061D01*
X302842Y308122D01*
X304500Y307792D01*
X304591Y307810D01*
X305578Y306711D01*
X305379Y305712D01*
X305709Y304054D01*
X306648Y302648D01*
X308054Y301709D01*
X309712Y301379D01*
X311371Y301709D01*
X312776Y302648D01*
X313716Y304054D01*
X314046Y305712D01*
X313716Y307371D01*
X313314Y307972D01*
Y309991D01*
X314584Y310784D01*
X315750Y310552D01*
X317408Y310882D01*
X318060Y309815D01*
X316936Y309064D01*
X315997Y307658D01*
X315667Y306000D01*
X315997Y304342D01*
X316936Y302936D01*
X318342Y301997D01*
X320000Y301667D01*
X321658Y301997D01*
X323064Y302936D01*
X324003Y304342D01*
X324333Y306000D01*
X324003Y307658D01*
X323064Y309064D01*
X321658Y310003D01*
X320000Y310333D01*
X318342Y310004D01*
X317690Y311070D01*
X318814Y311821D01*
X319753Y313227D01*
X320083Y314885D01*
X319753Y316544D01*
X319064Y317576D01*
Y366500D01*
X323866D01*
X324000Y366500D01*
X324436Y366376D01*
X324716Y364976D01*
X322657Y362917D01*
X321939Y361842D01*
X321686Y360574D01*
Y321250D01*
X321939Y319982D01*
X322657Y318907D01*
X322936Y318627D01*
Y316691D01*
X322247Y315658D01*
X321917Y314000D01*
X322247Y312342D01*
X323186Y310936D01*
X324592Y309997D01*
X326250Y309667D01*
X327166Y309849D01*
X328436Y308938D01*
Y299250D01*
X328689Y297982D01*
X329407Y296907D01*
X333754Y292559D01*
X333997Y291342D01*
X334936Y289936D01*
X336342Y288997D01*
X338000Y288667D01*
X339658Y288997D01*
X341064Y289936D01*
X342003Y291342D01*
X342333Y293000D01*
X342128Y294034D01*
X343290Y294699D01*
X344342Y293997D01*
X346000Y293667D01*
X347658Y293997D01*
X349064Y294936D01*
X350003Y296342D01*
X350333Y298000D01*
X350003Y299658D01*
X349314Y300690D01*
Y302824D01*
X350584Y303503D01*
X351342Y302997D01*
X353000Y302667D01*
X354658Y302997D01*
X356064Y303936D01*
X357003Y305342D01*
X357333Y307000D01*
X357003Y308658D01*
X356314Y309690D01*
Y318021D01*
X356061Y319289D01*
X355343Y320364D01*
X351314Y324393D01*
Y337127D01*
X380686Y366500D01*
X387366D01*
X387500Y366500D01*
X388636Y366177D01*
Y363164D01*
X386756Y361284D01*
X386037Y360209D01*
X385785Y358941D01*
Y346598D01*
X384917Y346133D01*
X384515Y346032D01*
X383000Y346333D01*
X381342Y346003D01*
X379936Y345064D01*
X378997Y343658D01*
X378667Y342000D01*
X378997Y340342D01*
X379936Y338936D01*
X381342Y337997D01*
X383000Y337667D01*
X384515Y337968D01*
X384917Y337867D01*
X385785Y337402D01*
Y316062D01*
X384515Y315151D01*
X383599Y315333D01*
X381940Y315003D01*
X380535Y314064D01*
X379595Y312658D01*
X379265Y311000D01*
X379595Y309342D01*
X380535Y307936D01*
X381940Y306997D01*
X383599Y306667D01*
X384515Y306849D01*
X385785Y305938D01*
Y305838D01*
X384997Y304658D01*
X384667Y303000D01*
X384997Y301342D01*
X385936Y299936D01*
X387342Y298997D01*
X389000Y298667D01*
X390658Y298997D01*
X392064Y299936D01*
X393003Y301342D01*
X393333Y303000D01*
X393003Y304658D01*
X392412Y305543D01*
Y307358D01*
X393682Y308269D01*
X394599Y308087D01*
X395515Y308269D01*
X395566Y308252D01*
X396314Y307133D01*
X395997Y306658D01*
X395667Y305000D01*
X395997Y303342D01*
X396936Y301936D01*
X398342Y300997D01*
X400000Y300667D01*
X401658Y300997D01*
X403064Y301936D01*
X404003Y303342D01*
X404333Y305000D01*
X404246Y305436D01*
X405327Y306516D01*
X405599Y306462D01*
X407257Y306792D01*
X408663Y307731D01*
X409602Y309137D01*
X409932Y310795D01*
X409602Y312453D01*
X408663Y313859D01*
X408649Y313868D01*
Y317606D01*
X409919Y317731D01*
X409997Y317342D01*
X410936Y315936D01*
X412342Y314997D01*
X414000Y314667D01*
X415658Y314997D01*
X417064Y315936D01*
X418003Y317342D01*
X418333Y319000D01*
X418003Y320658D01*
X417064Y322064D01*
X415658Y323003D01*
X414000Y323333D01*
X412342Y323003D01*
X410936Y322064D01*
X409997Y320658D01*
X409919Y320269D01*
X408649Y320394D01*
Y324963D01*
X420394Y336708D01*
X421112Y337783D01*
X421364Y339051D01*
Y356378D01*
X431486Y366500D01*
X438300D01*
Y394500D01*
X426870D01*
X426800Y394500D01*
Y394500D01*
D02*
G37*
G36*
X131000Y509333D02*
X129342Y509003D01*
X127936Y508064D01*
X126997Y506658D01*
X126667Y505000D01*
X126997Y503342D01*
X127936Y501936D01*
X129342Y500997D01*
X131000Y500667D01*
X131840Y500834D01*
X179941Y452733D01*
Y395068D01*
X179936Y395064D01*
X178997Y393658D01*
X178667Y392000D01*
X178997Y390342D01*
X179936Y388936D01*
X181342Y387997D01*
X183000Y387667D01*
X184658Y387997D01*
X186064Y388936D01*
X187003Y390342D01*
X187333Y392000D01*
X187003Y393658D01*
X186064Y395064D01*
X186059Y395068D01*
Y454000D01*
X186059Y454000D01*
X185826Y455171D01*
X185163Y456163D01*
X185163Y456163D01*
X135087Y506239D01*
X135003Y506658D01*
X134064Y508064D01*
X132658Y509003D01*
X131000Y509333D01*
D02*
G37*
G36*
X730000Y396286D02*
X727390Y395943D01*
X724957Y394935D01*
X722868Y393332D01*
X721265Y391243D01*
X720257Y388811D01*
X720123Y387793D01*
X718632Y386568D01*
X716632Y384132D01*
X715146Y381353D01*
X714231Y378337D01*
X713943Y375405D01*
X713902Y375200D01*
Y319600D01*
X713375D01*
X711375Y319203D01*
X709680Y318070D01*
X708547Y316375D01*
X708150Y314375D01*
Y308125D01*
X708547Y306125D01*
X709680Y304430D01*
X711375Y303297D01*
X711618Y303249D01*
X711987Y302034D01*
X693522Y283569D01*
X640750D01*
X639384Y283297D01*
X638227Y282523D01*
X608703Y253000D01*
X596250D01*
Y242547D01*
X588020Y234317D01*
X586750Y234843D01*
Y238500D01*
X569250D01*
Y223000D01*
X573866D01*
X573997Y222342D01*
X574936Y220936D01*
X576342Y219997D01*
X578000Y219667D01*
X579658Y219997D01*
X581064Y220936D01*
X582003Y222342D01*
X582134Y223000D01*
X586431D01*
Y139309D01*
X585997Y138658D01*
X585667Y137000D01*
X585997Y135342D01*
X586936Y133936D01*
X588342Y132997D01*
X590000Y132667D01*
X591658Y132997D01*
X593064Y133936D01*
X594003Y135342D01*
X594333Y137000D01*
X594003Y138658D01*
X593569Y139309D01*
Y229772D01*
X595077Y231280D01*
X596250Y230794D01*
Y219000D01*
X613750D01*
Y234500D01*
X599956D01*
X599470Y235673D01*
X601297Y237500D01*
X613750D01*
Y247953D01*
X642228Y276431D01*
X695000D01*
X696366Y276703D01*
X697523Y277477D01*
X697952Y277905D01*
X698948Y277148D01*
X696720Y272979D01*
X695347Y268455D01*
X694884Y263750D01*
X694902D01*
Y237000D01*
X691500D01*
Y233500D01*
X689393Y232374D01*
X686500Y230000D01*
X684126Y227107D01*
X682361Y223806D01*
X681275Y220225D01*
X680914Y216560D01*
X680902Y216500D01*
Y163000D01*
X681290Y161049D01*
X682395Y159395D01*
X684049Y158290D01*
X686000Y157902D01*
X687951Y158290D01*
X689605Y159395D01*
X690710Y161049D01*
X691098Y163000D01*
Y216500D01*
X691069Y216644D01*
X691355Y218816D01*
X692249Y220975D01*
X693672Y222828D01*
X695199Y224000D01*
X708500D01*
Y237000D01*
X705098D01*
Y263750D01*
X705043Y264024D01*
X705484Y267372D01*
X706882Y270746D01*
X709106Y273644D01*
X710965Y275071D01*
X711375Y274797D01*
X713375Y274400D01*
X724625D01*
X726625Y274797D01*
X728320Y275930D01*
X729453Y277625D01*
X729850Y279625D01*
Y285875D01*
X729453Y287875D01*
X728320Y289570D01*
X726625Y290703D01*
X724625Y291100D01*
X713375D01*
X712836Y290993D01*
X712210Y292164D01*
X719781Y299734D01*
X720554Y300892D01*
X720826Y302257D01*
Y302900D01*
X724625D01*
X726625Y303297D01*
X728320Y304430D01*
X729453Y306125D01*
X729850Y308125D01*
Y314375D01*
X729453Y316375D01*
X728320Y318070D01*
X726625Y319203D01*
X724625Y319600D01*
X724098D01*
Y375200D01*
X724055Y375416D01*
X724258Y376437D01*
X724308Y376512D01*
X725696Y377159D01*
X727390Y376457D01*
X730000Y376114D01*
X732610Y376457D01*
X735043Y377465D01*
X737132Y379068D01*
X738735Y381157D01*
X739743Y383590D01*
X740086Y386200D01*
X739743Y388811D01*
X738735Y391243D01*
X737132Y393332D01*
X735043Y394935D01*
X732610Y395943D01*
X730000Y396286D01*
D02*
G37*
G36*
X130000Y371283D02*
X128342Y370953D01*
X126936Y370014D01*
X125997Y368608D01*
X125667Y366950D01*
X125997Y365292D01*
X126936Y363886D01*
X128342Y362947D01*
X130000Y362617D01*
X131658Y362947D01*
X133064Y363886D01*
X134003Y365292D01*
X134333Y366950D01*
X134003Y368608D01*
X133064Y370014D01*
X131658Y370953D01*
X130000Y371283D01*
D02*
G37*
G36*
X83000Y385333D02*
X81342Y385003D01*
X79936Y384064D01*
X78997Y382658D01*
X78906Y382203D01*
X54703Y358000D01*
X42250D01*
Y353819D01*
X32750D01*
Y358000D01*
X15250D01*
Y342500D01*
X32750D01*
Y346681D01*
X42250D01*
Y342500D01*
X59750D01*
Y352953D01*
X83579Y376782D01*
X84658Y376997D01*
X86064Y377936D01*
X87003Y379342D01*
X87333Y381000D01*
X87003Y382658D01*
X86064Y384064D01*
X84658Y385003D01*
X83000Y385333D01*
D02*
G37*
G36*
X629000Y424069D02*
X611000D01*
X609634Y423797D01*
X608477Y423023D01*
X607703Y421866D01*
X607431Y420500D01*
X607703Y419134D01*
X608477Y417977D01*
X609634Y417203D01*
X611000Y416931D01*
X625681D01*
Y416750D01*
X625953Y415384D01*
X626727Y414227D01*
X627884Y413453D01*
X628431Y413344D01*
Y394069D01*
X622500D01*
X621134Y393797D01*
X619977Y393023D01*
X612477Y385523D01*
X611703Y384366D01*
X611431Y383000D01*
Y364000D01*
X611703Y362634D01*
X612477Y361477D01*
X627227Y346727D01*
X628384Y345953D01*
X629750Y345681D01*
X668000D01*
X669366Y345953D01*
X670523Y346727D01*
X671297Y347884D01*
X671569Y349250D01*
X671297Y350616D01*
X670523Y351773D01*
X669366Y352547D01*
X668000Y352819D01*
X631228D01*
X624317Y359730D01*
X624843Y361000D01*
X640500D01*
Y363931D01*
X649500D01*
X650866Y364203D01*
X652023Y364977D01*
X668209Y381162D01*
X668561Y381232D01*
X669884Y382116D01*
X670768Y383439D01*
X671078Y385000D01*
X670768Y386561D01*
X669884Y387884D01*
X668561Y388768D01*
X667000Y389078D01*
X665439Y388768D01*
X664116Y387884D01*
X663232Y386561D01*
X663162Y386209D01*
X648022Y371069D01*
X640500D01*
Y374000D01*
X623500D01*
Y362343D01*
X622230Y361817D01*
X618569Y365478D01*
Y381522D01*
X623978Y386931D01*
X632000D01*
X633366Y387203D01*
X634523Y387977D01*
X635297Y389134D01*
X635569Y390500D01*
Y416500D01*
X635297Y417866D01*
X634523Y419023D01*
X634273Y419273D01*
X633116Y420047D01*
X632819Y420106D01*
Y420250D01*
X632547Y421616D01*
X631773Y422773D01*
X631523Y423023D01*
X630366Y423797D01*
X629000Y424069D01*
D02*
G37*
G36*
X572000Y380069D02*
X547000D01*
X547000Y380069D01*
X545000D01*
X543634Y379797D01*
X542477Y379023D01*
X517477Y354023D01*
X516703Y352866D01*
X516431Y351500D01*
Y346000D01*
X516703Y344634D01*
X517477Y343477D01*
X518634Y342703D01*
X520000Y342431D01*
X521366Y342703D01*
X522523Y343477D01*
X523297Y344634D01*
X523569Y346000D01*
Y350022D01*
X537230Y363683D01*
X538500Y363157D01*
Y351000D01*
X543431D01*
Y346478D01*
X543109Y346156D01*
X542342Y346003D01*
X541691Y345569D01*
X537200D01*
X535834Y345297D01*
X534677Y344523D01*
X528453Y338300D01*
X505500D01*
Y326870D01*
X505500Y326800D01*
Y325600D01*
X505500Y325530D01*
Y314100D01*
X505500D01*
Y312900D01*
X505500D01*
Y301400D01*
X505500D01*
Y300200D01*
X505500D01*
Y288700D01*
X505500D01*
Y287500D01*
X505500D01*
Y276000D01*
X505500D01*
Y274800D01*
X505500D01*
Y263370D01*
X505500Y263300D01*
Y262100D01*
X505500Y262030D01*
Y250670D01*
X505500Y250600D01*
Y249400D01*
X505500Y249330D01*
Y237970D01*
X505500Y237900D01*
Y236700D01*
X505500Y236630D01*
Y225270D01*
X505500Y225200D01*
Y224000D01*
X505500Y223930D01*
Y212570D01*
X505500Y212500D01*
Y211300D01*
X505500Y211230D01*
Y199800D01*
X533500D01*
Y211230D01*
X533500Y211300D01*
Y212500D01*
X533500Y212570D01*
Y223930D01*
X533500Y224000D01*
Y225200D01*
X533500Y225270D01*
Y236630D01*
X533500Y236700D01*
Y237900D01*
X533500Y237970D01*
Y249330D01*
X533500Y249400D01*
Y250600D01*
X533500Y250670D01*
Y262030D01*
X533500Y262100D01*
Y263300D01*
X533500Y263370D01*
Y274800D01*
X533500D01*
Y276000D01*
X533500D01*
Y287500D01*
X533500D01*
Y288700D01*
X533500D01*
Y300200D01*
X533500D01*
Y301400D01*
X533500D01*
Y312900D01*
X533500D01*
Y314100D01*
X533500D01*
Y325530D01*
X533500Y325600D01*
Y326800D01*
X533500Y326870D01*
Y333253D01*
X538678Y338431D01*
X541691D01*
X542342Y337997D01*
X544000Y337667D01*
X545658Y337997D01*
X547064Y338936D01*
X548003Y340342D01*
X548156Y341109D01*
X549523Y342477D01*
X550297Y343634D01*
X550569Y345000D01*
Y351000D01*
X555500D01*
Y362431D01*
X555500Y362431D01*
X563500D01*
Y351000D01*
X568431D01*
Y348478D01*
X565109Y345156D01*
X564342Y345003D01*
X562936Y344064D01*
X561997Y342658D01*
X561844Y341891D01*
X559477Y339523D01*
X558703Y338366D01*
X558431Y337000D01*
Y281478D01*
X548477Y271523D01*
X547703Y270366D01*
X547431Y269000D01*
Y260250D01*
X542250D01*
Y244750D01*
X559750D01*
Y260250D01*
X554569D01*
Y267522D01*
X564523Y277477D01*
X565297Y278634D01*
X565569Y280000D01*
Y281011D01*
X566839Y281136D01*
X566997Y280342D01*
X567936Y278936D01*
X569342Y277997D01*
X571000Y277667D01*
X572658Y277997D01*
X574064Y278936D01*
X575003Y280342D01*
X575333Y282000D01*
X575332Y282006D01*
X600767Y307441D01*
X615000D01*
X615000Y307441D01*
X615296Y307500D01*
X625500D01*
Y309681D01*
X631500D01*
Y307000D01*
X648500D01*
Y309681D01*
X658250D01*
Y305500D01*
X675750D01*
Y321000D01*
X671569D01*
Y323000D01*
X676750D01*
Y338500D01*
X659250D01*
Y323000D01*
X664431D01*
Y321000D01*
X658250D01*
Y316819D01*
X648500D01*
Y320000D01*
X631500D01*
Y316819D01*
X625500D01*
Y320500D01*
X609750D01*
Y335000D01*
X586250D01*
Y317000D01*
X608500D01*
Y313559D01*
X599500D01*
X599500Y313559D01*
X598329Y313326D01*
X597337Y312663D01*
X597337Y312663D01*
X571006Y286332D01*
X571000Y286333D01*
X569342Y286003D01*
X567936Y285064D01*
X566997Y283658D01*
X566839Y282864D01*
X565569Y282989D01*
Y335522D01*
X566891Y336844D01*
X567658Y336997D01*
X569064Y337936D01*
X570003Y339342D01*
X570156Y340109D01*
X574523Y344477D01*
X575297Y345634D01*
X575569Y347000D01*
Y351000D01*
X580500D01*
Y362431D01*
X586000D01*
X586250Y361186D01*
Y345000D01*
X609750D01*
Y363000D01*
X598665D01*
X597013Y365013D01*
X594653Y366950D01*
X591960Y368389D01*
X589039Y369276D01*
X586000Y369575D01*
Y369569D01*
X555500D01*
Y369604D01*
X552367Y369191D01*
X549448Y367982D01*
X546941Y366059D01*
X545362Y364000D01*
X539343D01*
X538817Y365270D01*
X546478Y372931D01*
X547000D01*
X547000Y372931D01*
X572000D01*
X573366Y373203D01*
X574523Y373977D01*
X575297Y375134D01*
X575569Y376500D01*
X575297Y377866D01*
X574523Y379023D01*
X573366Y379797D01*
X572000Y380069D01*
D02*
G37*
G36*
X695500Y342358D02*
X693354Y341931D01*
X691535Y340715D01*
X690319Y338896D01*
X689892Y336750D01*
X690319Y334604D01*
X691535Y332785D01*
X693354Y331569D01*
X695500Y331142D01*
X697646Y331569D01*
X699465Y332785D01*
X700681Y334604D01*
X701108Y336750D01*
X700681Y338896D01*
X699465Y340715D01*
X697646Y341931D01*
X695500Y342358D01*
D02*
G37*
G36*
X59750Y339500D02*
X42250D01*
Y324000D01*
X59750D01*
Y339500D01*
D02*
G37*
G36*
X106750Y412750D02*
X89250D01*
Y397250D01*
X94941D01*
Y328000D01*
X94941Y328000D01*
X95174Y326829D01*
X95837Y325837D01*
X108668Y313006D01*
X108667Y313000D01*
X108997Y311342D01*
X109936Y309936D01*
X111342Y308997D01*
X113000Y308667D01*
X114658Y308997D01*
X116064Y309936D01*
X117003Y311342D01*
X117333Y313000D01*
X117003Y314658D01*
X116064Y316064D01*
X114658Y317003D01*
X113000Y317333D01*
X112994Y317332D01*
X101059Y329267D01*
Y397250D01*
X106750D01*
Y412750D01*
D02*
G37*
G36*
X32750Y339500D02*
X15250D01*
Y324000D01*
X20431D01*
Y315021D01*
X20342Y315003D01*
X18936Y314064D01*
X17997Y312658D01*
X17667Y311000D01*
X17997Y309342D01*
X18936Y307936D01*
X20342Y306997D01*
X22000Y306667D01*
X23658Y306997D01*
X25064Y307936D01*
X26003Y309342D01*
X26156Y310109D01*
X26523Y310477D01*
X27297Y311634D01*
X27569Y313000D01*
Y324000D01*
X32750D01*
Y339500D01*
D02*
G37*
G36*
X410000Y304583D02*
X408342Y304253D01*
X406936Y303314D01*
X405997Y301908D01*
X405667Y300250D01*
X405997Y298592D01*
X406936Y297186D01*
X408342Y296247D01*
X410000Y295917D01*
X411658Y296247D01*
X413064Y297186D01*
X414003Y298592D01*
X414333Y300250D01*
X414003Y301908D01*
X413064Y303314D01*
X411658Y304253D01*
X410000Y304583D01*
D02*
G37*
G36*
X617000Y298569D02*
X615634Y298297D01*
X614477Y297523D01*
X613703Y296366D01*
X613431Y295000D01*
X613703Y293634D01*
X614477Y292477D01*
X614977Y291977D01*
X616134Y291203D01*
X617500Y290931D01*
X640000D01*
X641366Y291203D01*
X642523Y291977D01*
X643297Y293134D01*
X643569Y294500D01*
X643297Y295866D01*
X642523Y297023D01*
X641366Y297797D01*
X640000Y298069D01*
X618707D01*
X618366Y298297D01*
X617000Y298569D01*
D02*
G37*
G36*
X695500Y300858D02*
X693354Y300431D01*
X691535Y299215D01*
X690319Y297396D01*
X689892Y295250D01*
X690319Y293104D01*
X691535Y291285D01*
X693354Y290069D01*
X695500Y289642D01*
X697646Y290069D01*
X699465Y291285D01*
X700681Y293104D01*
X701108Y295250D01*
X700681Y297396D01*
X699465Y299215D01*
X697646Y300431D01*
X695500Y300858D01*
D02*
G37*
G36*
X675750Y302500D02*
X658250D01*
Y287000D01*
X675750D01*
Y302500D01*
D02*
G37*
G36*
X494500Y338300D02*
X466500D01*
Y331486D01*
X418327Y283314D01*
X412316D01*
X411658Y283753D01*
X410000Y284083D01*
X408342Y283753D01*
X406936Y282814D01*
X405997Y281408D01*
X405667Y279750D01*
X405997Y278092D01*
X406936Y276686D01*
X407142Y276548D01*
X407142Y275944D01*
X406968Y275137D01*
X405736Y274314D01*
X404796Y272908D01*
X404467Y271250D01*
X404796Y269592D01*
X404768Y269349D01*
X404123Y268314D01*
X401690D01*
X400658Y269003D01*
X399000Y269333D01*
X397342Y269003D01*
X395936Y268064D01*
X394997Y266658D01*
X394667Y265000D01*
X394997Y263342D01*
X395936Y261936D01*
X397342Y260997D01*
X399000Y260667D01*
X400658Y260997D01*
X401690Y261686D01*
X403891D01*
X404697Y260705D01*
X404607Y260250D01*
X404862Y258965D01*
X404125Y257695D01*
X398425D01*
X397392Y258385D01*
X395734Y258715D01*
X394076Y258385D01*
X392670Y257445D01*
X391731Y256040D01*
X391401Y254381D01*
X391731Y252723D01*
X392670Y251317D01*
X394076Y250378D01*
X395734Y250048D01*
X397392Y250378D01*
X398425Y251068D01*
X403878D01*
X404789Y249797D01*
X404607Y248881D01*
X404141Y248314D01*
X401690D01*
X400658Y249003D01*
X399000Y249333D01*
X397342Y249003D01*
X395936Y248064D01*
X394997Y246658D01*
X394667Y245000D01*
X394997Y243342D01*
X395936Y241936D01*
X397342Y240997D01*
X399000Y240667D01*
X400658Y240997D01*
X401690Y241686D01*
X403671D01*
X404319Y241038D01*
X404595Y240854D01*
X404842Y239608D01*
X404796Y239540D01*
X404467Y237881D01*
X404796Y236223D01*
X405736Y234817D01*
X407142Y233878D01*
X408800Y233548D01*
X410458Y233878D01*
X411538Y234599D01*
X460177D01*
X461445Y234852D01*
X462520Y235570D01*
X464786Y237836D01*
X466177D01*
X466500Y236700D01*
X466500Y236566D01*
Y229886D01*
X465405Y228791D01*
X438513D01*
X437484Y229820D01*
X436409Y230539D01*
X435141Y230791D01*
X406798D01*
X406239Y231164D01*
X404581Y231494D01*
X402923Y231164D01*
X401517Y230225D01*
X400577Y228819D01*
X400248Y227161D01*
X400577Y225503D01*
X401517Y224097D01*
X402923Y223158D01*
X404581Y222828D01*
X405581Y223027D01*
X406679Y222041D01*
X406667Y221977D01*
X406739Y221616D01*
X405933Y220634D01*
X403351D01*
X402319Y221324D01*
X400661Y221654D01*
X399002Y221324D01*
X397597Y220384D01*
X396657Y218979D01*
X396327Y217320D01*
X396657Y215662D01*
X397597Y214256D01*
X399002Y213317D01*
X400661Y212987D01*
X402319Y213317D01*
X403351Y214007D01*
X406569D01*
X407454Y213416D01*
X407482Y213410D01*
X407775Y212994D01*
X408067Y211999D01*
X408026Y211938D01*
X407696Y210280D01*
X407965Y208930D01*
X406377Y208614D01*
X404972Y207675D01*
X404032Y206269D01*
X403702Y204611D01*
X404032Y202953D01*
X404972Y201547D01*
X406377Y200607D01*
X408036Y200278D01*
X408160Y200303D01*
X409058Y199405D01*
X409034Y199280D01*
X409364Y197621D01*
X410303Y196216D01*
X411709Y195276D01*
X413367Y194946D01*
X415025Y195276D01*
X416057Y195966D01*
X426275D01*
X427543Y196218D01*
X427870Y196436D01*
X438577D01*
X466500Y168514D01*
Y161700D01*
X494500D01*
Y173130D01*
X494500Y173200D01*
X494500D01*
Y174400D01*
X494500D01*
Y185830D01*
X494500Y185900D01*
X494500D01*
Y187100D01*
X494500D01*
Y198530D01*
X494500Y198600D01*
X494500D01*
Y199800D01*
X494500D01*
Y211230D01*
X494500Y211300D01*
X494500D01*
Y212500D01*
X494500D01*
Y223930D01*
X494500Y224000D01*
X494500D01*
Y225200D01*
X494500D01*
Y236630D01*
X494500Y236700D01*
Y237900D01*
X494500Y237970D01*
Y249400D01*
X494500D01*
Y250600D01*
X494500D01*
X494500Y250670D01*
Y262100D01*
X494500D01*
Y263300D01*
X494500D01*
X494500Y263370D01*
Y274800D01*
X494500D01*
Y276000D01*
X494500D01*
X494500Y276070D01*
Y287500D01*
X494500D01*
Y288700D01*
X494500D01*
X494500Y288770D01*
Y300200D01*
X494500D01*
Y301400D01*
X494500D01*
X494500Y301470D01*
Y312900D01*
X494500D01*
Y314100D01*
X494500D01*
X494500Y314170D01*
Y325600D01*
X494500D01*
Y326800D01*
X494500D01*
X494500Y326870D01*
Y338300D01*
D02*
G37*
G36*
X398000Y298333D02*
X396342Y298003D01*
X394936Y297064D01*
X393997Y295658D01*
X393667Y294000D01*
X393997Y292342D01*
X394936Y290936D01*
X396342Y289997D01*
X397193Y289827D01*
X397785Y288428D01*
X397515Y288023D01*
X397185Y286365D01*
X397515Y284707D01*
X398454Y283301D01*
X399860Y282362D01*
X401518Y282032D01*
X403177Y282362D01*
X404582Y283301D01*
X405522Y284707D01*
X405852Y286365D01*
X405522Y288023D01*
X404582Y289429D01*
X403177Y290368D01*
X402325Y290538D01*
X401733Y291937D01*
X402003Y292342D01*
X402333Y294000D01*
X402003Y295658D01*
X401064Y297064D01*
X399658Y298003D01*
X398000Y298333D01*
D02*
G37*
G36*
X677000Y272333D02*
X675342Y272003D01*
X673936Y271064D01*
X673225Y270000D01*
X666500D01*
Y266559D01*
X659500D01*
Y270000D01*
X642500D01*
Y264367D01*
X640951Y263539D01*
X638210Y261290D01*
X635961Y258549D01*
X634290Y255422D01*
X633260Y252029D01*
X632913Y248500D01*
X632941D01*
Y230000D01*
X627500D01*
Y217000D01*
X644500D01*
Y230000D01*
X639059D01*
Y248500D01*
X639038Y248604D01*
X639433Y251600D01*
X640629Y254488D01*
X642532Y256968D01*
X642574Y257000D01*
X659500D01*
Y260441D01*
X666500D01*
Y257000D01*
X683500D01*
Y270000D01*
X680775D01*
X680064Y271064D01*
X678658Y272003D01*
X677000Y272333D01*
D02*
G37*
G36*
X65000Y271333D02*
X63342Y271003D01*
X61936Y270064D01*
X60997Y268658D01*
X60667Y267000D01*
X60997Y265342D01*
X61936Y263936D01*
X63342Y262997D01*
X65000Y262667D01*
X66658Y262997D01*
X68064Y263936D01*
X69003Y265342D01*
X69333Y267000D01*
X69003Y268658D01*
X68064Y270064D01*
X66658Y271003D01*
X65000Y271333D01*
D02*
G37*
G36*
X25000Y276823D02*
X22781Y276531D01*
X20713Y275675D01*
X18938Y274312D01*
X17575Y272537D01*
X16719Y270469D01*
X16427Y268250D01*
X16719Y266031D01*
X17575Y263963D01*
X18938Y262188D01*
X20713Y260825D01*
X22781Y259969D01*
X25000Y259677D01*
X27219Y259969D01*
X29287Y260825D01*
X31062Y262188D01*
X32425Y263963D01*
X33281Y266031D01*
X33573Y268250D01*
X33281Y270469D01*
X32425Y272537D01*
X31062Y274312D01*
X29287Y275675D01*
X27219Y276531D01*
X25000Y276823D01*
D02*
G37*
G36*
X586750Y257000D02*
X569250D01*
Y241500D01*
X586750D01*
Y257000D01*
D02*
G37*
G36*
X665500Y255569D02*
X663000D01*
X661634Y255297D01*
X660477Y254523D01*
X659703Y253366D01*
X659431Y252000D01*
X659703Y250634D01*
X660477Y249477D01*
X660683Y249339D01*
X660298Y248069D01*
X651000D01*
X649634Y247797D01*
X648477Y247023D01*
X647703Y245866D01*
X647431Y244500D01*
X647703Y243134D01*
X648477Y241977D01*
X649634Y241203D01*
X651000Y240931D01*
X675000D01*
X676366Y241203D01*
X677523Y241977D01*
X678297Y243134D01*
X678569Y244500D01*
X678297Y245866D01*
X677523Y247023D01*
X676366Y247797D01*
X675000Y248069D01*
X674478D01*
X668023Y254523D01*
X666866Y255297D01*
X665500Y255569D01*
D02*
G37*
G36*
X732000Y251618D02*
X724000D01*
X721659Y251152D01*
X719674Y249826D01*
X718348Y247841D01*
X717883Y245500D01*
Y237500D01*
X718348Y235159D01*
X719674Y233174D01*
X721659Y231848D01*
X724000Y231383D01*
X732000D01*
X734341Y231848D01*
X736326Y233174D01*
X737652Y235159D01*
X738118Y237500D01*
Y245500D01*
X737652Y247841D01*
X736326Y249826D01*
X734341Y251152D01*
X732000Y251618D01*
D02*
G37*
G36*
X65000Y231333D02*
X63342Y231003D01*
X61936Y230064D01*
X60997Y228658D01*
X60667Y227000D01*
X60997Y225342D01*
X61936Y223936D01*
X63342Y222997D01*
X65000Y222667D01*
X66658Y222997D01*
X68064Y223936D01*
X69003Y225342D01*
X69333Y227000D01*
X69003Y228658D01*
X68064Y230064D01*
X66658Y231003D01*
X65000Y231333D01*
D02*
G37*
G36*
X559750Y241750D02*
X542250D01*
Y226250D01*
X545914D01*
X546720Y225268D01*
X546667Y225000D01*
X546997Y223342D01*
X547936Y221936D01*
X549342Y220997D01*
X551000Y220667D01*
X552658Y220997D01*
X554064Y221936D01*
X555003Y223342D01*
X555333Y225000D01*
X555280Y225268D01*
X556086Y226250D01*
X559750D01*
Y241750D01*
D02*
G37*
G36*
X728000Y226186D02*
X725389Y225843D01*
X722957Y224835D01*
X720868Y223232D01*
X719265Y221143D01*
X718257Y218710D01*
X717914Y216100D01*
X718257Y213489D01*
X719265Y211057D01*
X720868Y208968D01*
X722957Y207365D01*
X725389Y206357D01*
X728000Y206014D01*
X730611Y206357D01*
X733043Y207365D01*
X735132Y208968D01*
X736735Y211057D01*
X737743Y213489D01*
X738086Y216100D01*
X737743Y218710D01*
X736735Y221143D01*
X735132Y223232D01*
X733043Y224835D01*
X730611Y225843D01*
X728000Y226186D01*
D02*
G37*
G36*
X297869Y211816D02*
X296210Y211486D01*
X294805Y210547D01*
X293865Y209141D01*
X293535Y207483D01*
X293865Y205825D01*
X294805Y204419D01*
X296210Y203480D01*
X297869Y203150D01*
X299527Y203480D01*
X300933Y204419D01*
X301872Y205825D01*
X302202Y207483D01*
X301872Y209141D01*
X300933Y210547D01*
X299527Y211486D01*
X297869Y211816D01*
D02*
G37*
G36*
X25000Y214323D02*
X22781Y214031D01*
X20713Y213175D01*
X18938Y211812D01*
X17575Y210037D01*
X16719Y207969D01*
X16427Y205750D01*
X16719Y203531D01*
X17575Y201463D01*
X18938Y199688D01*
X20713Y198325D01*
X22781Y197469D01*
X25000Y197177D01*
X27219Y197469D01*
X29287Y198325D01*
X31062Y199688D01*
X32425Y201463D01*
X33281Y203531D01*
X33573Y205750D01*
X33281Y207969D01*
X32425Y210037D01*
X31062Y211812D01*
X29287Y213175D01*
X27219Y214031D01*
X25000Y214323D01*
D02*
G37*
G36*
X636000Y204069D02*
X608500D01*
X607134Y203797D01*
X605977Y203023D01*
X601477Y198523D01*
X600703Y197366D01*
X600431Y196000D01*
X600703Y194634D01*
X601477Y193477D01*
X602634Y192703D01*
X604000Y192431D01*
X605366Y192703D01*
X606523Y193477D01*
X609978Y196931D01*
X636000D01*
X637366Y197203D01*
X638523Y197977D01*
X639297Y199134D01*
X639569Y200500D01*
X639297Y201866D01*
X638523Y203023D01*
X637366Y203797D01*
X636000Y204069D01*
D02*
G37*
G36*
X519500Y196419D02*
X518134Y196147D01*
X517269Y195569D01*
X512000D01*
X510634Y195297D01*
X509477Y194523D01*
X508477Y193523D01*
X507703Y192366D01*
X507431Y191000D01*
X507703Y189634D01*
X508477Y188477D01*
X509634Y187703D01*
X511000Y187431D01*
X512366Y187703D01*
X513456Y188431D01*
X518650D01*
X520016Y188703D01*
X521173Y189477D01*
X522023Y190327D01*
X522797Y191484D01*
X523069Y192850D01*
X522797Y194216D01*
X522023Y195373D01*
X520866Y196147D01*
X519500Y196419D01*
D02*
G37*
G36*
X711200Y211069D02*
X700000D01*
X698634Y210797D01*
X697477Y210023D01*
X696703Y208866D01*
X696431Y207500D01*
X696703Y206134D01*
X697477Y204977D01*
X698634Y204203D01*
X700000Y203931D01*
X709722D01*
X725477Y188177D01*
X726634Y187403D01*
X728000Y187131D01*
X729366Y187403D01*
X730523Y188177D01*
X731297Y189334D01*
X731569Y190700D01*
X731297Y192066D01*
X730523Y193223D01*
X713723Y210023D01*
X712566Y210797D01*
X711200Y211069D01*
D02*
G37*
G36*
X20000Y173333D02*
X18342Y173003D01*
X16936Y172064D01*
X15997Y170658D01*
X15667Y169000D01*
X15997Y167342D01*
X16936Y165936D01*
X18342Y164997D01*
X20000Y164667D01*
X21658Y164997D01*
X23064Y165936D01*
X24003Y167342D01*
X24333Y169000D01*
X24003Y170658D01*
X23064Y172064D01*
X21658Y173003D01*
X20000Y173333D01*
D02*
G37*
G36*
X533500Y185900D02*
X505500D01*
Y174470D01*
X505500Y174400D01*
Y173200D01*
X505500Y173130D01*
Y161700D01*
X533500D01*
Y173130D01*
X533500Y173200D01*
Y174400D01*
X533500Y174470D01*
Y185900D01*
D02*
G37*
G36*
X728000Y175386D02*
X725389Y175043D01*
X722957Y174035D01*
X720868Y172432D01*
X719265Y170343D01*
X718257Y167910D01*
X717914Y165300D01*
X718257Y162689D01*
X719265Y160257D01*
X720868Y158168D01*
X722957Y156565D01*
X725389Y155557D01*
X728000Y155214D01*
X730611Y155557D01*
X733043Y156565D01*
X735132Y158168D01*
X736735Y160257D01*
X737743Y162689D01*
X738086Y165300D01*
X737743Y167910D01*
X736735Y170343D01*
X735132Y172432D01*
X733043Y174035D01*
X730611Y175043D01*
X728000Y175386D01*
D02*
G37*
G36*
X60000Y170569D02*
X58634Y170297D01*
X57477Y169523D01*
X56703Y168366D01*
X56431Y167000D01*
X56703Y165634D01*
X57477Y164477D01*
X58931Y163022D01*
Y140000D01*
X59203Y138634D01*
X59977Y137477D01*
X61134Y136703D01*
X62500Y136431D01*
X63866Y136703D01*
X65023Y137477D01*
X65797Y138634D01*
X66069Y140000D01*
Y164500D01*
X65797Y165866D01*
X65023Y167023D01*
X62523Y169523D01*
X61366Y170297D01*
X60000Y170569D01*
D02*
G37*
G36*
X39500Y150000D02*
X23500D01*
Y130000D01*
X39500D01*
Y150000D01*
D02*
G37*
G36*
X728000Y149986D02*
X725389Y149643D01*
X722957Y148635D01*
X720868Y147032D01*
X719265Y144943D01*
X718257Y142510D01*
X717914Y139900D01*
X718257Y137289D01*
X719265Y134857D01*
X720868Y132768D01*
X722957Y131165D01*
X725389Y130157D01*
X728000Y129814D01*
X730611Y130157D01*
X733043Y131165D01*
X735132Y132768D01*
X736735Y134857D01*
X737743Y137289D01*
X738086Y139900D01*
X737743Y142510D01*
X736735Y144943D01*
X735132Y147032D01*
X733043Y148635D01*
X730611Y149643D01*
X728000Y149986D01*
D02*
G37*
G36*
Y124586D02*
X725389Y124243D01*
X722957Y123235D01*
X720868Y121632D01*
X719265Y119543D01*
X718257Y117111D01*
X717914Y114500D01*
X718257Y111889D01*
X719265Y109457D01*
X720868Y107368D01*
X722957Y105765D01*
X725389Y104757D01*
X728000Y104414D01*
X730611Y104757D01*
X733043Y105765D01*
X735132Y107368D01*
X736735Y109457D01*
X737743Y111889D01*
X738086Y114500D01*
X737743Y117111D01*
X736735Y119543D01*
X735132Y121632D01*
X733043Y123235D01*
X730611Y124243D01*
X728000Y124586D01*
D02*
G37*
%LPD*%
G36*
X285646Y282029D02*
X285646Y282028D01*
X285958Y281716D01*
X285667Y280250D01*
X285997Y278592D01*
X286840Y277329D01*
X286677Y276699D01*
X286337Y276059D01*
X263167D01*
X233500Y305726D01*
Y312900D01*
X233500D01*
X233811Y314041D01*
X253633D01*
X285646Y282029D01*
D02*
G37*
G36*
X266941Y175645D02*
X267934Y174982D01*
X269104Y174749D01*
X290128D01*
X290614Y173576D01*
X287547Y170509D01*
X233500D01*
Y173200D01*
X233500D01*
Y174400D01*
X233500D01*
Y177091D01*
X265495D01*
X266941Y175645D01*
D02*
G37*
G36*
X285913Y163218D02*
X279754Y157059D01*
X210267D01*
X206799Y160527D01*
X207285Y161700D01*
X233500D01*
Y164391D01*
X285427D01*
X285913Y163218D01*
D02*
G37*
D10*
X336250Y352150D02*
X356350Y372250D01*
X336250Y331721D02*
Y352150D01*
X331750Y360350D02*
X343650Y372250D01*
X331750Y299250D02*
Y360350D01*
X336250Y331721D02*
X339000Y328971D01*
X299383Y323515D02*
X300000Y324132D01*
X299383Y316882D02*
Y323515D01*
X300000Y324132D02*
Y352400D01*
X304883Y312508D02*
Y360217D01*
X292850Y372250D02*
X304883Y360217D01*
X325000Y321250D02*
X326250Y320000D01*
X331750Y299250D02*
X338000Y293000D01*
X325000Y321250D02*
Y360574D01*
X326250Y314000D02*
Y320000D01*
X408204Y204780D02*
X447620D01*
X412309Y210000D02*
X418269D01*
X412030Y210280D02*
X412309Y210000D01*
X426275Y199280D02*
X426746Y199750D01*
X408036Y204611D02*
X408204Y204780D01*
X447620D02*
X450250Y202150D01*
X413367Y199280D02*
X426275D01*
X407879Y217320D02*
X408722Y216477D01*
X461323D01*
X400661Y217320D02*
X407879D01*
X309712Y305712D02*
X310000Y306000D01*
Y361464D01*
X343500Y310222D02*
Y346700D01*
X339000Y302000D02*
Y328971D01*
X348000Y338500D02*
X381750Y372250D01*
X343500Y310222D02*
X346000Y307722D01*
X343500Y346700D02*
X369050Y372250D01*
X348000Y323021D02*
X353000Y318021D01*
X348000Y323021D02*
Y338500D01*
X346000Y298000D02*
Y307722D01*
X353000Y307000D02*
Y318021D01*
X426746Y199750D02*
X439950D01*
X411000Y221977D02*
X434277D01*
X435277Y220977D01*
X463187D01*
X404581Y227161D02*
X404897Y227477D01*
X463414Y220750D02*
X478000D01*
X463187Y220977D02*
X463414Y220750D01*
X404897Y227477D02*
X435141D01*
X437141Y225477D01*
X439950Y199750D02*
X472250Y167450D01*
X437141Y225477D02*
X466777D01*
X472250Y230950D01*
X461323Y216477D02*
X472250Y205550D01*
X478000Y220750D02*
X480500Y218250D01*
X408940Y260250D02*
X415660D01*
X430600Y265500D02*
X472250Y307150D01*
X399000Y265000D02*
X405912D01*
X408800Y271250D02*
X408996Y271054D01*
X408832Y237913D02*
X460177D01*
X414533Y265500D02*
X430600D01*
X459281Y243381D02*
X472250Y256350D01*
X406662Y243381D02*
X459281D01*
X406662Y265750D02*
X414283D01*
X414533Y265500D01*
X416190Y259720D02*
X437520D01*
X408800Y237881D02*
X408832Y237913D01*
X408996Y271054D02*
X415344D01*
X405043Y245000D02*
X406662Y243381D01*
X405912Y265000D02*
X406662Y265750D01*
X395734Y254381D02*
X444881D01*
X452081Y248881D02*
X472250Y269050D01*
X399000Y245000D02*
X405043D01*
X408940Y248881D02*
X452081D01*
X415660Y260250D02*
X416190Y259720D01*
X444881Y254381D02*
X472250Y281750D01*
X469750Y241150D02*
X472250Y243650D01*
X463414Y241150D02*
X469750D01*
X460177Y237913D02*
X463414Y241150D01*
X415344Y271054D02*
X416397Y270000D01*
X422400D01*
X410250Y280000D02*
X419700D01*
X410000Y279750D02*
X410250Y280000D01*
X304500Y312125D02*
X304883Y312508D01*
X365000Y136400D02*
Y147000D01*
X385759Y145241D02*
X395042Y135958D01*
X398942D01*
X369740Y158459D02*
X370500Y157699D01*
Y145396D02*
Y157699D01*
X356350Y127750D02*
X365000Y136400D01*
X370150Y145046D02*
X370500Y145396D01*
X369740Y158459D02*
Y159000D01*
X369050Y99500D02*
X370150Y100600D01*
Y145046D01*
X380259Y141941D02*
Y147480D01*
X381500Y148722D01*
X380240Y159000D02*
X380623Y158617D01*
X375759Y144291D02*
Y150759D01*
X349123Y155015D02*
X349617Y154520D01*
X380623Y154156D02*
Y158617D01*
X375759Y150759D02*
X376000Y151000D01*
X349123Y155015D02*
Y158617D01*
X374650Y143182D02*
X375759Y144291D01*
X380259Y141941D02*
X394450Y127750D01*
X380623Y154156D02*
X381500Y153278D01*
X359500Y143600D02*
Y156740D01*
X348740Y159000D02*
X349123Y158617D01*
X381500Y148722D02*
Y153278D01*
X359240Y157000D02*
X359500Y156740D01*
X374650Y134850D02*
Y143182D01*
X389904Y154769D02*
Y155652D01*
X390357Y156105D01*
Y159617D01*
X390740Y160000D01*
X395390Y153360D02*
X395735Y153015D01*
X407285D01*
X432550Y127750D01*
X348500Y147826D02*
Y153403D01*
X354383Y147888D02*
Y150742D01*
X348500Y153403D02*
X349617Y154520D01*
X342554Y141880D02*
X348500Y147826D01*
X354000Y151125D02*
X354383Y150742D01*
Y147888D02*
X354654Y147617D01*
X329260Y146380D02*
X337380D01*
X342000Y151000D01*
X389000Y303000D02*
X389099Y303099D01*
Y358941D01*
X405336Y311058D02*
Y326335D01*
X394970Y312791D02*
Y353970D01*
X389099Y358941D02*
X391950Y361792D01*
X405336Y311058D02*
X405599Y310795D01*
X394599Y312420D02*
X394970Y312791D01*
X400099Y305099D02*
Y329099D01*
X400000Y305000D02*
X400099Y305099D01*
Y329099D02*
X410000Y339000D01*
X419850Y99500D02*
Y127750D01*
X432550Y99500D02*
Y127750D01*
X305550Y99500D02*
Y127750D01*
X389890Y154755D02*
X389904Y154769D01*
X389890Y150763D02*
Y154755D01*
Y150763D02*
X400194Y140458D01*
X315750Y369750D02*
X318250Y372250D01*
X315750Y314885D02*
Y369750D01*
X405336Y326335D02*
X418051Y339051D01*
Y357751D01*
X410000Y339000D02*
Y362400D01*
X418500Y209769D02*
X455331D01*
X418269Y210000D02*
X418500Y209769D01*
X344418Y137380D02*
X354654Y147617D01*
X343650Y127750D02*
X359500Y143600D01*
X450250Y197033D02*
Y202150D01*
X464632Y182650D02*
X478000D01*
X480500Y180150D01*
X450250Y197033D02*
X464632Y182650D01*
X455331Y209769D02*
X472250Y192850D01*
X419700Y280000D02*
X472250Y332550D01*
X400194Y140458D02*
X407142D01*
X402000Y361000D02*
Y367100D01*
X391950Y361792D02*
Y378000D01*
X394970Y353970D02*
X402000Y361000D01*
X391950Y378000D02*
X394450Y380500D01*
X472250Y243650D02*
X480500D01*
X437520Y259720D02*
X472250Y294450D01*
X422400Y270000D02*
X472250Y319850D01*
X325000Y360574D02*
X328450Y364024D01*
X318250Y372250D02*
Y380500D01*
X280150Y372250D02*
X300000Y352400D01*
X308050Y363414D02*
X310000Y361464D01*
X472250Y332550D02*
X480500D01*
X402000Y367100D02*
X407150Y372250D01*
X410000Y362400D02*
X419850Y372250D01*
X314960Y137160D02*
X320040D01*
X329260Y146380D01*
X305550Y127750D02*
X314960Y137160D01*
X332380Y141880D02*
X342554D01*
X318250Y127750D02*
X332380Y141880D01*
X340580Y137380D02*
X344418D01*
X330950Y127750D02*
X340580Y137380D01*
X318250Y99500D02*
Y127750D01*
X330950Y99500D02*
Y127750D01*
X343650Y99500D02*
Y127750D01*
X356350Y99500D02*
Y127750D01*
X381750Y99500D02*
Y127750D01*
X374650Y134850D02*
X381750Y127750D01*
X394450Y99500D02*
Y127750D01*
X398942Y135958D02*
X407150Y127750D01*
Y99500D02*
Y127750D01*
X407142Y140458D02*
X419850Y127750D01*
X418051Y357751D02*
X432550Y372250D01*
Y380500D01*
X419850Y372250D02*
Y380500D01*
X407150Y372250D02*
Y380500D01*
X381750Y372250D02*
Y380500D01*
X369050Y372250D02*
Y380500D01*
X356350Y372250D02*
Y380500D01*
X343650Y372250D02*
Y380500D01*
X328450Y364024D02*
Y378000D01*
X330950Y380500D01*
X308050Y363414D02*
Y378000D01*
X305550Y380500D02*
X308050Y378000D01*
X292850Y372250D02*
Y380500D01*
X280150Y372250D02*
Y380500D01*
X472250Y167450D02*
X480500D01*
X472250Y192850D02*
X480500D01*
X472250Y205550D02*
X480500D01*
X472250Y230950D02*
X480500D01*
X472250Y256350D02*
X480500D01*
X472250Y269050D02*
X480500D01*
X472250Y281750D02*
X480500D01*
X472250Y294450D02*
X480500D01*
X472250Y307150D02*
X480500D01*
X472250Y319850D02*
X480500D01*
D12*
X700000Y230500D02*
G03*
X686000Y216500I0J-14000D01*
G01*
X719000Y282750D02*
G03*
X700000Y263750I0J-19000D01*
G01*
X730000Y386200D02*
G03*
X719000Y375200I0J-11000D01*
G01*
X653000Y503000D02*
G03*
X628000Y528000I-25000J0D01*
G01*
X653000Y463650D02*
G03*
X678400Y438250I25400J0D01*
G01*
X611000Y443500D02*
G03*
X612000Y442500I1000J0D01*
G01*
X610500Y443000D02*
G03*
X611000Y443500I0J500D01*
G01*
X691000Y400767D02*
Y409750D01*
X267450Y60500D02*
Y68750D01*
X271400Y72700D01*
Y74571D01*
X275076Y78247D01*
X292111D01*
X295787Y81923D01*
X318000Y415000D02*
X318250Y415250D01*
Y419500D01*
X292850D02*
X318250D01*
X519500Y269050D02*
Y281750D01*
X719000Y311250D02*
Y375200D01*
X280150Y419500D02*
X292850D01*
X519500Y294450D02*
Y307150D01*
Y319850D01*
Y281750D02*
Y294450D01*
X419850Y419500D02*
X432550D01*
X407150D02*
X419850D01*
X686000Y163000D02*
Y216500D01*
X700000Y230500D02*
Y263750D01*
X653000Y463650D02*
Y503000D01*
X678400Y438250D02*
X691000D01*
X586000Y443000D02*
X610500D01*
X612000Y442500D02*
X634000D01*
D15*
X604250Y226000D02*
G03*
X605000Y226750I0J750D01*
G01*
X651000Y263500D02*
G03*
X636000Y248500I0J-15000D01*
G01*
X290793Y188756D02*
X291470D01*
X243295Y190006D02*
X289543D01*
X290793Y188756D01*
X273840Y183836D02*
X273983Y183693D01*
X268733Y183836D02*
X273840D01*
X266563Y186006D02*
X268733Y183836D01*
X292537Y177808D02*
X296294Y181564D01*
X269104Y177808D02*
X292537D01*
X266762Y180150D02*
X269104Y177808D01*
X251994Y194006D02*
X274820D01*
X275763Y194949D01*
X299265D01*
X227750Y205550D02*
X243295Y190006D01*
X237543Y190100D02*
X241638Y186006D01*
X227750Y218250D02*
X251994Y194006D01*
X241638Y186006D02*
X266563D01*
X219500Y180150D02*
X266762D01*
X280496Y205000D02*
X285918D01*
X254529Y204171D02*
X279668D01*
X280496Y205000D01*
X227750Y230950D02*
X254529Y204171D01*
X222250Y190100D02*
X237543D01*
X267450Y372250D02*
X293070Y346630D01*
Y299070D02*
Y346630D01*
X287809Y284191D02*
X289522Y282478D01*
Y280728D02*
Y282478D01*
X287809Y284191D02*
Y284191D01*
X289522Y280728D02*
X290000Y280250D01*
X254900Y317100D02*
X287809Y284191D01*
X222250Y317100D02*
X254900D01*
X288425Y240000D02*
X288750Y240325D01*
X227750Y281750D02*
X269500Y240000D01*
X288425D01*
X374000Y436938D02*
X375400Y435538D01*
Y434862D02*
Y435538D01*
X374000Y436938D02*
Y469000D01*
X392801D02*
X402500Y459301D01*
Y443000D02*
Y459301D01*
X374000Y469000D02*
X392801D01*
X293261Y292739D02*
X298000Y288000D01*
X289261Y292739D02*
X293261D01*
X285254Y296747D02*
X289261Y292739D01*
X285254Y296747D02*
Y315403D01*
X275557Y325100D02*
X285254Y315403D01*
X247000Y335000D02*
Y368500D01*
X386000Y455000D02*
X393250D01*
X389000Y435500D02*
Y435750D01*
X393817D01*
X276697Y314733D02*
X280004Y311427D01*
Y310750D02*
Y311427D01*
X256900Y325100D02*
X275557D01*
X276697Y314733D02*
Y318303D01*
X273900Y321100D02*
X276697Y318303D01*
X329500Y181550D02*
Y190750D01*
X329000Y191250D02*
X329500Y190750D01*
X329000Y191250D02*
Y197000D01*
X280678Y148000D02*
X322000Y189322D01*
Y211000D01*
X334750Y179943D02*
Y189230D01*
X335280Y171280D02*
Y179413D01*
X286450Y138500D02*
X329500Y181550D01*
X343000Y185330D02*
Y199000D01*
X334750Y179943D02*
X335280Y179413D01*
X340360Y182690D02*
X343000Y185330D01*
X296294Y181564D02*
Y181678D01*
X299220Y184604D02*
Y185280D01*
X288814Y167450D02*
X304470Y183106D01*
Y185470D01*
X296294Y181678D02*
X299220Y184604D01*
X304470Y185470D02*
X309000Y190000D01*
X281021Y154000D02*
X316000Y188979D01*
Y198000D01*
X295196Y235522D02*
X303522D01*
X304000Y236000D01*
X295175Y235500D02*
X295196Y235522D01*
X261300Y235500D02*
X295175D01*
X254100Y230000D02*
X292750D01*
X288750Y240325D02*
X293575D01*
X292750Y230000D02*
X293000Y230250D01*
X227750Y269050D02*
X261300Y235500D01*
X293575Y240325D02*
X294000Y240750D01*
X227750Y243650D02*
X247400Y224000D01*
X309000D01*
X227750Y307150D02*
X261900Y273000D01*
X301000D01*
X227750Y294450D02*
X257200Y265000D01*
X291000D01*
X292850Y99500D02*
Y127750D01*
X327000Y534500D02*
X327500Y535000D01*
X326000Y463000D02*
X329000Y460000D01*
X163500Y148757D02*
Y190500D01*
X165850Y192850D01*
X180500D01*
X159500Y159757D02*
Y199500D01*
X165550Y205550D02*
X180500D01*
X159500Y199500D02*
X165550Y205550D01*
X153000Y184500D02*
Y202000D01*
X178129Y215879D02*
X180500Y218250D01*
X166879Y215879D02*
X178129D01*
X153000Y202000D02*
X166879Y215879D01*
X118000Y130000D02*
X147000D01*
Y135000D01*
Y128500D02*
Y130000D01*
X150379Y138379D02*
X153121D01*
X163500Y148757D01*
X157121Y157379D02*
X159500Y159757D01*
X147000Y135000D02*
X150379Y138379D01*
X154379Y157379D02*
X157121D01*
X152000Y155000D02*
X154379Y157379D01*
X152000Y147500D02*
Y155000D01*
X130000Y147500D02*
X152000D01*
X115000Y133000D02*
Y161000D01*
Y133000D02*
X118000Y130000D01*
X119000Y165000D02*
X130000D01*
X115000Y161000D02*
X119000Y165000D01*
X130500Y165500D02*
X153000D01*
X130000Y165000D02*
X130500Y165500D01*
Y184500D02*
X153000D01*
X130000Y184000D02*
X130500Y184500D01*
X132191Y504809D02*
X183000Y454000D01*
Y392000D02*
Y454000D01*
X131191Y504809D02*
X132191D01*
X131000Y505000D02*
X131191Y504809D01*
X243500Y466000D02*
Y468000D01*
Y447000D02*
Y466000D01*
X361000Y439000D02*
Y453000D01*
X340360Y167010D02*
Y182690D01*
X350000Y512000D02*
X353000Y515000D01*
X361000Y481000D02*
X365000Y477000D01*
X378824D02*
X379996Y478172D01*
X365000Y477000D02*
X378824D01*
X379996Y478172D02*
Y483605D01*
X247000Y335000D02*
X256900Y325100D01*
X239200Y321100D02*
X273900D01*
X361121Y508136D02*
X383996Y485262D01*
X357121Y506479D02*
X379996Y483605D01*
X385167Y476000D02*
X390000D01*
X383996Y477172D02*
X385167Y476000D01*
X383996Y477172D02*
Y485262D01*
X615000Y310500D02*
X617750Y313250D01*
X599500Y310500D02*
X615000D01*
X571000Y282000D02*
X599500Y310500D01*
X98000Y328000D02*
Y405000D01*
Y328000D02*
X113000Y313000D01*
X98000Y423500D02*
X110500D01*
X129000Y405000D01*
X200271Y192000D02*
X201121Y192850D01*
X219500D01*
X200000Y192000D02*
X200271D01*
X209000Y154000D02*
X281021D01*
X199000Y164000D02*
X209000Y154000D01*
X208200Y148000D02*
X280678D01*
X188750Y167450D02*
X208200Y148000D01*
X199000Y164000D02*
Y172000D01*
X180500Y180150D02*
X183250Y177400D01*
X193600D01*
X199000Y172000D01*
X180500Y167450D02*
X188750D01*
X219500D02*
X288814D01*
X270200Y130500D02*
X271157D01*
X279157Y138500D01*
X267450Y127750D02*
X270200Y130500D01*
X280150Y127750D02*
X286900Y134500D01*
X299017Y145410D02*
X309410D01*
X279157Y138500D02*
X286450D01*
X267450Y106400D02*
Y127750D01*
X286900Y134500D02*
X288107D01*
X299017Y145410D01*
X280150Y99500D02*
Y127750D01*
X309410Y145410D02*
X335280Y171280D01*
X295343Y447598D02*
X298927D01*
X385500Y439000D02*
Y441000D01*
X294172Y446427D02*
X295343Y447598D01*
X294172Y436461D02*
Y446427D01*
X385500Y439000D02*
X389000Y435500D01*
X293000Y453941D02*
Y462250D01*
X295343Y451598D02*
X297270D01*
X293000Y453941D02*
X295343Y451598D01*
X321515Y475843D02*
X326828D01*
X297270Y451598D02*
X321515Y475843D01*
X323172Y471843D02*
X324828D01*
X326000Y470672D01*
X298927Y447598D02*
X323172Y471843D01*
X328000Y477015D02*
Y488000D01*
X326000Y463000D02*
Y470672D01*
X326828Y475843D02*
X328000Y477015D01*
X383000Y513000D02*
Y536000D01*
X667000Y294000D02*
Y294750D01*
X267450Y372250D02*
Y380500D01*
X603000Y226000D02*
X604250D01*
X578000Y224000D02*
Y230750D01*
X551000Y225000D02*
Y234000D01*
X636000Y223500D02*
Y248500D01*
X651000Y263500D02*
X675000D01*
X266500Y466000D02*
X279250D01*
X283000Y462250D01*
X275500Y505000D02*
X303000D01*
X351000Y537000D02*
X353121Y534879D01*
X354172Y521793D02*
X355950D01*
X353000Y515000D02*
Y520621D01*
X355950Y521793D02*
X357121Y520621D01*
X357607Y525793D02*
X361121Y522278D01*
Y508136D02*
Y522278D01*
X354293Y525793D02*
X357607D01*
X353000Y520621D02*
X354172Y521793D01*
X357121Y506479D02*
Y520621D01*
X353121Y526964D02*
X354293Y525793D01*
X353121Y526964D02*
Y534879D01*
X371500Y513000D02*
X383000D01*
X326500D02*
Y534000D01*
X243500Y468000D02*
X247000Y471500D01*
X248828D02*
X250000Y472672D01*
Y502500D01*
X247000Y471500D02*
X248828D01*
X250000Y502500D02*
X252500Y505000D01*
Y533000D01*
X270000Y441500D02*
X276500D01*
X266500Y445000D02*
Y447000D01*
Y445000D02*
X270000Y441500D01*
X276500D02*
X282000Y436000D01*
X275500Y533000D02*
X299729D01*
X302729Y536000D01*
X303000D01*
X326500Y534000D02*
X327000Y534500D01*
X361500Y461000D02*
X362500Y460000D01*
Y458000D02*
Y460000D01*
X361000Y453000D02*
X363000Y455000D01*
X219500Y332550D02*
X227750D01*
X239200Y321100D01*
X219500Y281750D02*
X227750D01*
X219500Y269050D02*
X227750D01*
Y256350D02*
X254100Y230000D01*
X219500Y256350D02*
X227750D01*
X219500Y243650D02*
X227750D01*
X219500Y230950D02*
X227750D01*
X219500Y218250D02*
X227750D01*
X219500Y205550D02*
X227750D01*
X219500Y192850D02*
X222250Y190100D01*
X219500Y294450D02*
X227750D01*
X219500Y307150D02*
X227750D01*
X219500Y319850D02*
X222250Y317100D01*
X296557Y130500D02*
X307467Y141410D01*
X295600Y130500D02*
X296557D01*
X307467Y141410D02*
X314760D01*
X292850Y127750D02*
X295600Y130500D01*
X314760Y141410D02*
X340360Y167010D01*
D19*
X632000Y367500D02*
D03*
Y390500D02*
D03*
X636000Y223500D02*
D03*
Y200500D02*
D03*
X127000Y147500D02*
D03*
Y128500D02*
D03*
X147000Y147500D02*
D03*
Y128500D02*
D03*
X150000Y184500D02*
D03*
Y165500D02*
D03*
X128000Y183500D02*
D03*
Y164500D02*
D03*
X640000Y294500D02*
D03*
Y313500D02*
D03*
X617000Y295000D02*
D03*
Y314000D02*
D03*
X675000Y244500D02*
D03*
Y263500D02*
D03*
X651000Y244500D02*
D03*
Y263500D02*
D03*
X700000Y207500D02*
D03*
Y230500D02*
D03*
X547000Y357500D02*
D03*
Y376500D02*
D03*
X572000Y376500D02*
D03*
Y357500D02*
D03*
X634000Y419500D02*
D03*
Y442500D02*
D03*
X611000Y420500D02*
D03*
Y443500D02*
D03*
D21*
X667000Y294750D02*
D03*
Y313250D02*
D03*
X668000Y330750D02*
D03*
Y349250D02*
D03*
X551000Y234000D02*
D03*
Y252500D02*
D03*
X578000Y230750D02*
D03*
Y249250D02*
D03*
X605000Y245250D02*
D03*
Y226750D02*
D03*
X51000Y331750D02*
D03*
Y350250D02*
D03*
X98000Y405000D02*
D03*
Y423500D02*
D03*
X24000Y331750D02*
D03*
Y350250D02*
D03*
D24*
X442000Y484555D02*
D03*
X472000D02*
D03*
X442000Y514555D02*
D03*
X472000D02*
D03*
X502000D02*
D03*
D28*
X385500Y458000D02*
D03*
X362500D02*
D03*
X385500Y441000D02*
D03*
X362500D02*
D03*
X425500Y443000D02*
D03*
X402500D02*
D03*
X394500Y513000D02*
D03*
X371500D02*
D03*
X350500Y535000D02*
D03*
X327500D02*
D03*
X266500Y466000D02*
D03*
X243500D02*
D03*
Y447000D02*
D03*
X266500D02*
D03*
X252500Y533000D02*
D03*
X275500D02*
D03*
Y505000D02*
D03*
X252500D02*
D03*
X326500Y513000D02*
D03*
X349500D02*
D03*
D32*
X598000Y354000D02*
D03*
Y326000D02*
D03*
D68*
X728000Y114500D02*
D03*
Y139900D02*
D03*
Y190700D02*
D03*
Y216100D02*
D03*
Y165300D02*
D03*
X730000Y411600D02*
D03*
Y386200D02*
D03*
D73*
X602600Y528000D02*
D03*
X577200D02*
D03*
X628000D02*
D03*
D80*
X598000Y354000D02*
G03*
X586000Y366000I-12000J0D01*
G01*
X555500D02*
G03*
X547000Y357500I0J-8500D01*
G01*
X555500Y366000D02*
X586000D01*
X547000Y345000D02*
Y357500D01*
X629250Y416750D02*
Y420250D01*
X711200Y207500D02*
X728000Y190700D01*
X700000Y207500D02*
X711200D01*
X651000Y244500D02*
X673000D01*
X663000Y252000D02*
X665500D01*
X673000Y244500D02*
X675000D01*
X665500Y252000D02*
X673000Y244500D01*
X512000Y192000D02*
X518650D01*
X511000Y191000D02*
X512000Y192000D01*
X518650D02*
X519500Y192850D01*
X267450Y411250D02*
X275700Y403000D01*
X267450Y411250D02*
Y419500D01*
X275700Y403000D02*
X283500D01*
X394500Y513000D02*
X440445D01*
X442000Y514555D01*
X425500Y443000D02*
X485000D01*
X527750Y332550D02*
X537200Y342000D01*
X544000D01*
X519500Y332550D02*
X527750D01*
X615000Y383000D02*
X622500Y390500D01*
X632000D01*
X615000Y364000D02*
Y383000D01*
Y364000D02*
X629750Y349250D01*
X668000D01*
X577000Y250250D02*
Y252000D01*
Y250250D02*
X578000Y249250D01*
X590000Y137000D02*
Y231250D01*
X604000Y245250D02*
X605000D01*
X590000Y231250D02*
X604000Y245250D01*
X24000Y350250D02*
X51000D01*
X52000D02*
X82750Y381000D01*
X51000Y350250D02*
X52000D01*
X82750Y381000D02*
X83000D01*
X562000Y280000D02*
Y337000D01*
X572000Y347000D01*
X551000Y269000D02*
X562000Y280000D01*
X551000Y252500D02*
Y269000D01*
X695000Y280000D02*
X717257Y302257D01*
X640750Y280000D02*
X695000D01*
X717257Y309507D02*
X719000Y311250D01*
X717257Y302257D02*
Y309507D01*
X605000Y245250D02*
X606000D01*
X640750Y280000D01*
X617750Y313250D02*
X667000D01*
X60000Y167000D02*
X62500Y164500D01*
Y140000D02*
Y164500D01*
X24000Y313000D02*
Y331750D01*
X22000Y311000D02*
X24000Y313000D01*
X617500Y294500D02*
X640000D01*
X617000Y295000D02*
X617500Y294500D01*
X629250Y416750D02*
X631750D01*
X632000Y416500D01*
X611000Y420500D02*
X629000D01*
X629250Y420250D01*
X632000Y390500D02*
Y416500D01*
X649500Y367500D02*
X667000Y385000D01*
X632000Y367500D02*
X649500D01*
X668000Y314250D02*
Y330750D01*
X667000Y313250D02*
X668000Y314250D01*
X520000Y346000D02*
Y351500D01*
X545000Y376500D02*
X547000D01*
X520000Y351500D02*
X545000Y376500D01*
X547000D02*
X547000Y376500D01*
X572000D01*
X544000Y342000D02*
X547000Y345000D01*
X572000Y347000D02*
Y357500D01*
X604000Y196000D02*
X608500Y200500D01*
X636000D01*
D81*
X700000Y50000D02*
D03*
X700000Y500000D02*
D03*
X50000Y500000D02*
D03*
X50000Y50000D02*
D03*
D82*
X25000Y268250D02*
D03*
Y205750D02*
D03*
D83*
X695500Y295250D02*
D03*
Y336750D02*
D03*
D84*
X728000Y241500D02*
D03*
X730000Y437000D02*
D03*
D85*
X502000Y484555D02*
D03*
D86*
X531690Y523445D02*
D03*
X412310D02*
D03*
D87*
X691000Y400767D02*
D03*
X273983Y183693D02*
D03*
X299265Y194949D02*
D03*
X291470Y188756D02*
D03*
X285918Y205000D02*
D03*
X297869Y207483D02*
D03*
X71750Y395000D02*
D03*
X299383Y316882D02*
D03*
X315750Y314885D02*
D03*
X326250Y314000D02*
D03*
X286000Y246000D02*
D03*
X375400Y434862D02*
D03*
X408036Y204611D02*
D03*
X413367Y199280D02*
D03*
X412030Y210280D02*
D03*
X400661Y217320D02*
D03*
X293070Y299070D02*
D03*
X320000Y306000D02*
D03*
X298000Y288000D02*
D03*
X309712Y305712D02*
D03*
X339000Y302000D02*
D03*
X346000Y298000D02*
D03*
X338000Y293000D02*
D03*
X353000Y307000D02*
D03*
X398000Y294000D02*
D03*
X410000Y300250D02*
D03*
X456030Y199030D02*
D03*
X411000Y221977D02*
D03*
X404581Y227161D02*
D03*
X408800Y271250D02*
D03*
X408940Y248881D02*
D03*
X408800Y237881D02*
D03*
X395734Y254381D02*
D03*
X408940Y260250D02*
D03*
X399000Y245000D02*
D03*
X401518Y286365D02*
D03*
X410000Y279750D02*
D03*
X299317Y84051D02*
D03*
X269826Y83250D02*
D03*
X247000Y368500D02*
D03*
X393250Y455000D02*
D03*
X393817Y435750D02*
D03*
X720000Y272250D02*
D03*
X677000Y268000D02*
D03*
X304500Y312125D02*
D03*
X280004Y310750D02*
D03*
X383000Y342000D02*
D03*
X365000Y147000D02*
D03*
X385759Y145241D02*
D03*
X359240Y157000D02*
D03*
X369740Y159000D02*
D03*
X348740D02*
D03*
X376000Y151000D02*
D03*
X390740Y160000D02*
D03*
X380240Y159000D02*
D03*
X395390Y153360D02*
D03*
X354000Y151125D02*
D03*
X342000Y151000D02*
D03*
X329000Y197000D02*
D03*
X343000Y199000D02*
D03*
X334750Y189230D02*
D03*
X299220Y185280D02*
D03*
X309000Y190000D02*
D03*
X316000Y198000D02*
D03*
X322000Y211000D02*
D03*
X304000Y236000D02*
D03*
X294000Y240750D02*
D03*
Y218750D02*
D03*
X309000Y224000D02*
D03*
X293000Y230250D02*
D03*
X306000Y216000D02*
D03*
X301000Y273000D02*
D03*
X290000Y280250D02*
D03*
X291000Y265000D02*
D03*
X389000Y303000D02*
D03*
X383599Y311000D02*
D03*
X405599Y310795D02*
D03*
X400000Y305000D02*
D03*
X394599Y312420D02*
D03*
X419000Y80000D02*
D03*
X443000Y89000D02*
D03*
X369050Y60500D02*
D03*
X357000Y63000D02*
D03*
X686000Y163000D02*
D03*
X636000Y223500D02*
D03*
X327000Y534500D02*
D03*
X351000Y537000D02*
D03*
X180500Y192850D02*
D03*
Y205550D02*
D03*
Y218250D02*
D03*
X199000Y263500D02*
D03*
Y282500D02*
D03*
X500000Y303000D02*
D03*
X183000Y392000D02*
D03*
X131000Y505000D02*
D03*
X414000Y319000D02*
D03*
X368000Y269500D02*
D03*
X663000Y252000D02*
D03*
X511000Y191000D02*
D03*
X361000Y481000D02*
D03*
X577000Y252000D02*
D03*
X590000Y137000D02*
D03*
X82000Y460000D02*
D03*
X551000Y282000D02*
D03*
X26000Y430250D02*
D03*
X50000Y390000D02*
D03*
X283500Y403000D02*
D03*
X485000Y443000D02*
D03*
X369000Y414000D02*
D03*
X343000Y417000D02*
D03*
X356000D02*
D03*
X632000Y390500D02*
D03*
X83000Y381000D02*
D03*
X331000Y418000D02*
D03*
X199000Y472000D02*
D03*
X302500Y403000D02*
D03*
X262000Y350000D02*
D03*
X189000Y405000D02*
D03*
X374000Y469000D02*
D03*
X130000Y366950D02*
D03*
X571000Y282000D02*
D03*
X113000Y313000D02*
D03*
X129000Y405000D02*
D03*
X131000Y60500D02*
D03*
X213000Y180000D02*
D03*
X200000Y192000D02*
D03*
X60000Y167000D02*
D03*
X33000Y140000D02*
D03*
X65000Y247000D02*
D03*
X52000Y331000D02*
D03*
X22000Y311000D02*
D03*
X294172Y436461D02*
D03*
X293000Y462250D02*
D03*
X329000Y460000D02*
D03*
Y490000D02*
D03*
X383250Y536000D02*
D03*
X617000Y295000D02*
D03*
X599000Y324750D02*
D03*
X667000Y294000D02*
D03*
X382000Y416000D02*
D03*
X394000Y415000D02*
D03*
X520000Y346000D02*
D03*
X544000Y342000D02*
D03*
X566000Y341000D02*
D03*
X604000Y196000D02*
D03*
X603000Y226000D02*
D03*
X578000Y224000D02*
D03*
X551000Y225000D02*
D03*
X611000Y443500D02*
D03*
X586000Y443000D02*
D03*
X65000Y227000D02*
D03*
Y267000D02*
D03*
X20000Y169000D02*
D03*
X399000Y265000D02*
D03*
X266000Y465000D02*
D03*
Y448000D02*
D03*
X283000Y462250D02*
D03*
X276000Y504000D02*
D03*
X274000Y533000D02*
D03*
X390000Y476000D02*
D03*
X383000Y513000D02*
D03*
X350000Y512000D02*
D03*
X252500Y533000D02*
D03*
X282000Y436000D02*
D03*
X303000Y505000D02*
D03*
Y536000D02*
D03*
X361500Y461000D02*
D03*
D88*
X673072Y401928D02*
D03*
X386393Y205393D02*
D03*
X357000Y289000D02*
D03*
X333000Y284000D02*
D03*
X700000Y450000D02*
D03*
Y350000D02*
D03*
Y150000D02*
D03*
X675000Y200000D02*
D03*
X650000Y150000D02*
D03*
X625000Y500000D02*
D03*
Y400000D02*
D03*
X600000Y150000D02*
D03*
X525000Y500000D02*
D03*
X500000Y350000D02*
D03*
Y250000D02*
D03*
Y150000D02*
D03*
X450000Y350000D02*
D03*
Y150000D02*
D03*
Y50000D02*
D03*
X425000Y500000D02*
D03*
Y400000D02*
D03*
X250000Y50000D02*
D03*
X225000Y500000D02*
D03*
X200000Y350000D02*
D03*
X225000Y100000D02*
D03*
X200000Y50000D02*
D03*
X150000Y350000D02*
D03*
X175000Y100000D02*
D03*
X150000Y50000D02*
D03*
X125000Y200000D02*
D03*
X100000Y150000D02*
D03*
X125000Y100000D02*
D03*
X100000Y50000D02*
D03*
X50000Y450000D02*
D03*
X75000Y300000D02*
D03*
X50000Y250000D02*
D03*
X75000Y200000D02*
D03*
X50000Y150000D02*
D03*
X75000Y100000D02*
D03*
X374000Y313000D02*
D03*
X361000Y311000D02*
D03*
X445844Y453120D02*
D03*
X456000Y464000D02*
D03*
X424000Y456000D02*
D03*
X434000Y467000D02*
D03*
X337000Y529000D02*
D03*
X314345Y528778D02*
D03*
X314000Y510000D02*
D03*
X337000Y511000D02*
D03*
X394000Y532000D02*
D03*
X456000Y527000D02*
D03*
X427000D02*
D03*
X353000Y452000D02*
D03*
X313000Y451000D02*
D03*
X380000Y299000D02*
D03*
X389000Y290000D02*
D03*
X394000Y276000D02*
D03*
X384000Y260000D02*
D03*
X387000Y250000D02*
D03*
X389000Y224000D02*
D03*
X351000Y192000D02*
D03*
X334000Y206000D02*
D03*
X306000Y207000D02*
D03*
X311000Y232000D02*
D03*
X305000Y281000D02*
D03*
X321000Y297000D02*
D03*
X680000Y70000D02*
D03*
X672500Y50000D02*
D03*
X680000Y30000D02*
D03*
X700000Y22500D02*
D03*
X720000Y30000D02*
D03*
X727500Y50000D02*
D03*
X720000Y70000D02*
D03*
X700000Y77500D02*
D03*
X700000Y527500D02*
D03*
X720000Y520000D02*
D03*
X727500Y500000D02*
D03*
X720000Y480000D02*
D03*
X700000Y472500D02*
D03*
X680000Y480000D02*
D03*
X672500Y500000D02*
D03*
X680000Y520000D02*
D03*
X50000Y527500D02*
D03*
X70000Y520000D02*
D03*
X77500Y500000D02*
D03*
X70000Y480000D02*
D03*
X50000Y472500D02*
D03*
X30000Y480000D02*
D03*
X22500Y500000D02*
D03*
X30000Y520000D02*
D03*
X50000Y77500D02*
D03*
X70000Y70000D02*
D03*
X77500Y50000D02*
D03*
X70000Y30000D02*
D03*
X50000Y22500D02*
D03*
X30000Y30000D02*
D03*
X22500Y50000D02*
D03*
X30000Y70000D02*
D03*
D89*
X318000Y415000D02*
D03*
X520000Y307000D02*
D03*
X79000Y441000D02*
D03*
X667000Y385000D02*
D03*
D90*
X406000Y427000D02*
D03*
D91*
X432550Y60500D02*
D03*
X419850D02*
D03*
X407150D02*
D03*
X394450D02*
D03*
X381750D02*
D03*
X432550Y99500D02*
D03*
X419850D02*
D03*
X407150D02*
D03*
X394450D02*
D03*
X381750D02*
D03*
X369050Y60500D02*
D03*
X356350D02*
D03*
X369050Y99500D02*
D03*
X356350D02*
D03*
X343650Y60500D02*
D03*
Y99500D02*
D03*
X267450Y60500D02*
D03*
Y99500D02*
D03*
X280150D02*
D03*
Y60500D02*
D03*
X292850Y99500D02*
D03*
Y60500D02*
D03*
X305550Y99500D02*
D03*
Y60500D02*
D03*
X318250Y99500D02*
D03*
X330950D02*
D03*
X318250Y60500D02*
D03*
X330950D02*
D03*
Y380500D02*
D03*
X318250D02*
D03*
X330950Y419500D02*
D03*
X318250D02*
D03*
X305550Y380500D02*
D03*
Y419500D02*
D03*
X292850Y380500D02*
D03*
Y419500D02*
D03*
X280150Y380500D02*
D03*
Y419500D02*
D03*
X267450D02*
D03*
Y380500D02*
D03*
X343650Y419500D02*
D03*
Y380500D02*
D03*
X356350Y419500D02*
D03*
X369050D02*
D03*
X356350Y380500D02*
D03*
X369050D02*
D03*
X381750Y419500D02*
D03*
X394450D02*
D03*
X407150D02*
D03*
X419850D02*
D03*
X432550D02*
D03*
X381750Y380500D02*
D03*
X394450D02*
D03*
X407150D02*
D03*
X419850D02*
D03*
X432550D02*
D03*
D92*
X719000Y311250D02*
D03*
Y282750D02*
D03*
X691000Y438250D02*
D03*
Y409750D02*
D03*
D93*
X31500Y140000D02*
D03*
X62500D02*
D03*
D94*
X219500Y230950D02*
D03*
Y218250D02*
D03*
X180500Y230950D02*
D03*
Y218250D02*
D03*
X219500Y205550D02*
D03*
X180500D02*
D03*
X219500Y192850D02*
D03*
X180500D02*
D03*
X219500Y180150D02*
D03*
X180500D02*
D03*
Y167450D02*
D03*
X219500D02*
D03*
X180500Y243650D02*
D03*
X219500D02*
D03*
X180500Y256350D02*
D03*
Y269050D02*
D03*
X219500Y256350D02*
D03*
Y269050D02*
D03*
X180500Y281750D02*
D03*
Y294450D02*
D03*
Y307150D02*
D03*
Y319850D02*
D03*
Y332550D02*
D03*
X219500Y281750D02*
D03*
Y294450D02*
D03*
Y307150D02*
D03*
Y319850D02*
D03*
Y332550D02*
D03*
X480500Y269050D02*
D03*
Y281750D02*
D03*
X519500Y269050D02*
D03*
Y281750D02*
D03*
X480500Y294450D02*
D03*
X519500D02*
D03*
X480500Y307150D02*
D03*
X519500D02*
D03*
X480500Y319850D02*
D03*
X519500D02*
D03*
Y332550D02*
D03*
X480500D02*
D03*
X519500Y256350D02*
D03*
X480500D02*
D03*
X519500Y243650D02*
D03*
Y230950D02*
D03*
X480500Y243650D02*
D03*
Y230950D02*
D03*
X519500Y218250D02*
D03*
Y205550D02*
D03*
Y192850D02*
D03*
Y180150D02*
D03*
Y167450D02*
D03*
X480500Y218250D02*
D03*
Y205550D02*
D03*
Y192850D02*
D03*
Y180150D02*
D03*
Y167450D02*
D03*
M02*
