G04*
G04 #@! TF.GenerationSoftware,Altium Limited,Altium Designer,23.11.1 (41)*
G04*
G04 Layer_Physical_Order=3*
G04 Layer_Color=16440176*
%FSLAX44Y44*%
%MOMM*%
G71*
G04*
G04 #@! TF.SameCoordinates,0DF123BF-E9B0-4B01-884F-CD338A10EF4C*
G04*
G04*
G04 #@! TF.FilePolarity,Positive*
G04*
G01*
G75*
%ADD12C,0.6000*%
%ADD15C,0.2000*%
%ADD24C,2.0000*%
%ADD68C,1.6000*%
%ADD73C,1.5000*%
%ADD81C,7.0000*%
%ADD82C,1.3000*%
%ADD83C,0.7000*%
G04:AMPARAMS|DCode=84|XSize=1.6mm|YSize=1.6mm|CornerRadius=0.4mm|HoleSize=0mm|Usage=FLASHONLY|Rotation=270.000|XOffset=0mm|YOffset=0mm|HoleType=Round|Shape=RoundedRectangle|*
%AMROUNDEDRECTD84*
21,1,1.6000,0.8000,0,0,270.0*
21,1,0.8000,1.6000,0,0,270.0*
1,1,0.8000,-0.4000,-0.4000*
1,1,0.8000,-0.4000,0.4000*
1,1,0.8000,0.4000,0.4000*
1,1,0.8000,0.4000,-0.4000*
%
%ADD84ROUNDEDRECTD84*%
G04:AMPARAMS|DCode=85|XSize=2mm|YSize=2mm|CornerRadius=0.5mm|HoleSize=0mm|Usage=FLASHONLY|Rotation=90.000|XOffset=0mm|YOffset=0mm|HoleType=Round|Shape=RoundedRectangle|*
%AMROUNDEDRECTD85*
21,1,2.0000,1.0000,0,0,90.0*
21,1,1.0000,2.0000,0,0,90.0*
1,1,1.0000,0.5000,0.5000*
1,1,1.0000,0.5000,-0.5000*
1,1,1.0000,-0.5000,-0.5000*
1,1,1.0000,-0.5000,0.5000*
%
%ADD85ROUNDEDRECTD85*%
%ADD86C,1.2000*%
%ADD87C,0.4500*%
%ADD88C,0.5000*%
%ADD89C,0.4000*%
%ADD90C,0.3000*%
G36*
X700000Y550000D02*
X703277D01*
X709775Y549144D01*
X716106Y547448D01*
X722162Y544940D01*
X727838Y541663D01*
X733038Y537673D01*
X737673Y533038D01*
X741663Y527838D01*
X744940Y522162D01*
X747448Y516106D01*
X749144Y509775D01*
X750000Y503277D01*
Y500000D01*
X750000Y500000D01*
X750000Y500000D01*
X750000Y50000D01*
Y46723D01*
X749145Y40224D01*
X747448Y33893D01*
X744940Y27838D01*
X741663Y22162D01*
X737673Y16962D01*
X733038Y12327D01*
X727838Y8337D01*
X722162Y5060D01*
X716106Y2552D01*
X709775Y856D01*
X703277Y0D01*
X700000Y0D01*
X50000Y0D01*
X46723D01*
X40224Y856D01*
X33893Y2552D01*
X27838Y5060D01*
X22162Y8337D01*
X16962Y12327D01*
X12327Y16962D01*
X8337Y22162D01*
X5060Y27838D01*
X2552Y33893D01*
X856Y40224D01*
X0Y46723D01*
X0Y50000D01*
X0Y500000D01*
Y503277D01*
X856Y509775D01*
X2552Y516106D01*
X5060Y522162D01*
X8337Y527838D01*
X12327Y533038D01*
X16962Y537673D01*
X22162Y541663D01*
X27838Y544940D01*
X33893Y547448D01*
X40224Y549144D01*
X46723Y550000D01*
X50000D01*
X50000Y550000D01*
X700000Y550000D01*
D02*
G37*
%LPC*%
G36*
X351000Y541333D02*
X349342Y541003D01*
X347936Y540064D01*
X346997Y538658D01*
X346667Y537000D01*
X346997Y535342D01*
X347936Y533936D01*
X349342Y532997D01*
X351000Y532667D01*
X352658Y532997D01*
X354064Y533936D01*
X355003Y535342D01*
X355333Y537000D01*
X355003Y538658D01*
X354064Y540064D01*
X352658Y541003D01*
X351000Y541333D01*
D02*
G37*
G36*
X383250Y540333D02*
X381592Y540003D01*
X380186Y539064D01*
X379247Y537658D01*
X378917Y536000D01*
X379247Y534342D01*
X380186Y532936D01*
X381592Y531997D01*
X383250Y531667D01*
X384908Y531997D01*
X386314Y532936D01*
X387253Y534342D01*
X387583Y536000D01*
X387253Y537658D01*
X386314Y539064D01*
X384908Y540003D01*
X383250Y540333D01*
D02*
G37*
G36*
X303000D02*
X301342Y540003D01*
X299936Y539064D01*
X298997Y537658D01*
X298667Y536000D01*
X298997Y534342D01*
X299936Y532936D01*
X301342Y531997D01*
X303000Y531667D01*
X304658Y531997D01*
X306064Y532936D01*
X307003Y534342D01*
X307333Y536000D01*
X307003Y537658D01*
X306064Y539064D01*
X304658Y540003D01*
X303000Y540333D01*
D02*
G37*
G36*
X327000Y538833D02*
X325342Y538503D01*
X323936Y537564D01*
X322997Y536158D01*
X322667Y534500D01*
X322997Y532842D01*
X323936Y531436D01*
X325342Y530497D01*
X327000Y530167D01*
X328658Y530497D01*
X330064Y531436D01*
X331003Y532842D01*
X331333Y534500D01*
X331003Y536158D01*
X330064Y537564D01*
X328658Y538503D01*
X327000Y538833D01*
D02*
G37*
G36*
X274000Y537333D02*
X272342Y537003D01*
X270936Y536064D01*
X269997Y534658D01*
X269667Y533000D01*
X269997Y531342D01*
X270936Y529936D01*
X272342Y528997D01*
X274000Y528667D01*
X275658Y528997D01*
X277064Y529936D01*
X278003Y531342D01*
X278333Y533000D01*
X278003Y534658D01*
X277064Y536064D01*
X275658Y537003D01*
X274000Y537333D01*
D02*
G37*
G36*
X252500D02*
X250842Y537003D01*
X249436Y536064D01*
X248497Y534658D01*
X248167Y533000D01*
X248497Y531342D01*
X249436Y529936D01*
X250842Y528997D01*
X252500Y528667D01*
X254158Y528997D01*
X255564Y529936D01*
X256503Y531342D01*
X256833Y533000D01*
X256503Y534658D01*
X255564Y536064D01*
X254158Y537003D01*
X252500Y537333D01*
D02*
G37*
G36*
X394000Y536588D02*
X392244Y536239D01*
X390756Y535244D01*
X389761Y533756D01*
X389412Y532000D01*
X389761Y530244D01*
X390756Y528756D01*
X392244Y527761D01*
X394000Y527412D01*
X395756Y527761D01*
X397244Y528756D01*
X398239Y530244D01*
X398588Y532000D01*
X398239Y533756D01*
X397244Y535244D01*
X395756Y536239D01*
X394000Y536588D01*
D02*
G37*
G36*
X337000Y533588D02*
X335244Y533239D01*
X333756Y532244D01*
X332761Y530756D01*
X332412Y529000D01*
X332761Y527244D01*
X333756Y525756D01*
X335244Y524761D01*
X337000Y524412D01*
X338756Y524761D01*
X340244Y525756D01*
X341239Y527244D01*
X341588Y529000D01*
X341239Y530756D01*
X340244Y532244D01*
X338756Y533239D01*
X337000Y533588D01*
D02*
G37*
G36*
X314345Y533366D02*
X312589Y533017D01*
X311100Y532022D01*
X310106Y530533D01*
X309757Y528778D01*
X310106Y527022D01*
X311100Y525533D01*
X312589Y524539D01*
X314345Y524190D01*
X316101Y524539D01*
X317589Y525533D01*
X318584Y527022D01*
X318933Y528778D01*
X318584Y530533D01*
X317589Y532022D01*
X316101Y533017D01*
X314345Y533366D01*
D02*
G37*
G36*
X456000Y531588D02*
X454244Y531239D01*
X452756Y530244D01*
X451761Y528756D01*
X451412Y527000D01*
X451761Y525244D01*
X452756Y523756D01*
X454244Y522761D01*
X456000Y522412D01*
X457756Y522761D01*
X459244Y523756D01*
X460239Y525244D01*
X460588Y527000D01*
X460239Y528756D01*
X459244Y530244D01*
X457756Y531239D01*
X456000Y531588D01*
D02*
G37*
G36*
X427000D02*
X425244Y531239D01*
X423756Y530244D01*
X422761Y528756D01*
X422412Y527000D01*
X422761Y525244D01*
X423756Y523756D01*
X425244Y522761D01*
X427000Y522412D01*
X428756Y522761D01*
X430244Y523756D01*
X431239Y525244D01*
X431588Y527000D01*
X431239Y528756D01*
X430244Y530244D01*
X428756Y531239D01*
X427000Y531588D01*
D02*
G37*
G36*
X628000Y537582D02*
X625520Y537256D01*
X623209Y536298D01*
X621225Y534776D01*
X619702Y532791D01*
X618745Y530480D01*
X618418Y528000D01*
X618745Y525520D01*
X619702Y523209D01*
X621225Y521225D01*
X623209Y519702D01*
X625520Y518745D01*
X628000Y518418D01*
X630480Y518745D01*
X632791Y519702D01*
X634775Y521225D01*
X636298Y523209D01*
X637255Y525520D01*
X637582Y528000D01*
X637255Y530480D01*
X636298Y532791D01*
X634775Y534776D01*
X632791Y536298D01*
X630480Y537256D01*
X628000Y537582D01*
D02*
G37*
G36*
X602600D02*
X600120Y537256D01*
X597809Y536298D01*
X595825Y534776D01*
X594302Y532791D01*
X593344Y530480D01*
X593018Y528000D01*
X593344Y525520D01*
X594302Y523209D01*
X595825Y521225D01*
X597809Y519702D01*
X600120Y518745D01*
X602600Y518418D01*
X605080Y518745D01*
X607391Y519702D01*
X609375Y521225D01*
X610898Y523209D01*
X611855Y525520D01*
X612182Y528000D01*
X611855Y530480D01*
X610898Y532791D01*
X609375Y534776D01*
X607391Y536298D01*
X605080Y537256D01*
X602600Y537582D01*
D02*
G37*
G36*
X577200D02*
X574720Y537256D01*
X572409Y536298D01*
X570424Y534776D01*
X568902Y532791D01*
X567944Y530480D01*
X567618Y528000D01*
X567944Y525520D01*
X568902Y523209D01*
X570424Y521225D01*
X572409Y519702D01*
X574720Y518745D01*
X577200Y518418D01*
X579680Y518745D01*
X581991Y519702D01*
X583975Y521225D01*
X585498Y523209D01*
X586455Y525520D01*
X586782Y528000D01*
X586455Y530480D01*
X585498Y532791D01*
X583975Y534776D01*
X581991Y536298D01*
X579680Y537256D01*
X577200Y537582D01*
D02*
G37*
G36*
X531690Y531514D02*
X529602Y531239D01*
X527655Y530433D01*
X525984Y529151D01*
X524702Y527480D01*
X523896Y525533D01*
X523621Y523445D01*
X523896Y521357D01*
X524702Y519411D01*
X525984Y517739D01*
X527655Y516457D01*
X529602Y515651D01*
X531690Y515376D01*
X533778Y515651D01*
X535724Y516457D01*
X537396Y517739D01*
X538678Y519411D01*
X539484Y521357D01*
X539759Y523445D01*
X539484Y525533D01*
X538678Y527480D01*
X537396Y529151D01*
X535724Y530433D01*
X533778Y531239D01*
X531690Y531514D01*
D02*
G37*
G36*
X412310D02*
X410222Y531239D01*
X408275Y530433D01*
X406604Y529151D01*
X405322Y527480D01*
X404516Y525533D01*
X404241Y523445D01*
X404516Y521357D01*
X405322Y519411D01*
X406604Y517739D01*
X408275Y516457D01*
X410222Y515651D01*
X412310Y515376D01*
X414398Y515651D01*
X416344Y516457D01*
X418016Y517739D01*
X419298Y519411D01*
X420104Y521357D01*
X420379Y523445D01*
X420104Y525533D01*
X419298Y527480D01*
X418016Y529151D01*
X416344Y530433D01*
X414398Y531239D01*
X412310Y531514D01*
D02*
G37*
G36*
X383000Y517333D02*
X381342Y517003D01*
X379936Y516064D01*
X378997Y514658D01*
X378667Y513000D01*
X378997Y511342D01*
X379936Y509936D01*
X381342Y508997D01*
X383000Y508667D01*
X384658Y508997D01*
X386064Y509936D01*
X387003Y511342D01*
X387333Y513000D01*
X387003Y514658D01*
X386064Y516064D01*
X384658Y517003D01*
X383000Y517333D01*
D02*
G37*
G36*
X350000Y516333D02*
X348342Y516003D01*
X346936Y515064D01*
X345997Y513658D01*
X345667Y512000D01*
X345997Y510342D01*
X346936Y508936D01*
X348342Y507997D01*
X350000Y507667D01*
X351658Y507997D01*
X353064Y508936D01*
X354003Y510342D01*
X354333Y512000D01*
X354003Y513658D01*
X353064Y515064D01*
X351658Y516003D01*
X350000Y516333D01*
D02*
G37*
G36*
X337000Y515588D02*
X335244Y515239D01*
X333756Y514244D01*
X332761Y512756D01*
X332412Y511000D01*
X332761Y509244D01*
X333756Y507756D01*
X335244Y506761D01*
X337000Y506412D01*
X338756Y506761D01*
X340244Y507756D01*
X341239Y509244D01*
X341588Y511000D01*
X341239Y512756D01*
X340244Y514244D01*
X338756Y515239D01*
X337000Y515588D01*
D02*
G37*
G36*
X314000Y514588D02*
X312244Y514239D01*
X310756Y513244D01*
X309761Y511756D01*
X309412Y510000D01*
X309761Y508244D01*
X310756Y506756D01*
X312244Y505761D01*
X314000Y505412D01*
X315756Y505761D01*
X317244Y506756D01*
X318239Y508244D01*
X318588Y510000D01*
X318239Y511756D01*
X317244Y513244D01*
X315756Y514239D01*
X314000Y514588D01*
D02*
G37*
G36*
X502000Y526659D02*
X498867Y526246D01*
X495948Y525037D01*
X493442Y523114D01*
X491518Y520607D01*
X490309Y517688D01*
X489896Y514555D01*
X490309Y511422D01*
X491518Y508503D01*
X493442Y505997D01*
X495948Y504073D01*
X498867Y502864D01*
X502000Y502451D01*
X505133Y502864D01*
X508052Y504073D01*
X510559Y505997D01*
X512482Y508503D01*
X513691Y511422D01*
X514104Y514555D01*
X513691Y517688D01*
X512482Y520607D01*
X510559Y523114D01*
X508052Y525037D01*
X505133Y526246D01*
X502000Y526659D01*
D02*
G37*
G36*
X472000D02*
X468867Y526246D01*
X465948Y525037D01*
X463442Y523114D01*
X461518Y520607D01*
X460309Y517688D01*
X459896Y514555D01*
X460309Y511422D01*
X461518Y508503D01*
X463442Y505997D01*
X465948Y504073D01*
X468867Y502864D01*
X472000Y502451D01*
X475133Y502864D01*
X478052Y504073D01*
X480559Y505997D01*
X482482Y508503D01*
X483691Y511422D01*
X484104Y514555D01*
X483691Y517688D01*
X482482Y520607D01*
X480559Y523114D01*
X478052Y525037D01*
X475133Y526246D01*
X472000Y526659D01*
D02*
G37*
G36*
X442000D02*
X438867Y526246D01*
X435948Y525037D01*
X433442Y523114D01*
X431518Y520607D01*
X430309Y517688D01*
X429896Y514555D01*
X430309Y511422D01*
X431518Y508503D01*
X433442Y505997D01*
X435948Y504073D01*
X438867Y502864D01*
X442000Y502451D01*
X445133Y502864D01*
X448052Y504073D01*
X450559Y505997D01*
X452482Y508503D01*
X453691Y511422D01*
X454104Y514555D01*
X453691Y517688D01*
X452482Y520607D01*
X450559Y523114D01*
X448052Y525037D01*
X445133Y526246D01*
X442000Y526659D01*
D02*
G37*
G36*
X303000Y509333D02*
X301342Y509003D01*
X299936Y508064D01*
X298997Y506658D01*
X298667Y505000D01*
X298997Y503342D01*
X299936Y501936D01*
X301342Y500997D01*
X303000Y500667D01*
X304658Y500997D01*
X306064Y501936D01*
X307003Y503342D01*
X307333Y505000D01*
X307003Y506658D01*
X306064Y508064D01*
X304658Y509003D01*
X303000Y509333D01*
D02*
G37*
G36*
X131000D02*
X129342Y509003D01*
X127936Y508064D01*
X126997Y506658D01*
X126667Y505000D01*
X126997Y503342D01*
X127936Y501936D01*
X129342Y500997D01*
X131000Y500667D01*
X132658Y500997D01*
X134064Y501936D01*
X135003Y503342D01*
X135333Y505000D01*
X135003Y506658D01*
X134064Y508064D01*
X132658Y509003D01*
X131000Y509333D01*
D02*
G37*
G36*
X276000Y508333D02*
X274342Y508003D01*
X272936Y507064D01*
X271997Y505658D01*
X271667Y504000D01*
X271997Y502342D01*
X272936Y500936D01*
X274342Y499997D01*
X276000Y499667D01*
X277658Y499997D01*
X279064Y500936D01*
X280003Y502342D01*
X280333Y504000D01*
X280003Y505658D01*
X279064Y507064D01*
X277658Y508003D01*
X276000Y508333D01*
D02*
G37*
G36*
X625000Y504588D02*
X623244Y504239D01*
X621756Y503244D01*
X620761Y501756D01*
X620412Y500000D01*
X620761Y498244D01*
X621756Y496756D01*
X623244Y495761D01*
X625000Y495412D01*
X626756Y495761D01*
X628244Y496756D01*
X629239Y498244D01*
X629588Y500000D01*
X629239Y501756D01*
X628244Y503244D01*
X626756Y504239D01*
X625000Y504588D01*
D02*
G37*
G36*
X525000D02*
X523244Y504239D01*
X521756Y503244D01*
X520761Y501756D01*
X520412Y500000D01*
X520761Y498244D01*
X521756Y496756D01*
X523244Y495761D01*
X525000Y495412D01*
X526756Y495761D01*
X528244Y496756D01*
X529239Y498244D01*
X529588Y500000D01*
X529239Y501756D01*
X528244Y503244D01*
X526756Y504239D01*
X525000Y504588D01*
D02*
G37*
G36*
X425000D02*
X423244Y504239D01*
X421756Y503244D01*
X420761Y501756D01*
X420412Y500000D01*
X420761Y498244D01*
X421756Y496756D01*
X423244Y495761D01*
X425000Y495412D01*
X426756Y495761D01*
X428244Y496756D01*
X429239Y498244D01*
X429588Y500000D01*
X429239Y501756D01*
X428244Y503244D01*
X426756Y504239D01*
X425000Y504588D01*
D02*
G37*
G36*
X225000D02*
X223244Y504239D01*
X221756Y503244D01*
X220761Y501756D01*
X220412Y500000D01*
X220761Y498244D01*
X221756Y496756D01*
X223244Y495761D01*
X225000Y495412D01*
X226756Y495761D01*
X228244Y496756D01*
X229239Y498244D01*
X229588Y500000D01*
X229239Y501756D01*
X228244Y503244D01*
X226756Y504239D01*
X225000Y504588D01*
D02*
G37*
G36*
X329000Y494333D02*
X327342Y494003D01*
X325936Y493064D01*
X324997Y491658D01*
X324667Y490000D01*
X324997Y488342D01*
X325936Y486936D01*
X327342Y485997D01*
X329000Y485667D01*
X330658Y485997D01*
X332064Y486936D01*
X333003Y488342D01*
X333333Y490000D01*
X333003Y491658D01*
X332064Y493064D01*
X330658Y494003D01*
X329000Y494333D01*
D02*
G37*
G36*
X361000Y485333D02*
X359342Y485003D01*
X357936Y484064D01*
X356997Y482658D01*
X356667Y481000D01*
X356997Y479342D01*
X357936Y477936D01*
X359342Y476997D01*
X361000Y476667D01*
X362658Y476997D01*
X364064Y477936D01*
X365003Y479342D01*
X365333Y481000D01*
X365003Y482658D01*
X364064Y484064D01*
X362658Y485003D01*
X361000Y485333D01*
D02*
G37*
G36*
X507000Y496615D02*
X497000D01*
X495173Y496375D01*
X493470Y495670D01*
X492007Y494548D01*
X490886Y493085D01*
X490180Y491382D01*
X489940Y489555D01*
Y479555D01*
X490180Y477728D01*
X490886Y476025D01*
X492007Y474563D01*
X493470Y473441D01*
X495173Y472735D01*
X497000Y472495D01*
X507000D01*
X508827Y472735D01*
X510530Y473441D01*
X511992Y474563D01*
X513115Y476025D01*
X513820Y477728D01*
X514060Y479555D01*
Y489555D01*
X513820Y491382D01*
X513115Y493085D01*
X511992Y494548D01*
X510530Y495670D01*
X508827Y496375D01*
X507000Y496615D01*
D02*
G37*
G36*
X472000Y496659D02*
X468867Y496246D01*
X465948Y495037D01*
X463442Y493114D01*
X461518Y490607D01*
X460309Y487688D01*
X459896Y484555D01*
X460309Y481422D01*
X461518Y478503D01*
X463442Y475997D01*
X465948Y474073D01*
X468867Y472864D01*
X472000Y472452D01*
X475133Y472864D01*
X478052Y474073D01*
X480559Y475997D01*
X482482Y478503D01*
X483691Y481422D01*
X484104Y484555D01*
X483691Y487688D01*
X482482Y490607D01*
X480559Y493114D01*
X478052Y495037D01*
X475133Y496246D01*
X472000Y496659D01*
D02*
G37*
G36*
X442000D02*
X438867Y496246D01*
X435948Y495037D01*
X433442Y493114D01*
X431518Y490607D01*
X430309Y487688D01*
X429896Y484555D01*
X430309Y481422D01*
X431518Y478503D01*
X433442Y475997D01*
X435948Y474073D01*
X438867Y472864D01*
X442000Y472452D01*
X445133Y472864D01*
X448052Y474073D01*
X450559Y475997D01*
X452482Y478503D01*
X453691Y481422D01*
X454104Y484555D01*
X453691Y487688D01*
X452482Y490607D01*
X450559Y493114D01*
X448052Y495037D01*
X445133Y496246D01*
X442000Y496659D01*
D02*
G37*
G36*
X390000Y480333D02*
X388342Y480003D01*
X386936Y479064D01*
X385997Y477658D01*
X385667Y476000D01*
X385997Y474342D01*
X386936Y472936D01*
X388342Y471997D01*
X390000Y471667D01*
X391658Y471997D01*
X393064Y472936D01*
X394003Y474342D01*
X394333Y476000D01*
X394003Y477658D01*
X393064Y479064D01*
X391658Y480003D01*
X390000Y480333D01*
D02*
G37*
G36*
X199000Y476333D02*
X197342Y476003D01*
X195936Y475064D01*
X194997Y473658D01*
X194667Y472000D01*
X194997Y470342D01*
X195936Y468936D01*
X197342Y467997D01*
X199000Y467667D01*
X200658Y467997D01*
X202064Y468936D01*
X203003Y470342D01*
X203333Y472000D01*
X203003Y473658D01*
X202064Y475064D01*
X200658Y476003D01*
X199000Y476333D01*
D02*
G37*
G36*
X374000Y473333D02*
X372342Y473003D01*
X370936Y472064D01*
X369997Y470658D01*
X369667Y469000D01*
X369997Y467342D01*
X370936Y465936D01*
X372342Y464997D01*
X374000Y464667D01*
X375658Y464997D01*
X377064Y465936D01*
X378003Y467342D01*
X378333Y469000D01*
X378003Y470658D01*
X377064Y472064D01*
X375658Y473003D01*
X374000Y473333D01*
D02*
G37*
G36*
X700000Y537114D02*
X694194Y536657D01*
X688531Y535298D01*
X683150Y533069D01*
X678185Y530026D01*
X673756Y526244D01*
X669974Y521815D01*
X666931Y516850D01*
X664702Y511469D01*
X663343Y505806D01*
X662886Y500000D01*
X663343Y494194D01*
X664702Y488531D01*
X666931Y483150D01*
X669974Y478185D01*
X673756Y473756D01*
X678185Y469974D01*
X683150Y466931D01*
X688531Y464702D01*
X694194Y463343D01*
X700000Y462886D01*
X705806Y463343D01*
X711469Y464702D01*
X716850Y466931D01*
X721815Y469974D01*
X726244Y473756D01*
X730026Y478185D01*
X733069Y483150D01*
X735298Y488531D01*
X736657Y494194D01*
X737114Y500000D01*
X736657Y505806D01*
X735298Y511469D01*
X733069Y516850D01*
X730026Y521815D01*
X726244Y526244D01*
X721815Y530026D01*
X716850Y533069D01*
X711469Y535298D01*
X705806Y536657D01*
X700000Y537114D01*
D02*
G37*
G36*
X50000Y537114D02*
X44194Y536657D01*
X38531Y535298D01*
X33150Y533069D01*
X28185Y530026D01*
X23756Y526244D01*
X19974Y521815D01*
X16931Y516850D01*
X14702Y511469D01*
X13342Y505806D01*
X12886Y500000D01*
X13342Y494194D01*
X14702Y488531D01*
X16931Y483150D01*
X19974Y478185D01*
X23756Y473756D01*
X28185Y469974D01*
X33150Y466931D01*
X38531Y464702D01*
X44194Y463343D01*
X50000Y462886D01*
X55806Y463343D01*
X61469Y464702D01*
X66850Y466931D01*
X71815Y469974D01*
X76244Y473756D01*
X80026Y478185D01*
X83069Y483150D01*
X85298Y488531D01*
X86657Y494194D01*
X87114Y500000D01*
X86657Y505806D01*
X85298Y511469D01*
X83069Y516850D01*
X80026Y521815D01*
X76244Y526244D01*
X71815Y530026D01*
X66850Y533069D01*
X61469Y535298D01*
X55806Y536657D01*
X50000Y537114D01*
D02*
G37*
G36*
X434000Y471588D02*
X432244Y471239D01*
X430756Y470244D01*
X429761Y468756D01*
X429412Y467000D01*
X429761Y465244D01*
X430756Y463756D01*
X432244Y462761D01*
X434000Y462412D01*
X435756Y462761D01*
X437244Y463756D01*
X438239Y465244D01*
X438588Y467000D01*
X438239Y468756D01*
X437244Y470244D01*
X435756Y471239D01*
X434000Y471588D01*
D02*
G37*
G36*
X266000Y469333D02*
X264342Y469003D01*
X262936Y468064D01*
X261997Y466658D01*
X261667Y465000D01*
X261997Y463342D01*
X262936Y461936D01*
X264342Y460997D01*
X266000Y460667D01*
X267658Y460997D01*
X269064Y461936D01*
X270003Y463342D01*
X270333Y465000D01*
X270003Y466658D01*
X269064Y468064D01*
X267658Y469003D01*
X266000Y469333D01*
D02*
G37*
G36*
X456000Y468588D02*
X454244Y468239D01*
X452756Y467244D01*
X451761Y465756D01*
X451412Y464000D01*
X451761Y462244D01*
X452756Y460756D01*
X454244Y459761D01*
X456000Y459412D01*
X457756Y459761D01*
X459244Y460756D01*
X460239Y462244D01*
X460588Y464000D01*
X460239Y465756D01*
X459244Y467244D01*
X457756Y468239D01*
X456000Y468588D01*
D02*
G37*
G36*
X293000Y466583D02*
X291342Y466253D01*
X289936Y465314D01*
X288997Y463908D01*
X288667Y462250D01*
X288997Y460592D01*
X289936Y459186D01*
X291342Y458247D01*
X293000Y457917D01*
X294658Y458247D01*
X296064Y459186D01*
X297003Y460592D01*
X297333Y462250D01*
X297003Y463908D01*
X296064Y465314D01*
X294658Y466253D01*
X293000Y466583D01*
D02*
G37*
G36*
X283000D02*
X281342Y466253D01*
X279936Y465314D01*
X278997Y463908D01*
X278667Y462250D01*
X278997Y460592D01*
X279936Y459186D01*
X281342Y458247D01*
X283000Y457917D01*
X284658Y458247D01*
X286064Y459186D01*
X287003Y460592D01*
X287333Y462250D01*
X287003Y463908D01*
X286064Y465314D01*
X284658Y466253D01*
X283000Y466583D01*
D02*
G37*
G36*
X361500Y465333D02*
X359842Y465003D01*
X358436Y464064D01*
X357497Y462658D01*
X357167Y461000D01*
X357497Y459342D01*
X358436Y457936D01*
X359842Y456997D01*
X361500Y456667D01*
X363158Y456997D01*
X364564Y457936D01*
X365503Y459342D01*
X365833Y461000D01*
X365503Y462658D01*
X364564Y464064D01*
X363158Y465003D01*
X361500Y465333D01*
D02*
G37*
G36*
X82000Y464333D02*
X80342Y464003D01*
X78936Y463064D01*
X77997Y461658D01*
X77667Y460000D01*
X77997Y458342D01*
X78936Y456936D01*
X80342Y455997D01*
X82000Y455667D01*
X83658Y455997D01*
X85064Y456936D01*
X86003Y458342D01*
X86333Y460000D01*
X86003Y461658D01*
X85064Y463064D01*
X83658Y464003D01*
X82000Y464333D01*
D02*
G37*
G36*
X329000Y464333D02*
X327342Y464003D01*
X325936Y463064D01*
X324997Y461658D01*
X324667Y460000D01*
X324997Y458342D01*
X325936Y456936D01*
X327342Y455997D01*
X329000Y455667D01*
X330658Y455997D01*
X332064Y456936D01*
X333003Y458342D01*
X333333Y460000D01*
X333003Y461658D01*
X332064Y463064D01*
X330658Y464003D01*
X329000Y464333D01*
D02*
G37*
G36*
X424000Y460588D02*
X422244Y460239D01*
X420756Y459244D01*
X419761Y457756D01*
X419412Y456000D01*
X419761Y454244D01*
X420756Y452756D01*
X422244Y451761D01*
X424000Y451412D01*
X425756Y451761D01*
X427244Y452756D01*
X428239Y454244D01*
X428588Y456000D01*
X428239Y457756D01*
X427244Y459244D01*
X425756Y460239D01*
X424000Y460588D01*
D02*
G37*
G36*
X393250Y459333D02*
X391592Y459003D01*
X390186Y458064D01*
X389247Y456658D01*
X388917Y455000D01*
X389247Y453342D01*
X390186Y451936D01*
X391592Y450997D01*
X393250Y450667D01*
X394908Y450997D01*
X396314Y451936D01*
X397253Y453342D01*
X397583Y455000D01*
X397253Y456658D01*
X396314Y458064D01*
X394908Y459003D01*
X393250Y459333D01*
D02*
G37*
G36*
X445844Y457708D02*
X444089Y457359D01*
X442600Y456365D01*
X441606Y454876D01*
X441256Y453120D01*
X441606Y451364D01*
X442600Y449876D01*
X444089Y448881D01*
X445844Y448532D01*
X447600Y448881D01*
X449089Y449876D01*
X450083Y451364D01*
X450433Y453120D01*
X450083Y454876D01*
X449089Y456365D01*
X447600Y457359D01*
X445844Y457708D01*
D02*
G37*
G36*
X353000Y456588D02*
X351244Y456239D01*
X349756Y455244D01*
X348761Y453756D01*
X348412Y452000D01*
X348761Y450244D01*
X349756Y448756D01*
X351244Y447761D01*
X353000Y447412D01*
X354756Y447761D01*
X356244Y448756D01*
X357239Y450244D01*
X357588Y452000D01*
X357239Y453756D01*
X356244Y455244D01*
X354756Y456239D01*
X353000Y456588D01*
D02*
G37*
G36*
X313000Y455588D02*
X311244Y455239D01*
X309756Y454244D01*
X308761Y452756D01*
X308412Y451000D01*
X308761Y449244D01*
X309756Y447756D01*
X311244Y446761D01*
X313000Y446412D01*
X314756Y446761D01*
X316244Y447756D01*
X317239Y449244D01*
X317588Y451000D01*
X317239Y452756D01*
X316244Y454244D01*
X314756Y455239D01*
X313000Y455588D01*
D02*
G37*
G36*
X700000Y454588D02*
X698244Y454239D01*
X696756Y453244D01*
X695761Y451756D01*
X695412Y450000D01*
X695761Y448244D01*
X696756Y446756D01*
X698244Y445761D01*
X700000Y445412D01*
X701756Y445761D01*
X703244Y446756D01*
X704239Y448244D01*
X704588Y450000D01*
X704239Y451756D01*
X703244Y453244D01*
X701756Y454239D01*
X700000Y454588D01*
D02*
G37*
G36*
X50000D02*
X48244Y454239D01*
X46756Y453244D01*
X45761Y451756D01*
X45412Y450000D01*
X45761Y448244D01*
X46756Y446756D01*
X48244Y445761D01*
X50000Y445412D01*
X51756Y445761D01*
X53244Y446756D01*
X54239Y448244D01*
X54588Y450000D01*
X54239Y451756D01*
X53244Y453244D01*
X51756Y454239D01*
X50000Y454588D01*
D02*
G37*
G36*
X266000Y452333D02*
X264342Y452003D01*
X262936Y451064D01*
X261997Y449658D01*
X261667Y448000D01*
X261997Y446342D01*
X262936Y444936D01*
X264342Y443997D01*
X266000Y443667D01*
X267658Y443997D01*
X269064Y444936D01*
X270003Y446342D01*
X270333Y448000D01*
X270003Y449658D01*
X269064Y451064D01*
X267658Y452003D01*
X266000Y452333D01*
D02*
G37*
G36*
X611000Y447833D02*
X609342Y447503D01*
X607936Y446564D01*
X606997Y445158D01*
X606667Y443500D01*
X606997Y441842D01*
X607936Y440436D01*
X609342Y439497D01*
X611000Y439167D01*
X612658Y439497D01*
X614064Y440436D01*
X615003Y441842D01*
X615333Y443500D01*
X615003Y445158D01*
X614064Y446564D01*
X612658Y447503D01*
X611000Y447833D01*
D02*
G37*
G36*
X586000Y447333D02*
X584342Y447003D01*
X582936Y446064D01*
X581997Y444658D01*
X581667Y443000D01*
X581997Y441342D01*
X582936Y439936D01*
X584342Y438997D01*
X586000Y438667D01*
X587658Y438997D01*
X589064Y439936D01*
X590003Y441342D01*
X590333Y443000D01*
X590003Y444658D01*
X589064Y446064D01*
X587658Y447003D01*
X586000Y447333D01*
D02*
G37*
G36*
X485000D02*
X483342Y447003D01*
X481936Y446064D01*
X480997Y444658D01*
X480667Y443000D01*
X480997Y441342D01*
X481936Y439936D01*
X483342Y438997D01*
X485000Y438667D01*
X486658Y438997D01*
X488064Y439936D01*
X489003Y441342D01*
X489333Y443000D01*
X489003Y444658D01*
X488064Y446064D01*
X486658Y447003D01*
X485000Y447333D01*
D02*
G37*
G36*
X734000Y447118D02*
X726000D01*
X723659Y446652D01*
X721674Y445326D01*
X720348Y443341D01*
X719883Y441000D01*
Y433000D01*
X720348Y430659D01*
X721674Y428674D01*
X723659Y427348D01*
X726000Y426883D01*
X734000D01*
X736341Y427348D01*
X738326Y428674D01*
X739652Y430659D01*
X740117Y433000D01*
Y441000D01*
X739652Y443341D01*
X738326Y445326D01*
X736341Y446652D01*
X734000Y447118D01*
D02*
G37*
G36*
X26000Y434583D02*
X24342Y434253D01*
X22936Y433314D01*
X21997Y431908D01*
X21667Y430250D01*
X21997Y428592D01*
X22936Y427186D01*
X24342Y426247D01*
X26000Y425917D01*
X27658Y426247D01*
X29064Y427186D01*
X30003Y428592D01*
X30333Y430250D01*
X30003Y431908D01*
X29064Y433314D01*
X27658Y434253D01*
X26000Y434583D01*
D02*
G37*
G36*
X382000Y420333D02*
X380342Y420003D01*
X378936Y419064D01*
X377997Y417658D01*
X377667Y416000D01*
X377997Y414342D01*
X378936Y412936D01*
X380342Y411997D01*
X382000Y411667D01*
X383658Y411997D01*
X385064Y412936D01*
X386003Y414342D01*
X386333Y416000D01*
X386003Y417658D01*
X385064Y419064D01*
X383658Y420003D01*
X382000Y420333D01*
D02*
G37*
G36*
X394000Y419333D02*
X392342Y419003D01*
X390936Y418064D01*
X389997Y416658D01*
X389667Y415000D01*
X389997Y413342D01*
X390936Y411936D01*
X392342Y410997D01*
X394000Y410667D01*
X395658Y410997D01*
X397064Y411936D01*
X398003Y413342D01*
X398333Y415000D01*
X398003Y416658D01*
X397064Y418064D01*
X395658Y419003D01*
X394000Y419333D01*
D02*
G37*
G36*
X79000Y446098D02*
X77049Y445710D01*
X75395Y444605D01*
X74290Y442951D01*
X73902Y441000D01*
Y400085D01*
X72632Y399158D01*
X71750Y399333D01*
X70092Y399003D01*
X68686Y398064D01*
X67747Y396658D01*
X67417Y395000D01*
X67747Y393342D01*
X68686Y391936D01*
X70092Y390997D01*
X71750Y390667D01*
X72632Y390842D01*
X73902Y389915D01*
Y385000D01*
X73962Y384698D01*
X74232Y382650D01*
X75139Y380461D01*
X76581Y378581D01*
X78461Y377138D01*
X80651Y376232D01*
X83000Y375922D01*
Y375902D01*
X84951Y376290D01*
X86605Y377395D01*
X87710Y379049D01*
X88098Y381000D01*
X87710Y382951D01*
X86605Y384605D01*
X84951Y385710D01*
X84098Y385880D01*
Y422979D01*
X85187Y423632D01*
X85694Y423361D01*
X89275Y422275D01*
X92940Y421914D01*
X93000Y421902D01*
X327078D01*
X327647Y420632D01*
X326997Y419658D01*
X326667Y418000D01*
X326997Y416342D01*
X327936Y414936D01*
X329342Y413997D01*
X331000Y413667D01*
X332658Y413997D01*
X334064Y414936D01*
X335003Y416342D01*
X335333Y418000D01*
X335003Y419658D01*
X334353Y420632D01*
X334922Y421902D01*
X340401D01*
X340786Y420632D01*
X339936Y420064D01*
X338997Y418658D01*
X338667Y417000D01*
X338997Y415342D01*
X339936Y413936D01*
X341342Y412997D01*
X343000Y412667D01*
X344658Y412997D01*
X346064Y413936D01*
X347003Y415342D01*
X347333Y417000D01*
X347003Y418658D01*
X346064Y420064D01*
X345214Y420632D01*
X345599Y421902D01*
X353401D01*
X353786Y420632D01*
X352936Y420064D01*
X351997Y418658D01*
X351667Y417000D01*
X351997Y415342D01*
X352936Y413936D01*
X354342Y412997D01*
X356000Y412667D01*
X357658Y412997D01*
X359064Y413936D01*
X360003Y415342D01*
X360333Y417000D01*
X360003Y418658D01*
X359064Y420064D01*
X358214Y420632D01*
X358599Y421902D01*
X400902D01*
Y420000D01*
X401290Y418049D01*
X402395Y416395D01*
X410795Y407995D01*
X412449Y406890D01*
X414400Y406502D01*
X567244D01*
X567776Y405349D01*
X566730Y404124D01*
X564230Y400044D01*
X562398Y395623D01*
X561282Y390970D01*
X560909Y386233D01*
X560902Y386200D01*
Y341000D01*
X561290Y339049D01*
X562395Y337395D01*
X564049Y336290D01*
X566000Y335902D01*
X567951Y336290D01*
X569605Y337395D01*
X570710Y339049D01*
X571098Y341000D01*
Y386200D01*
X571052Y386432D01*
X571420Y390174D01*
X572580Y393996D01*
X574462Y397518D01*
X576996Y400605D01*
X580082Y403138D01*
X583604Y405020D01*
X587426Y406180D01*
X590699Y406502D01*
X669531D01*
X669916Y405232D01*
X669827Y405173D01*
X668833Y403684D01*
X668484Y401928D01*
X668833Y400173D01*
X669827Y398684D01*
X671316Y397689D01*
X673072Y397340D01*
X674827Y397689D01*
X676316Y398684D01*
X677311Y400173D01*
X677660Y401928D01*
X677311Y403684D01*
X676316Y405173D01*
X676227Y405232D01*
X676612Y406502D01*
X721307D01*
X722868Y404468D01*
X724957Y402865D01*
X727390Y401857D01*
X730000Y401514D01*
X732610Y401857D01*
X735043Y402865D01*
X737132Y404468D01*
X738735Y406557D01*
X739743Y408989D01*
X740086Y411600D01*
X739743Y414211D01*
X738735Y416643D01*
X737132Y418732D01*
X735043Y420335D01*
X732610Y421343D01*
X730000Y421686D01*
X727390Y421343D01*
X724957Y420335D01*
X722868Y418732D01*
X721307Y416698D01*
X416512D01*
X411098Y422112D01*
Y427000D01*
X410710Y428951D01*
X409605Y430605D01*
X407951Y431710D01*
X406000Y432098D01*
X398015D01*
X397337Y433368D01*
X397820Y434092D01*
X398150Y435750D01*
X397820Y437408D01*
X396881Y438814D01*
X395475Y439753D01*
X393817Y440083D01*
X392158Y439753D01*
X390753Y438814D01*
X389813Y437408D01*
X389483Y435750D01*
X389813Y434092D01*
X390297Y433368D01*
X389618Y432098D01*
X379994D01*
X379636Y432770D01*
X379436Y433368D01*
X379733Y434862D01*
X379403Y436520D01*
X378464Y437926D01*
X377058Y438865D01*
X375400Y439195D01*
X373742Y438865D01*
X372336Y437926D01*
X371397Y436520D01*
X371067Y434862D01*
X371364Y433368D01*
X371165Y432770D01*
X370806Y432098D01*
X297578D01*
X297193Y433368D01*
X297236Y433397D01*
X298175Y434803D01*
X298505Y436461D01*
X298175Y438119D01*
X297236Y439525D01*
X295830Y440464D01*
X294172Y440794D01*
X292513Y440464D01*
X291108Y439525D01*
X290168Y438119D01*
X289838Y436461D01*
X290168Y434803D01*
X291108Y433397D01*
X291151Y433368D01*
X290765Y432098D01*
X285922D01*
X285353Y433368D01*
X286003Y434342D01*
X286333Y436000D01*
X286003Y437658D01*
X285064Y439064D01*
X283658Y440003D01*
X282000Y440333D01*
X280342Y440003D01*
X278936Y439064D01*
X277997Y437658D01*
X277667Y436000D01*
X277997Y434342D01*
X278647Y433368D01*
X278078Y432098D01*
X93000D01*
X92856Y432069D01*
X90684Y432355D01*
X88525Y433250D01*
X86672Y434672D01*
X85249Y436525D01*
X84355Y438684D01*
X84098Y440639D01*
Y441000D01*
X83710Y442951D01*
X82605Y444605D01*
X80951Y445710D01*
X79000Y446098D01*
D02*
G37*
G36*
X318000Y420098D02*
X316049Y419710D01*
X314395Y418605D01*
X313290Y416951D01*
X312902Y415000D01*
Y414000D01*
X313290Y412049D01*
X314395Y410395D01*
X322395Y402395D01*
X323617Y401579D01*
X323232Y400309D01*
X307224D01*
X306551Y401579D01*
X306833Y403000D01*
X306503Y404658D01*
X305564Y406064D01*
X304158Y407003D01*
X302500Y407333D01*
X300842Y407003D01*
X299436Y406064D01*
X298497Y404658D01*
X298167Y403000D01*
X298449Y401579D01*
X297776Y400309D01*
X191915D01*
X191530Y401579D01*
X192064Y401936D01*
X193003Y403342D01*
X193333Y405000D01*
X193003Y406658D01*
X192064Y408064D01*
X190658Y409003D01*
X189000Y409333D01*
X187342Y409003D01*
X185936Y408064D01*
X184997Y406658D01*
X184667Y405000D01*
X184997Y403342D01*
X185936Y401936D01*
X186471Y401579D01*
X186085Y400309D01*
X138017D01*
X133332Y404994D01*
X133333Y405000D01*
X133003Y406658D01*
X132064Y408064D01*
X130658Y409003D01*
X129000Y409333D01*
X127342Y409003D01*
X125936Y408064D01*
X124997Y406658D01*
X124667Y405000D01*
X124997Y403342D01*
X125936Y401936D01*
X127342Y400997D01*
X129000Y400667D01*
X129006Y400668D01*
X134587Y395087D01*
X135580Y394424D01*
X136750Y394191D01*
X136750Y394191D01*
X177942D01*
X178850Y392921D01*
X178667Y392000D01*
X178997Y390342D01*
X179936Y388936D01*
X181342Y387997D01*
X183000Y387667D01*
X184658Y387997D01*
X186064Y388936D01*
X187003Y390342D01*
X187333Y392000D01*
X187150Y392921D01*
X188058Y394191D01*
X326483D01*
X378668Y342006D01*
X378667Y342000D01*
X378997Y340342D01*
X379936Y338936D01*
X381342Y337997D01*
X383000Y337667D01*
X384658Y337997D01*
X386064Y338936D01*
X387003Y340342D01*
X387333Y342000D01*
X387003Y343658D01*
X386064Y345064D01*
X384658Y346003D01*
X383000Y346333D01*
X382994Y346332D01*
X329913Y399413D01*
X329585Y399632D01*
X329970Y400902D01*
X371000D01*
X371226Y400947D01*
X374896Y400586D01*
X378642Y399449D01*
X382094Y397604D01*
X385120Y395120D01*
X387604Y392094D01*
X389449Y388642D01*
X390586Y384896D01*
X390947Y381226D01*
X390902Y381000D01*
Y363400D01*
X390909Y363367D01*
X391281Y358630D01*
X392398Y353977D01*
X394230Y349556D01*
X396730Y345476D01*
X399837Y341838D01*
X403476Y338730D01*
X407556Y336230D01*
X411977Y334398D01*
X416630Y333282D01*
X421367Y332909D01*
X421400Y332902D01*
X494600D01*
X494832Y332948D01*
X498574Y332580D01*
X502396Y331420D01*
X505918Y329538D01*
X509005Y327005D01*
X511538Y323918D01*
X513420Y320396D01*
X514580Y316574D01*
X514948Y312832D01*
X514902Y312600D01*
Y307000D01*
X515290Y305049D01*
X516395Y303395D01*
X518049Y302290D01*
X520000Y301902D01*
X641600D01*
X641633Y301909D01*
X646370Y302281D01*
X651023Y303398D01*
X655444Y305230D01*
X659524Y307730D01*
X663163Y310837D01*
X666270Y314476D01*
X668770Y318556D01*
X670602Y322977D01*
X671719Y327630D01*
X672091Y332367D01*
X672098Y332400D01*
Y385000D01*
X671710Y386951D01*
X670605Y388605D01*
X668951Y389710D01*
X667000Y390098D01*
X665049Y389710D01*
X663395Y388605D01*
X662290Y386951D01*
X661902Y385000D01*
Y332400D01*
X661948Y332168D01*
X661580Y328426D01*
X660420Y324604D01*
X658538Y321082D01*
X656005Y317995D01*
X652918Y315462D01*
X649396Y313580D01*
X645574Y312420D01*
X641832Y312052D01*
X641600Y312098D01*
X525098D01*
Y312600D01*
X525091Y312633D01*
X524719Y317370D01*
X523601Y322023D01*
X521770Y326444D01*
X519270Y330524D01*
X516162Y334162D01*
X512524Y337270D01*
X508444Y339770D01*
X504023Y341601D01*
X499370Y342719D01*
X494633Y343091D01*
X494600Y343098D01*
X421400D01*
X421168Y343052D01*
X417426Y343420D01*
X413604Y344580D01*
X410082Y346462D01*
X406996Y348996D01*
X404462Y352082D01*
X402580Y355604D01*
X401420Y359426D01*
X401052Y363168D01*
X401098Y363400D01*
Y381000D01*
X401089Y381043D01*
X400722Y385708D01*
X399620Y390299D01*
X397813Y394662D01*
X395345Y398688D01*
X392279Y402279D01*
X388688Y405345D01*
X384662Y407813D01*
X380299Y409620D01*
X375708Y410722D01*
X373362Y410907D01*
X372808Y412049D01*
X373003Y412342D01*
X373333Y414000D01*
X373003Y415658D01*
X372064Y417064D01*
X370658Y418003D01*
X369000Y418333D01*
X367342Y418003D01*
X365936Y417064D01*
X364997Y415658D01*
X364667Y414000D01*
X364991Y412368D01*
X365036Y412138D01*
X364315Y411098D01*
X328112D01*
X322822Y416388D01*
X322710Y416951D01*
X321605Y418605D01*
X319951Y419710D01*
X318000Y420098D01*
D02*
G37*
G36*
X691000Y405100D02*
X689342Y404770D01*
X687936Y403831D01*
X686997Y402425D01*
X686667Y400767D01*
X686997Y399109D01*
X687936Y397703D01*
X689342Y396763D01*
X691000Y396433D01*
X692658Y396763D01*
X694064Y397703D01*
X695003Y399109D01*
X695333Y400767D01*
X695003Y402425D01*
X694064Y403831D01*
X692658Y404770D01*
X691000Y405100D01*
D02*
G37*
G36*
X625000Y404588D02*
X623244Y404239D01*
X621756Y403244D01*
X620761Y401756D01*
X620412Y400000D01*
X620761Y398244D01*
X621756Y396756D01*
X623244Y395761D01*
X625000Y395412D01*
X626756Y395761D01*
X628244Y396756D01*
X629239Y398244D01*
X629588Y400000D01*
X629239Y401756D01*
X628244Y403244D01*
X626756Y404239D01*
X625000Y404588D01*
D02*
G37*
G36*
X425000D02*
X423244Y404239D01*
X421756Y403244D01*
X420761Y401756D01*
X420412Y400000D01*
X420761Y398244D01*
X421756Y396756D01*
X423244Y395761D01*
X425000Y395412D01*
X426756Y395761D01*
X428244Y396756D01*
X429239Y398244D01*
X429588Y400000D01*
X429239Y401756D01*
X428244Y403244D01*
X426756Y404239D01*
X425000Y404588D01*
D02*
G37*
G36*
X632000Y394833D02*
X630342Y394503D01*
X628936Y393564D01*
X627997Y392158D01*
X627667Y390500D01*
X627997Y388842D01*
X628936Y387436D01*
X630342Y386497D01*
X632000Y386167D01*
X633658Y386497D01*
X635064Y387436D01*
X636003Y388842D01*
X636333Y390500D01*
X636003Y392158D01*
X635064Y393564D01*
X633658Y394503D01*
X632000Y394833D01*
D02*
G37*
G36*
X50000Y394333D02*
X48342Y394003D01*
X46936Y393064D01*
X45997Y391658D01*
X45667Y390000D01*
X45997Y388342D01*
X46936Y386936D01*
X48342Y385997D01*
X50000Y385667D01*
X51658Y385997D01*
X53064Y386936D01*
X54003Y388342D01*
X54333Y390000D01*
X54003Y391658D01*
X53064Y393064D01*
X51658Y394003D01*
X50000Y394333D01*
D02*
G37*
G36*
X730000Y396286D02*
X727390Y395943D01*
X724957Y394935D01*
X722868Y393332D01*
X721265Y391243D01*
X720257Y388811D01*
X719914Y386200D01*
X720257Y383590D01*
X721265Y381157D01*
X722868Y379068D01*
X724957Y377465D01*
X727390Y376457D01*
X730000Y376114D01*
X732610Y376457D01*
X735043Y377465D01*
X737132Y379068D01*
X738735Y381157D01*
X739743Y383590D01*
X740086Y386200D01*
X739743Y388811D01*
X738735Y391243D01*
X737132Y393332D01*
X735043Y394935D01*
X732610Y395943D01*
X730000Y396286D01*
D02*
G37*
G36*
X247000Y372833D02*
X245342Y372503D01*
X243936Y371564D01*
X242997Y370158D01*
X242667Y368500D01*
X242850Y367579D01*
X241942Y366309D01*
X134992D01*
X134329Y366971D01*
X134003Y368608D01*
X133064Y370014D01*
X131658Y370953D01*
X130000Y371283D01*
X128342Y370953D01*
X126936Y370014D01*
X125997Y368608D01*
X125667Y366950D01*
X125997Y365292D01*
X126936Y363886D01*
X128342Y362947D01*
X130000Y362617D01*
X130027Y362622D01*
X131562Y361087D01*
X131562Y361087D01*
X132554Y360424D01*
X133725Y360191D01*
X331733D01*
X373200Y318724D01*
X372782Y317346D01*
X372244Y317239D01*
X370756Y316244D01*
X369761Y314756D01*
X369412Y313000D01*
X369761Y311244D01*
X370756Y309756D01*
X372244Y308761D01*
X374000Y308412D01*
X375756Y308761D01*
X377244Y309756D01*
X377931Y310783D01*
X378161Y310854D01*
X379413Y310258D01*
X379595Y309342D01*
X380535Y307936D01*
X381940Y306997D01*
X383599Y306667D01*
X385131Y306972D01*
X385483Y306574D01*
X385837Y305916D01*
X384997Y304658D01*
X384667Y303000D01*
X384836Y302148D01*
X383640Y301652D01*
X383244Y302244D01*
X381756Y303239D01*
X380000Y303588D01*
X378244Y303239D01*
X376756Y302244D01*
X375761Y300756D01*
X375412Y299000D01*
X375761Y297244D01*
X376756Y295756D01*
X378244Y294761D01*
X380000Y294412D01*
X381756Y294761D01*
X383244Y295756D01*
X384239Y297244D01*
X384588Y299000D01*
X384399Y299950D01*
X385596Y300445D01*
X385936Y299936D01*
X387342Y298997D01*
X389000Y298667D01*
X390658Y298997D01*
X392064Y299936D01*
X393003Y301342D01*
X393333Y303000D01*
X393003Y304658D01*
X392064Y306064D01*
X390658Y307003D01*
X389000Y307333D01*
X387467Y307028D01*
X387115Y307426D01*
X386762Y308084D01*
X387602Y309342D01*
X387932Y311000D01*
X387602Y312658D01*
X386663Y314064D01*
X385257Y315003D01*
X383885Y315276D01*
X383064Y316098D01*
Y316245D01*
X383064Y316245D01*
X382831Y317416D01*
X382168Y318408D01*
X382168Y318408D01*
X335163Y365413D01*
X334171Y366076D01*
X333000Y366309D01*
X333000Y366309D01*
X252058D01*
X251150Y367579D01*
X251333Y368500D01*
X251003Y370158D01*
X250064Y371564D01*
X248658Y372503D01*
X247000Y372833D01*
D02*
G37*
G36*
X262000Y354333D02*
X260342Y354003D01*
X258936Y353064D01*
X257997Y351658D01*
X257667Y350000D01*
X257997Y348342D01*
X258936Y346936D01*
X260342Y345997D01*
X262000Y345667D01*
X263658Y345997D01*
X265064Y346936D01*
X266003Y348342D01*
X266333Y350000D01*
X266003Y351658D01*
X265064Y353064D01*
X263658Y354003D01*
X262000Y354333D01*
D02*
G37*
G36*
X700000Y354588D02*
X698244Y354239D01*
X696756Y353244D01*
X695761Y351756D01*
X695412Y350000D01*
X695761Y348244D01*
X696756Y346756D01*
X698244Y345761D01*
X700000Y345412D01*
X701756Y345761D01*
X703244Y346756D01*
X704239Y348244D01*
X704588Y350000D01*
X704239Y351756D01*
X703244Y353244D01*
X701756Y354239D01*
X700000Y354588D01*
D02*
G37*
G36*
X500000D02*
X498244Y354239D01*
X496756Y353244D01*
X495761Y351756D01*
X495412Y350000D01*
X495761Y348244D01*
X496756Y346756D01*
X498244Y345761D01*
X500000Y345412D01*
X501756Y345761D01*
X503244Y346756D01*
X504239Y348244D01*
X504588Y350000D01*
X504239Y351756D01*
X503244Y353244D01*
X501756Y354239D01*
X500000Y354588D01*
D02*
G37*
G36*
X450000D02*
X448244Y354239D01*
X446756Y353244D01*
X445761Y351756D01*
X445412Y350000D01*
X445761Y348244D01*
X446756Y346756D01*
X448244Y345761D01*
X450000Y345412D01*
X451756Y345761D01*
X453244Y346756D01*
X454239Y348244D01*
X454588Y350000D01*
X454239Y351756D01*
X453244Y353244D01*
X451756Y354239D01*
X450000Y354588D01*
D02*
G37*
G36*
X200000D02*
X198244Y354239D01*
X196756Y353244D01*
X195761Y351756D01*
X195412Y350000D01*
X195761Y348244D01*
X196756Y346756D01*
X198244Y345761D01*
X200000Y345412D01*
X201756Y345761D01*
X203244Y346756D01*
X204239Y348244D01*
X204588Y350000D01*
X204239Y351756D01*
X203244Y353244D01*
X201756Y354239D01*
X200000Y354588D01*
D02*
G37*
G36*
X150000D02*
X148244Y354239D01*
X146756Y353244D01*
X145761Y351756D01*
X145412Y350000D01*
X145761Y348244D01*
X146756Y346756D01*
X148244Y345761D01*
X150000Y345412D01*
X151756Y345761D01*
X153244Y346756D01*
X154239Y348244D01*
X154588Y350000D01*
X154239Y351756D01*
X153244Y353244D01*
X151756Y354239D01*
X150000Y354588D01*
D02*
G37*
G36*
X520000Y350333D02*
X518342Y350003D01*
X516936Y349064D01*
X515997Y347658D01*
X515667Y346000D01*
X515997Y344342D01*
X516936Y342936D01*
X518342Y341997D01*
X520000Y341667D01*
X521658Y341997D01*
X523064Y342936D01*
X524003Y344342D01*
X524333Y346000D01*
X524003Y347658D01*
X523064Y349064D01*
X521658Y350003D01*
X520000Y350333D01*
D02*
G37*
G36*
X695500Y342358D02*
X693354Y341931D01*
X691535Y340715D01*
X690319Y338896D01*
X689892Y336750D01*
X690319Y334604D01*
X691535Y332785D01*
X693354Y331569D01*
X695500Y331142D01*
X697646Y331569D01*
X699465Y332785D01*
X700681Y334604D01*
X701108Y336750D01*
X700681Y338896D01*
X699465Y340715D01*
X697646Y341931D01*
X695500Y342358D01*
D02*
G37*
G36*
X52000Y335333D02*
X50342Y335003D01*
X48936Y334064D01*
X47997Y332658D01*
X47667Y331000D01*
X47997Y329342D01*
X48936Y327936D01*
X50342Y326997D01*
X52000Y326667D01*
X53658Y326997D01*
X55064Y327936D01*
X56003Y329342D01*
X56333Y331000D01*
X56003Y332658D01*
X55064Y334064D01*
X53658Y335003D01*
X52000Y335333D01*
D02*
G37*
G36*
X599000Y329083D02*
X597342Y328753D01*
X595936Y327814D01*
X594997Y326408D01*
X594667Y324750D01*
X594997Y323092D01*
X595936Y321686D01*
X597342Y320747D01*
X599000Y320417D01*
X600658Y320747D01*
X602064Y321686D01*
X603003Y323092D01*
X603333Y324750D01*
X603003Y326408D01*
X602064Y327814D01*
X600658Y328753D01*
X599000Y329083D01*
D02*
G37*
G36*
X361000Y315588D02*
X359244Y315239D01*
X357756Y314244D01*
X356761Y312756D01*
X356475Y311317D01*
X355613Y310772D01*
X355187Y310651D01*
X354658Y311003D01*
X353000Y311333D01*
X351342Y311003D01*
X349936Y310064D01*
X348997Y308658D01*
X348667Y307000D01*
X348801Y306326D01*
X348389Y305709D01*
X348156Y304538D01*
X348156Y304538D01*
Y303082D01*
X346886Y302157D01*
X346000Y302333D01*
X344522Y302039D01*
X344298Y302032D01*
X343183Y302756D01*
X343003Y303658D01*
X342064Y305064D01*
X340658Y306003D01*
X339000Y306333D01*
X337342Y306003D01*
X335936Y305064D01*
X334997Y303658D01*
X334667Y302000D01*
X334997Y300342D01*
X335936Y298936D01*
X336764Y298382D01*
X336496Y297034D01*
X336342Y297003D01*
X334936Y296064D01*
X333997Y294658D01*
X333667Y293000D01*
X333997Y291342D01*
X334936Y289936D01*
X336342Y288997D01*
X338000Y288667D01*
X339658Y288997D01*
X341064Y289936D01*
X342003Y291342D01*
X342333Y293000D01*
X342128Y294034D01*
X343290Y294699D01*
X344342Y293997D01*
X346000Y293667D01*
X346921Y293850D01*
X348191Y292942D01*
Y234794D01*
X347018Y234308D01*
X333163Y248163D01*
X332170Y248826D01*
X331000Y249059D01*
X331000Y249059D01*
X289068D01*
X289064Y249064D01*
X287658Y250003D01*
X286000Y250333D01*
X284342Y250003D01*
X282936Y249064D01*
X282932Y249059D01*
X97000D01*
X97000Y249059D01*
X95829Y248826D01*
X94837Y248163D01*
X94837Y248163D01*
X20006Y173332D01*
X20000Y173333D01*
X18342Y173003D01*
X16936Y172064D01*
X15997Y170658D01*
X15667Y169000D01*
X15997Y167342D01*
X16936Y165936D01*
X18342Y164997D01*
X20000Y164667D01*
X21658Y164997D01*
X23064Y165936D01*
X24003Y167342D01*
X24333Y169000D01*
X24332Y169006D01*
X98267Y242941D01*
X282932D01*
X282936Y242936D01*
X284342Y241997D01*
X286000Y241667D01*
X287658Y241997D01*
X288182Y242347D01*
X289684Y241940D01*
X289850Y241671D01*
X289667Y240750D01*
X289997Y239092D01*
X290936Y237686D01*
X292342Y236747D01*
X294000Y236417D01*
X295658Y236747D01*
X297064Y237686D01*
X298003Y239092D01*
X298333Y240750D01*
X298150Y241671D01*
X299058Y242941D01*
X329733D01*
X471337Y101337D01*
X471337Y101337D01*
X472329Y100674D01*
X473500Y100441D01*
X732556D01*
X732556Y100441D01*
X733727Y100674D01*
X734719Y101337D01*
X741163Y107781D01*
X741826Y108773D01*
X742059Y109944D01*
X742059Y109944D01*
Y119056D01*
X742059Y119056D01*
X741826Y120227D01*
X741163Y121219D01*
X741163Y121219D01*
X732724Y129658D01*
X732957Y131130D01*
X733043Y131165D01*
X735132Y132768D01*
X736735Y134857D01*
X737743Y137289D01*
X738086Y139900D01*
X737743Y142510D01*
X736735Y144943D01*
X735132Y147032D01*
X733043Y148635D01*
X730611Y149643D01*
X728000Y149986D01*
X725389Y149643D01*
X722957Y148635D01*
X720868Y147032D01*
X719265Y144943D01*
X718257Y142510D01*
X717914Y139900D01*
X718257Y137289D01*
X719265Y134857D01*
X720868Y132768D01*
X722957Y131165D01*
X725389Y130157D01*
X726000Y130077D01*
X726097Y128900D01*
X726330Y127730D01*
X726993Y126737D01*
X727904Y125827D01*
X727424Y124510D01*
X725389Y124243D01*
X722957Y123235D01*
X720868Y121632D01*
X719661Y120059D01*
X468267D01*
X388331Y199994D01*
X388640Y201482D01*
X389638Y202149D01*
X390632Y203638D01*
X390982Y205393D01*
X390632Y207149D01*
X389638Y208638D01*
X388149Y209632D01*
X386393Y209982D01*
X384638Y209632D01*
X383149Y208638D01*
X382482Y207640D01*
X380994Y207331D01*
X354309Y234017D01*
Y283975D01*
X355579Y284695D01*
X357000Y284412D01*
X358756Y284761D01*
X360244Y285756D01*
X361239Y287244D01*
X361588Y289000D01*
X361239Y290756D01*
X360244Y292244D01*
X358756Y293239D01*
X357000Y293588D01*
X355579Y293305D01*
X354309Y294025D01*
Y300175D01*
X354273Y300353D01*
Y302920D01*
X354658Y302997D01*
X356064Y303936D01*
X357003Y305342D01*
X357247Y306568D01*
X358275Y307160D01*
X358572Y307211D01*
X359244Y306761D01*
X361000Y306412D01*
X362756Y306761D01*
X364244Y307756D01*
X365239Y309244D01*
X365588Y311000D01*
X365239Y312756D01*
X364244Y314244D01*
X362756Y315239D01*
X361000Y315588D01*
D02*
G37*
G36*
X326250Y318333D02*
X324592Y318003D01*
X323186Y317064D01*
X322247Y315658D01*
X321917Y314000D01*
X322247Y312342D01*
X323186Y310936D01*
X324592Y309997D01*
X326250Y309667D01*
X327908Y309997D01*
X329314Y310936D01*
X330253Y312342D01*
X330583Y314000D01*
X330253Y315658D01*
X329314Y317064D01*
X327908Y318003D01*
X326250Y318333D01*
D02*
G37*
G36*
X113000Y317333D02*
X111342Y317003D01*
X109936Y316064D01*
X108997Y314658D01*
X108667Y313000D01*
X108997Y311342D01*
X109936Y309936D01*
X111342Y308997D01*
X113000Y308667D01*
X114658Y308997D01*
X116064Y309936D01*
X117003Y311342D01*
X117333Y313000D01*
X117003Y314658D01*
X116064Y316064D01*
X114658Y317003D01*
X113000Y317333D01*
D02*
G37*
G36*
X22000Y315333D02*
X20342Y315003D01*
X18936Y314064D01*
X17997Y312658D01*
X17667Y311000D01*
X17997Y309342D01*
X18936Y307936D01*
X20342Y306997D01*
X22000Y306667D01*
X23658Y306997D01*
X25064Y307936D01*
X26003Y309342D01*
X26333Y311000D01*
X26003Y312658D01*
X25064Y314064D01*
X23658Y315003D01*
X22000Y315333D01*
D02*
G37*
G36*
X394599Y316753D02*
X392940Y316423D01*
X391535Y315484D01*
X390595Y314078D01*
X390265Y312420D01*
X390595Y310762D01*
X391535Y309356D01*
X392940Y308417D01*
X394599Y308087D01*
X395550Y308276D01*
X396314Y307133D01*
X395997Y306658D01*
X395667Y305000D01*
X395997Y303342D01*
X396936Y301936D01*
X398342Y300997D01*
X400000Y300667D01*
X401658Y300997D01*
X403064Y301936D01*
X404003Y303342D01*
X404333Y305000D01*
X404246Y305436D01*
X405327Y306516D01*
X405599Y306462D01*
X407257Y306792D01*
X408663Y307731D01*
X409602Y309137D01*
X409932Y310795D01*
X409602Y312453D01*
X408663Y313859D01*
X407257Y314799D01*
X405599Y315128D01*
X403940Y314799D01*
X402535Y313859D01*
X401595Y312453D01*
X401265Y310795D01*
X401352Y310359D01*
X400272Y309279D01*
X400000Y309333D01*
X399049Y309144D01*
X398285Y310287D01*
X398602Y310762D01*
X398932Y312420D01*
X398602Y314078D01*
X397663Y315484D01*
X396257Y316423D01*
X394599Y316753D01*
D02*
G37*
G36*
X280004Y315083D02*
X278345Y314753D01*
X276939Y313814D01*
X276000Y312408D01*
X275670Y310750D01*
X276000Y309092D01*
X276939Y307686D01*
X278345Y306747D01*
X280004Y306417D01*
X281662Y306747D01*
X283067Y307686D01*
X284007Y309092D01*
X284337Y310750D01*
X284007Y312408D01*
X283067Y313814D01*
X281662Y314753D01*
X280004Y315083D01*
D02*
G37*
G36*
X500000Y307333D02*
X498342Y307003D01*
X496936Y306064D01*
X495997Y304658D01*
X495667Y303000D01*
X495997Y301342D01*
X496936Y299936D01*
X498342Y298997D01*
X500000Y298667D01*
X501658Y298997D01*
X503064Y299936D01*
X504003Y301342D01*
X504333Y303000D01*
X504003Y304658D01*
X503064Y306064D01*
X501658Y307003D01*
X500000Y307333D01*
D02*
G37*
G36*
X299383Y321215D02*
X297724Y320885D01*
X296319Y319946D01*
X295379Y318540D01*
X295049Y316882D01*
X295379Y315224D01*
X296319Y313818D01*
X297724Y312879D01*
X298972Y312630D01*
X300167Y312125D01*
X300497Y310467D01*
X301436Y309061D01*
X302842Y308122D01*
X304500Y307792D01*
X304591Y307810D01*
X305578Y306711D01*
X305379Y305712D01*
X305709Y304054D01*
X306648Y302648D01*
X308054Y301709D01*
X309333Y301455D01*
X309809Y300404D01*
X309833Y300159D01*
X305983Y296309D01*
X297663D01*
X297325Y296941D01*
X297107Y297579D01*
X297403Y299070D01*
X297074Y300728D01*
X296134Y302134D01*
X294729Y303074D01*
X293070Y303403D01*
X291412Y303074D01*
X290006Y302134D01*
X289067Y300728D01*
X288737Y299070D01*
X289034Y297579D01*
X288815Y296941D01*
X288477Y296309D01*
X131250D01*
X131250Y296309D01*
X130079Y296076D01*
X129087Y295413D01*
X65006Y231332D01*
X65000Y231333D01*
X63342Y231003D01*
X61936Y230064D01*
X60997Y228658D01*
X60667Y227000D01*
X60997Y225342D01*
X61936Y223936D01*
X63342Y222997D01*
X65000Y222667D01*
X66658Y222997D01*
X68064Y223936D01*
X69003Y225342D01*
X69333Y227000D01*
X69332Y227006D01*
X132517Y290191D01*
X292942D01*
X293850Y288921D01*
X293667Y288000D01*
X293997Y286342D01*
X294936Y284936D01*
X296342Y283997D01*
X298000Y283667D01*
X299658Y283997D01*
X300389Y284485D01*
X301305Y283569D01*
X300761Y282756D01*
X300412Y281000D01*
X300761Y279244D01*
X301211Y278571D01*
X301160Y278275D01*
X300568Y277247D01*
X299342Y277003D01*
X297936Y276064D01*
X296997Y274658D01*
X296667Y273000D01*
X296997Y271342D01*
X297936Y269936D01*
X299342Y268997D01*
X301000Y268667D01*
X302658Y268997D01*
X304064Y269936D01*
X305003Y271342D01*
X305333Y273000D01*
X305003Y274658D01*
X304650Y275187D01*
X304772Y275613D01*
X305317Y276475D01*
X306756Y276761D01*
X308244Y277756D01*
X309239Y279244D01*
X309588Y281000D01*
X309239Y282756D01*
X308244Y284244D01*
X306756Y285239D01*
X305000Y285588D01*
X303244Y285239D01*
X302431Y284695D01*
X301515Y285611D01*
X302003Y286342D01*
X302333Y288000D01*
X302150Y288921D01*
X303058Y290191D01*
X307250D01*
X307250Y290191D01*
X308421Y290424D01*
X309413Y291087D01*
X315188Y296862D01*
X316530Y296408D01*
X316761Y295244D01*
X317756Y293756D01*
X319244Y292761D01*
X321000Y292412D01*
X322756Y292761D01*
X324244Y293756D01*
X325239Y295244D01*
X325588Y297000D01*
X325239Y298756D01*
X324244Y300244D01*
X322756Y301239D01*
X322529Y302579D01*
X323064Y302936D01*
X324003Y304342D01*
X324333Y306000D01*
X324003Y307658D01*
X323064Y309064D01*
X321658Y310003D01*
X320000Y310333D01*
X318342Y310004D01*
X317690Y311070D01*
X318814Y311821D01*
X319753Y313227D01*
X320083Y314885D01*
X319753Y316544D01*
X318814Y317949D01*
X317408Y318889D01*
X315750Y319219D01*
X314092Y318889D01*
X312686Y317949D01*
X311747Y316544D01*
X311417Y314885D01*
X311747Y313227D01*
X312686Y311821D01*
X314092Y310882D01*
X315750Y310552D01*
X317408Y310882D01*
X318060Y309815D01*
X316936Y309064D01*
X315997Y307658D01*
X315772Y306530D01*
X315192Y306220D01*
X313824Y306829D01*
X313716Y307371D01*
X312776Y308776D01*
X311371Y309716D01*
X309712Y310046D01*
X309621Y310027D01*
X308634Y311126D01*
X308833Y312125D01*
X308503Y313783D01*
X307564Y315189D01*
X306158Y316128D01*
X304910Y316377D01*
X303716Y316882D01*
X303386Y318540D01*
X302447Y319946D01*
X301041Y320885D01*
X299383Y321215D01*
D02*
G37*
G36*
X75000Y304588D02*
X73244Y304239D01*
X71756Y303244D01*
X70761Y301756D01*
X70412Y300000D01*
X70761Y298244D01*
X71756Y296756D01*
X73244Y295761D01*
X75000Y295412D01*
X76756Y295761D01*
X78244Y296756D01*
X79239Y298244D01*
X79588Y300000D01*
X79239Y301756D01*
X78244Y303244D01*
X76756Y304239D01*
X75000Y304588D01*
D02*
G37*
G36*
X617000Y299333D02*
X615342Y299003D01*
X613936Y298064D01*
X612997Y296658D01*
X612667Y295000D01*
X612997Y293342D01*
X613936Y291936D01*
X615342Y290997D01*
X617000Y290667D01*
X618658Y290997D01*
X620064Y291936D01*
X621003Y293342D01*
X621333Y295000D01*
X621003Y296658D01*
X620064Y298064D01*
X618658Y299003D01*
X617000Y299333D01*
D02*
G37*
G36*
X667000Y298333D02*
X665342Y298003D01*
X663936Y297064D01*
X662997Y295658D01*
X662667Y294000D01*
X662997Y292342D01*
X663936Y290936D01*
X665342Y289997D01*
X667000Y289667D01*
X668658Y289997D01*
X670064Y290936D01*
X671003Y292342D01*
X671333Y294000D01*
X671003Y295658D01*
X670064Y297064D01*
X668658Y298003D01*
X667000Y298333D01*
D02*
G37*
G36*
X695500Y300858D02*
X693354Y300431D01*
X691535Y299215D01*
X690319Y297396D01*
X689892Y295250D01*
X690319Y293104D01*
X691535Y291285D01*
X693354Y290069D01*
X695500Y289642D01*
X697646Y290069D01*
X699465Y291285D01*
X700681Y293104D01*
X701108Y295250D01*
X700681Y297396D01*
X699465Y299215D01*
X697646Y300431D01*
X695500Y300858D01*
D02*
G37*
G36*
X333000Y288588D02*
X331244Y288239D01*
X329756Y287244D01*
X328761Y285756D01*
X328412Y284000D01*
X328761Y282244D01*
X329756Y280756D01*
X331244Y279761D01*
X333000Y279412D01*
X334756Y279761D01*
X336244Y280756D01*
X337239Y282244D01*
X337588Y284000D01*
X337239Y285756D01*
X336244Y287244D01*
X334756Y288239D01*
X333000Y288588D01*
D02*
G37*
G36*
X199000Y286833D02*
X197342Y286503D01*
X195936Y285564D01*
X194997Y284158D01*
X194667Y282500D01*
X194997Y280842D01*
X195936Y279436D01*
X197342Y278497D01*
X199000Y278167D01*
X200658Y278497D01*
X202064Y279436D01*
X203003Y280842D01*
X203333Y282500D01*
X203003Y284158D01*
X202064Y285564D01*
X200658Y286503D01*
X199000Y286833D01*
D02*
G37*
G36*
X571000Y286333D02*
X569342Y286003D01*
X567936Y285064D01*
X566997Y283658D01*
X566667Y282000D01*
X566997Y280342D01*
X567936Y278936D01*
X569342Y277997D01*
X571000Y277667D01*
X572658Y277997D01*
X574064Y278936D01*
X575003Y280342D01*
X575333Y282000D01*
X575003Y283658D01*
X574064Y285064D01*
X572658Y286003D01*
X571000Y286333D01*
D02*
G37*
G36*
X551000D02*
X549342Y286003D01*
X547936Y285064D01*
X546997Y283658D01*
X546667Y282000D01*
X546997Y280342D01*
X547936Y278936D01*
X549342Y277997D01*
X551000Y277667D01*
X552658Y277997D01*
X554064Y278936D01*
X555003Y280342D01*
X555333Y282000D01*
X555003Y283658D01*
X554064Y285064D01*
X552658Y286003D01*
X551000Y286333D01*
D02*
G37*
G36*
X290000Y284583D02*
X288342Y284253D01*
X286936Y283314D01*
X285997Y281908D01*
X285667Y280250D01*
X285997Y278592D01*
X286936Y277186D01*
X288342Y276247D01*
X290000Y275917D01*
X291658Y276247D01*
X293064Y277186D01*
X294003Y278592D01*
X294333Y280250D01*
X294003Y281908D01*
X293064Y283314D01*
X291658Y284253D01*
X290000Y284583D01*
D02*
G37*
G36*
X394000Y280588D02*
X392244Y280239D01*
X390756Y279244D01*
X389761Y277756D01*
X389412Y276000D01*
X389761Y274244D01*
X390756Y272756D01*
X392244Y271761D01*
X394000Y271412D01*
X395756Y271761D01*
X397244Y272756D01*
X398239Y274244D01*
X398588Y276000D01*
X398239Y277756D01*
X397244Y279244D01*
X395756Y280239D01*
X394000Y280588D01*
D02*
G37*
G36*
X720000Y276583D02*
X718342Y276253D01*
X716936Y275314D01*
X715997Y273908D01*
X715667Y272250D01*
X715997Y270592D01*
X716936Y269186D01*
X718342Y268247D01*
X720000Y267917D01*
X721658Y268247D01*
X723064Y269186D01*
X724003Y270592D01*
X724333Y272250D01*
X724003Y273908D01*
X723064Y275314D01*
X721658Y276253D01*
X720000Y276583D01*
D02*
G37*
G36*
X410000Y284083D02*
X408342Y283753D01*
X406936Y282814D01*
X405997Y281408D01*
X405667Y279750D01*
X405997Y278092D01*
X406936Y276686D01*
X407142Y276548D01*
X407142Y275944D01*
X406968Y275137D01*
X405736Y274314D01*
X404796Y272908D01*
X404467Y271250D01*
X404796Y269592D01*
X405736Y268186D01*
X407142Y267247D01*
X408800Y266917D01*
X410458Y267247D01*
X411864Y268186D01*
X412803Y269592D01*
X413133Y271250D01*
X412803Y272908D01*
X411864Y274314D01*
X411658Y274452D01*
X411658Y275056D01*
X411832Y275863D01*
X413064Y276686D01*
X414003Y278092D01*
X414333Y279750D01*
X414003Y281408D01*
X413064Y282814D01*
X411658Y283753D01*
X410000Y284083D01*
D02*
G37*
G36*
X368000Y273833D02*
X366342Y273503D01*
X364936Y272564D01*
X363997Y271158D01*
X363667Y269500D01*
X363997Y267842D01*
X364936Y266436D01*
X366342Y265497D01*
X368000Y265167D01*
X369658Y265497D01*
X371064Y266436D01*
X372003Y267842D01*
X372333Y269500D01*
X372003Y271158D01*
X371064Y272564D01*
X369658Y273503D01*
X368000Y273833D01*
D02*
G37*
G36*
X677000Y272333D02*
X675342Y272003D01*
X673936Y271064D01*
X672997Y269658D01*
X672667Y268000D01*
X672997Y266342D01*
X673936Y264936D01*
X675342Y263997D01*
X677000Y263667D01*
X678658Y263997D01*
X680064Y264936D01*
X681003Y266342D01*
X681333Y268000D01*
X681003Y269658D01*
X680064Y271064D01*
X678658Y272003D01*
X677000Y272333D01*
D02*
G37*
G36*
X399000Y269333D02*
X397342Y269003D01*
X395936Y268064D01*
X394997Y266658D01*
X394667Y265000D01*
X394997Y263342D01*
X395936Y261936D01*
X397342Y260997D01*
X399000Y260667D01*
X400658Y260997D01*
X402064Y261936D01*
X403003Y263342D01*
X403333Y265000D01*
X403003Y266658D01*
X402064Y268064D01*
X400658Y269003D01*
X399000Y269333D01*
D02*
G37*
G36*
X291000D02*
X289342Y269003D01*
X287936Y268064D01*
X286997Y266658D01*
X286667Y265000D01*
X286997Y263342D01*
X287936Y261936D01*
X289342Y260997D01*
X291000Y260667D01*
X292658Y260997D01*
X294064Y261936D01*
X295003Y263342D01*
X295333Y265000D01*
X295003Y266658D01*
X294064Y268064D01*
X292658Y269003D01*
X291000Y269333D01*
D02*
G37*
G36*
X25000Y276823D02*
X22781Y276531D01*
X20713Y275675D01*
X18938Y274312D01*
X17575Y272537D01*
X16719Y270469D01*
X16427Y268250D01*
X16719Y266031D01*
X17575Y263963D01*
X18938Y262188D01*
X20713Y260825D01*
X22781Y259969D01*
X25000Y259677D01*
X27219Y259969D01*
X29287Y260825D01*
X31062Y262188D01*
X32425Y263963D01*
X33281Y266031D01*
X33573Y268250D01*
X33281Y270469D01*
X32425Y272537D01*
X31062Y274312D01*
X29287Y275675D01*
X27219Y276531D01*
X25000Y276823D01*
D02*
G37*
G36*
X408940Y264583D02*
X407282Y264253D01*
X405876Y263314D01*
X404937Y261908D01*
X404607Y260250D01*
X404937Y258592D01*
X405876Y257186D01*
X407282Y256247D01*
X408940Y255917D01*
X410598Y256247D01*
X412004Y257186D01*
X412943Y258592D01*
X413273Y260250D01*
X412943Y261908D01*
X412004Y263314D01*
X410598Y264253D01*
X408940Y264583D01*
D02*
G37*
G36*
X384000Y264588D02*
X382244Y264239D01*
X380756Y263244D01*
X379761Y261756D01*
X379412Y260000D01*
X379761Y258244D01*
X380756Y256756D01*
X382244Y255761D01*
X384000Y255412D01*
X385756Y255761D01*
X387244Y256756D01*
X388239Y258244D01*
X388588Y260000D01*
X388239Y261756D01*
X387244Y263244D01*
X385756Y264239D01*
X384000Y264588D01*
D02*
G37*
G36*
X395734Y258715D02*
X394076Y258385D01*
X392670Y257445D01*
X391731Y256040D01*
X391401Y254381D01*
X391566Y253553D01*
X390369Y253057D01*
X390244Y253244D01*
X388756Y254239D01*
X387000Y254588D01*
X385244Y254239D01*
X383756Y253244D01*
X382761Y251756D01*
X382412Y250000D01*
X382761Y248244D01*
X383756Y246756D01*
X385244Y245761D01*
X387000Y245412D01*
X388756Y245761D01*
X390244Y246756D01*
X391239Y248244D01*
X391588Y250000D01*
X391404Y250926D01*
X392600Y251422D01*
X392670Y251317D01*
X394076Y250378D01*
X395734Y250048D01*
X397392Y250378D01*
X398798Y251317D01*
X399738Y252723D01*
X400067Y254381D01*
X399738Y256040D01*
X398798Y257445D01*
X397392Y258385D01*
X395734Y258715D01*
D02*
G37*
G36*
X663000Y256333D02*
X661342Y256003D01*
X659936Y255064D01*
X658997Y253658D01*
X658667Y252000D01*
X658997Y250342D01*
X659936Y248936D01*
X661342Y247997D01*
X663000Y247667D01*
X664658Y247997D01*
X666064Y248936D01*
X667003Y250342D01*
X667333Y252000D01*
X667003Y253658D01*
X666064Y255064D01*
X664658Y256003D01*
X663000Y256333D01*
D02*
G37*
G36*
X500000Y254588D02*
X498244Y254239D01*
X496756Y253244D01*
X495761Y251756D01*
X495412Y250000D01*
X495761Y248244D01*
X496756Y246756D01*
X498244Y245761D01*
X500000Y245412D01*
X501756Y245761D01*
X503244Y246756D01*
X504239Y248244D01*
X504588Y250000D01*
X504239Y251756D01*
X503244Y253244D01*
X501756Y254239D01*
X500000Y254588D01*
D02*
G37*
G36*
X50000D02*
X48244Y254239D01*
X46756Y253244D01*
X45761Y251756D01*
X45412Y250000D01*
X45761Y248244D01*
X46756Y246756D01*
X48244Y245761D01*
X50000Y245412D01*
X51756Y245761D01*
X53244Y246756D01*
X54239Y248244D01*
X54588Y250000D01*
X54239Y251756D01*
X53244Y253244D01*
X51756Y254239D01*
X50000Y254588D01*
D02*
G37*
G36*
X408940Y253214D02*
X407282Y252885D01*
X405876Y251945D01*
X404937Y250539D01*
X404607Y248881D01*
X404937Y247223D01*
X405876Y245817D01*
X407282Y244878D01*
X408940Y244548D01*
X410598Y244878D01*
X412004Y245817D01*
X412943Y247223D01*
X413273Y248881D01*
X412943Y250539D01*
X412004Y251945D01*
X410598Y252885D01*
X408940Y253214D01*
D02*
G37*
G36*
X65000Y251333D02*
X63342Y251003D01*
X61936Y250064D01*
X60997Y248658D01*
X60667Y247000D01*
X60997Y245342D01*
X61936Y243936D01*
X63342Y242997D01*
X65000Y242667D01*
X66658Y242997D01*
X68064Y243936D01*
X69003Y245342D01*
X69333Y247000D01*
X69003Y248658D01*
X68064Y250064D01*
X66658Y251003D01*
X65000Y251333D01*
D02*
G37*
G36*
X399000Y249333D02*
X397342Y249003D01*
X395936Y248064D01*
X394997Y246658D01*
X394667Y245000D01*
X394997Y243342D01*
X395936Y241936D01*
X397342Y240997D01*
X399000Y240667D01*
X400658Y240997D01*
X402064Y241936D01*
X403003Y243342D01*
X403333Y245000D01*
X403003Y246658D01*
X402064Y248064D01*
X400658Y249003D01*
X399000Y249333D01*
D02*
G37*
G36*
X408800Y242215D02*
X407142Y241885D01*
X405736Y240945D01*
X404796Y239540D01*
X404467Y237881D01*
X404796Y236223D01*
X405736Y234817D01*
X407142Y233878D01*
X408800Y233548D01*
X410458Y233878D01*
X411864Y234817D01*
X412803Y236223D01*
X413133Y237881D01*
X412803Y239540D01*
X411864Y240945D01*
X410458Y241885D01*
X408800Y242215D01*
D02*
G37*
G36*
X603000Y230333D02*
X601342Y230003D01*
X599936Y229064D01*
X598997Y227658D01*
X598667Y226000D01*
X598997Y224342D01*
X599936Y222936D01*
X601342Y221997D01*
X603000Y221667D01*
X604658Y221997D01*
X606064Y222936D01*
X607003Y224342D01*
X607333Y226000D01*
X607003Y227658D01*
X606064Y229064D01*
X604658Y230003D01*
X603000Y230333D01*
D02*
G37*
G36*
X551000Y229333D02*
X549342Y229003D01*
X547936Y228064D01*
X546997Y226658D01*
X546667Y225000D01*
X546997Y223342D01*
X547936Y221936D01*
X549342Y220997D01*
X551000Y220667D01*
X552658Y220997D01*
X554064Y221936D01*
X555003Y223342D01*
X555333Y225000D01*
X555003Y226658D01*
X554064Y228064D01*
X552658Y229003D01*
X551000Y229333D01*
D02*
G37*
G36*
X389000Y228588D02*
X387244Y228239D01*
X385756Y227244D01*
X384761Y225756D01*
X384412Y224000D01*
X384761Y222244D01*
X385756Y220756D01*
X387244Y219761D01*
X389000Y219412D01*
X390756Y219761D01*
X392244Y220756D01*
X393239Y222244D01*
X393588Y224000D01*
X393239Y225756D01*
X392244Y227244D01*
X390756Y228239D01*
X389000Y228588D01*
D02*
G37*
G36*
X304000Y240333D02*
X302342Y240003D01*
X300936Y239064D01*
X299997Y237658D01*
X299667Y236000D01*
X299997Y234342D01*
X300936Y232936D01*
X302342Y231997D01*
X304000Y231667D01*
X305233Y231912D01*
X305709Y231947D01*
X306592Y231093D01*
X306761Y230244D01*
X307387Y229307D01*
X307350Y228229D01*
X307000Y227775D01*
X305936Y227064D01*
X304997Y225658D01*
X304667Y224000D01*
X304997Y222342D01*
X305535Y221536D01*
X305018Y220138D01*
X304342Y220003D01*
X302936Y219064D01*
X302932Y219059D01*
X299470D01*
X299470Y219059D01*
X299198Y219005D01*
X298142Y219710D01*
X298003Y220408D01*
X297064Y221814D01*
X295658Y222753D01*
X295166Y222893D01*
X294933Y224063D01*
X294377Y224896D01*
X294555Y225909D01*
X294788Y226334D01*
X296064Y227186D01*
X297003Y228592D01*
X297333Y230250D01*
X297003Y231908D01*
X296064Y233314D01*
X294658Y234253D01*
X293000Y234583D01*
X291342Y234253D01*
X289936Y233314D01*
X288997Y231908D01*
X288667Y230250D01*
X288850Y229329D01*
X287942Y228059D01*
X187250D01*
X186080Y227826D01*
X185087Y227163D01*
X185087Y227163D01*
X180506Y222582D01*
X180500Y222583D01*
X178842Y222253D01*
X177436Y221314D01*
X176497Y219908D01*
X176167Y218250D01*
X176497Y216592D01*
X177436Y215186D01*
X178842Y214247D01*
X180500Y213917D01*
X182158Y214247D01*
X183564Y215186D01*
X184503Y216592D01*
X184833Y218250D01*
X184832Y218256D01*
X188517Y221941D01*
X288053D01*
X289049Y221319D01*
X289282Y220149D01*
X289793Y219383D01*
X289667Y218750D01*
X289758Y218291D01*
X288953Y217309D01*
X200675D01*
X200675Y217309D01*
X199504Y217076D01*
X199478Y217059D01*
X195993D01*
X195993Y217059D01*
X194823Y216826D01*
X194423Y216559D01*
X188450D01*
X188450Y216559D01*
X187279Y216326D01*
X186287Y215663D01*
X186287Y215663D01*
X180506Y209882D01*
X180500Y209883D01*
X178842Y209553D01*
X177436Y208614D01*
X176497Y207208D01*
X176167Y205550D01*
X176497Y203892D01*
X177436Y202486D01*
X178842Y201547D01*
X180500Y201217D01*
X182158Y201547D01*
X183564Y202486D01*
X184503Y203892D01*
X184833Y205550D01*
X184832Y205556D01*
X189717Y210441D01*
X192106D01*
X192592Y209268D01*
X180506Y197182D01*
X180500Y197183D01*
X178842Y196853D01*
X177436Y195914D01*
X176497Y194508D01*
X176167Y192850D01*
X176497Y191192D01*
X177436Y189786D01*
X178842Y188847D01*
X180500Y188517D01*
X182158Y188847D01*
X183564Y189786D01*
X184503Y191192D01*
X184833Y192850D01*
X184832Y192856D01*
X198917Y206941D01*
X247521D01*
X247521Y206941D01*
X248692Y207174D01*
X248718Y207191D01*
X280859D01*
X281768Y205921D01*
X281584Y205000D01*
X281914Y203342D01*
X282854Y201936D01*
X284259Y200997D01*
X285918Y200667D01*
X287576Y200997D01*
X288982Y201936D01*
X289921Y203342D01*
X289949Y203485D01*
X291433Y204433D01*
X291477Y204424D01*
X294801D01*
X294805Y204419D01*
X296210Y203480D01*
X297869Y203150D01*
X299527Y203480D01*
X300831Y204351D01*
X300999Y204414D01*
X302386Y204308D01*
X302756Y203756D01*
X304244Y202761D01*
X306000Y202412D01*
X307756Y202761D01*
X309244Y203756D01*
X310239Y205244D01*
X310588Y207000D01*
X310239Y208756D01*
X309244Y210244D01*
X308239Y210916D01*
X308187Y212333D01*
X308196Y212356D01*
X309064Y212936D01*
X310003Y214342D01*
X310333Y216000D01*
X310003Y217658D01*
X309465Y218464D01*
X309982Y219862D01*
X310658Y219997D01*
X312064Y220936D01*
X313003Y222342D01*
X313333Y224000D01*
X313003Y225658D01*
X312498Y226415D01*
X312658Y227253D01*
X312944Y227887D01*
X314244Y228756D01*
X315239Y230244D01*
X315588Y232000D01*
X315239Y233756D01*
X314244Y235244D01*
X312756Y236239D01*
X311000Y236588D01*
X309568Y236303D01*
X308661Y236649D01*
X308130Y237022D01*
X308003Y237658D01*
X307064Y239064D01*
X305658Y240003D01*
X304000Y240333D01*
D02*
G37*
G36*
X404581Y231494D02*
X402923Y231164D01*
X401517Y230225D01*
X400577Y228819D01*
X400248Y227161D01*
X400577Y225503D01*
X401517Y224097D01*
X402923Y223158D01*
X404581Y222828D01*
X405581Y223027D01*
X406679Y222041D01*
X406667Y221977D01*
X406997Y220319D01*
X407936Y218913D01*
X409342Y217974D01*
X411000Y217644D01*
X412658Y217974D01*
X414064Y218913D01*
X415003Y220319D01*
X415333Y221977D01*
X415003Y223635D01*
X414064Y225041D01*
X412658Y225980D01*
X411000Y226310D01*
X410000Y226112D01*
X408901Y227097D01*
X408914Y227161D01*
X408584Y228819D01*
X407645Y230225D01*
X406239Y231164D01*
X404581Y231494D01*
D02*
G37*
G36*
X414000Y323333D02*
X412342Y323003D01*
X410936Y322064D01*
X409997Y320658D01*
X409667Y319000D01*
X409997Y317342D01*
X410936Y315936D01*
X412342Y314997D01*
X414000Y314667D01*
X414006Y314668D01*
X512342Y216332D01*
X511856Y215159D01*
X509407D01*
X427402Y297163D01*
X426410Y297826D01*
X425239Y298059D01*
X425239Y298059D01*
X415058D01*
X414150Y299329D01*
X414333Y300250D01*
X414003Y301908D01*
X413064Y303314D01*
X411658Y304253D01*
X410000Y304583D01*
X408342Y304253D01*
X406936Y303314D01*
X405997Y301908D01*
X405667Y300250D01*
X405997Y298592D01*
X406172Y298329D01*
X405494Y297059D01*
X401068D01*
X401064Y297064D01*
X399658Y298003D01*
X398000Y298333D01*
X396342Y298003D01*
X394936Y297064D01*
X393997Y295658D01*
X393667Y294000D01*
X393836Y293148D01*
X392640Y292652D01*
X392244Y293244D01*
X390756Y294239D01*
X389000Y294588D01*
X387244Y294239D01*
X385756Y293244D01*
X384761Y291756D01*
X384412Y290000D01*
X384761Y288244D01*
X385756Y286756D01*
X387244Y285761D01*
X389000Y285412D01*
X390756Y285761D01*
X392244Y286756D01*
X393239Y288244D01*
X393588Y290000D01*
X393399Y290950D01*
X394596Y291445D01*
X394936Y290936D01*
X396342Y289997D01*
X397193Y289827D01*
X397785Y288428D01*
X397515Y288023D01*
X397185Y286365D01*
X397515Y284707D01*
X398454Y283301D01*
X399860Y282362D01*
X401518Y282032D01*
X403177Y282362D01*
X404582Y283301D01*
X405522Y284707D01*
X405852Y286365D01*
X405522Y288023D01*
X404582Y289429D01*
X404220Y289671D01*
X404605Y290941D01*
X411458D01*
X411458Y290941D01*
X412629Y291174D01*
X413621Y291837D01*
X413725Y291941D01*
X423973D01*
X505977Y209937D01*
X505977Y209937D01*
X506969Y209274D01*
X508139Y209041D01*
X508140Y209041D01*
X679933D01*
X719079Y169895D01*
X718257Y167910D01*
X717914Y165300D01*
X718257Y162689D01*
X719265Y160257D01*
X720868Y158168D01*
X722957Y156565D01*
X725389Y155557D01*
X728000Y155214D01*
X730611Y155557D01*
X733043Y156565D01*
X735132Y158168D01*
X736735Y160257D01*
X737743Y162689D01*
X738086Y165300D01*
X737743Y167910D01*
X736735Y170343D01*
X735132Y172432D01*
X733043Y174035D01*
X730611Y175043D01*
X728000Y175386D01*
X725389Y175043D01*
X723405Y174221D01*
X685758Y211868D01*
X686244Y213041D01*
X718443D01*
X719265Y211057D01*
X720868Y208968D01*
X722957Y207365D01*
X725389Y206357D01*
X728000Y206014D01*
X730611Y206357D01*
X733043Y207365D01*
X735132Y208968D01*
X736735Y211057D01*
X737743Y213489D01*
X738086Y216100D01*
X737743Y218710D01*
X736735Y221143D01*
X735132Y223232D01*
X733043Y224835D01*
X730611Y225843D01*
X728000Y226186D01*
X725389Y225843D01*
X722957Y224835D01*
X720868Y223232D01*
X719265Y221143D01*
X718443Y219159D01*
X639439D01*
X639053Y220429D01*
X639064Y220436D01*
X640003Y221842D01*
X640333Y223500D01*
X640003Y225158D01*
X639064Y226564D01*
X637658Y227503D01*
X636000Y227833D01*
X634342Y227503D01*
X632936Y226564D01*
X631997Y225158D01*
X631667Y223500D01*
X631997Y221842D01*
X632936Y220436D01*
X632947Y220429D01*
X632561Y219159D01*
X580690D01*
X580305Y220429D01*
X581064Y220936D01*
X582003Y222342D01*
X582333Y224000D01*
X582003Y225658D01*
X581064Y227064D01*
X579658Y228003D01*
X578000Y228333D01*
X576342Y228003D01*
X574936Y227064D01*
X573997Y225658D01*
X573667Y224000D01*
X573997Y222342D01*
X574936Y220936D01*
X575695Y220429D01*
X575310Y219159D01*
X518167D01*
X418332Y318994D01*
X418333Y319000D01*
X418003Y320658D01*
X417064Y322064D01*
X415658Y323003D01*
X414000Y323333D01*
D02*
G37*
G36*
X400661Y221654D02*
X399002Y221324D01*
X397597Y220384D01*
X396657Y218979D01*
X396327Y217320D01*
X396657Y215662D01*
X397597Y214256D01*
X399002Y213317D01*
X400661Y212987D01*
X402319Y213317D01*
X403725Y214256D01*
X404664Y215662D01*
X404994Y217320D01*
X404664Y218979D01*
X403725Y220384D01*
X402319Y221324D01*
X400661Y221654D01*
D02*
G37*
G36*
X322000Y215333D02*
X320342Y215003D01*
X318936Y214064D01*
X317997Y212658D01*
X317667Y211000D01*
X317997Y209342D01*
X318936Y207936D01*
X320342Y206997D01*
X322000Y206667D01*
X323658Y206997D01*
X325064Y207936D01*
X326003Y209342D01*
X326333Y211000D01*
X326003Y212658D01*
X325064Y214064D01*
X323658Y215003D01*
X322000Y215333D01*
D02*
G37*
G36*
X334000Y210588D02*
X332244Y210239D01*
X330756Y209244D01*
X329761Y207756D01*
X329412Y206000D01*
X329761Y204244D01*
X330756Y202756D01*
X332244Y201761D01*
X334000Y201412D01*
X335756Y201761D01*
X337244Y202756D01*
X338239Y204244D01*
X338588Y206000D01*
X338239Y207756D01*
X337244Y209244D01*
X335756Y210239D01*
X334000Y210588D01*
D02*
G37*
G36*
X25000Y214323D02*
X22781Y214031D01*
X20713Y213175D01*
X18938Y211812D01*
X17575Y210037D01*
X16719Y207969D01*
X16427Y205750D01*
X16719Y203531D01*
X17575Y201463D01*
X18938Y199688D01*
X20713Y198325D01*
X22781Y197469D01*
X25000Y197177D01*
X27219Y197469D01*
X29287Y198325D01*
X31062Y199688D01*
X32425Y201463D01*
X33281Y203531D01*
X33573Y205750D01*
X33281Y207969D01*
X32425Y210037D01*
X31062Y211812D01*
X29287Y213175D01*
X27219Y214031D01*
X25000Y214323D01*
D02*
G37*
G36*
X675000Y204588D02*
X673244Y204239D01*
X671756Y203244D01*
X670761Y201756D01*
X670412Y200000D01*
X670761Y198244D01*
X671756Y196756D01*
X673244Y195761D01*
X675000Y195412D01*
X676756Y195761D01*
X678244Y196756D01*
X679239Y198244D01*
X679588Y200000D01*
X679239Y201756D01*
X678244Y203244D01*
X676756Y204239D01*
X675000Y204588D01*
D02*
G37*
G36*
X125000D02*
X123244Y204239D01*
X121756Y203244D01*
X120761Y201756D01*
X120412Y200000D01*
X120761Y198244D01*
X121756Y196756D01*
X123244Y195761D01*
X125000Y195412D01*
X126756Y195761D01*
X128244Y196756D01*
X129239Y198244D01*
X129588Y200000D01*
X129239Y201756D01*
X128244Y203244D01*
X126756Y204239D01*
X125000Y204588D01*
D02*
G37*
G36*
X75000D02*
X73244Y204239D01*
X71756Y203244D01*
X70761Y201756D01*
X70412Y200000D01*
X70761Y198244D01*
X71756Y196756D01*
X73244Y195761D01*
X75000Y195412D01*
X76756Y195761D01*
X78244Y196756D01*
X79239Y198244D01*
X79588Y200000D01*
X79239Y201756D01*
X78244Y203244D01*
X76756Y204239D01*
X75000Y204588D01*
D02*
G37*
G36*
X412030Y214613D02*
X410371Y214283D01*
X408966Y213344D01*
X408026Y211938D01*
X407696Y210280D01*
X407965Y208930D01*
X406377Y208614D01*
X404972Y207675D01*
X404032Y206269D01*
X403702Y204611D01*
X404032Y202953D01*
X404972Y201547D01*
X406377Y200607D01*
X408036Y200278D01*
X408160Y200303D01*
X409058Y199405D01*
X409034Y199280D01*
X409364Y197621D01*
X410303Y196216D01*
X411709Y195276D01*
X413367Y194946D01*
X415025Y195276D01*
X416431Y196216D01*
X417370Y197621D01*
X417700Y199280D01*
X417370Y200938D01*
X416431Y202344D01*
X415025Y203283D01*
X413367Y203613D01*
X413242Y203588D01*
X412344Y204486D01*
X412369Y204611D01*
X412100Y205960D01*
X413688Y206276D01*
X415094Y207215D01*
X416033Y208621D01*
X416363Y210280D01*
X416033Y211938D01*
X415094Y213344D01*
X413688Y214283D01*
X412030Y214613D01*
D02*
G37*
G36*
X343000Y203333D02*
X341342Y203003D01*
X339936Y202064D01*
X338997Y200658D01*
X338667Y199000D01*
X338997Y197342D01*
X339936Y195936D01*
X341342Y194997D01*
X343000Y194667D01*
X344658Y194997D01*
X346064Y195936D01*
X347003Y197342D01*
X347333Y199000D01*
X347003Y200658D01*
X346064Y202064D01*
X344658Y203003D01*
X343000Y203333D01*
D02*
G37*
G36*
X316000Y202333D02*
X314342Y202003D01*
X312936Y201064D01*
X311997Y199658D01*
X311667Y198000D01*
X311997Y196342D01*
X312936Y194936D01*
X314342Y193997D01*
X316000Y193667D01*
X317658Y193997D01*
X319064Y194936D01*
X320003Y196342D01*
X320333Y198000D01*
X320003Y199658D01*
X319064Y201064D01*
X317658Y202003D01*
X316000Y202333D01*
D02*
G37*
G36*
X604000Y200333D02*
X602342Y200003D01*
X600936Y199064D01*
X599997Y197658D01*
X599667Y196000D01*
X599997Y194342D01*
X600936Y192936D01*
X602342Y191997D01*
X604000Y191667D01*
X605658Y191997D01*
X607064Y192936D01*
X608003Y194342D01*
X608333Y196000D01*
X608003Y197658D01*
X607064Y199064D01*
X605658Y200003D01*
X604000Y200333D01*
D02*
G37*
G36*
X299265Y199282D02*
X297607Y198952D01*
X296201Y198013D01*
X295261Y196607D01*
X294932Y194949D01*
X295261Y193290D01*
X296201Y191885D01*
X297607Y190945D01*
X298506Y190766D01*
Y189472D01*
X297561Y189284D01*
X297034Y188932D01*
X295648Y189533D01*
X295473Y190414D01*
X294534Y191820D01*
X293128Y192759D01*
X291470Y193089D01*
X289812Y192759D01*
X288406Y191820D01*
X287467Y190414D01*
X287137Y188756D01*
X287467Y187097D01*
X288406Y185692D01*
X289812Y184752D01*
X291470Y184422D01*
X293128Y184752D01*
X293655Y185104D01*
X295041Y184503D01*
X295216Y183622D01*
X296156Y182216D01*
X297561Y181277D01*
X299220Y180947D01*
X300878Y181277D01*
X302284Y182216D01*
X303223Y183622D01*
X303553Y185280D01*
X303223Y186939D01*
X302284Y188344D01*
X300878Y189284D01*
X299979Y189463D01*
Y190758D01*
X300923Y190945D01*
X302329Y191885D01*
X303268Y193290D01*
X303598Y194949D01*
X303268Y196607D01*
X302329Y198013D01*
X300923Y198952D01*
X299265Y199282D01*
D02*
G37*
G36*
X200000Y196333D02*
X198342Y196003D01*
X196936Y195064D01*
X195997Y193658D01*
X195667Y192000D01*
X195997Y190342D01*
X196936Y188936D01*
X198342Y187997D01*
X200000Y187667D01*
X201658Y187997D01*
X203064Y188936D01*
X204003Y190342D01*
X204333Y192000D01*
X204003Y193658D01*
X203064Y195064D01*
X201658Y196003D01*
X200000Y196333D01*
D02*
G37*
G36*
X351000Y196588D02*
X349244Y196239D01*
X347756Y195244D01*
X346761Y193756D01*
X346412Y192000D01*
X346761Y190244D01*
X347756Y188756D01*
X349244Y187761D01*
X351000Y187412D01*
X352756Y187761D01*
X354244Y188756D01*
X355239Y190244D01*
X355588Y192000D01*
X355239Y193756D01*
X354244Y195244D01*
X352756Y196239D01*
X351000Y196588D01*
D02*
G37*
G36*
X511000Y195333D02*
X509342Y195003D01*
X507936Y194064D01*
X506997Y192658D01*
X506667Y191000D01*
X506997Y189342D01*
X507936Y187936D01*
X509342Y186997D01*
X511000Y186667D01*
X512658Y186997D01*
X514064Y187936D01*
X515003Y189342D01*
X515333Y191000D01*
X515003Y192658D01*
X514064Y194064D01*
X512658Y195003D01*
X511000Y195333D01*
D02*
G37*
G36*
X309000Y194333D02*
X307342Y194003D01*
X305936Y193064D01*
X304997Y191658D01*
X304667Y190000D01*
X304997Y188342D01*
X305936Y186936D01*
X307342Y185997D01*
X309000Y185667D01*
X310658Y185997D01*
X312064Y186936D01*
X313003Y188342D01*
X313333Y190000D01*
X313003Y191658D01*
X312064Y193064D01*
X310658Y194003D01*
X309000Y194333D01*
D02*
G37*
G36*
X329000Y201333D02*
X327342Y201003D01*
X325936Y200064D01*
X324997Y198658D01*
X324667Y197000D01*
X324997Y195342D01*
X325936Y193936D01*
X327342Y192997D01*
X329000Y192667D01*
X330623Y192990D01*
X330738Y192908D01*
X331519Y192044D01*
X330747Y190888D01*
X330417Y189230D01*
X330747Y187572D01*
X331686Y186166D01*
X333092Y185227D01*
X334750Y184897D01*
X336408Y185227D01*
X337814Y186166D01*
X338753Y187572D01*
X339083Y189230D01*
X338753Y190888D01*
X337814Y192294D01*
X336408Y193233D01*
X334750Y193563D01*
X333127Y193240D01*
X333012Y193322D01*
X332231Y194186D01*
X333003Y195342D01*
X333333Y197000D01*
X333003Y198658D01*
X332064Y200064D01*
X330658Y201003D01*
X329000Y201333D01*
D02*
G37*
G36*
X728000Y200786D02*
X725389Y200443D01*
X722957Y199435D01*
X720868Y197832D01*
X719265Y195743D01*
X718257Y193311D01*
X717914Y190700D01*
X718257Y188090D01*
X719265Y185657D01*
X720868Y183568D01*
X722957Y181965D01*
X725389Y180957D01*
X728000Y180614D01*
X730611Y180957D01*
X733043Y181965D01*
X735132Y183568D01*
X736735Y185657D01*
X737743Y188090D01*
X738086Y190700D01*
X737743Y193311D01*
X736735Y195743D01*
X735132Y197832D01*
X733043Y199435D01*
X730611Y200443D01*
X728000Y200786D01*
D02*
G37*
G36*
X273983Y188026D02*
X272325Y187696D01*
X270919Y186757D01*
X269980Y185351D01*
X269650Y183693D01*
X269980Y182035D01*
X270919Y180629D01*
X272325Y179690D01*
X273983Y179360D01*
X275641Y179690D01*
X277047Y180629D01*
X277987Y182035D01*
X278316Y183693D01*
X277987Y185351D01*
X277047Y186757D01*
X275641Y187696D01*
X273983Y188026D01*
D02*
G37*
G36*
X213000Y184333D02*
X211342Y184003D01*
X209936Y183064D01*
X208997Y181658D01*
X208667Y180000D01*
X208997Y178342D01*
X209936Y176936D01*
X211342Y175997D01*
X213000Y175667D01*
X214658Y175997D01*
X216064Y176936D01*
X217003Y178342D01*
X217333Y180000D01*
X217003Y181658D01*
X216064Y183064D01*
X214658Y184003D01*
X213000Y184333D01*
D02*
G37*
G36*
X60000Y171333D02*
X58342Y171003D01*
X56936Y170064D01*
X55997Y168658D01*
X55667Y167000D01*
X55997Y165342D01*
X56936Y163936D01*
X58342Y162997D01*
X60000Y162667D01*
X61658Y162997D01*
X63064Y163936D01*
X64003Y165342D01*
X64333Y167000D01*
X64003Y168658D01*
X63064Y170064D01*
X61658Y171003D01*
X60000Y171333D01*
D02*
G37*
G36*
X686000Y167333D02*
X684342Y167003D01*
X682936Y166064D01*
X681997Y164658D01*
X681667Y163000D01*
X681997Y161342D01*
X682936Y159936D01*
X684342Y158997D01*
X686000Y158667D01*
X687658Y158997D01*
X689064Y159936D01*
X690003Y161342D01*
X690333Y163000D01*
X690003Y164658D01*
X689064Y166064D01*
X687658Y167003D01*
X686000Y167333D01*
D02*
G37*
G36*
X380240Y163333D02*
X378582Y163003D01*
X377176Y162064D01*
X376237Y160658D01*
X375907Y159000D01*
X376237Y157342D01*
X376823Y156465D01*
X376059Y155322D01*
X376000Y155333D01*
X374342Y155003D01*
X372936Y154064D01*
X371997Y152658D01*
X371667Y151000D01*
X371997Y149342D01*
X372936Y147936D01*
X374342Y146997D01*
X376000Y146667D01*
X377658Y146997D01*
X379064Y147936D01*
X380003Y149342D01*
X380333Y151000D01*
X380003Y152658D01*
X379417Y153535D01*
X380181Y154678D01*
X380240Y154667D01*
X381898Y154997D01*
X383304Y155936D01*
X384243Y157342D01*
X384573Y159000D01*
X384243Y160658D01*
X383304Y162064D01*
X381898Y163003D01*
X380240Y163333D01*
D02*
G37*
G36*
X369740D02*
X368082Y163003D01*
X366676Y162064D01*
X365737Y160658D01*
X365407Y159000D01*
X365737Y157342D01*
X366676Y155936D01*
X368082Y154997D01*
X369740Y154667D01*
X371398Y154997D01*
X372804Y155936D01*
X373743Y157342D01*
X374073Y159000D01*
X373743Y160658D01*
X372804Y162064D01*
X371398Y163003D01*
X369740Y163333D01*
D02*
G37*
G36*
X390740Y164333D02*
X389082Y164003D01*
X387676Y163064D01*
X386737Y161658D01*
X386407Y160000D01*
X386737Y158342D01*
X387676Y156936D01*
X389082Y155997D01*
X390345Y155745D01*
X390871Y155378D01*
X391279Y154479D01*
X391057Y153360D01*
X391387Y151702D01*
X392326Y150296D01*
X393732Y149356D01*
X395390Y149027D01*
X397048Y149356D01*
X398454Y150296D01*
X399393Y151702D01*
X399723Y153360D01*
X399393Y155018D01*
X398454Y156424D01*
X397048Y157363D01*
X395785Y157615D01*
X395259Y157982D01*
X394851Y158881D01*
X395073Y160000D01*
X394743Y161658D01*
X393804Y163064D01*
X392398Y164003D01*
X390740Y164333D01*
D02*
G37*
G36*
X348740Y163333D02*
X347082Y163003D01*
X345676Y162064D01*
X344737Y160658D01*
X344407Y159000D01*
X344737Y157342D01*
X345676Y155936D01*
X347082Y154997D01*
X348740Y154667D01*
X349879Y154893D01*
X350643Y153750D01*
X349997Y152783D01*
X349667Y151125D01*
X349997Y149467D01*
X350936Y148061D01*
X352342Y147122D01*
X354000Y146792D01*
X355658Y147122D01*
X357064Y148061D01*
X358003Y149467D01*
X358333Y151125D01*
X358245Y151570D01*
X359240Y152667D01*
X360898Y152997D01*
X362304Y153936D01*
X363243Y155342D01*
X363573Y157000D01*
X363243Y158658D01*
X362304Y160064D01*
X360898Y161003D01*
X359240Y161333D01*
X357582Y161003D01*
X356176Y160064D01*
X355237Y158658D01*
X354907Y157000D01*
X354995Y156555D01*
X354010Y155469D01*
X352776Y155417D01*
X352133Y156428D01*
X352743Y157342D01*
X353073Y159000D01*
X352743Y160658D01*
X351804Y162064D01*
X350398Y163003D01*
X348740Y163333D01*
D02*
G37*
G36*
X342000Y155333D02*
X340342Y155003D01*
X338936Y154064D01*
X337997Y152658D01*
X337667Y151000D01*
X337997Y149342D01*
X338936Y147936D01*
X340342Y146997D01*
X342000Y146667D01*
X343658Y146997D01*
X345064Y147936D01*
X346003Y149342D01*
X346333Y151000D01*
X346003Y152658D01*
X345064Y154064D01*
X343658Y155003D01*
X342000Y155333D01*
D02*
G37*
G36*
X700000Y154588D02*
X698244Y154239D01*
X696756Y153244D01*
X695761Y151756D01*
X695412Y150000D01*
X695761Y148244D01*
X696756Y146756D01*
X698244Y145761D01*
X700000Y145412D01*
X701756Y145761D01*
X703244Y146756D01*
X704239Y148244D01*
X704588Y150000D01*
X704239Y151756D01*
X703244Y153244D01*
X701756Y154239D01*
X700000Y154588D01*
D02*
G37*
G36*
X650000D02*
X648244Y154239D01*
X646756Y153244D01*
X645761Y151756D01*
X645412Y150000D01*
X645761Y148244D01*
X646756Y146756D01*
X648244Y145761D01*
X650000Y145412D01*
X651756Y145761D01*
X653244Y146756D01*
X654239Y148244D01*
X654588Y150000D01*
X654239Y151756D01*
X653244Y153244D01*
X651756Y154239D01*
X650000Y154588D01*
D02*
G37*
G36*
X600000D02*
X598244Y154239D01*
X596756Y153244D01*
X595761Y151756D01*
X595412Y150000D01*
X595761Y148244D01*
X596756Y146756D01*
X598244Y145761D01*
X600000Y145412D01*
X601756Y145761D01*
X603244Y146756D01*
X604239Y148244D01*
X604588Y150000D01*
X604239Y151756D01*
X603244Y153244D01*
X601756Y154239D01*
X600000Y154588D01*
D02*
G37*
G36*
X500000D02*
X498244Y154239D01*
X496756Y153244D01*
X495761Y151756D01*
X495412Y150000D01*
X495761Y148244D01*
X496756Y146756D01*
X498244Y145761D01*
X500000Y145412D01*
X501756Y145761D01*
X503244Y146756D01*
X504239Y148244D01*
X504588Y150000D01*
X504239Y151756D01*
X503244Y153244D01*
X501756Y154239D01*
X500000Y154588D01*
D02*
G37*
G36*
X450000D02*
X448244Y154239D01*
X446756Y153244D01*
X445761Y151756D01*
X445412Y150000D01*
X445761Y148244D01*
X446756Y146756D01*
X448244Y145761D01*
X450000Y145412D01*
X451756Y145761D01*
X453244Y146756D01*
X454239Y148244D01*
X454588Y150000D01*
X454239Y151756D01*
X453244Y153244D01*
X451756Y154239D01*
X450000Y154588D01*
D02*
G37*
G36*
X100000D02*
X98244Y154239D01*
X96756Y153244D01*
X95761Y151756D01*
X95412Y150000D01*
X95761Y148244D01*
X96756Y146756D01*
X98244Y145761D01*
X100000Y145412D01*
X101756Y145761D01*
X103244Y146756D01*
X104239Y148244D01*
X104588Y150000D01*
X104239Y151756D01*
X103244Y153244D01*
X101756Y154239D01*
X100000Y154588D01*
D02*
G37*
G36*
X50000D02*
X48244Y154239D01*
X46756Y153244D01*
X45761Y151756D01*
X45412Y150000D01*
X45761Y148244D01*
X46756Y146756D01*
X48244Y145761D01*
X50000Y145412D01*
X51756Y145761D01*
X53244Y146756D01*
X54239Y148244D01*
X54588Y150000D01*
X54239Y151756D01*
X53244Y153244D01*
X51756Y154239D01*
X50000Y154588D01*
D02*
G37*
G36*
X365000Y151333D02*
X363342Y151003D01*
X361936Y150064D01*
X360997Y148658D01*
X360667Y147000D01*
X360997Y145342D01*
X361936Y143936D01*
X363342Y142997D01*
X365000Y142667D01*
X366658Y142997D01*
X368064Y143936D01*
X369003Y145342D01*
X369333Y147000D01*
X369003Y148658D01*
X368064Y150064D01*
X366658Y151003D01*
X365000Y151333D01*
D02*
G37*
G36*
X385759Y149575D02*
X384100Y149245D01*
X382695Y148305D01*
X381755Y146900D01*
X381425Y145241D01*
X381755Y143583D01*
X382695Y142177D01*
X384100Y141238D01*
X385759Y140908D01*
X387417Y141238D01*
X388823Y142177D01*
X389762Y143583D01*
X390092Y145241D01*
X389762Y146900D01*
X388823Y148305D01*
X387417Y149245D01*
X385759Y149575D01*
D02*
G37*
G36*
X33000Y144333D02*
X31342Y144003D01*
X29936Y143064D01*
X28997Y141658D01*
X28667Y140000D01*
X28997Y138342D01*
X29936Y136936D01*
X31342Y135997D01*
X33000Y135667D01*
X34658Y135997D01*
X36064Y136936D01*
X37003Y138342D01*
X37333Y140000D01*
X37003Y141658D01*
X36064Y143064D01*
X34658Y144003D01*
X33000Y144333D01*
D02*
G37*
G36*
X590000Y141333D02*
X588342Y141003D01*
X586936Y140064D01*
X585997Y138658D01*
X585667Y137000D01*
X585997Y135342D01*
X586936Y133936D01*
X588342Y132997D01*
X590000Y132667D01*
X591658Y132997D01*
X593064Y133936D01*
X594003Y135342D01*
X594333Y137000D01*
X594003Y138658D01*
X593064Y140064D01*
X591658Y141003D01*
X590000Y141333D01*
D02*
G37*
G36*
X225000Y104588D02*
X223244Y104239D01*
X221756Y103244D01*
X220761Y101756D01*
X220412Y100000D01*
X220761Y98244D01*
X221756Y96756D01*
X223244Y95761D01*
X225000Y95412D01*
X226756Y95761D01*
X228244Y96756D01*
X229239Y98244D01*
X229588Y100000D01*
X229239Y101756D01*
X228244Y103244D01*
X226756Y104239D01*
X225000Y104588D01*
D02*
G37*
G36*
X175000D02*
X173244Y104239D01*
X171756Y103244D01*
X170761Y101756D01*
X170412Y100000D01*
X170761Y98244D01*
X171756Y96756D01*
X173244Y95761D01*
X175000Y95412D01*
X176756Y95761D01*
X178244Y96756D01*
X179239Y98244D01*
X179588Y100000D01*
X179239Y101756D01*
X178244Y103244D01*
X176756Y104239D01*
X175000Y104588D01*
D02*
G37*
G36*
X125000D02*
X123244Y104239D01*
X121756Y103244D01*
X120761Y101756D01*
X120412Y100000D01*
X120761Y98244D01*
X121756Y96756D01*
X123244Y95761D01*
X125000Y95412D01*
X126756Y95761D01*
X128244Y96756D01*
X129239Y98244D01*
X129588Y100000D01*
X129239Y101756D01*
X128244Y103244D01*
X126756Y104239D01*
X125000Y104588D01*
D02*
G37*
G36*
X75000D02*
X73244Y104239D01*
X71756Y103244D01*
X70761Y101756D01*
X70412Y100000D01*
X70761Y98244D01*
X71756Y96756D01*
X73244Y95761D01*
X75000Y95412D01*
X76756Y95761D01*
X78244Y96756D01*
X79239Y98244D01*
X79588Y100000D01*
X79239Y101756D01*
X78244Y103244D01*
X76756Y104239D01*
X75000Y104588D01*
D02*
G37*
G36*
X269826Y87583D02*
X268168Y87253D01*
X266762Y86314D01*
X265823Y84908D01*
X265493Y83250D01*
X265823Y81592D01*
X266762Y80186D01*
X268168Y79247D01*
X269826Y78917D01*
X271484Y79247D01*
X272890Y80186D01*
X273829Y81592D01*
X274159Y83250D01*
X273829Y84908D01*
X272890Y86314D01*
X271484Y87253D01*
X269826Y87583D01*
D02*
G37*
G36*
X419000Y84333D02*
X417342Y84003D01*
X415936Y83064D01*
X414997Y81658D01*
X414667Y80000D01*
X414997Y78342D01*
X415936Y76936D01*
X417342Y75997D01*
X419000Y75667D01*
X420658Y75997D01*
X422064Y76936D01*
X423003Y78342D01*
X423333Y80000D01*
X423003Y81658D01*
X422064Y83064D01*
X420658Y84003D01*
X419000Y84333D01*
D02*
G37*
G36*
X357000Y67333D02*
X355342Y67003D01*
X353936Y66064D01*
X352997Y64658D01*
X352667Y63000D01*
X352997Y61342D01*
X353936Y59936D01*
X355342Y58997D01*
X357000Y58667D01*
X358658Y58997D01*
X360064Y59936D01*
X361003Y61342D01*
X361333Y63000D01*
X361003Y64658D01*
X360064Y66064D01*
X358658Y67003D01*
X357000Y67333D01*
D02*
G37*
G36*
X131000Y64833D02*
X129342Y64503D01*
X127936Y63564D01*
X126997Y62158D01*
X126667Y60500D01*
X126997Y58842D01*
X127936Y57436D01*
X129342Y56497D01*
X131000Y56167D01*
X132658Y56497D01*
X134064Y57436D01*
X135003Y58842D01*
X135333Y60500D01*
X135003Y62158D01*
X134064Y63564D01*
X132658Y64503D01*
X131000Y64833D01*
D02*
G37*
G36*
X369050Y64833D02*
X367392Y64503D01*
X365986Y63564D01*
X365047Y62158D01*
X364717Y60500D01*
X365047Y58842D01*
X365986Y57436D01*
X367392Y56497D01*
X369050Y56167D01*
X370708Y56497D01*
X372114Y57436D01*
X373053Y58842D01*
X373383Y60500D01*
X373053Y62158D01*
X372114Y63564D01*
X370708Y64503D01*
X369050Y64833D01*
D02*
G37*
G36*
X450000Y54588D02*
X448244Y54239D01*
X446756Y53244D01*
X445761Y51756D01*
X445412Y50000D01*
X445761Y48244D01*
X446756Y46756D01*
X448244Y45761D01*
X450000Y45412D01*
X451756Y45761D01*
X453244Y46756D01*
X454239Y48244D01*
X454588Y50000D01*
X454239Y51756D01*
X453244Y53244D01*
X451756Y54239D01*
X450000Y54588D01*
D02*
G37*
G36*
X250000D02*
X248244Y54239D01*
X246756Y53244D01*
X245761Y51756D01*
X245412Y50000D01*
X245761Y48244D01*
X246756Y46756D01*
X248244Y45761D01*
X250000Y45412D01*
X251756Y45761D01*
X253244Y46756D01*
X254239Y48244D01*
X254588Y50000D01*
X254239Y51756D01*
X253244Y53244D01*
X251756Y54239D01*
X250000Y54588D01*
D02*
G37*
G36*
X200000D02*
X198244Y54239D01*
X196756Y53244D01*
X195761Y51756D01*
X195412Y50000D01*
X195761Y48244D01*
X196756Y46756D01*
X198244Y45761D01*
X200000Y45412D01*
X201756Y45761D01*
X203244Y46756D01*
X204239Y48244D01*
X204588Y50000D01*
X204239Y51756D01*
X203244Y53244D01*
X201756Y54239D01*
X200000Y54588D01*
D02*
G37*
G36*
X150000D02*
X148244Y54239D01*
X146756Y53244D01*
X145761Y51756D01*
X145412Y50000D01*
X145761Y48244D01*
X146756Y46756D01*
X148244Y45761D01*
X150000Y45412D01*
X151756Y45761D01*
X153244Y46756D01*
X154239Y48244D01*
X154588Y50000D01*
X154239Y51756D01*
X153244Y53244D01*
X151756Y54239D01*
X150000Y54588D01*
D02*
G37*
G36*
X100000D02*
X98244Y54239D01*
X96756Y53244D01*
X95761Y51756D01*
X95412Y50000D01*
X95761Y48244D01*
X96756Y46756D01*
X98244Y45761D01*
X100000Y45412D01*
X101756Y45761D01*
X103244Y46756D01*
X104239Y48244D01*
X104588Y50000D01*
X104239Y51756D01*
X103244Y53244D01*
X101756Y54239D01*
X100000Y54588D01*
D02*
G37*
G36*
X700000Y87114D02*
X694194Y86657D01*
X688531Y85298D01*
X683150Y83069D01*
X678185Y80026D01*
X673756Y76244D01*
X669974Y71815D01*
X666931Y66850D01*
X664702Y61469D01*
X663343Y55806D01*
X662886Y50000D01*
X663343Y44194D01*
X664702Y38531D01*
X666931Y33150D01*
X669974Y28185D01*
X673756Y23756D01*
X678185Y19974D01*
X683150Y16931D01*
X688531Y14702D01*
X694194Y13343D01*
X700000Y12886D01*
X705806Y13343D01*
X711469Y14702D01*
X716850Y16931D01*
X721815Y19974D01*
X726244Y23756D01*
X730026Y28185D01*
X733069Y33150D01*
X735298Y38531D01*
X736657Y44194D01*
X737114Y50000D01*
X736657Y55806D01*
X735298Y61469D01*
X733069Y66850D01*
X730026Y71815D01*
X726244Y76244D01*
X721815Y80026D01*
X716850Y83069D01*
X711469Y85298D01*
X705806Y86657D01*
X700000Y87114D01*
D02*
G37*
G36*
X50000Y87114D02*
X44194Y86657D01*
X38531Y85298D01*
X33150Y83069D01*
X28185Y80026D01*
X23756Y76244D01*
X19974Y71815D01*
X16931Y66850D01*
X14702Y61469D01*
X13343Y55806D01*
X12886Y50000D01*
X13343Y44194D01*
X14702Y38531D01*
X16931Y33150D01*
X19974Y28185D01*
X23756Y23756D01*
X28185Y19974D01*
X33150Y16931D01*
X38531Y14702D01*
X44194Y13342D01*
X50000Y12886D01*
X55806Y13342D01*
X61469Y14702D01*
X66850Y16931D01*
X71815Y19974D01*
X76244Y23756D01*
X80026Y28185D01*
X83069Y33150D01*
X85298Y38531D01*
X86657Y44194D01*
X87114Y50000D01*
X86657Y55806D01*
X85298Y61469D01*
X83069Y66850D01*
X80026Y71815D01*
X76244Y76244D01*
X71815Y80026D01*
X66850Y83069D01*
X61469Y85298D01*
X55806Y86657D01*
X50000Y87114D01*
D02*
G37*
%LPD*%
G36*
X718257Y111889D02*
X719265Y109457D01*
X720514Y107829D01*
X719923Y106559D01*
X474767D01*
X468558Y112768D01*
X469044Y113941D01*
X717987D01*
X718257Y111889D01*
D02*
G37*
D12*
X79000Y385000D02*
G03*
X83000Y381000I4000J0D01*
G01*
X396000D02*
G03*
X371000Y406000I-25000J0D01*
G01*
X396000Y363400D02*
G03*
X421400Y338000I25400J0D01*
G01*
X520000Y312600D02*
G03*
X494600Y338000I-25400J0D01*
G01*
X641600Y307000D02*
G03*
X667000Y332400I0J25400D01*
G01*
X79000Y441000D02*
G03*
X93000Y427000I14000J0D01*
G01*
X591400Y411600D02*
G03*
X566000Y386200I0J-25400D01*
G01*
X79000Y385000D02*
Y441000D01*
X318000Y414000D02*
Y415000D01*
Y414000D02*
X326000Y406000D01*
X566000Y341000D02*
Y386200D01*
X591400Y411600D02*
X730000D01*
X406000Y420000D02*
X414400Y411600D01*
X591400D01*
X406000Y420000D02*
Y427000D01*
X326000Y406000D02*
X371000D01*
X396000Y363400D02*
Y381000D01*
X421400Y338000D02*
X494600D01*
X520000Y307000D02*
X641600D01*
X520000D02*
Y312600D01*
X667000Y332400D02*
Y385000D01*
X93000Y427000D02*
X406000D01*
D15*
X291477Y207483D02*
X297869D01*
X288710Y210250D02*
X291477Y207483D01*
X20000Y169000D02*
X97000Y246000D01*
X286000Y246000D02*
X299000D01*
X286000Y246000D02*
X286000Y246000D01*
X299000D02*
X331000D01*
X97000Y246000D02*
X286000D01*
X65000Y227000D02*
X131250Y293250D01*
X307250D01*
X351214Y300210D02*
X351250Y300175D01*
Y232750D02*
Y300175D01*
X351214Y300210D02*
Y304538D01*
X353000Y306324D01*
X351250Y232750D02*
X467000Y117000D01*
X307250Y293250D02*
X320000Y306000D01*
X353000Y306324D02*
Y307000D01*
X412458Y295000D02*
X425239D01*
X411458Y294000D02*
X412458Y295000D01*
X398000Y294000D02*
X411458D01*
X425239Y295000D02*
X508139Y212100D01*
X681200D01*
X133725Y363250D02*
X333000D01*
X380005Y316245D01*
X130025Y366950D02*
X133725Y363250D01*
X130000Y366950D02*
X130025D01*
X136750Y397250D02*
X327750D01*
X383000Y342000D01*
X129000Y405000D02*
X136750Y397250D01*
X331000Y246000D02*
X473500Y103500D01*
X291117Y213500D02*
X296970D01*
X299470Y216000D01*
X306000D01*
X195993Y214000D02*
X200425D01*
X290000Y225000D02*
X292107Y222892D01*
Y221319D02*
X294000Y219426D01*
X180500Y205550D02*
X188450Y213500D01*
X292107Y221319D02*
Y222892D01*
X294000Y218750D02*
Y219426D01*
X188450Y213500D02*
X195493D01*
X200675Y214250D02*
X290367D01*
X291117Y213500D01*
X200425Y214000D02*
X200675Y214250D01*
X195493Y213500D02*
X195993Y214000D01*
X197650Y210000D02*
X247521D01*
X247771Y210250D02*
X288710D01*
X247521Y210000D02*
X247771Y210250D01*
X380005Y314831D02*
X383599Y311237D01*
Y311000D02*
Y311237D01*
X380005Y314831D02*
Y316245D01*
X180500Y192850D02*
X197650Y210000D01*
X180500Y218250D02*
X187250Y225000D01*
X290000D01*
X473500Y103500D02*
X732556D01*
X728000Y139900D02*
X729156Y138744D01*
Y128900D02*
Y138744D01*
Y128900D02*
X739000Y119056D01*
Y109944D02*
Y119056D01*
X732556Y103500D02*
X739000Y109944D01*
X725500Y117000D02*
X728000Y114500D01*
X516900Y216100D02*
X728000D01*
X414000Y319000D02*
X516900Y216100D01*
X681786Y211514D02*
X728000Y165300D01*
X681200Y212100D02*
X681786Y211514D01*
X467000Y117000D02*
X725500D01*
D24*
X442000Y484555D02*
D03*
X472000D02*
D03*
X442000Y514555D02*
D03*
X472000D02*
D03*
X502000D02*
D03*
D68*
X728000Y114500D02*
D03*
Y139900D02*
D03*
Y190700D02*
D03*
Y216100D02*
D03*
Y165300D02*
D03*
X730000Y411600D02*
D03*
Y386200D02*
D03*
D73*
X602600Y528000D02*
D03*
X577200D02*
D03*
X628000D02*
D03*
D81*
X700000Y50000D02*
D03*
X700000Y500000D02*
D03*
X50000Y500000D02*
D03*
X50000Y50000D02*
D03*
D82*
X25000Y268250D02*
D03*
Y205750D02*
D03*
D83*
X695500Y295250D02*
D03*
Y336750D02*
D03*
D84*
X728000Y241500D02*
D03*
X730000Y437000D02*
D03*
D85*
X502000Y484555D02*
D03*
D86*
X531690Y523445D02*
D03*
X412310D02*
D03*
D87*
X691000Y400767D02*
D03*
X273983Y183693D02*
D03*
X299265Y194949D02*
D03*
X291470Y188756D02*
D03*
X285918Y205000D02*
D03*
X297869Y207483D02*
D03*
X71750Y395000D02*
D03*
X299383Y316882D02*
D03*
X315750Y314885D02*
D03*
X326250Y314000D02*
D03*
X286000Y246000D02*
D03*
X375400Y434862D02*
D03*
X408036Y204611D02*
D03*
X413367Y199280D02*
D03*
X412030Y210280D02*
D03*
X400661Y217320D02*
D03*
X293070Y299070D02*
D03*
X320000Y306000D02*
D03*
X298000Y288000D02*
D03*
X309712Y305712D02*
D03*
X339000Y302000D02*
D03*
X346000Y298000D02*
D03*
X338000Y293000D02*
D03*
X353000Y307000D02*
D03*
X398000Y294000D02*
D03*
X410000Y300250D02*
D03*
X456030Y199030D02*
D03*
X411000Y221977D02*
D03*
X404581Y227161D02*
D03*
X408800Y271250D02*
D03*
X408940Y248881D02*
D03*
X408800Y237881D02*
D03*
X395734Y254381D02*
D03*
X408940Y260250D02*
D03*
X399000Y245000D02*
D03*
X401518Y286365D02*
D03*
X410000Y279750D02*
D03*
X299317Y84051D02*
D03*
X269826Y83250D02*
D03*
X247000Y368500D02*
D03*
X393250Y455000D02*
D03*
X393817Y435750D02*
D03*
X720000Y272250D02*
D03*
X677000Y268000D02*
D03*
X304500Y312125D02*
D03*
X280004Y310750D02*
D03*
X383000Y342000D02*
D03*
X365000Y147000D02*
D03*
X385759Y145241D02*
D03*
X359240Y157000D02*
D03*
X369740Y159000D02*
D03*
X348740D02*
D03*
X376000Y151000D02*
D03*
X390740Y160000D02*
D03*
X380240Y159000D02*
D03*
X395390Y153360D02*
D03*
X354000Y151125D02*
D03*
X342000Y151000D02*
D03*
X329000Y197000D02*
D03*
X343000Y199000D02*
D03*
X334750Y189230D02*
D03*
X299220Y185280D02*
D03*
X309000Y190000D02*
D03*
X316000Y198000D02*
D03*
X322000Y211000D02*
D03*
X304000Y236000D02*
D03*
X294000Y240750D02*
D03*
Y218750D02*
D03*
X309000Y224000D02*
D03*
X293000Y230250D02*
D03*
X306000Y216000D02*
D03*
X301000Y273000D02*
D03*
X290000Y280250D02*
D03*
X291000Y265000D02*
D03*
X389000Y303000D02*
D03*
X383599Y311000D02*
D03*
X405599Y310795D02*
D03*
X400000Y305000D02*
D03*
X394599Y312420D02*
D03*
X419000Y80000D02*
D03*
X443000Y89000D02*
D03*
X369050Y60500D02*
D03*
X357000Y63000D02*
D03*
X686000Y163000D02*
D03*
X636000Y223500D02*
D03*
X327000Y534500D02*
D03*
X351000Y537000D02*
D03*
X180500Y192850D02*
D03*
Y205550D02*
D03*
Y218250D02*
D03*
X199000Y263500D02*
D03*
Y282500D02*
D03*
X500000Y303000D02*
D03*
X183000Y392000D02*
D03*
X131000Y505000D02*
D03*
X414000Y319000D02*
D03*
X368000Y269500D02*
D03*
X663000Y252000D02*
D03*
X511000Y191000D02*
D03*
X361000Y481000D02*
D03*
X577000Y252000D02*
D03*
X590000Y137000D02*
D03*
X82000Y460000D02*
D03*
X551000Y282000D02*
D03*
X26000Y430250D02*
D03*
X50000Y390000D02*
D03*
X283500Y403000D02*
D03*
X485000Y443000D02*
D03*
X369000Y414000D02*
D03*
X343000Y417000D02*
D03*
X356000D02*
D03*
X632000Y390500D02*
D03*
X83000Y381000D02*
D03*
X331000Y418000D02*
D03*
X199000Y472000D02*
D03*
X302500Y403000D02*
D03*
X262000Y350000D02*
D03*
X189000Y405000D02*
D03*
X374000Y469000D02*
D03*
X130000Y366950D02*
D03*
X571000Y282000D02*
D03*
X113000Y313000D02*
D03*
X129000Y405000D02*
D03*
X131000Y60500D02*
D03*
X213000Y180000D02*
D03*
X200000Y192000D02*
D03*
X60000Y167000D02*
D03*
X33000Y140000D02*
D03*
X65000Y247000D02*
D03*
X52000Y331000D02*
D03*
X22000Y311000D02*
D03*
X294172Y436461D02*
D03*
X293000Y462250D02*
D03*
X329000Y460000D02*
D03*
Y490000D02*
D03*
X383250Y536000D02*
D03*
X617000Y295000D02*
D03*
X599000Y324750D02*
D03*
X667000Y294000D02*
D03*
X382000Y416000D02*
D03*
X394000Y415000D02*
D03*
X520000Y346000D02*
D03*
X544000Y342000D02*
D03*
X566000Y341000D02*
D03*
X604000Y196000D02*
D03*
X603000Y226000D02*
D03*
X578000Y224000D02*
D03*
X551000Y225000D02*
D03*
X611000Y443500D02*
D03*
X586000Y443000D02*
D03*
X65000Y227000D02*
D03*
Y267000D02*
D03*
X20000Y169000D02*
D03*
X399000Y265000D02*
D03*
X266000Y465000D02*
D03*
Y448000D02*
D03*
X283000Y462250D02*
D03*
X276000Y504000D02*
D03*
X274000Y533000D02*
D03*
X390000Y476000D02*
D03*
X383000Y513000D02*
D03*
X350000Y512000D02*
D03*
X252500Y533000D02*
D03*
X282000Y436000D02*
D03*
X303000Y505000D02*
D03*
Y536000D02*
D03*
X361500Y461000D02*
D03*
D88*
X673072Y401928D02*
D03*
X386393Y205393D02*
D03*
X357000Y289000D02*
D03*
X333000Y284000D02*
D03*
X700000Y450000D02*
D03*
Y350000D02*
D03*
Y150000D02*
D03*
X675000Y200000D02*
D03*
X650000Y150000D02*
D03*
X625000Y500000D02*
D03*
Y400000D02*
D03*
X600000Y150000D02*
D03*
X525000Y500000D02*
D03*
X500000Y350000D02*
D03*
Y250000D02*
D03*
Y150000D02*
D03*
X450000Y350000D02*
D03*
Y150000D02*
D03*
Y50000D02*
D03*
X425000Y500000D02*
D03*
Y400000D02*
D03*
X250000Y50000D02*
D03*
X225000Y500000D02*
D03*
X200000Y350000D02*
D03*
X225000Y100000D02*
D03*
X200000Y50000D02*
D03*
X150000Y350000D02*
D03*
X175000Y100000D02*
D03*
X150000Y50000D02*
D03*
X125000Y200000D02*
D03*
X100000Y150000D02*
D03*
X125000Y100000D02*
D03*
X100000Y50000D02*
D03*
X50000Y450000D02*
D03*
X75000Y300000D02*
D03*
X50000Y250000D02*
D03*
X75000Y200000D02*
D03*
X50000Y150000D02*
D03*
X75000Y100000D02*
D03*
X374000Y313000D02*
D03*
X361000Y311000D02*
D03*
X445844Y453120D02*
D03*
X456000Y464000D02*
D03*
X424000Y456000D02*
D03*
X434000Y467000D02*
D03*
X337000Y529000D02*
D03*
X314345Y528778D02*
D03*
X314000Y510000D02*
D03*
X337000Y511000D02*
D03*
X394000Y532000D02*
D03*
X456000Y527000D02*
D03*
X427000D02*
D03*
X353000Y452000D02*
D03*
X313000Y451000D02*
D03*
X380000Y299000D02*
D03*
X389000Y290000D02*
D03*
X394000Y276000D02*
D03*
X384000Y260000D02*
D03*
X387000Y250000D02*
D03*
X389000Y224000D02*
D03*
X351000Y192000D02*
D03*
X334000Y206000D02*
D03*
X306000Y207000D02*
D03*
X311000Y232000D02*
D03*
X305000Y281000D02*
D03*
X321000Y297000D02*
D03*
X680000Y70000D02*
D03*
X672500Y50000D02*
D03*
X680000Y30000D02*
D03*
X700000Y22500D02*
D03*
X720000Y30000D02*
D03*
X727500Y50000D02*
D03*
X720000Y70000D02*
D03*
X700000Y77500D02*
D03*
X700000Y527500D02*
D03*
X720000Y520000D02*
D03*
X727500Y500000D02*
D03*
X720000Y480000D02*
D03*
X700000Y472500D02*
D03*
X680000Y480000D02*
D03*
X672500Y500000D02*
D03*
X680000Y520000D02*
D03*
X50000Y527500D02*
D03*
X70000Y520000D02*
D03*
X77500Y500000D02*
D03*
X70000Y480000D02*
D03*
X50000Y472500D02*
D03*
X30000Y480000D02*
D03*
X22500Y500000D02*
D03*
X30000Y520000D02*
D03*
X50000Y77500D02*
D03*
X70000Y70000D02*
D03*
X77500Y50000D02*
D03*
X70000Y30000D02*
D03*
X50000Y22500D02*
D03*
X30000Y30000D02*
D03*
X22500Y50000D02*
D03*
X30000Y70000D02*
D03*
D89*
X318000Y415000D02*
D03*
X520000Y307000D02*
D03*
X79000Y441000D02*
D03*
X667000Y385000D02*
D03*
D90*
X406000Y427000D02*
D03*
M02*
