G04*
G04 #@! TF.GenerationSoftware,Altium Limited,Altium Designer,23.11.1 (41)*
G04*
G04 Layer_Color=16711935*
%FSLAX44Y44*%
%MOMM*%
G71*
G04*
G04 #@! TF.SameCoordinates,70E0329F-2711-4092-88A6-94C8EBD291D0*
G04*
G04*
G04 #@! TF.FilePolarity,Negative*
G04*
G01*
G75*
%ADD44R,1.6000X1.2000*%
%ADD46R,1.6500X1.4500*%
%ADD49C,2.3000*%
%ADD53R,1.2000X1.6000*%
%ADD57R,2.2500X1.7000*%
%ADD67C,7.3000*%
%ADD68C,1.6000*%
%ADD69C,1.0000*%
%ADD70C,1.9000*%
G04:AMPARAMS|DCode=71|XSize=1.9mm|YSize=1.9mm|CornerRadius=0.55mm|HoleSize=0mm|Usage=FLASHONLY|Rotation=270.000|XOffset=0mm|YOffset=0mm|HoleType=Round|Shape=RoundedRectangle|*
%AMROUNDEDRECTD71*
21,1,1.9000,0.8000,0,0,270.0*
21,1,0.8000,1.9000,0,0,270.0*
1,1,1.1000,-0.4000,-0.4000*
1,1,1.1000,-0.4000,0.4000*
1,1,1.1000,0.4000,0.4000*
1,1,1.1000,0.4000,-0.4000*
%
%ADD71ROUNDEDRECTD71*%
G04:AMPARAMS|DCode=72|XSize=2.3mm|YSize=2.3mm|CornerRadius=0.65mm|HoleSize=0mm|Usage=FLASHONLY|Rotation=90.000|XOffset=0mm|YOffset=0mm|HoleType=Round|Shape=RoundedRectangle|*
%AMROUNDEDRECTD72*
21,1,2.3000,1.0000,0,0,90.0*
21,1,1.0000,2.3000,0,0,90.0*
1,1,1.3000,0.5000,0.5000*
1,1,1.3000,0.5000,-0.5000*
1,1,1.3000,-0.5000,-0.5000*
1,1,1.3000,-0.5000,0.5000*
%
%ADD72ROUNDEDRECTD72*%
%ADD73C,1.5000*%
%ADD74C,1.8000*%
%ADD75C,0.8000*%
%ADD76C,0.6000*%
%ADD77C,0.7000*%
%ADD93R,1.0500X2.7000*%
G04:AMPARAMS|DCode=94|XSize=2.05mm|YSize=1.55mm|CornerRadius=0.4625mm|HoleSize=0mm|Usage=FLASHONLY|Rotation=0.000|XOffset=0mm|YOffset=0mm|HoleType=Round|Shape=RoundedRectangle|*
%AMROUNDEDRECTD94*
21,1,2.0500,0.6250,0,0,0.0*
21,1,1.1250,1.5500,0,0,0.0*
1,1,0.9250,0.5625,-0.3125*
1,1,0.9250,-0.5625,-0.3125*
1,1,0.9250,-0.5625,0.3125*
1,1,0.9250,0.5625,0.3125*
%
%ADD94ROUNDEDRECTD94*%
%ADD95R,1.5000X1.9000*%
%ADD96R,2.7000X1.0500*%
D44*
X632000Y367500D02*
D03*
Y390500D02*
D03*
X636000Y223500D02*
D03*
Y200500D02*
D03*
X127000Y147500D02*
D03*
Y128500D02*
D03*
X147000Y147500D02*
D03*
Y128500D02*
D03*
X150000Y184500D02*
D03*
Y165500D02*
D03*
X128000Y183500D02*
D03*
Y164500D02*
D03*
X640000Y294500D02*
D03*
Y313500D02*
D03*
X617000Y295000D02*
D03*
Y314000D02*
D03*
X675000Y244500D02*
D03*
Y263500D02*
D03*
X651000Y244500D02*
D03*
Y263500D02*
D03*
X700000Y207500D02*
D03*
Y230500D02*
D03*
X547000Y357500D02*
D03*
Y376500D02*
D03*
X572000Y376500D02*
D03*
Y357500D02*
D03*
X634000Y419500D02*
D03*
Y442500D02*
D03*
X611000Y420500D02*
D03*
Y443500D02*
D03*
D46*
X667000Y294750D02*
D03*
Y313250D02*
D03*
X668000Y330750D02*
D03*
Y349250D02*
D03*
X551000Y234000D02*
D03*
Y252500D02*
D03*
X578000Y230750D02*
D03*
Y249250D02*
D03*
X605000Y245250D02*
D03*
Y226750D02*
D03*
X51000Y331750D02*
D03*
Y350250D02*
D03*
X98000Y405000D02*
D03*
Y423500D02*
D03*
X24000Y331750D02*
D03*
Y350250D02*
D03*
D49*
X442000Y484555D02*
D03*
X472000D02*
D03*
X442000Y514555D02*
D03*
X472000D02*
D03*
X502000D02*
D03*
D53*
X385500Y458000D02*
D03*
X362500D02*
D03*
X385500Y441000D02*
D03*
X362500D02*
D03*
X425500Y443000D02*
D03*
X402500D02*
D03*
X394500Y513000D02*
D03*
X371500D02*
D03*
X350500Y535000D02*
D03*
X327500D02*
D03*
X266500Y466000D02*
D03*
X243500D02*
D03*
Y447000D02*
D03*
X266500D02*
D03*
X252500Y533000D02*
D03*
X275500D02*
D03*
Y505000D02*
D03*
X252500D02*
D03*
X326500Y513000D02*
D03*
X349500D02*
D03*
D57*
X598000Y354000D02*
D03*
Y326000D02*
D03*
D67*
X700000Y50000D02*
D03*
X700000Y500000D02*
D03*
X50000Y500000D02*
D03*
X50000Y50000D02*
D03*
D68*
X25000Y268250D02*
D03*
Y205750D02*
D03*
D69*
X695500Y295250D02*
D03*
Y336750D02*
D03*
D70*
X728000Y114500D02*
D03*
Y139900D02*
D03*
Y190700D02*
D03*
Y216100D02*
D03*
Y165300D02*
D03*
X730000Y411600D02*
D03*
Y386200D02*
D03*
D71*
X728000Y241500D02*
D03*
X730000Y437000D02*
D03*
D72*
X502000Y484555D02*
D03*
D73*
X531690Y523445D02*
D03*
X412310D02*
D03*
D74*
X602600Y528000D02*
D03*
X577200D02*
D03*
X628000D02*
D03*
D75*
X700000Y450000D02*
D03*
Y350000D02*
D03*
Y150000D02*
D03*
X675000Y400000D02*
D03*
Y200000D02*
D03*
X650000Y150000D02*
D03*
X625000Y500000D02*
D03*
Y400000D02*
D03*
X600000Y150000D02*
D03*
X525000Y500000D02*
D03*
X500000Y350000D02*
D03*
Y250000D02*
D03*
Y150000D02*
D03*
X450000Y350000D02*
D03*
Y150000D02*
D03*
Y50000D02*
D03*
X425000Y500000D02*
D03*
Y400000D02*
D03*
X250000Y50000D02*
D03*
X225000Y500000D02*
D03*
X200000Y350000D02*
D03*
X225000Y100000D02*
D03*
X200000Y50000D02*
D03*
X150000Y350000D02*
D03*
X175000Y100000D02*
D03*
X150000Y50000D02*
D03*
X125000Y200000D02*
D03*
X100000Y150000D02*
D03*
X125000Y100000D02*
D03*
X100000Y50000D02*
D03*
X50000Y450000D02*
D03*
X75000Y300000D02*
D03*
X50000Y250000D02*
D03*
X75000Y200000D02*
D03*
X50000Y150000D02*
D03*
X75000Y100000D02*
D03*
X372000Y310000D02*
D03*
X363000D02*
D03*
X354000D02*
D03*
X445844Y453120D02*
D03*
X456000Y464000D02*
D03*
X424000Y456000D02*
D03*
X434000Y467000D02*
D03*
X337000Y529000D02*
D03*
X314345Y528778D02*
D03*
X314000Y510000D02*
D03*
X337000Y511000D02*
D03*
X394000Y532000D02*
D03*
X456000Y527000D02*
D03*
X427000D02*
D03*
X353000Y452000D02*
D03*
X313000Y451000D02*
D03*
X380000Y299000D02*
D03*
X393000Y290000D02*
D03*
X400000Y274000D02*
D03*
X390000Y260000D02*
D03*
Y250000D02*
D03*
X395000Y221000D02*
D03*
X396000Y209000D02*
D03*
X351000Y192000D02*
D03*
X334000Y206000D02*
D03*
X306000Y207000D02*
D03*
X309000Y230000D02*
D03*
X299000Y247000D02*
D03*
X305000Y281000D02*
D03*
X335000Y299000D02*
D03*
X325000D02*
D03*
X680000Y70000D02*
D03*
X672500Y50000D02*
D03*
X680000Y30000D02*
D03*
X700000Y22500D02*
D03*
X720000Y30000D02*
D03*
X727500Y50000D02*
D03*
X720000Y70000D02*
D03*
X700000Y77500D02*
D03*
X700000Y527500D02*
D03*
X720000Y520000D02*
D03*
X727500Y500000D02*
D03*
X720000Y480000D02*
D03*
X700000Y472500D02*
D03*
X680000Y480000D02*
D03*
X672500Y500000D02*
D03*
X680000Y520000D02*
D03*
X50000Y527500D02*
D03*
X70000Y520000D02*
D03*
X77500Y500000D02*
D03*
X70000Y480000D02*
D03*
X50000Y472500D02*
D03*
X30000Y480000D02*
D03*
X22500Y500000D02*
D03*
X30000Y520000D02*
D03*
X50000Y77500D02*
D03*
X70000Y70000D02*
D03*
X77500Y50000D02*
D03*
X70000Y30000D02*
D03*
X50000Y22500D02*
D03*
X30000Y30000D02*
D03*
X22500Y50000D02*
D03*
X30000Y70000D02*
D03*
D76*
X279413Y310000D02*
D03*
X290773Y303156D02*
D03*
X273800Y85157D02*
D03*
X298310Y84446D02*
D03*
X419000Y80000D02*
D03*
X443000Y89000D02*
D03*
X369050Y60500D02*
D03*
X357000Y63000D02*
D03*
X686000Y163000D02*
D03*
X636000Y223500D02*
D03*
X327000Y534500D02*
D03*
X351000Y537000D02*
D03*
X390000Y160000D02*
D03*
X370000Y159000D02*
D03*
X360000Y160000D02*
D03*
X350000Y159000D02*
D03*
X345000Y314000D02*
D03*
X335000D02*
D03*
X325000D02*
D03*
X315000D02*
D03*
X305000Y312000D02*
D03*
X300000Y317000D02*
D03*
X290000Y280000D02*
D03*
X286000Y245000D02*
D03*
X288000Y190000D02*
D03*
X289000Y205000D02*
D03*
X305000Y191000D02*
D03*
X299750Y184750D02*
D03*
X310000Y198000D02*
D03*
X315000Y211000D02*
D03*
X180500Y192850D02*
D03*
Y205550D02*
D03*
Y218250D02*
D03*
X198000Y219000D02*
D03*
X199000Y263500D02*
D03*
Y282500D02*
D03*
X500000Y303000D02*
D03*
X183000Y392000D02*
D03*
X131000Y505000D02*
D03*
X414000Y319000D02*
D03*
X295000Y210000D02*
D03*
X301000Y200000D02*
D03*
X294000Y195000D02*
D03*
X412000Y210000D02*
D03*
X405000Y205000D02*
D03*
X412000Y200000D02*
D03*
X404000Y215000D02*
D03*
X411000Y220000D02*
D03*
X404000Y225000D02*
D03*
X368000Y269500D02*
D03*
X380000Y159000D02*
D03*
X374980Y151980D02*
D03*
X364820Y151000D02*
D03*
X354750D02*
D03*
X344956D02*
D03*
X340000Y199000D02*
D03*
X663000Y252000D02*
D03*
X511000Y191000D02*
D03*
X361000Y481000D02*
D03*
X577000Y252000D02*
D03*
X590000Y137000D02*
D03*
X72500Y400000D02*
D03*
X82000Y460000D02*
D03*
X551000Y282000D02*
D03*
X26000Y430250D02*
D03*
X50000Y390000D02*
D03*
X283500Y403000D02*
D03*
X455000Y199000D02*
D03*
X719000Y273000D02*
D03*
X485000Y443000D02*
D03*
X369000Y414000D02*
D03*
X343000Y417000D02*
D03*
X356000D02*
D03*
X380000Y342000D02*
D03*
X632000Y390500D02*
D03*
X83000Y381000D02*
D03*
X331000Y418000D02*
D03*
X406000Y427000D02*
D03*
X691000Y405100D02*
D03*
X199000Y472000D02*
D03*
X302500Y403000D02*
D03*
X262000Y350000D02*
D03*
X247000Y368000D02*
D03*
X296500Y285500D02*
D03*
X290000Y270000D02*
D03*
X300000Y275000D02*
D03*
X189000Y405000D02*
D03*
X374000Y435500D02*
D03*
Y469000D02*
D03*
X385250Y311000D02*
D03*
X130000Y366950D02*
D03*
X571000Y282000D02*
D03*
X113000Y313000D02*
D03*
X129000Y405000D02*
D03*
X131000Y60500D02*
D03*
X213000Y180000D02*
D03*
X200000Y192000D02*
D03*
X60000Y167000D02*
D03*
X33000Y140000D02*
D03*
X65000Y247000D02*
D03*
X52000Y331000D02*
D03*
X22000Y311000D02*
D03*
X394000Y435000D02*
D03*
X294172Y436461D02*
D03*
X393000Y455000D02*
D03*
X293000Y462250D02*
D03*
X329000Y460000D02*
D03*
Y490000D02*
D03*
X383250Y536000D02*
D03*
X617000Y295000D02*
D03*
X599000Y324750D02*
D03*
X667000Y294000D02*
D03*
X382000Y416000D02*
D03*
X394000Y415000D02*
D03*
X520000Y346000D02*
D03*
X544000Y342000D02*
D03*
X566000Y341000D02*
D03*
X604000Y196000D02*
D03*
X603000Y226000D02*
D03*
X578000Y224000D02*
D03*
X551000Y225000D02*
D03*
X677000Y267000D02*
D03*
X403000Y285000D02*
D03*
X611000Y443500D02*
D03*
X586000Y443000D02*
D03*
X394970Y152400D02*
D03*
X302000Y235000D02*
D03*
X384810Y151130D02*
D03*
X294000Y240000D02*
D03*
X405336Y310795D02*
D03*
X390000Y304000D02*
D03*
X65000Y227000D02*
D03*
Y267000D02*
D03*
X20000Y169000D02*
D03*
X409000Y240000D02*
D03*
X399000Y245000D02*
D03*
X408940Y259750D02*
D03*
X398000Y255000D02*
D03*
X399000Y265000D02*
D03*
X410000Y300000D02*
D03*
X402000Y295000D02*
D03*
X410000Y280000D02*
D03*
Y270000D02*
D03*
X340000Y306000D02*
D03*
X330000D02*
D03*
X310000D02*
D03*
X320000D02*
D03*
X394970Y312420D02*
D03*
X266000Y465000D02*
D03*
Y448000D02*
D03*
X283000Y462250D02*
D03*
X276000Y504000D02*
D03*
X274000Y533000D02*
D03*
X390000Y476000D02*
D03*
X383000Y513000D02*
D03*
X350000Y512000D02*
D03*
X252500Y533000D02*
D03*
X282000Y436000D02*
D03*
X303000Y505000D02*
D03*
Y536000D02*
D03*
X361500Y461000D02*
D03*
X303000Y215000D02*
D03*
X295000Y220000D02*
D03*
X302000Y225000D02*
D03*
X293000Y230000D02*
D03*
X330200Y196850D02*
D03*
X335280Y189230D02*
D03*
X400050Y306070D02*
D03*
X408940Y250220D02*
D03*
D77*
X318000Y415000D02*
D03*
X520000Y307000D02*
D03*
X79000Y441000D02*
D03*
X667000Y385000D02*
D03*
D93*
X432550Y60500D02*
D03*
X419850D02*
D03*
X407150D02*
D03*
X394450D02*
D03*
X381750D02*
D03*
X432550Y99500D02*
D03*
X419850D02*
D03*
X407150D02*
D03*
X394450D02*
D03*
X381750D02*
D03*
X369050Y60500D02*
D03*
X356350D02*
D03*
X369050Y99500D02*
D03*
X356350D02*
D03*
X343650Y60500D02*
D03*
Y99500D02*
D03*
X267450Y60500D02*
D03*
Y99500D02*
D03*
X280150D02*
D03*
Y60500D02*
D03*
X292850Y99500D02*
D03*
Y60500D02*
D03*
X305550Y99500D02*
D03*
Y60500D02*
D03*
X318250Y99500D02*
D03*
X330950D02*
D03*
X318250Y60500D02*
D03*
X330950D02*
D03*
Y380500D02*
D03*
X318250D02*
D03*
X330950Y419500D02*
D03*
X318250D02*
D03*
X305550Y380500D02*
D03*
Y419500D02*
D03*
X292850Y380500D02*
D03*
Y419500D02*
D03*
X280150Y380500D02*
D03*
Y419500D02*
D03*
X267450D02*
D03*
Y380500D02*
D03*
X343650Y419500D02*
D03*
Y380500D02*
D03*
X356350Y419500D02*
D03*
X369050D02*
D03*
X356350Y380500D02*
D03*
X369050D02*
D03*
X381750Y419500D02*
D03*
X394450D02*
D03*
X407150D02*
D03*
X419850D02*
D03*
X432550D02*
D03*
X381750Y380500D02*
D03*
X394450D02*
D03*
X407150D02*
D03*
X419850D02*
D03*
X432550D02*
D03*
D94*
X719000Y311250D02*
D03*
Y282750D02*
D03*
X691000Y438250D02*
D03*
Y409750D02*
D03*
D95*
X31500Y140000D02*
D03*
X62500D02*
D03*
D96*
X219500Y230950D02*
D03*
Y218250D02*
D03*
X180500Y230950D02*
D03*
Y218250D02*
D03*
X219500Y205550D02*
D03*
X180500D02*
D03*
X219500Y192850D02*
D03*
X180500D02*
D03*
X219500Y180150D02*
D03*
X180500D02*
D03*
Y167450D02*
D03*
X219500D02*
D03*
X180500Y243650D02*
D03*
X219500D02*
D03*
X180500Y256350D02*
D03*
Y269050D02*
D03*
X219500Y256350D02*
D03*
Y269050D02*
D03*
X180500Y281750D02*
D03*
Y294450D02*
D03*
Y307150D02*
D03*
Y319850D02*
D03*
Y332550D02*
D03*
X219500Y281750D02*
D03*
Y294450D02*
D03*
Y307150D02*
D03*
Y319850D02*
D03*
Y332550D02*
D03*
X480500Y269050D02*
D03*
Y281750D02*
D03*
X519500Y269050D02*
D03*
Y281750D02*
D03*
X480500Y294450D02*
D03*
X519500D02*
D03*
X480500Y307150D02*
D03*
X519500D02*
D03*
X480500Y319850D02*
D03*
X519500D02*
D03*
Y332550D02*
D03*
X480500D02*
D03*
X519500Y256350D02*
D03*
X480500D02*
D03*
X519500Y243650D02*
D03*
Y230950D02*
D03*
X480500Y243650D02*
D03*
Y230950D02*
D03*
X519500Y218250D02*
D03*
Y205550D02*
D03*
Y192850D02*
D03*
Y180150D02*
D03*
Y167450D02*
D03*
X480500Y218250D02*
D03*
Y205550D02*
D03*
Y192850D02*
D03*
Y180150D02*
D03*
Y167450D02*
D03*
M02*
