G04*
G04 #@! TF.GenerationSoftware,Altium Limited,Altium Designer,23.11.1 (41)*
G04*
G04 Layer_Physical_Order=4*
G04 Layer_Color=16711680*
%FSLAX44Y44*%
%MOMM*%
G71*
G04*
G04 #@! TF.SameCoordinates,0DF123BF-E9B0-4B01-884F-CD338A10EF4C*
G04*
G04*
G04 #@! TF.FilePolarity,Positive*
G04*
G01*
G75*
%ADD10C,0.2500*%
%ADD12C,0.6000*%
%ADD15C,0.2000*%
%ADD19R,1.3000X0.9000*%
%ADD21R,1.3500X1.1500*%
%ADD24C,2.0000*%
%ADD28R,0.9000X1.3000*%
%ADD32R,1.9500X1.4000*%
%ADD68C,1.6000*%
%ADD73C,1.5000*%
%ADD80C,0.3000*%
%ADD81C,7.0000*%
%ADD82C,1.3000*%
%ADD83C,0.7000*%
G04:AMPARAMS|DCode=84|XSize=1.6mm|YSize=1.6mm|CornerRadius=0.4mm|HoleSize=0mm|Usage=FLASHONLY|Rotation=270.000|XOffset=0mm|YOffset=0mm|HoleType=Round|Shape=RoundedRectangle|*
%AMROUNDEDRECTD84*
21,1,1.6000,0.8000,0,0,270.0*
21,1,0.8000,1.6000,0,0,270.0*
1,1,0.8000,-0.4000,-0.4000*
1,1,0.8000,-0.4000,0.4000*
1,1,0.8000,0.4000,0.4000*
1,1,0.8000,0.4000,-0.4000*
%
%ADD84ROUNDEDRECTD84*%
G04:AMPARAMS|DCode=85|XSize=2mm|YSize=2mm|CornerRadius=0.5mm|HoleSize=0mm|Usage=FLASHONLY|Rotation=90.000|XOffset=0mm|YOffset=0mm|HoleType=Round|Shape=RoundedRectangle|*
%AMROUNDEDRECTD85*
21,1,2.0000,1.0000,0,0,90.0*
21,1,1.0000,2.0000,0,0,90.0*
1,1,1.0000,0.5000,0.5000*
1,1,1.0000,0.5000,-0.5000*
1,1,1.0000,-0.5000,-0.5000*
1,1,1.0000,-0.5000,0.5000*
%
%ADD85ROUNDEDRECTD85*%
%ADD86C,1.2000*%
%ADD87C,0.4500*%
%ADD88C,0.5000*%
%ADD89C,0.4000*%
%ADD90C,0.3000*%
%ADD91R,0.7500X2.4000*%
G04:AMPARAMS|DCode=92|XSize=1.75mm|YSize=1.25mm|CornerRadius=0.3125mm|HoleSize=0mm|Usage=FLASHONLY|Rotation=0.000|XOffset=0mm|YOffset=0mm|HoleType=Round|Shape=RoundedRectangle|*
%AMROUNDEDRECTD92*
21,1,1.7500,0.6250,0,0,0.0*
21,1,1.1250,1.2500,0,0,0.0*
1,1,0.6250,0.5625,-0.3125*
1,1,0.6250,-0.5625,-0.3125*
1,1,0.6250,-0.5625,0.3125*
1,1,0.6250,0.5625,0.3125*
%
%ADD92ROUNDEDRECTD92*%
%ADD93R,1.2000X1.6000*%
%ADD94R,2.4000X0.7500*%
G36*
X700000Y550000D02*
X703277D01*
X709775Y549144D01*
X716106Y547448D01*
X722162Y544940D01*
X727838Y541663D01*
X733038Y537673D01*
X737673Y533038D01*
X741663Y527838D01*
X744940Y522162D01*
X747448Y516106D01*
X749144Y509775D01*
X750000Y503277D01*
Y500000D01*
X750000Y500000D01*
X750000Y500000D01*
X750000Y50000D01*
Y46723D01*
X749145Y40224D01*
X747448Y33893D01*
X744940Y27838D01*
X741663Y22162D01*
X737673Y16962D01*
X733038Y12327D01*
X727838Y8337D01*
X722162Y5060D01*
X716106Y2552D01*
X709775Y856D01*
X703277Y0D01*
X700000Y0D01*
X50000Y0D01*
X46723D01*
X40224Y856D01*
X33893Y2552D01*
X27838Y5060D01*
X22162Y8337D01*
X16962Y12327D01*
X12327Y16962D01*
X8337Y22162D01*
X5060Y27838D01*
X2552Y33893D01*
X856Y40224D01*
X0Y46723D01*
X0Y50000D01*
X0Y500000D01*
Y503277D01*
X856Y509775D01*
X2552Y516106D01*
X5060Y522162D01*
X8337Y527838D01*
X12327Y533038D01*
X16962Y537673D01*
X22162Y541663D01*
X27838Y544940D01*
X33893Y547448D01*
X40224Y549144D01*
X46723Y550000D01*
X50000D01*
X50000Y550000D01*
X700000Y550000D01*
D02*
G37*
%LPC*%
G36*
X282000Y541500D02*
X269000D01*
Y524500D01*
X282000D01*
Y529941D01*
X299729D01*
X299729Y529941D01*
X300900Y530174D01*
X301892Y530837D01*
X302805Y531750D01*
X303845D01*
X305407Y532397D01*
X306603Y533593D01*
X307250Y535155D01*
Y536845D01*
X306603Y538407D01*
X305407Y539603D01*
X303845Y540250D01*
X302155D01*
X300593Y539603D01*
X299397Y538407D01*
X298750Y536845D01*
Y536346D01*
X298462Y536059D01*
X282000D01*
Y541500D01*
D02*
G37*
G36*
X578451Y537500D02*
X575949D01*
X573533Y536853D01*
X571367Y535602D01*
X569598Y533833D01*
X568347Y531667D01*
X567700Y529251D01*
Y526749D01*
X568347Y524333D01*
X569598Y522167D01*
X571367Y520398D01*
X573533Y519147D01*
X575949Y518500D01*
X578451D01*
X580867Y519147D01*
X583033Y520398D01*
X584802Y522167D01*
X586053Y524333D01*
X586700Y526749D01*
Y529251D01*
X586053Y531667D01*
X584802Y533833D01*
X583033Y535602D01*
X580867Y536853D01*
X578451Y537500D01*
D02*
G37*
G36*
X532743Y531445D02*
X530637D01*
X528602Y530900D01*
X526778Y529847D01*
X525288Y528357D01*
X524235Y526533D01*
X523690Y524498D01*
Y522392D01*
X524235Y520357D01*
X525288Y518533D01*
X526778Y517043D01*
X528602Y515990D01*
X530637Y515445D01*
X532743D01*
X534778Y515990D01*
X536602Y517043D01*
X538092Y518533D01*
X539145Y520357D01*
X539690Y522392D01*
Y524498D01*
X539145Y526533D01*
X538092Y528357D01*
X536602Y529847D01*
X534778Y530900D01*
X532743Y531445D01*
D02*
G37*
G36*
X413363D02*
X411257D01*
X409222Y530900D01*
X407398Y529847D01*
X405908Y528357D01*
X404855Y526533D01*
X404310Y524498D01*
Y522392D01*
X404855Y520357D01*
X405908Y518533D01*
X407398Y517043D01*
X409222Y515990D01*
X411257Y515445D01*
X413363D01*
X415398Y515990D01*
X417222Y517043D01*
X418712Y518533D01*
X419765Y520357D01*
X420310Y522392D01*
Y524498D01*
X419765Y526533D01*
X418712Y528357D01*
X417222Y529847D01*
X415398Y530900D01*
X413363Y531445D01*
D02*
G37*
G36*
X327500Y538059D02*
X326329Y537826D01*
X325337Y537163D01*
X324837Y536663D01*
X324837Y536663D01*
X324337Y536163D01*
X323674Y535171D01*
X323441Y534000D01*
X323441Y534000D01*
Y513000D01*
X323674Y511829D01*
X324337Y510837D01*
X325330Y510174D01*
X326500Y509941D01*
X327671Y510174D01*
X328663Y510837D01*
X329326Y511829D01*
X329559Y513000D01*
Y532733D01*
X329663Y532837D01*
X330326Y533829D01*
X330559Y535000D01*
X330326Y536171D01*
X329663Y537163D01*
X328671Y537826D01*
X327500Y538059D01*
D02*
G37*
G36*
X442000Y518124D02*
X440634Y517852D01*
X439477Y517078D01*
X437922Y515523D01*
X437148Y514366D01*
X436876Y513000D01*
X437148Y511634D01*
X437922Y510477D01*
X439079Y509703D01*
X440445Y509431D01*
X441811Y509703D01*
X442968Y510477D01*
X444523Y512032D01*
X445297Y513189D01*
X445569Y514555D01*
X445297Y515921D01*
X444523Y517078D01*
X443366Y517852D01*
X442000Y518124D01*
D02*
G37*
G36*
X357000Y543500D02*
X344000D01*
Y526500D01*
X350155D01*
X350295Y525794D01*
X350959Y524802D01*
X351272Y524488D01*
Y523218D01*
X350837Y522784D01*
X350174Y521792D01*
X350116Y521500D01*
X343000D01*
Y504500D01*
X354836D01*
X354958Y504316D01*
X376937Y482338D01*
Y480059D01*
X366267D01*
X365250Y481076D01*
Y481845D01*
X364603Y483407D01*
X363407Y484603D01*
X361845Y485250D01*
X360155D01*
X358593Y484603D01*
X357397Y483407D01*
X356750Y481845D01*
Y480155D01*
X357397Y478593D01*
X358593Y477397D01*
X360155Y476750D01*
X360924D01*
X362837Y474837D01*
X362837Y474837D01*
X363829Y474174D01*
X365000Y473941D01*
X365000Y473941D01*
X371505D01*
X371757Y472671D01*
X371593Y472603D01*
X370397Y471407D01*
X369750Y469845D01*
Y468155D01*
X370397Y466593D01*
X370941Y466048D01*
Y436939D01*
X370941Y436938D01*
X371174Y435768D01*
X371175Y435767D01*
X371150Y435707D01*
Y434627D01*
X370094Y433500D01*
X363370D01*
X363300Y433500D01*
X362100D01*
X362030Y433500D01*
X350670D01*
X350600Y433500D01*
X349400D01*
X349330Y433500D01*
X337970D01*
X337900Y433500D01*
X336700D01*
X336630Y433500D01*
X325270D01*
X325200Y433500D01*
X324000D01*
X323930Y433500D01*
X312500D01*
Y433500D01*
X311300D01*
Y433500D01*
X299800D01*
Y433500D01*
X298600D01*
X298071Y434770D01*
X298422Y435615D01*
Y437306D01*
X297775Y438868D01*
X297230Y439412D01*
Y444539D01*
X298926D01*
X298927Y444539D01*
X300097Y444772D01*
X301089Y445435D01*
X321768Y466114D01*
X322941Y465628D01*
Y463000D01*
X322941Y463000D01*
X323174Y461829D01*
X323837Y460837D01*
X324750Y459924D01*
Y459155D01*
X325397Y457593D01*
X326593Y456397D01*
X328155Y455750D01*
X329845D01*
X331407Y456397D01*
X332603Y457593D01*
X333250Y459155D01*
Y460845D01*
X332603Y462407D01*
X331407Y463603D01*
X329845Y464250D01*
X329076D01*
X329059Y464267D01*
Y470671D01*
X329059Y470672D01*
X328826Y471842D01*
X328163Y472834D01*
X328991Y473680D01*
X330163Y474852D01*
X330163Y474852D01*
X330826Y475844D01*
X331059Y477015D01*
X331059Y477015D01*
Y486253D01*
X331407Y486397D01*
X332603Y487593D01*
X333250Y489155D01*
Y490845D01*
X332603Y492407D01*
X331407Y493603D01*
X329845Y494250D01*
X328155D01*
X326593Y493603D01*
X325397Y492407D01*
X324750Y490845D01*
Y489155D01*
X325034Y488468D01*
X324941Y488000D01*
Y478902D01*
X321515D01*
X320344Y478669D01*
X319352Y478006D01*
X319352Y478006D01*
X297329Y455983D01*
X296059Y456509D01*
Y459298D01*
X296603Y459843D01*
X297250Y461405D01*
Y463095D01*
X296603Y464657D01*
X295407Y465853D01*
X293845Y466500D01*
X292155D01*
X290593Y465853D01*
X289397Y464657D01*
X288750Y463095D01*
Y461405D01*
X289397Y459843D01*
X289941Y459298D01*
Y453941D01*
X289941Y453941D01*
X290174Y452771D01*
X290837Y451778D01*
X292382Y450233D01*
Y448963D01*
X292009Y448589D01*
X291346Y447597D01*
X291113Y446427D01*
X291113Y446426D01*
Y439412D01*
X290569Y438868D01*
X289922Y437306D01*
Y435615D01*
X290272Y434770D01*
X289463Y433500D01*
X287182D01*
X286798Y433577D01*
X286029Y434456D01*
X286063Y434703D01*
X286250Y435155D01*
Y436845D01*
X285603Y438407D01*
X284407Y439603D01*
X282845Y440250D01*
X282076D01*
X278663Y443663D01*
X277670Y444326D01*
X276500Y444559D01*
X276500Y444559D01*
X273000D01*
Y455500D01*
X260000D01*
Y438500D01*
X269704D01*
X270000Y438441D01*
X270000Y438441D01*
X275233D01*
X277750Y435924D01*
Y435155D01*
X277909Y434770D01*
X277061Y433500D01*
X274400D01*
Y433500D01*
X273200D01*
Y433500D01*
X273130Y433500D01*
X261700D01*
Y405500D01*
X268153D01*
X273177Y400477D01*
X274334Y399703D01*
X275700Y399431D01*
X281058D01*
X281093Y399397D01*
X282655Y398750D01*
X284345D01*
X285907Y399397D01*
X287103Y400593D01*
X287750Y402155D01*
Y403845D01*
X287591Y404230D01*
X288439Y405500D01*
X298600D01*
Y405500D01*
X299800D01*
Y405500D01*
X311300D01*
Y405500D01*
X312500D01*
Y405500D01*
X323930D01*
X324000Y405500D01*
X325200D01*
X325270Y405500D01*
X336630D01*
X336700Y405500D01*
X337900D01*
X337970Y405500D01*
X349330D01*
X349400Y405500D01*
X350600D01*
X350670Y405500D01*
X362030D01*
X362100Y405500D01*
X363300D01*
X363370Y405500D01*
X374800D01*
Y405500D01*
X376000D01*
Y405500D01*
X387500D01*
Y405500D01*
X388700D01*
Y405500D01*
X400130D01*
X400200Y405500D01*
X401400D01*
X401470Y405500D01*
X412900D01*
Y405500D01*
X414100D01*
Y405500D01*
X425600D01*
Y405500D01*
X426800D01*
Y405500D01*
X438300D01*
Y433500D01*
X426800D01*
Y433500D01*
X425600D01*
Y433500D01*
X414100D01*
Y433500D01*
X412900D01*
Y433500D01*
X409652D01*
X409000Y434500D01*
X409000Y434770D01*
Y451500D01*
X405559D01*
Y459301D01*
X405559Y459301D01*
X405326Y460472D01*
X404663Y461464D01*
X394964Y471163D01*
X393972Y471826D01*
X393689Y471882D01*
X393271Y473260D01*
X393603Y473593D01*
X394250Y475155D01*
Y476845D01*
X393603Y478407D01*
X392407Y479603D01*
X390845Y480250D01*
X389155D01*
X388324Y479906D01*
X387054Y480724D01*
Y485262D01*
X387054Y485262D01*
X386822Y486432D01*
X386158Y487425D01*
X370256Y503327D01*
X370742Y504500D01*
X378000D01*
Y509941D01*
X380048D01*
X380593Y509397D01*
X382155Y508750D01*
X383845D01*
X385407Y509397D01*
X386603Y510593D01*
X387250Y512155D01*
Y513845D01*
X386603Y515407D01*
X386059Y515952D01*
Y532798D01*
X386853Y533593D01*
X387500Y535155D01*
Y536845D01*
X386853Y538407D01*
X385657Y539603D01*
X384095Y540250D01*
X382405D01*
X380843Y539603D01*
X379647Y538407D01*
X379000Y536845D01*
Y535155D01*
X379647Y533593D01*
X379941Y533298D01*
Y516059D01*
X378000D01*
Y521500D01*
X365071D01*
X364704Y521821D01*
X364152Y522419D01*
X363947Y523449D01*
X363284Y524441D01*
X363284Y524441D01*
X359770Y527956D01*
X358777Y528619D01*
X357607Y528852D01*
X357000Y529857D01*
Y543500D01*
D02*
G37*
G36*
X503580Y526555D02*
X500420D01*
X497368Y525737D01*
X494632Y524157D01*
X492398Y521923D01*
X490818Y519187D01*
X490000Y516135D01*
Y512975D01*
X490818Y509923D01*
X492398Y507187D01*
X494632Y504953D01*
X497368Y503373D01*
X500420Y502555D01*
X503580D01*
X506632Y503373D01*
X509368Y504953D01*
X511602Y507187D01*
X513182Y509923D01*
X514000Y512975D01*
Y516135D01*
X513182Y519187D01*
X511602Y521923D01*
X509368Y524157D01*
X506632Y525737D01*
X503580Y526555D01*
D02*
G37*
G36*
X473580D02*
X470420D01*
X467368Y525737D01*
X464632Y524157D01*
X462398Y521923D01*
X460818Y519187D01*
X460000Y516135D01*
Y512975D01*
X460818Y509923D01*
X462398Y507187D01*
X464632Y504953D01*
X467368Y503373D01*
X470420Y502555D01*
X473580D01*
X476632Y503373D01*
X479368Y504953D01*
X481602Y507187D01*
X483182Y509923D01*
X484000Y512975D01*
Y516135D01*
X483182Y519187D01*
X481602Y521923D01*
X479368Y524157D01*
X476632Y525737D01*
X473580Y526555D01*
D02*
G37*
G36*
X282000Y513500D02*
X269000D01*
Y496500D01*
X282000D01*
Y501941D01*
X300048D01*
X300593Y501397D01*
X302155Y500750D01*
X303845D01*
X305407Y501397D01*
X306603Y502593D01*
X307250Y504155D01*
Y505845D01*
X306603Y507407D01*
X305407Y508603D01*
X303845Y509250D01*
X302155D01*
X300593Y508603D01*
X300048Y508059D01*
X282000D01*
Y513500D01*
D02*
G37*
G36*
X252500Y508059D02*
X251329Y507826D01*
X250337Y507163D01*
X247837Y504663D01*
X247174Y503671D01*
X246941Y502500D01*
X247174Y501329D01*
X247837Y500337D01*
X248829Y499674D01*
X250000Y499441D01*
X251171Y499674D01*
X252163Y500337D01*
X254663Y502837D01*
X255326Y503829D01*
X255559Y505000D01*
X255326Y506171D01*
X254663Y507163D01*
X253671Y507826D01*
X252500Y508059D01*
D02*
G37*
G36*
X473580Y496555D02*
X470420D01*
X467368Y495737D01*
X464632Y494157D01*
X462398Y491923D01*
X460818Y489187D01*
X460000Y486135D01*
Y482975D01*
X460818Y479923D01*
X462398Y477187D01*
X464632Y474953D01*
X467368Y473373D01*
X470420Y472555D01*
X473580D01*
X476632Y473373D01*
X479368Y474953D01*
X481602Y477187D01*
X483182Y479923D01*
X484000Y482975D01*
Y486135D01*
X483182Y489187D01*
X481602Y491923D01*
X479368Y494157D01*
X476632Y495737D01*
X473580Y496555D01*
D02*
G37*
G36*
X443580D02*
X440420D01*
X437368Y495737D01*
X434632Y494157D01*
X432398Y491923D01*
X430818Y489187D01*
X430000Y486135D01*
Y482975D01*
X430818Y479923D01*
X432398Y477187D01*
X434632Y474953D01*
X437368Y473373D01*
X440420Y472555D01*
X443580D01*
X446632Y473373D01*
X449368Y474953D01*
X451602Y477187D01*
X453182Y479923D01*
X454000Y482975D01*
Y486135D01*
X453182Y489187D01*
X451602Y491923D01*
X449368Y494157D01*
X446632Y495737D01*
X443580Y496555D01*
D02*
G37*
G36*
X507000Y496615D02*
X497000D01*
X495173Y496375D01*
X493470Y495670D01*
X492007Y494548D01*
X490886Y493085D01*
X490180Y491382D01*
X489940Y489555D01*
Y479555D01*
X490180Y477728D01*
X490886Y476025D01*
X492007Y474563D01*
X493470Y473441D01*
X495173Y472735D01*
X497000Y472495D01*
X507000D01*
X508827Y472735D01*
X510530Y473441D01*
X511992Y474563D01*
X513115Y476025D01*
X513820Y477728D01*
X514060Y479555D01*
Y489555D01*
X513820Y491382D01*
X513115Y493085D01*
X511992Y494548D01*
X510530Y495670D01*
X508827Y496375D01*
X507000Y496615D01*
D02*
G37*
G36*
X247000Y474559D02*
X245830Y474326D01*
X244837Y473663D01*
X241337Y470163D01*
X240674Y469170D01*
X240441Y468000D01*
X240441Y468000D01*
Y466000D01*
X240674Y464829D01*
X241337Y463837D01*
X242330Y463174D01*
X243500Y462941D01*
X244671Y463174D01*
X245663Y463837D01*
X246326Y464829D01*
X246559Y466000D01*
Y466733D01*
X249163Y469337D01*
X249826Y470330D01*
X250059Y471500D01*
X249826Y472671D01*
X249163Y473663D01*
X248171Y474326D01*
X247000Y474559D01*
D02*
G37*
G36*
X273000Y474500D02*
X260000D01*
Y457500D01*
X273000D01*
Y462941D01*
X277983D01*
X278750Y462174D01*
Y461405D01*
X279397Y459843D01*
X280593Y458647D01*
X282155Y458000D01*
X283845D01*
X285407Y458647D01*
X286603Y459843D01*
X287250Y461405D01*
Y463095D01*
X286603Y464657D01*
X285407Y465853D01*
X283845Y466500D01*
X283076D01*
X281413Y468163D01*
X280420Y468826D01*
X279250Y469059D01*
X279250Y469059D01*
X273000D01*
Y474500D01*
D02*
G37*
G36*
X79796Y445000D02*
X78204D01*
X76734Y444391D01*
X75609Y443266D01*
X75000Y441796D01*
Y440204D01*
X75609Y438734D01*
X76734Y437609D01*
X78204Y437000D01*
X79796D01*
X81266Y437609D01*
X82391Y438734D01*
X83000Y440204D01*
Y441796D01*
X82391Y443266D01*
X81266Y444391D01*
X79796Y445000D01*
D02*
G37*
G36*
X619500Y450000D02*
X602500D01*
Y448098D01*
X586000D01*
X584049Y447710D01*
X582395Y446605D01*
X581290Y444951D01*
X580902Y443000D01*
X581290Y441049D01*
X582395Y439395D01*
X584049Y438290D01*
X586000Y437902D01*
X602500D01*
Y437000D01*
X619500D01*
Y437402D01*
X625500D01*
Y436000D01*
X642500D01*
Y449000D01*
X625500D01*
Y447598D01*
X619500D01*
Y450000D01*
D02*
G37*
G36*
X361500Y464059D02*
X360330Y463826D01*
X359337Y463163D01*
X358674Y462170D01*
X358441Y461000D01*
X358674Y459829D01*
X359337Y458837D01*
X359441Y458733D01*
Y458000D01*
X359674Y456829D01*
X360006Y456332D01*
X358837Y455163D01*
X358174Y454170D01*
X357941Y453000D01*
X357941Y453000D01*
Y439000D01*
X358174Y437830D01*
X358837Y436837D01*
X359829Y436174D01*
X361000Y435941D01*
X362170Y436174D01*
X363163Y436837D01*
X363826Y437830D01*
X364059Y439000D01*
Y451733D01*
X365163Y452837D01*
X365826Y453829D01*
X366059Y455000D01*
X365826Y456171D01*
X365340Y456898D01*
X365559Y458000D01*
Y460000D01*
X365326Y461171D01*
X364663Y462163D01*
X363663Y463163D01*
X362671Y463826D01*
X361500Y464059D01*
D02*
G37*
G36*
X629251Y537500D02*
X626749D01*
X624333Y536853D01*
X622167Y535602D01*
X620398Y533833D01*
X619147Y531667D01*
X618500Y529251D01*
Y526749D01*
X619147Y524333D01*
X620398Y522167D01*
X622167Y520398D01*
X624333Y519147D01*
X626749Y518500D01*
X629251D01*
X631667Y519147D01*
X633833Y520398D01*
X635061Y521626D01*
X635642Y521449D01*
X639094Y519604D01*
X642120Y517120D01*
X644604Y514094D01*
X646449Y510642D01*
X647586Y506896D01*
X647947Y503226D01*
X647902Y503000D01*
Y463650D01*
X647909Y463617D01*
X648281Y458880D01*
X649398Y454227D01*
X651230Y449806D01*
X653730Y445726D01*
X656837Y442088D01*
X660476Y438980D01*
X664556Y436480D01*
X668977Y434649D01*
X673630Y433531D01*
X678367Y433159D01*
X678400Y433152D01*
X680542D01*
X680547Y433125D01*
X681680Y431430D01*
X683375Y430297D01*
X685375Y429900D01*
X696625D01*
X698625Y430297D01*
X700320Y431430D01*
X701453Y433125D01*
X701850Y435125D01*
Y441375D01*
X701453Y443375D01*
X700320Y445070D01*
X698625Y446203D01*
X696625Y446600D01*
X685375D01*
X683375Y446203D01*
X681680Y445070D01*
X680547Y443375D01*
X680542Y443348D01*
X678400D01*
X678168Y443302D01*
X674426Y443670D01*
X670604Y444829D01*
X667082Y446712D01*
X663995Y449245D01*
X661462Y452332D01*
X659580Y455854D01*
X658420Y459676D01*
X658052Y463418D01*
X658098Y463650D01*
Y503000D01*
X658089Y503043D01*
X657722Y507707D01*
X656620Y512299D01*
X654813Y516662D01*
X652346Y520688D01*
X649279Y524279D01*
X645688Y527346D01*
X641662Y529813D01*
X637299Y531620D01*
X636812Y531737D01*
X635602Y533833D01*
X633833Y535602D01*
X631667Y536853D01*
X629251Y537500D01*
D02*
G37*
G36*
X734000Y447118D02*
X726000D01*
X723659Y446652D01*
X721674Y445326D01*
X720348Y443341D01*
X719883Y441000D01*
Y433000D01*
X720348Y430659D01*
X721674Y428674D01*
X723659Y427348D01*
X726000Y426883D01*
X734000D01*
X736341Y427348D01*
X738326Y428674D01*
X739652Y430659D01*
X740117Y433000D01*
Y441000D01*
X739652Y443341D01*
X738326Y445326D01*
X736341Y446652D01*
X734000Y447118D01*
D02*
G37*
G36*
X629000Y424069D02*
X627634Y423797D01*
X626477Y423023D01*
X625703Y421866D01*
X625431Y420500D01*
X625681Y419243D01*
Y416750D01*
X625953Y415384D01*
X626727Y414227D01*
X627884Y413453D01*
X629250Y413181D01*
X630743D01*
X632000Y412931D01*
X633366Y413203D01*
X634523Y413977D01*
X635297Y415134D01*
X635569Y416500D01*
X635297Y417866D01*
X634523Y419023D01*
X634273Y419273D01*
X633116Y420047D01*
X632819Y420106D01*
Y420250D01*
X632547Y421616D01*
X631773Y422773D01*
X631523Y423023D01*
X630366Y423797D01*
X629000Y424069D01*
D02*
G37*
G36*
X731317Y421600D02*
X728683D01*
X726140Y420919D01*
X723860Y419602D01*
X721998Y417740D01*
X720682Y415460D01*
X720000Y412916D01*
Y410284D01*
X720682Y407740D01*
X721998Y405460D01*
X723860Y403598D01*
X726140Y402281D01*
X728683Y401600D01*
X731317D01*
X733860Y402281D01*
X736140Y403598D01*
X738002Y405460D01*
X739318Y407740D01*
X740000Y410284D01*
Y412916D01*
X739318Y415460D01*
X738002Y417740D01*
X736140Y419602D01*
X733860Y420919D01*
X731317Y421600D01*
D02*
G37*
G36*
X106750Y431250D02*
X89250D01*
Y415750D01*
X106750D01*
Y420441D01*
X109233D01*
X124750Y404924D01*
Y404155D01*
X125397Y402593D01*
X126593Y401397D01*
X128155Y400750D01*
X129845D01*
X131407Y401397D01*
X132603Y402593D01*
X133250Y404155D01*
Y405845D01*
X132603Y407407D01*
X131407Y408603D01*
X129845Y409250D01*
X129076D01*
X112663Y425663D01*
X111671Y426326D01*
X110500Y426559D01*
X110500Y426559D01*
X106750D01*
Y431250D01*
D02*
G37*
G36*
X696625Y418100D02*
X685375D01*
X683375Y417703D01*
X681680Y416570D01*
X680547Y414875D01*
X680150Y412875D01*
Y406625D01*
X680547Y404625D01*
X681680Y402930D01*
X683375Y401797D01*
X685375Y401400D01*
X685902D01*
Y400767D01*
X686290Y398816D01*
X687395Y397162D01*
X689049Y396057D01*
X691000Y395669D01*
X692951Y396057D01*
X694605Y397162D01*
X695710Y398816D01*
X696098Y400767D01*
Y401400D01*
X696625D01*
X698625Y401797D01*
X700320Y402930D01*
X701453Y404625D01*
X701850Y406625D01*
Y412875D01*
X701453Y414875D01*
X700320Y416570D01*
X698625Y417703D01*
X696625Y418100D01*
D02*
G37*
G36*
X426800Y394500D02*
X425600D01*
Y394500D01*
X414170D01*
X414100Y394500D01*
Y394500D01*
X412900D01*
Y394500D01*
X401470D01*
X401400Y394500D01*
Y394500D01*
X400200D01*
Y394500D01*
X388770D01*
X388700Y394500D01*
X387500D01*
X387430Y394500D01*
X376070D01*
X376000Y394500D01*
Y394500D01*
X374800D01*
Y394500D01*
X363370D01*
X363300Y394500D01*
Y394500D01*
X362100D01*
Y394500D01*
X350670D01*
X350600Y394500D01*
Y394500D01*
X349400D01*
Y394500D01*
X337970D01*
X337900Y394500D01*
Y394500D01*
X336700D01*
Y394500D01*
X325270D01*
X325200Y394500D01*
X324000D01*
X323930Y394500D01*
X312500D01*
Y394500D01*
X311300D01*
Y394500D01*
X311230Y394500D01*
X299800D01*
Y394500D01*
X298600D01*
Y394500D01*
X298530Y394500D01*
X287100D01*
Y394500D01*
X285900D01*
Y394500D01*
X285830Y394500D01*
X274400D01*
Y394500D01*
X273200D01*
Y394500D01*
X273130Y394500D01*
X261700D01*
Y366500D01*
X268874D01*
X290011Y345363D01*
Y302699D01*
X289582Y302237D01*
X288942Y302377D01*
X288312Y302893D01*
Y315403D01*
X288312Y315403D01*
X288079Y316574D01*
X287416Y317566D01*
X277720Y327263D01*
X276727Y327926D01*
X275557Y328159D01*
X275557Y328159D01*
X258167D01*
X250059Y336267D01*
Y365548D01*
X250603Y366093D01*
X251250Y367655D01*
Y369345D01*
X250603Y370907D01*
X249407Y372103D01*
X247845Y372750D01*
X246155D01*
X244593Y372103D01*
X243397Y370907D01*
X242750Y369345D01*
Y367655D01*
X243397Y366093D01*
X243941Y365548D01*
Y335000D01*
X243941Y335000D01*
X244174Y333829D01*
X244837Y332837D01*
X252342Y325332D01*
X251856Y324159D01*
X240467D01*
X233500Y331126D01*
Y338300D01*
X205500D01*
Y326870D01*
X205500Y326800D01*
X205500D01*
Y325600D01*
X205500D01*
Y314170D01*
X205500Y314100D01*
X205500D01*
Y312900D01*
X205500D01*
Y301470D01*
X205500Y301400D01*
X205500D01*
Y300200D01*
X205500D01*
Y288770D01*
X205500Y288700D01*
X205500D01*
Y287500D01*
X205500D01*
Y276070D01*
X205500Y276000D01*
X205500D01*
Y274800D01*
X205500D01*
Y263370D01*
X205500Y263300D01*
X205500D01*
Y262100D01*
X205500D01*
Y250670D01*
X205500Y250600D01*
X205500D01*
Y249400D01*
X205500D01*
Y237970D01*
X205500Y237900D01*
X205500D01*
Y236700D01*
X205500D01*
Y225270D01*
X205500Y225200D01*
X205500D01*
Y224000D01*
X205500D01*
Y212570D01*
X205500Y212500D01*
X205500D01*
Y211300D01*
X205500D01*
Y199870D01*
X205500Y199800D01*
X205500D01*
Y198600D01*
X205500D01*
Y195909D01*
X201669D01*
X200845Y196250D01*
X199155D01*
X197593Y195603D01*
X196397Y194407D01*
X195750Y192845D01*
X194500Y192894D01*
Y198600D01*
X194500D01*
Y199800D01*
X194500D01*
Y211300D01*
X194500D01*
Y212500D01*
X194500D01*
Y223930D01*
X194500Y224000D01*
Y225200D01*
X194500Y225270D01*
Y236630D01*
X194500Y236700D01*
Y237900D01*
X194500Y237970D01*
Y249330D01*
X194500Y249400D01*
Y250600D01*
X194500Y250670D01*
Y260194D01*
X195770Y260720D01*
X196593Y259897D01*
X198155Y259250D01*
X199845D01*
X201407Y259897D01*
X202603Y261093D01*
X203250Y262655D01*
Y264345D01*
X202603Y265907D01*
X201407Y267103D01*
X199845Y267750D01*
X198155D01*
X196593Y267103D01*
X195770Y266280D01*
X194500Y266807D01*
Y274730D01*
X194500Y274800D01*
Y276000D01*
X194500Y276070D01*
Y287430D01*
X194500Y287500D01*
Y288700D01*
X194500Y288770D01*
Y300130D01*
X194500Y300200D01*
Y301400D01*
X194500Y301470D01*
Y312830D01*
X194500Y312900D01*
Y314100D01*
X194500Y314170D01*
Y325530D01*
X194500Y325600D01*
Y326800D01*
X194500Y326870D01*
Y338300D01*
X166500D01*
Y326870D01*
X166500Y326800D01*
Y325600D01*
X166500Y325530D01*
Y314170D01*
X166500Y314100D01*
Y312900D01*
X166500Y312830D01*
Y301470D01*
X166500Y301400D01*
Y300200D01*
X166500Y300130D01*
Y288770D01*
X166500Y288700D01*
Y287500D01*
X166500Y287430D01*
Y276070D01*
X166500Y276000D01*
Y274800D01*
X166500Y274730D01*
Y263370D01*
X166500Y263300D01*
Y262100D01*
X166500Y262030D01*
Y250670D01*
X166500Y250600D01*
Y249400D01*
X166500Y249330D01*
Y237970D01*
X166500Y237900D01*
Y236700D01*
X166500Y236630D01*
Y225270D01*
X166500Y225200D01*
Y224000D01*
X166500Y223930D01*
Y218862D01*
X165708Y218705D01*
X164716Y218042D01*
X164716Y218041D01*
X150837Y204163D01*
X150174Y203171D01*
X149941Y202000D01*
X149941Y202000D01*
Y191000D01*
X141500D01*
Y187559D01*
X136500D01*
Y190000D01*
X119500D01*
Y177000D01*
X136500D01*
Y181441D01*
X141500D01*
Y178000D01*
X156441D01*
Y172000D01*
X141500D01*
Y168559D01*
X136500D01*
Y171000D01*
X119500D01*
Y168059D01*
X119000D01*
X117829Y167826D01*
X116837Y167163D01*
X116837Y167163D01*
X112837Y163163D01*
X112174Y162171D01*
X111941Y161000D01*
X111941Y161000D01*
Y133000D01*
X111941Y133000D01*
X112174Y131830D01*
X112837Y130837D01*
X115837Y127837D01*
X115837Y127837D01*
X116830Y127174D01*
X118000Y126941D01*
X118500Y125864D01*
Y122000D01*
X135500D01*
Y126941D01*
X138500D01*
Y122000D01*
X155500D01*
Y135000D01*
X155500D01*
X155342Y136205D01*
X155338Y136270D01*
X165663Y146594D01*
X166326Y147587D01*
X166559Y148757D01*
X166559Y148757D01*
Y161700D01*
X190174D01*
X206037Y145837D01*
X206037Y145837D01*
X207029Y145174D01*
X208200Y144941D01*
X280678D01*
X280678Y144941D01*
X281848Y145174D01*
X282840Y145837D01*
X324163Y187159D01*
X324163Y187160D01*
X324826Y188152D01*
X324854Y188295D01*
X326242Y188759D01*
X326441Y188581D01*
Y182817D01*
X285183Y141559D01*
X279158D01*
X279157Y141559D01*
X277987Y141326D01*
X276994Y140663D01*
X276994Y140663D01*
X269813Y133482D01*
X269030Y133326D01*
X268037Y132663D01*
X265287Y129913D01*
X264624Y128920D01*
X264391Y127750D01*
X264391Y127750D01*
Y113500D01*
X261700D01*
Y85500D01*
X273200D01*
Y85500D01*
X274400D01*
Y85500D01*
X285900D01*
Y85500D01*
X287100D01*
Y85500D01*
X290495D01*
X290981Y84327D01*
X289999Y83345D01*
X275076D01*
X273125Y82957D01*
X271471Y81852D01*
X267795Y78176D01*
X266690Y76522D01*
X266362Y74871D01*
X265990Y74500D01*
X261700D01*
Y46500D01*
X273130D01*
X273200Y46500D01*
Y46500D01*
X274400D01*
Y46500D01*
X285900D01*
Y46500D01*
X287100Y46500D01*
Y46500D01*
X298530D01*
X298600Y46500D01*
X299800Y46500D01*
X299870Y46500D01*
X311230D01*
X311300Y46500D01*
X312500D01*
X312570Y46500D01*
X323930D01*
X324000Y46500D01*
X325200D01*
X325270Y46500D01*
X336630D01*
X336700Y46500D01*
X337900D01*
X337970Y46500D01*
X349330D01*
X349400Y46500D01*
X350600D01*
X350670Y46500D01*
X362030D01*
X362100Y46500D01*
X363300D01*
X363370Y46500D01*
X374730D01*
X374800Y46500D01*
X376000D01*
X376070Y46500D01*
X387430D01*
X387500Y46500D01*
X388700D01*
X388770Y46500D01*
X400130D01*
X400200Y46500D01*
X401400D01*
X401470Y46500D01*
X412830D01*
X412900Y46500D01*
X414100D01*
X414170Y46500D01*
X425600D01*
Y74500D01*
X414170D01*
X414100Y74500D01*
X412900D01*
X412830Y74500D01*
X401470D01*
X401400Y74500D01*
X400200D01*
X400130Y74500D01*
X388770D01*
X388700Y74500D01*
X387500D01*
X387430Y74500D01*
X376070D01*
X376000Y74500D01*
X374800D01*
X374730Y74500D01*
X363370D01*
X363300Y74500D01*
X362100D01*
X362030Y74500D01*
X350670D01*
X350600Y74500D01*
X349400D01*
X349330Y74500D01*
X337970D01*
X337900Y74500D01*
X336700D01*
X336630Y74500D01*
X325270D01*
X325200Y74500D01*
X324000D01*
X323930Y74500D01*
X312570D01*
X312500Y74500D01*
X311300D01*
X311230Y74500D01*
X299870D01*
X299800Y74500D01*
X298600Y74500D01*
X298530Y74500D01*
X297369D01*
X296843Y75770D01*
X299391Y78318D01*
X300467Y79927D01*
X301724Y80448D01*
X302920Y81644D01*
X303567Y83206D01*
Y84896D01*
X303970Y85500D01*
X311300D01*
Y85500D01*
X312500D01*
Y85500D01*
X324000D01*
Y85500D01*
X325200D01*
Y85500D01*
X336700D01*
Y85500D01*
X337900D01*
Y85500D01*
X349400D01*
Y85500D01*
X350600D01*
Y85500D01*
X362100D01*
Y85500D01*
X363300D01*
Y85500D01*
X374800D01*
Y85500D01*
X376000D01*
Y85500D01*
X387500D01*
Y85500D01*
X388700D01*
Y85500D01*
X400200D01*
Y85500D01*
X401400D01*
Y85500D01*
X412900D01*
Y85500D01*
X414100D01*
Y85500D01*
X425600D01*
Y85500D01*
X426800D01*
Y85500D01*
X438300D01*
Y86030D01*
X438752Y86262D01*
X439570Y86420D01*
X440593Y85397D01*
X442155Y84750D01*
X443845D01*
X445407Y85397D01*
X446603Y86593D01*
X447250Y88155D01*
Y89845D01*
X446603Y91407D01*
X445407Y92603D01*
X443845Y93250D01*
X442155D01*
X440593Y92603D01*
X439570Y91580D01*
X438752Y91738D01*
X438300Y91970D01*
Y113500D01*
X435864D01*
Y127750D01*
X435611Y129018D01*
X434893Y130093D01*
X409628Y155358D01*
X408553Y156077D01*
X407285Y156329D01*
X398431D01*
X397797Y156963D01*
X396235Y157610D01*
X395725D01*
X394876Y158880D01*
X394990Y159155D01*
Y160845D01*
X394343Y162407D01*
X393147Y163603D01*
X391585Y164250D01*
X389895D01*
X388333Y163603D01*
X387137Y162407D01*
X386490Y160845D01*
Y159155D01*
X387044Y157818D01*
Y157221D01*
X386843Y156920D01*
X386591Y155652D01*
Y154827D01*
X386576Y154755D01*
Y151298D01*
X385540Y150445D01*
X385404Y150404D01*
X384814Y150615D01*
Y153278D01*
X384561Y154546D01*
X383936Y155482D01*
Y156818D01*
X384490Y158155D01*
Y159845D01*
X383843Y161407D01*
X382647Y162603D01*
X381085Y163250D01*
X379395D01*
X377833Y162603D01*
X376637Y161407D01*
X375990Y159845D01*
Y158155D01*
X376637Y156593D01*
X376710Y156520D01*
X376184Y155250D01*
X375155D01*
X374870Y155132D01*
X373814Y155837D01*
Y157699D01*
X373810Y157719D01*
X373990Y158155D01*
Y159845D01*
X373343Y161407D01*
X372147Y162603D01*
X370585Y163250D01*
X368895D01*
X367333Y162603D01*
X366137Y161407D01*
X365490Y159845D01*
Y158155D01*
X366137Y156593D01*
X367186Y155543D01*
Y151838D01*
X366130Y151132D01*
X365845Y151250D01*
X364155D01*
X363870Y151132D01*
X362814Y151838D01*
Y154563D01*
X362843Y154593D01*
X363490Y156155D01*
Y157845D01*
X362843Y159407D01*
X361647Y160603D01*
X360085Y161250D01*
X358395D01*
X356833Y160603D01*
X355637Y159407D01*
X354990Y157845D01*
Y156597D01*
X354825Y156428D01*
X353833Y155704D01*
X353083Y155805D01*
X352494Y156957D01*
X352990Y158155D01*
Y159845D01*
X352343Y161407D01*
X351147Y162603D01*
X349585Y163250D01*
X347895D01*
X346333Y162603D01*
X345137Y161407D01*
X344490Y159845D01*
Y158155D01*
X345137Y156593D01*
X345457Y156273D01*
X345271Y155249D01*
X344038Y154756D01*
X342845Y155250D01*
X341155D01*
X339593Y154603D01*
X338397Y153407D01*
X337750Y151845D01*
Y151436D01*
X336007Y149694D01*
X329260D01*
X329142Y149670D01*
X328516Y150841D01*
X342523Y164847D01*
X342523Y164847D01*
X343186Y165839D01*
X343419Y167010D01*
X343419Y167010D01*
Y181423D01*
X345163Y183167D01*
X345826Y184159D01*
X346059Y185330D01*
Y196048D01*
X346603Y196593D01*
X347250Y198155D01*
Y199845D01*
X346603Y201407D01*
X345407Y202603D01*
X343845Y203250D01*
X342155D01*
X340593Y202603D01*
X339397Y201407D01*
X338750Y199845D01*
Y198155D01*
X339397Y196593D01*
X339941Y196048D01*
Y191122D01*
X338671Y190869D01*
X338353Y191637D01*
X337157Y192833D01*
X335595Y193480D01*
X333905D01*
X333882Y193471D01*
X332644Y194216D01*
X332603Y194593D01*
X333250Y196155D01*
Y197845D01*
X332603Y199407D01*
X331407Y200603D01*
X329845Y201250D01*
X328155D01*
X326593Y200603D01*
X326329Y200339D01*
X325059Y200865D01*
Y208048D01*
X325603Y208593D01*
X326250Y210155D01*
Y211845D01*
X325603Y213407D01*
X324407Y214603D01*
X322845Y215250D01*
X321155D01*
X319593Y214603D01*
X318397Y213407D01*
X317750Y211845D01*
Y210155D01*
X318397Y208593D01*
X318941Y208048D01*
Y202729D01*
X317671Y201908D01*
X316845Y202250D01*
X315155D01*
X313593Y201603D01*
X312397Y200407D01*
X311750Y198845D01*
Y197155D01*
X312397Y195593D01*
X312941Y195048D01*
Y193865D01*
X311671Y193339D01*
X311407Y193603D01*
X309845Y194250D01*
X308155D01*
X306593Y193603D01*
X305397Y192407D01*
X304750Y190845D01*
Y190076D01*
X302592Y187918D01*
X301627Y188883D01*
X300210Y189470D01*
X300149Y190227D01*
X300210Y190740D01*
X301672Y191346D01*
X302868Y192541D01*
X303515Y194103D01*
Y195794D01*
X302868Y197356D01*
X301672Y198552D01*
X300110Y199199D01*
X298419D01*
X296857Y198552D01*
X296313Y198008D01*
X275763D01*
X275763Y198008D01*
X274592Y197775D01*
X273600Y197112D01*
X273600Y197111D01*
X273553Y197064D01*
X253262D01*
X233500Y216826D01*
Y219215D01*
X234673Y219701D01*
X252366Y202008D01*
X252366Y202008D01*
X253358Y201345D01*
X254529Y201112D01*
X254529Y201113D01*
X279667D01*
X279668Y201112D01*
X280838Y201345D01*
X281730Y201941D01*
X282966D01*
X283510Y201397D01*
X285072Y200750D01*
X286763D01*
X288325Y201397D01*
X289521Y202593D01*
X290168Y204155D01*
Y205845D01*
X289521Y207407D01*
X288325Y208603D01*
X286763Y209250D01*
X285072D01*
X283510Y208603D01*
X282966Y208059D01*
X280496D01*
X280496Y208059D01*
X279326Y207826D01*
X278434Y207230D01*
X255796D01*
X233500Y229526D01*
Y231915D01*
X234673Y232401D01*
X245237Y221837D01*
X245237Y221837D01*
X246229Y221174D01*
X247400Y220941D01*
X247400Y220941D01*
X289165D01*
X289870Y219885D01*
X289750Y219595D01*
Y217905D01*
X290397Y216343D01*
X291593Y215147D01*
X293155Y214500D01*
X294845D01*
X296407Y215147D01*
X297603Y216343D01*
X298250Y217905D01*
Y219595D01*
X298130Y219885D01*
X298836Y220941D01*
X303505D01*
X303757Y219671D01*
X303593Y219603D01*
X302397Y218407D01*
X301750Y216845D01*
Y215155D01*
X302397Y213593D01*
X303593Y212397D01*
X305155Y211750D01*
X306845D01*
X308407Y212397D01*
X309603Y213593D01*
X310250Y215155D01*
Y216845D01*
X309603Y218407D01*
X309530Y218480D01*
X309700Y219162D01*
X309995Y219812D01*
X311407Y220397D01*
X312603Y221593D01*
X313250Y223155D01*
Y224845D01*
X312603Y226407D01*
X311407Y227603D01*
X309845Y228250D01*
X308155D01*
X306593Y227603D01*
X306048Y227059D01*
X297479D01*
X296804Y228329D01*
X297250Y229405D01*
Y231095D01*
X297121Y231407D01*
X297826Y232463D01*
X301527D01*
X301593Y232397D01*
X303155Y231750D01*
X304845D01*
X306407Y232397D01*
X307603Y233593D01*
X308250Y235155D01*
Y236845D01*
X307603Y238407D01*
X306407Y239603D01*
X304845Y240250D01*
X303155D01*
X301593Y239603D01*
X300570Y238580D01*
X298845D01*
X298139Y239636D01*
X298250Y239905D01*
Y241595D01*
X297603Y243157D01*
X296407Y244353D01*
X294845Y245000D01*
X293155D01*
X291593Y244353D01*
X291311Y244071D01*
X291172Y244124D01*
X290250Y245155D01*
Y246845D01*
X289603Y248407D01*
X288407Y249603D01*
X286845Y250250D01*
X285155D01*
X283593Y249603D01*
X282397Y248407D01*
X281750Y246845D01*
Y245155D01*
X282092Y244329D01*
X281271Y243059D01*
X270767D01*
X233500Y280326D01*
Y282715D01*
X234673Y283201D01*
X255037Y262837D01*
X255037Y262837D01*
X256029Y262174D01*
X257200Y261941D01*
X257200Y261941D01*
X288048D01*
X288593Y261397D01*
X290155Y260750D01*
X291845D01*
X293407Y261397D01*
X294603Y262593D01*
X295250Y264155D01*
Y265845D01*
X294603Y267407D01*
X293407Y268603D01*
X293243Y268671D01*
X293495Y269941D01*
X298048D01*
X298593Y269397D01*
X300155Y268750D01*
X301845D01*
X303407Y269397D01*
X304603Y270593D01*
X305250Y272155D01*
Y273845D01*
X304603Y275407D01*
X303407Y276603D01*
X301845Y277250D01*
X300155D01*
X298593Y276603D01*
X298048Y276059D01*
X293615D01*
X293089Y277329D01*
X293603Y277843D01*
X294250Y279405D01*
Y281095D01*
X293603Y282657D01*
X292407Y283853D01*
X292136Y283965D01*
X291685Y284641D01*
X291684Y284641D01*
X289972Y286354D01*
X289972Y286354D01*
X289972Y286354D01*
X287957Y288368D01*
X287997Y288637D01*
X289261Y289680D01*
X289261Y289680D01*
X291994D01*
X293750Y287924D01*
Y287155D01*
X294397Y285593D01*
X295593Y284397D01*
X297155Y283750D01*
X298845D01*
X300407Y284397D01*
X301603Y285593D01*
X302250Y287155D01*
Y288845D01*
X301603Y290407D01*
X300407Y291603D01*
X298845Y292250D01*
X298076D01*
X295998Y294328D01*
X295593Y295214D01*
X296033Y296022D01*
X296673Y296663D01*
X297320Y298225D01*
Y299916D01*
X296673Y301478D01*
X296129Y302022D01*
Y312466D01*
X297399Y313104D01*
X298537Y312632D01*
X300228D01*
X300250Y312617D01*
Y311280D01*
X300897Y309718D01*
X302093Y308522D01*
X303655Y307875D01*
X304633D01*
X305510Y306673D01*
X305462Y306558D01*
Y304867D01*
X306109Y303305D01*
X307305Y302109D01*
X308867Y301462D01*
X310558D01*
X312120Y302109D01*
X313315Y303305D01*
X313962Y304867D01*
Y306558D01*
X313315Y308120D01*
X313314Y308121D01*
Y309920D01*
X314584Y310768D01*
X314905Y310635D01*
X316595D01*
X318157Y311282D01*
X319353Y312478D01*
X320000Y314040D01*
Y315731D01*
X319353Y317293D01*
X319064Y317582D01*
Y366500D01*
X323866D01*
X324000Y366500D01*
X324436Y366376D01*
X324716Y364976D01*
X322657Y362917D01*
X321939Y361842D01*
X321686Y360574D01*
Y321250D01*
X321939Y319982D01*
X322657Y318907D01*
X322936Y318627D01*
Y316697D01*
X322647Y316407D01*
X322000Y314845D01*
Y313155D01*
X322647Y311593D01*
X323843Y310397D01*
X325405Y309750D01*
X327095D01*
X327380Y309868D01*
X328436Y309163D01*
Y299250D01*
X328689Y297982D01*
X329407Y296907D01*
X333750Y292564D01*
Y292155D01*
X334397Y290593D01*
X335593Y289397D01*
X337155Y288750D01*
X338845D01*
X340407Y289397D01*
X341603Y290593D01*
X342250Y292155D01*
Y293845D01*
X342180Y294013D01*
X343257Y294732D01*
X343593Y294397D01*
X345155Y293750D01*
X346845D01*
X348407Y294397D01*
X349603Y295593D01*
X350250Y297155D01*
Y298845D01*
X349603Y300407D01*
X349314Y300697D01*
Y302880D01*
X350584Y303406D01*
X350593Y303397D01*
X352155Y302750D01*
X353845D01*
X355407Y303397D01*
X356603Y304593D01*
X357250Y306155D01*
Y307845D01*
X356603Y309407D01*
X356314Y309697D01*
Y318021D01*
X356061Y319289D01*
X355343Y320364D01*
X351314Y324393D01*
Y337127D01*
X380686Y366500D01*
X387366D01*
X387500Y366500D01*
X388636Y366177D01*
Y363164D01*
X386756Y361284D01*
X386037Y360209D01*
X385785Y358941D01*
Y346821D01*
X384515Y345973D01*
X383845Y346250D01*
X382155D01*
X380593Y345603D01*
X379397Y344407D01*
X378750Y342845D01*
Y341155D01*
X379397Y339593D01*
X380593Y338397D01*
X382155Y337750D01*
X383845D01*
X384515Y338027D01*
X385785Y337179D01*
Y315837D01*
X384729Y315132D01*
X384444Y315250D01*
X382753D01*
X381191Y314603D01*
X379996Y313407D01*
X379349Y311845D01*
Y310155D01*
X379996Y308593D01*
X381191Y307397D01*
X382753Y306750D01*
X384444D01*
X385278Y305758D01*
X385397Y305407D01*
X384750Y303845D01*
Y302155D01*
X385397Y300593D01*
X386593Y299397D01*
X388155Y298750D01*
X389845D01*
X391407Y299397D01*
X392603Y300593D01*
X393250Y302155D01*
Y303845D01*
X392603Y305407D01*
X392412Y305598D01*
Y307582D01*
X393468Y308288D01*
X393753Y308170D01*
X395443D01*
X395728Y307942D01*
X396288Y307145D01*
X395750Y305845D01*
Y304155D01*
X396397Y302593D01*
X397593Y301397D01*
X399155Y300750D01*
X400845D01*
X402407Y301397D01*
X403603Y302593D01*
X404250Y304155D01*
Y305379D01*
X404529Y306025D01*
X405335Y306545D01*
X406444D01*
X408006Y307192D01*
X409202Y308388D01*
X409849Y309950D01*
Y311640D01*
X409202Y313202D01*
X408649Y313755D01*
Y317494D01*
X409919Y317746D01*
X410397Y316593D01*
X411593Y315397D01*
X413155Y314750D01*
X414845D01*
X416407Y315397D01*
X417603Y316593D01*
X418250Y318155D01*
Y319845D01*
X417603Y321407D01*
X416407Y322603D01*
X414845Y323250D01*
X413155D01*
X411593Y322603D01*
X410397Y321407D01*
X409919Y320254D01*
X408649Y320506D01*
Y324963D01*
X420394Y336708D01*
X421112Y337783D01*
X421364Y339051D01*
Y356378D01*
X431486Y366500D01*
X438300D01*
Y394500D01*
X426870D01*
X426800Y394500D01*
Y394500D01*
D02*
G37*
G36*
X131845Y509250D02*
X130155D01*
X128593Y508603D01*
X127397Y507407D01*
X126750Y505845D01*
Y504155D01*
X127397Y502593D01*
X128593Y501397D01*
X130155Y500750D01*
X131845D01*
X131901Y500773D01*
X179941Y452733D01*
Y394952D01*
X179397Y394407D01*
X178750Y392845D01*
Y391155D01*
X179397Y389593D01*
X180593Y388397D01*
X182155Y387750D01*
X183845D01*
X185407Y388397D01*
X186603Y389593D01*
X187250Y391155D01*
Y392845D01*
X186603Y394407D01*
X186059Y394952D01*
Y454000D01*
X186059Y454000D01*
X185826Y455171D01*
X185163Y456163D01*
X185163Y456163D01*
X135087Y506239D01*
X134603Y507407D01*
X133407Y508603D01*
X131845Y509250D01*
D02*
G37*
G36*
X731317Y396200D02*
X728683D01*
X726140Y395518D01*
X723860Y394202D01*
X721998Y392340D01*
X720682Y390060D01*
X720060Y387741D01*
X718632Y386568D01*
X716632Y384132D01*
X715146Y381353D01*
X714231Y378337D01*
X713943Y375405D01*
X713902Y375200D01*
Y319600D01*
X713375D01*
X711375Y319203D01*
X709680Y318070D01*
X708547Y316375D01*
X708150Y314375D01*
Y308125D01*
X708547Y306125D01*
X709680Y304430D01*
X711375Y303297D01*
X711618Y303249D01*
X711987Y302034D01*
X693522Y283569D01*
X640750D01*
X639384Y283297D01*
X638227Y282523D01*
X608703Y253000D01*
X596250D01*
Y242547D01*
X588020Y234317D01*
X586750Y234843D01*
Y238500D01*
X569250D01*
Y223000D01*
X573814D01*
X574397Y221593D01*
X575593Y220397D01*
X577155Y219750D01*
X578845D01*
X580407Y220397D01*
X581603Y221593D01*
X582186Y223000D01*
X586431D01*
Y139442D01*
X586397Y139407D01*
X585750Y137845D01*
Y136155D01*
X586397Y134593D01*
X587593Y133397D01*
X589155Y132750D01*
X590845D01*
X592407Y133397D01*
X593603Y134593D01*
X594250Y136155D01*
Y137845D01*
X593603Y139407D01*
X593569Y139442D01*
Y229772D01*
X595077Y231280D01*
X596250Y230794D01*
Y219000D01*
X613750D01*
Y234500D01*
X599956D01*
X599470Y235673D01*
X601297Y237500D01*
X613750D01*
Y247953D01*
X642228Y276431D01*
X695000D01*
X696366Y276703D01*
X697523Y277477D01*
X697952Y277905D01*
X698948Y277148D01*
X696720Y272979D01*
X695347Y268455D01*
X694884Y263750D01*
X694902D01*
Y237000D01*
X691500D01*
Y233500D01*
X689393Y232374D01*
X686500Y230000D01*
X684126Y227107D01*
X682361Y223806D01*
X681275Y220225D01*
X680914Y216560D01*
X680902Y216500D01*
Y163000D01*
X681290Y161049D01*
X682395Y159395D01*
X684049Y158290D01*
X686000Y157902D01*
X687951Y158290D01*
X689605Y159395D01*
X690710Y161049D01*
X691098Y163000D01*
Y216500D01*
X691069Y216644D01*
X691355Y218816D01*
X692249Y220975D01*
X693672Y222828D01*
X695199Y224000D01*
X708500D01*
Y237000D01*
X705098D01*
Y263750D01*
X705043Y264024D01*
X705484Y267372D01*
X706882Y270746D01*
X709106Y273644D01*
X710965Y275071D01*
X711375Y274797D01*
X713375Y274400D01*
X724625D01*
X726625Y274797D01*
X728320Y275930D01*
X729453Y277625D01*
X729850Y279625D01*
Y285875D01*
X729453Y287875D01*
X728320Y289570D01*
X726625Y290703D01*
X724625Y291100D01*
X713375D01*
X712836Y290993D01*
X712210Y292164D01*
X719781Y299734D01*
X720554Y300892D01*
X720826Y302257D01*
Y302900D01*
X724625D01*
X726625Y303297D01*
X728320Y304430D01*
X729453Y306125D01*
X729850Y308125D01*
Y314375D01*
X729453Y316375D01*
X728320Y318070D01*
X726625Y319203D01*
X724625Y319600D01*
X724098D01*
Y375200D01*
X724055Y375416D01*
X724269Y376495D01*
X725693Y377140D01*
X726140Y376881D01*
X728683Y376200D01*
X731317D01*
X733860Y376881D01*
X736140Y378198D01*
X738002Y380060D01*
X739318Y382340D01*
X740000Y384883D01*
Y387517D01*
X739318Y390060D01*
X738002Y392340D01*
X736140Y394202D01*
X733860Y395518D01*
X731317Y396200D01*
D02*
G37*
G36*
X547000Y380069D02*
X547000Y380069D01*
X545000D01*
X543634Y379797D01*
X542477Y379023D01*
X541703Y377866D01*
X541431Y376500D01*
X541703Y375134D01*
X542477Y373977D01*
X543634Y373203D01*
X545000Y372931D01*
X547000D01*
X548366Y373203D01*
X549523Y373977D01*
X550297Y375134D01*
X550569Y376500D01*
X550297Y377866D01*
X549523Y379023D01*
X548366Y379797D01*
X547000Y380069D01*
D02*
G37*
G36*
X667796Y389000D02*
X666204D01*
X664734Y388391D01*
X663609Y387266D01*
X663178Y386224D01*
X648022Y371069D01*
X640500D01*
Y374000D01*
X623500D01*
Y361000D01*
X640500D01*
Y363931D01*
X649500D01*
X650866Y364203D01*
X652023Y364977D01*
X668224Y381177D01*
X669266Y381609D01*
X670391Y382734D01*
X671000Y384204D01*
Y385796D01*
X670391Y387266D01*
X669266Y388391D01*
X667796Y389000D01*
D02*
G37*
G36*
X130845Y371200D02*
X129155D01*
X127593Y370553D01*
X126397Y369357D01*
X125750Y367795D01*
Y366105D01*
X126397Y364543D01*
X127593Y363347D01*
X129155Y362700D01*
X130845D01*
X132407Y363347D01*
X133603Y364543D01*
X134250Y366105D01*
Y367795D01*
X133603Y369357D01*
X132407Y370553D01*
X130845Y371200D01*
D02*
G37*
G36*
X83845Y385250D02*
X82155D01*
X80593Y384603D01*
X79397Y383407D01*
X78892Y382189D01*
X54703Y358000D01*
X42250D01*
Y353819D01*
X32750D01*
Y358000D01*
X15250D01*
Y342500D01*
X32750D01*
Y346681D01*
X42250D01*
Y342500D01*
X59750D01*
Y352953D01*
X83547Y376750D01*
X83845D01*
X85407Y377397D01*
X86603Y378593D01*
X87250Y380155D01*
Y381845D01*
X86603Y383407D01*
X85407Y384603D01*
X83845Y385250D01*
D02*
G37*
G36*
X555500Y369604D02*
X552367Y369191D01*
X549448Y367982D01*
X546941Y366059D01*
X545362Y364000D01*
X538500D01*
Y351000D01*
X543431D01*
Y346478D01*
X543203Y346250D01*
X543155D01*
X541593Y345603D01*
X541558Y345569D01*
X537200D01*
X535834Y345297D01*
X534677Y344523D01*
X528453Y338300D01*
X505500D01*
Y326870D01*
X505500Y326800D01*
Y325600D01*
X505500Y325530D01*
Y314100D01*
X505500D01*
Y312900D01*
X505500D01*
Y301400D01*
X505500D01*
Y300200D01*
X505500D01*
Y288700D01*
X505500D01*
Y287500D01*
X505500D01*
Y276000D01*
X505500D01*
Y274800D01*
X505500D01*
Y263370D01*
X505500Y263300D01*
Y262100D01*
X505500Y262030D01*
Y250670D01*
X505500Y250600D01*
Y249400D01*
X505500Y249330D01*
Y237970D01*
X505500Y237900D01*
Y236700D01*
X505500Y236630D01*
Y225270D01*
X505500Y225200D01*
Y224000D01*
X505500Y223930D01*
Y212570D01*
X505500Y212500D01*
Y211300D01*
X505500Y211230D01*
Y199800D01*
X533500D01*
Y211230D01*
X533500Y211300D01*
Y212500D01*
X533500Y212570D01*
Y223930D01*
X533500Y224000D01*
Y225200D01*
X533500Y225270D01*
Y236630D01*
X533500Y236700D01*
Y237900D01*
X533500Y237970D01*
Y249330D01*
X533500Y249400D01*
Y250600D01*
X533500Y250670D01*
Y262030D01*
X533500Y262100D01*
Y263300D01*
X533500Y263370D01*
Y274800D01*
X533500D01*
Y276000D01*
X533500D01*
Y287500D01*
X533500D01*
Y288700D01*
X533500D01*
Y300200D01*
X533500D01*
Y301400D01*
X533500D01*
Y312900D01*
X533500D01*
Y314100D01*
X533500D01*
Y325530D01*
X533500Y325600D01*
Y326800D01*
X533500Y326870D01*
Y333253D01*
X538678Y338431D01*
X541558D01*
X541593Y338397D01*
X543155Y337750D01*
X544845D01*
X546407Y338397D01*
X547603Y339593D01*
X548250Y341155D01*
Y341203D01*
X549523Y342477D01*
X550297Y343634D01*
X550569Y345000D01*
Y351000D01*
X555500D01*
Y362431D01*
X555500Y362431D01*
X563500D01*
Y351000D01*
X568431D01*
Y348478D01*
X565203Y345250D01*
X565155D01*
X563593Y344603D01*
X562397Y343407D01*
X561750Y341845D01*
Y341797D01*
X559477Y339523D01*
X558703Y338366D01*
X558431Y337000D01*
Y281478D01*
X548477Y271523D01*
X547703Y270366D01*
X547431Y269000D01*
Y260250D01*
X542250D01*
Y244750D01*
X559750D01*
Y260250D01*
X554569D01*
Y267522D01*
X564523Y277477D01*
X565297Y278634D01*
X565569Y280000D01*
Y280941D01*
X566750Y281155D01*
X567397Y279593D01*
X568593Y278397D01*
X570155Y277750D01*
X571845D01*
X573407Y278397D01*
X574603Y279593D01*
X575250Y281155D01*
Y281924D01*
X600767Y307441D01*
X615000D01*
X615000Y307441D01*
X615296Y307500D01*
X625500D01*
Y309681D01*
X631500D01*
Y307000D01*
X648500D01*
Y309681D01*
X658250D01*
Y305500D01*
X675750D01*
Y321000D01*
X671569D01*
Y323000D01*
X676750D01*
Y338500D01*
X659250D01*
Y323000D01*
X664431D01*
Y321000D01*
X658250D01*
Y316819D01*
X648500D01*
Y320000D01*
X631500D01*
Y316819D01*
X625500D01*
Y320500D01*
X609750D01*
Y335000D01*
X586250D01*
Y317000D01*
X608500D01*
Y313559D01*
X599500D01*
X599500Y313559D01*
X598329Y313326D01*
X597337Y312663D01*
X597337Y312663D01*
X570924Y286250D01*
X570155D01*
X568593Y285603D01*
X567397Y284407D01*
X566750Y282845D01*
X565569Y283059D01*
Y335522D01*
X566797Y336750D01*
X566845D01*
X568407Y337397D01*
X569603Y338593D01*
X570250Y340155D01*
Y340203D01*
X574523Y344477D01*
X575297Y345634D01*
X575569Y347000D01*
Y351000D01*
X580500D01*
Y362431D01*
X586000D01*
X586250Y361186D01*
Y345000D01*
X609750D01*
Y363000D01*
X598665D01*
X597013Y365013D01*
X594653Y366950D01*
X591960Y368389D01*
X589039Y369276D01*
X586000Y369575D01*
Y369569D01*
X555500D01*
Y369604D01*
D02*
G37*
G36*
X696594Y342250D02*
X694406D01*
X692384Y341413D01*
X690837Y339865D01*
X690000Y337844D01*
Y335656D01*
X690837Y333634D01*
X692384Y332087D01*
X694406Y331250D01*
X696594D01*
X698615Y332087D01*
X700163Y333634D01*
X701000Y335656D01*
Y337844D01*
X700163Y339865D01*
X698615Y341413D01*
X696594Y342250D01*
D02*
G37*
G36*
X59750Y339500D02*
X42250D01*
Y324000D01*
X59750D01*
Y339500D01*
D02*
G37*
G36*
X106750Y412750D02*
X89250D01*
Y397250D01*
X94941D01*
Y328000D01*
X94941Y328000D01*
X95174Y326829D01*
X95837Y325837D01*
X108750Y312924D01*
Y312155D01*
X109397Y310593D01*
X110593Y309397D01*
X112155Y308750D01*
X113845D01*
X115407Y309397D01*
X116603Y310593D01*
X117250Y312155D01*
Y313845D01*
X116603Y315407D01*
X115407Y316603D01*
X113845Y317250D01*
X113076D01*
X101059Y329267D01*
Y397250D01*
X106750D01*
Y412750D01*
D02*
G37*
G36*
X32750Y339500D02*
X15250D01*
Y324000D01*
X20431D01*
Y314950D01*
X19593Y314603D01*
X18397Y313407D01*
X17750Y311845D01*
Y310155D01*
X18397Y308593D01*
X19593Y307397D01*
X21155Y306750D01*
X22845D01*
X24407Y307397D01*
X25603Y308593D01*
X26250Y310155D01*
Y310203D01*
X26523Y310477D01*
X27297Y311634D01*
X27569Y313000D01*
Y324000D01*
X32750D01*
Y339500D01*
D02*
G37*
G36*
X320845Y310250D02*
X319155D01*
X317593Y309603D01*
X316397Y308407D01*
X315750Y306845D01*
Y305155D01*
X316397Y303593D01*
X317593Y302397D01*
X319155Y301750D01*
X320845D01*
X322407Y302397D01*
X323603Y303593D01*
X324250Y305155D01*
Y306845D01*
X323603Y308407D01*
X322407Y309603D01*
X320845Y310250D01*
D02*
G37*
G36*
X410845Y304500D02*
X409155D01*
X407593Y303853D01*
X406397Y302657D01*
X405750Y301095D01*
Y299405D01*
X406397Y297843D01*
X407593Y296647D01*
X409155Y296000D01*
X410845D01*
X412407Y296647D01*
X413603Y297843D01*
X414250Y299405D01*
Y301095D01*
X413603Y302657D01*
X412407Y303853D01*
X410845Y304500D01*
D02*
G37*
G36*
X617000Y298569D02*
X615634Y298297D01*
X614477Y297523D01*
X613703Y296366D01*
X613431Y295000D01*
X613703Y293634D01*
X614477Y292477D01*
X614977Y291977D01*
X616134Y291203D01*
X617500Y290931D01*
X618866Y291203D01*
X620023Y291977D01*
X620797Y293134D01*
X621069Y294500D01*
X620797Y295866D01*
X620023Y297023D01*
X619523Y297523D01*
X618366Y298297D01*
X617000Y298569D01*
D02*
G37*
G36*
X696594Y300750D02*
X694406D01*
X692384Y299913D01*
X690837Y298365D01*
X690000Y296344D01*
Y294156D01*
X690837Y292134D01*
X692384Y290587D01*
X694406Y289750D01*
X696594D01*
X698615Y290587D01*
X700163Y292134D01*
X701000Y294156D01*
Y296344D01*
X700163Y298365D01*
X698615Y299913D01*
X696594Y300750D01*
D02*
G37*
G36*
X675750Y302500D02*
X658250D01*
Y287000D01*
X675750D01*
Y302500D01*
D02*
G37*
G36*
X494500Y338300D02*
X466500D01*
Y331486D01*
X418327Y283314D01*
X412447D01*
X412407Y283353D01*
X410845Y284000D01*
X409155D01*
X407593Y283353D01*
X406397Y282157D01*
X405750Y280595D01*
Y278905D01*
X406397Y277343D01*
X407184Y276556D01*
X407029Y275176D01*
X406983Y275098D01*
X406392Y274853D01*
X405197Y273657D01*
X404550Y272095D01*
Y270405D01*
X404940Y269463D01*
X404066Y268314D01*
X401697D01*
X401407Y268603D01*
X399845Y269250D01*
X398155D01*
X396593Y268603D01*
X395397Y267407D01*
X394750Y265845D01*
Y264155D01*
X395397Y262593D01*
X396593Y261397D01*
X398155Y260750D01*
X399845D01*
X401407Y261397D01*
X401697Y261686D01*
X404295D01*
X404690Y261095D01*
Y259405D01*
X404872Y258965D01*
X404024Y257695D01*
X398431D01*
X398142Y257984D01*
X396580Y258631D01*
X394889D01*
X393327Y257984D01*
X392131Y256789D01*
X391484Y255227D01*
Y253536D01*
X392131Y251974D01*
X393327Y250778D01*
X394889Y250131D01*
X396580D01*
X398142Y250778D01*
X398431Y251068D01*
X404103D01*
X404808Y250012D01*
X404690Y249727D01*
Y248314D01*
X401697D01*
X401407Y248603D01*
X399845Y249250D01*
X398155D01*
X396593Y248603D01*
X395397Y247407D01*
X394750Y245845D01*
Y244155D01*
X395397Y242593D01*
X396593Y241397D01*
X398155Y240750D01*
X399845D01*
X401407Y241397D01*
X401697Y241686D01*
X403671D01*
X404319Y241038D01*
X405180Y240463D01*
X405197Y240289D01*
X404550Y238727D01*
Y237036D01*
X405197Y235474D01*
X406392Y234278D01*
X407954Y233631D01*
X409645D01*
X411207Y234278D01*
X411528Y234599D01*
X460177D01*
X461445Y234852D01*
X462520Y235570D01*
X464786Y237836D01*
X466177D01*
X466500Y236700D01*
X466500Y236566D01*
Y229886D01*
X465405Y228791D01*
X438513D01*
X437484Y229820D01*
X436409Y230539D01*
X435141Y230791D01*
X406924D01*
X405426Y231411D01*
X403735D01*
X402173Y230764D01*
X400978Y229569D01*
X400331Y228006D01*
Y226316D01*
X400978Y224754D01*
X402173Y223558D01*
X403735Y222911D01*
X405426D01*
X405536Y222956D01*
X406750Y222085D01*
Y221132D01*
X406417Y220634D01*
X403357D01*
X403068Y220923D01*
X401506Y221570D01*
X399815D01*
X398253Y220923D01*
X397058Y219728D01*
X396411Y218166D01*
Y216475D01*
X397058Y214913D01*
X398253Y213717D01*
X399815Y213070D01*
X401506D01*
X403068Y213717D01*
X403357Y214007D01*
X406569D01*
X407454Y213416D01*
X407458Y213415D01*
X407514Y213373D01*
X407807Y212953D01*
X408136Y211985D01*
X407780Y211125D01*
Y209434D01*
X406723Y208667D01*
X405628Y208214D01*
X404433Y207018D01*
X403786Y205456D01*
Y203766D01*
X404433Y202204D01*
X405628Y201008D01*
X407190Y200361D01*
X407944D01*
X408920Y200165D01*
X409117Y199188D01*
Y198434D01*
X409764Y196872D01*
X410960Y195677D01*
X412522Y195030D01*
X414212D01*
X415774Y195677D01*
X416064Y195966D01*
X426275D01*
X427543Y196218D01*
X427870Y196436D01*
X438577D01*
X466500Y168514D01*
Y161700D01*
X494500D01*
Y173130D01*
X494500Y173200D01*
X494500D01*
Y174400D01*
X494500D01*
Y185830D01*
X494500Y185900D01*
X494500D01*
Y187100D01*
X494500D01*
Y198530D01*
X494500Y198600D01*
X494500D01*
Y199800D01*
X494500D01*
Y211230D01*
X494500Y211300D01*
X494500D01*
Y212500D01*
X494500D01*
Y223930D01*
X494500Y224000D01*
X494500D01*
Y225200D01*
X494500D01*
Y236630D01*
X494500Y236700D01*
Y237900D01*
X494500Y237970D01*
Y249400D01*
X494500D01*
Y250600D01*
X494500D01*
X494500Y250670D01*
Y262100D01*
X494500D01*
Y263300D01*
X494500D01*
X494500Y263370D01*
Y274800D01*
X494500D01*
Y276000D01*
X494500D01*
X494500Y276070D01*
Y287500D01*
X494500D01*
Y288700D01*
X494500D01*
X494500Y288770D01*
Y300200D01*
X494500D01*
Y301400D01*
X494500D01*
X494500Y301470D01*
Y312900D01*
X494500D01*
Y314100D01*
X494500D01*
X494500Y314170D01*
Y325600D01*
X494500D01*
Y326800D01*
X494500D01*
X494500Y326870D01*
Y338300D01*
D02*
G37*
G36*
X398845Y298250D02*
X397155D01*
X395593Y297603D01*
X394397Y296407D01*
X393750Y294845D01*
Y293155D01*
X394397Y291593D01*
X395593Y290397D01*
X397155Y289750D01*
X397337Y289515D01*
X397794Y288480D01*
X397268Y287210D01*
Y285520D01*
X397915Y283958D01*
X399111Y282762D01*
X400673Y282115D01*
X402364D01*
X403926Y282762D01*
X405121Y283958D01*
X405768Y285520D01*
Y287210D01*
X405121Y288773D01*
X403926Y289968D01*
X402364Y290615D01*
X402181Y290850D01*
X401724Y291885D01*
X402250Y293155D01*
Y294845D01*
X401603Y296407D01*
X400407Y297603D01*
X398845Y298250D01*
D02*
G37*
G36*
X677845Y272250D02*
X676155D01*
X674593Y271603D01*
X673397Y270407D01*
X673228Y270000D01*
X666500D01*
Y266559D01*
X659500D01*
Y270000D01*
X642500D01*
Y264367D01*
X640951Y263539D01*
X638210Y261290D01*
X635961Y258549D01*
X634290Y255422D01*
X633260Y252029D01*
X632913Y248500D01*
X632941D01*
Y230000D01*
X627500D01*
Y217000D01*
X644500D01*
Y230000D01*
X639059D01*
Y248500D01*
X639038Y248604D01*
X639433Y251600D01*
X640629Y254488D01*
X642532Y256968D01*
X642574Y257000D01*
X659500D01*
Y260441D01*
X666500D01*
Y257000D01*
X683500D01*
Y270000D01*
X680772D01*
X680603Y270407D01*
X679407Y271603D01*
X677845Y272250D01*
D02*
G37*
G36*
X65845Y271250D02*
X64155D01*
X62593Y270603D01*
X61397Y269407D01*
X60750Y267845D01*
Y266155D01*
X61397Y264593D01*
X62593Y263397D01*
X64155Y262750D01*
X65845D01*
X67407Y263397D01*
X68603Y264593D01*
X69250Y266155D01*
Y267845D01*
X68603Y269407D01*
X67407Y270603D01*
X65845Y271250D01*
D02*
G37*
G36*
X26119Y276750D02*
X23881D01*
X21719Y276171D01*
X19781Y275052D01*
X18198Y273469D01*
X17079Y271531D01*
X16500Y269369D01*
Y267131D01*
X17079Y264969D01*
X18198Y263031D01*
X19781Y261448D01*
X21719Y260329D01*
X23881Y259750D01*
X26119D01*
X28281Y260329D01*
X30219Y261448D01*
X31802Y263031D01*
X32921Y264969D01*
X33500Y267131D01*
Y269369D01*
X32921Y271531D01*
X31802Y273469D01*
X30219Y275052D01*
X28281Y276171D01*
X26119Y276750D01*
D02*
G37*
G36*
X586750Y257000D02*
X569250D01*
Y241500D01*
X586750D01*
Y257000D01*
D02*
G37*
G36*
X675000Y248069D02*
X673000D01*
X671634Y247797D01*
X670477Y247023D01*
X669703Y245866D01*
X669431Y244500D01*
X669703Y243134D01*
X670477Y241977D01*
X671634Y241203D01*
X673000Y240931D01*
X675000D01*
X676366Y241203D01*
X677523Y241977D01*
X678297Y243134D01*
X678569Y244500D01*
X678297Y245866D01*
X677523Y247023D01*
X676366Y247797D01*
X675000Y248069D01*
D02*
G37*
G36*
X732000Y251618D02*
X724000D01*
X721659Y251152D01*
X719674Y249826D01*
X718348Y247841D01*
X717883Y245500D01*
Y237500D01*
X718348Y235159D01*
X719674Y233174D01*
X721659Y231848D01*
X724000Y231383D01*
X732000D01*
X734341Y231848D01*
X736326Y233174D01*
X737652Y235159D01*
X738118Y237500D01*
Y245500D01*
X737652Y247841D01*
X736326Y249826D01*
X734341Y251152D01*
X732000Y251618D01*
D02*
G37*
G36*
X65845Y231250D02*
X64155D01*
X62593Y230603D01*
X61397Y229407D01*
X60750Y227845D01*
Y226155D01*
X61397Y224593D01*
X62593Y223397D01*
X64155Y222750D01*
X65845D01*
X67407Y223397D01*
X68603Y224593D01*
X69250Y226155D01*
Y227845D01*
X68603Y229407D01*
X67407Y230603D01*
X65845Y231250D01*
D02*
G37*
G36*
X559750Y241750D02*
X542250D01*
Y226250D01*
X546480D01*
X546750Y225845D01*
Y224155D01*
X547397Y222593D01*
X548593Y221397D01*
X550155Y220750D01*
X551845D01*
X553407Y221397D01*
X554603Y222593D01*
X555250Y224155D01*
Y225845D01*
X555520Y226250D01*
X559750D01*
Y241750D01*
D02*
G37*
G36*
X729316Y226100D02*
X726684D01*
X724140Y225418D01*
X721860Y224102D01*
X719998Y222240D01*
X718681Y219960D01*
X718000Y217416D01*
Y214783D01*
X718681Y212240D01*
X719998Y209960D01*
X721860Y208098D01*
X724140Y206782D01*
X726684Y206100D01*
X729316D01*
X731860Y206782D01*
X734140Y208098D01*
X736002Y209960D01*
X737318Y212240D01*
X738000Y214783D01*
Y217416D01*
X737318Y219960D01*
X736002Y222240D01*
X734140Y224102D01*
X731860Y225418D01*
X729316Y226100D01*
D02*
G37*
G36*
X298714Y211733D02*
X297023D01*
X295461Y211086D01*
X294266Y209890D01*
X293619Y208328D01*
Y206638D01*
X294266Y205076D01*
X295461Y203880D01*
X297023Y203233D01*
X298714D01*
X300276Y203880D01*
X301472Y205076D01*
X302119Y206638D01*
Y208328D01*
X301472Y209890D01*
X300276Y211086D01*
X298714Y211733D01*
D02*
G37*
G36*
X26119Y214250D02*
X23881D01*
X21719Y213671D01*
X19781Y212552D01*
X18198Y210969D01*
X17079Y209031D01*
X16500Y206869D01*
Y204631D01*
X17079Y202469D01*
X18198Y200531D01*
X19781Y198948D01*
X21719Y197829D01*
X23881Y197250D01*
X26119D01*
X28281Y197829D01*
X30219Y198948D01*
X31802Y200531D01*
X32921Y202469D01*
X33500Y204631D01*
Y206869D01*
X32921Y209031D01*
X31802Y210969D01*
X30219Y212552D01*
X28281Y213671D01*
X26119Y214250D01*
D02*
G37*
G36*
X519500Y196419D02*
X518134Y196147D01*
X517269Y195569D01*
X512000D01*
X510634Y195297D01*
X509477Y194523D01*
X508477Y193523D01*
X507703Y192366D01*
X507431Y191000D01*
X507703Y189634D01*
X508477Y188477D01*
X509634Y187703D01*
X511000Y187431D01*
X512366Y187703D01*
X513456Y188431D01*
X518650D01*
X520016Y188703D01*
X521173Y189477D01*
X522023Y190327D01*
X522797Y191484D01*
X523069Y192850D01*
X522797Y194216D01*
X522023Y195373D01*
X520866Y196147D01*
X519500Y196419D01*
D02*
G37*
G36*
X20845Y173250D02*
X19155D01*
X17593Y172603D01*
X16397Y171407D01*
X15750Y169845D01*
Y168155D01*
X16397Y166593D01*
X17593Y165397D01*
X19155Y164750D01*
X20845D01*
X22407Y165397D01*
X23603Y166593D01*
X24250Y168155D01*
Y169845D01*
X23603Y171407D01*
X22407Y172603D01*
X20845Y173250D01*
D02*
G37*
G36*
X533500Y185900D02*
X505500D01*
Y174470D01*
X505500Y174400D01*
Y173200D01*
X505500Y173130D01*
Y161700D01*
X533500D01*
Y173130D01*
X533500Y173200D01*
Y174400D01*
X533500Y174470D01*
Y185900D01*
D02*
G37*
G36*
X729316Y175300D02*
X726684D01*
X724140Y174618D01*
X721860Y173302D01*
X719998Y171440D01*
X718681Y169160D01*
X718000Y166616D01*
Y163983D01*
X718681Y161440D01*
X719998Y159160D01*
X721860Y157298D01*
X724140Y155982D01*
X726684Y155300D01*
X729316D01*
X731860Y155982D01*
X734140Y157298D01*
X736002Y159160D01*
X737318Y161440D01*
X738000Y163983D01*
Y166616D01*
X737318Y169160D01*
X736002Y171440D01*
X734140Y173302D01*
X731860Y174618D01*
X729316Y175300D01*
D02*
G37*
G36*
X39500Y150000D02*
X23500D01*
Y130000D01*
X39500D01*
Y150000D01*
D02*
G37*
G36*
X729316Y149900D02*
X726684D01*
X724140Y149219D01*
X721860Y147902D01*
X719998Y146040D01*
X718681Y143760D01*
X718000Y141216D01*
Y138583D01*
X718681Y136040D01*
X719998Y133760D01*
X721860Y131898D01*
X724140Y130582D01*
X726684Y129900D01*
X729316D01*
X731860Y130582D01*
X734140Y131898D01*
X736002Y133760D01*
X737318Y136040D01*
X738000Y138583D01*
Y141216D01*
X737318Y143760D01*
X736002Y146040D01*
X734140Y147902D01*
X731860Y149219D01*
X729316Y149900D01*
D02*
G37*
G36*
Y124500D02*
X726684D01*
X724140Y123819D01*
X721860Y122502D01*
X719998Y120640D01*
X718681Y118360D01*
X718000Y115816D01*
Y113183D01*
X718681Y110640D01*
X719998Y108360D01*
X721860Y106498D01*
X724140Y105182D01*
X726684Y104500D01*
X729316D01*
X731860Y105182D01*
X734140Y106498D01*
X736002Y108360D01*
X737318Y110640D01*
X738000Y113183D01*
Y115816D01*
X737318Y118360D01*
X736002Y120640D01*
X734140Y122502D01*
X731860Y123819D01*
X729316Y124500D01*
D02*
G37*
%LPD*%
G36*
X408241Y365327D02*
X407657Y364743D01*
X406939Y363668D01*
X406686Y362400D01*
Y340373D01*
X399457Y333143D01*
X398284Y333629D01*
Y352598D01*
X404343Y358657D01*
X405061Y359732D01*
X405314Y361000D01*
Y365727D01*
X406086Y366500D01*
X407755D01*
X408241Y365327D01*
D02*
G37*
G36*
X285646Y282029D02*
X285646Y282028D01*
X285993Y281681D01*
X285750Y281095D01*
Y279405D01*
X286397Y277843D01*
X286911Y277329D01*
X286385Y276059D01*
X263167D01*
X233500Y305726D01*
Y312900D01*
X233500D01*
X233811Y314041D01*
X253633D01*
X285646Y282029D01*
D02*
G37*
G36*
X273638Y317036D02*
Y314733D01*
X273638Y314733D01*
X273871Y313563D01*
X274534Y312570D01*
X275753Y311351D01*
Y309905D01*
X276401Y308343D01*
X277596Y307147D01*
X279158Y306500D01*
X280849D01*
X281139Y306620D01*
X282195Y305914D01*
Y296747D01*
X282195Y296747D01*
X281151Y295482D01*
X280883Y295443D01*
X259458Y316868D01*
X259944Y318041D01*
X272633D01*
X273638Y317036D01*
D02*
G37*
G36*
X266941Y175645D02*
X267934Y174982D01*
X269104Y174749D01*
X290128D01*
X290614Y173576D01*
X287547Y170509D01*
X233500D01*
Y173200D01*
X233500D01*
Y174400D01*
X233500D01*
Y177091D01*
X265495D01*
X266941Y175645D01*
D02*
G37*
G36*
X196397Y189593D02*
X197593Y188397D01*
X199155Y187750D01*
X200845D01*
X202407Y188397D01*
X203603Y189593D01*
X203685Y189791D01*
X205500D01*
Y187170D01*
X205500Y187100D01*
X205500D01*
Y185900D01*
X205500D01*
Y174400D01*
X205500D01*
Y173200D01*
X205500D01*
Y163485D01*
X204327Y162999D01*
X202059Y165267D01*
Y172000D01*
X202059Y172000D01*
X201826Y173171D01*
X201163Y174163D01*
X195763Y179563D01*
X194771Y180226D01*
X194500Y180280D01*
Y185900D01*
X194500D01*
Y187100D01*
X194500D01*
Y191106D01*
X195750Y191155D01*
X196397Y189593D01*
D02*
G37*
G36*
X141500Y159000D02*
X150015D01*
X150501Y157827D01*
X149837Y157163D01*
X149174Y156171D01*
X148941Y155000D01*
X148198Y154000D01*
X138500D01*
Y150559D01*
X135500D01*
Y154000D01*
X118500D01*
X118059Y155087D01*
Y158737D01*
X118230Y158852D01*
X119500Y158173D01*
Y158000D01*
X136500D01*
Y162441D01*
X141500D01*
Y159000D01*
D02*
G37*
G36*
X285913Y163218D02*
X279754Y157059D01*
X210267D01*
X206799Y160527D01*
X207285Y161700D01*
X233500D01*
Y164391D01*
X285427D01*
X285913Y163218D01*
D02*
G37*
G36*
X331939Y178362D02*
X332221Y178149D01*
Y172547D01*
X308143Y148469D01*
X302404D01*
X301918Y149642D01*
X330727Y178451D01*
X330881Y178493D01*
X331939Y178362D01*
D02*
G37*
G36*
X138500Y141000D02*
X146878D01*
X147404Y139730D01*
X144837Y137163D01*
X144174Y136171D01*
X143941Y135000D01*
X143941Y135000D01*
X138500D01*
Y133059D01*
X135500D01*
Y135000D01*
X118500D01*
X118059Y136087D01*
Y139913D01*
X118500Y141000D01*
X135500D01*
Y144441D01*
X138500D01*
Y141000D01*
D02*
G37*
G36*
X429236Y126377D02*
Y113500D01*
X426800D01*
Y113500D01*
X425600D01*
Y113500D01*
X423164D01*
Y127750D01*
X422911Y129018D01*
X422193Y130093D01*
X409485Y142802D01*
X408410Y143520D01*
X407142Y143772D01*
X401567D01*
X397203Y148136D01*
X397501Y149634D01*
X397664Y149702D01*
X405912D01*
X429236Y126377D01*
D02*
G37*
G36*
X466500Y320454D02*
Y318786D01*
X421027Y273314D01*
X417770D01*
X417687Y273397D01*
X416612Y274115D01*
X415344Y274367D01*
X412885D01*
X412492Y274807D01*
X412407Y276147D01*
X412947Y276686D01*
X419700D01*
X420968Y276939D01*
X422043Y277657D01*
X465327Y320941D01*
X466500Y320454D01*
D02*
G37*
D10*
X336250Y352150D02*
X356350Y372250D01*
X336250Y331721D02*
Y352150D01*
X331750Y360350D02*
X343650Y372250D01*
X331750Y299250D02*
Y360350D01*
X336250Y331721D02*
X339000Y328971D01*
X299383Y323515D02*
X300000Y324132D01*
X299383Y316882D02*
Y323515D01*
X300000Y324132D02*
Y352400D01*
X304883Y312508D02*
Y360217D01*
X292850Y372250D02*
X304883Y360217D01*
X325000Y321250D02*
X326250Y320000D01*
X331750Y299250D02*
X338000Y293000D01*
X325000Y321250D02*
Y360574D01*
X326250Y314000D02*
Y320000D01*
X408204Y204780D02*
X447620D01*
X412309Y210000D02*
X418269D01*
X412030Y210280D02*
X412309Y210000D01*
X426275Y199280D02*
X426746Y199750D01*
X408036Y204611D02*
X408204Y204780D01*
X447620D02*
X450250Y202150D01*
X413367Y199280D02*
X426275D01*
X407879Y217320D02*
X408722Y216477D01*
X461323D01*
X400661Y217320D02*
X407879D01*
X309712Y305712D02*
X310000Y306000D01*
Y361464D01*
X343500Y310222D02*
Y346700D01*
X339000Y302000D02*
Y328971D01*
X348000Y338500D02*
X381750Y372250D01*
X343500Y310222D02*
X346000Y307722D01*
X343500Y346700D02*
X369050Y372250D01*
X348000Y323021D02*
X353000Y318021D01*
X348000Y323021D02*
Y338500D01*
X346000Y298000D02*
Y307722D01*
X353000Y307000D02*
Y318021D01*
X426746Y199750D02*
X439950D01*
X411000Y221977D02*
X434277D01*
X435277Y220977D01*
X463187D01*
X404581Y227161D02*
X404897Y227477D01*
X463414Y220750D02*
X478000D01*
X463187Y220977D02*
X463414Y220750D01*
X404897Y227477D02*
X435141D01*
X437141Y225477D01*
X439950Y199750D02*
X472250Y167450D01*
X437141Y225477D02*
X466777D01*
X472250Y230950D01*
X461323Y216477D02*
X472250Y205550D01*
X478000Y220750D02*
X480500Y218250D01*
X408940Y260250D02*
X415660D01*
X430600Y265500D02*
X472250Y307150D01*
X399000Y265000D02*
X405912D01*
X408800Y271250D02*
X408996Y271054D01*
X408832Y237913D02*
X460177D01*
X414533Y265500D02*
X430600D01*
X459281Y243381D02*
X472250Y256350D01*
X406662Y243381D02*
X459281D01*
X406662Y265750D02*
X414283D01*
X414533Y265500D01*
X416190Y259720D02*
X437520D01*
X408800Y237881D02*
X408832Y237913D01*
X408996Y271054D02*
X415344D01*
X405043Y245000D02*
X406662Y243381D01*
X405912Y265000D02*
X406662Y265750D01*
X395734Y254381D02*
X444881D01*
X452081Y248881D02*
X472250Y269050D01*
X399000Y245000D02*
X405043D01*
X408940Y248881D02*
X452081D01*
X415660Y260250D02*
X416190Y259720D01*
X444881Y254381D02*
X472250Y281750D01*
X469750Y241150D02*
X472250Y243650D01*
X463414Y241150D02*
X469750D01*
X460177Y237913D02*
X463414Y241150D01*
X415344Y271054D02*
X416397Y270000D01*
X422400D01*
X410250Y280000D02*
X419700D01*
X410000Y279750D02*
X410250Y280000D01*
X304500Y312125D02*
X304883Y312508D01*
X365000Y136400D02*
Y147000D01*
X385759Y145241D02*
X395042Y135958D01*
X398942D01*
X369740Y158459D02*
X370500Y157699D01*
Y145396D02*
Y157699D01*
X356350Y127750D02*
X365000Y136400D01*
X370150Y145046D02*
X370500Y145396D01*
X369740Y158459D02*
Y159000D01*
X369050Y99500D02*
X370150Y100600D01*
Y145046D01*
X380259Y141941D02*
Y147480D01*
X381500Y148722D01*
X380240Y159000D02*
X380623Y158617D01*
X375759Y144291D02*
Y150759D01*
X349123Y155015D02*
X349617Y154520D01*
X380623Y154156D02*
Y158617D01*
X375759Y150759D02*
X376000Y151000D01*
X349123Y155015D02*
Y158617D01*
X374650Y143182D02*
X375759Y144291D01*
X380259Y141941D02*
X394450Y127750D01*
X380623Y154156D02*
X381500Y153278D01*
X359500Y143600D02*
Y156740D01*
X348740Y159000D02*
X349123Y158617D01*
X381500Y148722D02*
Y153278D01*
X359240Y157000D02*
X359500Y156740D01*
X374650Y134850D02*
Y143182D01*
X389904Y154769D02*
Y155652D01*
X390357Y156105D01*
Y159617D01*
X390740Y160000D01*
X395390Y153360D02*
X395735Y153015D01*
X407285D01*
X432550Y127750D01*
X348500Y147826D02*
Y153403D01*
X354383Y147888D02*
Y150742D01*
X348500Y153403D02*
X349617Y154520D01*
X342554Y141880D02*
X348500Y147826D01*
X354000Y151125D02*
X354383Y150742D01*
Y147888D02*
X354654Y147617D01*
X329260Y146380D02*
X337380D01*
X342000Y151000D01*
X389000Y303000D02*
X389099Y303099D01*
Y358941D01*
X405336Y311058D02*
Y326335D01*
X394970Y312791D02*
Y353970D01*
X389099Y358941D02*
X391950Y361792D01*
X405336Y311058D02*
X405599Y310795D01*
X394599Y312420D02*
X394970Y312791D01*
X400099Y305099D02*
Y329099D01*
X400000Y305000D02*
X400099Y305099D01*
Y329099D02*
X410000Y339000D01*
X419850Y99500D02*
Y127750D01*
X432550Y99500D02*
Y127750D01*
X305550Y99500D02*
Y127750D01*
X389890Y154755D02*
X389904Y154769D01*
X389890Y150763D02*
Y154755D01*
Y150763D02*
X400194Y140458D01*
X315750Y369750D02*
X318250Y372250D01*
X315750Y314885D02*
Y369750D01*
X405336Y326335D02*
X418051Y339051D01*
Y357751D01*
X410000Y339000D02*
Y362400D01*
X418500Y209769D02*
X455331D01*
X418269Y210000D02*
X418500Y209769D01*
X344418Y137380D02*
X354654Y147617D01*
X343650Y127750D02*
X359500Y143600D01*
X450250Y197033D02*
Y202150D01*
X464632Y182650D02*
X478000D01*
X480500Y180150D01*
X450250Y197033D02*
X464632Y182650D01*
X455331Y209769D02*
X472250Y192850D01*
X419700Y280000D02*
X472250Y332550D01*
X400194Y140458D02*
X407142D01*
X402000Y361000D02*
Y367100D01*
X391950Y361792D02*
Y378000D01*
X394970Y353970D02*
X402000Y361000D01*
X391950Y378000D02*
X394450Y380500D01*
X472250Y243650D02*
X480500D01*
X437520Y259720D02*
X472250Y294450D01*
X422400Y270000D02*
X472250Y319850D01*
X325000Y360574D02*
X328450Y364024D01*
X318250Y372250D02*
Y380500D01*
X280150Y372250D02*
X300000Y352400D01*
X308050Y363414D02*
X310000Y361464D01*
X472250Y332550D02*
X480500D01*
X402000Y367100D02*
X407150Y372250D01*
X410000Y362400D02*
X419850Y372250D01*
X314960Y137160D02*
X320040D01*
X329260Y146380D01*
X305550Y127750D02*
X314960Y137160D01*
X332380Y141880D02*
X342554D01*
X318250Y127750D02*
X332380Y141880D01*
X340580Y137380D02*
X344418D01*
X330950Y127750D02*
X340580Y137380D01*
X318250Y99500D02*
Y127750D01*
X330950Y99500D02*
Y127750D01*
X343650Y99500D02*
Y127750D01*
X356350Y99500D02*
Y127750D01*
X381750Y99500D02*
Y127750D01*
X374650Y134850D02*
X381750Y127750D01*
X394450Y99500D02*
Y127750D01*
X398942Y135958D02*
X407150Y127750D01*
Y99500D02*
Y127750D01*
X407142Y140458D02*
X419850Y127750D01*
X418051Y357751D02*
X432550Y372250D01*
Y380500D01*
X419850Y372250D02*
Y380500D01*
X407150Y372250D02*
Y380500D01*
X381750Y372250D02*
Y380500D01*
X369050Y372250D02*
Y380500D01*
X356350Y372250D02*
Y380500D01*
X343650Y372250D02*
Y380500D01*
X328450Y364024D02*
Y378000D01*
X330950Y380500D01*
X308050Y363414D02*
Y378000D01*
X305550Y380500D02*
X308050Y378000D01*
X292850Y372250D02*
Y380500D01*
X280150Y372250D02*
Y380500D01*
X472250Y167450D02*
X480500D01*
X472250Y192850D02*
X480500D01*
X472250Y205550D02*
X480500D01*
X472250Y230950D02*
X480500D01*
X472250Y256350D02*
X480500D01*
X472250Y269050D02*
X480500D01*
X472250Y281750D02*
X480500D01*
X472250Y294450D02*
X480500D01*
X472250Y307150D02*
X480500D01*
X472250Y319850D02*
X480500D01*
D12*
X700000Y230500D02*
G03*
X686000Y216500I0J-14000D01*
G01*
X719000Y282750D02*
G03*
X700000Y263750I0J-19000D01*
G01*
X730000Y386200D02*
G03*
X719000Y375200I0J-11000D01*
G01*
X653000Y503000D02*
G03*
X628000Y528000I-25000J0D01*
G01*
X653000Y463650D02*
G03*
X678400Y438250I25400J0D01*
G01*
X611000Y443500D02*
G03*
X612000Y442500I1000J0D01*
G01*
X610500Y443000D02*
G03*
X611000Y443500I0J500D01*
G01*
X691000Y400767D02*
Y409750D01*
X267450Y60500D02*
Y68750D01*
X271400Y72700D01*
Y74571D01*
X275076Y78247D01*
X292111D01*
X295787Y81923D01*
X318000Y415000D02*
X318250Y415250D01*
Y419500D01*
X292850D02*
X318250D01*
X519500Y269050D02*
Y281750D01*
X719000Y311250D02*
Y375200D01*
X280150Y419500D02*
X292850D01*
X519500Y294450D02*
Y307150D01*
Y319850D01*
Y281750D02*
Y294450D01*
X419850Y419500D02*
X432550D01*
X407150D02*
X419850D01*
X686000Y163000D02*
Y216500D01*
X700000Y230500D02*
Y263750D01*
X653000Y463650D02*
Y503000D01*
X678400Y438250D02*
X691000D01*
X586000Y443000D02*
X610500D01*
X612000Y442500D02*
X634000D01*
D15*
X604250Y226000D02*
G03*
X605000Y226750I0J750D01*
G01*
X651000Y263500D02*
G03*
X636000Y248500I0J-15000D01*
G01*
X290793Y188756D02*
X291470D01*
X243295Y190006D02*
X289543D01*
X290793Y188756D01*
X273840Y183836D02*
X273983Y183693D01*
X268733Y183836D02*
X273840D01*
X266563Y186006D02*
X268733Y183836D01*
X292537Y177808D02*
X296294Y181564D01*
X269104Y177808D02*
X292537D01*
X266762Y180150D02*
X269104Y177808D01*
X251994Y194006D02*
X274820D01*
X275763Y194949D01*
X299265D01*
X227750Y205550D02*
X243295Y190006D01*
X237543Y190100D02*
X241638Y186006D01*
X227750Y218250D02*
X251994Y194006D01*
X241638Y186006D02*
X266563D01*
X219500Y180150D02*
X266762D01*
X280496Y205000D02*
X285918D01*
X254529Y204171D02*
X279668D01*
X280496Y205000D01*
X227750Y230950D02*
X254529Y204171D01*
X222250Y190100D02*
X237543D01*
X267450Y372250D02*
X293070Y346630D01*
Y299070D02*
Y346630D01*
X287809Y284191D02*
X289522Y282478D01*
Y280728D02*
Y282478D01*
X287809Y284191D02*
Y284191D01*
X289522Y280728D02*
X290000Y280250D01*
X254900Y317100D02*
X287809Y284191D01*
X222250Y317100D02*
X254900D01*
X288425Y240000D02*
X288750Y240325D01*
X227750Y281750D02*
X269500Y240000D01*
X288425D01*
X374000Y436938D02*
X375400Y435538D01*
Y434862D02*
Y435538D01*
X374000Y436938D02*
Y469000D01*
X392801D02*
X402500Y459301D01*
Y443000D02*
Y459301D01*
X374000Y469000D02*
X392801D01*
X293261Y292739D02*
X298000Y288000D01*
X289261Y292739D02*
X293261D01*
X285254Y296747D02*
X289261Y292739D01*
X285254Y296747D02*
Y315403D01*
X275557Y325100D02*
X285254Y315403D01*
X247000Y335000D02*
Y368500D01*
X386000Y455000D02*
X393250D01*
X389000Y435500D02*
Y435750D01*
X393817D01*
X276697Y314733D02*
X280004Y311427D01*
Y310750D02*
Y311427D01*
X256900Y325100D02*
X275557D01*
X276697Y314733D02*
Y318303D01*
X273900Y321100D02*
X276697Y318303D01*
X329500Y181550D02*
Y190750D01*
X329000Y191250D02*
X329500Y190750D01*
X329000Y191250D02*
Y197000D01*
X280678Y148000D02*
X322000Y189322D01*
Y211000D01*
X334750Y179943D02*
Y189230D01*
X335280Y171280D02*
Y179413D01*
X286450Y138500D02*
X329500Y181550D01*
X343000Y185330D02*
Y199000D01*
X334750Y179943D02*
X335280Y179413D01*
X340360Y182690D02*
X343000Y185330D01*
X296294Y181564D02*
Y181678D01*
X299220Y184604D02*
Y185280D01*
X288814Y167450D02*
X304470Y183106D01*
Y185470D01*
X296294Y181678D02*
X299220Y184604D01*
X304470Y185470D02*
X309000Y190000D01*
X281021Y154000D02*
X316000Y188979D01*
Y198000D01*
X295196Y235522D02*
X303522D01*
X304000Y236000D01*
X295175Y235500D02*
X295196Y235522D01*
X261300Y235500D02*
X295175D01*
X254100Y230000D02*
X292750D01*
X288750Y240325D02*
X293575D01*
X292750Y230000D02*
X293000Y230250D01*
X227750Y269050D02*
X261300Y235500D01*
X293575Y240325D02*
X294000Y240750D01*
X227750Y243650D02*
X247400Y224000D01*
X309000D01*
X227750Y307150D02*
X261900Y273000D01*
X301000D01*
X227750Y294450D02*
X257200Y265000D01*
X291000D01*
X292850Y99500D02*
Y127750D01*
X327000Y534500D02*
X327500Y535000D01*
X326000Y463000D02*
X329000Y460000D01*
X163500Y148757D02*
Y190500D01*
X165850Y192850D01*
X180500D01*
X159500Y159757D02*
Y199500D01*
X165550Y205550D02*
X180500D01*
X159500Y199500D02*
X165550Y205550D01*
X153000Y184500D02*
Y202000D01*
X178129Y215879D02*
X180500Y218250D01*
X166879Y215879D02*
X178129D01*
X153000Y202000D02*
X166879Y215879D01*
X118000Y130000D02*
X147000D01*
Y135000D01*
Y128500D02*
Y130000D01*
X150379Y138379D02*
X153121D01*
X163500Y148757D01*
X157121Y157379D02*
X159500Y159757D01*
X147000Y135000D02*
X150379Y138379D01*
X154379Y157379D02*
X157121D01*
X152000Y155000D02*
X154379Y157379D01*
X152000Y147500D02*
Y155000D01*
X130000Y147500D02*
X152000D01*
X115000Y133000D02*
Y161000D01*
Y133000D02*
X118000Y130000D01*
X119000Y165000D02*
X130000D01*
X115000Y161000D02*
X119000Y165000D01*
X130500Y165500D02*
X153000D01*
X130000Y165000D02*
X130500Y165500D01*
Y184500D02*
X153000D01*
X130000Y184000D02*
X130500Y184500D01*
X132191Y504809D02*
X183000Y454000D01*
Y392000D02*
Y454000D01*
X131191Y504809D02*
X132191D01*
X131000Y505000D02*
X131191Y504809D01*
X243500Y466000D02*
Y468000D01*
X361000Y439000D02*
Y453000D01*
X340360Y167010D02*
Y182690D01*
X350000Y512000D02*
X353000Y515000D01*
X361000Y481000D02*
X365000Y477000D01*
X378824D02*
X379996Y478172D01*
X365000Y477000D02*
X378824D01*
X379996Y478172D02*
Y483605D01*
X247000Y335000D02*
X256900Y325100D01*
X239200Y321100D02*
X273900D01*
X361121Y508136D02*
X383996Y485262D01*
X357121Y506479D02*
X379996Y483605D01*
X385167Y476000D02*
X390000D01*
X383996Y477172D02*
X385167Y476000D01*
X383996Y477172D02*
Y485262D01*
X615000Y310500D02*
X617750Y313250D01*
X599500Y310500D02*
X615000D01*
X571000Y282000D02*
X599500Y310500D01*
X98000Y328000D02*
Y405000D01*
Y328000D02*
X113000Y313000D01*
X98000Y423500D02*
X110500D01*
X129000Y405000D01*
X200271Y192000D02*
X201121Y192850D01*
X219500D01*
X200000Y192000D02*
X200271D01*
X209000Y154000D02*
X281021D01*
X199000Y164000D02*
X209000Y154000D01*
X208200Y148000D02*
X280678D01*
X188750Y167450D02*
X208200Y148000D01*
X199000Y164000D02*
Y172000D01*
X180500Y180150D02*
X183250Y177400D01*
X193600D01*
X199000Y172000D01*
X180500Y167450D02*
X188750D01*
X219500D02*
X288814D01*
X270200Y130500D02*
X271157D01*
X279157Y138500D01*
X267450Y127750D02*
X270200Y130500D01*
X280150Y127750D02*
X286900Y134500D01*
X299017Y145410D02*
X309410D01*
X279157Y138500D02*
X286450D01*
X267450Y106400D02*
Y127750D01*
X286900Y134500D02*
X288107D01*
X299017Y145410D01*
X280150Y99500D02*
Y127750D01*
X309410Y145410D02*
X335280Y171280D01*
X295343Y447598D02*
X298927D01*
X385500Y439000D02*
Y441000D01*
X294172Y446427D02*
X295343Y447598D01*
X294172Y436461D02*
Y446427D01*
X385500Y439000D02*
X389000Y435500D01*
X293000Y453941D02*
Y462250D01*
X295343Y451598D02*
X297270D01*
X293000Y453941D02*
X295343Y451598D01*
X321515Y475843D02*
X326828D01*
X297270Y451598D02*
X321515Y475843D01*
X323172Y471843D02*
X324828D01*
X326000Y470672D01*
X298927Y447598D02*
X323172Y471843D01*
X328000Y477015D02*
Y488000D01*
X326000Y463000D02*
Y470672D01*
X326828Y475843D02*
X328000Y477015D01*
X383000Y513000D02*
Y536000D01*
X667000Y294000D02*
Y294750D01*
X267450Y372250D02*
Y380500D01*
X603000Y226000D02*
X604250D01*
X578000Y224000D02*
Y230750D01*
X551000Y225000D02*
Y234000D01*
X636000Y223500D02*
Y248500D01*
X651000Y263500D02*
X675000D01*
X266500Y466000D02*
X279250D01*
X283000Y462250D01*
X275500Y505000D02*
X303000D01*
X351000Y537000D02*
X353121Y534879D01*
X354172Y521793D02*
X355950D01*
X353000Y515000D02*
Y520621D01*
X355950Y521793D02*
X357121Y520621D01*
X357607Y525793D02*
X361121Y522278D01*
Y508136D02*
Y522278D01*
X354293Y525793D02*
X357607D01*
X353000Y520621D02*
X354172Y521793D01*
X357121Y506479D02*
Y520621D01*
X353121Y526964D02*
X354293Y525793D01*
X353121Y526964D02*
Y534879D01*
X371500Y513000D02*
X383000D01*
X326500D02*
Y534000D01*
X243500Y468000D02*
X247000Y471500D01*
X250000Y502500D02*
X252500Y505000D01*
X270000Y441500D02*
X276500D01*
X266500Y445000D02*
Y447000D01*
Y445000D02*
X270000Y441500D01*
X276500D02*
X282000Y436000D01*
X275500Y533000D02*
X299729D01*
X302729Y536000D01*
X303000D01*
X326500Y534000D02*
X327000Y534500D01*
X361500Y461000D02*
X362500Y460000D01*
Y458000D02*
Y460000D01*
X361000Y453000D02*
X363000Y455000D01*
X219500Y332550D02*
X227750D01*
X239200Y321100D01*
X219500Y281750D02*
X227750D01*
X219500Y269050D02*
X227750D01*
Y256350D02*
X254100Y230000D01*
X219500Y256350D02*
X227750D01*
X219500Y243650D02*
X227750D01*
X219500Y230950D02*
X227750D01*
X219500Y218250D02*
X227750D01*
X219500Y205550D02*
X227750D01*
X219500Y192850D02*
X222250Y190100D01*
X219500Y294450D02*
X227750D01*
X219500Y307150D02*
X227750D01*
X219500Y319850D02*
X222250Y317100D01*
X296557Y130500D02*
X307467Y141410D01*
X295600Y130500D02*
X296557D01*
X307467Y141410D02*
X314760D01*
X292850Y127750D02*
X295600Y130500D01*
X314760Y141410D02*
X340360Y167010D01*
D19*
X632000Y367500D02*
D03*
Y390500D02*
D03*
X636000Y223500D02*
D03*
Y200500D02*
D03*
X127000Y147500D02*
D03*
Y128500D02*
D03*
X147000Y147500D02*
D03*
Y128500D02*
D03*
X150000Y184500D02*
D03*
Y165500D02*
D03*
X128000Y183500D02*
D03*
Y164500D02*
D03*
X640000Y294500D02*
D03*
Y313500D02*
D03*
X617000Y295000D02*
D03*
Y314000D02*
D03*
X675000Y244500D02*
D03*
Y263500D02*
D03*
X651000Y244500D02*
D03*
Y263500D02*
D03*
X700000Y207500D02*
D03*
Y230500D02*
D03*
X547000Y357500D02*
D03*
Y376500D02*
D03*
X572000Y376500D02*
D03*
Y357500D02*
D03*
X634000Y419500D02*
D03*
Y442500D02*
D03*
X611000Y420500D02*
D03*
Y443500D02*
D03*
D21*
X667000Y294750D02*
D03*
Y313250D02*
D03*
X668000Y330750D02*
D03*
Y349250D02*
D03*
X551000Y234000D02*
D03*
Y252500D02*
D03*
X578000Y230750D02*
D03*
Y249250D02*
D03*
X605000Y245250D02*
D03*
Y226750D02*
D03*
X51000Y331750D02*
D03*
Y350250D02*
D03*
X98000Y405000D02*
D03*
Y423500D02*
D03*
X24000Y331750D02*
D03*
Y350250D02*
D03*
D24*
X442000Y484555D02*
D03*
X472000D02*
D03*
X442000Y514555D02*
D03*
X472000D02*
D03*
X502000D02*
D03*
D28*
X385500Y458000D02*
D03*
X362500D02*
D03*
X385500Y441000D02*
D03*
X362500D02*
D03*
X425500Y443000D02*
D03*
X402500D02*
D03*
X394500Y513000D02*
D03*
X371500D02*
D03*
X350500Y535000D02*
D03*
X327500D02*
D03*
X266500Y466000D02*
D03*
X243500D02*
D03*
Y447000D02*
D03*
X266500D02*
D03*
X252500Y533000D02*
D03*
X275500D02*
D03*
Y505000D02*
D03*
X252500D02*
D03*
X326500Y513000D02*
D03*
X349500D02*
D03*
D32*
X598000Y354000D02*
D03*
Y326000D02*
D03*
D68*
X728000Y114500D02*
D03*
Y139900D02*
D03*
Y190700D02*
D03*
Y216100D02*
D03*
Y165300D02*
D03*
X730000Y411600D02*
D03*
Y386200D02*
D03*
D73*
X602600Y528000D02*
D03*
X577200D02*
D03*
X628000D02*
D03*
D80*
X598000Y354000D02*
G03*
X586000Y366000I-12000J0D01*
G01*
X555500D02*
G03*
X547000Y357500I0J-8500D01*
G01*
X555500Y366000D02*
X586000D01*
X547000Y345000D02*
Y357500D01*
X629250Y416750D02*
Y420250D01*
X673000Y244500D02*
X675000D01*
X512000Y192000D02*
X518650D01*
X511000Y191000D02*
X512000Y192000D01*
X518650D02*
X519500Y192850D01*
X267450Y411250D02*
X275700Y403000D01*
X267450Y411250D02*
Y419500D01*
X275700Y403000D02*
X283500D01*
X440445Y513000D02*
X442000Y514555D01*
X527750Y332550D02*
X537200Y342000D01*
X544000D01*
X519500Y332550D02*
X527750D01*
X577000Y250250D02*
Y252000D01*
Y250250D02*
X578000Y249250D01*
X590000Y137000D02*
Y231250D01*
X604000Y245250D02*
X605000D01*
X590000Y231250D02*
X604000Y245250D01*
X24000Y350250D02*
X51000D01*
X52000D02*
X82750Y381000D01*
X51000Y350250D02*
X52000D01*
X82750Y381000D02*
X83000D01*
X562000Y280000D02*
Y337000D01*
X572000Y347000D01*
X551000Y269000D02*
X562000Y280000D01*
X551000Y252500D02*
Y269000D01*
X695000Y280000D02*
X717257Y302257D01*
X640750Y280000D02*
X695000D01*
X717257Y309507D02*
X719000Y311250D01*
X717257Y302257D02*
Y309507D01*
X605000Y245250D02*
X606000D01*
X640750Y280000D01*
X617750Y313250D02*
X667000D01*
X24000Y313000D02*
Y331750D01*
X22000Y311000D02*
X24000Y313000D01*
X617000Y295000D02*
X617500Y294500D01*
X629250Y416750D02*
X631750D01*
X632000Y416500D01*
X629000Y420500D02*
X629250Y420250D01*
X649500Y367500D02*
X667000Y385000D01*
X632000Y367500D02*
X649500D01*
X668000Y314250D02*
Y330750D01*
X667000Y313250D02*
X668000Y314250D01*
X545000Y376500D02*
X547000D01*
X547000Y376500D01*
X544000Y342000D02*
X547000Y345000D01*
X572000Y347000D02*
Y357500D01*
D81*
X700000Y50000D02*
D03*
X700000Y500000D02*
D03*
X50000Y500000D02*
D03*
X50000Y50000D02*
D03*
D82*
X25000Y268250D02*
D03*
Y205750D02*
D03*
D83*
X695500Y295250D02*
D03*
Y336750D02*
D03*
D84*
X728000Y241500D02*
D03*
X730000Y437000D02*
D03*
D85*
X502000Y484555D02*
D03*
D86*
X531690Y523445D02*
D03*
X412310D02*
D03*
D87*
X691000Y400767D02*
D03*
X273983Y183693D02*
D03*
X299265Y194949D02*
D03*
X291470Y188756D02*
D03*
X285918Y205000D02*
D03*
X297869Y207483D02*
D03*
X71750Y395000D02*
D03*
X299383Y316882D02*
D03*
X315750Y314885D02*
D03*
X326250Y314000D02*
D03*
X286000Y246000D02*
D03*
X375400Y434862D02*
D03*
X408036Y204611D02*
D03*
X413367Y199280D02*
D03*
X412030Y210280D02*
D03*
X400661Y217320D02*
D03*
X293070Y299070D02*
D03*
X320000Y306000D02*
D03*
X298000Y288000D02*
D03*
X309712Y305712D02*
D03*
X339000Y302000D02*
D03*
X346000Y298000D02*
D03*
X338000Y293000D02*
D03*
X353000Y307000D02*
D03*
X398000Y294000D02*
D03*
X410000Y300250D02*
D03*
X456030Y199030D02*
D03*
X411000Y221977D02*
D03*
X404581Y227161D02*
D03*
X408800Y271250D02*
D03*
X408940Y248881D02*
D03*
X408800Y237881D02*
D03*
X395734Y254381D02*
D03*
X408940Y260250D02*
D03*
X399000Y245000D02*
D03*
X401518Y286365D02*
D03*
X410000Y279750D02*
D03*
X299317Y84051D02*
D03*
X269826Y83250D02*
D03*
X247000Y368500D02*
D03*
X393250Y455000D02*
D03*
X393817Y435750D02*
D03*
X720000Y272250D02*
D03*
X677000Y268000D02*
D03*
X304500Y312125D02*
D03*
X280004Y310750D02*
D03*
X383000Y342000D02*
D03*
X365000Y147000D02*
D03*
X385759Y145241D02*
D03*
X359240Y157000D02*
D03*
X369740Y159000D02*
D03*
X348740D02*
D03*
X376000Y151000D02*
D03*
X390740Y160000D02*
D03*
X380240Y159000D02*
D03*
X395390Y153360D02*
D03*
X354000Y151125D02*
D03*
X342000Y151000D02*
D03*
X329000Y197000D02*
D03*
X343000Y199000D02*
D03*
X334750Y189230D02*
D03*
X299220Y185280D02*
D03*
X309000Y190000D02*
D03*
X316000Y198000D02*
D03*
X322000Y211000D02*
D03*
X304000Y236000D02*
D03*
X294000Y240750D02*
D03*
Y218750D02*
D03*
X309000Y224000D02*
D03*
X293000Y230250D02*
D03*
X306000Y216000D02*
D03*
X301000Y273000D02*
D03*
X290000Y280250D02*
D03*
X291000Y265000D02*
D03*
X389000Y303000D02*
D03*
X383599Y311000D02*
D03*
X405599Y310795D02*
D03*
X400000Y305000D02*
D03*
X394599Y312420D02*
D03*
X419000Y80000D02*
D03*
X443000Y89000D02*
D03*
X369050Y60500D02*
D03*
X357000Y63000D02*
D03*
X686000Y163000D02*
D03*
X636000Y223500D02*
D03*
X327000Y534500D02*
D03*
X351000Y537000D02*
D03*
X180500Y192850D02*
D03*
Y205550D02*
D03*
Y218250D02*
D03*
X199000Y263500D02*
D03*
Y282500D02*
D03*
X500000Y303000D02*
D03*
X183000Y392000D02*
D03*
X131000Y505000D02*
D03*
X414000Y319000D02*
D03*
X368000Y269500D02*
D03*
X663000Y252000D02*
D03*
X511000Y191000D02*
D03*
X361000Y481000D02*
D03*
X577000Y252000D02*
D03*
X590000Y137000D02*
D03*
X82000Y460000D02*
D03*
X551000Y282000D02*
D03*
X26000Y430250D02*
D03*
X50000Y390000D02*
D03*
X283500Y403000D02*
D03*
X485000Y443000D02*
D03*
X369000Y414000D02*
D03*
X343000Y417000D02*
D03*
X356000D02*
D03*
X632000Y390500D02*
D03*
X83000Y381000D02*
D03*
X331000Y418000D02*
D03*
X199000Y472000D02*
D03*
X302500Y403000D02*
D03*
X262000Y350000D02*
D03*
X189000Y405000D02*
D03*
X374000Y469000D02*
D03*
X130000Y366950D02*
D03*
X571000Y282000D02*
D03*
X113000Y313000D02*
D03*
X129000Y405000D02*
D03*
X131000Y60500D02*
D03*
X213000Y180000D02*
D03*
X200000Y192000D02*
D03*
X60000Y167000D02*
D03*
X33000Y140000D02*
D03*
X65000Y247000D02*
D03*
X52000Y331000D02*
D03*
X22000Y311000D02*
D03*
X294172Y436461D02*
D03*
X293000Y462250D02*
D03*
X329000Y460000D02*
D03*
Y490000D02*
D03*
X383250Y536000D02*
D03*
X617000Y295000D02*
D03*
X599000Y324750D02*
D03*
X667000Y294000D02*
D03*
X382000Y416000D02*
D03*
X394000Y415000D02*
D03*
X520000Y346000D02*
D03*
X544000Y342000D02*
D03*
X566000Y341000D02*
D03*
X604000Y196000D02*
D03*
X603000Y226000D02*
D03*
X578000Y224000D02*
D03*
X551000Y225000D02*
D03*
X611000Y443500D02*
D03*
X586000Y443000D02*
D03*
X65000Y227000D02*
D03*
Y267000D02*
D03*
X20000Y169000D02*
D03*
X399000Y265000D02*
D03*
X266000Y465000D02*
D03*
Y448000D02*
D03*
X283000Y462250D02*
D03*
X276000Y504000D02*
D03*
X274000Y533000D02*
D03*
X390000Y476000D02*
D03*
X383000Y513000D02*
D03*
X350000Y512000D02*
D03*
X252500Y533000D02*
D03*
X282000Y436000D02*
D03*
X303000Y505000D02*
D03*
Y536000D02*
D03*
X361500Y461000D02*
D03*
D88*
X673072Y401928D02*
D03*
X386393Y205393D02*
D03*
X357000Y289000D02*
D03*
X333000Y284000D02*
D03*
X700000Y450000D02*
D03*
Y350000D02*
D03*
Y150000D02*
D03*
X675000Y200000D02*
D03*
X650000Y150000D02*
D03*
X625000Y500000D02*
D03*
Y400000D02*
D03*
X600000Y150000D02*
D03*
X525000Y500000D02*
D03*
X500000Y350000D02*
D03*
Y250000D02*
D03*
Y150000D02*
D03*
X450000Y350000D02*
D03*
Y150000D02*
D03*
Y50000D02*
D03*
X425000Y500000D02*
D03*
Y400000D02*
D03*
X250000Y50000D02*
D03*
X225000Y500000D02*
D03*
X200000Y350000D02*
D03*
X225000Y100000D02*
D03*
X200000Y50000D02*
D03*
X150000Y350000D02*
D03*
X175000Y100000D02*
D03*
X150000Y50000D02*
D03*
X125000Y200000D02*
D03*
X100000Y150000D02*
D03*
X125000Y100000D02*
D03*
X100000Y50000D02*
D03*
X50000Y450000D02*
D03*
X75000Y300000D02*
D03*
X50000Y250000D02*
D03*
X75000Y200000D02*
D03*
X50000Y150000D02*
D03*
X75000Y100000D02*
D03*
X374000Y313000D02*
D03*
X361000Y311000D02*
D03*
X445844Y453120D02*
D03*
X456000Y464000D02*
D03*
X424000Y456000D02*
D03*
X434000Y467000D02*
D03*
X337000Y529000D02*
D03*
X314345Y528778D02*
D03*
X314000Y510000D02*
D03*
X337000Y511000D02*
D03*
X394000Y532000D02*
D03*
X456000Y527000D02*
D03*
X427000D02*
D03*
X353000Y452000D02*
D03*
X313000Y451000D02*
D03*
X380000Y299000D02*
D03*
X389000Y290000D02*
D03*
X394000Y276000D02*
D03*
X384000Y260000D02*
D03*
X387000Y250000D02*
D03*
X389000Y224000D02*
D03*
X351000Y192000D02*
D03*
X334000Y206000D02*
D03*
X306000Y207000D02*
D03*
X311000Y232000D02*
D03*
X305000Y281000D02*
D03*
X321000Y297000D02*
D03*
X680000Y70000D02*
D03*
X672500Y50000D02*
D03*
X680000Y30000D02*
D03*
X700000Y22500D02*
D03*
X720000Y30000D02*
D03*
X727500Y50000D02*
D03*
X720000Y70000D02*
D03*
X700000Y77500D02*
D03*
X700000Y527500D02*
D03*
X720000Y520000D02*
D03*
X727500Y500000D02*
D03*
X720000Y480000D02*
D03*
X700000Y472500D02*
D03*
X680000Y480000D02*
D03*
X672500Y500000D02*
D03*
X680000Y520000D02*
D03*
X50000Y527500D02*
D03*
X70000Y520000D02*
D03*
X77500Y500000D02*
D03*
X70000Y480000D02*
D03*
X50000Y472500D02*
D03*
X30000Y480000D02*
D03*
X22500Y500000D02*
D03*
X30000Y520000D02*
D03*
X50000Y77500D02*
D03*
X70000Y70000D02*
D03*
X77500Y50000D02*
D03*
X70000Y30000D02*
D03*
X50000Y22500D02*
D03*
X30000Y30000D02*
D03*
X22500Y50000D02*
D03*
X30000Y70000D02*
D03*
D89*
X318000Y415000D02*
D03*
X520000Y307000D02*
D03*
X79000Y441000D02*
D03*
X667000Y385000D02*
D03*
D90*
X406000Y427000D02*
D03*
D91*
X432550Y60500D02*
D03*
X419850D02*
D03*
X407150D02*
D03*
X394450D02*
D03*
X381750D02*
D03*
X432550Y99500D02*
D03*
X419850D02*
D03*
X407150D02*
D03*
X394450D02*
D03*
X381750D02*
D03*
X369050Y60500D02*
D03*
X356350D02*
D03*
X369050Y99500D02*
D03*
X356350D02*
D03*
X343650Y60500D02*
D03*
Y99500D02*
D03*
X267450Y60500D02*
D03*
Y99500D02*
D03*
X280150D02*
D03*
Y60500D02*
D03*
X292850Y99500D02*
D03*
Y60500D02*
D03*
X305550Y99500D02*
D03*
Y60500D02*
D03*
X318250Y99500D02*
D03*
X330950D02*
D03*
X318250Y60500D02*
D03*
X330950D02*
D03*
Y380500D02*
D03*
X318250D02*
D03*
X330950Y419500D02*
D03*
X318250D02*
D03*
X305550Y380500D02*
D03*
Y419500D02*
D03*
X292850Y380500D02*
D03*
Y419500D02*
D03*
X280150Y380500D02*
D03*
Y419500D02*
D03*
X267450D02*
D03*
Y380500D02*
D03*
X343650Y419500D02*
D03*
Y380500D02*
D03*
X356350Y419500D02*
D03*
X369050D02*
D03*
X356350Y380500D02*
D03*
X369050D02*
D03*
X381750Y419500D02*
D03*
X394450D02*
D03*
X407150D02*
D03*
X419850D02*
D03*
X432550D02*
D03*
X381750Y380500D02*
D03*
X394450D02*
D03*
X407150D02*
D03*
X419850D02*
D03*
X432550D02*
D03*
D92*
X719000Y311250D02*
D03*
Y282750D02*
D03*
X691000Y438250D02*
D03*
Y409750D02*
D03*
D93*
X31500Y140000D02*
D03*
X62500D02*
D03*
D94*
X219500Y230950D02*
D03*
Y218250D02*
D03*
X180500Y230950D02*
D03*
Y218250D02*
D03*
X219500Y205550D02*
D03*
X180500D02*
D03*
X219500Y192850D02*
D03*
X180500D02*
D03*
X219500Y180150D02*
D03*
X180500D02*
D03*
Y167450D02*
D03*
X219500D02*
D03*
X180500Y243650D02*
D03*
X219500D02*
D03*
X180500Y256350D02*
D03*
Y269050D02*
D03*
X219500Y256350D02*
D03*
Y269050D02*
D03*
X180500Y281750D02*
D03*
Y294450D02*
D03*
Y307150D02*
D03*
Y319850D02*
D03*
Y332550D02*
D03*
X219500Y281750D02*
D03*
Y294450D02*
D03*
Y307150D02*
D03*
Y319850D02*
D03*
Y332550D02*
D03*
X480500Y269050D02*
D03*
Y281750D02*
D03*
X519500Y269050D02*
D03*
Y281750D02*
D03*
X480500Y294450D02*
D03*
X519500D02*
D03*
X480500Y307150D02*
D03*
X519500D02*
D03*
X480500Y319850D02*
D03*
X519500D02*
D03*
Y332550D02*
D03*
X480500D02*
D03*
X519500Y256350D02*
D03*
X480500D02*
D03*
X519500Y243650D02*
D03*
Y230950D02*
D03*
X480500Y243650D02*
D03*
Y230950D02*
D03*
X519500Y218250D02*
D03*
Y205550D02*
D03*
Y192850D02*
D03*
Y180150D02*
D03*
Y167450D02*
D03*
X480500Y218250D02*
D03*
Y205550D02*
D03*
Y192850D02*
D03*
Y180150D02*
D03*
Y167450D02*
D03*
M02*
