G04*
G04 #@! TF.GenerationSoftware,Altium Limited,Altium Designer,23.6.0 (18)*
G04*
G04 Layer_Color=8388736*
%FSLAX44Y44*%
%MOMM*%
G71*
G04*
G04 #@! TF.SameCoordinates,14FF5C31-A8A2-4FAE-BB4F-38B74BC4A96C*
G04*
G04*
G04 #@! TF.FilePolarity,Negative*
G04*
G01*
G75*
%ADD15R,2.0032X1.2032*%
%ADD16R,0.9432X1.9032*%
%ADD17R,1.2032X2.0032*%
%ADD18R,1.9032X0.9432*%
%ADD19C,1.2032*%
D15*
X843350Y262890D02*
D03*
Y288290D02*
D03*
X895350Y262890D02*
D03*
Y288290D02*
D03*
X843350Y339090D02*
D03*
X895350D02*
D03*
X843350Y364490D02*
D03*
X895350D02*
D03*
X843350Y440690D02*
D03*
X895350D02*
D03*
X843350Y491490D02*
D03*
X895350D02*
D03*
X843350Y567690D02*
D03*
X895350D02*
D03*
X843350Y593090D02*
D03*
X895350D02*
D03*
Y542290D02*
D03*
X843350D02*
D03*
X895350Y516890D02*
D03*
X843350D02*
D03*
X895350Y466090D02*
D03*
X843350D02*
D03*
X895350Y415290D02*
D03*
X843350D02*
D03*
X895350Y389890D02*
D03*
X843350D02*
D03*
X895350Y313690D02*
D03*
X843350D02*
D03*
X81950Y218440D02*
D03*
Y243840D02*
D03*
X133950Y218440D02*
D03*
Y243840D02*
D03*
X81950Y294640D02*
D03*
X133950D02*
D03*
X81950Y320040D02*
D03*
X133950D02*
D03*
X81950Y396240D02*
D03*
X133950D02*
D03*
X81950Y447040D02*
D03*
X133950D02*
D03*
X81950Y523240D02*
D03*
X133950D02*
D03*
X81950Y548640D02*
D03*
X133950D02*
D03*
Y497840D02*
D03*
X81950D02*
D03*
X133950Y472440D02*
D03*
X81950D02*
D03*
X133950Y421640D02*
D03*
X81950D02*
D03*
X133950Y370840D02*
D03*
X81950D02*
D03*
X133950Y345440D02*
D03*
X81950D02*
D03*
X133950Y269240D02*
D03*
X81950D02*
D03*
D16*
X465240Y214580D02*
D03*
X477940D02*
D03*
X465240Y255580D02*
D03*
X477940D02*
D03*
X490640Y214580D02*
D03*
Y255580D02*
D03*
X566840Y214580D02*
D03*
Y255580D02*
D03*
X554140D02*
D03*
X541440D02*
D03*
X554140Y214580D02*
D03*
X541440D02*
D03*
X528740Y255580D02*
D03*
Y214580D02*
D03*
X516040Y255580D02*
D03*
X503340D02*
D03*
X516040Y214580D02*
D03*
X503340D02*
D03*
X452540Y255580D02*
D03*
X439840D02*
D03*
X427140D02*
D03*
X414440D02*
D03*
X401740D02*
D03*
X452540Y214580D02*
D03*
X439840D02*
D03*
X427140D02*
D03*
X414440D02*
D03*
X401740D02*
D03*
X465240Y534580D02*
D03*
X477940D02*
D03*
X465240Y575580D02*
D03*
X477940D02*
D03*
X490640Y534580D02*
D03*
Y575580D02*
D03*
X566840Y534580D02*
D03*
Y575580D02*
D03*
X554140D02*
D03*
X541440D02*
D03*
X554140Y534580D02*
D03*
X541440D02*
D03*
X528740Y575580D02*
D03*
Y534580D02*
D03*
X516040Y575580D02*
D03*
X503340D02*
D03*
X516040Y534580D02*
D03*
X503340D02*
D03*
X452540Y575580D02*
D03*
X439840D02*
D03*
X427140D02*
D03*
X414440D02*
D03*
X401740D02*
D03*
X452540Y534580D02*
D03*
X439840D02*
D03*
X427140D02*
D03*
X414440D02*
D03*
X401740D02*
D03*
D17*
X652780Y61630D02*
D03*
X627380D02*
D03*
X652780Y113630D02*
D03*
X627380D02*
D03*
X576580Y61630D02*
D03*
Y113630D02*
D03*
X551180Y61630D02*
D03*
Y113630D02*
D03*
X474980Y61630D02*
D03*
Y113630D02*
D03*
X424180Y61630D02*
D03*
Y113630D02*
D03*
X347980Y61630D02*
D03*
Y113630D02*
D03*
X322580Y61630D02*
D03*
Y113630D02*
D03*
X373380D02*
D03*
Y61630D02*
D03*
X398780Y113630D02*
D03*
Y61630D02*
D03*
X449580Y113630D02*
D03*
Y61630D02*
D03*
X500380Y113630D02*
D03*
Y61630D02*
D03*
X525780Y113630D02*
D03*
Y61630D02*
D03*
X601980Y113630D02*
D03*
Y61630D02*
D03*
X647700Y689610D02*
D03*
X622300D02*
D03*
X647700Y741610D02*
D03*
X622300D02*
D03*
X571500Y689610D02*
D03*
Y741610D02*
D03*
X546100Y689610D02*
D03*
Y741610D02*
D03*
X469900Y689610D02*
D03*
Y741610D02*
D03*
X419100Y689610D02*
D03*
Y741610D02*
D03*
X342900Y689610D02*
D03*
Y741610D02*
D03*
X317500Y689610D02*
D03*
Y741610D02*
D03*
X368300D02*
D03*
Y689610D02*
D03*
X393700Y741610D02*
D03*
Y689610D02*
D03*
X444500Y741610D02*
D03*
Y689610D02*
D03*
X495300Y741610D02*
D03*
Y689610D02*
D03*
X520700Y741610D02*
D03*
Y689610D02*
D03*
X596900Y741610D02*
D03*
Y689610D02*
D03*
D18*
X313790Y424130D02*
D03*
Y411430D02*
D03*
X354790Y424130D02*
D03*
Y411430D02*
D03*
X313790Y398730D02*
D03*
X354790D02*
D03*
X313790Y322530D02*
D03*
X354790D02*
D03*
Y335230D02*
D03*
Y347930D02*
D03*
X313790Y335230D02*
D03*
Y347930D02*
D03*
X354790Y360630D02*
D03*
X313790D02*
D03*
X354790Y373330D02*
D03*
Y386030D02*
D03*
X313790Y373330D02*
D03*
Y386030D02*
D03*
X354790Y436830D02*
D03*
Y449530D02*
D03*
Y462230D02*
D03*
Y474930D02*
D03*
Y487630D02*
D03*
X313790Y436830D02*
D03*
Y449530D02*
D03*
Y462230D02*
D03*
Y474930D02*
D03*
Y487630D02*
D03*
X613790Y424130D02*
D03*
Y411430D02*
D03*
X654790Y424130D02*
D03*
Y411430D02*
D03*
X613790Y398730D02*
D03*
X654790D02*
D03*
X613790Y322530D02*
D03*
X654790D02*
D03*
Y335230D02*
D03*
Y347930D02*
D03*
X613790Y335230D02*
D03*
Y347930D02*
D03*
X654790Y360630D02*
D03*
X613790D02*
D03*
X654790Y373330D02*
D03*
Y386030D02*
D03*
X613790Y373330D02*
D03*
Y386030D02*
D03*
X654790Y436830D02*
D03*
Y449530D02*
D03*
Y462230D02*
D03*
Y474930D02*
D03*
Y487630D02*
D03*
X613790Y436830D02*
D03*
Y449530D02*
D03*
Y462230D02*
D03*
Y474930D02*
D03*
Y487630D02*
D03*
D19*
X566420Y287020D02*
D03*
X553720Y298450D02*
D03*
X527050D02*
D03*
X539750Y287020D02*
D03*
X488950D02*
D03*
X476250Y298450D02*
D03*
X502920D02*
D03*
X515620Y287020D02*
D03*
X438150D02*
D03*
X425450Y298450D02*
D03*
X452120D02*
D03*
X464820Y287020D02*
D03*
X401320Y298450D02*
D03*
X414020Y287020D02*
D03*
X650240Y60960D02*
D03*
X624840D02*
D03*
X598170Y62230D02*
D03*
X575310Y58420D02*
D03*
X547370Y62230D02*
D03*
X521970Y59690D02*
D03*
X497840Y62230D02*
D03*
X472440Y59690D02*
D03*
X447040D02*
D03*
X420370Y60960D02*
D03*
X397510D02*
D03*
X370840D02*
D03*
X345440Y59690D02*
D03*
X321310Y58420D02*
D03*
X646430Y742950D02*
D03*
X622300Y741680D02*
D03*
X596900Y740410D02*
D03*
X570230D02*
D03*
X547370D02*
D03*
X520700Y741680D02*
D03*
X495300D02*
D03*
X469900Y739140D02*
D03*
X445770Y741680D02*
D03*
X420370Y739140D02*
D03*
X392430Y742950D02*
D03*
X369570Y739140D02*
D03*
X342900Y740410D02*
D03*
X317500D02*
D03*
X553720Y514350D02*
D03*
X566420Y502920D02*
D03*
X502920Y514350D02*
D03*
X515620Y502920D02*
D03*
X542290D02*
D03*
X529590Y514350D02*
D03*
X452120D02*
D03*
X464820Y502920D02*
D03*
X491490D02*
D03*
X478790Y514350D02*
D03*
X427990D02*
D03*
X440690Y502920D02*
D03*
X414020D02*
D03*
X401320Y514350D02*
D03*
X591820Y323850D02*
D03*
X571500Y336550D02*
D03*
X572770Y361950D02*
D03*
X593090Y349250D02*
D03*
X574040Y387350D02*
D03*
X594360Y374650D02*
D03*
X570230Y411480D02*
D03*
X590550Y398780D02*
D03*
X572770Y438150D02*
D03*
X593090Y425450D02*
D03*
X572770Y463550D02*
D03*
X593090Y450850D02*
D03*
X571500Y488950D02*
D03*
X591820Y476250D02*
D03*
X892810Y264160D02*
D03*
X895350Y288290D02*
D03*
X894080Y313690D02*
D03*
X892810Y340360D02*
D03*
Y364490D02*
D03*
X894080Y389890D02*
D03*
X892810Y414020D02*
D03*
Y439420D02*
D03*
Y464820D02*
D03*
Y488950D02*
D03*
X891540Y515620D02*
D03*
Y541020D02*
D03*
X894080Y567690D02*
D03*
X895350Y593090D02*
D03*
X82550Y218440D02*
D03*
X83820Y243840D02*
D03*
X86360Y270510D02*
D03*
Y295910D02*
D03*
X85090Y322580D02*
D03*
Y346710D02*
D03*
Y372110D02*
D03*
Y397510D02*
D03*
X83820Y421640D02*
D03*
X85090Y447040D02*
D03*
Y471170D02*
D03*
X83820Y497840D02*
D03*
X82550Y523240D02*
D03*
X85090Y547370D02*
D03*
X386080Y335280D02*
D03*
X406400Y322580D02*
D03*
X384810Y360680D02*
D03*
X405130Y347980D02*
D03*
X384810Y386080D02*
D03*
X405130Y373380D02*
D03*
X387350Y412750D02*
D03*
X407670Y400050D02*
D03*
X383540Y436880D02*
D03*
X403860Y424180D02*
D03*
X384810Y462280D02*
D03*
X405130Y449580D02*
D03*
X406400Y474980D02*
D03*
X386080Y487680D02*
D03*
M02*
