M48
;Layer_Color=9474304
;FILE_FORMAT=4:4
METRIC,LZ
;TYPE=PLATED
T1F00S00C0.6000
%
T01
X0008255Y0021844
X0008382Y0024384
X0008636Y0027051
Y0029591
X0008509Y0032258
Y0034671
Y0037211
X0038481Y0036068
Y0038608
X0038608Y0033528
X0037084Y0006096
X0034544Y0005969
X0032131Y0005842
X0039751Y0006096
X0042037
X0044704Y0005969
X0047244
X0049784Y0006223
X0052197Y0005969
X0054737Y0006223
X0057531Y0005842
X0059817Y0006223
X0062484Y0006096
X0065024
X0056642Y0028702
X0055372Y0029845
X0053975Y0028702
X0052705Y0029845
X0051562Y0028702
X0050292Y0029845
X0048895Y0028702
X0047625Y0029845
X0046482Y0028702
X0045212Y0029845
X0043815Y0028702
X0042545Y0029845
X0041402Y0028702
X0040132Y0029845
X004064Y0032258
X0040513Y0034798
Y0037338
X0057277Y0036195
X005715Y0033655
X0059182Y0032385
X0059309Y0034925
X0059436Y0037465
X0057404Y0038735
X0089408Y0038989
X0089281Y0036449
Y0034036
X0089408Y0031369
X0089535Y0028829
X0089281Y0026416
Y0041402
Y0043942
Y0046482
Y0048895
X0089154Y0051562
Y0054102
X0089408Y0056769
X0089535Y0059309
X0064643Y0074295
X006223Y0074168
X005969Y0074041
X0057023
X0054737
X005207Y0074168
X004953
X004699Y0073914
X0044577Y0074168
X0042037Y0073914
X0042799Y0051435
X0045212
X0044069Y0050292
X0046482
X0047879Y0051435
X0050292
X0049149Y0050292
X0051562
X0052959Y0051435
X0055372
X0054229Y0050292
X0056642
X005715Y0048895
X0057277Y0046355
Y0043815
X0057023Y0041148
X0059055Y0039878
X0059309Y0042545
Y0045085
X0059182Y0047625
X004064Y0047498
X0040513Y0044958
X0040386Y0042418
X0040767Y0040005
X0041402Y0050292
X0040132Y0051435
X0038608Y0048768
X0038481Y0046228
X0038354Y0043688
X0038735Y0041275
X0008382Y0042164
X0008509Y0039751
Y0044704
Y0047117
X0008382Y0049784
X0008255Y0052324
X0008509Y0054737
X003175Y0074041
X003429
X0036957Y0073914
X0039243Y0074295
M30
