M48
;Layer_Color=9474304
;FILE_FORMAT=4:4
METRIC,LZ
;TYPE=PLATED
T01F00S00C0.3000
T02F00S00C0.5000
T03F00S00C0.8000
T04F00S00C1.0000
T05F00S00C1.1000
T06F00S00C1.2000
T07F00S00C3.2000
;TYPE=NON_PLATED
T08F00S00C0.7000
%
T01
X00122Y0003865
Y0005135
X00169478Y00075522
X00185Y0007
Y00085
X002145Y0006575
X0022Y00055
X00215Y00045
X00190769Y00041976
X00225Y00015
X0028Y00075
X00285Y00085
Y00095
X0032Y00085
X0037Y00088359
Y0008
X00365Y00075
Y0006
X0036Y00044063
X003293Y00039012
X00328728Y00032443
X0037Y00015
Y00115
X0038
X0037Y0015
X0036
X00395
X0039Y002165
X00395Y002215
X00385
X00375
X0038Y002165
X0037
X00365Y002215
X00355
X0035Y002165
X0036
X0034Y00215
X00335Y0021
X0033Y0023
X00325Y00225
X0032Y0022
X00306495
X00306408Y00209719
X00308697Y00186303
X00285Y00189
Y00202
X002675Y002025
X0027Y00185
X00252524Y00172476
X00250303Y00165303
X00235303Y00180303
X00239834Y00185618
X00229643Y00184643
X00214643Y00185
X00195053Y00179947
X00231475Y002175
Y00224318
X002345Y00229997
X00268636Y00226364
X00265Y002215
X00275Y0022
X00265136Y0025148
X00260682Y002682
X00273682Y00271622
Y0028
X00275Y0029
X00265Y00285
X00275Y0031
X0023
Y003
Y0029
Y00275
Y00265
X00185Y0026
Y00285
X00178822Y00326178
X0018Y00355
X00185Y0035
X0019Y0036
X0023Y00365
Y0035
X00230105Y00343143
X00226479Y0033698
X00230005Y00329531
X0023Y0032
X0027Y0035
X002725Y0036
X0029831Y00355
X00305Y00363255
X00315Y003395
X0032Y003335
X0033
X00335Y003385
X00345
X0034Y003335
X0035
X00355Y003385
X0036Y003335
X00325Y00341364
X0033Y0031
X00319Y003
X0033Y00265
X00325Y0026
X00335Y00235
X0034Y0024
X0037Y00245
X0038
X00255Y00125
X00145Y001
X0012Y00125
X00125Y0017
X001
X00075292Y00185713
X0007Y0012
X0011Y0023
X00115Y0025
X00125Y0026
X0014Y003
X0013Y0034
X00145Y00355
X0014Y0037
X00115Y00385
X0017
X0023Y00395
X00105Y0033
X00065Y00335
X0004Y00355
Y00365
X00045Y00385
X0014Y0021
X004Y002165
X00405Y00219472
X0041Y00214472
X00423796Y00219364
X00423462Y00225771
X00429932Y00220495
X00431665Y00230271
Y00240007
X00426665Y00245007
Y00235007
X00431665Y00250007
Y00270007
X00428165Y00275007
X00431665Y00280007
X00426665Y00285007
X00431665Y00290007
X00428143Y00299402
X00426665Y00304612
X00431665Y00310017
Y00320007
X00426665Y00316367
X00425Y00335
X00415Y0033
X00419069Y00365931
X00407701Y00364993
X00397501
X00429469Y0036379
X00453198Y00339943
X00463418Y00296582
X0046Y0028
X00415
X0042296Y00294804
X00426665Y00265007
X00405Y00245
X005075Y00227803
X0054Y0023
X0057919
X0058Y0024
X0056Y002085
X00555Y00185
X0053Y00175
X00505253Y00164747
X00515Y00155
X00505Y00134144
X00460253Y00119747
X004335Y00092994
X00416846Y001015
X0041Y0006025
X004365Y0015
X00575Y001635
X0056Y0028
X00565Y00315
X00574595Y00325
X0058635Y003
X0054Y0031
Y00365
X00553532Y00366869
X00576635Y00373074
X00586537Y00372677
X00565Y00395
X00527138Y00377456
X00509896Y00373835
X00503731Y00373135
X00488245Y00378629
X00476368Y00376279
X0048Y00405
X0042
X00405Y00445
X00445Y00455
X00447694Y00474147
X00485Y00485
X0051Y0046
X005445Y00464875
X00565Y004965
X00595Y00515
X003965Y004865
X0038Y00445
Y004
X00345
X0033
X0032
X0031
X00295
X0028
X0025Y0042
X00255Y00435
X00275Y004625
X0023877Y00492
X00225Y005
X0018497Y00502941
X0018Y00485
X0017Y0043
X002Y0042
X00215179Y00445179
X00105Y0045
X0011Y00465
X00105Y0048
X0008Y0045
X00075059Y0044
X00064249
X0008975Y00405
X00085Y00525
X00065Y00505
X00015Y00515
X0013Y00535
X00185Y0056
X00325Y00505
T02
X0003Y0003
X000225Y0005
X0003Y0007
X0005Y000775
X0007Y0007
X000775Y0005
X0007Y0003
X0005Y000225
X00295Y0013
X0032Y001155
X00245Y00195
X00247053Y00382947
X005Y00255
X00514257Y001985
X00451305Y00191297
X0043Y0007
X0053
X0055Y000775
X0057Y0007
X005775Y0005
X0057Y0003
X0055Y000225
X0053Y0003
X005225Y0005
X00532617Y00435
X0053Y0053
X0055Y005225
X0057Y0053
X005775Y0055
X0057Y0057
X0055Y005775
X0053Y0057
X005225Y0055
X0043255Y00425
X0036Y0044
X0007Y0053
X000775Y0055
X0007Y0057
X0005Y005775
X0003Y0057
X000225Y0055
X0003Y0053
X0005Y005225
T03
X0002225Y0032375
Y0038625
T04
X002896Y0057
X00315
X003404
T05
X00025Y001023
Y001277
Y00165
Y001904
Y002158
Y002412
Y002666
Y00292
X001346Y00585
X0016
X001854
T06
X00415Y00535
X00445
X00475
Y00565
X00445
X00415
X0050469Y0057389
X0038531
T07
X0005Y0005
X0055
Y0055
X0005
T08
X0005425Y0044225
Y0048375
M30
