M48
;Layer_Color=9474304
;FILE_FORMAT=4:4
METRIC,LZ
;TYPE=PLATED
T01F00S00C0.2000
T02F00S00C0.3000
T03F00S00C0.4000
T04F00S00C0.5000
T05F00S00C0.8000
T06F00S00C1.0000
T07F00S00C1.1000
T08F00S00C1.2000
T09F00S00C3.2000
;TYPE=NON_PLATED
T10F00S00C0.7000
%
T01
X001Y0005
X0015
X002
X0025
X00225Y001
X00175
X00125
X00075
X001Y0015
X0005
X00075Y002
X00125
X0005Y0025
X00075Y003
X0015Y0035
X002
X00305Y00281
X00333Y00284
X00321Y00297
X00357Y00289
X00361Y00311
X00374Y00313
X0038Y00299
X00389Y0029
X00394Y00276
X00384Y0026
X00387Y0025
X00389Y00224
X00386393Y00205393
X00351Y00192
X00334Y00206
X00306Y00207
X00311Y00232
X00299Y00247
X005Y0025
Y0035
X0045
Y0015
X005
X006
X0065
X007
X00675Y002
X007Y0035
X0045Y0005
X00425Y004
X00424Y00456
X00434Y00467
X00456Y00464
X00445844Y0045312
X00425Y005
X00427Y00527
X00456
X00525Y005
X00625
Y004
X00675
X007Y0045
X00353Y00452
X00313Y00451
X00314Y0051
X00314345Y00528778
X00337Y00529
Y00511
X00394Y00532
X00225Y005
X0005Y0045
T02
X00033Y0014
X0002Y00169
X0006Y00167
X00065Y00227
Y00247
Y00267
X00052Y00331
X00022Y00311
X00113Y00313
X0013Y0036695
X00083Y00381
X0005Y0039
X00183Y00392
X00247Y003685
X00262Y0035
X00280004Y0031075
X0029307Y0029907
X00298Y00288
X0029Y0028025
X00291Y00265
X00301Y00273
X00294Y0024075
X00293Y0023025
X00294Y0021875
X00295Y0020825
X00286Y0020475
X00288Y0019
X00294Y00195
X00301Y002
X0029922Y0018528
X00309Y0019
X00316Y00198
X00329Y00197
X0033475Y0018923
X00343Y00199
X00322Y00211
X00306Y00216
X00309Y00224
X00304Y00236
X00286Y00246
X00309712Y00305712
X0032Y00306
X0031575Y00314885
X0032625Y00314
X003045Y00312125
X00299383Y00316882
X00339Y00302
X00338Y00293
X00346Y00298
X00353Y00307
X00383599Y00311
X00394599Y0031242
X00389Y00303
X00383Y00342
X00368Y002695
X00395734Y00254381
X0039074Y0016
X0039539Y0015336
X00385759Y00145241
X00376Y00151
X0038024Y00159
X0036974
X0035924Y00157
X00354Y00151125
X00342Y00151
X0034874Y00159
X00365Y00147
X0036905Y000605
X00357Y00063
X00299317Y00084051
X00269826Y0008325
X00213Y0018
X002Y00192
X001805Y0019285
Y0020555
Y0021825
X00198Y00219
X00199Y002635
Y002825
X00131Y000605
X00419Y0008
X00443Y00089
X0045603Y0019903
X00413367Y0019928
X00408036Y00204611
X0041203Y0021028
X00411Y00221977
X00404581Y00227161
X00400661Y0021732
X004088Y00237881
X0040894Y00248881
Y0026025
X004088Y0027125
X0041Y0027975
X00401518Y00286365
X00398Y00294
X004Y00305
X00405599Y00310795
X0041Y0030025
X00414Y00319
X00399Y00265
Y00245
X005Y00303
X0052Y00346
X00544Y00342
X00566Y00341
X00599Y0032475
X00617Y00295
X00667Y00294
X00677Y00268
X00663Y00252
X00636Y002235
X00603Y00226
X00578Y00224
X00551Y00225
X00577Y00252
X00571Y00282
X00551
X00511Y00191
X00604Y00196
X0059Y00137
X00686Y00163
X0072Y0027225
X00632Y003905
X00691Y004051
X00611Y004435
X00586Y00443
X00485
X00406Y00427
X00393817Y0043575
X003754Y00434862
X00382Y00416
X00394Y00415
X00369Y00414
X00356Y00417
X00343
X00331Y00418
X003025Y00403
X002835
X00282Y00436
X00294172Y00436461
X00293Y0046225
X00283
X00266Y00465
Y00448
X00276Y00504
X00303Y00505
Y00536
X00327Y005345
X00351Y00537
X0035Y00512
X00383Y00513
X0038325Y00536
X0039Y00476
X00374Y00469
X003615Y00461
X00361Y00481
X00329Y0049
Y0046
X0039325Y00455
X00274Y00533
X002525
X00199Y00472
X00189Y00405
X00129
X000725Y004
X00082Y0046
X00026Y0043025
X00131Y00505
T03
X0052Y00307
X00667Y00385
X00318Y00415
X00079Y00441
T04
X0003Y0003
X0005Y000225
X0007Y0003
X000775Y0005
X0007Y0007
X0005Y000775
X0003Y0007
X000225Y0005
X006725Y0005
X0068Y0007
X007Y000775
X0072Y0007
X007275Y0005
X0072Y0003
X007Y000225
X0068Y0003
X0068Y0048
X007Y004725
X0072Y0048
X007275Y005
X0072Y0052
X007Y005275
X0068Y0052
X006725Y005
X000775Y005
X0007Y0052
X0005Y005275
X0003Y0052
X000225Y005
X0003Y0048
X0005Y004725
X0007Y0048
T05
X00025Y0020575
Y0026825
T06
X005772Y00528
X006026
X00628
T07
X00728Y001145
Y001399
Y001653
Y001907
Y002161
Y002415
X0073Y003862
Y004116
Y00437
T08
X00442Y00484555
X00472
X00502
Y00514555
X00472
X00442
X0041231Y00523445
X0053169
T09
X0005Y0005
X007Y0005
X007Y005
X0005Y005
T10
X006955Y0029525
Y0033675
M30
