M48
;Layer_Color=9474304
;FILE_FORMAT=4:4
METRIC,LZ
;TYPE=PLATED
T1F00S00C0.2000
T2F00S00C0.3000
T3F00S00C0.4000
T4F00S00C0.5000
T5F00S00C0.8000
T6F00S00C1.0000
T7F00S00C1.1000
T8F00S00C1.2000
T9F00S00C3.2000
;TYPE=NON_PLATED
T10F00S00C0.7000
%
T01
X001Y0005
X00131Y000605
X0015Y0005
X002
X0025
X002738Y00085157
X0029831Y00084446
X00357Y00063
X0036905Y000605
X0036482Y00151
X0035475
X00344956
X0035Y00159
X0036Y0016
X0037Y00159
X0038
X0039Y0016
X0039497Y001524
X0038481Y0015113
X0037498Y0015198
X00351Y00192
X0034Y00199
X003302Y0019685
X0033528Y0018923
X00334Y00206
X00315Y00211
X00306Y00207
X00303Y00215
X00302Y00225
Y00235
X00309Y0023
X00293
X00294Y0024
X00299Y00247
X00286Y00245
X0029Y0027
Y0028
X002965Y002855
X00305Y00281
X003Y00275
X00290773Y00303156
X00279413Y0031
X00305Y00312
X003Y00317
X00315Y00314
X00325
X00335
X00345
X0034Y00306
X0033
X0032
X0031
X00325Y00299
X00335
X00354Y0031
X00363
X00372
X0038525Y00311
X0039497Y0031242
X0039Y00304
X0038Y00299
X00393Y0029
X0039Y0026
Y0025
X00395Y00221
X00396Y00209
X00368Y002695
X0038Y00342
X00262Y0035
X00247Y00368
X002Y0035
X0015
X0013Y0036695
X00083Y00381
X0005Y0039
X00052Y00331
X00022Y00311
X00075Y003
X00065Y00267
Y00247
X0005Y0025
X00065Y00227
X00075Y002
X0006Y00167
X0005Y0015
X00033Y0014
X0002Y00169
X001Y0015
X00125Y002
X001805Y0020555
Y0019285
X002Y00192
X00213Y0018
X00198Y00219
X001805Y0021825
X00199Y002635
Y002825
X00113Y00313
X00183Y00392
X00295Y0022
Y0021
X00289Y00205
X00294Y00195
X00288Y0019
X0029975Y0018475
X00305Y00191
X0031Y00198
X00301Y002
X00225Y001
X00175
X00125
X00075
X00419Y0008
X00443Y00089
X0045Y0005
Y0015
X005
X00511Y00191
X00455Y00199
X00412Y002
Y0021
X00411Y0022
X00404Y00215
Y00225
X00409Y0024
X0040894Y0025022
Y0025975
X0041Y0027
Y0028
X00403Y00285
X00402Y00295
X0041Y003
X00405336Y00310795
X0040005Y0030607
X00414Y00319
X004Y00274
X00399Y00265
X00398Y00255
X00399Y00245
X00405Y00205
X005Y0025
X005Y00303
X005Y0035
X0052Y00346
X00544Y00342
X00566Y00341
X00599Y0032475
X00617Y00295
X00667Y00294
X00677Y00267
X00663Y00252
X00636Y002235
X00603Y00226
X00578Y00224
X00551Y00225
X00577Y00252
X00571Y00282
X00551
X00604Y00196
X006Y0015
X0059Y00137
X0065Y0015
X00686Y00163
X007Y0015
X00675Y002
X00719Y00273
X007Y0035
X00632Y003905
X0045Y0035
X00425Y004
X00424Y00456
X00434Y00467
X00456Y00464
X00445844Y0045312
X00485Y00443
X00525Y005
X00456Y00527
X00427
X00425Y005
X00625
X00611Y004435
X00586Y00443
X00625Y004
X00675
X00691Y004051
X007Y0045
X00393Y00455
X00394Y00435
Y00415
X00382Y00416
X00369Y00414
X00356Y00417
X00343
X00331Y00418
X003025Y00403
X002835
X00282Y00436
X00294172Y00436461
X00293Y0046225
X00283
X00266Y00465
Y00448
X00313Y00451
X00329Y0046
Y0049
X00337Y00511
X0035Y00512
X00351Y00537
X00337Y00529
X00327Y005345
X00314345Y00528778
X00303Y00536
Y00505
X00314Y0051
X00276Y00504
X00274Y00533
X002525
X00225Y005
X00199Y00472
X00189Y00405
X00129
X000725Y004
X00082Y0046
X0005Y0045
X00026Y0043025
X00131Y00505
X00361Y00481
X003615Y00461
X00353Y00452
X00374Y004355
Y00469
X0039Y00476
X00383Y00513
X0038325Y00536
X00394Y00532
T02
X00406Y00427
T03
X0052Y00307
X00667Y00385
X00318Y00415
X00079Y00441
T04
X0003Y0003
X0005Y000225
X0007Y0003
X000775Y0005
X0007Y0007
X0005Y000775
X0003Y0007
X000225Y0005
X006725Y0005
X0068Y0007
X007Y000775
X0072Y0007
X007275Y0005
X0072Y0003
X007Y000225
X0068Y0003
X0068Y0048
X007Y004725
X0072Y0048
X007275Y005
X0072Y0052
X007Y005275
X0068Y0052
X006725Y005
X000775Y005
X0007Y0052
X0005Y005275
X0003Y0052
X000225Y005
X0003Y0048
X0005Y004725
X0007Y0048
T05
X00025Y0020575
Y0026825
T06
X005772Y00528
X006026
X00628
T07
X00728Y001145
Y001399
Y001653
Y001907
Y002161
Y002415
X0073Y003862
Y004116
Y00437
T08
X00442Y00484555
X00472
X00502
Y00514555
X00472
X00442
X0041231Y00523445
X0053169
T09
X0005Y0005
X007Y0005
X007Y005
X0005Y005
T10
X006955Y0029525
Y0033675
M30
