M48
;Layer_Color=9474304
;FILE_FORMAT=4:4
METRIC,LZ
;TYPE=PLATED
T01F00S00C0.3000
T02F00S00C0.5000
T03F00S00C0.8000
T04F00S00C1.0000
T05F00S00C1.1000
T06F00S00C1.2000
T07F00S00C3.2000
;TYPE=NON_PLATED
T08F00S00C0.7000
%
T01
X0003Y0003
X0005Y000225
X0007Y0003
X000775Y0005
X0007Y0007
X0005Y000775
X0003Y0007
X000225Y0005
X0013208Y0017653
X0015367Y0017907
X00159Y0022
X00188722Y00298196
X00258Y00297
X0026717Y0030273
X00269Y00292
X00299Y00294
X0030734Y00299212
X003035Y00277876
X00296Y00283
Y00272
X00299Y00263
X0029956Y0024273
X003Y00228
X00312664Y00225764
X0031011Y00232984
X00321Y00221
X0032639Y0021336
X0031623Y0020701
X0032Y00199
X0031Y00198
X0031441Y0019
X00325Y00191
X00327Y0015367
X0033909
X0034544Y0014097
X003429Y0012827
X003556Y0013208
X0036Y00117
X00349
X003302Y0013589
X00309Y0014
X00318Y0008
X00287Y00081
X0027813Y0008128
X0036068Y0007874
X0038441Y00193
X00395Y00192
X00389Y00209
X00379Y00205
X00328Y00262
X00325Y00316735
X0031576Y00317908
X00309Y00347
X0032941Y0035
X0033941Y00347
X0034941Y00354904
X00348Y00363
X00334151Y00361809
X00324Y00365
X0035433Y00350266
X0035441Y003429
X00281Y0036
X0026289Y0032893
X00267208Y00250444
X002644Y0023762
X0010922Y0030226
X0040513Y003048
X00415Y00299
Y00314
X00409Y0029
Y00279
X0041Y00267
X00421Y00257
X0045847Y0025781
Y0024638
X00457Y00226
X00459Y00215
X0046101Y002032
X0045339Y0019304
X00418365Y00202365
X00418Y00212
X00405Y00192
X0040005Y0016129
X00423Y00142
X0046355Y0010922
X0045974Y0027178
X0050165Y0026797
X0056515Y0025908
X0057912Y0028067
X00587061Y00285959
X0055499Y0022606
X0055753Y0020193
Y0018542
X0063881Y0023114
X006731Y0020066
X0067Y0007
X006775Y0005
X0067Y0003
X0065Y000225
X0063Y0003
X006225Y0005
X0063Y0007
X0065Y000775
X00675Y00341
X0057023Y0036195
X00533307Y00356865
X00436Y00354
X00409205Y00346795
X00397Y00347
X00404Y00357
X00444Y00325
X0039878Y0041529
X0051308Y0040386
X00535Y00409
X00564Y004
X0060071Y0040513
X0059182Y0044323
X0056515Y0044069
X0061722Y0043815
X0063Y0048
X006225Y005
X0063Y0052
X0065Y005275
X0067Y0052
X006775Y005
X0067Y0048
X0065Y004725
X0036703Y0047244
X0037465Y0049784
X0038608Y0041402
X0037211Y0040005
X0036195
X0035179Y0040132
X0033655
X00287Y00442
X0025634Y00413956
X0024765Y0041402
X0016891Y0042799
X0018288Y0050546
X0025273Y0051562
X0007Y0052
X0005Y005275
X0003Y0052
X000225Y005
X0003Y0048
X0005Y004725
X0007Y0048
X000775Y005
T02
X0003302Y0024384
T03
X001275Y0052427
X0019
T04
X0033401Y0052705
X0035941
X0038481
T05
X0002159Y0030607
Y0033147
Y0035687
Y0038227
X005969Y0047625
Y0050165
Y0052705
X0002159Y0043307
Y0040767
T06
X004318Y0048387
X0046149Y0049276
Y0052276
X0049149
X0052149
Y0049276
X0049149
X0055118Y0048387
T07
X0005Y0005
X0065
X0065103Y0050042
X0005Y005
T08
X0064606Y0038819
Y0042969
M30
