M48
;Layer_Color=9474304
;FILE_FORMAT=4:4
METRIC,LZ
;TYPE=PLATED
T01F00S00C0.3000
T02F00S00C0.5000
T03F00S00C0.8000
T04F00S00C1.0000
T05F00S00C1.1000
T06F00S00C1.2000
T07F00S00C3.2000
;TYPE=NON_PLATED
T08F00S00C0.7000
%
T01
X0003Y0003
X0005Y000225
X0007Y0003
X000775Y0005
X0007Y0007
X0005Y000775
X0003Y0007
X000225Y0005
X0013208Y0017653
X0015367Y0017907
X002025Y00227835
X0019304Y0025527
X0019685Y0027813
X0026717Y0030273
X0026289Y0032893
X0026162Y0037211
X0032441Y0036774
X00333577Y00362383
X0034163Y0036322
X00350159Y00363581
X00348554Y00354904
X0035433Y0035052
Y003429
X0032741Y00350099
X00311977Y00344116
X0031576Y00317908
X003302Y00317735
X0033401Y0029083
X0032385Y0028702
Y0027559
X0031369Y0027178
X00305592Y00267178
X0029718Y0026035
X0029956Y0024273
X0029972Y0022636
X0031011Y00232984
X0032766Y0022733
X0032639Y0021336
X0032766Y0020193
X0033909
X0034798Y0019685
X0036322Y0019431
X0036576Y0021082
X00381Y0021844
X003937Y0020193
X0034163Y0022225
X0031623Y0020701
X0030988Y0019558
X00327Y0015367
X0033909
X0034544Y0014097
X003429Y0012827
X003556Y0013208
X0035687Y0010541
X0034417Y0010287
X0036068Y0007874
X003175Y0008001
X0030069Y00083657
X0027813Y0008128
X003302Y0013589
X002644Y0023762
X0034544Y0029464
X0036195Y0029591
X0010922Y0030226
X0040513Y003048
X004064Y0028956
Y0027559
X0040751Y0026273
X0040894Y0025019
X0041148Y0021844
X0041529Y0019812
X0040386Y0019431
X0040005Y0016129
X0042545Y00127
X0046355Y0010922
X0045339Y0019304
X0046101Y002032
X0045466Y002159
X00461488Y00223998
X0045847Y0024638
Y0025781
X0045974Y0027178
X0050165Y0026797
X0056515Y0025908
X0057912Y0028067
X00587061Y00285959
X0055499Y0022606
X0055753Y0020193
Y0018542
X0063881Y0023114
X006731Y0020066
X0067Y0007
X006775Y0005
X0067Y0003
X0065Y000225
X0063Y0003
X006225Y0005
X0063Y0007
X0065Y000775
X0067437Y0034163
X0057023Y0036195
X00533307Y00356865
X0043561Y0036449
X0042164Y0036576
X0041021Y0036449
X0040005Y0036322
X0041402Y0031369
X0041607Y0029845
X0044577Y0032766
X0039878Y0041529
X0048768Y0045085
X0051308Y0040386
X0058928
X0060071Y0040513
X0059182Y0044323
X0056515Y0044069
X0061722Y0043815
X0063Y0048
X006225Y005
X0063Y0052
X0065Y005275
X0067Y0052
X006775Y005
X0067Y0048
X0065Y004725
X0036703Y0047244
X0037465Y0049784
X0038608Y0041402
X0037211Y0040005
X0036195
X0035179Y0040132
X0033655
X0030226Y0044069
X0025634Y00413956
X0024765Y0041402
X0016891Y0042799
X0018288Y0050546
X0025273Y0051562
X0007Y0052
X0005Y005275
X0003Y0052
X000225Y005
X0003Y0048
X0005Y004725
X0007Y0048
X000775Y005
T02
X0009Y0003
X0012
X0015
X0018
X0021
X0024
X0027
X003
X0033
X0036
X0039
X00255Y0006
X00225
X00195
X00165
X00135
X00105
X0009Y0009
X0006
X0003
X00045Y0012
X00075
X00105
X0009Y0015
X0006
X0003
X00045Y0018
X00075
X00105
X0012Y0021
X0015
X0012Y0027
X0009
X00075Y003
X0006Y0033
X00075Y0036
X00165
X00195
Y0012
X00225
X00255
X0024Y0009
X0021
X00165Y0012
X0006Y0021
X00075Y0024
X0003302Y0024384
X0003Y0027
X0036
X0039
X00375Y0024
X00345
X00405
X0045Y0015
X00465Y0006
X00495
X0051Y0003
X0054
X0057
X006
X00585Y0006
X006Y0009
X0057
Y0015
X0063
X0066
X00675Y0012
X0066Y0009
Y0021
X00675Y0024
X0063Y0027
X00615Y003
X0066Y0033
X00645Y0036
X0054Y0033
X00465Y0036
X0048Y0039
X0045
Y0003
X0048
X0042
X00615Y0018
Y0048
X0057Y0051
X0054
X0051
X0045Y0045
X0039
X00255Y0048
X0021Y0051
X0015
X0012
X0009
X00105Y0048
X00135
X0012Y0045
X0009
X0006
X0003
X00105Y0042
X00135
X00195
X0018Y0045
T03
X001275Y0052427
X0019
T04
X0033401Y0052705
X0035941
X0038481
T05
X0002159Y0030607
Y0033147
Y0035687
Y0038227
X005969Y0047625
Y0050165
Y0052705
X0002159Y0043307
Y0040767
T06
X004318Y0048387
X0046149Y0049276
Y0052276
X0049149
X0052149
Y0049276
X0049149
X0055118Y0048387
T07
X0005Y0005
X0065
X0065103Y0050042
X0005Y005
T08
X0064606Y0038819
Y0042969
M30
