G04*
G04 #@! TF.GenerationSoftware,Altium Limited,Altium Designer,23.11.1 (41)*
G04*
G04 Layer_Physical_Order=1*
G04 Layer_Color=255*
%FSLAX44Y44*%
%MOMM*%
G71*
G04*
G04 #@! TF.SameCoordinates,47BC51C5-C70F-4843-9F8A-4785544E9BB8*
G04*
G04*
G04 #@! TF.FilePolarity,Positive*
G04*
G01*
G75*
%ADD15C,0.2000*%
%ADD17R,1.3000X0.9000*%
%ADD18R,0.9000X1.3000*%
%ADD19C,2.0000*%
%ADD20R,1.3500X1.1500*%
G04:AMPARAMS|DCode=21|XSize=0.65mm|YSize=1.2mm|CornerRadius=0.1625mm|HoleSize=0mm|Usage=FLASHONLY|Rotation=90.000|XOffset=0mm|YOffset=0mm|HoleType=Round|Shape=RoundedRectangle|*
%AMROUNDEDRECTD21*
21,1,0.6500,0.8750,0,0,90.0*
21,1,0.3250,1.2000,0,0,90.0*
1,1,0.3250,0.4375,0.1625*
1,1,0.3250,0.4375,-0.1625*
1,1,0.3250,-0.4375,-0.1625*
1,1,0.3250,-0.4375,0.1625*
%
%ADD21ROUNDEDRECTD21*%
G04:AMPARAMS|DCode=22|XSize=0.65mm|YSize=1.7mm|CornerRadius=0.1625mm|HoleSize=0mm|Usage=FLASHONLY|Rotation=90.000|XOffset=0mm|YOffset=0mm|HoleType=Round|Shape=RoundedRectangle|*
%AMROUNDEDRECTD22*
21,1,0.6500,1.3750,0,0,90.0*
21,1,0.3250,1.7000,0,0,90.0*
1,1,0.3250,0.6875,0.1625*
1,1,0.3250,0.6875,-0.1625*
1,1,0.3250,-0.6875,-0.1625*
1,1,0.3250,-0.6875,0.1625*
%
%ADD22ROUNDEDRECTD22*%
%ADD23R,0.3000X1.4750*%
%ADD24R,1.4750X0.3000*%
%ADD25R,1.9000X1.9000*%
%ADD26R,1.9000X1.8000*%
%ADD27R,1.3500X0.4000*%
G04:AMPARAMS|DCode=28|XSize=1.2mm|YSize=1.1mm|CornerRadius=0.275mm|HoleSize=0mm|Usage=FLASHONLY|Rotation=180.000|XOffset=0mm|YOffset=0mm|HoleType=Round|Shape=RoundedRectangle|*
%AMROUNDEDRECTD28*
21,1,1.2000,0.5500,0,0,180.0*
21,1,0.6500,1.1000,0,0,180.0*
1,1,0.5500,-0.3250,0.2750*
1,1,0.5500,0.3250,0.2750*
1,1,0.5500,0.3250,-0.2750*
1,1,0.5500,-0.3250,-0.2750*
%
%ADD28ROUNDEDRECTD28*%
G04:AMPARAMS|DCode=29|XSize=1.7mm|YSize=2.5mm|CornerRadius=0.425mm|HoleSize=0mm|Usage=FLASHONLY|Rotation=0.000|XOffset=0mm|YOffset=0mm|HoleType=Round|Shape=RoundedRectangle|*
%AMROUNDEDRECTD29*
21,1,1.7000,1.6500,0,0,0.0*
21,1,0.8500,2.5000,0,0,0.0*
1,1,0.8500,0.4250,-0.8250*
1,1,0.8500,-0.4250,-0.8250*
1,1,0.8500,-0.4250,0.8250*
1,1,0.8500,0.4250,0.8250*
%
%ADD29ROUNDEDRECTD29*%
G04:AMPARAMS|DCode=30|XSize=1.7mm|YSize=2.5mm|CornerRadius=0.425mm|HoleSize=0mm|Usage=FLASHONLY|Rotation=270.000|XOffset=0mm|YOffset=0mm|HoleType=Round|Shape=RoundedRectangle|*
%AMROUNDEDRECTD30*
21,1,1.7000,1.6500,0,0,270.0*
21,1,0.8500,2.5000,0,0,270.0*
1,1,0.8500,-0.8250,-0.4250*
1,1,0.8500,-0.8250,0.4250*
1,1,0.8500,0.8250,0.4250*
1,1,0.8500,0.8250,-0.4250*
%
%ADD30ROUNDEDRECTD30*%
%ADD31R,2.2000X1.3000*%
G04:AMPARAMS|DCode=32|XSize=1.3mm|YSize=1.1mm|CornerRadius=0.275mm|HoleSize=0mm|Usage=FLASHONLY|Rotation=90.000|XOffset=0mm|YOffset=0mm|HoleType=Round|Shape=RoundedRectangle|*
%AMROUNDEDRECTD32*
21,1,1.3000,0.5500,0,0,90.0*
21,1,0.7500,1.1000,0,0,90.0*
1,1,0.5500,0.2750,0.3750*
1,1,0.5500,0.2750,-0.3750*
1,1,0.5500,-0.2750,-0.3750*
1,1,0.5500,-0.2750,0.3750*
%
%ADD32ROUNDEDRECTD32*%
%ADD33R,0.5500X1.5000*%
G04:AMPARAMS|DCode=34|XSize=3.3mm|YSize=2.1mm|CornerRadius=0.525mm|HoleSize=0mm|Usage=FLASHONLY|Rotation=270.000|XOffset=0mm|YOffset=0mm|HoleType=Round|Shape=RoundedRectangle|*
%AMROUNDEDRECTD34*
21,1,3.3000,1.0500,0,0,270.0*
21,1,2.2500,2.1000,0,0,270.0*
1,1,1.0500,-0.5250,-1.1250*
1,1,1.0500,-0.5250,1.1250*
1,1,1.0500,0.5250,1.1250*
1,1,1.0500,0.5250,-1.1250*
%
%ADD34ROUNDEDRECTD34*%
G04:AMPARAMS|DCode=35|XSize=1mm|YSize=2.1mm|CornerRadius=0.25mm|HoleSize=0mm|Usage=FLASHONLY|Rotation=270.000|XOffset=0mm|YOffset=0mm|HoleType=Round|Shape=RoundedRectangle|*
%AMROUNDEDRECTD35*
21,1,1.0000,1.6000,0,0,270.0*
21,1,0.5000,2.1000,0,0,270.0*
1,1,0.5000,-0.8000,-0.2500*
1,1,0.5000,-0.8000,0.2500*
1,1,0.5000,0.8000,0.2500*
1,1,0.5000,0.8000,-0.2500*
%
%ADD35ROUNDEDRECTD35*%
%ADD36R,2.7500X1.0000*%
%ADD37R,1.9000X1.0000*%
%ADD38R,2.0000X5.5000*%
G04:AMPARAMS|DCode=39|XSize=1.6mm|YSize=1.4mm|CornerRadius=0.35mm|HoleSize=0mm|Usage=FLASHONLY|Rotation=180.000|XOffset=0mm|YOffset=0mm|HoleType=Round|Shape=RoundedRectangle|*
%AMROUNDEDRECTD39*
21,1,1.6000,0.7000,0,0,180.0*
21,1,0.9000,1.4000,0,0,180.0*
1,1,0.7000,-0.4500,0.3500*
1,1,0.7000,0.4500,0.3500*
1,1,0.7000,0.4500,-0.3500*
1,1,0.7000,-0.4500,-0.3500*
%
%ADD39ROUNDEDRECTD39*%
%ADD75C,0.3000*%
%ADD76C,0.3810*%
%ADD77C,0.5000*%
%ADD78C,0.8000*%
G04:AMPARAMS|DCode=79|XSize=2mm|YSize=2mm|CornerRadius=0.5mm|HoleSize=0mm|Usage=FLASHONLY|Rotation=90.000|XOffset=0mm|YOffset=0mm|HoleType=Round|Shape=RoundedRectangle|*
%AMROUNDEDRECTD79*
21,1,2.0000,1.0000,0,0,90.0*
21,1,1.0000,2.0000,0,0,90.0*
1,1,1.0000,0.5000,0.5000*
1,1,1.0000,0.5000,-0.5000*
1,1,1.0000,-0.5000,-0.5000*
1,1,1.0000,-0.5000,0.5000*
%
%ADD79ROUNDEDRECTD79*%
%ADD80C,1.2000*%
%ADD81C,7.0000*%
%ADD82C,0.7000*%
%ADD83C,1.5000*%
%ADD84C,1.6000*%
G04:AMPARAMS|DCode=85|XSize=1.6mm|YSize=1.6mm|CornerRadius=0.4mm|HoleSize=0mm|Usage=FLASHONLY|Rotation=0.000|XOffset=0mm|YOffset=0mm|HoleType=Round|Shape=RoundedRectangle|*
%AMROUNDEDRECTD85*
21,1,1.6000,0.8000,0,0,0.0*
21,1,0.8000,1.6000,0,0,0.0*
1,1,0.8000,0.4000,-0.4000*
1,1,0.8000,-0.4000,-0.4000*
1,1,0.8000,-0.4000,0.4000*
1,1,0.8000,0.4000,0.4000*
%
%ADD85ROUNDEDRECTD85*%
G04:AMPARAMS|DCode=86|XSize=1.6mm|YSize=1.6mm|CornerRadius=0.4mm|HoleSize=0mm|Usage=FLASHONLY|Rotation=270.000|XOffset=0mm|YOffset=0mm|HoleType=Round|Shape=RoundedRectangle|*
%AMROUNDEDRECTD86*
21,1,1.6000,0.8000,0,0,270.0*
21,1,0.8000,1.6000,0,0,270.0*
1,1,0.8000,-0.4000,-0.4000*
1,1,0.8000,-0.4000,0.4000*
1,1,0.8000,0.4000,0.4000*
1,1,0.8000,0.4000,-0.4000*
%
%ADD86ROUNDEDRECTD86*%
%ADD87C,1.3000*%
%ADD88C,1.8000*%
%ADD89C,0.3000*%
%ADD90C,0.5000*%
D15*
X425626Y364467D02*
X426111Y363981D01*
X429278D01*
X420500Y360998D02*
X423969Y364467D01*
X434500Y362457D02*
Y366864D01*
X423969Y364467D02*
X425626D01*
X429278Y363981D02*
X429469Y363790D01*
X425500Y358755D02*
X430798D01*
X434500Y362457D01*
X407701Y364993D02*
X410000Y362694D01*
Y352380D02*
Y362694D01*
Y352380D02*
X410000Y352380D01*
X397501Y364993D02*
X397772D01*
X400009Y362755D02*
X402743D01*
X397772Y364993D02*
X400009Y362755D01*
X402743D02*
X404500Y360998D01*
X576672Y377172D02*
X583000Y383500D01*
X576672Y373110D02*
Y377172D01*
X576635Y373074D02*
X576672Y373110D01*
X395000Y236140D02*
Y352380D01*
X260771Y261979D02*
Y268156D01*
X253743Y243000D02*
X259500Y248757D01*
Y260708D01*
X260682Y268200D02*
X260873Y268391D01*
X259500Y260708D02*
X260771Y261979D01*
X267257Y250065D02*
X269245Y248077D01*
Y243944D02*
Y248077D01*
X266820Y250065D02*
X267257D01*
X264000Y249115D02*
X264944Y250060D01*
X265135Y251751D02*
X266820Y250065D01*
X264944Y250060D02*
Y251288D01*
X260727Y268200D02*
X260771Y268156D01*
X264944Y251288D02*
X265136Y251480D01*
X264000Y247500D02*
Y249115D01*
X252000Y235500D02*
X264000Y247500D01*
X460253Y119747D02*
Y124778D01*
X420500Y331172D02*
Y336864D01*
X424618Y340982D02*
X431665D01*
X420500Y331172D02*
X431665Y320007D01*
X420500Y336864D02*
X424618Y340982D01*
X382521Y424500D02*
X438500Y368521D01*
X360000Y420000D02*
X380000Y400000D01*
X233957Y409179D02*
Y410321D01*
X248136Y424500D01*
X382521D01*
X206222Y395000D02*
X219778D01*
X250000Y420000D02*
X360000D01*
X295000Y400000D02*
X299500Y395500D01*
X317245Y362755D02*
X357257D01*
X280000Y400000D02*
X317245Y362755D01*
X299500Y395500D02*
X303843D01*
X429019Y300007D02*
X444045D01*
X295000Y355000D02*
X298310D01*
X180000D02*
X295000D01*
X190000Y360000D02*
X272500D01*
X185000Y350000D02*
X230000D01*
X175000Y356364D02*
X197636Y379000D01*
X175000Y330271D02*
Y356364D01*
X428414Y299402D02*
X429019Y300007D01*
X428143Y299402D02*
X428414D01*
X423057Y294902D02*
X438941D01*
X422960Y294804D02*
X423057Y294902D01*
X438941D02*
X439045Y295007D01*
X431665Y230271D02*
X431801Y230135D01*
X443916D01*
X424507Y224996D02*
X439035D01*
X423462Y225771D02*
X423733D01*
X424507Y224996D01*
X443916Y230135D02*
X444045Y230007D01*
X427165Y215995D02*
X431056D01*
X423796Y219364D02*
X427165Y215995D01*
X423144Y207995D02*
X427743D01*
X432000Y102257D02*
Y203738D01*
X441000Y97515D02*
Y200394D01*
X424801Y211995D02*
X429399D01*
X400000Y236796D02*
X424801Y211995D01*
X410000Y197620D02*
X410000Y197620D01*
X410000Y197620D02*
Y214472D01*
X395000Y236140D02*
X423144Y207995D01*
X429932Y220495D02*
X430202D01*
X430698Y220000D01*
X442380D01*
X272272Y230000D02*
X287620D01*
X268636Y226364D02*
X272272Y230000D01*
X252524Y172205D02*
Y172476D01*
Y172205D02*
X254803Y169926D01*
Y165197D02*
Y169926D01*
X175068Y329932D02*
X178822Y326178D01*
X175000Y330271D02*
X175068Y330202D01*
Y329932D02*
Y330202D01*
X170500Y328136D02*
Y359278D01*
X189500Y283136D02*
Y309136D01*
X170500Y359278D02*
X206222Y395000D01*
X170500Y328136D02*
X189500Y309136D01*
X330000Y333500D02*
Y350880D01*
X315000Y339500D02*
Y352380D01*
X325000Y341364D02*
Y352380D01*
X320000Y333500D02*
Y350880D01*
X309500Y352880D02*
Y360998D01*
Y352880D02*
X310000Y352380D01*
X305191Y363064D02*
X307434D01*
X309500Y360998D01*
X305000Y363255D02*
X305191Y363064D01*
X340000Y333500D02*
Y350880D01*
X345000Y338500D02*
Y352380D01*
X335000Y338500D02*
Y355880D01*
X345000Y352380D02*
Y355880D01*
X252278Y404500D02*
X351655D01*
X226778Y379000D02*
X252278Y404500D01*
X350000Y333500D02*
Y350880D01*
X351655Y404500D02*
X360654Y395500D01*
X360000Y333500D02*
Y350880D01*
X355000Y352380D02*
Y355880D01*
Y338500D02*
Y352380D01*
X431674Y310009D02*
X444043D01*
X428296Y315007D02*
X439045D01*
X426936Y304612D02*
X427841Y305517D01*
X426936Y316367D02*
X428296Y315007D01*
X426665Y316367D02*
X426936D01*
X426665Y304612D02*
X426936D01*
X427841Y305517D02*
X432519D01*
X275000Y310000D02*
X287620D01*
X275000Y310000D02*
X275000Y310000D01*
X231475Y217500D02*
X235195Y213780D01*
Y213442D02*
X241636Y207000D01*
X265000Y221500D02*
X270136D01*
X235195Y213442D02*
Y213780D01*
X270136Y221500D02*
X273636Y225000D01*
X306408Y209719D02*
X310995Y214306D01*
X306495Y220000D02*
Y250556D01*
X315000Y215000D02*
X320000Y220000D01*
X310995Y214306D02*
Y251713D01*
X320000Y199120D02*
Y212678D01*
X315000Y204120D02*
Y215000D01*
X320000Y212678D02*
X325000Y217678D01*
X297551Y259500D02*
X306495Y250556D01*
X250303Y154697D02*
Y165303D01*
X214643Y178000D02*
Y185000D01*
X210000Y174500D02*
X211143D01*
X235303Y180303D02*
X243317D01*
X250303Y154697D02*
X255000Y150000D01*
X254803Y165197D02*
X265000Y155000D01*
X211143Y174500D02*
X214643Y178000D01*
X243317Y180303D02*
X243621Y180000D01*
X251364D01*
X490000D02*
X505253Y164747D01*
X429630Y90500D02*
X431636Y88494D01*
X435364Y97494D02*
X438000Y94858D01*
X427973Y86500D02*
X429979Y84494D01*
X460253Y124778D02*
X461425Y125950D01*
X472000D01*
X438000Y91130D02*
Y94858D01*
X435364Y88494D02*
X438000Y91130D01*
X431636Y88494D02*
X435364D01*
X415781Y90500D02*
X429630D01*
X437021Y84494D02*
X442000Y89473D01*
X434500Y98358D02*
Y99757D01*
X398041Y86500D02*
X427973D01*
X429979Y84494D02*
X437021D01*
X442000Y89473D02*
Y96515D01*
X441000Y97515D02*
X442000Y96515D01*
X434500Y98358D02*
X435364Y97494D01*
X505000Y132171D02*
Y134144D01*
X526136Y153214D02*
X528000Y151350D01*
X515271Y155000D02*
X517057Y153214D01*
X515000Y155000D02*
X515271D01*
X517057Y153214D02*
X526136D01*
X431665Y290007D02*
X444045D01*
X431665Y270007D02*
X444045D01*
X444043Y310009D02*
X444045Y310007D01*
X426665Y285007D02*
X439045D01*
X431665Y320007D02*
X444045D01*
X431665Y280007D02*
X444045D01*
X428165Y275007D02*
X440545D01*
X431665Y340982D02*
X438500Y347816D01*
X419069Y365931D02*
Y365931D01*
X415500Y352880D02*
Y362362D01*
X433029Y305007D02*
X439045D01*
X438500Y347816D02*
Y368521D01*
X432519Y305517D02*
X433029Y305007D01*
X360654Y395500D02*
X405864D01*
X434500Y366864D01*
X415000Y352380D02*
X415500Y352880D01*
X431665Y310017D02*
X431674Y310009D01*
X415500Y362362D02*
X419069Y365931D01*
X461771Y278500D02*
X473000D01*
X460271Y280000D02*
X461771Y278500D01*
X463418Y296582D02*
X468082D01*
X460000Y280000D02*
X460271D01*
X239834Y185618D02*
X250618D01*
X406781Y99500D02*
X415781Y90500D01*
X432000Y102257D02*
X434500Y99757D01*
X390698Y99500D02*
X406781D01*
X390448Y99750D02*
X390698Y99500D01*
X485942Y175458D02*
X522750Y138650D01*
X442380Y255000D02*
X442880Y255500D01*
X468082Y296582D02*
X473000Y301500D01*
X463500D02*
X473000D01*
X173978Y75069D02*
X183718Y84809D01*
X149246Y47946D02*
Y50337D01*
X127250Y25950D02*
X149246Y47946D01*
X170621Y70300D02*
X173978Y73658D01*
X169209Y70300D02*
X170621D01*
X173978Y73658D02*
Y75069D01*
X165000Y80000D02*
X169478Y75522D01*
X149246Y50337D02*
X169209Y70300D01*
X143200Y80000D02*
X165000D01*
X140000Y210000D02*
X146000D01*
X155000Y201000D01*
X265500Y263136D02*
Y267783D01*
X276974Y274914D02*
X287534D01*
X273682Y271622D02*
X276974Y274914D01*
X265182Y268101D02*
Y277182D01*
X270000Y282682D02*
Y287071D01*
X287534Y274914D02*
X287620Y275000D01*
X269182Y269758D02*
X271818Y267122D01*
X269182Y278136D02*
X270000Y277318D01*
Y274304D02*
Y277318D01*
X269182Y273486D02*
X270000Y274304D01*
X269182Y281864D02*
X270000Y282682D01*
X265182Y268101D02*
X265500Y267783D01*
X269182Y278136D02*
Y281864D01*
Y269758D02*
Y273486D01*
X273682Y280000D02*
X287620D01*
X271818Y267122D02*
X272878D01*
X273923Y266077D01*
X265000Y277364D02*
X265182Y277182D01*
X273636Y225000D02*
X287620D01*
X275000Y220000D02*
X275000Y220000D01*
X287620D01*
X276521Y210500D02*
X296238D01*
X276021Y211000D02*
X276521Y210500D01*
X274864Y206500D02*
X297894D01*
X274364Y207000D02*
X274864Y206500D01*
X244000Y211000D02*
X276021D01*
X250618Y185618D02*
X267500Y202500D01*
X237833Y217167D02*
X244000Y211000D01*
X241636Y207000D02*
X274364D01*
X230000Y350000D02*
X245000Y335000D01*
X287620D01*
X230005Y329531D02*
X230276D01*
X230745Y330000D02*
X287620D01*
X230276Y329531D02*
X230745Y330000D01*
X235000Y325000D02*
X287620D01*
X230000Y320000D02*
X235000Y325000D01*
X348593Y100750D02*
X353593Y95750D01*
X350000Y105000D02*
X355250Y99750D01*
X388791Y95750D02*
X398041Y86500D01*
X353593Y95750D02*
X388791D01*
X355250Y99750D02*
X390448D01*
X289561Y181803D02*
X337301D01*
X286864Y184500D02*
X289561Y181803D01*
X337301D02*
X344500Y189002D01*
X429399Y211995D02*
X441000Y200394D01*
X283136Y184500D02*
X286864D01*
X282636Y185000D02*
X283136Y184500D01*
X293620Y197620D02*
X305000D01*
X270000Y185000D02*
X282636D01*
X285000Y189000D02*
X293620Y197620D01*
X376500Y128500D02*
X383000D01*
X370191Y115191D02*
Y115691D01*
X370000Y115000D02*
X370191Y115191D01*
X383000Y128500D02*
X385000D01*
X370191Y115691D02*
X383000Y128500D01*
X386500Y150000D02*
X395000D01*
X385000Y151500D02*
X386500Y150000D01*
X565000Y383500D02*
X583000D01*
X585000D01*
X565000Y333500D02*
X583000D01*
X574595Y325000D02*
Y325095D01*
X583000Y333500D02*
X585000D01*
X574595Y325095D02*
X583000Y333500D01*
X473000Y301500D02*
X475000D01*
X473000Y278500D02*
X475000D01*
X456827Y308173D02*
X463500Y301500D01*
X455655Y330000D02*
X456827Y328828D01*
X442380Y330000D02*
X455655D01*
X456827Y308173D02*
Y328828D01*
X469500Y282000D02*
X473000Y278500D01*
X452755Y300745D02*
X469500Y284000D01*
X452755Y300745D02*
Y322743D01*
X450998Y324500D02*
X452755Y322743D01*
X442880Y324500D02*
X450998D01*
X469500Y282000D02*
Y284000D01*
X442380Y325000D02*
X442880Y324500D01*
X475000Y278500D02*
X495000D01*
X475000Y301500D02*
X495000D01*
X400000Y180000D02*
X413601D01*
X419551Y185950D02*
Y197171D01*
X413601Y180000D02*
X419551Y185950D01*
Y197171D02*
X420000Y197620D01*
X355000Y171550D02*
Y186073D01*
X412743Y187245D02*
X414500Y189002D01*
X355000Y186073D02*
X356172Y187245D01*
X412743D01*
X391000Y171000D02*
X400000Y180000D01*
X378550Y171000D02*
X391000D01*
X378550Y169000D02*
X385000Y162550D01*
Y151500D02*
Y162550D01*
X378550Y169000D02*
Y171000D01*
X375000Y130000D02*
X376500Y128500D01*
X367364Y159000D02*
X375000Y151364D01*
Y130000D02*
Y151364D01*
X355550Y169000D02*
Y171000D01*
Y169000D02*
X365550Y159000D01*
X367364D01*
X355000Y171550D02*
X355550Y171000D01*
X414500Y197120D02*
X415000Y197620D01*
X414500Y189002D02*
Y197120D01*
X261000Y261979D02*
X273245Y249734D01*
X195053Y194496D02*
X205732Y205175D01*
X217218D02*
X222975Y210932D01*
X211475Y197675D02*
X215475D01*
X191053Y206710D02*
X200689Y216346D01*
X215475Y197675D02*
X226975Y209175D01*
X222975Y210932D02*
Y232975D01*
X231157Y235500D02*
X252000D01*
X148500Y143500D02*
X191053Y186053D01*
Y206710D01*
X200689Y216346D02*
Y227760D01*
X233000Y243000D02*
X253743D01*
X222975Y232975D02*
X233000Y243000D01*
X205732Y205175D02*
X217218D01*
X231475Y224318D02*
X237833Y217960D01*
X226975Y209175D02*
Y231318D01*
X237833Y217167D02*
Y217960D01*
X195053Y179947D02*
Y194496D01*
X226975Y231318D02*
X231157Y235500D01*
X265500Y263136D02*
X277245Y251391D01*
X267071Y290000D02*
X270000Y287071D01*
X262929Y290000D02*
X267071D01*
X200689Y227760D02*
X262929Y290000D01*
X250000Y254500D02*
Y270000D01*
X265000Y285000D01*
X230000Y265000D02*
X260000Y295000D01*
X238843Y254500D02*
X250000D01*
X218975Y234632D02*
X238843Y254500D01*
X200500Y186700D02*
X211475Y197675D01*
X200500Y168757D02*
Y186700D01*
X217000Y152000D02*
X228000Y141000D01*
X213500Y152000D02*
X217000D01*
X228000Y141000D02*
X230000D01*
X210000Y155500D02*
X213500Y152000D01*
X204500Y159000D02*
Y164757D01*
X200500Y168757D02*
X204500Y164757D01*
X208000Y155500D02*
X210000D01*
X204500Y159000D02*
X208000Y155500D01*
X212000Y174500D02*
X223000Y163500D01*
X226500D02*
X230000Y160000D01*
X210000Y174500D02*
X212000D01*
X223000Y163500D02*
X226500D01*
X218975Y220175D02*
Y234632D01*
X213475Y216675D02*
X215475D01*
X218975Y220175D01*
X273923Y266077D02*
X275580D01*
X279002Y269500D01*
X287120Y269500D02*
X287620Y270000D01*
X280073Y269500D02*
X280073Y269500D01*
X279002Y269500D02*
X280073D01*
X280073Y269500D02*
X287120D01*
X234500Y229997D02*
X249497Y215000D01*
X287620D01*
X505000Y132171D02*
X511221Y125950D01*
X66250Y140000D02*
X123750D01*
X127250Y143500D02*
X148500D01*
X219778Y395000D02*
X233957Y409179D01*
X120614Y214250D02*
X189500Y283136D01*
X25000Y215800D02*
X26550Y214250D01*
X120614D01*
X197636Y379000D02*
X226778D01*
X425000Y358255D02*
X425500Y358755D01*
X425000Y352380D02*
Y358255D01*
X371027Y382755D02*
X390000Y363782D01*
Y352380D02*
Y363782D01*
X65000Y335000D02*
Y342750D01*
X62750Y345000D02*
X65000Y342750D01*
X234500Y279500D02*
X255000Y300000D01*
X66250Y140000D02*
Y149150D01*
X25000Y190400D02*
X66250Y149150D01*
X273200Y105000D02*
X350000D01*
X227000Y64050D02*
X232250D01*
X273200Y105000D01*
X432045Y215007D02*
X439045D01*
X400000Y236796D02*
Y352380D01*
X431056Y215995D02*
X432045Y215007D01*
X405000Y204120D02*
Y219472D01*
X284386Y100750D02*
X348593D01*
X427743Y207995D02*
X432000Y203738D01*
X259250Y75614D02*
X284386Y100750D01*
X232250Y25950D02*
X259250Y52950D01*
Y75614D01*
X227000Y25950D02*
X232250D01*
X226740D02*
X227000D01*
X183718Y84809D02*
X184809D01*
X122000Y25950D02*
X127250D01*
X184809Y84809D02*
X185000Y85000D01*
X122000Y64050D02*
X127250D01*
X143200Y80000D01*
X155000Y292500D02*
X162500Y285000D01*
X185000D01*
X155000Y201000D02*
Y230000D01*
Y197500D02*
Y201000D01*
Y230000D02*
X185000Y260000D01*
X265000Y277364D02*
Y285000D01*
X260000Y295000D02*
X287620D01*
X234500Y278136D02*
Y279500D01*
X255000Y300000D02*
X287620D01*
X231864Y275500D02*
X234500Y278136D01*
X230000Y275000D02*
X230500Y275500D01*
X231864D01*
X140000Y300000D02*
X147500D01*
X155000Y292500D01*
X451326Y259828D02*
X490000Y221154D01*
Y180000D02*
Y221154D01*
X442380Y260000D02*
X442552Y259828D01*
X451326D01*
X511221Y125950D02*
X528000D01*
X485942Y175458D02*
Y219556D01*
X450998Y254500D02*
X485942Y219556D01*
X522750Y138650D02*
X528000D01*
X442880Y254500D02*
X450998D01*
X442380Y255000D02*
X442880Y254500D01*
X335000Y216364D02*
Y235000D01*
X330000Y217021D02*
Y230000D01*
X297995Y264713D02*
X310995Y251713D01*
X287907Y264713D02*
X297995D01*
X287620Y265000D02*
X287907Y264713D01*
X325000Y204120D02*
Y212021D01*
X330000Y217021D01*
X325000Y217678D02*
Y225000D01*
X330000Y199120D02*
Y211364D01*
X335000Y216364D01*
X273364Y202000D02*
X285000D01*
X251364Y180000D02*
X273364Y202000D01*
X288120Y259500D02*
X297551D01*
X287620Y260000D02*
X288120Y259500D01*
X301995Y210601D02*
Y249400D01*
X273245Y245601D02*
Y249734D01*
X277245Y247257D02*
Y251391D01*
X273245Y245601D02*
X278346Y240500D01*
X277245Y247257D02*
X279002Y245500D01*
X297894Y206500D02*
X301995Y210601D01*
X297995Y212257D02*
Y247743D01*
X296238Y210500D02*
X297995Y212257D01*
X287620Y255000D02*
X288120Y254500D01*
X296894D01*
X301995Y249400D01*
X296238Y249500D02*
X297995Y247743D01*
X288120Y249500D02*
X296238D01*
X287620Y250000D02*
X288120Y249500D01*
X245000Y305000D02*
X287620D01*
X230000Y290000D02*
X245000Y305000D01*
X230000Y300000D02*
X245000Y315000D01*
X287620D01*
X230000Y310000D02*
X240000Y320000D01*
X287620D01*
X287120Y240500D02*
X287620Y240000D01*
X278346Y240500D02*
X287120D01*
X277689Y235500D02*
X287120D01*
X269245Y243944D02*
X277689Y235500D01*
X287120D02*
X287620Y235000D01*
X280000Y245000D02*
X287620D01*
X279002Y245500D02*
X279500D01*
X280000Y245000D01*
X369500Y352880D02*
Y361655D01*
X364399Y366755D02*
X369500Y361655D01*
X374500Y352880D02*
Y362311D01*
X366056Y370755D02*
X374500Y362311D01*
X379713Y352667D02*
X380000Y352380D01*
X367713Y374755D02*
X379713Y362755D01*
Y352667D02*
Y362755D01*
X352287Y374755D02*
X367713D01*
X369370Y378755D02*
X384500Y363625D01*
Y352880D02*
Y363625D01*
X310000Y395000D02*
Y400000D01*
Y395000D02*
X334245Y370755D01*
X303843Y395500D02*
X305000Y394343D01*
X364500Y352380D02*
Y360998D01*
X328257Y366755D02*
X355601D01*
X350498Y400000D02*
X367743Y382755D01*
X320250Y374762D02*
X328257Y366755D01*
X353944Y370755D02*
X353944Y370755D01*
X320000Y400000D02*
X345245Y374755D01*
X367743Y382755D02*
X371027D01*
X355601Y366755D02*
X364399D01*
X362743Y362755D02*
X364500Y360998D01*
Y352380D02*
X365000D01*
X345245Y374755D02*
X352287D01*
X357257Y362755D02*
X362743D01*
X353944Y370755D02*
X366056D01*
X330000Y400000D02*
X351245Y378755D01*
X369370D01*
X357257Y362755D02*
X357257Y362755D01*
X355601Y366755D02*
X355601Y366755D01*
X334245Y370755D02*
X353944D01*
X352287Y374755D02*
X352287Y374755D01*
X305000Y394343D02*
X312172Y387172D01*
X305000Y394343D02*
Y394343D01*
X369500Y352880D02*
X370000Y352380D01*
X320250Y374762D02*
Y379093D01*
X312172Y387172D02*
X320250Y379093D01*
X374500Y352880D02*
X375000Y352380D01*
X384500Y352880D02*
X385000Y352380D01*
X345000Y400000D02*
X350498D01*
X404500Y352880D02*
Y360998D01*
Y352880D02*
X405000Y352380D01*
X420500Y352880D02*
Y360998D01*
X420000Y352380D02*
X420500Y352880D01*
X365000Y155000D02*
X370000Y150000D01*
X265000Y155000D02*
X365000D01*
X255000Y150000D02*
X360000D01*
X340000Y199120D02*
Y215000D01*
X335000Y204120D02*
Y210000D01*
X344500Y197120D02*
X345000Y197620D01*
X344500Y189002D02*
Y197120D01*
X350000Y199120D02*
Y216500D01*
X355000Y204120D02*
Y221500D01*
X360000Y199120D02*
Y216500D01*
X365000Y204120D02*
Y221500D01*
X370000Y199120D02*
Y216500D01*
X375000Y204120D02*
Y221500D01*
X380000Y199120D02*
Y216500D01*
X385000Y204120D02*
Y221500D01*
X390000Y199120D02*
Y216500D01*
X395000Y204120D02*
Y221500D01*
X400000Y199120D02*
Y216500D01*
X431665Y250007D02*
X444045D01*
X431665Y240007D02*
X444045D01*
X426665Y265007D02*
X439045D01*
X426665Y245007D02*
X439045D01*
X426665Y235007D02*
X439045D01*
X442380Y220000D02*
X442380Y220000D01*
D17*
X385000Y151500D02*
D03*
Y128500D02*
D03*
X475000Y301500D02*
D03*
Y278500D02*
D03*
X495000Y301500D02*
D03*
Y278500D02*
D03*
X565000Y356500D02*
D03*
Y333500D02*
D03*
X585000Y356500D02*
D03*
Y333500D02*
D03*
X565000Y383500D02*
D03*
Y406500D02*
D03*
X585000Y383500D02*
D03*
Y406500D02*
D03*
X230000Y141000D02*
D03*
Y160000D02*
D03*
X210000Y155500D02*
D03*
Y174500D02*
D03*
X213475Y197675D02*
D03*
Y216675D02*
D03*
X250000Y235500D02*
D03*
Y254500D02*
D03*
X545000Y320500D02*
D03*
Y339500D02*
D03*
X525000Y320500D02*
D03*
Y339500D02*
D03*
X505000Y320500D02*
D03*
Y339500D02*
D03*
X485000Y320500D02*
D03*
Y339500D02*
D03*
X466500Y320943D02*
D03*
Y339943D02*
D03*
D18*
X378550Y171000D02*
D03*
X355550D02*
D03*
X424500Y170000D02*
D03*
X405500D02*
D03*
X424500Y110000D02*
D03*
X405500D02*
D03*
X424500Y125000D02*
D03*
X405500D02*
D03*
X424500Y140000D02*
D03*
X405500D02*
D03*
X424500Y155000D02*
D03*
X405500D02*
D03*
D19*
X315000Y50000D02*
D03*
X430000Y465000D02*
D03*
X345000Y50000D02*
D03*
Y20000D02*
D03*
X315000D02*
D03*
X100000Y420000D02*
D03*
X585000Y435000D02*
D03*
X355000Y495000D02*
D03*
X405000Y465000D02*
D03*
Y495000D02*
D03*
X380000D02*
D03*
Y465000D02*
D03*
X110000Y550000D02*
D03*
X240000Y515000D02*
D03*
X430000Y495000D02*
D03*
X415000Y535000D02*
D03*
X445000D02*
D03*
X415000Y565000D02*
D03*
X445000D02*
D03*
X475000D02*
D03*
D20*
X540000Y390750D02*
D03*
Y409250D02*
D03*
X515000Y390750D02*
D03*
Y409250D02*
D03*
X490000D02*
D03*
Y390750D02*
D03*
X465000Y410000D02*
D03*
Y391500D02*
D03*
D21*
X348000Y85000D02*
D03*
X322000Y75500D02*
D03*
Y94500D02*
D03*
X382500Y89500D02*
D03*
Y70500D02*
D03*
X408500Y80000D02*
D03*
D22*
X122000Y64050D02*
D03*
Y51350D02*
D03*
Y38650D02*
D03*
Y25950D02*
D03*
X178000Y64050D02*
D03*
Y51350D02*
D03*
Y38650D02*
D03*
Y25950D02*
D03*
X227000Y64050D02*
D03*
Y51350D02*
D03*
Y38650D02*
D03*
Y25950D02*
D03*
X283000Y64050D02*
D03*
Y51350D02*
D03*
Y38650D02*
D03*
Y25950D02*
D03*
X472000Y164050D02*
D03*
Y151350D02*
D03*
Y138650D02*
D03*
Y125950D02*
D03*
X528000Y164050D02*
D03*
Y151350D02*
D03*
Y138650D02*
D03*
Y125950D02*
D03*
D23*
X305000Y352380D02*
D03*
X310000D02*
D03*
X315000D02*
D03*
X320000D02*
D03*
X325000D02*
D03*
X330000D02*
D03*
X335000D02*
D03*
X340000D02*
D03*
X345000D02*
D03*
X350000D02*
D03*
X355000D02*
D03*
X360000D02*
D03*
X365000D02*
D03*
X370000D02*
D03*
X375000D02*
D03*
X380000D02*
D03*
X385000D02*
D03*
X390000D02*
D03*
X395000D02*
D03*
X400000D02*
D03*
X405000D02*
D03*
X410000D02*
D03*
X415000D02*
D03*
X420000D02*
D03*
X425000D02*
D03*
Y197620D02*
D03*
X420000D02*
D03*
X415000D02*
D03*
X410000D02*
D03*
X405000D02*
D03*
X400000D02*
D03*
X395000D02*
D03*
X390000D02*
D03*
X385000D02*
D03*
X380000D02*
D03*
X375000D02*
D03*
X370000D02*
D03*
X365000D02*
D03*
X360000D02*
D03*
X355000D02*
D03*
X350000D02*
D03*
X345000D02*
D03*
X340000D02*
D03*
X335000D02*
D03*
X330000D02*
D03*
X325000D02*
D03*
X320000D02*
D03*
X315000D02*
D03*
X310000D02*
D03*
X305000D02*
D03*
D24*
X442380Y335000D02*
D03*
Y330000D02*
D03*
Y325000D02*
D03*
Y320000D02*
D03*
Y315000D02*
D03*
Y310000D02*
D03*
Y305000D02*
D03*
Y300000D02*
D03*
Y295000D02*
D03*
Y290000D02*
D03*
Y285000D02*
D03*
Y280000D02*
D03*
Y275000D02*
D03*
Y270000D02*
D03*
Y265000D02*
D03*
Y260000D02*
D03*
Y255000D02*
D03*
Y250000D02*
D03*
Y245000D02*
D03*
Y240000D02*
D03*
Y235000D02*
D03*
Y230000D02*
D03*
Y225000D02*
D03*
Y220000D02*
D03*
Y215000D02*
D03*
X287620D02*
D03*
Y220000D02*
D03*
Y225000D02*
D03*
Y230000D02*
D03*
Y235000D02*
D03*
Y240000D02*
D03*
Y245000D02*
D03*
Y250000D02*
D03*
Y255000D02*
D03*
Y260000D02*
D03*
Y265000D02*
D03*
Y270000D02*
D03*
Y275000D02*
D03*
Y280000D02*
D03*
Y285000D02*
D03*
Y290000D02*
D03*
Y295000D02*
D03*
Y300000D02*
D03*
Y305000D02*
D03*
Y310000D02*
D03*
Y315000D02*
D03*
Y320000D02*
D03*
Y325000D02*
D03*
Y330000D02*
D03*
Y335000D02*
D03*
D25*
X29750Y475000D02*
D03*
Y451000D02*
D03*
D26*
Y503000D02*
D03*
Y423000D02*
D03*
D27*
X56500Y476000D02*
D03*
Y450000D02*
D03*
Y469500D02*
D03*
Y463000D02*
D03*
Y456500D02*
D03*
D28*
X385000Y29500D02*
D03*
Y50500D02*
D03*
X410000Y29500D02*
D03*
Y50500D02*
D03*
X295000Y459500D02*
D03*
Y480500D02*
D03*
X265000Y459500D02*
D03*
Y480500D02*
D03*
X125000Y385500D02*
D03*
Y364500D02*
D03*
X100000Y385500D02*
D03*
Y364500D02*
D03*
D29*
X85000Y465250D02*
D03*
Y504750D02*
D03*
X100000Y229750D02*
D03*
Y190250D02*
D03*
Y309750D02*
D03*
Y270250D02*
D03*
D30*
X580000Y495000D02*
D03*
X540500D02*
D03*
D31*
X463500Y503250D02*
D03*
X516433Y446683D02*
D03*
X166500Y466750D02*
D03*
X113567Y523317D02*
D03*
D32*
X587500Y465000D02*
D03*
X552500D02*
D03*
D33*
X545000Y285250D02*
D03*
X535000Y254750D02*
D03*
X545000D02*
D03*
X535000Y285250D02*
D03*
X585000D02*
D03*
X575000Y254750D02*
D03*
X585000D02*
D03*
X575000Y285250D02*
D03*
D34*
X153500Y410000D02*
D03*
D35*
X216500Y433000D02*
D03*
Y410000D02*
D03*
Y387000D02*
D03*
D36*
X123750Y100000D02*
D03*
X66250D02*
D03*
X123750Y140000D02*
D03*
X66250D02*
D03*
D37*
X62750Y345000D02*
D03*
Y365000D02*
D03*
Y385000D02*
D03*
D38*
X155000Y292500D02*
D03*
Y197500D02*
D03*
D39*
X325000Y455000D02*
D03*
Y485000D02*
D03*
D75*
Y270000D02*
Y300000D01*
X490000Y380384D02*
Y390750D01*
X488245Y378629D02*
X490000Y380384D01*
X527138Y377456D02*
Y378888D01*
X539000Y390750D01*
X305000Y335000D02*
Y352380D01*
Y335000D02*
X330000Y310000D01*
X325000Y270000D02*
X330000Y265000D01*
X425000Y335000D02*
X425000Y335000D01*
X442380D01*
X222000Y387000D02*
X230000Y395000D01*
X216500Y387000D02*
X222000D01*
X275000Y290000D02*
X287620D01*
X429694Y96800D02*
X433500Y92994D01*
X370000Y88359D02*
X381359D01*
X382500Y89500D01*
X424500Y99000D02*
X426700Y96800D01*
X424500Y110000D02*
Y125000D01*
Y99000D02*
Y110000D01*
X426700Y96800D02*
X429694D01*
X410000Y50500D02*
Y60250D01*
X530000Y165791D02*
Y175000D01*
X528260Y164050D02*
X530000Y165791D01*
X528000Y164050D02*
X528260D01*
X424500Y140000D02*
Y153123D01*
Y125000D02*
Y140000D01*
X448255Y335000D02*
X453198Y339943D01*
X466500D01*
X25000Y292000D02*
X29500Y287500D01*
X221750Y38650D02*
X227000D01*
X215400Y45000D02*
X221750Y38650D01*
X215000Y45000D02*
X215400D01*
X310000Y187607D02*
Y200000D01*
X310000D01*
X308697Y186303D02*
X310000Y187607D01*
X310000Y197620D02*
Y200000D01*
X430000Y465000D02*
X440000Y455000D01*
X430000Y465000D02*
X430000D01*
X440000Y455000D02*
X445000D01*
X105000Y450000D02*
X121750Y466750D01*
X166500D02*
X171000D01*
X581209Y495000D02*
X588000Y501791D01*
Y508000D02*
X595000Y515000D01*
X580000Y495000D02*
X581209D01*
X588000Y501791D02*
Y508000D01*
X56500Y450000D02*
X61250D01*
X61750Y449500D01*
Y442499D02*
Y449500D01*
Y442499D02*
X64249Y440000D01*
X370000Y80000D02*
X370250D01*
X379750Y70500D02*
X382500D01*
X370250Y80000D02*
X379750Y70500D01*
X322000Y75500D02*
Y83000D01*
X320000Y85000D02*
X322000Y83000D01*
X405500Y110000D02*
Y112000D01*
X402500Y115000D02*
X405500Y112000D01*
X380000Y115000D02*
X402500D01*
X115000Y385000D02*
X124500D01*
X89750Y395250D02*
X99500Y385500D01*
X89750Y395250D02*
Y405000D01*
X539000Y390750D02*
X540000D01*
X515000D02*
X540000D01*
X465000Y391500D02*
X465750Y390750D01*
X490000D01*
X408500Y68821D02*
Y80000D01*
X419500Y38500D02*
Y57821D01*
X410500Y29500D02*
X419500Y38500D01*
X408500Y68821D02*
X419500Y57821D01*
X410000Y29500D02*
X410500D01*
X348000Y66092D02*
Y85000D01*
X384592Y29500D02*
X385000D01*
X348000Y66092D02*
X384592Y29500D01*
X365000Y70500D02*
Y75000D01*
Y70500D02*
X385000Y50500D01*
X225000Y15000D02*
Y24209D01*
X123750Y140000D02*
X127250Y143500D01*
X70000Y103750D02*
Y120000D01*
X66250Y100000D02*
X70000Y103750D01*
X285000Y95000D02*
X285500Y94500D01*
X322000D01*
X385000Y29500D02*
X387046Y31546D01*
X345000Y83259D02*
X346740Y85000D01*
X348000D01*
X287620Y285000D02*
X300000D01*
X325000Y260000D01*
X425000Y153623D02*
Y197620D01*
X424500Y153123D02*
X425000Y153623D01*
X442380Y335000D02*
X448255D01*
X525000Y339500D02*
X545000D01*
X505000D02*
X525000D01*
X485000D02*
X505000D01*
X466943D02*
X485000D01*
X466500Y339943D02*
X466943Y339500D01*
X214500Y65750D02*
X214527Y65723D01*
X225327D02*
X227000Y64050D01*
X214527Y65723D02*
X225327D01*
X225000Y24209D02*
X226740Y25950D01*
X90000Y535000D02*
X110000Y555000D01*
X85000Y504750D02*
X90000Y509750D01*
Y535000D01*
X124500Y385000D02*
X125000Y385500D01*
X99500D02*
X100000D01*
X184970Y502941D02*
X197029Y515000D01*
X240000D01*
X185400Y560400D02*
Y585000D01*
X185000Y560000D02*
X185400Y560400D01*
X113567Y523317D02*
X118067D01*
X129750Y535000D01*
X130000D01*
X105000Y480000D02*
Y518317D01*
X110000Y523317D02*
X113567D01*
X105000Y518317D02*
X110000Y523317D01*
X121750Y466750D02*
X166500D01*
X65250Y504750D02*
X85000D01*
X65000Y505000D02*
X65250Y504750D01*
X85000Y499750D02*
Y504750D01*
X56500Y476000D02*
X61250D01*
X85000Y499750D01*
D76*
X512134Y379240D02*
X519323Y372051D01*
X534407D02*
X542365Y380009D01*
X519323Y372051D02*
X534407D01*
X564000Y355500D02*
X565000Y356500D01*
X562755Y354255D02*
X564000Y355500D01*
X553532Y365968D02*
X563000Y356500D01*
X553532Y365968D02*
Y366869D01*
X586537Y372677D02*
X590700D01*
X595405Y377383D01*
X504345Y383382D02*
X508488Y379240D01*
X504345Y383382D02*
Y399595D01*
X508488Y379240D02*
X512134D01*
X105000Y314750D02*
Y330000D01*
X100000Y309750D02*
X105000Y314750D01*
X360000Y43658D02*
Y44063D01*
X380000Y445000D02*
Y465000D01*
X405000Y445000D02*
X457694D01*
X380000D02*
X387093D01*
X396500Y486500D02*
X405000Y495000D01*
Y445000D02*
Y465000D01*
X100250Y230000D02*
X110000D01*
X100000Y229750D02*
X100250Y230000D01*
X547281Y380009D02*
X554386Y387114D01*
Y397886D01*
X542365Y380009D02*
X547281D01*
X315000Y50000D02*
X318313D01*
X329300Y39012D01*
X360000Y40000D02*
Y43658D01*
X347224Y50000D02*
X357224Y40000D01*
X360000D01*
X345000Y50000D02*
X347224D01*
X331095Y63905D02*
X345000Y50000D01*
X555000Y185000D02*
X591655Y221655D01*
Y265985D01*
X360000Y20000D02*
X365000D01*
X345000D02*
X360000D01*
X365000D02*
X370000Y15000D01*
X315000Y20000D02*
X327443Y32443D01*
X328728D01*
X580633Y241323D02*
X580978Y240978D01*
X580000Y230810D02*
Y233739D01*
X579190Y230000D02*
X580000Y230810D01*
X577593Y234190D02*
X579549D01*
X574190Y237593D02*
Y239549D01*
X580633Y241323D02*
Y243345D01*
X580000Y240000D02*
X580978Y240978D01*
X551655Y262084D02*
X574190Y239549D01*
X575000Y254750D02*
X578345Y251405D01*
Y245632D02*
X580633Y243345D01*
X578345Y245632D02*
Y251405D01*
X579549Y234190D02*
X580000Y233739D01*
X574190Y237593D02*
X577593Y234190D01*
X578345Y276133D02*
X580633Y273845D01*
X583795D02*
X591655Y265985D01*
X575000Y280500D02*
X578345Y277155D01*
Y276133D02*
Y277155D01*
X580633Y273845D02*
X583795D01*
X575000Y280500D02*
Y285250D01*
X576261Y270000D02*
X578226Y268035D01*
X581388D01*
X570000Y270000D02*
X576261D01*
X581388Y268035D02*
X584481Y264943D01*
Y255270D02*
X585000Y254750D01*
X584481Y255270D02*
Y264943D01*
X535000Y235000D02*
X540000Y230000D01*
X535000Y235000D02*
Y254750D01*
X538345Y276133D02*
X545000Y269478D01*
Y268739D02*
X547584Y266155D01*
X535000Y280000D02*
Y285250D01*
Y280000D02*
X538345Y276655D01*
Y276133D02*
Y276655D01*
X545000Y268739D02*
Y269478D01*
X547584Y266155D02*
X549367D01*
X551655Y263867D01*
Y262084D02*
Y263867D01*
X528345Y294368D02*
X530633Y296655D01*
X537677D02*
X556022Y315000D01*
X530633Y296655D02*
X537677D01*
X585000Y285250D02*
Y298650D01*
X586350Y300000D01*
X556022Y315000D02*
X565000D01*
X560000Y280000D02*
X570000Y270000D01*
X565000Y395000D02*
Y406500D01*
X585000Y391905D02*
X593117D01*
X595405Y389618D01*
X585000Y391905D02*
Y406500D01*
X595405Y377383D02*
Y389618D01*
X563000Y356500D02*
X565000D01*
X541655Y263345D02*
Y263867D01*
X538845Y266155D02*
X539367D01*
X528345Y276133D02*
X530633Y273845D01*
X541655Y263345D02*
X545000Y260000D01*
X528345Y276133D02*
Y294368D01*
X545000Y254750D02*
Y260000D01*
X539367Y266155D02*
X541655Y263867D01*
X531155Y273845D02*
X538845Y266155D01*
X530633Y273845D02*
X531155D01*
X585000Y356500D02*
X587000D01*
X595405Y348095D01*
Y327383D02*
Y348095D01*
X558867Y290845D02*
X595405Y327383D01*
X545000Y290000D02*
X545845Y290845D01*
X545000Y285250D02*
Y290000D01*
X545845Y290845D02*
X558867D01*
X495897Y354255D02*
X562755D01*
X476510Y373643D02*
X495897Y354255D01*
X454345Y384132D02*
X471121Y367356D01*
X473816D02*
X493267Y347905D01*
X476368Y376279D02*
X476510Y376137D01*
Y373643D02*
Y376137D01*
X471121Y367356D02*
X473816D01*
X493267Y347905D02*
X565385D01*
X565575Y348095D01*
X574595D01*
X583000Y356500D02*
X585000D01*
X574595Y348095D02*
X583000Y356500D01*
X454345Y384132D02*
Y400345D01*
X464000Y410000D02*
X465000D01*
X454345Y400345D02*
X464000Y410000D01*
X480000Y405000D02*
X480405Y405405D01*
X486155D02*
X490000Y409250D01*
X480405Y405405D02*
X486155D01*
X554595Y411482D02*
Y412617D01*
X556883Y414905D01*
X574595D01*
X540000Y409250D02*
X552363D01*
X554595Y411482D01*
X574595Y414905D02*
X583000Y406500D01*
X585000D01*
X504345Y399595D02*
X514000Y409250D01*
X515000D01*
X554386Y397886D02*
X563000Y406500D01*
X565000D01*
X183250Y51350D02*
X190769Y43831D01*
Y41976D02*
Y43831D01*
X178000Y51350D02*
X183250D01*
X283000D02*
X288250D01*
X300805Y63905D02*
X331095D01*
X288250Y51350D02*
X300805Y63905D01*
X299285Y49685D02*
X314685D01*
X288250Y38650D02*
X299285Y49685D01*
X314685D02*
X315000Y50000D01*
X216900Y5000D02*
X285000D01*
X178000Y38650D02*
X183250D01*
X216900Y5000D01*
X285000D02*
X299285Y19285D01*
X314285D02*
X315000Y20000D01*
X299285Y19285D02*
X314285D01*
X283000Y38650D02*
X288250D01*
X405000Y495000D02*
X430807Y520807D01*
X453650Y477172D02*
Y477918D01*
X451071Y480497D02*
X453650Y477918D01*
X380000Y494020D02*
X393870Y480150D01*
X422644Y480497D02*
X451071D01*
X422297Y480150D02*
X422644Y480497D01*
X393870Y480150D02*
X422297D01*
X380000Y494020D02*
Y495000D01*
X399764Y514764D02*
X414429D01*
X431095Y531430D01*
X380000Y495000D02*
X399764Y514764D01*
X509286Y412555D02*
X511695D01*
X515000Y409250D01*
X511917Y418905D02*
X523368D01*
X453650Y477172D02*
X511917Y418905D01*
X447694Y474147D02*
X509286Y412555D01*
X387093Y445000D02*
X389325Y442768D01*
X393045Y438650D02*
X455064D01*
X389325Y442370D02*
Y442768D01*
Y442370D02*
X393045Y438650D01*
X527887Y409250D02*
X540000D01*
X525655Y411482D02*
X527887Y409250D01*
X523368Y418905D02*
X525655Y416618D01*
Y411482D02*
Y416618D01*
X468845Y413845D02*
X472248D01*
X474480Y416077D01*
Y419233D01*
X486155Y413095D02*
X490000Y409250D01*
X480830Y415327D02*
X483062Y413095D01*
X480830Y415327D02*
Y421863D01*
X455064Y438650D02*
X474480Y419233D01*
X483062Y413095D02*
X486155D01*
X465000Y410000D02*
X468845Y413845D01*
X457694Y445000D02*
X480830Y421863D01*
X431095Y531430D02*
Y551095D01*
X445000Y565000D01*
X430807Y520807D02*
X450472D01*
X461095Y531430D01*
Y551095D01*
X475000Y565000D01*
X100000Y309750D02*
Y312481D01*
X77995Y318499D02*
Y408033D01*
X65551Y429457D02*
X84345Y410663D01*
X80000Y253750D02*
Y316494D01*
X77995Y318499D02*
X80000Y316494D01*
X86577Y318897D02*
X93583D01*
X84345Y321129D02*
Y410663D01*
Y321129D02*
X86577Y318897D01*
X93583D02*
X100000Y312481D01*
X80000Y253750D02*
X100000Y233750D01*
X69654Y436716D02*
Y464119D01*
X65551Y432613D02*
X69654Y436716D01*
X64367Y469405D02*
X69654Y464119D01*
X59201Y426827D02*
X77995Y408033D01*
X65551Y429457D02*
Y432613D01*
X59201Y426827D02*
Y430481D01*
X51183Y434845D02*
X54837D01*
X45845Y440183D02*
Y460117D01*
X54837Y434845D02*
X59201Y430481D01*
X45845Y440183D02*
X51183Y434845D01*
X100000Y229750D02*
Y233750D01*
X45845Y460117D02*
X48632Y462905D01*
X56405D01*
X56500Y463000D01*
X56595Y469405D02*
X64367D01*
X56500Y469500D02*
X56595Y469405D01*
D77*
X200000Y420000D02*
X201000D01*
X211000Y410000D01*
X275000Y460000D02*
Y462500D01*
X115000Y250000D02*
Y251250D01*
X123750Y100000D02*
X145000D01*
X145000Y100000D01*
X100000Y170000D02*
Y190250D01*
Y266250D02*
X115000Y251250D01*
X100000Y266250D02*
Y270250D01*
X45000Y385000D02*
X62750D01*
X114059Y410000D02*
X211000D01*
X106309Y417750D02*
X114059Y410000D01*
X40000Y365000D02*
X62750D01*
X125000Y364500D02*
X127846Y361654D01*
X138346D01*
X145000Y355000D01*
X184000Y64800D02*
Y69000D01*
X185000Y70000D01*
X178000Y64050D02*
X183250D01*
X184000Y64800D01*
X283000Y64050D02*
Y72000D01*
X280000Y75000D02*
X283000Y72000D01*
X221750Y51350D02*
X227000D01*
X221000Y52100D02*
X221750Y51350D01*
X221000Y52100D02*
Y54000D01*
X220000Y55000D02*
X221000Y54000D01*
X405500Y112000D02*
Y125000D01*
X525000Y320500D02*
X543000D01*
X545000D01*
X541000Y318500D02*
X543000Y320500D01*
X541000Y311000D02*
Y318500D01*
X540000Y310000D02*
X541000Y311000D01*
X300135Y455000D02*
X325000D01*
X295635Y459500D02*
X300135Y455000D01*
X295000Y459500D02*
X295635D01*
X275000Y460000D02*
X294500D01*
X295000Y459500D01*
X265000D02*
X265500Y460000D01*
X275000D01*
X80080Y450080D02*
Y460330D01*
X85000Y465250D01*
X80000Y450000D02*
X80080Y450080D01*
X15000Y515000D02*
X17250D01*
X29250Y503000D02*
X29750D01*
X17250Y515000D02*
X29250Y503000D01*
X289600Y570000D02*
X291513Y568087D01*
X296913D01*
X355000Y510000D01*
X475000Y535555D02*
X495945D01*
X453847Y514402D02*
X475000Y535555D01*
X405500Y155000D02*
Y170000D01*
Y125000D02*
Y155000D01*
X505000Y320500D02*
X525000D01*
X466721Y320721D02*
X484779D01*
X466500Y320943D02*
X466721Y320721D01*
X484779D02*
X485000Y320500D01*
X505000D01*
X100000Y364500D02*
X125000D01*
X325000Y485000D02*
Y505000D01*
X355000Y495000D02*
Y510000D01*
X532617Y435000D02*
X585000D01*
X520933Y446683D02*
X532617Y435000D01*
X516433Y446683D02*
X520933D01*
X430000Y495000D02*
X449402Y514402D01*
X453847D01*
X211000Y410000D02*
X216500D01*
X100000Y417750D02*
X106309D01*
X99750Y364750D02*
X100000Y364500D01*
X62750Y385000D02*
X67250D01*
X29750Y451000D02*
X35250Y456500D01*
X56500Y450000D02*
Y456500D01*
X29750Y423000D02*
Y451000D01*
Y475000D01*
Y503000D01*
X514000Y446683D02*
X516433D01*
X510000Y450683D02*
X514000Y446683D01*
X510000Y450683D02*
Y460000D01*
X505000Y500000D02*
X540000Y465000D01*
X463500Y503250D02*
X466750Y500000D01*
X540000Y465000D02*
X552500D01*
X466750Y500000D02*
X505000D01*
X587500Y465000D02*
X590000Y467500D01*
X544500Y495000D02*
X574500Y465000D01*
X587500D01*
X540500Y495000D02*
X544500D01*
X495945Y535555D02*
X536500Y495000D01*
X540500D01*
D78*
X215179Y434000D02*
Y445179D01*
Y434000D02*
X216179Y433000D01*
X216500D01*
X238770Y492000D02*
X283000D01*
X293500Y482000D02*
X295000Y480500D01*
X293000Y482000D02*
X293500D01*
X236127Y480500D02*
X265000D01*
X224127Y492500D02*
X236127Y480500D01*
X224127Y492500D02*
Y499127D01*
X225000Y500000D01*
X283000Y492000D02*
X293000Y482000D01*
X175000Y490000D02*
X180000Y485000D01*
X160000Y490000D02*
X175000D01*
X160000D02*
Y585000D01*
D79*
X475000Y535000D02*
D03*
D80*
X504690Y573890D02*
D03*
X385310D02*
D03*
D81*
X550000Y50000D02*
D03*
X50000Y550000D02*
D03*
X550000D02*
D03*
X50000Y50000D02*
D03*
D82*
X54250Y483750D02*
D03*
Y442250D02*
D03*
X550000Y77500D02*
D03*
X570000Y70000D02*
D03*
X577500Y50000D02*
D03*
X570000Y30000D02*
D03*
X550000Y22500D02*
D03*
X530000Y30000D02*
D03*
X522500Y50000D02*
D03*
X530000Y70000D02*
D03*
X50000Y577500D02*
D03*
X70000Y570000D02*
D03*
X77500Y550000D02*
D03*
X70000Y530000D02*
D03*
X50000Y522500D02*
D03*
X30000Y530000D02*
D03*
X22500Y550000D02*
D03*
X30000Y570000D02*
D03*
X550000Y577500D02*
D03*
X570000Y570000D02*
D03*
X577500Y550000D02*
D03*
X570000Y530000D02*
D03*
X550000Y522500D02*
D03*
X530000Y530000D02*
D03*
X522500Y550000D02*
D03*
X530000Y570000D02*
D03*
X30000Y70000D02*
D03*
X22500Y50000D02*
D03*
X30000Y30000D02*
D03*
X50000Y22500D02*
D03*
X70000Y30000D02*
D03*
X77500Y50000D02*
D03*
X70000Y70000D02*
D03*
X50000Y77500D02*
D03*
D83*
X340400Y570000D02*
D03*
X289600D02*
D03*
X315000D02*
D03*
D84*
X185400Y585000D02*
D03*
X160000D02*
D03*
X25000Y215800D02*
D03*
Y266600D02*
D03*
Y241200D02*
D03*
Y190400D02*
D03*
Y165000D02*
D03*
D85*
X134600Y585000D02*
D03*
D86*
X25000Y292000D02*
D03*
D87*
X22250Y323750D02*
D03*
Y386250D02*
D03*
D88*
X25000Y127700D02*
D03*
Y102300D02*
D03*
D89*
X325000Y300000D02*
D03*
X503731Y373135D02*
D03*
X429469Y363790D02*
D03*
X407701Y364993D02*
D03*
X397501D02*
D03*
X488245Y378629D02*
D03*
X527138Y377456D02*
D03*
X553532Y366869D02*
D03*
X576635Y373074D02*
D03*
X586537Y372677D02*
D03*
X330000Y310000D02*
D03*
Y265000D02*
D03*
X265136Y251480D02*
D03*
X260682Y268200D02*
D03*
X509896Y373835D02*
D03*
X460253Y119747D02*
D03*
X425000Y335000D02*
D03*
X200000Y420000D02*
D03*
X250000D02*
D03*
X280000Y400000D02*
D03*
X295000D02*
D03*
X130000Y340000D02*
D03*
X298310Y355000D02*
D03*
X105000Y330000D02*
D03*
X190000Y360000D02*
D03*
X185000Y350000D02*
D03*
X180000Y355000D02*
D03*
X230000Y395000D02*
D03*
X272500Y360000D02*
D03*
X270000Y350000D02*
D03*
X428143Y299402D02*
D03*
X422960Y294804D02*
D03*
X423462Y225771D02*
D03*
X431665Y230271D02*
D03*
X423796Y219364D02*
D03*
X410000Y214472D02*
D03*
X429932Y220495D02*
D03*
X268636Y226364D02*
D03*
X252524Y172476D02*
D03*
X275000Y462500D02*
D03*
X115000Y250000D02*
D03*
X178822Y326178D02*
D03*
X325000Y341364D02*
D03*
X320000Y333500D02*
D03*
X315000Y339500D02*
D03*
X330000Y333500D02*
D03*
X305000Y363255D02*
D03*
X345000Y338500D02*
D03*
X340000Y333500D02*
D03*
X335000Y338500D02*
D03*
X350000Y333500D02*
D03*
X355000Y338500D02*
D03*
X360000Y333500D02*
D03*
X426665Y316367D02*
D03*
Y304612D02*
D03*
X230000Y365000D02*
D03*
X360000Y44063D02*
D03*
X380000Y445000D02*
D03*
X405000D02*
D03*
X275000Y290000D02*
D03*
Y310000D02*
D03*
X231475Y217500D02*
D03*
X265000Y221500D02*
D03*
X306408Y209719D02*
D03*
X306495Y220000D02*
D03*
X235303Y180303D02*
D03*
X214643Y185000D02*
D03*
X250303Y165303D02*
D03*
X255000Y125000D02*
D03*
X416846Y101500D02*
D03*
X505253Y164747D02*
D03*
X507500Y227803D02*
D03*
X433500Y92994D02*
D03*
X370000Y88359D02*
D03*
X410000Y60250D02*
D03*
X505000Y134144D02*
D03*
X515000Y155000D02*
D03*
X530000Y175000D02*
D03*
X431665Y280007D02*
D03*
Y310017D02*
D03*
Y290007D02*
D03*
Y320007D02*
D03*
Y270007D02*
D03*
X426665Y285007D02*
D03*
X428165Y275007D02*
D03*
X420000Y405000D02*
D03*
X419069Y365931D02*
D03*
X415000Y330000D02*
D03*
X453198Y339943D02*
D03*
X460000Y280000D02*
D03*
X463418Y296582D02*
D03*
X239834Y185618D02*
D03*
X396500Y486500D02*
D03*
X215179Y445179D02*
D03*
X169478Y75522D02*
D03*
X145000Y100000D02*
D03*
X120000Y125000D02*
D03*
X125000Y170000D02*
D03*
X140000Y210000D02*
D03*
X100000Y170000D02*
D03*
X125000Y260000D02*
D03*
X110000Y230000D02*
D03*
X180000Y485000D02*
D03*
X273682Y271622D02*
D03*
Y280000D02*
D03*
X275000Y220000D02*
D03*
X267500Y202500D02*
D03*
X226479Y336980D02*
D03*
X230105Y343143D02*
D03*
X230005Y329531D02*
D03*
X230000Y320000D02*
D03*
X380000Y245000D02*
D03*
X340000Y240000D02*
D03*
X75292Y185713D02*
D03*
X255000Y435000D02*
D03*
X215000Y45000D02*
D03*
X308697Y186303D02*
D03*
X45000Y385000D02*
D03*
X445000Y455000D02*
D03*
X565000Y496500D02*
D03*
X485000Y485000D02*
D03*
X540000Y365000D02*
D03*
X319000Y300000D02*
D03*
X405000Y245000D02*
D03*
X370000D02*
D03*
X415000Y280000D02*
D03*
X560000Y208500D02*
D03*
X575000Y163500D02*
D03*
X170000Y430000D02*
D03*
Y385000D02*
D03*
X140000Y370000D02*
D03*
X110000Y465000D02*
D03*
X75059Y440000D02*
D03*
X85000Y525000D02*
D03*
X40000Y355000D02*
D03*
Y365000D02*
D03*
X229643Y184643D02*
D03*
X436500Y150000D02*
D03*
X365000Y60000D02*
D03*
X285000Y85000D02*
D03*
Y189000D02*
D03*
X145000Y355000D02*
D03*
X595000Y515000D02*
D03*
X64249Y440000D02*
D03*
X122000Y38650D02*
D03*
X280000Y75000D02*
D03*
X220000Y55000D02*
D03*
X370000Y80000D02*
D03*
X320000Y85000D02*
D03*
X380000Y115000D02*
D03*
X370000D02*
D03*
X395000Y150000D02*
D03*
X574595Y325000D02*
D03*
X540000Y310000D02*
D03*
X80000Y450000D02*
D03*
X15000Y515000D02*
D03*
X231475Y224318D02*
D03*
X195053Y179947D02*
D03*
X234500Y229997D02*
D03*
X115000Y385000D02*
D03*
X329300Y39012D02*
D03*
X555000Y185000D02*
D03*
X370000Y15000D02*
D03*
X328728Y32443D02*
D03*
X579190Y230000D02*
D03*
X580000Y240000D02*
D03*
X540000Y230000D02*
D03*
X586350Y300000D02*
D03*
X565000Y315000D02*
D03*
X560000Y280000D02*
D03*
X565000Y395000D02*
D03*
X480000Y405000D02*
D03*
X476368Y376279D02*
D03*
X185000Y70000D02*
D03*
X365000Y75000D02*
D03*
X190769Y41976D02*
D03*
X225000Y15000D02*
D03*
X447694Y474147D02*
D03*
X380000Y400000D02*
D03*
X65000Y335000D02*
D03*
X230000Y265000D02*
D03*
X405000Y219472D02*
D03*
X185000Y85000D02*
D03*
Y285000D02*
D03*
Y260000D02*
D03*
X265000Y285000D02*
D03*
X230000Y275000D02*
D03*
X140000Y300000D02*
D03*
X70000Y120000D02*
D03*
X285000Y95000D02*
D03*
X325000Y260000D02*
D03*
X122000Y51350D02*
D03*
X214500Y65750D02*
D03*
X89750Y405000D02*
D03*
X335000Y235000D02*
D03*
X330000Y230000D02*
D03*
X320000Y220000D02*
D03*
X325000Y225000D02*
D03*
X285000Y202000D02*
D03*
X270000Y185000D02*
D03*
X230000Y290000D02*
D03*
Y300000D02*
D03*
Y310000D02*
D03*
Y350000D02*
D03*
X310000Y400000D02*
D03*
X320000D02*
D03*
X330000D02*
D03*
X345000D02*
D03*
X360000Y150000D02*
D03*
X370000D02*
D03*
X340000Y215000D02*
D03*
X335000Y210000D02*
D03*
X350000Y216500D02*
D03*
X355000Y221500D02*
D03*
X360000Y216500D02*
D03*
X365000Y221500D02*
D03*
X370000Y216500D02*
D03*
X375000Y221500D02*
D03*
X380000Y216500D02*
D03*
X385000Y221500D02*
D03*
X390000Y216500D02*
D03*
X395000Y221500D02*
D03*
X400000Y216500D02*
D03*
X426665Y265007D02*
D03*
X431665Y250007D02*
D03*
X426665Y245007D02*
D03*
X431665Y240007D02*
D03*
X426665Y235007D02*
D03*
X238770Y492000D02*
D03*
X225000Y500000D02*
D03*
X325000Y505000D02*
D03*
X184970Y502941D02*
D03*
X185000Y560000D02*
D03*
X130000Y535000D02*
D03*
X105000Y480000D02*
D03*
Y450000D02*
D03*
X65000Y505000D02*
D03*
X510000Y460000D02*
D03*
X544500Y464875D02*
D03*
D90*
X451305Y191297D02*
D03*
X430000Y70000D02*
D03*
X247053Y382947D02*
D03*
X514257Y198500D02*
D03*
X500000Y255000D02*
D03*
X532617Y435000D02*
D03*
X245000Y195000D02*
D03*
X295000Y130000D02*
D03*
X432550Y425000D02*
D03*
X360000Y440000D02*
D03*
X320000Y115500D02*
D03*
M02*
