G04*
G04 #@! TF.GenerationSoftware,Altium Limited,Altium Designer,23.11.1 (41)*
G04*
G04 Layer_Physical_Order=3*
G04 Layer_Color=16440176*
%FSLAX44Y44*%
%MOMM*%
G71*
G04*
G04 #@! TF.SameCoordinates,47BC51C5-C70F-4843-9F8A-4785544E9BB8*
G04*
G04*
G04 #@! TF.FilePolarity,Positive*
G04*
G01*
G75*
%ADD11C,0.6000*%
%ADD15C,0.2000*%
%ADD19C,2.0000*%
%ADD75C,0.3000*%
%ADD76C,0.3810*%
%ADD77C,0.5000*%
%ADD78C,0.8000*%
G04:AMPARAMS|DCode=79|XSize=2mm|YSize=2mm|CornerRadius=0.5mm|HoleSize=0mm|Usage=FLASHONLY|Rotation=90.000|XOffset=0mm|YOffset=0mm|HoleType=Round|Shape=RoundedRectangle|*
%AMROUNDEDRECTD79*
21,1,2.0000,1.0000,0,0,90.0*
21,1,1.0000,2.0000,0,0,90.0*
1,1,1.0000,0.5000,0.5000*
1,1,1.0000,0.5000,-0.5000*
1,1,1.0000,-0.5000,-0.5000*
1,1,1.0000,-0.5000,0.5000*
%
%ADD79ROUNDEDRECTD79*%
%ADD80C,1.2000*%
%ADD81C,7.0000*%
%ADD82C,0.7000*%
%ADD83C,1.5000*%
%ADD84C,1.6000*%
G04:AMPARAMS|DCode=85|XSize=1.6mm|YSize=1.6mm|CornerRadius=0.4mm|HoleSize=0mm|Usage=FLASHONLY|Rotation=0.000|XOffset=0mm|YOffset=0mm|HoleType=Round|Shape=RoundedRectangle|*
%AMROUNDEDRECTD85*
21,1,1.6000,0.8000,0,0,0.0*
21,1,0.8000,1.6000,0,0,0.0*
1,1,0.8000,0.4000,-0.4000*
1,1,0.8000,-0.4000,-0.4000*
1,1,0.8000,-0.4000,0.4000*
1,1,0.8000,0.4000,0.4000*
%
%ADD85ROUNDEDRECTD85*%
G04:AMPARAMS|DCode=86|XSize=1.6mm|YSize=1.6mm|CornerRadius=0.4mm|HoleSize=0mm|Usage=FLASHONLY|Rotation=270.000|XOffset=0mm|YOffset=0mm|HoleType=Round|Shape=RoundedRectangle|*
%AMROUNDEDRECTD86*
21,1,1.6000,0.8000,0,0,270.0*
21,1,0.8000,1.6000,0,0,270.0*
1,1,0.8000,-0.4000,-0.4000*
1,1,0.8000,-0.4000,0.4000*
1,1,0.8000,0.4000,0.4000*
1,1,0.8000,0.4000,-0.4000*
%
%ADD86ROUNDEDRECTD86*%
%ADD87C,1.3000*%
%ADD88C,1.8000*%
%ADD89C,0.3000*%
%ADD90C,0.5000*%
G36*
X550000Y600000D02*
X553277Y600000D01*
X559775Y599144D01*
X566106Y597448D01*
X572162Y594940D01*
X577838Y591663D01*
X583038Y587673D01*
X587673Y583038D01*
X591663Y577838D01*
X594940Y572162D01*
X597448Y566106D01*
X599145Y559775D01*
X600000Y553277D01*
X600000Y550000D01*
X600000D01*
X600000Y550000D01*
X600000Y50000D01*
Y46723D01*
X599145Y40224D01*
X597448Y33893D01*
X594940Y27838D01*
X591663Y22162D01*
X587673Y16962D01*
X583038Y12327D01*
X577838Y8337D01*
X572162Y5060D01*
X566106Y2552D01*
X559775Y856D01*
X553277Y0D01*
X46723D01*
X40224Y856D01*
X33893Y2552D01*
X27838Y5060D01*
X22162Y8337D01*
X16962Y12327D01*
X12327Y16962D01*
X8337Y22162D01*
X5060Y27838D01*
X2552Y33893D01*
X856Y40224D01*
X0Y46723D01*
Y50000D01*
Y550000D01*
Y553277D01*
X856Y559775D01*
X2552Y566106D01*
X5060Y572162D01*
X8337Y577838D01*
X12327Y583038D01*
X16962Y587673D01*
X22162Y591663D01*
X27838Y594940D01*
X33893Y597448D01*
X40224Y599145D01*
X46723Y600000D01*
X50000D01*
X550000Y600000D01*
D02*
G37*
%LPC*%
G36*
X186716Y595000D02*
X184083D01*
X181540Y594319D01*
X179260Y593002D01*
X177398Y591140D01*
X176082Y588860D01*
X175400Y586316D01*
Y583684D01*
X176082Y581140D01*
X177398Y578860D01*
X179260Y576998D01*
X181540Y575681D01*
X184083Y575000D01*
X186716D01*
X189260Y575681D01*
X191540Y576998D01*
X193402Y578860D01*
X194718Y581140D01*
X195400Y583684D01*
Y586316D01*
X194718Y588860D01*
X193402Y591140D01*
X191540Y593002D01*
X189260Y594319D01*
X186716Y595000D01*
D02*
G37*
G36*
X161317D02*
X158684D01*
X156140Y594319D01*
X153860Y593002D01*
X151998Y591140D01*
X150681Y588860D01*
X150000Y586316D01*
Y583684D01*
X150681Y581140D01*
X151998Y578860D01*
X153860Y576998D01*
X156140Y575681D01*
X158684Y575000D01*
X161317D01*
X163860Y575681D01*
X166140Y576998D01*
X168002Y578860D01*
X169319Y581140D01*
X170000Y583684D01*
Y586316D01*
X169319Y588860D01*
X168002Y591140D01*
X166140Y593002D01*
X163860Y594319D01*
X161317Y595000D01*
D02*
G37*
G36*
X138600Y595117D02*
X130600D01*
X128259Y594652D01*
X126274Y593326D01*
X124948Y591341D01*
X124482Y589000D01*
Y581000D01*
X124948Y578659D01*
X126274Y576674D01*
X128259Y575348D01*
X130600Y574883D01*
X138600D01*
X140941Y575348D01*
X142926Y576674D01*
X144252Y578659D01*
X144718Y581000D01*
Y589000D01*
X144252Y591341D01*
X142926Y593326D01*
X140941Y594652D01*
X138600Y595117D01*
D02*
G37*
G36*
X505743Y581890D02*
X503637D01*
X501602Y581345D01*
X499778Y580292D01*
X498288Y578802D01*
X497235Y576978D01*
X496690Y574943D01*
Y572837D01*
X497235Y570802D01*
X498288Y568978D01*
X499778Y567488D01*
X501602Y566435D01*
X503637Y565890D01*
X505743D01*
X507778Y566435D01*
X509602Y567488D01*
X511092Y568978D01*
X512145Y570802D01*
X512690Y572837D01*
Y574943D01*
X512145Y576978D01*
X511092Y578802D01*
X509602Y580292D01*
X507778Y581345D01*
X505743Y581890D01*
D02*
G37*
G36*
X386363D02*
X384257D01*
X382222Y581345D01*
X380398Y580292D01*
X378908Y578802D01*
X377855Y576978D01*
X377310Y574943D01*
Y572837D01*
X377855Y570802D01*
X378908Y568978D01*
X380398Y567488D01*
X382222Y566435D01*
X384257Y565890D01*
X386363D01*
X388398Y566435D01*
X390222Y567488D01*
X391712Y568978D01*
X392765Y570802D01*
X393310Y572837D01*
Y574943D01*
X392765Y576978D01*
X391712Y578802D01*
X390222Y580292D01*
X388398Y581345D01*
X386363Y581890D01*
D02*
G37*
G36*
X341651Y579500D02*
X339149D01*
X336733Y578853D01*
X334567Y577602D01*
X332798Y575833D01*
X331547Y573667D01*
X330900Y571251D01*
Y568749D01*
X331547Y566333D01*
X332798Y564167D01*
X334567Y562398D01*
X336733Y561147D01*
X339149Y560500D01*
X341651D01*
X344067Y561147D01*
X346233Y562398D01*
X348002Y564167D01*
X349253Y566333D01*
X349900Y568749D01*
Y571251D01*
X349253Y573667D01*
X348002Y575833D01*
X346233Y577602D01*
X344067Y578853D01*
X341651Y579500D01*
D02*
G37*
G36*
X316251D02*
X313749D01*
X311333Y578853D01*
X309167Y577602D01*
X307398Y575833D01*
X306147Y573667D01*
X305500Y571251D01*
Y568749D01*
X306147Y566333D01*
X307398Y564167D01*
X309167Y562398D01*
X311333Y561147D01*
X313749Y560500D01*
X316251D01*
X318667Y561147D01*
X320833Y562398D01*
X322602Y564167D01*
X323853Y566333D01*
X324500Y568749D01*
Y571251D01*
X323853Y573667D01*
X322602Y575833D01*
X320833Y577602D01*
X318667Y578853D01*
X316251Y579500D01*
D02*
G37*
G36*
X290851D02*
X288349D01*
X285933Y578853D01*
X283767Y577602D01*
X281998Y575833D01*
X280747Y573667D01*
X280100Y571251D01*
Y568749D01*
X280747Y566333D01*
X281998Y564167D01*
X283767Y562398D01*
X285933Y561147D01*
X288349Y560500D01*
X290851D01*
X293267Y561147D01*
X295433Y562398D01*
X297202Y564167D01*
X298453Y566333D01*
X299100Y568749D01*
Y571251D01*
X298453Y573667D01*
X297202Y575833D01*
X295433Y577602D01*
X293267Y578853D01*
X290851Y579500D01*
D02*
G37*
G36*
X185696Y563500D02*
X184304D01*
X183017Y562967D01*
X182033Y561983D01*
X181500Y560696D01*
Y559304D01*
X182033Y558017D01*
X183017Y557033D01*
X184304Y556500D01*
X185696D01*
X186983Y557033D01*
X187967Y558017D01*
X188500Y559304D01*
Y560696D01*
X187967Y561983D01*
X186983Y562967D01*
X185696Y563500D01*
D02*
G37*
G36*
X476580Y577000D02*
X473420D01*
X470368Y576182D01*
X467632Y574602D01*
X465398Y572368D01*
X463818Y569632D01*
X463000Y566580D01*
Y563420D01*
X463818Y560368D01*
X465398Y557632D01*
X467632Y555398D01*
X470368Y553818D01*
X473420Y553000D01*
X476580D01*
X479632Y553818D01*
X482368Y555398D01*
X484602Y557632D01*
X486182Y560368D01*
X487000Y563420D01*
Y566580D01*
X486182Y569632D01*
X484602Y572368D01*
X482368Y574602D01*
X479632Y576182D01*
X476580Y577000D01*
D02*
G37*
G36*
X446580D02*
X443420D01*
X440368Y576182D01*
X437632Y574602D01*
X435398Y572368D01*
X433818Y569632D01*
X433000Y566580D01*
Y563420D01*
X433818Y560368D01*
X435398Y557632D01*
X437632Y555398D01*
X440368Y553818D01*
X443420Y553000D01*
X446580D01*
X449632Y553818D01*
X452368Y555398D01*
X454602Y557632D01*
X456182Y560368D01*
X457000Y563420D01*
Y566580D01*
X456182Y569632D01*
X454602Y572368D01*
X452368Y574602D01*
X449632Y576182D01*
X446580Y577000D01*
D02*
G37*
G36*
X416580D02*
X413420D01*
X410368Y576182D01*
X407632Y574602D01*
X405398Y572368D01*
X403818Y569632D01*
X403000Y566580D01*
Y563420D01*
X403818Y560368D01*
X405398Y557632D01*
X407632Y555398D01*
X410368Y553818D01*
X413420Y553000D01*
X416580D01*
X419632Y553818D01*
X422368Y555398D01*
X424602Y557632D01*
X426182Y560368D01*
X427000Y563420D01*
Y566580D01*
X426182Y569632D01*
X424602Y572368D01*
X422368Y574602D01*
X419632Y576182D01*
X416580Y577000D01*
D02*
G37*
G36*
X130696Y538500D02*
X129304D01*
X128017Y537967D01*
X127033Y536983D01*
X126500Y535696D01*
Y534304D01*
X127033Y533017D01*
X128017Y532033D01*
X129304Y531500D01*
X130696D01*
X131983Y532033D01*
X132967Y533017D01*
X133500Y534304D01*
Y535696D01*
X132967Y536983D01*
X131983Y537967D01*
X130696Y538500D01*
D02*
G37*
G36*
X446580Y547000D02*
X443420D01*
X440368Y546182D01*
X437632Y544602D01*
X435398Y542368D01*
X433818Y539632D01*
X433000Y536580D01*
Y533420D01*
X433818Y530368D01*
X435398Y527632D01*
X437632Y525398D01*
X440368Y523818D01*
X443420Y523000D01*
X446580D01*
X449632Y523818D01*
X452368Y525398D01*
X454602Y527632D01*
X456182Y530368D01*
X457000Y533420D01*
Y536580D01*
X456182Y539632D01*
X454602Y542368D01*
X452368Y544602D01*
X449632Y546182D01*
X446580Y547000D01*
D02*
G37*
G36*
X416580D02*
X413420D01*
X410368Y546182D01*
X407632Y544602D01*
X405398Y542368D01*
X403818Y539632D01*
X403000Y536580D01*
Y533420D01*
X403818Y530368D01*
X405398Y527632D01*
X407632Y525398D01*
X410368Y523818D01*
X413420Y523000D01*
X416580D01*
X419632Y523818D01*
X422368Y525398D01*
X424602Y527632D01*
X426182Y530368D01*
X427000Y533420D01*
Y536580D01*
X426182Y539632D01*
X424602Y542368D01*
X422368Y544602D01*
X419632Y546182D01*
X416580Y547000D01*
D02*
G37*
G36*
X480000Y547060D02*
X470000D01*
X468173Y546820D01*
X466470Y546115D01*
X465008Y544992D01*
X463885Y543530D01*
X463180Y541827D01*
X462940Y540000D01*
Y530000D01*
X463180Y528173D01*
X463885Y526470D01*
X465008Y525008D01*
X466470Y523885D01*
X468173Y523180D01*
X470000Y522940D01*
X480000D01*
X481827Y523180D01*
X483530Y523885D01*
X484992Y525008D01*
X486115Y526470D01*
X486820Y528173D01*
X487060Y530000D01*
Y540000D01*
X486820Y541827D01*
X486115Y543530D01*
X484992Y544992D01*
X483530Y546115D01*
X481827Y546820D01*
X480000Y547060D01*
D02*
G37*
G36*
X85696Y528500D02*
X84304D01*
X83017Y527967D01*
X82033Y526983D01*
X81500Y525696D01*
Y524304D01*
X82033Y523017D01*
X83017Y522033D01*
X84304Y521500D01*
X85696D01*
X86983Y522033D01*
X87967Y523017D01*
X88500Y524304D01*
Y525696D01*
X87967Y526983D01*
X86983Y527967D01*
X85696Y528500D01*
D02*
G37*
G36*
X552912Y587000D02*
X547088D01*
X541336Y586089D01*
X535797Y584289D01*
X530608Y581645D01*
X525896Y578222D01*
X521778Y574104D01*
X518355Y569392D01*
X515711Y564203D01*
X513911Y558664D01*
X513000Y552912D01*
Y547088D01*
X513911Y541336D01*
X515711Y535797D01*
X518355Y530608D01*
X521778Y525896D01*
X525896Y521778D01*
X530608Y518355D01*
X535797Y515711D01*
X541336Y513911D01*
X547088Y513000D01*
X552912D01*
X558664Y513911D01*
X564203Y515711D01*
X569392Y518355D01*
X574104Y521778D01*
X578222Y525896D01*
X581645Y530608D01*
X584289Y535797D01*
X586089Y541336D01*
X587000Y547088D01*
Y552912D01*
X586089Y558664D01*
X584289Y564203D01*
X581645Y569392D01*
X578222Y574104D01*
X574104Y578222D01*
X569392Y581645D01*
X564203Y584289D01*
X558664Y586089D01*
X552912Y587000D01*
D02*
G37*
G36*
X52912D02*
X47088D01*
X41336Y586089D01*
X35797Y584289D01*
X30608Y581645D01*
X25896Y578222D01*
X21778Y574104D01*
X18355Y569392D01*
X15711Y564203D01*
X13911Y558664D01*
X13000Y552912D01*
Y547088D01*
X13911Y541336D01*
X15711Y535797D01*
X18355Y530608D01*
X21778Y525896D01*
X25896Y521778D01*
X30608Y518355D01*
X35797Y515711D01*
X41336Y513911D01*
X47088Y513000D01*
X52912D01*
X58664Y513911D01*
X64203Y515711D01*
X69392Y518355D01*
X74104Y521778D01*
X78222Y525896D01*
X81645Y530608D01*
X84289Y535797D01*
X86089Y541336D01*
X87000Y547088D01*
Y552912D01*
X86089Y558664D01*
X84289Y564203D01*
X81645Y569392D01*
X78222Y574104D01*
X74104Y578222D01*
X69392Y581645D01*
X64203Y584289D01*
X58664Y586089D01*
X52912Y587000D01*
D02*
G37*
G36*
X595696Y518500D02*
X594304D01*
X593017Y517967D01*
X592033Y516983D01*
X591500Y515696D01*
Y514304D01*
X592033Y513017D01*
X593017Y512033D01*
X594304Y511500D01*
X595696D01*
X596983Y512033D01*
X597967Y513017D01*
X598500Y514304D01*
Y515696D01*
X597967Y516983D01*
X596983Y517967D01*
X595696Y518500D01*
D02*
G37*
G36*
X15696D02*
X14304D01*
X13017Y517967D01*
X12033Y516983D01*
X11500Y515696D01*
Y514304D01*
X12033Y513017D01*
X13017Y512033D01*
X14304Y511500D01*
X15696D01*
X16983Y512033D01*
X17967Y513017D01*
X18500Y514304D01*
Y515696D01*
X17967Y516983D01*
X16983Y517967D01*
X15696Y518500D01*
D02*
G37*
G36*
X325696Y508500D02*
X324304D01*
X323017Y507967D01*
X322033Y506983D01*
X321500Y505696D01*
Y504304D01*
X322033Y503017D01*
X323017Y502033D01*
X324304Y501500D01*
X325696D01*
X326983Y502033D01*
X327967Y503017D01*
X328500Y504304D01*
Y505696D01*
X327967Y506983D01*
X326983Y507967D01*
X325696Y508500D01*
D02*
G37*
G36*
X65696D02*
X64304D01*
X63017Y507967D01*
X62033Y506983D01*
X61500Y505696D01*
Y504304D01*
X62033Y503017D01*
X63017Y502033D01*
X64304Y501500D01*
X65696D01*
X66983Y502033D01*
X67967Y503017D01*
X68500Y504304D01*
Y505696D01*
X67967Y506983D01*
X66983Y507967D01*
X65696Y508500D01*
D02*
G37*
G36*
X185666Y506441D02*
X184274D01*
X182987Y505908D01*
X182003Y504924D01*
X181470Y503637D01*
Y502245D01*
X182003Y500959D01*
X182987Y499974D01*
X184274Y499441D01*
X185666D01*
X186952Y499974D01*
X187937Y500959D01*
X188470Y502245D01*
Y503637D01*
X187937Y504924D01*
X186952Y505908D01*
X185666Y506441D01*
D02*
G37*
G36*
X225696Y503500D02*
X224304D01*
X223017Y502967D01*
X222033Y501983D01*
X221500Y500696D01*
Y499304D01*
X222033Y498017D01*
X223017Y497033D01*
X224304Y496500D01*
X225696D01*
X226983Y497033D01*
X227967Y498017D01*
X228500Y499304D01*
Y500696D01*
X227967Y501983D01*
X226983Y502967D01*
X225696Y503500D01*
D02*
G37*
G36*
X565696Y500000D02*
X564304D01*
X563017Y499467D01*
X562033Y498483D01*
X561500Y497196D01*
Y495804D01*
X562033Y494517D01*
X563017Y493533D01*
X564304Y493000D01*
X565696D01*
X566983Y493533D01*
X567967Y494517D01*
X568500Y495804D01*
Y497196D01*
X567967Y498483D01*
X566983Y499467D01*
X565696Y500000D01*
D02*
G37*
G36*
X239466Y495500D02*
X238073D01*
X236787Y494967D01*
X235802Y493983D01*
X235270Y492696D01*
Y491304D01*
X235802Y490017D01*
X236787Y489033D01*
X238073Y488500D01*
X239466D01*
X240752Y489033D01*
X241737Y490017D01*
X242269Y491304D01*
Y492696D01*
X241737Y493983D01*
X240752Y494967D01*
X239466Y495500D01*
D02*
G37*
G36*
X397196Y490000D02*
X395804D01*
X394517Y489467D01*
X393533Y488483D01*
X393000Y487196D01*
Y485804D01*
X393533Y484517D01*
X394517Y483533D01*
X395804Y483000D01*
X397196D01*
X398483Y483533D01*
X399467Y484517D01*
X400000Y485804D01*
Y487196D01*
X399467Y488483D01*
X398483Y489467D01*
X397196Y490000D01*
D02*
G37*
G36*
X485696Y488500D02*
X484304D01*
X483017Y487967D01*
X482033Y486983D01*
X481500Y485696D01*
Y484304D01*
X482033Y483017D01*
X483017Y482033D01*
X484304Y481500D01*
X485696D01*
X486983Y482033D01*
X487967Y483017D01*
X488500Y484304D01*
Y485696D01*
X487967Y486983D01*
X486983Y487967D01*
X485696Y488500D01*
D02*
G37*
G36*
X180696D02*
X179304D01*
X178017Y487967D01*
X177033Y486983D01*
X176500Y485696D01*
Y484304D01*
X177033Y483017D01*
X178017Y482033D01*
X179304Y481500D01*
X180696D01*
X181983Y482033D01*
X182967Y483017D01*
X183500Y484304D01*
Y485696D01*
X182967Y486983D01*
X181983Y487967D01*
X180696Y488500D01*
D02*
G37*
G36*
X55344Y489250D02*
X53156D01*
X51135Y488413D01*
X49587Y486866D01*
X48750Y484844D01*
Y482656D01*
X49587Y480634D01*
X51135Y479087D01*
X53156Y478250D01*
X55344D01*
X57365Y479087D01*
X58913Y480634D01*
X59750Y482656D01*
Y484844D01*
X58913Y486866D01*
X57365Y488413D01*
X55344Y489250D01*
D02*
G37*
G36*
X105696Y483500D02*
X104304D01*
X103017Y482967D01*
X102033Y481983D01*
X101500Y480696D01*
Y479304D01*
X102033Y478017D01*
X103017Y477033D01*
X104304Y476500D01*
X105696D01*
X106983Y477033D01*
X107967Y478017D01*
X108500Y479304D01*
Y480696D01*
X107967Y481983D01*
X106983Y482967D01*
X105696Y483500D01*
D02*
G37*
G36*
X448391Y477647D02*
X446998D01*
X445712Y477114D01*
X444727Y476130D01*
X444194Y474843D01*
Y473451D01*
X444727Y472165D01*
X445712Y471180D01*
X446998Y470647D01*
X448391D01*
X449677Y471180D01*
X450662Y472165D01*
X451194Y473451D01*
Y474843D01*
X450662Y476130D01*
X449677Y477114D01*
X448391Y477647D01*
D02*
G37*
G36*
X110696Y468500D02*
X109304D01*
X108017Y467967D01*
X107033Y466983D01*
X106500Y465696D01*
Y464304D01*
X107033Y463017D01*
X108017Y462033D01*
X109304Y461500D01*
X110696D01*
X111983Y462033D01*
X112967Y463017D01*
X113500Y464304D01*
Y465696D01*
X112967Y466983D01*
X111983Y467967D01*
X110696Y468500D01*
D02*
G37*
G36*
X545196Y468375D02*
X543804D01*
X542517Y467842D01*
X541533Y466858D01*
X541000Y465571D01*
Y464179D01*
X541533Y462892D01*
X542517Y461908D01*
X543804Y461375D01*
X545196D01*
X546483Y461908D01*
X547467Y462892D01*
X548000Y464179D01*
Y465571D01*
X547467Y466858D01*
X546483Y467842D01*
X545196Y468375D01*
D02*
G37*
G36*
X510696Y463500D02*
X509304D01*
X508017Y462967D01*
X507033Y461983D01*
X506500Y460696D01*
Y459304D01*
X507033Y458017D01*
X508017Y457033D01*
X509304Y456500D01*
X510696D01*
X511983Y457033D01*
X512967Y458017D01*
X513500Y459304D01*
Y460696D01*
X512967Y461983D01*
X511983Y462967D01*
X510696Y463500D01*
D02*
G37*
G36*
X445696Y458500D02*
X444304D01*
X443017Y457967D01*
X442033Y456983D01*
X441500Y455696D01*
Y454304D01*
X442033Y453017D01*
X443017Y452033D01*
X444304Y451500D01*
X445696D01*
X446983Y452033D01*
X447967Y453017D01*
X448500Y454304D01*
Y455696D01*
X447967Y456983D01*
X446983Y457967D01*
X445696Y458500D01*
D02*
G37*
G36*
X105696Y453500D02*
X104304D01*
X103017Y452967D01*
X102033Y451983D01*
X101500Y450696D01*
Y449304D01*
X102033Y448017D01*
X103017Y447033D01*
X104304Y446500D01*
X105696D01*
X106983Y447033D01*
X107967Y448017D01*
X108500Y449304D01*
Y450696D01*
X107967Y451983D01*
X106983Y452967D01*
X105696Y453500D01*
D02*
G37*
G36*
X80696D02*
X79304D01*
X78017Y452967D01*
X77033Y451983D01*
X76500Y450696D01*
Y449304D01*
X77033Y448017D01*
X78017Y447033D01*
X79304Y446500D01*
X80696D01*
X81983Y447033D01*
X82967Y448017D01*
X83500Y449304D01*
Y450696D01*
X82967Y451983D01*
X81983Y452967D01*
X80696Y453500D01*
D02*
G37*
G36*
X257500Y441059D02*
Y437500D01*
X261059D01*
X261057Y437509D01*
X260201Y438991D01*
X258991Y440201D01*
X257509Y441057D01*
X257500Y441059D01*
D02*
G37*
G36*
X252500D02*
X252491Y441057D01*
X251009Y440201D01*
X249799Y438991D01*
X248943Y437509D01*
X248941Y437500D01*
X252500D01*
Y441059D01*
D02*
G37*
G36*
X75755Y443500D02*
X74363D01*
X73076Y442967D01*
X72091Y441983D01*
X71559Y440696D01*
Y439304D01*
X72091Y438017D01*
X73076Y437033D01*
X74363Y436500D01*
X75755D01*
X77041Y437033D01*
X78026Y438017D01*
X78559Y439304D01*
Y440696D01*
X78026Y441983D01*
X77041Y442967D01*
X75755Y443500D01*
D02*
G37*
G36*
X55344Y447750D02*
X53156D01*
X51135Y446913D01*
X49587Y445365D01*
X48750Y443344D01*
Y441156D01*
X49587Y439134D01*
X51135Y437587D01*
X53156Y436750D01*
X55344D01*
X57365Y437587D01*
X58913Y439134D01*
X59437Y440401D01*
X59479Y440501D01*
X60749Y440248D01*
X60749Y440110D01*
Y439304D01*
X61282Y438017D01*
X62266Y437033D01*
X63552Y436500D01*
X64945D01*
X66231Y437033D01*
X67216Y438017D01*
X67749Y439304D01*
Y440696D01*
X67216Y441983D01*
X66231Y442967D01*
X64945Y443500D01*
X63552D01*
X62266Y442967D01*
X61282Y441983D01*
X61061Y441451D01*
X61020Y441351D01*
X59750Y441604D01*
X59750Y441742D01*
Y443344D01*
X58913Y445365D01*
X57365Y446913D01*
X55344Y447750D01*
D02*
G37*
G36*
X261059Y432500D02*
X257500D01*
Y428941D01*
X257509Y428943D01*
X258991Y429799D01*
X260201Y431009D01*
X261057Y432491D01*
X261059Y432500D01*
D02*
G37*
G36*
X252500D02*
X248941D01*
X248943Y432491D01*
X249799Y431009D01*
X251009Y429799D01*
X252491Y428943D01*
X252500Y428941D01*
Y432500D01*
D02*
G37*
G36*
X170696Y433500D02*
X169304D01*
X168017Y432967D01*
X167033Y431983D01*
X166500Y430696D01*
Y429304D01*
X167033Y428017D01*
X168017Y427033D01*
X169304Y426500D01*
X170696D01*
X171983Y427033D01*
X172967Y428017D01*
X173500Y429304D01*
Y430696D01*
X172967Y431983D01*
X171983Y432967D01*
X170696Y433500D01*
D02*
G37*
G36*
X202500Y426059D02*
Y422500D01*
X206059D01*
X206057Y422509D01*
X205201Y423991D01*
X203991Y425201D01*
X202509Y426057D01*
X202500Y426059D01*
D02*
G37*
G36*
X197500D02*
X197491Y426057D01*
X196009Y425201D01*
X194799Y423991D01*
X193943Y422509D01*
X193941Y422500D01*
X197500D01*
Y426059D01*
D02*
G37*
G36*
X250696Y423500D02*
X249304D01*
X248017Y422967D01*
X247033Y421983D01*
X246500Y420696D01*
Y419304D01*
X247033Y418017D01*
X248017Y417033D01*
X249304Y416500D01*
X250696D01*
X251983Y417033D01*
X252967Y418017D01*
X253500Y419304D01*
Y420696D01*
X252967Y421983D01*
X251983Y422967D01*
X250696Y423500D01*
D02*
G37*
G36*
X206059Y417500D02*
X202500D01*
Y413941D01*
X202509Y413943D01*
X203991Y414799D01*
X205201Y416009D01*
X206057Y417491D01*
X206059Y417500D01*
D02*
G37*
G36*
X197500D02*
X193941D01*
X193943Y417491D01*
X194799Y416009D01*
X196009Y414799D01*
X197491Y413943D01*
X197500Y413941D01*
Y417500D01*
D02*
G37*
G36*
X420696Y408500D02*
X419304D01*
X418017Y407967D01*
X417033Y406983D01*
X416500Y405696D01*
Y404304D01*
X417033Y403017D01*
X418017Y402033D01*
X419304Y401500D01*
X420696D01*
X421983Y402033D01*
X422967Y403017D01*
X423500Y404304D01*
Y405696D01*
X422967Y406983D01*
X421983Y407967D01*
X420696Y408500D01*
D02*
G37*
G36*
X90446D02*
X89054D01*
X87767Y407967D01*
X86783Y406983D01*
X86250Y405696D01*
Y404304D01*
X86783Y403017D01*
X87767Y402033D01*
X89054Y401500D01*
X90446D01*
X91733Y402033D01*
X92717Y403017D01*
X93250Y404304D01*
Y405696D01*
X92717Y406983D01*
X91733Y407967D01*
X90446Y408500D01*
D02*
G37*
G36*
X380696Y403500D02*
X379304D01*
X378017Y402967D01*
X377033Y401983D01*
X376500Y400696D01*
Y399304D01*
X377033Y398017D01*
X378017Y397033D01*
X379304Y396500D01*
X380696D01*
X381983Y397033D01*
X382967Y398017D01*
X383500Y399304D01*
Y400696D01*
X382967Y401983D01*
X381983Y402967D01*
X380696Y403500D01*
D02*
G37*
G36*
X345696D02*
X344304D01*
X343017Y402967D01*
X342033Y401983D01*
X341500Y400696D01*
Y399304D01*
X342033Y398017D01*
X343017Y397033D01*
X344304Y396500D01*
X345696D01*
X346983Y397033D01*
X347967Y398017D01*
X348500Y399304D01*
Y400696D01*
X347967Y401983D01*
X346983Y402967D01*
X345696Y403500D01*
D02*
G37*
G36*
X330696D02*
X329304D01*
X328017Y402967D01*
X327033Y401983D01*
X326500Y400696D01*
Y399304D01*
X327033Y398017D01*
X328017Y397033D01*
X329304Y396500D01*
X330696D01*
X331983Y397033D01*
X332967Y398017D01*
X333500Y399304D01*
Y400696D01*
X332967Y401983D01*
X331983Y402967D01*
X330696Y403500D01*
D02*
G37*
G36*
X320696D02*
X319304D01*
X318017Y402967D01*
X317033Y401983D01*
X316500Y400696D01*
Y399304D01*
X317033Y398017D01*
X318017Y397033D01*
X319304Y396500D01*
X320696D01*
X321983Y397033D01*
X322967Y398017D01*
X323500Y399304D01*
Y400696D01*
X322967Y401983D01*
X321983Y402967D01*
X320696Y403500D01*
D02*
G37*
G36*
X565696Y398500D02*
X564304D01*
X563017Y397967D01*
X562033Y396983D01*
X561500Y395696D01*
Y394304D01*
X562033Y393017D01*
X563017Y392033D01*
X564304Y391500D01*
X565696D01*
X566983Y392033D01*
X567967Y393017D01*
X568500Y394304D01*
Y395696D01*
X567967Y396983D01*
X566983Y397967D01*
X565696Y398500D01*
D02*
G37*
G36*
X47500Y391059D02*
Y387500D01*
X51059D01*
X51057Y387509D01*
X50201Y388991D01*
X48991Y390201D01*
X47509Y391057D01*
X47500Y391059D01*
D02*
G37*
G36*
X42500D02*
X42491Y391057D01*
X41009Y390201D01*
X39799Y388991D01*
X38943Y387509D01*
X38941Y387500D01*
X42500D01*
Y391059D01*
D02*
G37*
G36*
X115696Y388500D02*
X114304D01*
X113017Y387967D01*
X112033Y386983D01*
X111500Y385696D01*
Y384304D01*
X112033Y383017D01*
X113017Y382033D01*
X114304Y381500D01*
X115696D01*
X116983Y382033D01*
X117967Y383017D01*
X118500Y384304D01*
Y385696D01*
X117967Y386983D01*
X116983Y387967D01*
X115696Y388500D01*
D02*
G37*
G36*
X51059Y382500D02*
X47500D01*
Y378941D01*
X47509Y378943D01*
X48991Y379799D01*
X50201Y381009D01*
X51057Y382491D01*
X51059Y382500D01*
D02*
G37*
G36*
X42500D02*
X38941D01*
X38943Y382491D01*
X39799Y381009D01*
X41009Y379799D01*
X42491Y378943D01*
X42500Y378941D01*
Y382500D01*
D02*
G37*
G36*
X23369Y394750D02*
X21131D01*
X18969Y394171D01*
X17031Y393052D01*
X15448Y391469D01*
X14329Y389531D01*
X13750Y387369D01*
Y385131D01*
X14329Y382969D01*
X15448Y381031D01*
X17031Y379448D01*
X18969Y378329D01*
X21131Y377750D01*
X23369D01*
X25531Y378329D01*
X27469Y379448D01*
X29052Y381031D01*
X30171Y382969D01*
X30750Y385131D01*
Y387369D01*
X30171Y389531D01*
X29052Y391469D01*
X27469Y393052D01*
X25531Y394171D01*
X23369Y394750D01*
D02*
G37*
G36*
X527834Y380956D02*
X526442D01*
X525156Y380423D01*
X524171Y379439D01*
X523638Y378152D01*
Y376760D01*
X524171Y375473D01*
X525156Y374489D01*
X526442Y373956D01*
X527834D01*
X529121Y374489D01*
X530105Y375473D01*
X530638Y376760D01*
Y378152D01*
X530105Y379439D01*
X529121Y380423D01*
X527834Y380956D01*
D02*
G37*
G36*
X577332Y376573D02*
X575939D01*
X574653Y376041D01*
X573668Y375056D01*
X573135Y373770D01*
Y372377D01*
X573668Y371091D01*
X574653Y370106D01*
X575939Y369574D01*
X577332D01*
X578618Y370106D01*
X579603Y371091D01*
X580135Y372377D01*
Y373770D01*
X579603Y375056D01*
X578618Y376041D01*
X577332Y376573D01*
D02*
G37*
G36*
X587233Y376177D02*
X585841D01*
X584554Y375645D01*
X583570Y374660D01*
X583037Y373374D01*
Y371981D01*
X583570Y370695D01*
X584554Y369710D01*
X585841Y369178D01*
X587233D01*
X588519Y369710D01*
X589504Y370695D01*
X590037Y371981D01*
Y373374D01*
X589504Y374660D01*
X588519Y375645D01*
X587233Y376177D01*
D02*
G37*
G36*
X506231Y379194D02*
Y373135D01*
Y367075D01*
X506240Y367078D01*
X507722Y367934D01*
X508932Y369144D01*
X509619Y370335D01*
X510592D01*
X511878Y370868D01*
X512863Y371852D01*
X513396Y373139D01*
Y374531D01*
X512863Y375817D01*
X511878Y376802D01*
X510592Y377335D01*
X509199D01*
X508863Y377195D01*
X507722Y378336D01*
X506240Y379192D01*
X506231Y379194D01*
D02*
G37*
G36*
X275696Y466000D02*
X274304D01*
X273017Y465467D01*
X272033Y464483D01*
X271500Y463196D01*
Y461804D01*
X271041Y461118D01*
X225000D01*
X222659Y460652D01*
X220674Y459326D01*
X210853Y449505D01*
X209527Y447520D01*
X209061Y445179D01*
X209527Y442838D01*
X210853Y440853D01*
X212838Y439527D01*
X215179Y439061D01*
X217520Y439527D01*
X219505Y440853D01*
X227534Y448882D01*
X291416D01*
X324624Y415674D01*
X326609Y414348D01*
X328950Y413882D01*
X426432D01*
Y391225D01*
X426898Y388884D01*
X428224Y386899D01*
X433882Y381241D01*
Y365599D01*
X432612Y365347D01*
X432436Y365773D01*
X431451Y366757D01*
X430165Y367290D01*
X428773D01*
X427486Y366757D01*
X426502Y365773D01*
X425969Y364486D01*
Y363094D01*
X426502Y361808D01*
X427486Y360823D01*
X428773Y360290D01*
X430165D01*
X431451Y360823D01*
X432436Y361808D01*
X432612Y362234D01*
X433882Y361981D01*
Y324251D01*
X432612Y323403D01*
X432361Y323507D01*
X430969D01*
X429683Y322974D01*
X428698Y321989D01*
X428165Y320703D01*
X427525Y320177D01*
X426665Y320349D01*
X382747D01*
X369386Y333709D01*
Y335739D01*
X369083Y337262D01*
X368220Y338554D01*
X311370Y395404D01*
X311668Y396903D01*
X311983Y397033D01*
X312967Y398017D01*
X313500Y399304D01*
Y400696D01*
X312967Y401983D01*
X311983Y402967D01*
X310696Y403500D01*
X309304D01*
X308017Y402967D01*
X307033Y401983D01*
X306415Y401860D01*
X300054Y408220D01*
X298762Y409083D01*
X297239Y409386D01*
X167761D01*
X166238Y409083D01*
X164946Y408220D01*
X131780Y375054D01*
X130917Y373763D01*
X130613Y372239D01*
Y360988D01*
X112250D01*
X110726Y360685D01*
X109434Y359822D01*
X88215Y338602D01*
X87352Y337310D01*
X87049Y335787D01*
Y281741D01*
X87352Y280217D01*
X88215Y278926D01*
X94166Y272974D01*
X95458Y272111D01*
X96982Y271808D01*
X101119D01*
X102403Y270524D01*
Y233616D01*
X102706Y232092D01*
X103569Y230801D01*
X107185Y227185D01*
X108476Y226322D01*
X110000Y226019D01*
X111524Y226322D01*
X112815Y227185D01*
X113678Y228476D01*
X113982Y230000D01*
X113678Y231524D01*
X112815Y232815D01*
X110366Y235265D01*
Y248724D01*
X111636Y248976D01*
X112033Y248017D01*
X113017Y247033D01*
X114304Y246500D01*
X115696D01*
X116983Y247033D01*
X117967Y248017D01*
X118500Y249304D01*
Y250696D01*
X117967Y251983D01*
X116983Y252967D01*
X115696Y253500D01*
X114304D01*
X113017Y252967D01*
X112033Y251983D01*
X111636Y251024D01*
X110366Y251276D01*
Y272174D01*
X110063Y273697D01*
X109199Y274989D01*
X106068Y278120D01*
X105728Y278965D01*
X106068Y279809D01*
X107815Y281556D01*
X108678Y282848D01*
X108982Y284371D01*
Y330000D01*
X108678Y331524D01*
X107815Y332815D01*
X106524Y333678D01*
X105527Y333877D01*
X105040Y335186D01*
X116529Y346675D01*
X140051D01*
X144946Y341780D01*
X145426Y341459D01*
X145609Y339845D01*
X144332Y338569D01*
X136478D01*
X132523Y342523D01*
X132231Y342719D01*
X131983Y342967D01*
X131658Y343102D01*
X131366Y343297D01*
X131021Y343366D01*
X130696Y343500D01*
X130345D01*
X130000Y343569D01*
X129655Y343500D01*
X129304D01*
X128979Y343366D01*
X128634Y343297D01*
X128342Y343102D01*
X128017Y342967D01*
X127769Y342719D01*
X127477Y342523D01*
X127281Y342231D01*
X127033Y341983D01*
X126898Y341658D01*
X126703Y341366D01*
X126635Y341021D01*
X126500Y340696D01*
Y340345D01*
X126431Y340000D01*
X126500Y339655D01*
Y339304D01*
X126635Y338979D01*
X126703Y338634D01*
X126898Y338342D01*
X127033Y338017D01*
X127281Y337769D01*
X127477Y337477D01*
X132477Y332477D01*
X133634Y331703D01*
X135000Y331431D01*
X145810D01*
X147176Y331703D01*
X148333Y332477D01*
X151478Y335621D01*
X189478D01*
X190843Y335893D01*
X192001Y336667D01*
X201766Y346431D01*
X203500D01*
X204866Y346703D01*
X206023Y347477D01*
X222292Y363745D01*
X223709Y363366D01*
X223943Y362491D01*
X224799Y361009D01*
X226009Y359799D01*
X227491Y358943D01*
X227500Y358941D01*
Y365000D01*
X230000D01*
Y367500D01*
X236059D01*
X236057Y367509D01*
X235201Y368991D01*
X233991Y370201D01*
X232509Y371057D01*
X231634Y371291D01*
X231255Y372708D01*
X240076Y381529D01*
X241291Y381160D01*
X241401Y380606D01*
X242728Y378621D01*
X248017Y373331D01*
X250002Y372005D01*
X252343Y371539D01*
X270123D01*
X273883Y367780D01*
Y363959D01*
X273196Y363500D01*
X271804D01*
X270517Y362967D01*
X269533Y361983D01*
X269000Y360696D01*
Y359304D01*
X269533Y358017D01*
X270517Y357033D01*
X271804Y356500D01*
X273196D01*
X273883Y356041D01*
Y352839D01*
X272612Y352337D01*
X271983Y352967D01*
X270696Y353500D01*
X269304D01*
X268017Y352967D01*
X267033Y351983D01*
X266500Y350696D01*
Y349304D01*
X266941Y348239D01*
Y312023D01*
X265768Y311537D01*
X233605Y343700D01*
Y343840D01*
X233072Y345126D01*
X232376Y345821D01*
X232160Y346487D01*
X232333Y347383D01*
X232967Y348017D01*
X233500Y349304D01*
Y350696D01*
X232967Y351983D01*
X231983Y352967D01*
X230696Y353500D01*
X229304D01*
X228017Y352967D01*
X227033Y351983D01*
X226500Y350696D01*
Y349304D01*
X227033Y348017D01*
X227728Y347322D01*
X227945Y346656D01*
X227772Y345760D01*
X227138Y345126D01*
X226605Y343840D01*
Y342447D01*
X226894Y341750D01*
X226166Y340491D01*
X226150Y340480D01*
X225783D01*
X224496Y339947D01*
X223512Y338962D01*
X222979Y337676D01*
Y336283D01*
X223512Y334997D01*
X224496Y334012D01*
X225783Y333480D01*
X225924D01*
X227464Y331939D01*
X227038Y331513D01*
X226505Y330227D01*
Y328835D01*
X227038Y327548D01*
X228023Y326564D01*
X229309Y326031D01*
X230702D01*
X231988Y326564D01*
X232973Y327548D01*
X233851Y327723D01*
X262080Y299494D01*
Y298319D01*
X262080Y298319D01*
X262313Y297149D01*
X262976Y296157D01*
X267441Y291691D01*
Y289152D01*
X266171Y288303D01*
X265696Y288500D01*
X264304D01*
X263017Y287967D01*
X262033Y286983D01*
X261500Y285696D01*
Y284304D01*
X261578Y284115D01*
X260873Y283059D01*
X238288D01*
X234184Y287163D01*
X233948Y287320D01*
X233196Y287855D01*
X233407Y289078D01*
X233500Y289304D01*
Y290696D01*
X232967Y291983D01*
X231983Y292967D01*
X230696Y293500D01*
X229304D01*
X228017Y292967D01*
X227033Y291983D01*
X226500Y290696D01*
Y289304D01*
X226578Y289115D01*
X225873Y288059D01*
X186761D01*
X185696Y288500D01*
X184304D01*
X183017Y287967D01*
X182033Y286983D01*
X181500Y285696D01*
Y284304D01*
X182033Y283017D01*
X183017Y282033D01*
X184304Y281500D01*
X185696D01*
X186761Y281941D01*
X224456D01*
X224981Y280671D01*
X207369Y263059D01*
X186761D01*
X185696Y263500D01*
X184304D01*
X183017Y262967D01*
X182033Y261983D01*
X181500Y260696D01*
Y259304D01*
X182033Y258017D01*
X183017Y257033D01*
X184304Y256500D01*
X185696D01*
X186761Y256941D01*
X208636D01*
X208636Y256941D01*
X209807Y257174D01*
X210799Y257837D01*
X225826Y272864D01*
X227404Y272646D01*
X228017Y272033D01*
X229304Y271500D01*
X230696D01*
X231983Y272033D01*
X232607Y272657D01*
X233330Y272174D01*
X234500Y271941D01*
X257677D01*
X257941Y271612D01*
X258268Y270736D01*
X257715Y270183D01*
X257182Y268896D01*
Y267504D01*
X257715Y266217D01*
X258699Y265233D01*
X259986Y264700D01*
X261378D01*
X262665Y265233D01*
X263649Y266217D01*
X264182Y267504D01*
Y268896D01*
X263649Y270183D01*
X262665Y271167D01*
X261378Y271700D01*
X261448Y272941D01*
X264233D01*
X267524Y269650D01*
X268516Y268987D01*
X269687Y268754D01*
X271600D01*
X271699Y268655D01*
X272694Y268243D01*
X273196Y266949D01*
X270110Y263862D01*
X267824D01*
X267824Y263862D01*
X266654Y263629D01*
X265661Y262966D01*
X256965Y254270D01*
X256302Y253278D01*
X256069Y252107D01*
X256069Y252107D01*
Y219508D01*
X256069Y219508D01*
X256302Y218338D01*
X256937Y217388D01*
X256829Y216831D01*
X256533Y216118D01*
X235434D01*
X234975Y216804D01*
Y218196D01*
X234442Y219483D01*
X233805Y220120D01*
X233582Y220909D01*
X233805Y221698D01*
X234442Y222335D01*
X234975Y223622D01*
Y225014D01*
X234887Y225227D01*
X235196Y226497D01*
X236483Y227030D01*
X237467Y228015D01*
X238000Y229301D01*
Y230693D01*
X237467Y231980D01*
X236483Y232964D01*
X235196Y233497D01*
X233804D01*
X232517Y232964D01*
X231533Y231980D01*
X231000Y230693D01*
Y229301D01*
X231088Y229088D01*
X230779Y227818D01*
X229492Y227285D01*
X228508Y226301D01*
X227975Y225014D01*
Y223622D01*
X228508Y222335D01*
X229145Y221698D01*
X229368Y220909D01*
X229145Y220120D01*
X228508Y219483D01*
X227975Y218196D01*
Y216804D01*
X227409Y215744D01*
X226945Y215652D01*
X224960Y214326D01*
X217817Y207183D01*
X216491Y205198D01*
X216026Y202857D01*
Y188959D01*
X215339Y188500D01*
X213947D01*
X212660Y187967D01*
X211676Y186983D01*
X211143Y185696D01*
Y184304D01*
X211676Y183017D01*
X212660Y182033D01*
X213947Y181500D01*
X215339D01*
X216232Y180495D01*
X216491Y179195D01*
X217817Y177211D01*
X283854Y111174D01*
X285838Y109848D01*
X288179Y109382D01*
X356359D01*
X377068Y88674D01*
X379052Y87348D01*
X381393Y86882D01*
X422900D01*
X425241Y87348D01*
X427079Y88576D01*
X427324Y88662D01*
X428824Y88477D01*
X429509Y87793D01*
X430991Y86937D01*
X431000Y86934D01*
Y92448D01*
X431546Y92994D01*
X433500D01*
Y94948D01*
X434046Y95494D01*
X439559D01*
X439557Y95503D01*
X438701Y96985D01*
X437491Y98195D01*
X437404Y98854D01*
X456104Y117553D01*
X457699Y117352D01*
X458270Y116780D01*
X459557Y116247D01*
X460949D01*
X462236Y116780D01*
X463220Y117764D01*
X463753Y119051D01*
Y120443D01*
X463220Y121730D01*
X462514Y122436D01*
X462447Y123896D01*
X501104Y162553D01*
X502699Y162352D01*
X503270Y161780D01*
X504557Y161247D01*
X505949D01*
X507236Y161780D01*
X508220Y162764D01*
X508753Y164051D01*
Y165443D01*
X508220Y166730D01*
X507514Y167436D01*
X507447Y168896D01*
X528583Y190032D01*
X529909Y192017D01*
X530375Y194358D01*
Y202642D01*
X529909Y204983D01*
X528583Y206968D01*
X517556Y217995D01*
X515571Y219321D01*
X513643Y219705D01*
X509322Y224027D01*
X509483Y224836D01*
X510467Y225821D01*
X511000Y227107D01*
Y228500D01*
X510467Y229786D01*
X509483Y230770D01*
X508196Y231303D01*
X506804D01*
X506118Y231762D01*
Y255000D01*
X505652Y257341D01*
X504326Y259326D01*
X502341Y260652D01*
X501363Y260846D01*
X500098Y262112D01*
Y366457D01*
X500766Y366842D01*
X501231Y366994D01*
Y373135D01*
Y379276D01*
X500766Y379427D01*
X500098Y379813D01*
Y393830D01*
X536942Y430674D01*
X538269Y432659D01*
X538734Y435000D01*
X538269Y437341D01*
X536942Y439326D01*
X534958Y440652D01*
X532617Y441118D01*
X407839D01*
X407337Y442388D01*
X407967Y443017D01*
X408500Y444304D01*
Y445696D01*
X407967Y446983D01*
X406983Y447967D01*
X405696Y448500D01*
X404304D01*
X403017Y447967D01*
X402033Y446983D01*
X401500Y445696D01*
Y444304D01*
X402033Y443017D01*
X402663Y442388D01*
X402161Y441118D01*
X382839D01*
X382337Y442388D01*
X382967Y443017D01*
X383500Y444304D01*
Y445696D01*
X382967Y446983D01*
X381983Y447967D01*
X380696Y448500D01*
X379304D01*
X378017Y447967D01*
X377033Y446983D01*
X376500Y445696D01*
Y444304D01*
X377033Y443017D01*
X377663Y442388D01*
X377161Y441118D01*
X367534D01*
X364326Y444326D01*
X362341Y445652D01*
X360000Y446118D01*
X357659Y445652D01*
X355674Y444326D01*
X354348Y442341D01*
X353882Y440000D01*
X354348Y437659D01*
X355674Y435674D01*
X360674Y430674D01*
X362659Y429348D01*
X365000Y428882D01*
X426122D01*
X426608Y427709D01*
X425016Y426118D01*
X331484D01*
X298276Y459326D01*
X296291Y460652D01*
X293950Y461118D01*
X278959D01*
X278500Y461804D01*
Y463196D01*
X277967Y464483D01*
X276983Y465467D01*
X275696Y466000D01*
D02*
G37*
G36*
X554228Y370369D02*
X552836D01*
X551549Y369836D01*
X550565Y368851D01*
X550032Y367565D01*
Y366172D01*
X550565Y364886D01*
X551549Y363901D01*
X552836Y363369D01*
X554228D01*
X555515Y363901D01*
X556499Y364886D01*
X557032Y366172D01*
Y367565D01*
X556499Y368851D01*
X555515Y369836D01*
X554228Y370369D01*
D02*
G37*
G36*
X419765Y369431D02*
X418373D01*
X417087Y368898D01*
X416102Y367913D01*
X415569Y366627D01*
Y365235D01*
X416102Y363948D01*
X417087Y362964D01*
X418373Y362431D01*
X419765D01*
X421052Y362964D01*
X422036Y363948D01*
X422569Y365235D01*
Y366627D01*
X422036Y367913D01*
X421052Y368898D01*
X419765Y369431D01*
D02*
G37*
G36*
X540696Y368500D02*
X539304D01*
X538017Y367967D01*
X537033Y366983D01*
X536500Y365696D01*
Y364304D01*
X537033Y363017D01*
X538017Y362033D01*
X539304Y361500D01*
X540696D01*
X541983Y362033D01*
X542967Y363017D01*
X543500Y364304D01*
Y365696D01*
X542967Y366983D01*
X541983Y367967D01*
X540696Y368500D01*
D02*
G37*
G36*
X40696D02*
X39304D01*
X38017Y367967D01*
X37033Y366983D01*
X36500Y365696D01*
Y364304D01*
X37033Y363017D01*
X38017Y362033D01*
X39304Y361500D01*
X40696D01*
X41983Y362033D01*
X42967Y363017D01*
X43500Y364304D01*
Y365696D01*
X42967Y366983D01*
X41983Y367967D01*
X40696Y368500D01*
D02*
G37*
G36*
X408397Y368493D02*
X407005D01*
X405718Y367960D01*
X404734Y366975D01*
X404201Y365689D01*
Y364297D01*
X404734Y363010D01*
X405718Y362026D01*
X407005Y361493D01*
X408397D01*
X409683Y362026D01*
X410668Y363010D01*
X411201Y364297D01*
Y365689D01*
X410668Y366975D01*
X409683Y367960D01*
X408397Y368493D01*
D02*
G37*
G36*
X398197D02*
X396805D01*
X395518Y367960D01*
X394534Y366975D01*
X394001Y365689D01*
Y364297D01*
X394534Y363010D01*
X395518Y362026D01*
X396805Y361493D01*
X398197D01*
X399484Y362026D01*
X400468Y363010D01*
X401001Y364297D01*
Y365689D01*
X400468Y366975D01*
X399484Y367960D01*
X398197Y368493D01*
D02*
G37*
G36*
X236059Y362500D02*
X232500D01*
Y358941D01*
X232509Y358943D01*
X233991Y359799D01*
X235201Y361009D01*
X236057Y362491D01*
X236059Y362500D01*
D02*
G37*
G36*
X40696Y358500D02*
X39304D01*
X38017Y357967D01*
X37033Y356983D01*
X36500Y355696D01*
Y354304D01*
X37033Y353017D01*
X38017Y352033D01*
X39304Y351500D01*
X40696D01*
X41983Y352033D01*
X42967Y353017D01*
X43500Y354304D01*
Y355696D01*
X42967Y356983D01*
X41983Y357967D01*
X40696Y358500D01*
D02*
G37*
G36*
X427500Y341059D02*
Y337500D01*
X431059D01*
X431057Y337509D01*
X430201Y338991D01*
X428991Y340201D01*
X427509Y341057D01*
X427500Y341059D01*
D02*
G37*
G36*
X422500D02*
X422491Y341057D01*
X421009Y340201D01*
X419799Y338991D01*
X418943Y337509D01*
X418941Y337500D01*
X422500D01*
Y341059D01*
D02*
G37*
G36*
X65696Y338500D02*
X64304D01*
X63017Y337967D01*
X62033Y336983D01*
X61500Y335696D01*
Y334304D01*
X62033Y333017D01*
X63017Y332033D01*
X64304Y331500D01*
X65696D01*
X66983Y332033D01*
X67967Y333017D01*
X68500Y334304D01*
Y335696D01*
X67967Y336983D01*
X66983Y337967D01*
X65696Y338500D01*
D02*
G37*
G36*
X431059Y332500D02*
X427500D01*
Y328941D01*
X427509Y328943D01*
X428991Y329799D01*
X430201Y331009D01*
X431057Y332491D01*
X431059Y332500D01*
D02*
G37*
G36*
X415696Y333500D02*
X414304D01*
X413017Y332967D01*
X412033Y331983D01*
X411500Y330696D01*
Y329304D01*
X412033Y328017D01*
X413017Y327033D01*
X414304Y326500D01*
X415696D01*
X416983Y327033D01*
X417967Y328017D01*
X418500Y329304D01*
Y330696D01*
X418467Y330774D01*
X419609Y331337D01*
X419799Y331009D01*
X421009Y329799D01*
X422491Y328943D01*
X422500Y328941D01*
Y332500D01*
X418107D01*
X417690Y332260D01*
X416983Y332967D01*
X415696Y333500D01*
D02*
G37*
G36*
X179518Y329678D02*
X178126D01*
X176839Y329145D01*
X175855Y328161D01*
X175322Y326874D01*
Y325482D01*
X175855Y324196D01*
X176839Y323211D01*
X178126Y322678D01*
X179518D01*
X180805Y323211D01*
X181789Y324196D01*
X182322Y325482D01*
Y326874D01*
X181789Y328161D01*
X180805Y329145D01*
X179518Y329678D01*
D02*
G37*
G36*
X575291Y328500D02*
X573899D01*
X572612Y327967D01*
X571628Y326983D01*
X571095Y325696D01*
Y324304D01*
X571628Y323017D01*
X572612Y322033D01*
X573899Y321500D01*
X575291D01*
X576578Y322033D01*
X577562Y323017D01*
X578095Y324304D01*
Y325696D01*
X577562Y326983D01*
X576578Y327967D01*
X575291Y328500D01*
D02*
G37*
G36*
X230696Y323500D02*
X229304D01*
X228017Y322967D01*
X227033Y321983D01*
X226500Y320696D01*
Y319304D01*
X227033Y318017D01*
X228017Y317033D01*
X229304Y316500D01*
X230696D01*
X231983Y317033D01*
X232967Y318017D01*
X233500Y319304D01*
Y320696D01*
X232967Y321983D01*
X231983Y322967D01*
X230696Y323500D01*
D02*
G37*
G36*
X23369Y332250D02*
X21131D01*
X18969Y331671D01*
X17031Y330552D01*
X15448Y328969D01*
X14329Y327031D01*
X13750Y324869D01*
Y322631D01*
X14329Y320469D01*
X15448Y318531D01*
X17031Y316948D01*
X18969Y315829D01*
X21131Y315250D01*
X23369D01*
X25531Y315829D01*
X27469Y316948D01*
X29052Y318531D01*
X30171Y320469D01*
X30750Y322631D01*
Y324869D01*
X30171Y327031D01*
X29052Y328969D01*
X27469Y330552D01*
X25531Y331671D01*
X23369Y332250D01*
D02*
G37*
G36*
X565696Y318500D02*
X564304D01*
X563017Y317967D01*
X562033Y316983D01*
X561500Y315696D01*
Y314304D01*
X562033Y313017D01*
X563017Y312033D01*
X564304Y311500D01*
X565696D01*
X566983Y312033D01*
X567967Y313017D01*
X568500Y314304D01*
Y315696D01*
X567967Y316983D01*
X566983Y317967D01*
X565696Y318500D01*
D02*
G37*
G36*
X540696Y313500D02*
X539304D01*
X538017Y312967D01*
X537033Y311983D01*
X536500Y310696D01*
Y309304D01*
X537033Y308017D01*
X538017Y307033D01*
X539304Y306500D01*
X540696D01*
X541983Y307033D01*
X542967Y308017D01*
X543500Y309304D01*
Y310696D01*
X542967Y311983D01*
X541983Y312967D01*
X540696Y313500D01*
D02*
G37*
G36*
X230696D02*
X229304D01*
X228017Y312967D01*
X227033Y311983D01*
X226500Y310696D01*
Y309304D01*
X227033Y308017D01*
X228017Y307033D01*
X229304Y306500D01*
X230696D01*
X231983Y307033D01*
X232967Y308017D01*
X233500Y309304D01*
Y310696D01*
X232967Y311983D01*
X231983Y312967D01*
X230696Y313500D01*
D02*
G37*
G36*
X587046Y303500D02*
X585654D01*
X584367Y302967D01*
X583383Y301983D01*
X582850Y300696D01*
Y299304D01*
X583383Y298017D01*
X584367Y297033D01*
X585654Y296500D01*
X587046D01*
X588333Y297033D01*
X589317Y298017D01*
X589850Y299304D01*
Y300696D01*
X589317Y301983D01*
X588333Y302967D01*
X587046Y303500D01*
D02*
G37*
G36*
X230696D02*
X229304D01*
X228017Y302967D01*
X227033Y301983D01*
X226500Y300696D01*
Y299304D01*
X227033Y298017D01*
X228017Y297033D01*
X229304Y296500D01*
X230696D01*
X231983Y297033D01*
X232967Y298017D01*
X233500Y299304D01*
Y300696D01*
X232967Y301983D01*
X231983Y302967D01*
X230696Y303500D01*
D02*
G37*
G36*
X140696D02*
X139304D01*
X138017Y302967D01*
X137033Y301983D01*
X136500Y300696D01*
Y299304D01*
X137033Y298017D01*
X138017Y297033D01*
X139304Y296500D01*
X140696D01*
X141983Y297033D01*
X142967Y298017D01*
X143500Y299304D01*
Y300696D01*
X142967Y301983D01*
X141983Y302967D01*
X140696Y303500D01*
D02*
G37*
G36*
X29000Y305078D02*
X27500D01*
Y294500D01*
X38078D01*
Y296000D01*
X37768Y298349D01*
X36861Y300539D01*
X35419Y302419D01*
X33539Y303861D01*
X31349Y304768D01*
X29000Y305078D01*
D02*
G37*
G36*
X22500D02*
X21000D01*
X18650Y304768D01*
X16461Y303861D01*
X14581Y302419D01*
X13139Y300539D01*
X12232Y298349D01*
X11922Y296000D01*
Y294500D01*
X22500D01*
Y305078D01*
D02*
G37*
G36*
X38078Y289500D02*
X27500D01*
Y278922D01*
X29000D01*
X31349Y279232D01*
X33539Y280139D01*
X35419Y281581D01*
X36861Y283461D01*
X37768Y285651D01*
X38078Y288000D01*
Y289500D01*
D02*
G37*
G36*
X22500D02*
X11922D01*
Y288000D01*
X12232Y285651D01*
X13139Y283461D01*
X14581Y281581D01*
X16461Y280139D01*
X18650Y279232D01*
X21000Y278922D01*
X22500D01*
Y289500D01*
D02*
G37*
G36*
X560696Y283500D02*
X559304D01*
X558017Y282967D01*
X557033Y281983D01*
X556500Y280696D01*
Y279304D01*
X557033Y278017D01*
X558017Y277033D01*
X559304Y276500D01*
X560696D01*
X561983Y277033D01*
X562967Y278017D01*
X563500Y279304D01*
Y280696D01*
X562967Y281983D01*
X561983Y282967D01*
X560696Y283500D01*
D02*
G37*
G36*
X230696Y268500D02*
X229304D01*
X228017Y267967D01*
X227033Y266983D01*
X226500Y265696D01*
Y264304D01*
X227033Y263017D01*
X228017Y262033D01*
X229304Y261500D01*
X230696D01*
X231983Y262033D01*
X232967Y263017D01*
X233500Y264304D01*
Y265696D01*
X232967Y266983D01*
X231983Y267967D01*
X230696Y268500D01*
D02*
G37*
G36*
X26316Y276600D02*
X23684D01*
X21140Y275919D01*
X18860Y274602D01*
X16998Y272740D01*
X15682Y270460D01*
X15000Y267917D01*
Y265284D01*
X15682Y262740D01*
X16998Y260460D01*
X18860Y258598D01*
X21140Y257281D01*
X23684Y256600D01*
X26316D01*
X28860Y257281D01*
X31140Y258598D01*
X33002Y260460D01*
X34318Y262740D01*
X35000Y265284D01*
Y267917D01*
X34318Y270460D01*
X33002Y272740D01*
X31140Y274602D01*
X28860Y275919D01*
X26316Y276600D01*
D02*
G37*
G36*
X125696Y263500D02*
X124304D01*
X123017Y262967D01*
X122033Y261983D01*
X121500Y260696D01*
Y259304D01*
X122033Y258017D01*
X123017Y257033D01*
X124304Y256500D01*
X125696D01*
X126983Y257033D01*
X127967Y258017D01*
X128500Y259304D01*
Y260696D01*
X127967Y261983D01*
X126983Y262967D01*
X125696Y263500D01*
D02*
G37*
G36*
X580696Y243500D02*
X579304D01*
X578017Y242967D01*
X577033Y241983D01*
X576500Y240696D01*
Y239304D01*
X577033Y238017D01*
X578017Y237033D01*
X579304Y236500D01*
X580696D01*
X581983Y237033D01*
X582967Y238017D01*
X583500Y239304D01*
Y240696D01*
X582967Y241983D01*
X581983Y242967D01*
X580696Y243500D01*
D02*
G37*
G36*
X26316Y251200D02*
X23684D01*
X21140Y250518D01*
X18860Y249202D01*
X16998Y247340D01*
X15682Y245060D01*
X15000Y242516D01*
Y239883D01*
X15682Y237340D01*
X16998Y235060D01*
X18860Y233198D01*
X21140Y231882D01*
X23684Y231200D01*
X26316D01*
X28860Y231882D01*
X31140Y233198D01*
X33002Y235060D01*
X34318Y237340D01*
X35000Y239883D01*
Y242516D01*
X34318Y245060D01*
X33002Y247340D01*
X31140Y249202D01*
X28860Y250518D01*
X26316Y251200D01*
D02*
G37*
G36*
X579886Y233500D02*
X578494D01*
X577207Y232967D01*
X576223Y231983D01*
X575690Y230696D01*
Y229304D01*
X576223Y228017D01*
X577207Y227033D01*
X578494Y226500D01*
X579886D01*
X581173Y227033D01*
X582157Y228017D01*
X582690Y229304D01*
Y230696D01*
X582157Y231983D01*
X581173Y232967D01*
X579886Y233500D01*
D02*
G37*
G36*
X540696D02*
X539304D01*
X538017Y232967D01*
X537033Y231983D01*
X536500Y230696D01*
Y229304D01*
X537033Y228017D01*
X538017Y227033D01*
X539304Y226500D01*
X540696D01*
X541983Y227033D01*
X542967Y228017D01*
X543500Y229304D01*
Y230696D01*
X542967Y231983D01*
X541983Y232967D01*
X540696Y233500D01*
D02*
G37*
G36*
X140696Y213500D02*
X139304D01*
X138017Y212967D01*
X137033Y211983D01*
X136500Y210696D01*
Y209304D01*
X137033Y208017D01*
X138017Y207033D01*
X139304Y206500D01*
X140696D01*
X141983Y207033D01*
X142967Y208017D01*
X143500Y209304D01*
Y210696D01*
X142967Y211983D01*
X141983Y212967D01*
X140696Y213500D01*
D02*
G37*
G36*
X26316Y225800D02*
X23684D01*
X21140Y225119D01*
X18860Y223802D01*
X16998Y221940D01*
X15682Y219660D01*
X15000Y217117D01*
Y214484D01*
X15682Y211940D01*
X16998Y209660D01*
X18860Y207798D01*
X21140Y206481D01*
X23684Y205800D01*
X26316D01*
X28860Y206481D01*
X31140Y207798D01*
X33002Y209660D01*
X34318Y211940D01*
X35000Y214484D01*
Y217117D01*
X34318Y219660D01*
X33002Y221940D01*
X31140Y223802D01*
X28860Y225119D01*
X26316Y225800D01*
D02*
G37*
G36*
X560696Y212000D02*
X559304D01*
X558017Y211467D01*
X557033Y210483D01*
X556500Y209196D01*
Y207804D01*
X557033Y206517D01*
X558017Y205533D01*
X559304Y205000D01*
X560696D01*
X561983Y205533D01*
X562967Y206517D01*
X563500Y207804D01*
Y209196D01*
X562967Y210483D01*
X561983Y211467D01*
X560696Y212000D01*
D02*
G37*
G36*
X77792Y191772D02*
Y188213D01*
X81352D01*
X81349Y188222D01*
X80494Y189704D01*
X79283Y190914D01*
X77801Y191770D01*
X77792Y191772D01*
D02*
G37*
G36*
X72792D02*
X72783Y191770D01*
X71301Y190914D01*
X70091Y189704D01*
X69235Y188222D01*
X69233Y188213D01*
X72792D01*
Y191772D01*
D02*
G37*
G36*
X555696Y188500D02*
X554304D01*
X553017Y187967D01*
X552033Y186983D01*
X551500Y185696D01*
Y184304D01*
X552033Y183017D01*
X553017Y182033D01*
X554304Y181500D01*
X555696D01*
X556983Y182033D01*
X557967Y183017D01*
X558500Y184304D01*
Y185696D01*
X557967Y186983D01*
X556983Y187967D01*
X555696Y188500D01*
D02*
G37*
G36*
X26316Y200400D02*
X23684D01*
X21140Y199718D01*
X18860Y198402D01*
X16998Y196540D01*
X15682Y194260D01*
X15000Y191716D01*
Y189083D01*
X15682Y186540D01*
X16998Y184260D01*
X18860Y182398D01*
X21140Y181082D01*
X23684Y180400D01*
X26316D01*
X28860Y181082D01*
X31140Y182398D01*
X33002Y184260D01*
X34318Y186540D01*
X35000Y189083D01*
Y191716D01*
X34318Y194260D01*
X33002Y196540D01*
X31140Y198402D01*
X28860Y199718D01*
X26316Y200400D01*
D02*
G37*
G36*
X81352Y183213D02*
X77792D01*
Y179653D01*
X77801Y179656D01*
X79283Y180511D01*
X80494Y181722D01*
X81349Y183204D01*
X81352Y183213D01*
D02*
G37*
G36*
X72792D02*
X69233D01*
X69235Y183204D01*
X70091Y181722D01*
X71301Y180511D01*
X72783Y179656D01*
X72792Y179653D01*
Y183213D01*
D02*
G37*
G36*
X532500Y181059D02*
Y177500D01*
X536059D01*
X536057Y177509D01*
X535201Y178991D01*
X533991Y180201D01*
X532509Y181057D01*
X532500Y181059D01*
D02*
G37*
G36*
X527500D02*
X527491Y181057D01*
X526009Y180201D01*
X524799Y178991D01*
X523943Y177509D01*
X523941Y177500D01*
X527500D01*
Y181059D01*
D02*
G37*
G36*
X195749Y183447D02*
X194357D01*
X193071Y182914D01*
X192086Y181929D01*
X191553Y180643D01*
Y179251D01*
X192086Y177964D01*
X193071Y176980D01*
X194357Y176447D01*
X195749D01*
X197036Y176980D01*
X198020Y177964D01*
X198553Y179251D01*
Y180643D01*
X198020Y181929D01*
X197036Y182914D01*
X195749Y183447D01*
D02*
G37*
G36*
X536059Y172500D02*
X532500D01*
Y168941D01*
X532509Y168943D01*
X533991Y169799D01*
X535201Y171009D01*
X536057Y172491D01*
X536059Y172500D01*
D02*
G37*
G36*
X527500D02*
X523941D01*
X523943Y172491D01*
X524799Y171009D01*
X526009Y169799D01*
X527491Y168943D01*
X527500Y168941D01*
Y172500D01*
D02*
G37*
G36*
X125696Y173500D02*
X124304D01*
X123017Y172967D01*
X122033Y171983D01*
X121500Y170696D01*
Y169304D01*
X122033Y168017D01*
X123017Y167033D01*
X124304Y166500D01*
X125696D01*
X126983Y167033D01*
X127967Y168017D01*
X128500Y169304D01*
Y170696D01*
X127967Y171983D01*
X126983Y172967D01*
X125696Y173500D01*
D02*
G37*
G36*
X100696D02*
X99304D01*
X98017Y172967D01*
X97033Y171983D01*
X96500Y170696D01*
Y169304D01*
X97033Y168017D01*
X98017Y167033D01*
X99304Y166500D01*
X100696D01*
X101983Y167033D01*
X102967Y168017D01*
X103500Y169304D01*
Y170696D01*
X102967Y171983D01*
X101983Y172967D01*
X100696Y173500D01*
D02*
G37*
G36*
X575696Y167000D02*
X574304D01*
X573017Y166467D01*
X572033Y165483D01*
X571500Y164196D01*
Y162804D01*
X572033Y161517D01*
X573017Y160533D01*
X574304Y160000D01*
X575696D01*
X576983Y160533D01*
X577967Y161517D01*
X578500Y162804D01*
Y164196D01*
X577967Y165483D01*
X576983Y166467D01*
X575696Y167000D01*
D02*
G37*
G36*
X26316Y175000D02*
X23684D01*
X21140Y174319D01*
X18860Y173002D01*
X16998Y171140D01*
X15682Y168860D01*
X15000Y166317D01*
Y163683D01*
X15682Y161140D01*
X16998Y158860D01*
X18860Y156998D01*
X21140Y155681D01*
X23684Y155000D01*
X26316D01*
X28860Y155681D01*
X31140Y156998D01*
X33002Y158860D01*
X34318Y161140D01*
X35000Y163683D01*
Y166317D01*
X34318Y168860D01*
X33002Y171140D01*
X31140Y173002D01*
X28860Y174319D01*
X26316Y175000D01*
D02*
G37*
G36*
X515696Y158500D02*
X514304D01*
X513017Y157967D01*
X512033Y156983D01*
X511500Y155696D01*
Y154304D01*
X512033Y153017D01*
X513017Y152033D01*
X514304Y151500D01*
X515696D01*
X516983Y152033D01*
X517967Y153017D01*
X518500Y154304D01*
Y155696D01*
X517967Y156983D01*
X516983Y157967D01*
X515696Y158500D01*
D02*
G37*
G36*
X505696Y137644D02*
X504304D01*
X503017Y137111D01*
X502033Y136126D01*
X501500Y134840D01*
Y133448D01*
X502033Y132161D01*
X503017Y131177D01*
X504304Y130644D01*
X505696D01*
X506983Y131177D01*
X507967Y132161D01*
X508500Y133448D01*
Y134840D01*
X507967Y136126D01*
X506983Y137111D01*
X505696Y137644D01*
D02*
G37*
G36*
X257500Y131059D02*
Y127500D01*
X261059D01*
X261057Y127509D01*
X260201Y128991D01*
X258991Y130201D01*
X257509Y131057D01*
X257500Y131059D01*
D02*
G37*
G36*
X252500D02*
X252491Y131057D01*
X251009Y130201D01*
X249799Y128991D01*
X248943Y127509D01*
X248941Y127500D01*
X252500D01*
Y131059D01*
D02*
G37*
G36*
X120696Y128500D02*
X119304D01*
X118017Y127967D01*
X117033Y126983D01*
X116500Y125696D01*
Y124304D01*
X117033Y123017D01*
X118017Y122033D01*
X119304Y121500D01*
X120696D01*
X121983Y122033D01*
X122967Y123017D01*
X123500Y124304D01*
Y125696D01*
X122967Y126983D01*
X121983Y127967D01*
X120696Y128500D01*
D02*
G37*
G36*
X261059Y122500D02*
X257500D01*
Y118941D01*
X257509Y118943D01*
X258991Y119799D01*
X260201Y121009D01*
X261057Y122491D01*
X261059Y122500D01*
D02*
G37*
G36*
X252500D02*
X248941D01*
X248943Y122491D01*
X249799Y121009D01*
X251009Y119799D01*
X252491Y118943D01*
X252500Y118941D01*
Y122500D01*
D02*
G37*
G36*
X26448Y138700D02*
X23552D01*
X20754Y137950D01*
X18246Y136502D01*
X16198Y134454D01*
X14750Y131946D01*
X14000Y129148D01*
Y126252D01*
X14750Y123454D01*
X16198Y120946D01*
X18246Y118898D01*
X20754Y117450D01*
X23552Y116700D01*
X26448D01*
X29246Y117450D01*
X31754Y118898D01*
X33802Y120946D01*
X35250Y123454D01*
X36000Y126252D01*
Y129148D01*
X35250Y131946D01*
X33802Y134454D01*
X31754Y136502D01*
X29246Y137950D01*
X26448Y138700D01*
D02*
G37*
G36*
X70696Y123500D02*
X69304D01*
X68017Y122967D01*
X67033Y121983D01*
X66500Y120696D01*
Y119304D01*
X67033Y118017D01*
X68017Y117033D01*
X69304Y116500D01*
X70696D01*
X71983Y117033D01*
X72967Y118017D01*
X73500Y119304D01*
Y120696D01*
X72967Y121983D01*
X71983Y122967D01*
X70696Y123500D01*
D02*
G37*
G36*
X145696Y103500D02*
X144304D01*
X143017Y102967D01*
X142033Y101983D01*
X141500Y100696D01*
Y99304D01*
X142033Y98017D01*
X143017Y97033D01*
X144304Y96500D01*
X145696D01*
X146983Y97033D01*
X147967Y98017D01*
X148500Y99304D01*
Y100696D01*
X147967Y101983D01*
X146983Y102967D01*
X145696Y103500D01*
D02*
G37*
G36*
X285696Y98500D02*
X284304D01*
X283017Y97967D01*
X282033Y96983D01*
X281500Y95696D01*
Y94304D01*
X282033Y93017D01*
X283017Y92033D01*
X284304Y91500D01*
X285696D01*
X286983Y92033D01*
X287967Y93017D01*
X288500Y94304D01*
Y95696D01*
X287967Y96983D01*
X286983Y97967D01*
X285696Y98500D01*
D02*
G37*
G36*
X26448Y113300D02*
X23552D01*
X20754Y112550D01*
X18246Y111102D01*
X16198Y109054D01*
X14750Y106546D01*
X14000Y103748D01*
Y100852D01*
X14750Y98054D01*
X16198Y95546D01*
X18246Y93498D01*
X20754Y92050D01*
X23552Y91300D01*
X26448D01*
X29246Y92050D01*
X31754Y93498D01*
X33802Y95546D01*
X35250Y98054D01*
X36000Y100852D01*
Y103748D01*
X35250Y106546D01*
X33802Y109054D01*
X31754Y111102D01*
X29246Y112550D01*
X26448Y113300D01*
D02*
G37*
G36*
X439559Y90494D02*
X436000D01*
Y86934D01*
X436009Y86937D01*
X437491Y87793D01*
X438701Y89003D01*
X439557Y90485D01*
X439559Y90494D01*
D02*
G37*
G36*
X370696Y91859D02*
X369304D01*
X368017Y91326D01*
X367033Y90342D01*
X366500Y89055D01*
Y87663D01*
X367033Y86376D01*
X368017Y85392D01*
X369304Y84859D01*
X370696D01*
X371983Y85392D01*
X372967Y86376D01*
X373500Y87663D01*
Y89055D01*
X372967Y90342D01*
X371983Y91326D01*
X370696Y91859D01*
D02*
G37*
G36*
X320696Y88500D02*
X319304D01*
X318017Y87967D01*
X317033Y86983D01*
X316500Y85696D01*
Y84304D01*
X317033Y83017D01*
X318017Y82033D01*
X319304Y81500D01*
X320696D01*
X321983Y82033D01*
X322967Y83017D01*
X323500Y84304D01*
Y85696D01*
X322967Y86983D01*
X321983Y87967D01*
X320696Y88500D01*
D02*
G37*
G36*
X285696D02*
X284304D01*
X283017Y87967D01*
X282033Y86983D01*
X281500Y85696D01*
Y84304D01*
X282033Y83017D01*
X283017Y82033D01*
X284304Y81500D01*
X285696D01*
X286983Y82033D01*
X287967Y83017D01*
X288500Y84304D01*
Y85696D01*
X287967Y86983D01*
X286983Y87967D01*
X285696Y88500D01*
D02*
G37*
G36*
X185696D02*
X184304D01*
X183017Y87967D01*
X182033Y86983D01*
X181500Y85696D01*
Y84304D01*
X182033Y83017D01*
X183017Y82033D01*
X184304Y81500D01*
X185696D01*
X186983Y82033D01*
X187967Y83017D01*
X188500Y84304D01*
Y85696D01*
X187967Y86983D01*
X186983Y87967D01*
X185696Y88500D01*
D02*
G37*
G36*
X432500Y77095D02*
Y72500D01*
X437095D01*
X436989Y72895D01*
X436002Y74605D01*
X434605Y76002D01*
X432895Y76989D01*
X432500Y77095D01*
D02*
G37*
G36*
X427500D02*
X427105Y76989D01*
X425395Y76002D01*
X423998Y74605D01*
X423011Y72895D01*
X422905Y72500D01*
X427500D01*
Y77095D01*
D02*
G37*
G36*
X170175Y79022D02*
X168782D01*
X167496Y78489D01*
X166511Y77504D01*
X165978Y76218D01*
Y74826D01*
X166511Y73539D01*
X167496Y72554D01*
X168782Y72022D01*
X170175D01*
X171461Y72554D01*
X172446Y73539D01*
X172978Y74826D01*
Y76218D01*
X172446Y77504D01*
X171461Y78489D01*
X170175Y79022D01*
D02*
G37*
G36*
X370696Y83500D02*
X369304D01*
X368017Y82967D01*
X367033Y81983D01*
X366500Y80696D01*
Y79542D01*
X366046Y78954D01*
X365458Y78500D01*
X364304D01*
X363017Y77967D01*
X362033Y76983D01*
X361500Y75696D01*
Y74304D01*
X362033Y73017D01*
X363017Y72033D01*
X364304Y71500D01*
X365696D01*
X366983Y72033D01*
X367967Y73017D01*
X368500Y74304D01*
Y75458D01*
X368954Y76046D01*
X369542Y76500D01*
X370696D01*
X371983Y77033D01*
X372967Y78017D01*
X373500Y79304D01*
Y80696D01*
X372967Y81983D01*
X371983Y82967D01*
X370696Y83500D01*
D02*
G37*
G36*
X280696Y78500D02*
X279304D01*
X278017Y77967D01*
X277033Y76983D01*
X276500Y75696D01*
Y74304D01*
X277033Y73017D01*
X278017Y72033D01*
X279304Y71500D01*
X280696D01*
X281983Y72033D01*
X282967Y73017D01*
X283500Y74304D01*
Y75696D01*
X282967Y76983D01*
X281983Y77967D01*
X280696Y78500D01*
D02*
G37*
G36*
X185696Y73500D02*
X184304D01*
X183017Y72967D01*
X182033Y71983D01*
X181500Y70696D01*
Y69304D01*
X182033Y68017D01*
X183017Y67033D01*
X184304Y66500D01*
X185696D01*
X186983Y67033D01*
X187967Y68017D01*
X188500Y69304D01*
Y70696D01*
X187967Y71983D01*
X186983Y72967D01*
X185696Y73500D01*
D02*
G37*
G36*
X437095Y67500D02*
X432500D01*
Y62905D01*
X432895Y63011D01*
X434605Y63998D01*
X436002Y65395D01*
X436989Y67105D01*
X437095Y67500D01*
D02*
G37*
G36*
X427500D02*
X422905D01*
X423011Y67105D01*
X423998Y65395D01*
X425395Y63998D01*
X427105Y63011D01*
X427500Y62905D01*
Y67500D01*
D02*
G37*
G36*
X215196Y69250D02*
X213804D01*
X212517Y68717D01*
X211533Y67733D01*
X211000Y66446D01*
Y65054D01*
X211533Y63767D01*
X212517Y62783D01*
X213804Y62250D01*
X215196D01*
X216483Y62783D01*
X217467Y63767D01*
X218000Y65054D01*
Y66446D01*
X217467Y67733D01*
X216483Y68717D01*
X215196Y69250D01*
D02*
G37*
G36*
X410696Y63750D02*
X409304D01*
X408017Y63217D01*
X407033Y62233D01*
X406500Y60946D01*
Y59554D01*
X407033Y58267D01*
X408017Y57283D01*
X409304Y56750D01*
X410696D01*
X411983Y57283D01*
X412967Y58267D01*
X413500Y59554D01*
Y60946D01*
X412967Y62233D01*
X411983Y63217D01*
X410696Y63750D01*
D02*
G37*
G36*
X365696Y63500D02*
X364304D01*
X363017Y62967D01*
X362033Y61983D01*
X361500Y60696D01*
Y59304D01*
X362033Y58017D01*
X363017Y57033D01*
X364304Y56500D01*
X365696D01*
X366983Y57033D01*
X367967Y58017D01*
X368500Y59304D01*
Y60696D01*
X367967Y61983D01*
X366983Y62967D01*
X365696Y63500D01*
D02*
G37*
G36*
X220696Y58500D02*
X219304D01*
X218017Y57967D01*
X217033Y56983D01*
X216500Y55696D01*
Y54304D01*
X217033Y53017D01*
X218017Y52033D01*
X219304Y51500D01*
X220696D01*
X221983Y52033D01*
X222967Y53017D01*
X223500Y54304D01*
Y55696D01*
X222967Y56983D01*
X221983Y57967D01*
X220696Y58500D01*
D02*
G37*
G36*
X122696Y54850D02*
X121304D01*
X120017Y54317D01*
X119033Y53333D01*
X118500Y52046D01*
Y50654D01*
X119033Y49367D01*
X120017Y48383D01*
X121304Y47850D01*
X122696D01*
X123983Y48383D01*
X124967Y49367D01*
X125500Y50654D01*
Y52046D01*
X124967Y53333D01*
X123983Y54317D01*
X122696Y54850D01*
D02*
G37*
G36*
X200861Y50544D02*
X130326D01*
X128960Y50272D01*
X127802Y49499D01*
X119477Y41173D01*
X119281Y40881D01*
X119033Y40633D01*
X118898Y40308D01*
X118703Y40016D01*
X118635Y39671D01*
X118500Y39346D01*
Y38995D01*
X118431Y38650D01*
X118500Y38305D01*
Y37954D01*
X118635Y37629D01*
X118703Y37284D01*
X118898Y36992D01*
X119033Y36667D01*
X119281Y36419D01*
X119477Y36127D01*
X119769Y35931D01*
X120017Y35683D01*
X120342Y35548D01*
X120634Y35353D01*
X120979Y35285D01*
X121304Y35150D01*
X121655D01*
X122000Y35081D01*
X122345Y35150D01*
X122696D01*
X123021Y35285D01*
X123366Y35353D01*
X123658Y35548D01*
X123983Y35683D01*
X124231Y35931D01*
X124523Y36127D01*
X131804Y43407D01*
X186778D01*
X187269Y42672D01*
Y41279D01*
X187802Y39993D01*
X188786Y39009D01*
X190073Y38476D01*
X191465D01*
X192752Y39009D01*
X193736Y39993D01*
X194269Y41279D01*
Y42672D01*
X194760Y43407D01*
X199383D01*
X200313Y42477D01*
X201471Y41703D01*
X202837Y41431D01*
X215000D01*
X215345Y41500D01*
X215696D01*
X216021Y41634D01*
X216366Y41703D01*
X216658Y41898D01*
X216983Y42033D01*
X217231Y42281D01*
X217523Y42477D01*
X217719Y42769D01*
X217967Y43017D01*
X218102Y43342D01*
X218297Y43634D01*
X218365Y43979D01*
X218500Y44304D01*
Y44655D01*
X218569Y45000D01*
X218500Y45345D01*
Y45696D01*
X218365Y46021D01*
X218297Y46366D01*
X218102Y46658D01*
X217967Y46983D01*
X217719Y47231D01*
X217523Y47523D01*
X217231Y47719D01*
X216983Y47967D01*
X216658Y48102D01*
X216366Y48297D01*
X216021Y48366D01*
X215696Y48500D01*
X215345D01*
X215000Y48569D01*
X204315D01*
X203384Y49499D01*
X202227Y50272D01*
X200861Y50544D01*
D02*
G37*
G36*
X360696Y47563D02*
X359304D01*
X358017Y47030D01*
X357033Y46046D01*
X356500Y44759D01*
Y43367D01*
X357033Y42080D01*
X358017Y41096D01*
X359304Y40563D01*
X360696D01*
X361983Y41096D01*
X362967Y42080D01*
X363500Y43367D01*
Y44759D01*
X362967Y46046D01*
X361983Y47030D01*
X360696Y47563D01*
D02*
G37*
G36*
X329996Y42512D02*
X328604D01*
X327318Y41979D01*
X326333Y40995D01*
X325800Y39708D01*
Y38316D01*
X326333Y37030D01*
X326627Y36736D01*
X326744Y35426D01*
X326519Y35184D01*
X325761Y34426D01*
X325228Y33139D01*
Y31747D01*
X325761Y30460D01*
X326745Y29476D01*
X328032Y28943D01*
X329424D01*
X330710Y29476D01*
X331695Y30460D01*
X332228Y31747D01*
Y33139D01*
X331695Y34426D01*
X331401Y34720D01*
X331284Y36029D01*
X331509Y36271D01*
X332267Y37030D01*
X332800Y38316D01*
Y39708D01*
X332267Y40995D01*
X331283Y41979D01*
X329996Y42512D01*
D02*
G37*
G36*
X552912Y87000D02*
X547088D01*
X541336Y86089D01*
X535797Y84289D01*
X530608Y81645D01*
X525896Y78222D01*
X521778Y74104D01*
X518355Y69392D01*
X515711Y64203D01*
X513911Y58664D01*
X513000Y52912D01*
Y47088D01*
X513911Y41336D01*
X515711Y35797D01*
X518355Y30608D01*
X521778Y25896D01*
X525896Y21778D01*
X530608Y18355D01*
X535797Y15711D01*
X541336Y13911D01*
X547088Y13000D01*
X552912D01*
X558664Y13911D01*
X564203Y15711D01*
X569392Y18355D01*
X574104Y21778D01*
X578222Y25896D01*
X581645Y30608D01*
X584289Y35797D01*
X586089Y41336D01*
X587000Y47088D01*
Y52912D01*
X586089Y58664D01*
X584289Y64203D01*
X581645Y69392D01*
X578222Y74104D01*
X574104Y78222D01*
X569392Y81645D01*
X564203Y84289D01*
X558664Y86089D01*
X552912Y87000D01*
D02*
G37*
G36*
X52912D02*
X47088D01*
X41336Y86089D01*
X35797Y84289D01*
X30608Y81645D01*
X25896Y78222D01*
X21778Y74104D01*
X18355Y69392D01*
X15711Y64203D01*
X13911Y58664D01*
X13000Y52912D01*
Y47088D01*
X13911Y41336D01*
X15711Y35797D01*
X18355Y30608D01*
X21778Y25896D01*
X25896Y21778D01*
X30608Y18355D01*
X35797Y15711D01*
X41336Y13911D01*
X47088Y13000D01*
X52912D01*
X58664Y13911D01*
X64203Y15711D01*
X69392Y18355D01*
X74104Y21778D01*
X78222Y25896D01*
X81645Y30608D01*
X84289Y35797D01*
X86089Y41336D01*
X87000Y47088D01*
Y52912D01*
X86089Y58664D01*
X84289Y64203D01*
X81645Y69392D01*
X78222Y74104D01*
X74104Y78222D01*
X69392Y81645D01*
X64203Y84289D01*
X58664Y86089D01*
X52912Y87000D01*
D02*
G37*
G36*
X370696Y18500D02*
X369304D01*
X368017Y17967D01*
X367033Y16983D01*
X366500Y15696D01*
Y14304D01*
X367033Y13017D01*
X368017Y12033D01*
X369304Y11500D01*
X370696D01*
X371983Y12033D01*
X372967Y13017D01*
X373500Y14304D01*
Y15696D01*
X372967Y16983D01*
X371983Y17967D01*
X370696Y18500D01*
D02*
G37*
G36*
X225696D02*
X224304D01*
X223017Y17967D01*
X222033Y16983D01*
X221500Y15696D01*
Y14304D01*
X222033Y13017D01*
X223017Y12033D01*
X224304Y11500D01*
X225696D01*
X226983Y12033D01*
X227967Y13017D01*
X228500Y14304D01*
Y15696D01*
X227967Y16983D01*
X226983Y17967D01*
X225696Y18500D01*
D02*
G37*
%LPD*%
G36*
X237382Y400154D02*
X236733Y399720D01*
X234166Y397153D01*
X232583Y397366D01*
X231983Y397967D01*
X230696Y398500D01*
X229304D01*
X228017Y397967D01*
X227033Y396983D01*
X226500Y395696D01*
Y394304D01*
X227033Y393017D01*
X228017Y392033D01*
X228188Y391175D01*
X189166Y352153D01*
X187583Y352366D01*
X186983Y352967D01*
X185696Y353500D01*
X184542D01*
X183954Y353954D01*
X183500Y354542D01*
Y355696D01*
X182967Y356983D01*
X181983Y357967D01*
X180696Y358500D01*
X179304D01*
X178017Y357967D01*
X177033Y356983D01*
X176500Y355696D01*
Y354304D01*
X177033Y353017D01*
X178017Y352033D01*
X179304Y351500D01*
X180458D01*
X181046Y351046D01*
X181500Y350458D01*
Y349304D01*
X181014Y348577D01*
X149410D01*
X147153Y350834D01*
X147366Y352417D01*
X147967Y353017D01*
X148500Y354304D01*
Y355696D01*
X147967Y356983D01*
X146983Y357967D01*
X145696Y358500D01*
X144304D01*
X143017Y357967D01*
X142033Y356983D01*
X141500Y355696D01*
Y354638D01*
X137285D01*
X136799Y355811D01*
X137410Y356423D01*
X138273Y357715D01*
X138576Y359238D01*
Y366014D01*
X139304Y366500D01*
X140696D01*
X141983Y367033D01*
X142967Y368017D01*
X143500Y369304D01*
Y370696D01*
X142967Y371983D01*
X142366Y372583D01*
X142153Y374166D01*
X169410Y401423D01*
X236996D01*
X237382Y400154D01*
D02*
G37*
G36*
X291500Y400696D02*
Y399304D01*
X292033Y398017D01*
X293017Y397033D01*
X294304Y396500D01*
X295696D01*
X296983Y397033D01*
X297967Y398017D01*
X298825Y398188D01*
X300651Y396363D01*
X300917Y395025D01*
X301780Y393733D01*
X353188Y342325D01*
X353017Y341467D01*
X352033Y340483D01*
X351500Y339196D01*
Y338042D01*
X351046Y337454D01*
X350458Y337000D01*
X349542D01*
X348954Y337454D01*
X348500Y338042D01*
Y339196D01*
X347967Y340483D01*
X346983Y341467D01*
X345696Y342000D01*
X344304D01*
X343017Y341467D01*
X342033Y340483D01*
X341500Y339196D01*
Y338042D01*
X341046Y337454D01*
X340458Y337000D01*
X339542D01*
X338954Y337454D01*
X338500Y338042D01*
Y339196D01*
X337967Y340483D01*
X336983Y341467D01*
X335696Y342000D01*
X334304D01*
X333017Y341467D01*
X332033Y340483D01*
X331500Y339196D01*
Y338042D01*
X331046Y337454D01*
X330458Y337000D01*
X329304D01*
X328017Y336467D01*
X327033Y335483D01*
X326500Y334196D01*
Y332804D01*
X326014Y332076D01*
X323986D01*
X323500Y332804D01*
Y334196D01*
X322967Y335483D01*
X321983Y336467D01*
X320696Y337000D01*
X319304D01*
X318971Y336862D01*
X318119Y337884D01*
X318500Y338804D01*
Y340196D01*
X317967Y341483D01*
X316983Y342467D01*
X315696Y343000D01*
X314304D01*
X313017Y342467D01*
X312033Y341483D01*
X311909Y341184D01*
X310411Y340886D01*
X300122Y351175D01*
X300293Y352033D01*
X301277Y353017D01*
X301810Y354304D01*
Y355696D01*
X301277Y356983D01*
X300293Y357967D01*
X299006Y358500D01*
X297614D01*
X296887Y358986D01*
Y375659D01*
X296583Y377183D01*
X295720Y378475D01*
X278868Y395327D01*
X279117Y395997D01*
X279491Y396500D01*
X280696D01*
X281983Y397033D01*
X282967Y398017D01*
X283500Y399304D01*
Y400696D01*
X283986Y401423D01*
X291014D01*
X291500Y400696D01*
D02*
G37*
G36*
X516674Y427709D02*
X490674Y401709D01*
X489348Y399724D01*
X488882Y397383D01*
X489348Y395042D01*
X489902Y394213D01*
Y382771D01*
X488941Y382129D01*
X487549D01*
X486262Y381596D01*
X485278Y380612D01*
X484745Y379325D01*
Y377933D01*
X485278Y376647D01*
X486262Y375662D01*
X487549Y375129D01*
X488941D01*
X489902Y374487D01*
Y260000D01*
X490290Y258049D01*
X491395Y256395D01*
X493882Y253908D01*
Y224697D01*
X494348Y222356D01*
X495674Y220371D01*
X506702Y209344D01*
X508686Y208018D01*
X509802Y207796D01*
X510042Y207388D01*
X509316Y206117D01*
X462534D01*
X446118Y222534D01*
Y336666D01*
X447388Y337006D01*
X447996Y335952D01*
X449207Y334741D01*
X450689Y333886D01*
X450698Y333883D01*
Y339943D01*
Y346002D01*
X450689Y346000D01*
X449207Y345144D01*
X447996Y343934D01*
X447388Y342879D01*
X446118Y343219D01*
Y383775D01*
X445652Y386116D01*
X444326Y388101D01*
X438668Y393759D01*
Y425000D01*
X438202Y427341D01*
X437920Y427762D01*
X438519Y428882D01*
X516188D01*
X516674Y427709D01*
D02*
G37*
G36*
X314756Y325280D02*
X316047Y324417D01*
X317571Y324114D01*
X358740D01*
X373499Y309354D01*
X373013Y308181D01*
X337239D01*
X336500Y309144D01*
Y310856D01*
X336057Y312509D01*
X335201Y313991D01*
X333991Y315201D01*
X332509Y316057D01*
X332500Y316059D01*
Y310000D01*
X327500D01*
Y316059D01*
X327491Y316057D01*
X326009Y315201D01*
X324799Y313991D01*
X323981Y312574D01*
X323827Y312387D01*
X322603Y312156D01*
X291658Y343101D01*
X291554Y343623D01*
X291069Y344350D01*
Y347308D01*
X292242Y347794D01*
X314756Y325280D01*
D02*
G37*
G36*
X320165Y304501D02*
X319413Y303500D01*
X318304D01*
X317017Y302967D01*
X316033Y301983D01*
X315500Y300696D01*
Y299304D01*
X316033Y298017D01*
X317017Y297033D01*
X318304Y296500D01*
X319515D01*
X319799Y296009D01*
X321009Y294799D01*
X322491Y293943D01*
X322500Y293941D01*
Y299303D01*
X322500Y299304D01*
Y300000D01*
X327500D01*
Y293941D01*
X327509Y293943D01*
X328991Y294799D01*
X330201Y296009D01*
X331057Y297491D01*
X331500Y299144D01*
Y299939D01*
X332420Y300999D01*
X332708Y301043D01*
X418116D01*
X421045Y298114D01*
X420977Y297771D01*
X419992Y296787D01*
X419459Y295501D01*
Y294108D01*
X419992Y292822D01*
X420977Y291837D01*
X422263Y291304D01*
X423656D01*
X424942Y291837D01*
X425927Y292822D01*
X426459Y294108D01*
Y295040D01*
X427327Y295798D01*
X427633Y295902D01*
X427799D01*
X428143Y295834D01*
X428488Y295902D01*
X428840D01*
X429164Y296037D01*
X429509Y296105D01*
X429801Y296301D01*
X430126Y296435D01*
X430374Y296684D01*
X430667Y296879D01*
X430862Y297171D01*
X431111Y297420D01*
X431245Y297744D01*
X431440Y298036D01*
X431509Y298381D01*
X431643Y298706D01*
Y299057D01*
X431712Y299402D01*
X431643Y299747D01*
Y300098D01*
X431509Y300423D01*
X431440Y300768D01*
X431245Y301060D01*
X431111Y301385D01*
X430862Y301633D01*
X430667Y301926D01*
X430457Y302135D01*
X430165Y302331D01*
X430126Y302369D01*
X430019Y303564D01*
X430165Y303916D01*
Y305308D01*
X430651Y306035D01*
X431665D01*
X432612Y306224D01*
X433882Y305391D01*
Y294251D01*
X432612Y293403D01*
X432361Y293507D01*
X430969D01*
X429683Y292974D01*
X428698Y291989D01*
X428165Y290703D01*
Y289548D01*
X427711Y288960D01*
X427123Y288507D01*
X425969D01*
X424683Y287974D01*
X423698Y286989D01*
X423165Y285703D01*
Y284310D01*
X423698Y283024D01*
X424683Y282039D01*
X425969Y281507D01*
X427123D01*
X427711Y281053D01*
X428165Y280465D01*
Y279310D01*
X427174Y278384D01*
X426183Y277974D01*
X425198Y276989D01*
X424665Y275703D01*
Y274310D01*
X425198Y273024D01*
X426183Y272040D01*
X427174Y271629D01*
X428165Y270703D01*
Y269548D01*
X427711Y268960D01*
X427123Y268507D01*
X425969D01*
X424683Y267974D01*
X423698Y266989D01*
X423165Y265703D01*
Y264310D01*
X423698Y263024D01*
X424683Y262040D01*
X425969Y261507D01*
X427361D01*
X428648Y262040D01*
X429632Y263024D01*
X430165Y264310D01*
Y265465D01*
X430619Y266053D01*
X431207Y266507D01*
X432361D01*
X432612Y266611D01*
X433882Y265762D01*
Y254251D01*
X432612Y253403D01*
X432361Y253507D01*
X430969D01*
X429683Y252974D01*
X428698Y251989D01*
X428165Y250703D01*
Y249548D01*
X427711Y248960D01*
X427123Y248507D01*
X425969D01*
X424683Y247974D01*
X423698Y246989D01*
X423165Y245703D01*
Y244310D01*
X423698Y243024D01*
X424683Y242039D01*
X425969Y241507D01*
X427123D01*
X427711Y241053D01*
X428165Y240465D01*
Y239548D01*
X427711Y238960D01*
X427123Y238507D01*
X425969D01*
X424683Y237974D01*
X423698Y236989D01*
X423165Y235703D01*
Y234310D01*
X423698Y233024D01*
X424683Y232040D01*
X425969Y231507D01*
X427014D01*
X427558Y231252D01*
X428165Y230465D01*
Y229575D01*
X428698Y228288D01*
X429683Y227304D01*
X430969Y226771D01*
X432361D01*
X432612Y226875D01*
X433882Y226026D01*
Y223170D01*
X432612Y222764D01*
X431914Y223462D01*
X430628Y223995D01*
X429236D01*
X427949Y223462D01*
X426806Y223615D01*
X426464Y223773D01*
X426443Y223823D01*
X426962Y225075D01*
Y226467D01*
X426429Y227753D01*
X425444Y228738D01*
X424158Y229271D01*
X422766D01*
X421479Y228738D01*
X420495Y227753D01*
X419962Y226467D01*
Y225075D01*
X420495Y223788D01*
X421053Y223230D01*
X421461Y222748D01*
X421078Y221595D01*
X420829Y221347D01*
X420296Y220060D01*
Y218668D01*
X420829Y217382D01*
X421814Y216397D01*
X423100Y215864D01*
X424492D01*
X425779Y216397D01*
X426531Y217150D01*
X427949Y217528D01*
X429236Y216995D01*
X430628D01*
X431914Y217528D01*
X432899Y218512D01*
X434209Y218357D01*
X434348Y217659D01*
X435674Y215674D01*
X451282Y200067D01*
X450756Y198797D01*
X450318D01*
X448410Y198286D01*
X446700Y197298D01*
X445304Y195902D01*
X444316Y194192D01*
X444211Y193797D01*
X459534D01*
X459675Y193947D01*
X460000Y193883D01*
X503613D01*
X504099Y192709D01*
X449338Y137949D01*
X447879Y138239D01*
X445538Y137773D01*
X443553Y136447D01*
X443223Y136117D01*
X297534D01*
X276117Y157534D01*
Y170000D01*
X275652Y172341D01*
X274326Y174326D01*
X267976Y180675D01*
X268696Y181752D01*
X269304Y181500D01*
X270696D01*
X271983Y182033D01*
X272967Y183017D01*
X273500Y184304D01*
Y185696D01*
X272967Y186983D01*
X271983Y187967D01*
X270696Y188500D01*
X269304D01*
X268017Y187967D01*
X267033Y186983D01*
X266500Y185696D01*
Y184304D01*
X266752Y183696D01*
X265675Y182976D01*
X249326Y199326D01*
X247341Y200652D01*
X245000Y201117D01*
X242659Y200652D01*
X240674Y199326D01*
X239348Y197341D01*
X238883Y195000D01*
X239348Y192659D01*
X240674Y190674D01*
X241086Y190262D01*
X240655Y189374D01*
X240435Y189118D01*
X239138D01*
X237852Y188585D01*
X236867Y187600D01*
X236334Y186314D01*
Y184977D01*
X236310Y184892D01*
X235423Y183803D01*
X234607D01*
X234316Y183683D01*
X234283Y183690D01*
X233143Y184571D01*
Y185339D01*
X232610Y186626D01*
X231626Y187610D01*
X230339Y188143D01*
X228947D01*
X228260Y188602D01*
Y200323D01*
X231820Y203883D01*
X263542D01*
X264000Y203196D01*
Y201804D01*
X264533Y200517D01*
X265517Y199533D01*
X266804Y199000D01*
X268196D01*
X269483Y199533D01*
X270467Y200517D01*
X271000Y201804D01*
Y203196D01*
X271459Y203883D01*
X280848D01*
X281554Y202826D01*
X281500Y202696D01*
Y201304D01*
X282033Y200018D01*
X283017Y199033D01*
X284304Y198500D01*
X285696D01*
X286983Y199033D01*
X287967Y200018D01*
X288500Y201304D01*
Y202696D01*
X287967Y203983D01*
X288700Y205046D01*
X289639Y205674D01*
X302267Y218302D01*
X303513Y218054D01*
X303528Y218017D01*
X304512Y217033D01*
X305799Y216500D01*
X307191D01*
X308478Y217033D01*
X309462Y218017D01*
X309995Y219304D01*
Y220696D01*
X309462Y221983D01*
X308478Y222967D01*
X308305Y223039D01*
X307647Y224340D01*
X308113Y226681D01*
Y293612D01*
X307647Y295953D01*
X306321Y297937D01*
X286117Y318141D01*
Y336889D01*
X287291Y337375D01*
X320165Y304501D01*
D02*
G37*
G36*
X295877Y291078D02*
Y229215D01*
X282780Y216118D01*
X277839D01*
X277337Y217388D01*
X277967Y218017D01*
X278500Y219304D01*
Y220696D01*
X277967Y221983D01*
X276983Y222967D01*
X275696Y223500D01*
X274304D01*
X273239Y223059D01*
X272077D01*
X271551Y224329D01*
X271603Y224382D01*
X272045Y225447D01*
X281663Y235065D01*
X282326Y236057D01*
X282559Y237228D01*
X282559Y237228D01*
Y255178D01*
X290236Y262855D01*
X290899Y263848D01*
X291132Y265018D01*
X291132Y265019D01*
Y286699D01*
X291132Y286699D01*
X290899Y287869D01*
X290236Y288862D01*
X290236Y288862D01*
X286559Y292539D01*
Y293521D01*
X286559Y293521D01*
X286326Y294691D01*
X285663Y295684D01*
X285663Y295684D01*
X280684Y300663D01*
X279691Y301326D01*
X278521Y301559D01*
X278521Y301559D01*
X277539D01*
X276198Y302900D01*
Y305497D01*
X275975Y306616D01*
X276983Y307033D01*
X277967Y308017D01*
X278777Y308178D01*
X295877Y291078D01*
D02*
G37*
G36*
X254548Y176801D02*
X253828Y175724D01*
X253220Y175976D01*
X251828D01*
X250541Y175443D01*
X249557Y174459D01*
X249024Y173172D01*
Y171780D01*
X249557Y170493D01*
X249977Y170073D01*
X249749Y169291D01*
X249497Y168757D01*
X248321Y168270D01*
X247336Y167286D01*
X247191Y166936D01*
X245693Y166638D01*
X236638Y175693D01*
X236936Y177191D01*
X237286Y177336D01*
X238270Y178321D01*
X238803Y179607D01*
Y180944D01*
X238827Y181029D01*
X239715Y182118D01*
X240531D01*
X241817Y182651D01*
X242802Y183635D01*
X243335Y184921D01*
Y186218D01*
X243591Y186438D01*
X244479Y186870D01*
X254548Y176801D01*
D02*
G37*
G36*
X263883Y167466D02*
Y155000D01*
X264348Y152659D01*
X265674Y150674D01*
X290674Y125674D01*
X292659Y124348D01*
X295000Y123883D01*
X433613D01*
X434099Y122709D01*
X417478Y106088D01*
X416846D01*
X415090Y105739D01*
X413601Y104744D01*
X412607Y103256D01*
X412257Y101500D01*
X412479Y100388D01*
X411614Y99117D01*
X383927D01*
X372194Y110851D01*
X372395Y112446D01*
X372967Y113017D01*
X373500Y114304D01*
Y115696D01*
X372967Y116983D01*
X371983Y117967D01*
X370696Y118500D01*
X369304D01*
X368017Y117967D01*
X367033Y116983D01*
X366223Y116822D01*
X363219Y119826D01*
X361235Y121152D01*
X358893Y121617D01*
X290713D01*
X251638Y160693D01*
X251936Y162191D01*
X252286Y162336D01*
X253270Y163321D01*
X253803Y164607D01*
Y166000D01*
X253270Y167286D01*
X252850Y167706D01*
X253078Y168488D01*
X253331Y169022D01*
X254507Y169509D01*
X255491Y170493D01*
X256024Y171780D01*
Y173172D01*
X255772Y173780D01*
X256849Y174500D01*
X263883Y167466D01*
D02*
G37*
%LPC*%
G36*
X170696Y388500D02*
X169304D01*
X168017Y387967D01*
X167033Y386983D01*
X166500Y385696D01*
Y384304D01*
X167033Y383017D01*
X168017Y382033D01*
X169304Y381500D01*
X170696D01*
X171983Y382033D01*
X172967Y383017D01*
X173500Y384304D01*
Y385696D01*
X172967Y386983D01*
X171983Y387967D01*
X170696Y388500D01*
D02*
G37*
G36*
X190696Y363500D02*
X189304D01*
X188017Y362967D01*
X187033Y361983D01*
X186500Y360696D01*
Y359304D01*
X187033Y358017D01*
X188017Y357033D01*
X189304Y356500D01*
X190696D01*
X191983Y357033D01*
X192967Y358017D01*
X193500Y359304D01*
Y360696D01*
X192967Y361983D01*
X191983Y362967D01*
X190696Y363500D01*
D02*
G37*
G36*
X305696Y366755D02*
X304304D01*
X303017Y366222D01*
X302033Y365238D01*
X301500Y363951D01*
Y362559D01*
X302033Y361272D01*
X303017Y360288D01*
X304304Y359755D01*
X305696D01*
X306983Y360288D01*
X307967Y361272D01*
X308500Y362559D01*
Y363951D01*
X307967Y365238D01*
X306983Y366222D01*
X305696Y366755D01*
D02*
G37*
G36*
X325696Y344864D02*
X324304D01*
X323017Y344331D01*
X322033Y343346D01*
X321500Y342060D01*
Y340668D01*
X322033Y339381D01*
X323017Y338397D01*
X324304Y337864D01*
X325696D01*
X326983Y338397D01*
X327967Y339381D01*
X328500Y340668D01*
Y342060D01*
X327967Y343346D01*
X326983Y344331D01*
X325696Y344864D01*
D02*
G37*
G36*
X480696Y408500D02*
X479304D01*
X478017Y407967D01*
X477033Y406983D01*
X476500Y405696D01*
Y404304D01*
X477033Y403017D01*
X478017Y402033D01*
X479304Y401500D01*
X480696D01*
X481983Y402033D01*
X482967Y403017D01*
X483500Y404304D01*
Y405696D01*
X482967Y406983D01*
X481983Y407967D01*
X480696Y408500D01*
D02*
G37*
G36*
X477064Y379779D02*
X475672D01*
X474385Y379246D01*
X473401Y378261D01*
X472868Y376975D01*
Y375583D01*
X473401Y374296D01*
X474385Y373312D01*
X475672Y372779D01*
X477064D01*
X478350Y373312D01*
X479335Y374296D01*
X479868Y375583D01*
Y376975D01*
X479335Y378261D01*
X478350Y379246D01*
X477064Y379779D01*
D02*
G37*
G36*
X455698Y346002D02*
Y342443D01*
X459257D01*
X459255Y342452D01*
X458399Y343934D01*
X457189Y345144D01*
X455707Y346000D01*
X455698Y346002D01*
D02*
G37*
G36*
X459257Y337443D02*
X455698D01*
Y333883D01*
X455707Y333886D01*
X457189Y334741D01*
X458399Y335952D01*
X459255Y337434D01*
X459257Y337443D01*
D02*
G37*
G36*
X464114Y300082D02*
X462722D01*
X461435Y299549D01*
X460451Y298565D01*
X459918Y297278D01*
Y295886D01*
X460451Y294599D01*
X461435Y293615D01*
X462722Y293082D01*
X464114D01*
X465401Y293615D01*
X466385Y294599D01*
X466918Y295886D01*
Y297278D01*
X466385Y298565D01*
X465401Y299549D01*
X464114Y300082D01*
D02*
G37*
G36*
X460696Y283500D02*
X459304D01*
X458017Y282967D01*
X457033Y281983D01*
X456500Y280696D01*
Y279304D01*
X457033Y278017D01*
X458017Y277033D01*
X459304Y276500D01*
X460696D01*
X461983Y277033D01*
X462967Y278017D01*
X463500Y279304D01*
Y280696D01*
X462967Y281983D01*
X461983Y282967D01*
X460696Y283500D01*
D02*
G37*
G36*
X415696D02*
X414304D01*
X413017Y282967D01*
X412033Y281983D01*
X411500Y280696D01*
Y279304D01*
X412033Y278017D01*
X413017Y277033D01*
X414304Y276500D01*
X415696D01*
X416983Y277033D01*
X417967Y278017D01*
X418500Y279304D01*
Y280696D01*
X417967Y281983D01*
X416983Y282967D01*
X415696Y283500D01*
D02*
G37*
G36*
X332500Y271059D02*
Y267500D01*
X336059D01*
X336057Y267509D01*
X335201Y268991D01*
X333991Y270201D01*
X332509Y271057D01*
X332500Y271059D01*
D02*
G37*
G36*
X327500D02*
X327491Y271057D01*
X326009Y270201D01*
X324799Y268991D01*
X323943Y267509D01*
X323636Y266364D01*
X322491Y266057D01*
X321009Y265201D01*
X319799Y263991D01*
X318943Y262509D01*
X318941Y262500D01*
X325000D01*
Y260000D01*
X327500D01*
Y253941D01*
X327509Y253943D01*
X328991Y254799D01*
X330201Y256009D01*
X331057Y257491D01*
X331364Y258636D01*
X332509Y258943D01*
X333991Y259799D01*
X335201Y261009D01*
X336057Y262491D01*
X336059Y262500D01*
X330000D01*
Y265000D01*
X327500D01*
Y271059D01*
D02*
G37*
G36*
X322500Y257500D02*
X318941D01*
X318943Y257491D01*
X319799Y256009D01*
X321009Y254799D01*
X322491Y253943D01*
X322500Y253941D01*
Y257500D01*
D02*
G37*
G36*
X382500Y251059D02*
Y247500D01*
X386059D01*
X386057Y247509D01*
X385201Y248991D01*
X383991Y250201D01*
X382509Y251057D01*
X382500Y251059D01*
D02*
G37*
G36*
X377500D02*
X377491Y251057D01*
X376009Y250201D01*
X374799Y248991D01*
X374001Y247609D01*
X373941Y247573D01*
X373574Y247469D01*
X372589Y247361D01*
X371983Y247967D01*
X370696Y248500D01*
X369304D01*
X368017Y247967D01*
X367033Y246983D01*
X366500Y245696D01*
Y244304D01*
X367033Y243017D01*
X368017Y242033D01*
X369304Y241500D01*
X370696D01*
X371983Y242033D01*
X372589Y242639D01*
X373574Y242531D01*
X373941Y242427D01*
X374001Y242391D01*
X374799Y241009D01*
X376009Y239799D01*
X377491Y238943D01*
X377500Y238941D01*
Y245000D01*
Y251059D01*
D02*
G37*
G36*
X342500Y246059D02*
Y242500D01*
X346059D01*
X346057Y242509D01*
X345201Y243991D01*
X343991Y245201D01*
X342509Y246057D01*
X342500Y246059D01*
D02*
G37*
G36*
X405696Y248500D02*
X404304D01*
X403017Y247967D01*
X402033Y246983D01*
X401500Y245696D01*
Y244304D01*
X402033Y243017D01*
X403017Y242033D01*
X404304Y241500D01*
X405696D01*
X406983Y242033D01*
X407967Y243017D01*
X408500Y244304D01*
Y245696D01*
X407967Y246983D01*
X406983Y247967D01*
X405696Y248500D01*
D02*
G37*
G36*
X386059Y242500D02*
X382500D01*
Y238941D01*
X382509Y238943D01*
X383991Y239799D01*
X385201Y241009D01*
X386057Y242491D01*
X386059Y242500D01*
D02*
G37*
G36*
X337500Y246059D02*
X337491Y246057D01*
X336009Y245201D01*
X334799Y243991D01*
X333943Y242509D01*
X333500Y240856D01*
Y239144D01*
X333736Y238265D01*
X333017Y237967D01*
X332033Y236983D01*
X331500Y235696D01*
Y234542D01*
X331046Y233954D01*
X330458Y233500D01*
X329304D01*
X328017Y232967D01*
X327033Y231983D01*
X326500Y230696D01*
Y229542D01*
X326046Y228954D01*
X325458Y228500D01*
X324304D01*
X323017Y227967D01*
X322033Y226983D01*
X321500Y225696D01*
Y224542D01*
X321046Y223954D01*
X320458Y223500D01*
X319304D01*
X318017Y222967D01*
X317033Y221983D01*
X316500Y220696D01*
Y219304D01*
X317033Y218017D01*
X318017Y217033D01*
X319304Y216500D01*
X320696D01*
X321983Y217033D01*
X322967Y218017D01*
X323500Y219304D01*
Y220458D01*
X323954Y221046D01*
X324542Y221500D01*
X325696D01*
X326983Y222033D01*
X327967Y223017D01*
X328500Y224304D01*
Y225458D01*
X328954Y226046D01*
X329542Y226500D01*
X330696D01*
X331983Y227033D01*
X332967Y228017D01*
X333500Y229304D01*
Y230458D01*
X333954Y231046D01*
X334542Y231500D01*
X335696D01*
X336983Y232033D01*
X337967Y233017D01*
X338265Y233736D01*
X339144Y233500D01*
X340856D01*
X342509Y233943D01*
X343991Y234799D01*
X345201Y236009D01*
X346057Y237491D01*
X346059Y237500D01*
X340000D01*
Y240000D01*
X337500D01*
Y246059D01*
D02*
G37*
G36*
X395696Y225000D02*
X394304D01*
X393017Y224467D01*
X392033Y223483D01*
X391500Y222196D01*
Y221042D01*
X391046Y220454D01*
X390458Y220000D01*
X389542D01*
X388954Y220454D01*
X388500Y221042D01*
Y222196D01*
X387967Y223483D01*
X386983Y224467D01*
X385696Y225000D01*
X384304D01*
X383017Y224467D01*
X382033Y223483D01*
X381500Y222196D01*
Y221042D01*
X381046Y220454D01*
X380458Y220000D01*
X379542D01*
X378954Y220454D01*
X378500Y221042D01*
Y222196D01*
X377967Y223483D01*
X376983Y224467D01*
X375696Y225000D01*
X374304D01*
X373017Y224467D01*
X372033Y223483D01*
X371500Y222196D01*
Y221042D01*
X371046Y220454D01*
X370458Y220000D01*
X369542D01*
X368954Y220454D01*
X368500Y221042D01*
Y222196D01*
X367967Y223483D01*
X366983Y224467D01*
X365696Y225000D01*
X364304D01*
X363017Y224467D01*
X362033Y223483D01*
X361500Y222196D01*
Y221042D01*
X361046Y220454D01*
X360458Y220000D01*
X359542D01*
X358954Y220454D01*
X358500Y221042D01*
Y222196D01*
X357967Y223483D01*
X356983Y224467D01*
X355696Y225000D01*
X354304D01*
X353017Y224467D01*
X352033Y223483D01*
X351500Y222196D01*
Y221042D01*
X351046Y220454D01*
X350458Y220000D01*
X349304D01*
X348017Y219467D01*
X347033Y218483D01*
X346500Y217196D01*
Y215804D01*
X347033Y214517D01*
X348017Y213533D01*
X349304Y213000D01*
X350696D01*
X351983Y213533D01*
X352967Y214517D01*
X353500Y215804D01*
Y216958D01*
X353954Y217546D01*
X354542Y218000D01*
X355458D01*
X356046Y217546D01*
X356500Y216958D01*
Y215804D01*
X357033Y214517D01*
X358017Y213533D01*
X359304Y213000D01*
X360696D01*
X361983Y213533D01*
X362967Y214517D01*
X363500Y215804D01*
Y216958D01*
X363954Y217546D01*
X364542Y218000D01*
X365458D01*
X366046Y217546D01*
X366500Y216958D01*
Y215804D01*
X367033Y214517D01*
X368017Y213533D01*
X369304Y213000D01*
X370696D01*
X371983Y213533D01*
X372967Y214517D01*
X373500Y215804D01*
Y216958D01*
X373954Y217546D01*
X374542Y218000D01*
X375458D01*
X376046Y217546D01*
X376500Y216958D01*
Y215804D01*
X377033Y214517D01*
X378017Y213533D01*
X379304Y213000D01*
X380696D01*
X381983Y213533D01*
X382967Y214517D01*
X383500Y215804D01*
Y216958D01*
X383954Y217546D01*
X384542Y218000D01*
X385458D01*
X386046Y217546D01*
X386500Y216958D01*
Y215804D01*
X387033Y214517D01*
X388017Y213533D01*
X389304Y213000D01*
X390696D01*
X391983Y213533D01*
X392967Y214517D01*
X393500Y215804D01*
Y216958D01*
X393954Y217546D01*
X394542Y218000D01*
X395458D01*
X396046Y217546D01*
X396500Y216958D01*
Y215804D01*
X397033Y214517D01*
X398017Y213533D01*
X399304Y213000D01*
X400696D01*
X401983Y213533D01*
X402967Y214517D01*
X403191Y215058D01*
X404304Y215972D01*
X405458D01*
X406046Y215518D01*
X406500Y214930D01*
Y213776D01*
X407033Y212489D01*
X408017Y211505D01*
X409304Y210972D01*
X410696D01*
X411983Y211505D01*
X412967Y212489D01*
X413500Y213776D01*
Y215168D01*
X412967Y216455D01*
X411983Y217439D01*
X410696Y217972D01*
X409542D01*
X408954Y218426D01*
X408500Y219014D01*
Y220168D01*
X407967Y221455D01*
X406983Y222439D01*
X405696Y222972D01*
X404304D01*
X403017Y222439D01*
X402033Y221455D01*
X401809Y220914D01*
X400696Y220000D01*
X399542D01*
X398954Y220454D01*
X398500Y221042D01*
Y222196D01*
X397967Y223483D01*
X396983Y224467D01*
X395696Y225000D01*
D02*
G37*
G36*
X340696Y218500D02*
X339304D01*
X338017Y217967D01*
X337033Y216983D01*
X336500Y215696D01*
Y214542D01*
X336046Y213954D01*
X335458Y213500D01*
X334304D01*
X333017Y212967D01*
X332033Y211983D01*
X331500Y210696D01*
Y209304D01*
X332033Y208017D01*
X333017Y207033D01*
X334304Y206500D01*
X335696D01*
X336983Y207033D01*
X337967Y208017D01*
X338500Y209304D01*
Y210458D01*
X338954Y211046D01*
X339542Y211500D01*
X340696D01*
X341983Y212033D01*
X342967Y213017D01*
X343500Y214304D01*
Y215696D01*
X342967Y216983D01*
X341983Y217967D01*
X340696Y218500D01*
D02*
G37*
G36*
X307104Y213219D02*
X305711D01*
X304425Y212686D01*
X303440Y211701D01*
X302908Y210415D01*
Y209022D01*
X303440Y207736D01*
X304425Y206751D01*
X305711Y206219D01*
X307104D01*
X308390Y206751D01*
X309375Y207736D01*
X309908Y209022D01*
Y210415D01*
X309375Y211701D01*
X308390Y212686D01*
X307104Y213219D01*
D02*
G37*
G36*
X311197Y192363D02*
Y188803D01*
X314756D01*
X314754Y188812D01*
X313898Y190294D01*
X312688Y191504D01*
X311206Y192360D01*
X311197Y192363D01*
D02*
G37*
G36*
X306197D02*
X306188Y192360D01*
X304706Y191504D01*
X303495Y190294D01*
X302640Y188812D01*
X302637Y188803D01*
X306197D01*
Y192363D01*
D02*
G37*
G36*
X285696Y192500D02*
X284304D01*
X283017Y191967D01*
X282033Y190983D01*
X281500Y189696D01*
Y188304D01*
X282033Y187018D01*
X283017Y186033D01*
X284304Y185500D01*
X285696D01*
X286983Y186033D01*
X287967Y187018D01*
X288500Y188304D01*
Y189696D01*
X287967Y190983D01*
X286983Y191967D01*
X285696Y192500D01*
D02*
G37*
G36*
X458400Y188797D02*
X453805D01*
Y184202D01*
X454200Y184308D01*
X455910Y185295D01*
X457307Y186692D01*
X458294Y188402D01*
X458400Y188797D01*
D02*
G37*
G36*
X448805D02*
X444211D01*
X444316Y188402D01*
X445304Y186692D01*
X446700Y185295D01*
X448410Y184308D01*
X448805Y184202D01*
Y188797D01*
D02*
G37*
G36*
X314756Y183803D02*
X311197D01*
Y180244D01*
X311206Y180246D01*
X312688Y181102D01*
X313898Y182312D01*
X314754Y183794D01*
X314756Y183803D01*
D02*
G37*
G36*
X306197D02*
X302637D01*
X302640Y183794D01*
X303495Y182312D01*
X304706Y181102D01*
X306188Y180246D01*
X306197Y180244D01*
Y183803D01*
D02*
G37*
G36*
X437196Y153500D02*
X435804D01*
X434517Y152967D01*
X433533Y151983D01*
X433000Y150696D01*
Y149304D01*
X433533Y148017D01*
X434517Y147033D01*
X435804Y146500D01*
X437196D01*
X438483Y147033D01*
X439467Y148017D01*
X440000Y149304D01*
Y150696D01*
X439467Y151983D01*
X438483Y152967D01*
X437196Y153500D01*
D02*
G37*
G36*
X395696D02*
X394304D01*
X393017Y152967D01*
X392033Y151983D01*
X391500Y150696D01*
Y149304D01*
X392033Y148017D01*
X393017Y147033D01*
X394304Y146500D01*
X395696D01*
X396983Y147033D01*
X397967Y148017D01*
X398500Y149304D01*
Y150696D01*
X397967Y151983D01*
X396983Y152967D01*
X395696Y153500D01*
D02*
G37*
G36*
X370696D02*
X369304D01*
X368017Y152967D01*
X367033Y151983D01*
X366500Y150696D01*
Y149304D01*
X367033Y148017D01*
X368017Y147033D01*
X369304Y146500D01*
X370696D01*
X371983Y147033D01*
X372967Y148017D01*
X373500Y149304D01*
Y150696D01*
X372967Y151983D01*
X371983Y152967D01*
X370696Y153500D01*
D02*
G37*
G36*
X360696D02*
X359304D01*
X358017Y152967D01*
X357033Y151983D01*
X356500Y150696D01*
Y149304D01*
X357033Y148017D01*
X358017Y147033D01*
X359304Y146500D01*
X360696D01*
X361983Y147033D01*
X362967Y148017D01*
X363500Y149304D01*
Y150696D01*
X362967Y151983D01*
X361983Y152967D01*
X360696Y153500D01*
D02*
G37*
G36*
X380696Y118500D02*
X379304D01*
X378017Y117967D01*
X377033Y116983D01*
X376500Y115696D01*
Y114304D01*
X377033Y113017D01*
X378017Y112033D01*
X379304Y111500D01*
X380696D01*
X381983Y112033D01*
X382967Y113017D01*
X383500Y114304D01*
Y115696D01*
X382967Y116983D01*
X381983Y117967D01*
X380696Y118500D01*
D02*
G37*
%LPD*%
D11*
X495000Y260000D02*
Y397383D01*
Y260000D02*
X500000Y255000D01*
D15*
X263128Y222143D02*
Y243108D01*
X273601Y253581D01*
Y256203D01*
X284073Y266675D01*
X270000Y308636D02*
Y350000D01*
X279500Y237228D02*
Y256445D01*
X268636Y226364D02*
X279500Y237228D01*
X273139Y301633D02*
X276272Y298500D01*
X279500Y289615D02*
Y291864D01*
X283500Y291272D02*
X288073Y286699D01*
X270500Y288136D02*
X273136Y285500D01*
X274615Y294500D02*
X276864D01*
X278521Y298500D02*
X283500Y293521D01*
Y291272D02*
Y293521D01*
X270500Y288136D02*
Y292959D01*
X269139Y299976D02*
X274615Y294500D01*
X265139Y298319D02*
X270500Y292959D01*
X279500Y289615D02*
X284073Y285042D01*
X276272Y298500D02*
X278521D01*
X273136Y285500D02*
X274546D01*
X280073Y279972D01*
X276864Y294500D02*
X279500Y291864D01*
X265139Y298319D02*
Y300761D01*
X269139Y299976D02*
Y303840D01*
X273139Y301633D02*
Y305497D01*
X270000Y308636D02*
X273139Y305497D01*
X230105Y342874D02*
X269139Y303840D01*
X231869Y334031D02*
X265139Y300761D01*
X280073Y269500D02*
Y279972D01*
X271377Y260804D02*
X280073Y269500D01*
X288073Y265018D02*
Y286699D01*
X284073Y266675D02*
Y285042D01*
X279500Y256445D02*
X288073Y265018D01*
X261636Y217000D02*
X266864D01*
X263579Y221691D02*
X264809D01*
X265000Y221500D01*
X269864Y220000D02*
X275000D01*
X266864Y217000D02*
X269864Y220000D01*
X259128Y219508D02*
X261636Y217000D01*
X263128Y222143D02*
X263579Y221691D01*
X185000Y285000D02*
X232021D01*
X259128Y252107D02*
X267824Y260804D01*
X259128Y219508D02*
Y252107D01*
X267824Y260804D02*
X271377D01*
X226750Y336980D02*
X229698Y334031D01*
X226479Y336980D02*
X226750D01*
X229698Y334031D02*
X231869D01*
X230105Y342874D02*
Y343143D01*
X234500Y275000D02*
X257818D01*
X237021Y280000D02*
X273682D01*
X273491Y271813D02*
X273682Y271622D01*
X258818Y276000D02*
X265500D01*
X269687Y271813D02*
X273491D01*
X265500Y276000D02*
X269687Y271813D01*
X257818Y275000D02*
X258818Y276000D01*
X232021Y285000D02*
X237021Y280000D01*
X185000Y260000D02*
X208636D01*
X228136Y279500D01*
X231864D01*
X234500Y275000D02*
Y276864D01*
X231864Y279500D02*
X234500Y276864D01*
D19*
X415000Y535000D02*
D03*
X445000D02*
D03*
X415000Y565000D02*
D03*
X445000D02*
D03*
X475000D02*
D03*
D75*
X324712Y305000D02*
X332071D01*
X288257Y341455D02*
X324712Y305000D01*
X288257Y341455D02*
Y342257D01*
X287500Y343015D02*
X288257Y342257D01*
X419594Y304612D02*
X424594Y299612D01*
X332071Y305000D02*
X332459Y304612D01*
X419594D01*
X135000Y335000D02*
X145810D01*
X130000Y340000D02*
X135000Y335000D01*
X145810D02*
X150000Y339190D01*
X189478D01*
X249107Y391500D02*
X255450Y385157D01*
X200288Y350000D02*
X203500D01*
X245000Y391500D01*
X249107D01*
X189478Y339190D02*
X200288Y350000D01*
X287500Y343015D02*
Y373420D01*
X255450Y385157D02*
X275763D01*
X287500Y373420D01*
X424594Y299612D02*
X427934D01*
X428143Y299402D01*
X200861Y46976D02*
X202837Y45000D01*
X215000D01*
X130326Y46976D02*
X200861D01*
X122000Y38650D02*
X130326Y46976D01*
D76*
X365405Y332059D02*
Y335739D01*
X304595Y396549D02*
X365405Y335739D01*
X271659Y396905D02*
X292905Y375659D01*
X378467Y310017D02*
X431665D01*
X167761Y405405D02*
X297239D01*
X134595Y372239D02*
X167761Y405405D01*
X187239Y344595D02*
X239549Y396905D01*
X292905Y352761D02*
X317571Y328095D01*
X381097Y316367D02*
X426665D01*
X292905Y352761D02*
Y375659D01*
X114880Y350656D02*
X141700D01*
X239549Y396905D02*
X271659D01*
X360389Y328095D02*
X378467Y310017D01*
X141700Y350656D02*
X147761Y344595D01*
X317571Y328095D02*
X360389D01*
X297239Y405405D02*
X304595Y398049D01*
Y396549D02*
Y398049D01*
X365405Y332059D02*
X381097Y316367D01*
X105000Y284371D02*
Y330000D01*
X147761Y344595D02*
X187239D01*
X102768Y275790D02*
X106384Y272174D01*
X97380Y284371D02*
Y333156D01*
X134595Y359238D02*
Y372239D01*
X99612Y282139D02*
X102768D01*
X97380Y333156D02*
X114880Y350656D01*
X91030Y281741D02*
Y335787D01*
X102768Y282139D02*
X105000Y284371D01*
X132363Y357006D02*
X134595Y359238D01*
X97380Y284371D02*
X99612Y282139D01*
X96982Y275790D02*
X102768D01*
X112250Y357006D02*
X132363D01*
X91030Y281741D02*
X96982Y275790D01*
X91030Y335787D02*
X112250Y357006D01*
X106384Y233616D02*
X110000Y230000D01*
X106384Y233616D02*
Y272174D01*
D77*
X448939Y131061D02*
X514257Y196379D01*
Y198500D01*
X419379Y101500D02*
X448939Y131061D01*
X416846Y101500D02*
X419379D01*
X447879Y132121D02*
X448939Y131061D01*
D78*
X440000Y220000D02*
X460000Y200000D01*
X512757D01*
X514257Y198500D01*
X247053Y382947D02*
X252343Y377657D01*
X280000Y315607D02*
Y370314D01*
X272657Y377657D02*
X280000Y370314D01*
X252343Y377657D02*
X272657D01*
X215179Y445179D02*
X225000Y455000D01*
X293950D01*
X328950Y420000D01*
X301995Y226681D02*
Y293612D01*
X280000Y315607D02*
X301995Y293612D01*
X285314Y210000D02*
X301995Y226681D01*
X365000Y435000D02*
X532617D01*
X360000Y440000D02*
X365000Y435000D01*
X229286Y210000D02*
X285314D01*
X222143Y202857D02*
X229286Y210000D01*
X222143Y181536D02*
Y202857D01*
Y181536D02*
X288179Y115500D01*
X320000D01*
X495000Y397383D02*
X532617Y435000D01*
X500000Y224697D02*
Y255000D01*
X358893Y115500D02*
X381393Y93000D01*
X513230Y213669D02*
X524257Y202642D01*
X511027Y213669D02*
X513230D01*
X500000Y224697D02*
X511027Y213669D01*
X524257Y194358D02*
Y202642D01*
X445757Y130000D02*
X447879Y132121D01*
X381393Y93000D02*
X422900D01*
X320000Y115500D02*
X358893D01*
X295000Y130000D02*
X445757D01*
X422900Y93000D02*
X524257Y194358D01*
X440000Y220000D02*
Y383775D01*
X432550Y391225D02*
X440000Y383775D01*
X432550Y391225D02*
Y425000D01*
X427550Y420000D02*
X432550Y425000D01*
X270000Y155000D02*
Y170000D01*
X245000Y195000D02*
X270000Y170000D01*
Y155000D02*
X295000Y130000D01*
X328950Y420000D02*
X427550D01*
D79*
X475000Y535000D02*
D03*
D80*
X504690Y573890D02*
D03*
X385310D02*
D03*
D81*
X550000Y50000D02*
D03*
X50000Y550000D02*
D03*
X550000D02*
D03*
X50000Y50000D02*
D03*
D82*
X54250Y483750D02*
D03*
Y442250D02*
D03*
X550000Y77500D02*
D03*
X570000Y70000D02*
D03*
X577500Y50000D02*
D03*
X570000Y30000D02*
D03*
X550000Y22500D02*
D03*
X530000Y30000D02*
D03*
X522500Y50000D02*
D03*
X530000Y70000D02*
D03*
X50000Y577500D02*
D03*
X70000Y570000D02*
D03*
X77500Y550000D02*
D03*
X70000Y530000D02*
D03*
X50000Y522500D02*
D03*
X30000Y530000D02*
D03*
X22500Y550000D02*
D03*
X30000Y570000D02*
D03*
X550000Y577500D02*
D03*
X570000Y570000D02*
D03*
X577500Y550000D02*
D03*
X570000Y530000D02*
D03*
X550000Y522500D02*
D03*
X530000Y530000D02*
D03*
X522500Y550000D02*
D03*
X530000Y570000D02*
D03*
X30000Y70000D02*
D03*
X22500Y50000D02*
D03*
X30000Y30000D02*
D03*
X50000Y22500D02*
D03*
X70000Y30000D02*
D03*
X77500Y50000D02*
D03*
X70000Y70000D02*
D03*
X50000Y77500D02*
D03*
D83*
X340400Y570000D02*
D03*
X289600D02*
D03*
X315000D02*
D03*
D84*
X185400Y585000D02*
D03*
X160000D02*
D03*
X25000Y215800D02*
D03*
Y266600D02*
D03*
Y241200D02*
D03*
Y190400D02*
D03*
Y165000D02*
D03*
D85*
X134600Y585000D02*
D03*
D86*
X25000Y292000D02*
D03*
D87*
X22250Y323750D02*
D03*
Y386250D02*
D03*
D88*
X25000Y127700D02*
D03*
Y102300D02*
D03*
D89*
X325000Y300000D02*
D03*
X503731Y373135D02*
D03*
X429469Y363790D02*
D03*
X407701Y364993D02*
D03*
X397501D02*
D03*
X488245Y378629D02*
D03*
X527138Y377456D02*
D03*
X553532Y366869D02*
D03*
X576635Y373074D02*
D03*
X586537Y372677D02*
D03*
X330000Y310000D02*
D03*
Y265000D02*
D03*
X265136Y251480D02*
D03*
X260682Y268200D02*
D03*
X509896Y373835D02*
D03*
X460253Y119747D02*
D03*
X425000Y335000D02*
D03*
X200000Y420000D02*
D03*
X250000D02*
D03*
X280000Y400000D02*
D03*
X295000D02*
D03*
X130000Y340000D02*
D03*
X298310Y355000D02*
D03*
X105000Y330000D02*
D03*
X190000Y360000D02*
D03*
X185000Y350000D02*
D03*
X180000Y355000D02*
D03*
X230000Y395000D02*
D03*
X272500Y360000D02*
D03*
X270000Y350000D02*
D03*
X428143Y299402D02*
D03*
X422960Y294804D02*
D03*
X423462Y225771D02*
D03*
X431665Y230271D02*
D03*
X423796Y219364D02*
D03*
X410000Y214472D02*
D03*
X429932Y220495D02*
D03*
X268636Y226364D02*
D03*
X252524Y172476D02*
D03*
X275000Y462500D02*
D03*
X115000Y250000D02*
D03*
X178822Y326178D02*
D03*
X325000Y341364D02*
D03*
X320000Y333500D02*
D03*
X315000Y339500D02*
D03*
X330000Y333500D02*
D03*
X305000Y363255D02*
D03*
X345000Y338500D02*
D03*
X340000Y333500D02*
D03*
X335000Y338500D02*
D03*
X350000Y333500D02*
D03*
X355000Y338500D02*
D03*
X360000Y333500D02*
D03*
X426665Y316367D02*
D03*
Y304612D02*
D03*
X230000Y365000D02*
D03*
X360000Y44063D02*
D03*
X380000Y445000D02*
D03*
X405000D02*
D03*
X275000Y290000D02*
D03*
Y310000D02*
D03*
X231475Y217500D02*
D03*
X265000Y221500D02*
D03*
X306408Y209719D02*
D03*
X306495Y220000D02*
D03*
X235303Y180303D02*
D03*
X214643Y185000D02*
D03*
X250303Y165303D02*
D03*
X255000Y125000D02*
D03*
X416846Y101500D02*
D03*
X505253Y164747D02*
D03*
X507500Y227803D02*
D03*
X433500Y92994D02*
D03*
X370000Y88359D02*
D03*
X410000Y60250D02*
D03*
X505000Y134144D02*
D03*
X515000Y155000D02*
D03*
X530000Y175000D02*
D03*
X431665Y280007D02*
D03*
Y310017D02*
D03*
Y290007D02*
D03*
Y320007D02*
D03*
Y270007D02*
D03*
X426665Y285007D02*
D03*
X428165Y275007D02*
D03*
X420000Y405000D02*
D03*
X419069Y365931D02*
D03*
X415000Y330000D02*
D03*
X453198Y339943D02*
D03*
X460000Y280000D02*
D03*
X463418Y296582D02*
D03*
X239834Y185618D02*
D03*
X396500Y486500D02*
D03*
X215179Y445179D02*
D03*
X169478Y75522D02*
D03*
X145000Y100000D02*
D03*
X120000Y125000D02*
D03*
X125000Y170000D02*
D03*
X140000Y210000D02*
D03*
X100000Y170000D02*
D03*
X125000Y260000D02*
D03*
X110000Y230000D02*
D03*
X180000Y485000D02*
D03*
X273682Y271622D02*
D03*
Y280000D02*
D03*
X275000Y220000D02*
D03*
X267500Y202500D02*
D03*
X226479Y336980D02*
D03*
X230105Y343143D02*
D03*
X230005Y329531D02*
D03*
X230000Y320000D02*
D03*
X380000Y245000D02*
D03*
X340000Y240000D02*
D03*
X75292Y185713D02*
D03*
X255000Y435000D02*
D03*
X215000Y45000D02*
D03*
X308697Y186303D02*
D03*
X45000Y385000D02*
D03*
X445000Y455000D02*
D03*
X565000Y496500D02*
D03*
X485000Y485000D02*
D03*
X540000Y365000D02*
D03*
X319000Y300000D02*
D03*
X405000Y245000D02*
D03*
X370000D02*
D03*
X415000Y280000D02*
D03*
X560000Y208500D02*
D03*
X575000Y163500D02*
D03*
X170000Y430000D02*
D03*
Y385000D02*
D03*
X140000Y370000D02*
D03*
X110000Y465000D02*
D03*
X75059Y440000D02*
D03*
X85000Y525000D02*
D03*
X40000Y355000D02*
D03*
Y365000D02*
D03*
X229643Y184643D02*
D03*
X436500Y150000D02*
D03*
X365000Y60000D02*
D03*
X285000Y85000D02*
D03*
Y189000D02*
D03*
X145000Y355000D02*
D03*
X595000Y515000D02*
D03*
X64249Y440000D02*
D03*
X122000Y38650D02*
D03*
X280000Y75000D02*
D03*
X220000Y55000D02*
D03*
X370000Y80000D02*
D03*
X320000Y85000D02*
D03*
X380000Y115000D02*
D03*
X370000D02*
D03*
X395000Y150000D02*
D03*
X574595Y325000D02*
D03*
X540000Y310000D02*
D03*
X80000Y450000D02*
D03*
X15000Y515000D02*
D03*
X231475Y224318D02*
D03*
X195053Y179947D02*
D03*
X234500Y229997D02*
D03*
X115000Y385000D02*
D03*
X329300Y39012D02*
D03*
X555000Y185000D02*
D03*
X370000Y15000D02*
D03*
X328728Y32443D02*
D03*
X579190Y230000D02*
D03*
X580000Y240000D02*
D03*
X540000Y230000D02*
D03*
X586350Y300000D02*
D03*
X565000Y315000D02*
D03*
X560000Y280000D02*
D03*
X565000Y395000D02*
D03*
X480000Y405000D02*
D03*
X476368Y376279D02*
D03*
X185000Y70000D02*
D03*
X365000Y75000D02*
D03*
X190769Y41976D02*
D03*
X225000Y15000D02*
D03*
X447694Y474147D02*
D03*
X380000Y400000D02*
D03*
X65000Y335000D02*
D03*
X230000Y265000D02*
D03*
X405000Y219472D02*
D03*
X185000Y85000D02*
D03*
Y285000D02*
D03*
Y260000D02*
D03*
X265000Y285000D02*
D03*
X230000Y275000D02*
D03*
X140000Y300000D02*
D03*
X70000Y120000D02*
D03*
X285000Y95000D02*
D03*
X325000Y260000D02*
D03*
X122000Y51350D02*
D03*
X214500Y65750D02*
D03*
X89750Y405000D02*
D03*
X335000Y235000D02*
D03*
X330000Y230000D02*
D03*
X320000Y220000D02*
D03*
X325000Y225000D02*
D03*
X285000Y202000D02*
D03*
X270000Y185000D02*
D03*
X230000Y290000D02*
D03*
Y300000D02*
D03*
Y310000D02*
D03*
Y350000D02*
D03*
X310000Y400000D02*
D03*
X320000D02*
D03*
X330000D02*
D03*
X345000D02*
D03*
X360000Y150000D02*
D03*
X370000D02*
D03*
X340000Y215000D02*
D03*
X335000Y210000D02*
D03*
X350000Y216500D02*
D03*
X355000Y221500D02*
D03*
X360000Y216500D02*
D03*
X365000Y221500D02*
D03*
X370000Y216500D02*
D03*
X375000Y221500D02*
D03*
X380000Y216500D02*
D03*
X385000Y221500D02*
D03*
X390000Y216500D02*
D03*
X395000Y221500D02*
D03*
X400000Y216500D02*
D03*
X426665Y265007D02*
D03*
X431665Y250007D02*
D03*
X426665Y245007D02*
D03*
X431665Y240007D02*
D03*
X426665Y235007D02*
D03*
X238770Y492000D02*
D03*
X225000Y500000D02*
D03*
X325000Y505000D02*
D03*
X184970Y502941D02*
D03*
X185000Y560000D02*
D03*
X130000Y535000D02*
D03*
X105000Y480000D02*
D03*
Y450000D02*
D03*
X65000Y505000D02*
D03*
X510000Y460000D02*
D03*
X544500Y464875D02*
D03*
D90*
X451305Y191297D02*
D03*
X430000Y70000D02*
D03*
X247053Y382947D02*
D03*
X514257Y198500D02*
D03*
X500000Y255000D02*
D03*
X532617Y435000D02*
D03*
X245000Y195000D02*
D03*
X295000Y130000D02*
D03*
X432550Y425000D02*
D03*
X360000Y440000D02*
D03*
X320000Y115500D02*
D03*
M02*
