G04*
G04 #@! TF.GenerationSoftware,Altium Limited,Altium Designer,23.11.1 (41)*
G04*
G04 Layer_Color=128*
%FSLAX44Y44*%
%MOMM*%
G71*
G04*
G04 #@! TF.SameCoordinates,47BC51C5-C70F-4843-9F8A-4785544E9BB8*
G04*
G04*
G04 #@! TF.FilePolarity,Positive*
G04*
G01*
G75*
%ADD17R,1.3000X0.9000*%
%ADD18R,0.9000X1.3000*%
%ADD20R,1.3500X1.1500*%
%ADD91R,1.2000X1.6000*%
%ADD92R,1.1500X1.3500*%
%ADD93R,1.4000X1.9500*%
%ADD94R,1.9500X1.4000*%
%ADD95R,0.7500X2.4000*%
%ADD96R,2.4000X0.7500*%
G04:AMPARAMS|DCode=97|XSize=1.75mm|YSize=1.25mm|CornerRadius=0.3125mm|HoleSize=0mm|Usage=FLASHONLY|Rotation=180.000|XOffset=0mm|YOffset=0mm|HoleType=Round|Shape=RoundedRectangle|*
%AMROUNDEDRECTD97*
21,1,1.7500,0.6250,0,0,180.0*
21,1,1.1250,1.2500,0,0,180.0*
1,1,0.6250,-0.5625,0.3125*
1,1,0.6250,0.5625,0.3125*
1,1,0.6250,0.5625,-0.3125*
1,1,0.6250,-0.5625,-0.3125*
%
%ADD97ROUNDEDRECTD97*%
D17*
X540000Y383500D02*
D03*
Y406500D02*
D03*
X515000Y383500D02*
D03*
Y406500D02*
D03*
X565000Y163500D02*
D03*
Y186500D02*
D03*
X570000Y208500D02*
D03*
Y231500D02*
D03*
X585000Y186500D02*
D03*
Y163500D02*
D03*
X550000Y231500D02*
D03*
Y208500D02*
D03*
X130000Y275500D02*
D03*
Y294500D02*
D03*
Y180500D02*
D03*
Y199500D02*
D03*
X385000Y256000D02*
D03*
Y275000D02*
D03*
X405000Y255500D02*
D03*
Y274500D02*
D03*
X365000Y256000D02*
D03*
Y275000D02*
D03*
X345000Y255500D02*
D03*
Y274500D02*
D03*
Y301000D02*
D03*
Y320000D02*
D03*
X405000Y300500D02*
D03*
Y319500D02*
D03*
X365000Y300500D02*
D03*
Y319500D02*
D03*
X385000Y300500D02*
D03*
Y319500D02*
D03*
X250000Y35000D02*
D03*
Y54000D02*
D03*
X275000Y35000D02*
D03*
Y54000D02*
D03*
X160000Y35500D02*
D03*
Y54500D02*
D03*
X140000Y35500D02*
D03*
Y54500D02*
D03*
X75000Y374000D02*
D03*
Y355000D02*
D03*
X130000Y356000D02*
D03*
Y375000D02*
D03*
X90000Y510000D02*
D03*
Y491000D02*
D03*
Y471500D02*
D03*
Y448500D02*
D03*
X120000Y466500D02*
D03*
Y443500D02*
D03*
Y510000D02*
D03*
Y491000D02*
D03*
X185000Y444500D02*
D03*
Y425500D02*
D03*
Y385500D02*
D03*
Y404500D02*
D03*
X555000Y473500D02*
D03*
Y496500D02*
D03*
X575000Y473500D02*
D03*
Y496500D02*
D03*
X495000Y463250D02*
D03*
Y486250D02*
D03*
D18*
X385650Y235000D02*
D03*
X404650D02*
D03*
X350650D02*
D03*
X369650D02*
D03*
X295500Y310000D02*
D03*
X314500D02*
D03*
D20*
X385000Y94250D02*
D03*
Y75750D02*
D03*
X205000Y56500D02*
D03*
Y75000D02*
D03*
Y15750D02*
D03*
Y34250D02*
D03*
X350000Y93500D02*
D03*
Y75000D02*
D03*
X300000Y94250D02*
D03*
Y75750D02*
D03*
X405000Y94250D02*
D03*
Y75750D02*
D03*
X55000Y373500D02*
D03*
Y355000D02*
D03*
X99875Y355375D02*
D03*
Y373875D02*
D03*
X210000Y480750D02*
D03*
Y499250D02*
D03*
X305000Y534250D02*
D03*
Y515750D02*
D03*
X235000Y455750D02*
D03*
Y474250D02*
D03*
X125000Y400750D02*
D03*
Y419250D02*
D03*
X100000Y405000D02*
D03*
Y423500D02*
D03*
D91*
X79500Y120000D02*
D03*
X110500D02*
D03*
D92*
X314250Y260000D02*
D03*
X295750D02*
D03*
D93*
X291000Y285000D02*
D03*
X319000D02*
D03*
D94*
X75000Y229000D02*
D03*
Y201000D02*
D03*
D95*
X432550Y130500D02*
D03*
X419850D02*
D03*
X407150D02*
D03*
X394450D02*
D03*
X381750D02*
D03*
X432550Y169500D02*
D03*
X419850D02*
D03*
X407150D02*
D03*
X394450D02*
D03*
X381750D02*
D03*
X369050Y130500D02*
D03*
X356350D02*
D03*
X369050Y169500D02*
D03*
X356350D02*
D03*
X343650Y130500D02*
D03*
Y169500D02*
D03*
X267450Y130500D02*
D03*
Y169500D02*
D03*
X280150D02*
D03*
Y130500D02*
D03*
X292850Y169500D02*
D03*
Y130500D02*
D03*
X305550Y169500D02*
D03*
Y130500D02*
D03*
X318250Y169500D02*
D03*
X330950D02*
D03*
X318250Y130500D02*
D03*
X330950D02*
D03*
X432550Y380500D02*
D03*
X419850D02*
D03*
X407150D02*
D03*
X394450D02*
D03*
X381750D02*
D03*
X432550Y419500D02*
D03*
X419850D02*
D03*
X407150D02*
D03*
X394450D02*
D03*
X381750D02*
D03*
X369050Y380500D02*
D03*
X356350D02*
D03*
X369050Y419500D02*
D03*
X356350D02*
D03*
X343650Y380500D02*
D03*
Y419500D02*
D03*
X267450Y380500D02*
D03*
Y419500D02*
D03*
X280150D02*
D03*
Y380500D02*
D03*
X292850Y419500D02*
D03*
Y380500D02*
D03*
X305550Y419500D02*
D03*
Y380500D02*
D03*
X318250Y419500D02*
D03*
X330950D02*
D03*
X318250Y380500D02*
D03*
X330950D02*
D03*
D96*
X210500Y197450D02*
D03*
Y210150D02*
D03*
Y222850D02*
D03*
Y235550D02*
D03*
Y248250D02*
D03*
X249500Y197450D02*
D03*
Y210150D02*
D03*
Y222850D02*
D03*
Y235550D02*
D03*
Y248250D02*
D03*
X210500Y260950D02*
D03*
Y273650D02*
D03*
X249500Y260950D02*
D03*
Y273650D02*
D03*
X210500Y286350D02*
D03*
X249500D02*
D03*
X210500Y362550D02*
D03*
X249500D02*
D03*
Y349850D02*
D03*
X210500D02*
D03*
X249500Y337150D02*
D03*
X210500D02*
D03*
X249500Y324450D02*
D03*
X210500D02*
D03*
X249500Y311750D02*
D03*
Y299050D02*
D03*
X210500Y311750D02*
D03*
Y299050D02*
D03*
X480500Y197450D02*
D03*
Y210150D02*
D03*
Y222850D02*
D03*
Y235550D02*
D03*
Y248250D02*
D03*
X519500Y197450D02*
D03*
Y210150D02*
D03*
Y222850D02*
D03*
Y235550D02*
D03*
Y248250D02*
D03*
X480500Y260950D02*
D03*
Y273650D02*
D03*
X519500Y260950D02*
D03*
Y273650D02*
D03*
X480500Y286350D02*
D03*
X519500D02*
D03*
X480500Y362550D02*
D03*
X519500D02*
D03*
Y349850D02*
D03*
X480500D02*
D03*
X519500Y337150D02*
D03*
X480500D02*
D03*
X519500Y324450D02*
D03*
X480500D02*
D03*
X519500Y311750D02*
D03*
Y299050D02*
D03*
X480500Y311750D02*
D03*
Y299050D02*
D03*
D97*
X150000Y505750D02*
D03*
Y534250D02*
D03*
X526000Y467750D02*
D03*
Y496250D02*
D03*
M02*
