G04*
G04 #@! TF.GenerationSoftware,Altium Limited,Altium Designer,23.11.1 (41)*
G04*
G04 Layer_Color=16711935*
%FSLAX44Y44*%
%MOMM*%
G71*
G04*
G04 #@! TF.SameCoordinates,6A4E213B-EB00-483D-B04E-4E1FD21C6EA7*
G04*
G04*
G04 #@! TF.FilePolarity,Negative*
G04*
G01*
G75*
%ADD40R,1.5032X1.1032*%
%ADD41R,1.1032X1.5032*%
%ADD42C,2.2032*%
%ADD43R,1.5532X1.3532*%
G04:AMPARAMS|DCode=63|XSize=2.2032mm|YSize=2.2032mm|CornerRadius=0.6016mm|HoleSize=0mm|Usage=FLASHONLY|Rotation=90.000|XOffset=0mm|YOffset=0mm|HoleType=Round|Shape=RoundedRectangle|*
%AMROUNDEDRECTD63*
21,1,2.2032,1.0000,0,0,90.0*
21,1,1.0000,2.2032,0,0,90.0*
1,1,1.2032,0.5000,0.5000*
1,1,1.2032,0.5000,-0.5000*
1,1,1.2032,-0.5000,-0.5000*
1,1,1.2032,-0.5000,0.5000*
%
%ADD63ROUNDEDRECTD63*%
%ADD64C,1.4032*%
%ADD65C,7.2032*%
%ADD66C,0.9032*%
%ADD67C,1.7032*%
%ADD68C,1.8032*%
G04:AMPARAMS|DCode=69|XSize=1.8032mm|YSize=1.8032mm|CornerRadius=0.5016mm|HoleSize=0mm|Usage=FLASHONLY|Rotation=0.000|XOffset=0mm|YOffset=0mm|HoleType=Round|Shape=RoundedRectangle|*
%AMROUNDEDRECTD69*
21,1,1.8032,0.8000,0,0,0.0*
21,1,0.8000,1.8032,0,0,0.0*
1,1,1.0032,0.4000,-0.4000*
1,1,1.0032,-0.4000,-0.4000*
1,1,1.0032,-0.4000,0.4000*
1,1,1.0032,0.4000,0.4000*
%
%ADD69ROUNDEDRECTD69*%
G04:AMPARAMS|DCode=70|XSize=1.8032mm|YSize=1.8032mm|CornerRadius=0.5016mm|HoleSize=0mm|Usage=FLASHONLY|Rotation=270.000|XOffset=0mm|YOffset=0mm|HoleType=Round|Shape=RoundedRectangle|*
%AMROUNDEDRECTD70*
21,1,1.8032,0.8000,0,0,270.0*
21,1,0.8000,1.8032,0,0,270.0*
1,1,1.0032,-0.4000,-0.4000*
1,1,1.0032,-0.4000,0.4000*
1,1,1.0032,0.4000,0.4000*
1,1,1.0032,0.4000,-0.4000*
%
%ADD70ROUNDEDRECTD70*%
%ADD71C,1.5032*%
%ADD72C,2.0032*%
%ADD73C,0.5032*%
%ADD74C,0.7032*%
%ADD99R,1.4032X1.8032*%
%ADD100R,1.3532X1.5532*%
%ADD101R,1.6032X2.1532*%
%ADD102R,2.1532X1.6032*%
%ADD103R,0.9532X2.6032*%
%ADD104R,2.6032X0.9532*%
G04:AMPARAMS|DCode=105|XSize=1.9532mm|YSize=1.4532mm|CornerRadius=0.4141mm|HoleSize=0mm|Usage=FLASHONLY|Rotation=180.000|XOffset=0mm|YOffset=0mm|HoleType=Round|Shape=RoundedRectangle|*
%AMROUNDEDRECTD105*
21,1,1.9532,0.6250,0,0,180.0*
21,1,1.1250,1.4532,0,0,180.0*
1,1,0.8282,-0.5625,0.3125*
1,1,0.8282,0.5625,0.3125*
1,1,0.8282,0.5625,-0.3125*
1,1,0.8282,-0.5625,-0.3125*
%
%ADD105ROUNDEDRECTD105*%
D40*
X540000Y383500D02*
D03*
Y406500D02*
D03*
X515000Y383500D02*
D03*
Y406500D02*
D03*
X565000Y163500D02*
D03*
Y186500D02*
D03*
X570000Y208500D02*
D03*
Y231500D02*
D03*
X585000Y186500D02*
D03*
Y163500D02*
D03*
X550000Y231500D02*
D03*
Y208500D02*
D03*
X130000Y275500D02*
D03*
Y294500D02*
D03*
Y180500D02*
D03*
Y199500D02*
D03*
X385000Y256000D02*
D03*
Y275000D02*
D03*
X405000Y255500D02*
D03*
Y274500D02*
D03*
X365000Y256000D02*
D03*
Y275000D02*
D03*
X345000Y255500D02*
D03*
Y274500D02*
D03*
Y301000D02*
D03*
Y320000D02*
D03*
X405000Y300500D02*
D03*
Y319500D02*
D03*
X365000Y300500D02*
D03*
Y319500D02*
D03*
X385000Y300500D02*
D03*
Y319500D02*
D03*
X250000Y35000D02*
D03*
Y54000D02*
D03*
X275000Y35000D02*
D03*
Y54000D02*
D03*
X160000Y35500D02*
D03*
Y54500D02*
D03*
X140000Y35500D02*
D03*
Y54500D02*
D03*
X75000Y374000D02*
D03*
Y355000D02*
D03*
X130000Y356000D02*
D03*
Y375000D02*
D03*
X90000Y510000D02*
D03*
Y491000D02*
D03*
Y471500D02*
D03*
Y448500D02*
D03*
X120000Y466500D02*
D03*
Y443500D02*
D03*
Y510000D02*
D03*
Y491000D02*
D03*
X185000Y444500D02*
D03*
Y425500D02*
D03*
Y385500D02*
D03*
Y404500D02*
D03*
X555000Y473500D02*
D03*
Y496500D02*
D03*
X575000Y473500D02*
D03*
Y496500D02*
D03*
X495000Y463250D02*
D03*
Y486250D02*
D03*
D41*
X385650Y235000D02*
D03*
X404650D02*
D03*
X350650D02*
D03*
X369650D02*
D03*
X295500Y310000D02*
D03*
X314500D02*
D03*
D42*
X415000Y535000D02*
D03*
X445000D02*
D03*
X415000Y565000D02*
D03*
X445000D02*
D03*
X475000D02*
D03*
D43*
X385000Y94250D02*
D03*
Y75750D02*
D03*
X205000Y56500D02*
D03*
Y75000D02*
D03*
Y15750D02*
D03*
Y34250D02*
D03*
X350000Y93500D02*
D03*
Y75000D02*
D03*
X300000Y94250D02*
D03*
Y75750D02*
D03*
X405000Y94250D02*
D03*
Y75750D02*
D03*
X55000Y373500D02*
D03*
Y355000D02*
D03*
X99875Y355375D02*
D03*
Y373875D02*
D03*
X210000Y480750D02*
D03*
Y499250D02*
D03*
X305000Y534250D02*
D03*
Y515750D02*
D03*
X235000Y455750D02*
D03*
Y474250D02*
D03*
X125000Y400750D02*
D03*
Y419250D02*
D03*
X100000Y405000D02*
D03*
Y423500D02*
D03*
D63*
X475000Y535000D02*
D03*
D64*
X504690Y573890D02*
D03*
X385310D02*
D03*
D65*
X550000Y50000D02*
D03*
X50000Y550000D02*
D03*
X550000D02*
D03*
X50000Y50000D02*
D03*
D66*
X54250Y483750D02*
D03*
Y442250D02*
D03*
X550000Y77500D02*
D03*
X570000Y70000D02*
D03*
X577500Y50000D02*
D03*
X570000Y30000D02*
D03*
X550000Y22500D02*
D03*
X530000Y30000D02*
D03*
X522500Y50000D02*
D03*
X530000Y70000D02*
D03*
X50000Y577500D02*
D03*
X70000Y570000D02*
D03*
X77500Y550000D02*
D03*
X70000Y530000D02*
D03*
X50000Y522500D02*
D03*
X30000Y530000D02*
D03*
X22500Y550000D02*
D03*
X30000Y570000D02*
D03*
X550000Y577500D02*
D03*
X570000Y570000D02*
D03*
X577500Y550000D02*
D03*
X570000Y530000D02*
D03*
X550000Y522500D02*
D03*
X530000Y530000D02*
D03*
X522500Y550000D02*
D03*
X530000Y570000D02*
D03*
X30000Y70000D02*
D03*
X22500Y50000D02*
D03*
X30000Y30000D02*
D03*
X50000Y22500D02*
D03*
X70000Y30000D02*
D03*
X77500Y50000D02*
D03*
X70000Y70000D02*
D03*
X50000Y77500D02*
D03*
D67*
X340400Y570000D02*
D03*
X289600D02*
D03*
X315000D02*
D03*
D68*
X185400Y585000D02*
D03*
X160000D02*
D03*
X25000Y215800D02*
D03*
Y266600D02*
D03*
Y241200D02*
D03*
Y190400D02*
D03*
Y165000D02*
D03*
D69*
X134600Y585000D02*
D03*
D70*
X25000Y292000D02*
D03*
D71*
X22250Y323750D02*
D03*
Y386250D02*
D03*
D72*
X25000Y127700D02*
D03*
Y102300D02*
D03*
D73*
X503731Y373135D02*
D03*
X429469Y363790D02*
D03*
X407701Y364993D02*
D03*
X397501D02*
D03*
X488245Y378629D02*
D03*
X527138Y377456D02*
D03*
X553532Y366869D02*
D03*
X576635Y373074D02*
D03*
X586537Y372677D02*
D03*
X330000Y310000D02*
D03*
Y265000D02*
D03*
X265136Y251480D02*
D03*
X260682Y268200D02*
D03*
X509896Y373835D02*
D03*
X460253Y119747D02*
D03*
X425000Y335000D02*
D03*
X200000Y420000D02*
D03*
X250000D02*
D03*
X280000Y400000D02*
D03*
X295000D02*
D03*
X130000Y340000D02*
D03*
X298310Y355000D02*
D03*
X105000Y330000D02*
D03*
X190000Y360000D02*
D03*
X185000Y350000D02*
D03*
X180000Y355000D02*
D03*
X230000Y395000D02*
D03*
X272500Y360000D02*
D03*
X270000Y350000D02*
D03*
X428143Y299402D02*
D03*
X422960Y294804D02*
D03*
X423462Y225771D02*
D03*
X431665Y230271D02*
D03*
X423796Y219364D02*
D03*
X410000Y214472D02*
D03*
X429932Y220495D02*
D03*
X268636Y226364D02*
D03*
X252524Y172476D02*
D03*
X275000Y462500D02*
D03*
X115000Y250000D02*
D03*
X178822Y326178D02*
D03*
X325000Y341364D02*
D03*
X320000Y333500D02*
D03*
X315000Y339500D02*
D03*
X330000Y333500D02*
D03*
X305000Y363255D02*
D03*
X345000Y338500D02*
D03*
X340000Y333500D02*
D03*
X335000Y338500D02*
D03*
X350000Y333500D02*
D03*
X355000Y338500D02*
D03*
X360000Y333500D02*
D03*
X426665Y316367D02*
D03*
Y304612D02*
D03*
X230000Y365000D02*
D03*
X360000Y44063D02*
D03*
X380000Y445000D02*
D03*
X405000D02*
D03*
X275000Y290000D02*
D03*
Y310000D02*
D03*
X231475Y217500D02*
D03*
X265000Y221500D02*
D03*
X306408Y209719D02*
D03*
X306495Y220000D02*
D03*
X235303Y180303D02*
D03*
X214643Y185000D02*
D03*
X250303Y165303D02*
D03*
X255000Y125000D02*
D03*
X416846Y101500D02*
D03*
X505253Y164747D02*
D03*
X507500Y227803D02*
D03*
X433500Y92994D02*
D03*
X370000Y88359D02*
D03*
X410000Y60250D02*
D03*
X505000Y134144D02*
D03*
X515000Y155000D02*
D03*
X530000Y175000D02*
D03*
X431665Y280007D02*
D03*
Y310017D02*
D03*
Y290007D02*
D03*
Y320007D02*
D03*
Y270007D02*
D03*
X426665Y285007D02*
D03*
X428165Y275007D02*
D03*
X420000Y405000D02*
D03*
X419069Y365931D02*
D03*
X415000Y330000D02*
D03*
X453198Y339943D02*
D03*
X460000Y280000D02*
D03*
X463418Y296582D02*
D03*
X239834Y185618D02*
D03*
X396500Y486500D02*
D03*
X215179Y445179D02*
D03*
X169478Y75522D02*
D03*
X145000Y100000D02*
D03*
X120000Y125000D02*
D03*
X125000Y170000D02*
D03*
X140000Y210000D02*
D03*
X100000Y170000D02*
D03*
X125000Y260000D02*
D03*
X110000Y230000D02*
D03*
X180000Y485000D02*
D03*
X273682Y271622D02*
D03*
Y280000D02*
D03*
X275000Y220000D02*
D03*
X267500Y202500D02*
D03*
X226479Y336980D02*
D03*
X230105Y343143D02*
D03*
X230005Y329531D02*
D03*
X230000Y320000D02*
D03*
X380000Y245000D02*
D03*
X340000Y240000D02*
D03*
X75292Y185713D02*
D03*
X255000Y435000D02*
D03*
X215000Y45000D02*
D03*
X308697Y186303D02*
D03*
X45000Y385000D02*
D03*
X445000Y455000D02*
D03*
X565000Y496500D02*
D03*
X485000Y485000D02*
D03*
X540000Y365000D02*
D03*
X319000Y300000D02*
D03*
X405000Y245000D02*
D03*
X370000D02*
D03*
X415000Y280000D02*
D03*
X560000Y208500D02*
D03*
X575000Y163500D02*
D03*
X170000Y430000D02*
D03*
Y385000D02*
D03*
X140000Y370000D02*
D03*
X110000Y465000D02*
D03*
X75059Y440000D02*
D03*
X85000Y525000D02*
D03*
X40000Y355000D02*
D03*
Y365000D02*
D03*
X229643Y184643D02*
D03*
X436500Y150000D02*
D03*
X365000Y60000D02*
D03*
X285000Y85000D02*
D03*
Y189000D02*
D03*
X145000Y355000D02*
D03*
X595000Y515000D02*
D03*
X64249Y440000D02*
D03*
X122000Y38650D02*
D03*
X280000Y75000D02*
D03*
X220000Y55000D02*
D03*
X370000Y80000D02*
D03*
X320000Y85000D02*
D03*
X380000Y115000D02*
D03*
X370000D02*
D03*
X395000Y150000D02*
D03*
X574595Y325000D02*
D03*
X540000Y310000D02*
D03*
X80000Y450000D02*
D03*
X15000Y515000D02*
D03*
X231475Y224318D02*
D03*
X195053Y179947D02*
D03*
X234500Y229997D02*
D03*
X115000Y385000D02*
D03*
X329300Y39012D02*
D03*
X555000Y185000D02*
D03*
X370000Y15000D02*
D03*
X328728Y32443D02*
D03*
X579190Y230000D02*
D03*
X580000Y240000D02*
D03*
X540000Y230000D02*
D03*
X586350Y300000D02*
D03*
X565000Y315000D02*
D03*
X560000Y280000D02*
D03*
X565000Y395000D02*
D03*
X480000Y405000D02*
D03*
X476368Y376279D02*
D03*
X185000Y70000D02*
D03*
X365000Y75000D02*
D03*
X190769Y41976D02*
D03*
X225000Y15000D02*
D03*
X447694Y474147D02*
D03*
X380000Y400000D02*
D03*
X65000Y335000D02*
D03*
X230000Y265000D02*
D03*
X405000Y219472D02*
D03*
X185000Y85000D02*
D03*
Y285000D02*
D03*
Y260000D02*
D03*
X265000Y285000D02*
D03*
X230000Y275000D02*
D03*
X140000Y300000D02*
D03*
X70000Y120000D02*
D03*
X285000Y95000D02*
D03*
X325000Y260000D02*
D03*
X122000Y51350D02*
D03*
X214500Y65750D02*
D03*
X89750Y405000D02*
D03*
X335000Y235000D02*
D03*
X330000Y230000D02*
D03*
X320000Y220000D02*
D03*
X325000Y225000D02*
D03*
X285000Y202000D02*
D03*
X270000Y185000D02*
D03*
X230000Y290000D02*
D03*
Y300000D02*
D03*
Y310000D02*
D03*
Y350000D02*
D03*
X310000Y400000D02*
D03*
X320000D02*
D03*
X330000D02*
D03*
X345000D02*
D03*
X360000Y150000D02*
D03*
X370000D02*
D03*
X340000Y215000D02*
D03*
X335000Y210000D02*
D03*
X350000Y216500D02*
D03*
X355000Y221500D02*
D03*
X360000Y216500D02*
D03*
X365000Y221500D02*
D03*
X370000Y216500D02*
D03*
X375000Y221500D02*
D03*
X380000Y216500D02*
D03*
X385000Y221500D02*
D03*
X390000Y216500D02*
D03*
X395000Y221500D02*
D03*
X400000Y216500D02*
D03*
X426665Y265007D02*
D03*
X431665Y250007D02*
D03*
X426665Y245007D02*
D03*
X431665Y240007D02*
D03*
X426665Y235007D02*
D03*
X238770Y492000D02*
D03*
X225000Y500000D02*
D03*
X325000Y505000D02*
D03*
X184970Y502941D02*
D03*
X185000Y560000D02*
D03*
X130000Y535000D02*
D03*
X105000Y480000D02*
D03*
Y450000D02*
D03*
X65000Y505000D02*
D03*
X510000Y460000D02*
D03*
X544500Y464875D02*
D03*
D74*
X451305Y191297D02*
D03*
X430000Y70000D02*
D03*
X247053Y382947D02*
D03*
X514257Y198500D02*
D03*
X500000Y255000D02*
D03*
X532617Y435000D02*
D03*
X245000Y195000D02*
D03*
X295000Y130000D02*
D03*
X432550Y425000D02*
D03*
X360000Y440000D02*
D03*
X320000Y115500D02*
D03*
D99*
X79500Y120000D02*
D03*
X110500D02*
D03*
D100*
X314250Y260000D02*
D03*
X295750D02*
D03*
D101*
X291000Y285000D02*
D03*
X319000D02*
D03*
D102*
X75000Y229000D02*
D03*
Y201000D02*
D03*
D103*
X432550Y130500D02*
D03*
X419850D02*
D03*
X407150D02*
D03*
X394450D02*
D03*
X381750D02*
D03*
X432550Y169500D02*
D03*
X419850D02*
D03*
X407150D02*
D03*
X394450D02*
D03*
X381750D02*
D03*
X369050Y130500D02*
D03*
X356350D02*
D03*
X369050Y169500D02*
D03*
X356350D02*
D03*
X343650Y130500D02*
D03*
Y169500D02*
D03*
X267450Y130500D02*
D03*
Y169500D02*
D03*
X280150D02*
D03*
Y130500D02*
D03*
X292850Y169500D02*
D03*
Y130500D02*
D03*
X305550Y169500D02*
D03*
Y130500D02*
D03*
X318250Y169500D02*
D03*
X330950D02*
D03*
X318250Y130500D02*
D03*
X330950D02*
D03*
X432550Y380500D02*
D03*
X419850D02*
D03*
X407150D02*
D03*
X394450D02*
D03*
X381750D02*
D03*
X432550Y419500D02*
D03*
X419850D02*
D03*
X407150D02*
D03*
X394450D02*
D03*
X381750D02*
D03*
X369050Y380500D02*
D03*
X356350D02*
D03*
X369050Y419500D02*
D03*
X356350D02*
D03*
X343650Y380500D02*
D03*
Y419500D02*
D03*
X267450Y380500D02*
D03*
Y419500D02*
D03*
X280150D02*
D03*
Y380500D02*
D03*
X292850Y419500D02*
D03*
Y380500D02*
D03*
X305550Y419500D02*
D03*
Y380500D02*
D03*
X318250Y419500D02*
D03*
X330950D02*
D03*
X318250Y380500D02*
D03*
X330950D02*
D03*
D104*
X210500Y197450D02*
D03*
Y210150D02*
D03*
Y222850D02*
D03*
Y235550D02*
D03*
Y248250D02*
D03*
X249500Y197450D02*
D03*
Y210150D02*
D03*
Y222850D02*
D03*
Y235550D02*
D03*
Y248250D02*
D03*
X210500Y260950D02*
D03*
Y273650D02*
D03*
X249500Y260950D02*
D03*
Y273650D02*
D03*
X210500Y286350D02*
D03*
X249500D02*
D03*
X210500Y362550D02*
D03*
X249500D02*
D03*
Y349850D02*
D03*
X210500D02*
D03*
X249500Y337150D02*
D03*
X210500D02*
D03*
X249500Y324450D02*
D03*
X210500D02*
D03*
X249500Y311750D02*
D03*
Y299050D02*
D03*
X210500Y311750D02*
D03*
Y299050D02*
D03*
X480500Y197450D02*
D03*
Y210150D02*
D03*
Y222850D02*
D03*
Y235550D02*
D03*
Y248250D02*
D03*
X519500Y197450D02*
D03*
Y210150D02*
D03*
Y222850D02*
D03*
Y235550D02*
D03*
Y248250D02*
D03*
X480500Y260950D02*
D03*
Y273650D02*
D03*
X519500Y260950D02*
D03*
Y273650D02*
D03*
X480500Y286350D02*
D03*
X519500D02*
D03*
X480500Y362550D02*
D03*
X519500D02*
D03*
Y349850D02*
D03*
X480500D02*
D03*
X519500Y337150D02*
D03*
X480500D02*
D03*
X519500Y324450D02*
D03*
X480500D02*
D03*
X519500Y311750D02*
D03*
Y299050D02*
D03*
X480500Y311750D02*
D03*
Y299050D02*
D03*
D105*
X150000Y505750D02*
D03*
Y534250D02*
D03*
X526000Y467750D02*
D03*
Y496250D02*
D03*
M02*
