G04*
G04 #@! TF.GenerationSoftware,Altium Limited,Altium Designer,23.11.1 (41)*
G04*
G04 Layer_Color=8388736*
%FSLAX44Y44*%
%MOMM*%
G71*
G04*
G04 #@! TF.SameCoordinates,F90B74AA-C0B1-4B74-A68C-C3C570C8A3A3*
G04*
G04*
G04 #@! TF.FilePolarity,Negative*
G04*
G01*
G75*
%ADD42R,2.5000X1.6000*%
G04:AMPARAMS|DCode=43|XSize=1.5mm|YSize=1.4mm|CornerRadius=0.425mm|HoleSize=0mm|Usage=FLASHONLY|Rotation=180.000|XOffset=0mm|YOffset=0mm|HoleType=Round|Shape=RoundedRectangle|*
%AMROUNDEDRECTD43*
21,1,1.5000,0.5500,0,0,180.0*
21,1,0.6500,1.4000,0,0,180.0*
1,1,0.8500,-0.3250,0.2750*
1,1,0.8500,0.3250,0.2750*
1,1,0.8500,0.3250,-0.2750*
1,1,0.8500,-0.3250,-0.2750*
%
%ADD43ROUNDEDRECTD43*%
%ADD44R,1.6000X1.2000*%
%ADD45R,2.3000X5.8000*%
%ADD46R,1.6500X1.4500*%
G04:AMPARAMS|DCode=47|XSize=0.95mm|YSize=1.5mm|CornerRadius=0.3125mm|HoleSize=0mm|Usage=FLASHONLY|Rotation=270.000|XOffset=0mm|YOffset=0mm|HoleType=Round|Shape=RoundedRectangle|*
%AMROUNDEDRECTD47*
21,1,0.9500,0.8750,0,0,270.0*
21,1,0.3250,1.5000,0,0,270.0*
1,1,0.6250,-0.4375,-0.1625*
1,1,0.6250,-0.4375,0.1625*
1,1,0.6250,0.4375,0.1625*
1,1,0.6250,0.4375,-0.1625*
%
%ADD47ROUNDEDRECTD47*%
%ADD48R,1.4500X1.6500*%
%ADD49C,2.3000*%
G04:AMPARAMS|DCode=50|XSize=1.3mm|YSize=2.4mm|CornerRadius=0.4mm|HoleSize=0mm|Usage=FLASHONLY|Rotation=180.000|XOffset=0mm|YOffset=0mm|HoleType=Round|Shape=RoundedRectangle|*
%AMROUNDEDRECTD50*
21,1,1.3000,1.6000,0,0,180.0*
21,1,0.5000,2.4000,0,0,180.0*
1,1,0.8000,-0.2500,0.8000*
1,1,0.8000,0.2500,0.8000*
1,1,0.8000,0.2500,-0.8000*
1,1,0.8000,-0.2500,-0.8000*
%
%ADD50ROUNDEDRECTD50*%
G04:AMPARAMS|DCode=51|XSize=3.6mm|YSize=2.4mm|CornerRadius=0.675mm|HoleSize=0mm|Usage=FLASHONLY|Rotation=180.000|XOffset=0mm|YOffset=0mm|HoleType=Round|Shape=RoundedRectangle|*
%AMROUNDEDRECTD51*
21,1,3.6000,1.0500,0,0,180.0*
21,1,2.2500,2.4000,0,0,180.0*
1,1,1.3500,-1.1250,0.5250*
1,1,1.3500,1.1250,0.5250*
1,1,1.3500,1.1250,-0.5250*
1,1,1.3500,-1.1250,-0.5250*
%
%ADD51ROUNDEDRECTD51*%
G04:AMPARAMS|DCode=52|XSize=0.95mm|YSize=2mm|CornerRadius=0.3125mm|HoleSize=0mm|Usage=FLASHONLY|Rotation=270.000|XOffset=0mm|YOffset=0mm|HoleType=Round|Shape=RoundedRectangle|*
%AMROUNDEDRECTD52*
21,1,0.9500,1.3750,0,0,270.0*
21,1,0.3250,2.0000,0,0,270.0*
1,1,0.6250,-0.6875,-0.1625*
1,1,0.6250,-0.6875,0.1625*
1,1,0.6250,0.6875,0.1625*
1,1,0.6250,0.6875,-0.1625*
%
%ADD52ROUNDEDRECTD52*%
%ADD53R,1.2000X1.6000*%
%ADD54R,1.7750X0.6000*%
%ADD55R,0.6000X1.7750*%
G04:AMPARAMS|DCode=56|XSize=1.6mm|YSize=1.4mm|CornerRadius=0.425mm|HoleSize=0mm|Usage=FLASHONLY|Rotation=270.000|XOffset=0mm|YOffset=0mm|HoleType=Round|Shape=RoundedRectangle|*
%AMROUNDEDRECTD56*
21,1,1.6000,0.5500,0,0,270.0*
21,1,0.7500,1.4000,0,0,270.0*
1,1,0.8500,-0.2750,-0.3750*
1,1,0.8500,-0.2750,0.3750*
1,1,0.8500,0.2750,0.3750*
1,1,0.8500,0.2750,-0.3750*
%
%ADD56ROUNDEDRECTD56*%
%ADD57R,2.2500X1.7000*%
%ADD58R,2.2000X1.3000*%
%ADD59R,1.3000X3.0500*%
%ADD60R,0.8500X1.8000*%
G04:AMPARAMS|DCode=61|XSize=2mm|YSize=2.8mm|CornerRadius=0.575mm|HoleSize=0mm|Usage=FLASHONLY|Rotation=90.000|XOffset=0mm|YOffset=0mm|HoleType=Round|Shape=RoundedRectangle|*
%AMROUNDEDRECTD61*
21,1,2.0000,1.6500,0,0,90.0*
21,1,0.8500,2.8000,0,0,90.0*
1,1,1.1500,0.8250,0.4250*
1,1,1.1500,0.8250,-0.4250*
1,1,1.1500,-0.8250,-0.4250*
1,1,1.1500,-0.8250,0.4250*
%
%ADD61ROUNDEDRECTD61*%
G04:AMPARAMS|DCode=62|XSize=2mm|YSize=2.8mm|CornerRadius=0.575mm|HoleSize=0mm|Usage=FLASHONLY|Rotation=0.000|XOffset=0mm|YOffset=0mm|HoleType=Round|Shape=RoundedRectangle|*
%AMROUNDEDRECTD62*
21,1,2.0000,1.6500,0,0,0.0*
21,1,0.8500,2.8000,0,0,0.0*
1,1,1.1500,0.4250,-0.8250*
1,1,1.1500,-0.4250,-0.8250*
1,1,1.1500,-0.4250,0.8250*
1,1,1.1500,0.4250,0.8250*
%
%ADD62ROUNDEDRECTD62*%
%ADD63R,2.2000X2.2000*%
%ADD64R,2.2000X2.1000*%
%ADD65R,1.6500X0.7000*%
G04:AMPARAMS|DCode=66|XSize=1.9mm|YSize=1.7mm|CornerRadius=0.5mm|HoleSize=0mm|Usage=FLASHONLY|Rotation=180.000|XOffset=0mm|YOffset=0mm|HoleType=Round|Shape=RoundedRectangle|*
%AMROUNDEDRECTD66*
21,1,1.9000,0.7000,0,0,180.0*
21,1,0.9000,1.7000,0,0,180.0*
1,1,1.0000,-0.4500,0.3500*
1,1,1.0000,0.4500,0.3500*
1,1,1.0000,0.4500,-0.3500*
1,1,1.0000,-0.4500,-0.3500*
%
%ADD66ROUNDEDRECTD66*%
%ADD67C,7.3000*%
%ADD68C,1.6000*%
%ADD69C,1.0000*%
%ADD70C,1.9000*%
G04:AMPARAMS|DCode=71|XSize=1.9mm|YSize=1.9mm|CornerRadius=0.55mm|HoleSize=0mm|Usage=FLASHONLY|Rotation=270.000|XOffset=0mm|YOffset=0mm|HoleType=Round|Shape=RoundedRectangle|*
%AMROUNDEDRECTD71*
21,1,1.9000,0.8000,0,0,270.0*
21,1,0.8000,1.9000,0,0,270.0*
1,1,1.1000,-0.4000,-0.4000*
1,1,1.1000,-0.4000,0.4000*
1,1,1.1000,0.4000,0.4000*
1,1,1.1000,0.4000,-0.4000*
%
%ADD71ROUNDEDRECTD71*%
G04:AMPARAMS|DCode=72|XSize=2.3mm|YSize=2.3mm|CornerRadius=0.65mm|HoleSize=0mm|Usage=FLASHONLY|Rotation=90.000|XOffset=0mm|YOffset=0mm|HoleType=Round|Shape=RoundedRectangle|*
%AMROUNDEDRECTD72*
21,1,2.3000,1.0000,0,0,90.0*
21,1,1.0000,2.3000,0,0,90.0*
1,1,1.3000,0.5000,0.5000*
1,1,1.3000,0.5000,-0.5000*
1,1,1.3000,-0.5000,-0.5000*
1,1,1.3000,-0.5000,0.5000*
%
%ADD72ROUNDEDRECTD72*%
%ADD73C,1.5000*%
%ADD74C,1.8000*%
%ADD75C,0.6000*%
%ADD76C,0.8000*%
%ADD77C,0.7000*%
D42*
X693433Y163683D02*
D03*
X640500Y220250D02*
D03*
X667433Y385683D02*
D03*
X614500Y442250D02*
D03*
D43*
X131000Y81500D02*
D03*
Y60500D02*
D03*
X578000Y204000D02*
D03*
Y225000D02*
D03*
X54000Y310500D02*
D03*
Y331500D02*
D03*
X22000D02*
D03*
Y310500D02*
D03*
X160000Y68500D02*
D03*
Y89500D02*
D03*
X551000Y205000D02*
D03*
Y226000D02*
D03*
D44*
X252000Y282500D02*
D03*
Y263500D02*
D03*
X199000Y282500D02*
D03*
Y263500D02*
D03*
X216000Y282500D02*
D03*
Y263500D02*
D03*
X234000Y282500D02*
D03*
Y263500D02*
D03*
X504000Y301500D02*
D03*
Y320500D02*
D03*
X485000Y301500D02*
D03*
Y320500D02*
D03*
X467000Y301500D02*
D03*
Y320500D02*
D03*
X448000Y301500D02*
D03*
Y320500D02*
D03*
X376000Y113500D02*
D03*
Y136500D02*
D03*
X551000Y282000D02*
D03*
Y305000D02*
D03*
X247000Y349500D02*
D03*
Y368500D02*
D03*
X104000Y399500D02*
D03*
Y380500D02*
D03*
X83000Y400500D02*
D03*
Y381500D02*
D03*
X213000Y249500D02*
D03*
Y230500D02*
D03*
X195000Y239500D02*
D03*
Y220500D02*
D03*
X92000Y460500D02*
D03*
Y441500D02*
D03*
X115000Y460500D02*
D03*
Y441500D02*
D03*
D45*
X160000Y187500D02*
D03*
Y282500D02*
D03*
D46*
X186000Y91750D02*
D03*
Y110250D02*
D03*
X211000Y105750D02*
D03*
Y124250D02*
D03*
X247000Y395750D02*
D03*
Y414250D02*
D03*
X61000Y440250D02*
D03*
Y421750D02*
D03*
X26000Y430250D02*
D03*
Y411750D02*
D03*
X133000Y331250D02*
D03*
Y312750D02*
D03*
D47*
X83000Y322500D02*
D03*
X109000Y332000D02*
D03*
Y313000D02*
D03*
X50000Y370500D02*
D03*
Y389500D02*
D03*
X24000Y380000D02*
D03*
D48*
X383250Y537000D02*
D03*
X364750D02*
D03*
X364500Y512000D02*
D03*
X383000D02*
D03*
X393250Y455000D02*
D03*
X374750D02*
D03*
X393250Y430000D02*
D03*
X374750D02*
D03*
D49*
X636000Y349000D02*
D03*
X465000Y398000D02*
D03*
X466000Y371000D02*
D03*
X699000Y380000D02*
D03*
X622000Y138000D02*
D03*
X330000Y461000D02*
D03*
X388000Y477000D02*
D03*
X328000Y488000D02*
D03*
X359000Y480000D02*
D03*
X127000Y522000D02*
D03*
X161000D02*
D03*
X225000D02*
D03*
X194000D02*
D03*
X553000Y137000D02*
D03*
X589000Y136000D02*
D03*
X442000Y484555D02*
D03*
X472000D02*
D03*
X442000Y514555D02*
D03*
X472000D02*
D03*
X502000D02*
D03*
D50*
X520000Y341500D02*
D03*
X543000D02*
D03*
X566000D02*
D03*
D51*
X543000Y404500D02*
D03*
D52*
X466000Y237050D02*
D03*
Y224350D02*
D03*
Y211650D02*
D03*
Y198950D02*
D03*
X522000Y237050D02*
D03*
Y224350D02*
D03*
Y211650D02*
D03*
Y198950D02*
D03*
X186000Y366950D02*
D03*
Y379650D02*
D03*
Y392350D02*
D03*
Y405050D02*
D03*
X130000Y366950D02*
D03*
Y379650D02*
D03*
Y392350D02*
D03*
Y405050D02*
D03*
X195000Y433950D02*
D03*
Y446650D02*
D03*
Y459350D02*
D03*
Y472050D02*
D03*
X139000Y433950D02*
D03*
Y446650D02*
D03*
Y459350D02*
D03*
Y472050D02*
D03*
D53*
X302500Y403000D02*
D03*
X283500D02*
D03*
X302500Y385000D02*
D03*
X283500D02*
D03*
X302500Y367000D02*
D03*
X283500D02*
D03*
X302500Y349000D02*
D03*
X283500D02*
D03*
X279500Y96000D02*
D03*
X298500D02*
D03*
X279500Y114000D02*
D03*
X298500D02*
D03*
X279500Y132000D02*
D03*
X298500D02*
D03*
X279500Y150000D02*
D03*
X298500D02*
D03*
X411500Y96000D02*
D03*
X430500D02*
D03*
X411500Y114000D02*
D03*
X430500D02*
D03*
X411500Y132000D02*
D03*
X430500D02*
D03*
X411500Y150000D02*
D03*
X430500D02*
D03*
D54*
X272620Y310000D02*
D03*
Y305000D02*
D03*
Y300000D02*
D03*
Y295000D02*
D03*
Y290000D02*
D03*
Y285000D02*
D03*
Y280000D02*
D03*
Y275000D02*
D03*
Y270000D02*
D03*
Y265000D02*
D03*
Y260000D02*
D03*
Y255000D02*
D03*
Y250000D02*
D03*
Y245000D02*
D03*
Y240000D02*
D03*
Y235000D02*
D03*
Y230000D02*
D03*
Y225000D02*
D03*
Y220000D02*
D03*
Y215000D02*
D03*
Y210000D02*
D03*
Y205000D02*
D03*
Y200000D02*
D03*
Y195000D02*
D03*
Y190000D02*
D03*
X427380D02*
D03*
Y195000D02*
D03*
Y200000D02*
D03*
Y205000D02*
D03*
Y210000D02*
D03*
Y215000D02*
D03*
Y220000D02*
D03*
Y225000D02*
D03*
Y230000D02*
D03*
Y235000D02*
D03*
Y240000D02*
D03*
Y245000D02*
D03*
Y250000D02*
D03*
Y255000D02*
D03*
Y260000D02*
D03*
Y265000D02*
D03*
Y270000D02*
D03*
Y275000D02*
D03*
Y280000D02*
D03*
Y285000D02*
D03*
Y290000D02*
D03*
Y295000D02*
D03*
Y300000D02*
D03*
Y305000D02*
D03*
Y310000D02*
D03*
D55*
X290000Y172620D02*
D03*
X295000D02*
D03*
X300000D02*
D03*
X305000D02*
D03*
X310000D02*
D03*
X315000D02*
D03*
X320000D02*
D03*
X325000D02*
D03*
X330000D02*
D03*
X335000D02*
D03*
X340000D02*
D03*
X345000D02*
D03*
X350000D02*
D03*
X355000D02*
D03*
X360000D02*
D03*
X365000D02*
D03*
X370000D02*
D03*
X375000D02*
D03*
X380000D02*
D03*
X385000D02*
D03*
X390000D02*
D03*
X395000D02*
D03*
X400000D02*
D03*
X405000D02*
D03*
X410000D02*
D03*
Y327380D02*
D03*
X405000D02*
D03*
X400000D02*
D03*
X395000D02*
D03*
X390000D02*
D03*
X385000D02*
D03*
X380000D02*
D03*
X375000D02*
D03*
X370000D02*
D03*
X365000D02*
D03*
X360000D02*
D03*
X355000D02*
D03*
X350000D02*
D03*
X345000D02*
D03*
X340000D02*
D03*
X335000D02*
D03*
X330000D02*
D03*
X325000D02*
D03*
X320000D02*
D03*
X315000D02*
D03*
X310000D02*
D03*
X305000D02*
D03*
X300000D02*
D03*
X295000D02*
D03*
X290000D02*
D03*
D56*
X586500Y443000D02*
D03*
X551500D02*
D03*
D57*
X221000Y361000D02*
D03*
Y389000D02*
D03*
D58*
X65500Y267000D02*
D03*
Y247000D02*
D03*
Y227000D02*
D03*
D59*
X20000Y112250D02*
D03*
Y169750D02*
D03*
X60000Y112250D02*
D03*
Y169750D02*
D03*
D60*
X293000Y503000D02*
D03*
X303000Y533500D02*
D03*
X293000D02*
D03*
X303000Y503000D02*
D03*
X293000Y465250D02*
D03*
X283000Y434750D02*
D03*
X293000D02*
D03*
X283000Y465250D02*
D03*
D61*
X525750Y443000D02*
D03*
X486250D02*
D03*
D62*
X667000Y252500D02*
D03*
Y292000D02*
D03*
X633000Y267250D02*
D03*
Y306750D02*
D03*
X599000Y285250D02*
D03*
Y324750D02*
D03*
D63*
X720000Y304000D02*
D03*
Y328000D02*
D03*
D64*
Y276000D02*
D03*
Y356000D02*
D03*
D65*
X693250Y303000D02*
D03*
Y329000D02*
D03*
Y309500D02*
D03*
Y316000D02*
D03*
Y322500D02*
D03*
D66*
X604000Y226000D02*
D03*
Y196000D02*
D03*
D67*
X700000Y50000D02*
D03*
X700000Y500000D02*
D03*
X50000Y500000D02*
D03*
X50000Y50000D02*
D03*
D68*
X25000Y268250D02*
D03*
Y205750D02*
D03*
D69*
X695500Y295250D02*
D03*
Y336750D02*
D03*
D70*
X728000Y114500D02*
D03*
Y139900D02*
D03*
Y190700D02*
D03*
Y216100D02*
D03*
Y165300D02*
D03*
X730000Y411600D02*
D03*
Y386200D02*
D03*
D71*
X728000Y241500D02*
D03*
X730000Y437000D02*
D03*
D72*
X502000Y484555D02*
D03*
D73*
X531690Y523445D02*
D03*
X412310D02*
D03*
D74*
X602600Y528000D02*
D03*
X577200D02*
D03*
X628000D02*
D03*
D75*
X279413Y310000D02*
D03*
X290773Y303156D02*
D03*
X273800Y85157D02*
D03*
X298310Y84446D02*
D03*
X419000Y80000D02*
D03*
X443000Y89000D02*
D03*
X369050Y60500D02*
D03*
X357000Y63000D02*
D03*
X686000Y163000D02*
D03*
X636000Y223500D02*
D03*
X327000Y534500D02*
D03*
X351000Y537000D02*
D03*
X390000Y160000D02*
D03*
X370000Y159000D02*
D03*
X360000Y160000D02*
D03*
X350000Y159000D02*
D03*
X345000Y314000D02*
D03*
X335000D02*
D03*
X325000D02*
D03*
X315000D02*
D03*
X305000Y312000D02*
D03*
X300000Y317000D02*
D03*
X290000Y280000D02*
D03*
X286000Y245000D02*
D03*
X288000Y190000D02*
D03*
X289000Y205000D02*
D03*
X305000Y191000D02*
D03*
X299750Y184750D02*
D03*
X310000Y198000D02*
D03*
X315000Y211000D02*
D03*
X180500Y192850D02*
D03*
Y205550D02*
D03*
Y218250D02*
D03*
X198000Y219000D02*
D03*
X199000Y263500D02*
D03*
Y282500D02*
D03*
X500000Y303000D02*
D03*
X183000Y392000D02*
D03*
X131000Y505000D02*
D03*
X414000Y319000D02*
D03*
X295000Y210000D02*
D03*
X301000Y200000D02*
D03*
X294000Y195000D02*
D03*
X412000Y210000D02*
D03*
X405000Y205000D02*
D03*
X412000Y200000D02*
D03*
X404000Y215000D02*
D03*
X411000Y220000D02*
D03*
X404000Y225000D02*
D03*
X368000Y269500D02*
D03*
X380000Y159000D02*
D03*
X374980Y151980D02*
D03*
X364820Y151000D02*
D03*
X354750D02*
D03*
X344956D02*
D03*
X340000Y199000D02*
D03*
X663000Y252000D02*
D03*
X511000Y191000D02*
D03*
X361000Y481000D02*
D03*
X577000Y252000D02*
D03*
X590000Y137000D02*
D03*
X72500Y400000D02*
D03*
X82000Y460000D02*
D03*
X551000Y282000D02*
D03*
X26000Y430250D02*
D03*
X50000Y390000D02*
D03*
X283500Y403000D02*
D03*
X455000Y199000D02*
D03*
X719000Y273000D02*
D03*
X485000Y443000D02*
D03*
X369000Y414000D02*
D03*
X343000Y417000D02*
D03*
X356000D02*
D03*
X380000Y342000D02*
D03*
X632000Y390500D02*
D03*
X83000Y381000D02*
D03*
X331000Y418000D02*
D03*
X406000Y427000D02*
D03*
X691000Y405100D02*
D03*
X199000Y472000D02*
D03*
X302500Y403000D02*
D03*
X262000Y350000D02*
D03*
X247000Y368000D02*
D03*
X296500Y285500D02*
D03*
X290000Y270000D02*
D03*
X300000Y275000D02*
D03*
X189000Y405000D02*
D03*
X374000Y435500D02*
D03*
Y469000D02*
D03*
X385250Y311000D02*
D03*
X130000Y366950D02*
D03*
X571000Y282000D02*
D03*
X113000Y313000D02*
D03*
X129000Y405000D02*
D03*
X131000Y60500D02*
D03*
X213000Y180000D02*
D03*
X200000Y192000D02*
D03*
X60000Y167000D02*
D03*
X33000Y140000D02*
D03*
X65000Y247000D02*
D03*
X52000Y331000D02*
D03*
X22000Y311000D02*
D03*
X394000Y435000D02*
D03*
X294172Y436461D02*
D03*
X393000Y455000D02*
D03*
X293000Y462250D02*
D03*
X329000Y460000D02*
D03*
Y490000D02*
D03*
X383250Y536000D02*
D03*
X617000Y295000D02*
D03*
X599000Y324750D02*
D03*
X667000Y294000D02*
D03*
X382000Y416000D02*
D03*
X394000Y415000D02*
D03*
X520000Y346000D02*
D03*
X544000Y342000D02*
D03*
X566000Y341000D02*
D03*
X604000Y196000D02*
D03*
X603000Y226000D02*
D03*
X578000Y224000D02*
D03*
X551000Y225000D02*
D03*
X677000Y267000D02*
D03*
X403000Y285000D02*
D03*
X611000Y443500D02*
D03*
X586000Y443000D02*
D03*
X394970Y152400D02*
D03*
X302000Y235000D02*
D03*
X384810Y151130D02*
D03*
X294000Y240000D02*
D03*
X405336Y310795D02*
D03*
X390000Y304000D02*
D03*
X65000Y227000D02*
D03*
Y267000D02*
D03*
X20000Y169000D02*
D03*
X409000Y240000D02*
D03*
X399000Y245000D02*
D03*
X408940Y259750D02*
D03*
X398000Y255000D02*
D03*
X399000Y265000D02*
D03*
X410000Y300000D02*
D03*
X402000Y295000D02*
D03*
X410000Y280000D02*
D03*
Y270000D02*
D03*
X340000Y306000D02*
D03*
X330000D02*
D03*
X310000D02*
D03*
X320000D02*
D03*
X394970Y312420D02*
D03*
X266000Y465000D02*
D03*
Y448000D02*
D03*
X283000Y462250D02*
D03*
X276000Y504000D02*
D03*
X274000Y533000D02*
D03*
X390000Y476000D02*
D03*
X383000Y513000D02*
D03*
X350000Y512000D02*
D03*
X252500Y533000D02*
D03*
X282000Y436000D02*
D03*
X303000Y505000D02*
D03*
Y536000D02*
D03*
X361500Y461000D02*
D03*
X303000Y215000D02*
D03*
X295000Y220000D02*
D03*
X302000Y225000D02*
D03*
X293000Y230000D02*
D03*
X330200Y196850D02*
D03*
X335280Y189230D02*
D03*
X400050Y306070D02*
D03*
X408940Y250220D02*
D03*
D76*
X700000Y450000D02*
D03*
Y350000D02*
D03*
Y150000D02*
D03*
X675000Y400000D02*
D03*
Y200000D02*
D03*
X650000Y150000D02*
D03*
X625000Y500000D02*
D03*
Y400000D02*
D03*
X600000Y150000D02*
D03*
X525000Y500000D02*
D03*
X500000Y350000D02*
D03*
Y250000D02*
D03*
Y150000D02*
D03*
X450000Y350000D02*
D03*
Y150000D02*
D03*
Y50000D02*
D03*
X425000Y500000D02*
D03*
Y400000D02*
D03*
X250000Y50000D02*
D03*
X225000Y500000D02*
D03*
X200000Y350000D02*
D03*
X225000Y100000D02*
D03*
X200000Y50000D02*
D03*
X150000Y350000D02*
D03*
X175000Y100000D02*
D03*
X150000Y50000D02*
D03*
X125000Y200000D02*
D03*
X100000Y150000D02*
D03*
X125000Y100000D02*
D03*
X100000Y50000D02*
D03*
X50000Y450000D02*
D03*
X75000Y300000D02*
D03*
X50000Y250000D02*
D03*
X75000Y200000D02*
D03*
X50000Y150000D02*
D03*
X75000Y100000D02*
D03*
X372000Y310000D02*
D03*
X363000D02*
D03*
X354000D02*
D03*
X445844Y453120D02*
D03*
X456000Y464000D02*
D03*
X424000Y456000D02*
D03*
X434000Y467000D02*
D03*
X337000Y529000D02*
D03*
X314345Y528778D02*
D03*
X314000Y510000D02*
D03*
X337000Y511000D02*
D03*
X394000Y532000D02*
D03*
X456000Y527000D02*
D03*
X427000D02*
D03*
X353000Y452000D02*
D03*
X313000Y451000D02*
D03*
X380000Y299000D02*
D03*
X393000Y290000D02*
D03*
X400000Y274000D02*
D03*
X390000Y260000D02*
D03*
Y250000D02*
D03*
X395000Y221000D02*
D03*
X396000Y209000D02*
D03*
X351000Y192000D02*
D03*
X334000Y206000D02*
D03*
X306000Y207000D02*
D03*
X309000Y230000D02*
D03*
X299000Y247000D02*
D03*
X305000Y281000D02*
D03*
X335000Y299000D02*
D03*
X325000D02*
D03*
X680000Y70000D02*
D03*
X672500Y50000D02*
D03*
X680000Y30000D02*
D03*
X700000Y22500D02*
D03*
X720000Y30000D02*
D03*
X727500Y50000D02*
D03*
X720000Y70000D02*
D03*
X700000Y77500D02*
D03*
X700000Y527500D02*
D03*
X720000Y520000D02*
D03*
X727500Y500000D02*
D03*
X720000Y480000D02*
D03*
X700000Y472500D02*
D03*
X680000Y480000D02*
D03*
X672500Y500000D02*
D03*
X680000Y520000D02*
D03*
X50000Y527500D02*
D03*
X70000Y520000D02*
D03*
X77500Y500000D02*
D03*
X70000Y480000D02*
D03*
X50000Y472500D02*
D03*
X30000Y480000D02*
D03*
X22500Y500000D02*
D03*
X30000Y520000D02*
D03*
X50000Y77500D02*
D03*
X70000Y70000D02*
D03*
X77500Y50000D02*
D03*
X70000Y30000D02*
D03*
X50000Y22500D02*
D03*
X30000Y30000D02*
D03*
X22500Y50000D02*
D03*
X30000Y70000D02*
D03*
D77*
X318000Y415000D02*
D03*
X520000Y307000D02*
D03*
X79000Y441000D02*
D03*
X667000Y385000D02*
D03*
M02*
