G04*
G04 #@! TF.GenerationSoftware,Altium Limited,Altium Designer,23.11.1 (41)*
G04*
G04 Layer_Physical_Order=2*
G04 Layer_Color=36540*
%FSLAX44Y44*%
%MOMM*%
G71*
G04*
G04 #@! TF.SameCoordinates,F90B74AA-C0B1-4B74-A68C-C3C570C8A3A3*
G04*
G04*
G04 #@! TF.FilePolarity,Positive*
G04*
G01*
G75*
%ADD24C,2.0000*%
%ADD68C,1.6000*%
%ADD73C,1.5000*%
%ADD80C,7.0000*%
%ADD81C,1.3000*%
%ADD82C,0.7000*%
G04:AMPARAMS|DCode=83|XSize=1.6mm|YSize=1.6mm|CornerRadius=0.4mm|HoleSize=0mm|Usage=FLASHONLY|Rotation=270.000|XOffset=0mm|YOffset=0mm|HoleType=Round|Shape=RoundedRectangle|*
%AMROUNDEDRECTD83*
21,1,1.6000,0.8000,0,0,270.0*
21,1,0.8000,1.6000,0,0,270.0*
1,1,0.8000,-0.4000,-0.4000*
1,1,0.8000,-0.4000,0.4000*
1,1,0.8000,0.4000,0.4000*
1,1,0.8000,0.4000,-0.4000*
%
%ADD83ROUNDEDRECTD83*%
G04:AMPARAMS|DCode=84|XSize=2mm|YSize=2mm|CornerRadius=0.5mm|HoleSize=0mm|Usage=FLASHONLY|Rotation=90.000|XOffset=0mm|YOffset=0mm|HoleType=Round|Shape=RoundedRectangle|*
%AMROUNDEDRECTD84*
21,1,2.0000,1.0000,0,0,90.0*
21,1,1.0000,2.0000,0,0,90.0*
1,1,1.0000,0.5000,0.5000*
1,1,1.0000,0.5000,-0.5000*
1,1,1.0000,-0.5000,-0.5000*
1,1,1.0000,-0.5000,0.5000*
%
%ADD84ROUNDEDRECTD84*%
%ADD85C,1.2000*%
%ADD86C,0.3000*%
%ADD87C,0.5000*%
%ADD88C,0.4000*%
G36*
X700000Y550000D02*
X703277D01*
X709775Y549144D01*
X716106Y547448D01*
X722162Y544940D01*
X727838Y541663D01*
X733038Y537673D01*
X737673Y533038D01*
X741663Y527838D01*
X744940Y522162D01*
X747448Y516106D01*
X749144Y509775D01*
X750000Y503277D01*
Y500000D01*
X750000Y500000D01*
X750000Y500000D01*
X750000Y50000D01*
Y46723D01*
X749145Y40224D01*
X747448Y33893D01*
X744940Y27838D01*
X741663Y22162D01*
X737673Y16962D01*
X733038Y12327D01*
X727838Y8337D01*
X722162Y5060D01*
X716106Y2552D01*
X709775Y856D01*
X703277Y0D01*
X700000Y0D01*
X50000Y0D01*
X46723D01*
X40224Y856D01*
X33893Y2552D01*
X27838Y5060D01*
X22162Y8337D01*
X16962Y12327D01*
X12327Y16962D01*
X8337Y22162D01*
X5060Y27838D01*
X2552Y33893D01*
X856Y40224D01*
X0Y46723D01*
X0Y50000D01*
X0Y500000D01*
Y503277D01*
X856Y509775D01*
X2552Y516106D01*
X5060Y522162D01*
X8337Y527838D01*
X12327Y533038D01*
X16962Y537673D01*
X22162Y541663D01*
X27838Y544940D01*
X33893Y547448D01*
X40224Y549144D01*
X46723Y550000D01*
X50000D01*
X50000Y550000D01*
X700000Y550000D01*
D02*
G37*
%LPC*%
G36*
X351000Y540569D02*
X349634Y540297D01*
X348477Y539523D01*
X347703Y538366D01*
X347431Y537000D01*
X347703Y535634D01*
X348477Y534477D01*
X349634Y533703D01*
X351000Y533431D01*
X352366Y533703D01*
X353523Y534477D01*
X354297Y535634D01*
X354569Y537000D01*
X354297Y538366D01*
X353523Y539523D01*
X352366Y540297D01*
X351000Y540569D01*
D02*
G37*
G36*
X383250Y539569D02*
X381884Y539297D01*
X380727Y538523D01*
X379953Y537366D01*
X379681Y536000D01*
X379953Y534634D01*
X380727Y533477D01*
X381884Y532703D01*
X383250Y532431D01*
X384616Y532703D01*
X385773Y533477D01*
X386547Y534634D01*
X386819Y536000D01*
X386547Y537366D01*
X385773Y538523D01*
X384616Y539297D01*
X383250Y539569D01*
D02*
G37*
G36*
X303000D02*
X301634Y539297D01*
X300477Y538523D01*
X299703Y537366D01*
X299431Y536000D01*
X299703Y534634D01*
X300477Y533477D01*
X301634Y532703D01*
X303000Y532431D01*
X304366Y532703D01*
X305523Y533477D01*
X306297Y534634D01*
X306569Y536000D01*
X306297Y537366D01*
X305523Y538523D01*
X304366Y539297D01*
X303000Y539569D01*
D02*
G37*
G36*
X274000Y536569D02*
X272634Y536297D01*
X271477Y535523D01*
X270703Y534366D01*
X270431Y533000D01*
X270703Y531634D01*
X271477Y530477D01*
X272634Y529703D01*
X274000Y529431D01*
X275366Y529703D01*
X276523Y530477D01*
X277297Y531634D01*
X277569Y533000D01*
X277297Y534366D01*
X276523Y535523D01*
X275366Y536297D01*
X274000Y536569D01*
D02*
G37*
G36*
X628000Y537582D02*
X625520Y537256D01*
X623209Y536298D01*
X621225Y534776D01*
X619702Y532791D01*
X618745Y530480D01*
X618418Y528000D01*
X618745Y525520D01*
X619702Y523209D01*
X621225Y521225D01*
X623209Y519702D01*
X625520Y518745D01*
X628000Y518418D01*
X630480Y518745D01*
X632791Y519702D01*
X634775Y521225D01*
X636298Y523209D01*
X637255Y525520D01*
X637582Y528000D01*
X637255Y530480D01*
X636298Y532791D01*
X634775Y534776D01*
X632791Y536298D01*
X630480Y537256D01*
X628000Y537582D01*
D02*
G37*
G36*
X577200D02*
X574720Y537256D01*
X572409Y536298D01*
X570424Y534776D01*
X568902Y532791D01*
X567944Y530480D01*
X567618Y528000D01*
X567944Y525520D01*
X568902Y523209D01*
X570424Y521225D01*
X572409Y519702D01*
X574720Y518745D01*
X577200Y518418D01*
X579680Y518745D01*
X581991Y519702D01*
X583975Y521225D01*
X585498Y523209D01*
X586455Y525520D01*
X586782Y528000D01*
X586455Y530480D01*
X585498Y532791D01*
X583975Y534776D01*
X581991Y536298D01*
X579680Y537256D01*
X577200Y537582D01*
D02*
G37*
G36*
X531690Y531514D02*
X529602Y531239D01*
X527655Y530433D01*
X525984Y529151D01*
X524702Y527480D01*
X523896Y525533D01*
X523621Y523445D01*
X523896Y521357D01*
X524702Y519411D01*
X525984Y517739D01*
X527655Y516457D01*
X529602Y515651D01*
X531690Y515376D01*
X533778Y515651D01*
X535724Y516457D01*
X537396Y517739D01*
X538678Y519411D01*
X539484Y521357D01*
X539759Y523445D01*
X539484Y525533D01*
X538678Y527480D01*
X537396Y529151D01*
X535724Y530433D01*
X533778Y531239D01*
X531690Y531514D01*
D02*
G37*
G36*
X412310D02*
X410222Y531239D01*
X408275Y530433D01*
X406604Y529151D01*
X405322Y527480D01*
X404516Y525533D01*
X404241Y523445D01*
X404516Y521357D01*
X405322Y519411D01*
X406604Y517739D01*
X408275Y516457D01*
X410222Y515651D01*
X412310Y515376D01*
X414398Y515651D01*
X416344Y516457D01*
X418016Y517739D01*
X419298Y519411D01*
X420104Y521357D01*
X420379Y523445D01*
X420104Y525533D01*
X419298Y527480D01*
X418016Y529151D01*
X416344Y530433D01*
X414398Y531239D01*
X412310Y531514D01*
D02*
G37*
G36*
X383000Y516569D02*
X381634Y516297D01*
X380477Y515523D01*
X379703Y514366D01*
X379431Y513000D01*
X379703Y511634D01*
X380477Y510477D01*
X381634Y509703D01*
X383000Y509431D01*
X384366Y509703D01*
X385523Y510477D01*
X386297Y511634D01*
X386569Y513000D01*
X386297Y514366D01*
X385523Y515523D01*
X384366Y516297D01*
X383000Y516569D01*
D02*
G37*
G36*
X350000Y515569D02*
X348634Y515297D01*
X347477Y514523D01*
X346703Y513366D01*
X346431Y512000D01*
X346703Y510634D01*
X347477Y509477D01*
X348634Y508703D01*
X350000Y508431D01*
X351366Y508703D01*
X352523Y509477D01*
X353297Y510634D01*
X353569Y512000D01*
X353297Y513366D01*
X352523Y514523D01*
X351366Y515297D01*
X350000Y515569D01*
D02*
G37*
G36*
X502000Y526659D02*
X498867Y526246D01*
X495948Y525037D01*
X493442Y523114D01*
X491518Y520607D01*
X490309Y517688D01*
X489896Y514555D01*
X490309Y511422D01*
X491518Y508503D01*
X493442Y505997D01*
X495948Y504073D01*
X498867Y502864D01*
X502000Y502451D01*
X505133Y502864D01*
X508052Y504073D01*
X510559Y505997D01*
X512482Y508503D01*
X513691Y511422D01*
X514104Y514555D01*
X513691Y517688D01*
X512482Y520607D01*
X510559Y523114D01*
X508052Y525037D01*
X505133Y526246D01*
X502000Y526659D01*
D02*
G37*
G36*
X472000D02*
X468867Y526246D01*
X465948Y525037D01*
X463442Y523114D01*
X461518Y520607D01*
X460309Y517688D01*
X459896Y514555D01*
X460309Y511422D01*
X461518Y508503D01*
X463442Y505997D01*
X465948Y504073D01*
X468867Y502864D01*
X472000Y502451D01*
X475133Y502864D01*
X478052Y504073D01*
X480559Y505997D01*
X482482Y508503D01*
X483691Y511422D01*
X484104Y514555D01*
X483691Y517688D01*
X482482Y520607D01*
X480559Y523114D01*
X478052Y525037D01*
X475133Y526246D01*
X472000Y526659D01*
D02*
G37*
G36*
X303000Y508569D02*
X301634Y508297D01*
X300477Y507523D01*
X299703Y506366D01*
X299431Y505000D01*
X299703Y503634D01*
X300477Y502477D01*
X301634Y501703D01*
X303000Y501431D01*
X304366Y501703D01*
X305523Y502477D01*
X306297Y503634D01*
X306569Y505000D01*
X306297Y506366D01*
X305523Y507523D01*
X304366Y508297D01*
X303000Y508569D01*
D02*
G37*
G36*
X131000D02*
X129634Y508297D01*
X128477Y507523D01*
X127703Y506366D01*
X127431Y505000D01*
X127703Y503634D01*
X128477Y502477D01*
X129634Y501703D01*
X131000Y501431D01*
X132366Y501703D01*
X133523Y502477D01*
X134297Y503634D01*
X134569Y505000D01*
X134297Y506366D01*
X133523Y507523D01*
X132366Y508297D01*
X131000Y508569D01*
D02*
G37*
G36*
X276000Y507569D02*
X274634Y507297D01*
X273477Y506523D01*
X272703Y505366D01*
X272431Y504000D01*
X272703Y502634D01*
X273477Y501477D01*
X274634Y500703D01*
X276000Y500431D01*
X277366Y500703D01*
X278523Y501477D01*
X279297Y502634D01*
X279569Y504000D01*
X279297Y505366D01*
X278523Y506523D01*
X277366Y507297D01*
X276000Y507569D01*
D02*
G37*
G36*
X329000Y493569D02*
X327634Y493297D01*
X326477Y492523D01*
X325703Y491366D01*
X325431Y490000D01*
X325703Y488634D01*
X326477Y487477D01*
X327634Y486703D01*
X329000Y486431D01*
X330366Y486703D01*
X331523Y487477D01*
X332297Y488634D01*
X332569Y490000D01*
X332297Y491366D01*
X331523Y492523D01*
X330366Y493297D01*
X329000Y493569D01*
D02*
G37*
G36*
X361000Y484569D02*
X359634Y484297D01*
X358477Y483523D01*
X357703Y482366D01*
X357431Y481000D01*
X357703Y479634D01*
X358477Y478477D01*
X359634Y477703D01*
X361000Y477431D01*
X362366Y477703D01*
X363523Y478477D01*
X364297Y479634D01*
X364569Y481000D01*
X364297Y482366D01*
X363523Y483523D01*
X362366Y484297D01*
X361000Y484569D01*
D02*
G37*
G36*
X507000Y496615D02*
X497000D01*
X495173Y496375D01*
X493470Y495670D01*
X492007Y494548D01*
X490886Y493085D01*
X490180Y491382D01*
X489940Y489555D01*
Y479555D01*
X490180Y477728D01*
X490886Y476025D01*
X492007Y474563D01*
X493470Y473441D01*
X495173Y472735D01*
X497000Y472495D01*
X507000D01*
X508827Y472735D01*
X510530Y473441D01*
X511992Y474563D01*
X513115Y476025D01*
X513820Y477728D01*
X514060Y479555D01*
Y489555D01*
X513820Y491382D01*
X513115Y493085D01*
X511992Y494548D01*
X510530Y495670D01*
X508827Y496375D01*
X507000Y496615D01*
D02*
G37*
G36*
X472000Y496659D02*
X468867Y496246D01*
X465948Y495037D01*
X463442Y493114D01*
X461518Y490607D01*
X460309Y487688D01*
X459896Y484555D01*
X460309Y481422D01*
X461518Y478503D01*
X463442Y475997D01*
X465948Y474073D01*
X468867Y472864D01*
X472000Y472452D01*
X475133Y472864D01*
X478052Y474073D01*
X480559Y475997D01*
X482482Y478503D01*
X483691Y481422D01*
X484104Y484555D01*
X483691Y487688D01*
X482482Y490607D01*
X480559Y493114D01*
X478052Y495037D01*
X475133Y496246D01*
X472000Y496659D01*
D02*
G37*
G36*
X442000D02*
X438867Y496246D01*
X435948Y495037D01*
X433442Y493114D01*
X431518Y490607D01*
X430309Y487688D01*
X429896Y484555D01*
X430309Y481422D01*
X431518Y478503D01*
X433442Y475997D01*
X435948Y474073D01*
X438867Y472864D01*
X442000Y472452D01*
X445133Y472864D01*
X448052Y474073D01*
X450559Y475997D01*
X452482Y478503D01*
X453691Y481422D01*
X454104Y484555D01*
X453691Y487688D01*
X452482Y490607D01*
X450559Y493114D01*
X448052Y495037D01*
X445133Y496246D01*
X442000Y496659D01*
D02*
G37*
G36*
X390000Y479569D02*
X388634Y479297D01*
X387477Y478523D01*
X386703Y477366D01*
X386431Y476000D01*
X386703Y474634D01*
X387477Y473477D01*
X388634Y472703D01*
X390000Y472431D01*
X391366Y472703D01*
X392523Y473477D01*
X393297Y474634D01*
X393569Y476000D01*
X393297Y477366D01*
X392523Y478523D01*
X391366Y479297D01*
X390000Y479569D01*
D02*
G37*
G36*
X374000Y472569D02*
X372634Y472297D01*
X371477Y471523D01*
X370703Y470366D01*
X370431Y469000D01*
X370703Y467634D01*
X371477Y466477D01*
X372634Y465703D01*
X374000Y465431D01*
X375366Y465703D01*
X376523Y466477D01*
X377297Y467634D01*
X377569Y469000D01*
X377297Y470366D01*
X376523Y471523D01*
X375366Y472297D01*
X374000Y472569D01*
D02*
G37*
G36*
X266000Y468569D02*
X264634Y468297D01*
X263477Y467523D01*
X262703Y466366D01*
X262431Y465000D01*
X262703Y463634D01*
X263477Y462477D01*
X264634Y461703D01*
X266000Y461431D01*
X267366Y461703D01*
X268523Y462477D01*
X269297Y463634D01*
X269569Y465000D01*
X269297Y466366D01*
X268523Y467523D01*
X267366Y468297D01*
X266000Y468569D01*
D02*
G37*
G36*
X293000Y465819D02*
X291634Y465547D01*
X290477Y464773D01*
X289703Y463616D01*
X289431Y462250D01*
X289703Y460884D01*
X290477Y459727D01*
X291634Y458953D01*
X293000Y458681D01*
X294366Y458953D01*
X295523Y459727D01*
X296297Y460884D01*
X296569Y462250D01*
X296297Y463616D01*
X295523Y464773D01*
X294366Y465547D01*
X293000Y465819D01*
D02*
G37*
G36*
X283000D02*
X281634Y465547D01*
X280477Y464773D01*
X279703Y463616D01*
X279431Y462250D01*
X279703Y460884D01*
X280477Y459727D01*
X281634Y458953D01*
X283000Y458681D01*
X284366Y458953D01*
X285523Y459727D01*
X286297Y460884D01*
X286569Y462250D01*
X286297Y463616D01*
X285523Y464773D01*
X284366Y465547D01*
X283000Y465819D01*
D02*
G37*
G36*
X329000Y463568D02*
X327634Y463297D01*
X326477Y462523D01*
X325703Y461366D01*
X325431Y460000D01*
X325703Y458634D01*
X326477Y457477D01*
X327634Y456703D01*
X329000Y456431D01*
X330366Y456703D01*
X331523Y457477D01*
X332297Y458634D01*
X332569Y460000D01*
X332297Y461366D01*
X331523Y462523D01*
X330366Y463297D01*
X329000Y463568D01*
D02*
G37*
G36*
X393000Y458569D02*
X391634Y458297D01*
X390477Y457523D01*
X389703Y456366D01*
X389431Y455000D01*
X389703Y453634D01*
X390477Y452477D01*
X391634Y451703D01*
X393000Y451431D01*
X394366Y451703D01*
X395523Y452477D01*
X396297Y453634D01*
X396569Y455000D01*
X396297Y456366D01*
X395523Y457523D01*
X394366Y458297D01*
X393000Y458569D01*
D02*
G37*
G36*
X266000Y451569D02*
X264634Y451297D01*
X263477Y450523D01*
X262703Y449366D01*
X262431Y448000D01*
X262703Y446634D01*
X263477Y445477D01*
X264634Y444703D01*
X266000Y444431D01*
X267366Y444703D01*
X268523Y445477D01*
X269297Y446634D01*
X269569Y448000D01*
X269297Y449366D01*
X268523Y450523D01*
X267366Y451297D01*
X266000Y451569D01*
D02*
G37*
G36*
X611000Y447069D02*
X609634Y446797D01*
X608477Y446023D01*
X607703Y444866D01*
X607431Y443500D01*
X607703Y442134D01*
X608477Y440977D01*
X609634Y440203D01*
X611000Y439931D01*
X612366Y440203D01*
X613523Y440977D01*
X614297Y442134D01*
X614569Y443500D01*
X614297Y444866D01*
X613523Y446023D01*
X612366Y446797D01*
X611000Y447069D01*
D02*
G37*
G36*
X586000Y446569D02*
X584634Y446297D01*
X583477Y445523D01*
X582703Y444366D01*
X582431Y443000D01*
X582703Y441634D01*
X583477Y440477D01*
X584634Y439703D01*
X586000Y439431D01*
X587366Y439703D01*
X588523Y440477D01*
X589297Y441634D01*
X589569Y443000D01*
X589297Y444366D01*
X588523Y445523D01*
X587366Y446297D01*
X586000Y446569D01*
D02*
G37*
G36*
X79000Y445078D02*
X77439Y444768D01*
X76116Y443884D01*
X75232Y442561D01*
X74922Y441000D01*
X75232Y439439D01*
X76116Y438116D01*
X77439Y437232D01*
X79000Y436922D01*
X80561Y437232D01*
X81884Y438116D01*
X82768Y439439D01*
X83078Y441000D01*
X82768Y442561D01*
X81884Y443884D01*
X80561Y444768D01*
X79000Y445078D01*
D02*
G37*
G36*
X294172Y440029D02*
X292806Y439758D01*
X291648Y438984D01*
X290875Y437826D01*
X290603Y436461D01*
X290875Y435095D01*
X291648Y433937D01*
X292806Y433164D01*
X294172Y432892D01*
X295537Y433164D01*
X296695Y433937D01*
X297468Y435095D01*
X297740Y436461D01*
X297468Y437826D01*
X296695Y438984D01*
X295537Y439758D01*
X294172Y440029D01*
D02*
G37*
G36*
X282000Y439569D02*
X280634Y439297D01*
X279477Y438523D01*
X278703Y437366D01*
X278431Y436000D01*
X278703Y434634D01*
X279477Y433477D01*
X280634Y432703D01*
X282000Y432431D01*
X283366Y432703D01*
X284523Y433477D01*
X285297Y434634D01*
X285569Y436000D01*
X285297Y437366D01*
X284523Y438523D01*
X283366Y439297D01*
X282000Y439569D01*
D02*
G37*
G36*
X374000Y439069D02*
X372634Y438797D01*
X371477Y438023D01*
X370703Y436866D01*
X370431Y435500D01*
X370703Y434134D01*
X371477Y432977D01*
X372634Y432203D01*
X374000Y431931D01*
X375366Y432203D01*
X376523Y432977D01*
X377297Y434134D01*
X377569Y435500D01*
X377297Y436866D01*
X376523Y438023D01*
X375366Y438797D01*
X374000Y439069D01*
D02*
G37*
G36*
X394000Y438569D02*
X392634Y438297D01*
X391477Y437523D01*
X390703Y436366D01*
X390431Y435000D01*
X390703Y433634D01*
X391477Y432477D01*
X392634Y431703D01*
X394000Y431431D01*
X395366Y431703D01*
X396523Y432477D01*
X397297Y433634D01*
X397569Y435000D01*
X397297Y436366D01*
X396523Y437523D01*
X395366Y438297D01*
X394000Y438569D01*
D02*
G37*
G36*
X734000Y447118D02*
X726000D01*
X723659Y446652D01*
X721674Y445326D01*
X720348Y443341D01*
X719883Y441000D01*
Y433000D01*
X720348Y430659D01*
X721674Y428674D01*
X723659Y427348D01*
X726000Y426883D01*
X734000D01*
X736341Y427348D01*
X738326Y428674D01*
X739652Y430659D01*
X740117Y433000D01*
Y441000D01*
X739652Y443341D01*
X738326Y445326D01*
X736341Y446652D01*
X734000Y447118D01*
D02*
G37*
G36*
X406000Y430569D02*
X404634Y430297D01*
X403477Y429523D01*
X402703Y428366D01*
X402431Y427000D01*
X402703Y425634D01*
X403477Y424477D01*
X404634Y423703D01*
X406000Y423431D01*
X407366Y423703D01*
X408523Y424477D01*
X409297Y425634D01*
X409569Y427000D01*
X409297Y428366D01*
X408523Y429523D01*
X407366Y430297D01*
X406000Y430569D01*
D02*
G37*
G36*
X331000Y421569D02*
X329634Y421297D01*
X328477Y420523D01*
X327703Y419366D01*
X327431Y418000D01*
X327703Y416634D01*
X328477Y415477D01*
X329634Y414703D01*
X331000Y414431D01*
X332366Y414703D01*
X333523Y415477D01*
X334297Y416634D01*
X334569Y418000D01*
X334297Y419366D01*
X333523Y420523D01*
X332366Y421297D01*
X331000Y421569D01*
D02*
G37*
G36*
X356000Y420569D02*
X354634Y420297D01*
X353477Y419523D01*
X352703Y418366D01*
X352431Y417000D01*
X352703Y415634D01*
X353477Y414477D01*
X354634Y413703D01*
X356000Y413431D01*
X357366Y413703D01*
X358523Y414477D01*
X359297Y415634D01*
X359569Y417000D01*
X359297Y418366D01*
X358523Y419523D01*
X357366Y420297D01*
X356000Y420569D01*
D02*
G37*
G36*
X343000D02*
X341634Y420297D01*
X340477Y419523D01*
X339703Y418366D01*
X339431Y417000D01*
X339703Y415634D01*
X340477Y414477D01*
X341634Y413703D01*
X343000Y413431D01*
X344366Y413703D01*
X345523Y414477D01*
X346297Y415634D01*
X346569Y417000D01*
X346297Y418366D01*
X345523Y419523D01*
X344366Y420297D01*
X343000Y420569D01*
D02*
G37*
G36*
X382000Y419569D02*
X380634Y419297D01*
X379477Y418523D01*
X378703Y417366D01*
X378431Y416000D01*
X378703Y414634D01*
X379477Y413477D01*
X380634Y412703D01*
X382000Y412431D01*
X383366Y412703D01*
X384523Y413477D01*
X385297Y414634D01*
X385569Y416000D01*
X385297Y417366D01*
X384523Y418523D01*
X383366Y419297D01*
X382000Y419569D01*
D02*
G37*
G36*
X394000Y418569D02*
X392634Y418297D01*
X391477Y417523D01*
X390703Y416366D01*
X390431Y415000D01*
X390703Y413634D01*
X391477Y412477D01*
X392634Y411703D01*
X394000Y411431D01*
X395366Y411703D01*
X396523Y412477D01*
X397297Y413634D01*
X397569Y415000D01*
X397297Y416366D01*
X396523Y417523D01*
X395366Y418297D01*
X394000Y418569D01*
D02*
G37*
G36*
X318000Y419078D02*
X316439Y418768D01*
X315116Y417884D01*
X314232Y416561D01*
X313922Y415000D01*
X314232Y413439D01*
X315116Y412116D01*
X316439Y411232D01*
X318000Y410922D01*
X319561Y411232D01*
X320884Y412116D01*
X321768Y413439D01*
X322078Y415000D01*
X321768Y416561D01*
X320884Y417884D01*
X319561Y418768D01*
X318000Y419078D01*
D02*
G37*
G36*
X369000Y417569D02*
X367634Y417297D01*
X366477Y416523D01*
X365703Y415366D01*
X365431Y414000D01*
X365703Y412634D01*
X366477Y411477D01*
X367634Y410703D01*
X369000Y410431D01*
X370366Y410703D01*
X371523Y411477D01*
X372297Y412634D01*
X372569Y414000D01*
X372297Y415366D01*
X371523Y416523D01*
X370366Y417297D01*
X369000Y417569D01*
D02*
G37*
G36*
X691000Y408669D02*
X689634Y408397D01*
X688477Y407623D01*
X687703Y406466D01*
X687431Y405100D01*
X687703Y403734D01*
X688477Y402577D01*
X689634Y401803D01*
X691000Y401531D01*
X692366Y401803D01*
X693523Y402577D01*
X694297Y403734D01*
X694569Y405100D01*
X694297Y406466D01*
X693523Y407623D01*
X692366Y408397D01*
X691000Y408669D01*
D02*
G37*
G36*
X730000Y421686D02*
X727390Y421343D01*
X724957Y420335D01*
X722868Y418732D01*
X721265Y416643D01*
X720257Y414211D01*
X719914Y411600D01*
X720257Y408989D01*
X721265Y406557D01*
X722868Y404468D01*
X724957Y402865D01*
X727390Y401857D01*
X730000Y401514D01*
X732610Y401857D01*
X735043Y402865D01*
X737132Y404468D01*
X738735Y406557D01*
X739743Y408989D01*
X740086Y411600D01*
X739743Y414211D01*
X738735Y416643D01*
X737132Y418732D01*
X735043Y420335D01*
X732610Y421343D01*
X730000Y421686D01*
D02*
G37*
G36*
X129000Y408569D02*
X127634Y408297D01*
X126477Y407523D01*
X125703Y406366D01*
X125431Y405000D01*
X125703Y403634D01*
X126477Y402477D01*
X127634Y401703D01*
X129000Y401431D01*
X130366Y401703D01*
X131523Y402477D01*
X132297Y403634D01*
X132569Y405000D01*
X132297Y406366D01*
X131523Y407523D01*
X130366Y408297D01*
X129000Y408569D01*
D02*
G37*
G36*
X283500Y406569D02*
X282134Y406297D01*
X280977Y405523D01*
X280203Y404366D01*
X279931Y403000D01*
X280203Y401634D01*
X280977Y400477D01*
X282134Y399703D01*
X283500Y399431D01*
X284866Y399703D01*
X286023Y400477D01*
X286797Y401634D01*
X287069Y403000D01*
X286797Y404366D01*
X286023Y405523D01*
X284866Y406297D01*
X283500Y406569D01*
D02*
G37*
G36*
X183000Y395569D02*
X181634Y395297D01*
X180477Y394523D01*
X179703Y393366D01*
X179431Y392000D01*
X179703Y390634D01*
X180477Y389477D01*
X181634Y388703D01*
X183000Y388431D01*
X184366Y388703D01*
X185523Y389477D01*
X186297Y390634D01*
X186569Y392000D01*
X186297Y393366D01*
X185523Y394523D01*
X184366Y395297D01*
X183000Y395569D01*
D02*
G37*
G36*
X667000Y389078D02*
X665439Y388768D01*
X664116Y387884D01*
X663232Y386561D01*
X662922Y385000D01*
X663232Y383439D01*
X664116Y382116D01*
X665439Y381232D01*
X667000Y380922D01*
X668561Y381232D01*
X669884Y382116D01*
X670768Y383439D01*
X671078Y385000D01*
X670768Y386561D01*
X669884Y387884D01*
X668561Y388768D01*
X667000Y389078D01*
D02*
G37*
G36*
X83000Y384569D02*
X81634Y384297D01*
X80477Y383523D01*
X79703Y382366D01*
X79431Y381000D01*
X79703Y379634D01*
X80477Y378477D01*
X81634Y377703D01*
X83000Y377431D01*
X84366Y377703D01*
X85523Y378477D01*
X86297Y379634D01*
X86569Y381000D01*
X86297Y382366D01*
X85523Y383523D01*
X84366Y384297D01*
X83000Y384569D01*
D02*
G37*
G36*
X730000Y396286D02*
X727390Y395943D01*
X724957Y394935D01*
X722868Y393332D01*
X721265Y391243D01*
X720257Y388811D01*
X719914Y386200D01*
X720257Y383590D01*
X721265Y381157D01*
X722868Y379068D01*
X724957Y377465D01*
X727390Y376457D01*
X730000Y376114D01*
X732610Y376457D01*
X735043Y377465D01*
X737132Y379068D01*
X738735Y381157D01*
X739743Y383590D01*
X740086Y386200D01*
X739743Y388811D01*
X738735Y391243D01*
X737132Y393332D01*
X735043Y394935D01*
X732610Y395943D01*
X730000Y396286D01*
D02*
G37*
G36*
X247000Y371569D02*
X245634Y371297D01*
X244477Y370523D01*
X243703Y369366D01*
X243431Y368000D01*
X243703Y366634D01*
X244477Y365477D01*
X245634Y364703D01*
X247000Y364431D01*
X248366Y364703D01*
X249523Y365477D01*
X250297Y366634D01*
X250569Y368000D01*
X250297Y369366D01*
X249523Y370523D01*
X248366Y371297D01*
X247000Y371569D01*
D02*
G37*
G36*
X130000Y370519D02*
X128634Y370247D01*
X127477Y369473D01*
X126703Y368316D01*
X126431Y366950D01*
X126703Y365584D01*
X127477Y364427D01*
X128634Y363653D01*
X130000Y363381D01*
X131366Y363653D01*
X132523Y364427D01*
X133297Y365584D01*
X133569Y366950D01*
X133297Y368316D01*
X132523Y369473D01*
X131366Y370247D01*
X130000Y370519D01*
D02*
G37*
G36*
X544000Y345569D02*
X542634Y345297D01*
X541477Y344523D01*
X540703Y343366D01*
X540431Y342000D01*
X540703Y340634D01*
X541477Y339477D01*
X542634Y338703D01*
X544000Y338431D01*
X545366Y338703D01*
X546523Y339477D01*
X547297Y340634D01*
X547569Y342000D01*
X547297Y343366D01*
X546523Y344523D01*
X545366Y345297D01*
X544000Y345569D01*
D02*
G37*
G36*
X380000D02*
X378634Y345297D01*
X377477Y344523D01*
X376703Y343366D01*
X376431Y342000D01*
X376703Y340634D01*
X377477Y339477D01*
X378634Y338703D01*
X380000Y338431D01*
X381366Y338703D01*
X382523Y339477D01*
X383297Y340634D01*
X383569Y342000D01*
X383297Y343366D01*
X382523Y344523D01*
X381366Y345297D01*
X380000Y345569D01*
D02*
G37*
G36*
X566000Y344569D02*
X564634Y344297D01*
X563477Y343523D01*
X562703Y342366D01*
X562431Y341000D01*
X562703Y339634D01*
X563477Y338477D01*
X564634Y337703D01*
X566000Y337431D01*
X567366Y337703D01*
X568523Y338477D01*
X569297Y339634D01*
X569569Y341000D01*
X569297Y342366D01*
X568523Y343523D01*
X567366Y344297D01*
X566000Y344569D01*
D02*
G37*
G36*
X695500Y342358D02*
X693354Y341931D01*
X691535Y340715D01*
X690319Y338896D01*
X689892Y336750D01*
X690319Y334604D01*
X691535Y332785D01*
X693354Y331569D01*
X695500Y331142D01*
X697646Y331569D01*
X699465Y332785D01*
X700681Y334604D01*
X701108Y336750D01*
X700681Y338896D01*
X699465Y340715D01*
X697646Y341931D01*
X695500Y342358D01*
D02*
G37*
G36*
X52000Y334569D02*
X50634Y334297D01*
X49477Y333523D01*
X48703Y332366D01*
X48431Y331000D01*
X48703Y329634D01*
X49477Y328477D01*
X50634Y327703D01*
X52000Y327431D01*
X53366Y327703D01*
X54523Y328477D01*
X55297Y329634D01*
X55569Y331000D01*
X55297Y332366D01*
X54523Y333523D01*
X53366Y334297D01*
X52000Y334569D01*
D02*
G37*
G36*
X599000Y328319D02*
X597634Y328047D01*
X596477Y327273D01*
X595703Y326116D01*
X595431Y324750D01*
X595703Y323384D01*
X596477Y322227D01*
X597634Y321453D01*
X599000Y321181D01*
X600366Y321453D01*
X601523Y322227D01*
X602297Y323384D01*
X602569Y324750D01*
X602297Y326116D01*
X601523Y327273D01*
X600366Y328047D01*
X599000Y328319D01*
D02*
G37*
G36*
X414000Y322569D02*
X412634Y322297D01*
X411477Y321523D01*
X410703Y320366D01*
X410431Y319000D01*
X410703Y317634D01*
X411477Y316477D01*
X412634Y315703D01*
X414000Y315431D01*
X415366Y315703D01*
X416523Y316477D01*
X417297Y317634D01*
X417569Y319000D01*
X417297Y320366D01*
X416523Y321523D01*
X415366Y322297D01*
X414000Y322569D01*
D02*
G37*
G36*
X345000Y317569D02*
X343634Y317297D01*
X342477Y316523D01*
X341703Y315366D01*
X341431Y314000D01*
X341703Y312634D01*
X342477Y311477D01*
X343634Y310703D01*
X345000Y310431D01*
X346366Y310703D01*
X347523Y311477D01*
X348297Y312634D01*
X348569Y314000D01*
X348297Y315366D01*
X347523Y316523D01*
X346366Y317297D01*
X345000Y317569D01*
D02*
G37*
G36*
X335000D02*
X333634Y317297D01*
X332477Y316523D01*
X331703Y315366D01*
X331431Y314000D01*
X331703Y312634D01*
X332477Y311477D01*
X333634Y310703D01*
X335000Y310431D01*
X336366Y310703D01*
X337523Y311477D01*
X338297Y312634D01*
X338569Y314000D01*
X338297Y315366D01*
X337523Y316523D01*
X336366Y317297D01*
X335000Y317569D01*
D02*
G37*
G36*
X325000D02*
X323634Y317297D01*
X322477Y316523D01*
X321703Y315366D01*
X321431Y314000D01*
X321703Y312634D01*
X322477Y311477D01*
X323634Y310703D01*
X325000Y310431D01*
X326366Y310703D01*
X327523Y311477D01*
X328297Y312634D01*
X328569Y314000D01*
X328297Y315366D01*
X327523Y316523D01*
X326366Y317297D01*
X325000Y317569D01*
D02*
G37*
G36*
X315000D02*
X313634Y317297D01*
X312477Y316523D01*
X311703Y315366D01*
X311431Y314000D01*
X311703Y312634D01*
X312477Y311477D01*
X313634Y310703D01*
X315000Y310431D01*
X316366Y310703D01*
X317523Y311477D01*
X318297Y312634D01*
X318569Y314000D01*
X318297Y315366D01*
X317523Y316523D01*
X316366Y317297D01*
X315000Y317569D01*
D02*
G37*
G36*
X113000Y316569D02*
X111634Y316297D01*
X110477Y315523D01*
X109703Y314366D01*
X109431Y313000D01*
X109703Y311634D01*
X110477Y310477D01*
X111634Y309703D01*
X113000Y309431D01*
X114366Y309703D01*
X115523Y310477D01*
X116297Y311634D01*
X116569Y313000D01*
X116297Y314366D01*
X115523Y315523D01*
X114366Y316297D01*
X113000Y316569D01*
D02*
G37*
G36*
X385250Y314569D02*
X383884Y314297D01*
X382727Y313523D01*
X381953Y312366D01*
X381681Y311000D01*
X381953Y309634D01*
X382727Y308477D01*
X383884Y307703D01*
X385250Y307431D01*
X386616Y307703D01*
X387773Y308477D01*
X388547Y309634D01*
X388819Y311000D01*
X388547Y312366D01*
X387773Y313523D01*
X386616Y314297D01*
X385250Y314569D01*
D02*
G37*
G36*
X22000D02*
X20634Y314297D01*
X19477Y313523D01*
X18703Y312366D01*
X18431Y311000D01*
X18703Y309634D01*
X19477Y308477D01*
X20634Y307703D01*
X22000Y307431D01*
X23366Y307703D01*
X24523Y308477D01*
X25297Y309634D01*
X25569Y311000D01*
X25297Y312366D01*
X24523Y313523D01*
X23366Y314297D01*
X22000Y314569D01*
D02*
G37*
G36*
X394970Y315989D02*
X393604Y315717D01*
X392447Y314943D01*
X391673Y313786D01*
X391401Y312420D01*
X391673Y311054D01*
X392447Y309897D01*
X393604Y309123D01*
X394970Y308851D01*
X396336Y309123D01*
X396367Y309144D01*
X397283Y308229D01*
X396753Y307436D01*
X396481Y306070D01*
X396753Y304704D01*
X397527Y303547D01*
X398684Y302773D01*
X400050Y302501D01*
X401416Y302773D01*
X402573Y303547D01*
X403347Y304704D01*
X403619Y306070D01*
X403561Y306360D01*
X404656Y307362D01*
X405336Y307227D01*
X406701Y307498D01*
X407859Y308272D01*
X408632Y309429D01*
X408904Y310795D01*
X408632Y312161D01*
X407859Y313318D01*
X406701Y314092D01*
X405336Y314364D01*
X403970Y314092D01*
X402812Y313318D01*
X402039Y312161D01*
X401767Y310795D01*
X401825Y310505D01*
X400729Y309503D01*
X400050Y309639D01*
X398684Y309367D01*
X398653Y309346D01*
X397737Y310261D01*
X398267Y311054D01*
X398539Y312420D01*
X398267Y313786D01*
X397493Y314943D01*
X396336Y315717D01*
X394970Y315989D01*
D02*
G37*
G36*
X279413Y313569D02*
X278048Y313297D01*
X276890Y312523D01*
X276116Y311366D01*
X275845Y310000D01*
X276116Y308634D01*
X276890Y307477D01*
X278048Y306703D01*
X279413Y306431D01*
X280779Y306703D01*
X281937Y307477D01*
X282710Y308634D01*
X282982Y310000D01*
X282710Y311366D01*
X281937Y312523D01*
X280779Y313297D01*
X279413Y313569D01*
D02*
G37*
G36*
X520000Y311078D02*
X518439Y310768D01*
X517116Y309884D01*
X516232Y308561D01*
X515922Y307000D01*
X516232Y305439D01*
X517116Y304116D01*
X518439Y303232D01*
X520000Y302922D01*
X521561Y303232D01*
X522884Y304116D01*
X523768Y305439D01*
X524078Y307000D01*
X523768Y308561D01*
X522884Y309884D01*
X521561Y310768D01*
X520000Y311078D01*
D02*
G37*
G36*
X340000Y309569D02*
X338634Y309297D01*
X337477Y308523D01*
X336703Y307366D01*
X336431Y306000D01*
X336703Y304634D01*
X337477Y303477D01*
X338634Y302703D01*
X340000Y302431D01*
X341366Y302703D01*
X342523Y303477D01*
X343297Y304634D01*
X343569Y306000D01*
X343297Y307366D01*
X342523Y308523D01*
X341366Y309297D01*
X340000Y309569D01*
D02*
G37*
G36*
X330000D02*
X328634Y309297D01*
X327477Y308523D01*
X326703Y307366D01*
X326431Y306000D01*
X326703Y304634D01*
X327477Y303477D01*
X328634Y302703D01*
X330000Y302431D01*
X331366Y302703D01*
X332523Y303477D01*
X333297Y304634D01*
X333569Y306000D01*
X333297Y307366D01*
X332523Y308523D01*
X331366Y309297D01*
X330000Y309569D01*
D02*
G37*
G36*
X320000D02*
X318634Y309297D01*
X317477Y308523D01*
X316703Y307366D01*
X316431Y306000D01*
X316703Y304634D01*
X317477Y303477D01*
X318634Y302703D01*
X320000Y302431D01*
X321366Y302703D01*
X322523Y303477D01*
X323297Y304634D01*
X323569Y306000D01*
X323297Y307366D01*
X322523Y308523D01*
X321366Y309297D01*
X320000Y309569D01*
D02*
G37*
G36*
X300000Y320569D02*
X298634Y320297D01*
X297477Y319523D01*
X296703Y318366D01*
X296431Y317000D01*
X296703Y315634D01*
X297477Y314477D01*
X298634Y313703D01*
X300000Y313431D01*
X300439Y313519D01*
X301519Y312439D01*
X301431Y312000D01*
X301703Y310634D01*
X302477Y309477D01*
X303634Y308703D01*
X305000Y308431D01*
X306024Y308635D01*
X306806Y307732D01*
X306863Y307606D01*
X306703Y307366D01*
X306431Y306000D01*
X306703Y304634D01*
X307477Y303477D01*
X308634Y302703D01*
X310000Y302431D01*
X311366Y302703D01*
X312523Y303477D01*
X313297Y304634D01*
X313569Y306000D01*
X313297Y307366D01*
X312523Y308523D01*
X311366Y309297D01*
X310000Y309569D01*
X308976Y309365D01*
X308194Y310268D01*
X308136Y310394D01*
X308297Y310634D01*
X308569Y312000D01*
X308297Y313366D01*
X307523Y314523D01*
X306366Y315297D01*
X305000Y315569D01*
X304561Y315481D01*
X303481Y316561D01*
X303569Y317000D01*
X303297Y318366D01*
X302523Y319523D01*
X301366Y320297D01*
X300000Y320569D01*
D02*
G37*
G36*
X390000Y307569D02*
X388634Y307297D01*
X387477Y306523D01*
X386703Y305366D01*
X386431Y304000D01*
X386703Y302634D01*
X387477Y301477D01*
X388634Y300703D01*
X390000Y300431D01*
X391366Y300703D01*
X392523Y301477D01*
X393297Y302634D01*
X393569Y304000D01*
X393297Y305366D01*
X392523Y306523D01*
X391366Y307297D01*
X390000Y307569D01*
D02*
G37*
G36*
X290773Y306724D02*
X289408Y306453D01*
X288250Y305679D01*
X287476Y304521D01*
X287205Y303156D01*
X287476Y301790D01*
X288250Y300632D01*
X289408Y299859D01*
X290773Y299587D01*
X292139Y299859D01*
X293297Y300632D01*
X294070Y301790D01*
X294342Y303156D01*
X294070Y304521D01*
X293297Y305679D01*
X292139Y306453D01*
X290773Y306724D01*
D02*
G37*
G36*
X410000Y303569D02*
X408634Y303297D01*
X407477Y302523D01*
X406703Y301366D01*
X406431Y300000D01*
X406703Y298634D01*
X407477Y297477D01*
X408634Y296703D01*
X410000Y296431D01*
X411366Y296703D01*
X412523Y297477D01*
X413297Y298634D01*
X413569Y300000D01*
X413297Y301366D01*
X412523Y302523D01*
X411366Y303297D01*
X410000Y303569D01*
D02*
G37*
G36*
X402000Y298569D02*
X400634Y298297D01*
X399477Y297523D01*
X398703Y296366D01*
X398431Y295000D01*
X398703Y293634D01*
X399477Y292477D01*
X400634Y291703D01*
X402000Y291431D01*
X403366Y291703D01*
X404523Y292477D01*
X405297Y293634D01*
X405569Y295000D01*
X405297Y296366D01*
X404523Y297523D01*
X403366Y298297D01*
X402000Y298569D01*
D02*
G37*
G36*
X667000Y297569D02*
X665634Y297297D01*
X664477Y296523D01*
X663703Y295366D01*
X663431Y294000D01*
X663703Y292634D01*
X664477Y291477D01*
X665634Y290703D01*
X667000Y290431D01*
X668366Y290703D01*
X669523Y291477D01*
X670297Y292634D01*
X670569Y294000D01*
X670297Y295366D01*
X669523Y296523D01*
X668366Y297297D01*
X667000Y297569D01*
D02*
G37*
G36*
X695500Y300858D02*
X693354Y300431D01*
X691535Y299215D01*
X690319Y297396D01*
X689892Y295250D01*
X690319Y293104D01*
X691535Y291285D01*
X693354Y290069D01*
X695500Y289642D01*
X697646Y290069D01*
X699465Y291285D01*
X700681Y293104D01*
X701108Y295250D01*
X700681Y297396D01*
X699465Y299215D01*
X697646Y300431D01*
X695500Y300858D01*
D02*
G37*
G36*
X296500Y289069D02*
X295134Y288797D01*
X293977Y288023D01*
X293203Y286866D01*
X292931Y285500D01*
X293203Y284134D01*
X293977Y282977D01*
X295134Y282203D01*
X296500Y281931D01*
X297866Y282203D01*
X299023Y282977D01*
X299797Y284134D01*
X300068Y285500D01*
X299797Y286866D01*
X299023Y288023D01*
X297866Y288797D01*
X296500Y289069D01*
D02*
G37*
G36*
X403000Y288569D02*
X401634Y288297D01*
X400477Y287523D01*
X399703Y286366D01*
X399431Y285000D01*
X399703Y283634D01*
X400477Y282477D01*
X401634Y281703D01*
X403000Y281431D01*
X404366Y281703D01*
X405523Y282477D01*
X406297Y283634D01*
X406569Y285000D01*
X406297Y286366D01*
X405523Y287523D01*
X404366Y288297D01*
X403000Y288569D01*
D02*
G37*
G36*
X571000Y285569D02*
X569634Y285297D01*
X568477Y284523D01*
X567703Y283366D01*
X567431Y282000D01*
X567703Y280634D01*
X568477Y279477D01*
X569634Y278703D01*
X571000Y278431D01*
X572366Y278703D01*
X573523Y279477D01*
X574297Y280634D01*
X574569Y282000D01*
X574297Y283366D01*
X573523Y284523D01*
X572366Y285297D01*
X571000Y285569D01*
D02*
G37*
G36*
X410000Y283569D02*
X408634Y283297D01*
X407477Y282523D01*
X406703Y281366D01*
X406431Y280000D01*
X406703Y278634D01*
X407477Y277477D01*
X408634Y276703D01*
X410000Y276431D01*
X411366Y276703D01*
X412523Y277477D01*
X413297Y278634D01*
X413569Y280000D01*
X413297Y281366D01*
X412523Y282523D01*
X411366Y283297D01*
X410000Y283569D01*
D02*
G37*
G36*
X290000D02*
X288634Y283297D01*
X287477Y282523D01*
X286703Y281366D01*
X286431Y280000D01*
X286703Y278634D01*
X287477Y277477D01*
X288634Y276703D01*
X290000Y276431D01*
X291366Y276703D01*
X292523Y277477D01*
X293297Y278634D01*
X293569Y280000D01*
X293297Y281366D01*
X292523Y282523D01*
X291366Y283297D01*
X290000Y283569D01*
D02*
G37*
G36*
X300000Y278569D02*
X298634Y278297D01*
X297477Y277523D01*
X296703Y276366D01*
X296431Y275000D01*
X296703Y273634D01*
X297477Y272477D01*
X298634Y271703D01*
X300000Y271431D01*
X301366Y271703D01*
X302523Y272477D01*
X303297Y273634D01*
X303569Y275000D01*
X303297Y276366D01*
X302523Y277523D01*
X301366Y278297D01*
X300000Y278569D01*
D02*
G37*
G36*
X410000Y273569D02*
X408634Y273297D01*
X407477Y272523D01*
X406703Y271366D01*
X406431Y270000D01*
X406703Y268634D01*
X407477Y267477D01*
X408634Y266703D01*
X410000Y266431D01*
X411366Y266703D01*
X412523Y267477D01*
X413297Y268634D01*
X413569Y270000D01*
X413297Y271366D01*
X412523Y272523D01*
X411366Y273297D01*
X410000Y273569D01*
D02*
G37*
G36*
X290000D02*
X288634Y273297D01*
X287477Y272523D01*
X286703Y271366D01*
X286431Y270000D01*
X286703Y268634D01*
X287477Y267477D01*
X288634Y266703D01*
X290000Y266431D01*
X291366Y266703D01*
X292523Y267477D01*
X293297Y268634D01*
X293569Y270000D01*
X293297Y271366D01*
X292523Y272523D01*
X291366Y273297D01*
X290000Y273569D01*
D02*
G37*
G36*
X677000Y270569D02*
X675634Y270297D01*
X674477Y269523D01*
X673703Y268366D01*
X673431Y267000D01*
X673703Y265634D01*
X674477Y264477D01*
X675634Y263703D01*
X677000Y263431D01*
X678366Y263703D01*
X679523Y264477D01*
X680297Y265634D01*
X680569Y267000D01*
X680297Y268366D01*
X679523Y269523D01*
X678366Y270297D01*
X677000Y270569D01*
D02*
G37*
G36*
X65000D02*
X63634Y270297D01*
X62477Y269523D01*
X61703Y268366D01*
X61431Y267000D01*
X61703Y265634D01*
X62477Y264477D01*
X63634Y263703D01*
X65000Y263431D01*
X66366Y263703D01*
X67523Y264477D01*
X68297Y265634D01*
X68569Y267000D01*
X68297Y268366D01*
X67523Y269523D01*
X66366Y270297D01*
X65000Y270569D01*
D02*
G37*
G36*
X399000Y268569D02*
X397634Y268297D01*
X396477Y267523D01*
X395703Y266366D01*
X395431Y265000D01*
X395703Y263634D01*
X396477Y262477D01*
X397634Y261703D01*
X399000Y261431D01*
X400366Y261703D01*
X401523Y262477D01*
X402297Y263634D01*
X402569Y265000D01*
X402297Y266366D01*
X401523Y267523D01*
X400366Y268297D01*
X399000Y268569D01*
D02*
G37*
G36*
X199000Y267069D02*
X197634Y266797D01*
X196477Y266023D01*
X195703Y264866D01*
X195431Y263500D01*
X195703Y262134D01*
X196477Y260977D01*
X197634Y260203D01*
X199000Y259931D01*
X200366Y260203D01*
X201523Y260977D01*
X202297Y262134D01*
X202569Y263500D01*
X202297Y264866D01*
X201523Y266023D01*
X200366Y266797D01*
X199000Y267069D01*
D02*
G37*
G36*
X25000Y276823D02*
X22781Y276531D01*
X20713Y275675D01*
X18938Y274312D01*
X17575Y272537D01*
X16719Y270469D01*
X16427Y268250D01*
X16719Y266031D01*
X17575Y263963D01*
X18938Y262188D01*
X20713Y260825D01*
X22781Y259969D01*
X25000Y259677D01*
X27219Y259969D01*
X29287Y260825D01*
X31062Y262188D01*
X32425Y263963D01*
X33281Y266031D01*
X33573Y268250D01*
X33281Y270469D01*
X32425Y272537D01*
X31062Y274312D01*
X29287Y275675D01*
X27219Y276531D01*
X25000Y276823D01*
D02*
G37*
G36*
X408940Y263319D02*
X407574Y263047D01*
X406417Y262273D01*
X405643Y261116D01*
X405371Y259750D01*
X405643Y258384D01*
X406417Y257227D01*
X407574Y256453D01*
X408940Y256181D01*
X410306Y256453D01*
X411463Y257227D01*
X412237Y258384D01*
X412509Y259750D01*
X412237Y261116D01*
X411463Y262273D01*
X410306Y263047D01*
X408940Y263319D01*
D02*
G37*
G36*
X398000Y258569D02*
X396634Y258297D01*
X395477Y257523D01*
X394703Y256366D01*
X394431Y255000D01*
X394703Y253634D01*
X395477Y252477D01*
X396634Y251703D01*
X398000Y251431D01*
X399366Y251703D01*
X400523Y252477D01*
X401297Y253634D01*
X401569Y255000D01*
X401297Y256366D01*
X400523Y257523D01*
X399366Y258297D01*
X398000Y258569D01*
D02*
G37*
G36*
X577000Y255569D02*
X575634Y255297D01*
X574477Y254523D01*
X573703Y253366D01*
X573431Y252000D01*
X573703Y250634D01*
X574477Y249477D01*
X575634Y248703D01*
X577000Y248431D01*
X578366Y248703D01*
X579523Y249477D01*
X580297Y250634D01*
X580569Y252000D01*
X580297Y253366D01*
X579523Y254523D01*
X578366Y255297D01*
X577000Y255569D01*
D02*
G37*
G36*
X408940Y253789D02*
X407574Y253517D01*
X406417Y252743D01*
X405643Y251586D01*
X405371Y250220D01*
X405643Y248854D01*
X406417Y247697D01*
X407574Y246923D01*
X408940Y246651D01*
X410306Y246923D01*
X411463Y247697D01*
X412237Y248854D01*
X412509Y250220D01*
X412237Y251586D01*
X411463Y252743D01*
X410306Y253517D01*
X408940Y253789D01*
D02*
G37*
G36*
X299000Y251588D02*
X297244Y251239D01*
X295756Y250244D01*
X294761Y248756D01*
X294412Y247000D01*
X294761Y245244D01*
X295171Y244631D01*
X294407Y243487D01*
X294000Y243569D01*
X292634Y243297D01*
X291477Y242523D01*
X290703Y241366D01*
X290431Y240000D01*
X290703Y238634D01*
X291477Y237477D01*
X292634Y236703D01*
X294000Y236431D01*
X295366Y236703D01*
X296523Y237477D01*
X297297Y238634D01*
X297569Y240000D01*
X297297Y241366D01*
X297227Y241469D01*
X297991Y242612D01*
X299000Y242412D01*
X300756Y242761D01*
X302244Y243756D01*
X303239Y245244D01*
X303588Y247000D01*
X303239Y248756D01*
X302244Y250244D01*
X300756Y251239D01*
X299000Y251588D01*
D02*
G37*
G36*
X399000Y248569D02*
X397634Y248297D01*
X396477Y247523D01*
X395703Y246366D01*
X395431Y245000D01*
X395703Y243634D01*
X396477Y242477D01*
X397634Y241703D01*
X399000Y241431D01*
X400366Y241703D01*
X401523Y242477D01*
X402297Y243634D01*
X402569Y245000D01*
X402297Y246366D01*
X401523Y247523D01*
X400366Y248297D01*
X399000Y248569D01*
D02*
G37*
G36*
X286000D02*
X284634Y248297D01*
X283477Y247523D01*
X282703Y246366D01*
X282431Y245000D01*
X282703Y243634D01*
X283477Y242477D01*
X284634Y241703D01*
X286000Y241431D01*
X287366Y241703D01*
X288523Y242477D01*
X289297Y243634D01*
X289569Y245000D01*
X289297Y246366D01*
X288523Y247523D01*
X287366Y248297D01*
X286000Y248569D01*
D02*
G37*
G36*
X409000Y243569D02*
X407634Y243297D01*
X406477Y242523D01*
X405703Y241366D01*
X405431Y240000D01*
X405703Y238634D01*
X406477Y237477D01*
X407634Y236703D01*
X409000Y236431D01*
X410366Y236703D01*
X411523Y237477D01*
X412297Y238634D01*
X412569Y240000D01*
X412297Y241366D01*
X411523Y242523D01*
X410366Y243297D01*
X409000Y243569D01*
D02*
G37*
G36*
X302000Y238569D02*
X300634Y238297D01*
X299477Y237523D01*
X298703Y236366D01*
X298431Y235000D01*
X298703Y233634D01*
X299477Y232477D01*
X300634Y231703D01*
X302000Y231431D01*
X303366Y231703D01*
X304523Y232477D01*
X305297Y233634D01*
X305569Y235000D01*
X305297Y236366D01*
X304523Y237523D01*
X303366Y238297D01*
X302000Y238569D01*
D02*
G37*
G36*
X732000Y251618D02*
X724000D01*
X721659Y251152D01*
X719674Y249826D01*
X718348Y247841D01*
X717883Y245500D01*
Y237500D01*
X718348Y235159D01*
X719674Y233174D01*
X721659Y231848D01*
X724000Y231383D01*
X732000D01*
X734341Y231848D01*
X736326Y233174D01*
X737652Y235159D01*
X738118Y237500D01*
Y245500D01*
X737652Y247841D01*
X736326Y249826D01*
X734341Y251152D01*
X732000Y251618D01*
D02*
G37*
G36*
X293000Y233569D02*
X291634Y233297D01*
X290477Y232523D01*
X289703Y231366D01*
X289431Y230000D01*
X289703Y228634D01*
X290477Y227477D01*
X291634Y226703D01*
X293000Y226431D01*
X294366Y226703D01*
X295523Y227477D01*
X296297Y228634D01*
X296569Y230000D01*
X296297Y231366D01*
X295523Y232523D01*
X294366Y233297D01*
X293000Y233569D01*
D02*
G37*
G36*
X65000Y230569D02*
X63634Y230297D01*
X62477Y229523D01*
X61703Y228366D01*
X61431Y227000D01*
X61703Y225634D01*
X62477Y224477D01*
X63634Y223703D01*
X65000Y223431D01*
X66366Y223703D01*
X67523Y224477D01*
X68297Y225634D01*
X68569Y227000D01*
X68297Y228366D01*
X67523Y229523D01*
X66366Y230297D01*
X65000Y230569D01*
D02*
G37*
G36*
X603000Y229569D02*
X601634Y229297D01*
X600477Y228523D01*
X599703Y227366D01*
X599431Y226000D01*
X599703Y224634D01*
X600477Y223477D01*
X601634Y222703D01*
X603000Y222431D01*
X604366Y222703D01*
X605523Y223477D01*
X606297Y224634D01*
X606569Y226000D01*
X606297Y227366D01*
X605523Y228523D01*
X604366Y229297D01*
X603000Y229569D01*
D02*
G37*
G36*
X551000Y228569D02*
X549634Y228297D01*
X548477Y227523D01*
X547703Y226366D01*
X547431Y225000D01*
X547703Y223634D01*
X548477Y222477D01*
X549634Y221703D01*
X551000Y221431D01*
X552366Y221703D01*
X553523Y222477D01*
X554297Y223634D01*
X554569Y225000D01*
X554297Y226366D01*
X553523Y227523D01*
X552366Y228297D01*
X551000Y228569D01*
D02*
G37*
G36*
X404000D02*
X402634Y228297D01*
X401477Y227523D01*
X400703Y226366D01*
X400431Y225000D01*
X400703Y223634D01*
X401477Y222477D01*
X402634Y221703D01*
X404000Y221431D01*
X405366Y221703D01*
X406523Y222477D01*
X407297Y223634D01*
X407569Y225000D01*
X407297Y226366D01*
X406523Y227523D01*
X405366Y228297D01*
X404000Y228569D01*
D02*
G37*
G36*
X302000D02*
X300634Y228297D01*
X299477Y227523D01*
X298703Y226366D01*
X298431Y225000D01*
X298703Y223634D01*
X299477Y222477D01*
X300634Y221703D01*
X302000Y221431D01*
X303366Y221703D01*
X304523Y222477D01*
X305297Y223634D01*
X305569Y225000D01*
X305297Y226366D01*
X304523Y227523D01*
X303366Y228297D01*
X302000Y228569D01*
D02*
G37*
G36*
X578000Y227569D02*
X576634Y227297D01*
X575477Y226523D01*
X574703Y225366D01*
X574431Y224000D01*
X574703Y222634D01*
X575477Y221477D01*
X576634Y220703D01*
X578000Y220431D01*
X579366Y220703D01*
X580523Y221477D01*
X581297Y222634D01*
X581569Y224000D01*
X581297Y225366D01*
X580523Y226523D01*
X579366Y227297D01*
X578000Y227569D01*
D02*
G37*
G36*
X636000Y227069D02*
X634634Y226797D01*
X633477Y226023D01*
X632703Y224866D01*
X632431Y223500D01*
X632703Y222134D01*
X633477Y220977D01*
X634634Y220203D01*
X636000Y219931D01*
X637366Y220203D01*
X638523Y220977D01*
X639297Y222134D01*
X639569Y223500D01*
X639297Y224866D01*
X638523Y226023D01*
X637366Y226797D01*
X636000Y227069D01*
D02*
G37*
G36*
X411000Y223569D02*
X409634Y223297D01*
X408477Y222523D01*
X407703Y221366D01*
X407431Y220000D01*
X407703Y218634D01*
X408477Y217477D01*
X409634Y216703D01*
X411000Y216431D01*
X412366Y216703D01*
X413523Y217477D01*
X414297Y218634D01*
X414569Y220000D01*
X414297Y221366D01*
X413523Y222523D01*
X412366Y223297D01*
X411000Y223569D01*
D02*
G37*
G36*
X295000D02*
X293634Y223297D01*
X292477Y222523D01*
X291703Y221366D01*
X291431Y220000D01*
X291703Y218634D01*
X292477Y217477D01*
X293634Y216703D01*
X295000Y216431D01*
X296366Y216703D01*
X297523Y217477D01*
X298297Y218634D01*
X298569Y220000D01*
X298297Y221366D01*
X297523Y222523D01*
X296366Y223297D01*
X295000Y223569D01*
D02*
G37*
G36*
X180500Y221819D02*
X179134Y221547D01*
X177977Y220773D01*
X177203Y219616D01*
X176931Y218250D01*
X177203Y216884D01*
X177977Y215727D01*
X179134Y214953D01*
X180500Y214681D01*
X181866Y214953D01*
X183023Y215727D01*
X183797Y216884D01*
X184069Y218250D01*
X183797Y219616D01*
X183023Y220773D01*
X181866Y221547D01*
X180500Y221819D01*
D02*
G37*
G36*
X404000Y218569D02*
X402634Y218297D01*
X401477Y217523D01*
X400703Y216366D01*
X400431Y215000D01*
X400703Y213634D01*
X401477Y212477D01*
X402634Y211703D01*
X404000Y211431D01*
X405366Y211703D01*
X406523Y212477D01*
X407297Y213634D01*
X407569Y215000D01*
X407297Y216366D01*
X406523Y217523D01*
X405366Y218297D01*
X404000Y218569D01*
D02*
G37*
G36*
X303000D02*
X301634Y218297D01*
X300477Y217523D01*
X299703Y216366D01*
X299431Y215000D01*
X299703Y213634D01*
X300477Y212477D01*
X301634Y211703D01*
X303000Y211431D01*
X304366Y211703D01*
X305523Y212477D01*
X306297Y213634D01*
X306569Y215000D01*
X306297Y216366D01*
X305523Y217523D01*
X304366Y218297D01*
X303000Y218569D01*
D02*
G37*
G36*
X295000Y213569D02*
X293634Y213297D01*
X292477Y212523D01*
X291703Y211366D01*
X291431Y210000D01*
X291635Y208976D01*
X290732Y208194D01*
X290606Y208137D01*
X290366Y208297D01*
X289000Y208569D01*
X287634Y208297D01*
X286477Y207523D01*
X285703Y206366D01*
X285431Y205000D01*
X285703Y203634D01*
X286477Y202477D01*
X287634Y201703D01*
X289000Y201431D01*
X290366Y201703D01*
X291523Y202477D01*
X292297Y203634D01*
X292569Y205000D01*
X292365Y206024D01*
X293268Y206806D01*
X293394Y206863D01*
X293634Y206703D01*
X295000Y206431D01*
X296366Y206703D01*
X297523Y207477D01*
X298297Y208634D01*
X298569Y210000D01*
X298297Y211366D01*
X297523Y212523D01*
X296366Y213297D01*
X295000Y213569D01*
D02*
G37*
G36*
X315000Y214569D02*
X313634Y214297D01*
X312477Y213523D01*
X311703Y212366D01*
X311431Y211000D01*
X311703Y209634D01*
X312477Y208477D01*
X313634Y207703D01*
X315000Y207431D01*
X316366Y207703D01*
X317523Y208477D01*
X318297Y209634D01*
X318569Y211000D01*
X318297Y212366D01*
X317523Y213523D01*
X316366Y214297D01*
X315000Y214569D01*
D02*
G37*
G36*
X412000Y213569D02*
X410634Y213297D01*
X409477Y212523D01*
X408703Y211366D01*
X408431Y210000D01*
X408703Y208634D01*
X409477Y207477D01*
X410634Y206703D01*
X412000Y206431D01*
X413366Y206703D01*
X414523Y207477D01*
X415297Y208634D01*
X415569Y210000D01*
X415297Y211366D01*
X414523Y212523D01*
X413366Y213297D01*
X412000Y213569D01*
D02*
G37*
G36*
X728000Y226186D02*
X725389Y225843D01*
X722957Y224835D01*
X720868Y223232D01*
X719265Y221143D01*
X718257Y218710D01*
X717914Y216100D01*
X718257Y213489D01*
X719265Y211057D01*
X720868Y208968D01*
X722957Y207365D01*
X725389Y206357D01*
X728000Y206014D01*
X730611Y206357D01*
X733043Y207365D01*
X735132Y208968D01*
X736735Y211057D01*
X737743Y213489D01*
X738086Y216100D01*
X737743Y218710D01*
X736735Y221143D01*
X735132Y223232D01*
X733043Y224835D01*
X730611Y225843D01*
X728000Y226186D01*
D02*
G37*
G36*
X180500Y209119D02*
X179134Y208847D01*
X177977Y208073D01*
X177203Y206916D01*
X176931Y205550D01*
X177203Y204184D01*
X177977Y203027D01*
X179134Y202253D01*
X180500Y201981D01*
X181866Y202253D01*
X183023Y203027D01*
X183797Y204184D01*
X184069Y205550D01*
X183797Y206916D01*
X183023Y208073D01*
X181866Y208847D01*
X180500Y209119D01*
D02*
G37*
G36*
X405000Y208569D02*
X403634Y208297D01*
X402477Y207523D01*
X401703Y206366D01*
X401431Y205000D01*
X401703Y203634D01*
X402477Y202477D01*
X403634Y201703D01*
X405000Y201431D01*
X406366Y201703D01*
X407523Y202477D01*
X408297Y203634D01*
X408569Y205000D01*
X408297Y206366D01*
X407523Y207523D01*
X406366Y208297D01*
X405000Y208569D01*
D02*
G37*
G36*
X25000Y214323D02*
X22781Y214031D01*
X20713Y213175D01*
X18938Y211812D01*
X17575Y210037D01*
X16719Y207969D01*
X16427Y205750D01*
X16719Y203531D01*
X17575Y201463D01*
X18938Y199688D01*
X20713Y198325D01*
X22781Y197469D01*
X25000Y197177D01*
X27219Y197469D01*
X29287Y198325D01*
X31062Y199688D01*
X32425Y201463D01*
X33281Y203531D01*
X33573Y205750D01*
X33281Y207969D01*
X32425Y210037D01*
X31062Y211812D01*
X29287Y213175D01*
X27219Y214031D01*
X25000Y214323D01*
D02*
G37*
G36*
X412000Y203569D02*
X410634Y203297D01*
X409477Y202523D01*
X408703Y201366D01*
X408431Y200000D01*
X408703Y198634D01*
X409477Y197477D01*
X410634Y196703D01*
X412000Y196431D01*
X413366Y196703D01*
X414523Y197477D01*
X415297Y198634D01*
X415569Y200000D01*
X415297Y201366D01*
X414523Y202523D01*
X413366Y203297D01*
X412000Y203569D01*
D02*
G37*
G36*
X301000D02*
X299634Y203297D01*
X298477Y202523D01*
X297703Y201366D01*
X297431Y200000D01*
X297703Y198634D01*
X298477Y197477D01*
X299634Y196703D01*
X301000Y196431D01*
X302366Y196703D01*
X303523Y197477D01*
X304297Y198634D01*
X304569Y200000D01*
X304297Y201366D01*
X303523Y202523D01*
X302366Y203297D01*
X301000Y203569D01*
D02*
G37*
G36*
X455000Y202569D02*
X453634Y202297D01*
X452477Y201523D01*
X451703Y200366D01*
X451431Y199000D01*
X451703Y197634D01*
X452477Y196477D01*
X453634Y195703D01*
X455000Y195431D01*
X456366Y195703D01*
X457523Y196477D01*
X458297Y197634D01*
X458569Y199000D01*
X458297Y200366D01*
X457523Y201523D01*
X456366Y202297D01*
X455000Y202569D01*
D02*
G37*
G36*
X340000D02*
X338634Y202297D01*
X337477Y201523D01*
X336703Y200366D01*
X336431Y199000D01*
X336703Y197634D01*
X337477Y196477D01*
X338634Y195703D01*
X340000Y195431D01*
X341366Y195703D01*
X342523Y196477D01*
X343297Y197634D01*
X343569Y199000D01*
X343297Y200366D01*
X342523Y201523D01*
X341366Y202297D01*
X340000Y202569D01*
D02*
G37*
G36*
X310000Y201569D02*
X308634Y201297D01*
X307477Y200523D01*
X306703Y199366D01*
X306431Y198000D01*
X306703Y196634D01*
X307477Y195477D01*
X308634Y194703D01*
X310000Y194431D01*
X311366Y194703D01*
X312523Y195477D01*
X313297Y196634D01*
X313569Y198000D01*
X313297Y199366D01*
X312523Y200523D01*
X311366Y201297D01*
X310000Y201569D01*
D02*
G37*
G36*
X330200Y200419D02*
X328834Y200147D01*
X327677Y199373D01*
X326903Y198216D01*
X326631Y196850D01*
X326903Y195484D01*
X327677Y194327D01*
X328834Y193553D01*
X330200Y193281D01*
X331566Y193553D01*
X332723Y194327D01*
X333497Y195484D01*
X333769Y196850D01*
X333497Y198216D01*
X332723Y199373D01*
X331566Y200147D01*
X330200Y200419D01*
D02*
G37*
G36*
X294000Y198569D02*
X292634Y198297D01*
X291477Y197523D01*
X290703Y196366D01*
X290431Y195000D01*
X290635Y193976D01*
X289732Y193194D01*
X289606Y193137D01*
X289366Y193297D01*
X288000Y193569D01*
X286634Y193297D01*
X285477Y192523D01*
X284703Y191366D01*
X284431Y190000D01*
X284703Y188634D01*
X285477Y187477D01*
X286634Y186703D01*
X288000Y186431D01*
X289366Y186703D01*
X290523Y187477D01*
X291297Y188634D01*
X291569Y190000D01*
X291365Y191024D01*
X292268Y191806D01*
X292394Y191863D01*
X292634Y191703D01*
X294000Y191431D01*
X295366Y191703D01*
X296523Y192477D01*
X297297Y193634D01*
X297569Y195000D01*
X297297Y196366D01*
X296523Y197523D01*
X295366Y198297D01*
X294000Y198569D01*
D02*
G37*
G36*
X180500Y196419D02*
X179134Y196147D01*
X177977Y195373D01*
X177203Y194216D01*
X176931Y192850D01*
X177203Y191484D01*
X177977Y190327D01*
X179134Y189553D01*
X180500Y189281D01*
X181866Y189553D01*
X183023Y190327D01*
X183797Y191484D01*
X184069Y192850D01*
X183797Y194216D01*
X183023Y195373D01*
X181866Y196147D01*
X180500Y196419D01*
D02*
G37*
G36*
X200000Y195569D02*
X198634Y195297D01*
X197477Y194523D01*
X196703Y193366D01*
X196431Y192000D01*
X196703Y190634D01*
X197477Y189477D01*
X198634Y188703D01*
X200000Y188431D01*
X201366Y188703D01*
X202523Y189477D01*
X203297Y190634D01*
X203569Y192000D01*
X203297Y193366D01*
X202523Y194523D01*
X201366Y195297D01*
X200000Y195569D01*
D02*
G37*
G36*
X305000Y194569D02*
X303634Y194297D01*
X302477Y193523D01*
X301703Y192366D01*
X301431Y191000D01*
X301703Y189634D01*
X302249Y188817D01*
X301334Y187901D01*
X301116Y188047D01*
X299750Y188319D01*
X298384Y188047D01*
X297227Y187273D01*
X296453Y186116D01*
X296181Y184750D01*
X296453Y183384D01*
X297227Y182227D01*
X298384Y181453D01*
X299750Y181181D01*
X301116Y181453D01*
X302273Y182227D01*
X303047Y183384D01*
X303319Y184750D01*
X303047Y186116D01*
X302501Y186933D01*
X303416Y187849D01*
X303634Y187703D01*
X305000Y187431D01*
X306366Y187703D01*
X307523Y188477D01*
X308297Y189634D01*
X308569Y191000D01*
X308297Y192366D01*
X307523Y193523D01*
X306366Y194297D01*
X305000Y194569D01*
D02*
G37*
G36*
X335280Y192799D02*
X333914Y192527D01*
X332757Y191753D01*
X331983Y190596D01*
X331711Y189230D01*
X331983Y187864D01*
X332757Y186707D01*
X333914Y185933D01*
X335280Y185661D01*
X336646Y185933D01*
X337803Y186707D01*
X338577Y187864D01*
X338849Y189230D01*
X338577Y190596D01*
X337803Y191753D01*
X336646Y192527D01*
X335280Y192799D01*
D02*
G37*
G36*
X213000Y183569D02*
X211634Y183297D01*
X210477Y182523D01*
X209703Y181366D01*
X209431Y180000D01*
X209703Y178634D01*
X210477Y177477D01*
X211634Y176703D01*
X213000Y176431D01*
X214366Y176703D01*
X215523Y177477D01*
X216297Y178634D01*
X216569Y180000D01*
X216297Y181366D01*
X215523Y182523D01*
X214366Y183297D01*
X213000Y183569D01*
D02*
G37*
G36*
X20000Y172569D02*
X18634Y172297D01*
X17477Y171523D01*
X16703Y170366D01*
X16431Y169000D01*
X16703Y167634D01*
X17477Y166477D01*
X18634Y165703D01*
X20000Y165431D01*
X21366Y165703D01*
X22523Y166477D01*
X23297Y167634D01*
X23569Y169000D01*
X23297Y170366D01*
X22523Y171523D01*
X21366Y172297D01*
X20000Y172569D01*
D02*
G37*
G36*
X686000Y166569D02*
X684634Y166297D01*
X683477Y165523D01*
X682703Y164366D01*
X682431Y163000D01*
X682703Y161634D01*
X683477Y160477D01*
X684634Y159703D01*
X686000Y159431D01*
X687366Y159703D01*
X688523Y160477D01*
X689297Y161634D01*
X689569Y163000D01*
X689297Y164366D01*
X688523Y165523D01*
X687366Y166297D01*
X686000Y166569D01*
D02*
G37*
G36*
X390000Y163569D02*
X388634Y163297D01*
X387477Y162523D01*
X386703Y161366D01*
X386431Y160000D01*
X386703Y158634D01*
X387477Y157477D01*
X388634Y156703D01*
X390000Y156431D01*
X391366Y156703D01*
X392523Y157477D01*
X393297Y158634D01*
X393569Y160000D01*
X393297Y161366D01*
X392523Y162523D01*
X391366Y163297D01*
X390000Y163569D01*
D02*
G37*
G36*
X360000D02*
X358634Y163297D01*
X357477Y162523D01*
X356703Y161366D01*
X356431Y160000D01*
X356703Y158634D01*
X357477Y157477D01*
X358634Y156703D01*
X360000Y156431D01*
X361366Y156703D01*
X362523Y157477D01*
X363297Y158634D01*
X363569Y160000D01*
X363297Y161366D01*
X362523Y162523D01*
X361366Y163297D01*
X360000Y163569D01*
D02*
G37*
G36*
X380000Y162569D02*
X378634Y162297D01*
X377477Y161523D01*
X376703Y160366D01*
X376431Y159000D01*
X376703Y157634D01*
X377477Y156477D01*
X378634Y155703D01*
X380000Y155431D01*
X381366Y155703D01*
X382523Y156477D01*
X383297Y157634D01*
X383569Y159000D01*
X383297Y160366D01*
X382523Y161523D01*
X381366Y162297D01*
X380000Y162569D01*
D02*
G37*
G36*
X370000D02*
X368634Y162297D01*
X367477Y161523D01*
X366703Y160366D01*
X366431Y159000D01*
X366703Y157634D01*
X367477Y156477D01*
X368634Y155703D01*
X370000Y155431D01*
X371366Y155703D01*
X372523Y156477D01*
X373297Y157634D01*
X373569Y159000D01*
X373297Y160366D01*
X372523Y161523D01*
X371366Y162297D01*
X370000Y162569D01*
D02*
G37*
G36*
X350000D02*
X348634Y162297D01*
X347477Y161523D01*
X346703Y160366D01*
X346431Y159000D01*
X346703Y157634D01*
X347477Y156477D01*
X348634Y155703D01*
X350000Y155431D01*
X351366Y155703D01*
X352523Y156477D01*
X353297Y157634D01*
X353569Y159000D01*
X353297Y160366D01*
X352523Y161523D01*
X351366Y162297D01*
X350000Y162569D01*
D02*
G37*
G36*
X728000Y175386D02*
X725389Y175043D01*
X722957Y174035D01*
X720868Y172432D01*
X719265Y170343D01*
X718257Y167910D01*
X717914Y165300D01*
X718257Y162689D01*
X719265Y160257D01*
X720868Y158168D01*
X722957Y156565D01*
X725389Y155557D01*
X728000Y155214D01*
X730611Y155557D01*
X733043Y156565D01*
X735132Y158168D01*
X736735Y160257D01*
X737743Y162689D01*
X738086Y165300D01*
X737743Y167910D01*
X736735Y170343D01*
X735132Y172432D01*
X733043Y174035D01*
X730611Y175043D01*
X728000Y175386D01*
D02*
G37*
G36*
X394970Y155969D02*
X393604Y155697D01*
X392447Y154923D01*
X391673Y153766D01*
X391401Y152400D01*
X391673Y151034D01*
X392447Y149877D01*
X393604Y149103D01*
X394970Y148831D01*
X396336Y149103D01*
X397493Y149877D01*
X398267Y151034D01*
X398539Y152400D01*
X398267Y153766D01*
X397493Y154923D01*
X396336Y155697D01*
X394970Y155969D01*
D02*
G37*
G36*
X374980Y155549D02*
X373614Y155277D01*
X372457Y154503D01*
X371683Y153346D01*
X371411Y151980D01*
X371683Y150614D01*
X372457Y149457D01*
X373614Y148683D01*
X374980Y148411D01*
X376346Y148683D01*
X377503Y149457D01*
X378277Y150614D01*
X378549Y151980D01*
X378277Y153346D01*
X377503Y154503D01*
X376346Y155277D01*
X374980Y155549D01*
D02*
G37*
G36*
X384810Y154699D02*
X383444Y154427D01*
X382287Y153653D01*
X381513Y152496D01*
X381241Y151130D01*
X381513Y149764D01*
X382287Y148607D01*
X383444Y147833D01*
X384810Y147561D01*
X386176Y147833D01*
X387333Y148607D01*
X388107Y149764D01*
X388379Y151130D01*
X388107Y152496D01*
X387333Y153653D01*
X386176Y154427D01*
X384810Y154699D01*
D02*
G37*
G36*
X364820Y154569D02*
X363454Y154297D01*
X362297Y153523D01*
X361523Y152366D01*
X361251Y151000D01*
X361523Y149634D01*
X362297Y148477D01*
X363454Y147703D01*
X364820Y147431D01*
X366186Y147703D01*
X367343Y148477D01*
X368117Y149634D01*
X368389Y151000D01*
X368117Y152366D01*
X367343Y153523D01*
X366186Y154297D01*
X364820Y154569D01*
D02*
G37*
G36*
X354750D02*
X353384Y154297D01*
X352227Y153523D01*
X351453Y152366D01*
X351181Y151000D01*
X351453Y149634D01*
X352227Y148477D01*
X353384Y147703D01*
X354750Y147431D01*
X356116Y147703D01*
X357273Y148477D01*
X358047Y149634D01*
X358319Y151000D01*
X358047Y152366D01*
X357273Y153523D01*
X356116Y154297D01*
X354750Y154569D01*
D02*
G37*
G36*
X344956D02*
X343591Y154297D01*
X342433Y153523D01*
X341660Y152366D01*
X341388Y151000D01*
X341660Y149634D01*
X342433Y148477D01*
X343591Y147703D01*
X344956Y147431D01*
X346322Y147703D01*
X347480Y148477D01*
X348253Y149634D01*
X348525Y151000D01*
X348253Y152366D01*
X347480Y153523D01*
X346322Y154297D01*
X344956Y154569D01*
D02*
G37*
G36*
X33000Y143569D02*
X31634Y143297D01*
X30477Y142523D01*
X29703Y141366D01*
X29431Y140000D01*
X29703Y138634D01*
X30477Y137477D01*
X31634Y136703D01*
X33000Y136431D01*
X34366Y136703D01*
X35523Y137477D01*
X36297Y138634D01*
X36569Y140000D01*
X36297Y141366D01*
X35523Y142523D01*
X34366Y143297D01*
X33000Y143569D01*
D02*
G37*
G36*
X590000Y140569D02*
X588634Y140297D01*
X587477Y139523D01*
X586703Y138366D01*
X586431Y137000D01*
X586703Y135634D01*
X587477Y134477D01*
X588634Y133703D01*
X590000Y133431D01*
X591366Y133703D01*
X592523Y134477D01*
X593297Y135634D01*
X593569Y137000D01*
X593297Y138366D01*
X592523Y139523D01*
X591366Y140297D01*
X590000Y140569D01*
D02*
G37*
G36*
X728000Y149986D02*
X725389Y149643D01*
X722957Y148635D01*
X720868Y147032D01*
X719265Y144943D01*
X718257Y142510D01*
X717914Y139900D01*
X718257Y137289D01*
X719265Y134857D01*
X720868Y132768D01*
X722957Y131165D01*
X725389Y130157D01*
X728000Y129814D01*
X730611Y130157D01*
X733043Y131165D01*
X735132Y132768D01*
X736735Y134857D01*
X737743Y137289D01*
X738086Y139900D01*
X737743Y142510D01*
X736735Y144943D01*
X735132Y147032D01*
X733043Y148635D01*
X730611Y149643D01*
X728000Y149986D01*
D02*
G37*
G36*
Y124586D02*
X725389Y124243D01*
X722957Y123235D01*
X720868Y121632D01*
X719265Y119543D01*
X718257Y117111D01*
X717914Y114500D01*
X718257Y111889D01*
X719265Y109457D01*
X720868Y107368D01*
X722957Y105765D01*
X725389Y104757D01*
X728000Y104414D01*
X730611Y104757D01*
X733043Y105765D01*
X735132Y107368D01*
X736735Y109457D01*
X737743Y111889D01*
X738086Y114500D01*
X737743Y117111D01*
X736735Y119543D01*
X735132Y121632D01*
X733043Y123235D01*
X730611Y124243D01*
X728000Y124586D01*
D02*
G37*
G36*
X443000Y92569D02*
X441634Y92297D01*
X440477Y91523D01*
X439703Y90366D01*
X439431Y89000D01*
X439703Y87634D01*
X440477Y86477D01*
X441634Y85703D01*
X443000Y85431D01*
X444366Y85703D01*
X445523Y86477D01*
X446297Y87634D01*
X446569Y89000D01*
X446297Y90366D01*
X445523Y91523D01*
X444366Y92297D01*
X443000Y92569D01*
D02*
G37*
G36*
X298310Y88015D02*
X296945Y87743D01*
X295787Y86969D01*
X295013Y85812D01*
X294741Y84446D01*
X295013Y83081D01*
X295787Y81923D01*
X296945Y81149D01*
X298310Y80878D01*
X299676Y81149D01*
X300833Y81923D01*
X301607Y83081D01*
X301879Y84446D01*
X301607Y85812D01*
X300833Y86969D01*
X299676Y87743D01*
X298310Y88015D01*
D02*
G37*
G36*
X357000Y66569D02*
X355634Y66297D01*
X354477Y65523D01*
X353703Y64366D01*
X353431Y63000D01*
X353703Y61634D01*
X354477Y60477D01*
X355634Y59703D01*
X357000Y59431D01*
X358366Y59703D01*
X359523Y60477D01*
X360297Y61634D01*
X360569Y63000D01*
X360297Y64366D01*
X359523Y65523D01*
X358366Y66297D01*
X357000Y66569D01*
D02*
G37*
G36*
X369050Y64068D02*
X367684Y63797D01*
X366527Y63023D01*
X365753Y61866D01*
X365481Y60500D01*
X365753Y59134D01*
X366527Y57977D01*
X367684Y57203D01*
X369050Y56931D01*
X370416Y57203D01*
X371573Y57977D01*
X372347Y59134D01*
X372619Y60500D01*
X372347Y61866D01*
X371573Y63023D01*
X370416Y63797D01*
X369050Y64068D01*
D02*
G37*
%LPD*%
D24*
X442000Y484555D02*
D03*
X472000D02*
D03*
X442000Y514555D02*
D03*
X472000D02*
D03*
X502000D02*
D03*
D68*
X728000Y114500D02*
D03*
Y139900D02*
D03*
Y190700D02*
D03*
Y216100D02*
D03*
Y165300D02*
D03*
X730000Y411600D02*
D03*
Y386200D02*
D03*
D73*
X602600Y528000D02*
D03*
X577200D02*
D03*
X628000D02*
D03*
D80*
X700000Y50000D02*
D03*
X700000Y500000D02*
D03*
X50000Y500000D02*
D03*
X50000Y50000D02*
D03*
D81*
X25000Y268250D02*
D03*
Y205750D02*
D03*
D82*
X695500Y295250D02*
D03*
Y336750D02*
D03*
D83*
X728000Y241500D02*
D03*
X730000Y437000D02*
D03*
D84*
X502000Y484555D02*
D03*
D85*
X531690Y523445D02*
D03*
X412310D02*
D03*
D86*
X279413Y310000D02*
D03*
X290773Y303156D02*
D03*
X273800Y85157D02*
D03*
X298310Y84446D02*
D03*
X419000Y80000D02*
D03*
X443000Y89000D02*
D03*
X369050Y60500D02*
D03*
X357000Y63000D02*
D03*
X686000Y163000D02*
D03*
X636000Y223500D02*
D03*
X327000Y534500D02*
D03*
X351000Y537000D02*
D03*
X390000Y160000D02*
D03*
X370000Y159000D02*
D03*
X360000Y160000D02*
D03*
X350000Y159000D02*
D03*
X345000Y314000D02*
D03*
X335000D02*
D03*
X325000D02*
D03*
X315000D02*
D03*
X305000Y312000D02*
D03*
X300000Y317000D02*
D03*
X290000Y280000D02*
D03*
X286000Y245000D02*
D03*
X288000Y190000D02*
D03*
X289000Y205000D02*
D03*
X305000Y191000D02*
D03*
X299750Y184750D02*
D03*
X310000Y198000D02*
D03*
X315000Y211000D02*
D03*
X180500Y192850D02*
D03*
Y205550D02*
D03*
Y218250D02*
D03*
X198000Y219000D02*
D03*
X199000Y263500D02*
D03*
Y282500D02*
D03*
X500000Y303000D02*
D03*
X183000Y392000D02*
D03*
X131000Y505000D02*
D03*
X414000Y319000D02*
D03*
X295000Y210000D02*
D03*
X301000Y200000D02*
D03*
X294000Y195000D02*
D03*
X412000Y210000D02*
D03*
X405000Y205000D02*
D03*
X412000Y200000D02*
D03*
X404000Y215000D02*
D03*
X411000Y220000D02*
D03*
X404000Y225000D02*
D03*
X368000Y269500D02*
D03*
X380000Y159000D02*
D03*
X374980Y151980D02*
D03*
X364820Y151000D02*
D03*
X354750D02*
D03*
X344956D02*
D03*
X340000Y199000D02*
D03*
X663000Y252000D02*
D03*
X511000Y191000D02*
D03*
X361000Y481000D02*
D03*
X577000Y252000D02*
D03*
X590000Y137000D02*
D03*
X72500Y400000D02*
D03*
X82000Y460000D02*
D03*
X551000Y282000D02*
D03*
X26000Y430250D02*
D03*
X50000Y390000D02*
D03*
X283500Y403000D02*
D03*
X455000Y199000D02*
D03*
X719000Y273000D02*
D03*
X485000Y443000D02*
D03*
X369000Y414000D02*
D03*
X343000Y417000D02*
D03*
X356000D02*
D03*
X380000Y342000D02*
D03*
X632000Y390500D02*
D03*
X83000Y381000D02*
D03*
X331000Y418000D02*
D03*
X406000Y427000D02*
D03*
X691000Y405100D02*
D03*
X199000Y472000D02*
D03*
X302500Y403000D02*
D03*
X262000Y350000D02*
D03*
X247000Y368000D02*
D03*
X296500Y285500D02*
D03*
X290000Y270000D02*
D03*
X300000Y275000D02*
D03*
X189000Y405000D02*
D03*
X374000Y435500D02*
D03*
Y469000D02*
D03*
X385250Y311000D02*
D03*
X130000Y366950D02*
D03*
X571000Y282000D02*
D03*
X113000Y313000D02*
D03*
X129000Y405000D02*
D03*
X131000Y60500D02*
D03*
X213000Y180000D02*
D03*
X200000Y192000D02*
D03*
X60000Y167000D02*
D03*
X33000Y140000D02*
D03*
X65000Y247000D02*
D03*
X52000Y331000D02*
D03*
X22000Y311000D02*
D03*
X394000Y435000D02*
D03*
X294172Y436461D02*
D03*
X393000Y455000D02*
D03*
X293000Y462250D02*
D03*
X329000Y460000D02*
D03*
Y490000D02*
D03*
X383250Y536000D02*
D03*
X617000Y295000D02*
D03*
X599000Y324750D02*
D03*
X667000Y294000D02*
D03*
X382000Y416000D02*
D03*
X394000Y415000D02*
D03*
X520000Y346000D02*
D03*
X544000Y342000D02*
D03*
X566000Y341000D02*
D03*
X604000Y196000D02*
D03*
X603000Y226000D02*
D03*
X578000Y224000D02*
D03*
X551000Y225000D02*
D03*
X677000Y267000D02*
D03*
X403000Y285000D02*
D03*
X611000Y443500D02*
D03*
X586000Y443000D02*
D03*
X394970Y152400D02*
D03*
X302000Y235000D02*
D03*
X384810Y151130D02*
D03*
X294000Y240000D02*
D03*
X405336Y310795D02*
D03*
X390000Y304000D02*
D03*
X65000Y227000D02*
D03*
Y267000D02*
D03*
X20000Y169000D02*
D03*
X409000Y240000D02*
D03*
X399000Y245000D02*
D03*
X408940Y259750D02*
D03*
X398000Y255000D02*
D03*
X399000Y265000D02*
D03*
X410000Y300000D02*
D03*
X402000Y295000D02*
D03*
X410000Y280000D02*
D03*
Y270000D02*
D03*
X340000Y306000D02*
D03*
X330000D02*
D03*
X310000D02*
D03*
X320000D02*
D03*
X394970Y312420D02*
D03*
X266000Y465000D02*
D03*
Y448000D02*
D03*
X283000Y462250D02*
D03*
X276000Y504000D02*
D03*
X274000Y533000D02*
D03*
X390000Y476000D02*
D03*
X383000Y513000D02*
D03*
X350000Y512000D02*
D03*
X252500Y533000D02*
D03*
X282000Y436000D02*
D03*
X303000Y505000D02*
D03*
Y536000D02*
D03*
X361500Y461000D02*
D03*
X303000Y215000D02*
D03*
X295000Y220000D02*
D03*
X302000Y225000D02*
D03*
X293000Y230000D02*
D03*
X330200Y196850D02*
D03*
X335280Y189230D02*
D03*
X400050Y306070D02*
D03*
X408940Y250220D02*
D03*
D87*
X700000Y450000D02*
D03*
Y350000D02*
D03*
Y150000D02*
D03*
X675000Y400000D02*
D03*
Y200000D02*
D03*
X650000Y150000D02*
D03*
X625000Y500000D02*
D03*
Y400000D02*
D03*
X600000Y150000D02*
D03*
X525000Y500000D02*
D03*
X500000Y350000D02*
D03*
Y250000D02*
D03*
Y150000D02*
D03*
X450000Y350000D02*
D03*
Y150000D02*
D03*
Y50000D02*
D03*
X425000Y500000D02*
D03*
Y400000D02*
D03*
X250000Y50000D02*
D03*
X225000Y500000D02*
D03*
X200000Y350000D02*
D03*
X225000Y100000D02*
D03*
X200000Y50000D02*
D03*
X150000Y350000D02*
D03*
X175000Y100000D02*
D03*
X150000Y50000D02*
D03*
X125000Y200000D02*
D03*
X100000Y150000D02*
D03*
X125000Y100000D02*
D03*
X100000Y50000D02*
D03*
X50000Y450000D02*
D03*
X75000Y300000D02*
D03*
X50000Y250000D02*
D03*
X75000Y200000D02*
D03*
X50000Y150000D02*
D03*
X75000Y100000D02*
D03*
X372000Y310000D02*
D03*
X363000D02*
D03*
X354000D02*
D03*
X445844Y453120D02*
D03*
X456000Y464000D02*
D03*
X424000Y456000D02*
D03*
X434000Y467000D02*
D03*
X337000Y529000D02*
D03*
X314345Y528778D02*
D03*
X314000Y510000D02*
D03*
X337000Y511000D02*
D03*
X394000Y532000D02*
D03*
X456000Y527000D02*
D03*
X427000D02*
D03*
X353000Y452000D02*
D03*
X313000Y451000D02*
D03*
X380000Y299000D02*
D03*
X393000Y290000D02*
D03*
X400000Y274000D02*
D03*
X390000Y260000D02*
D03*
Y250000D02*
D03*
X395000Y221000D02*
D03*
X396000Y209000D02*
D03*
X351000Y192000D02*
D03*
X334000Y206000D02*
D03*
X306000Y207000D02*
D03*
X309000Y230000D02*
D03*
X299000Y247000D02*
D03*
X305000Y281000D02*
D03*
X335000Y299000D02*
D03*
X325000D02*
D03*
X680000Y70000D02*
D03*
X672500Y50000D02*
D03*
X680000Y30000D02*
D03*
X700000Y22500D02*
D03*
X720000Y30000D02*
D03*
X727500Y50000D02*
D03*
X720000Y70000D02*
D03*
X700000Y77500D02*
D03*
X700000Y527500D02*
D03*
X720000Y520000D02*
D03*
X727500Y500000D02*
D03*
X720000Y480000D02*
D03*
X700000Y472500D02*
D03*
X680000Y480000D02*
D03*
X672500Y500000D02*
D03*
X680000Y520000D02*
D03*
X50000Y527500D02*
D03*
X70000Y520000D02*
D03*
X77500Y500000D02*
D03*
X70000Y480000D02*
D03*
X50000Y472500D02*
D03*
X30000Y480000D02*
D03*
X22500Y500000D02*
D03*
X30000Y520000D02*
D03*
X50000Y77500D02*
D03*
X70000Y70000D02*
D03*
X77500Y50000D02*
D03*
X70000Y30000D02*
D03*
X50000Y22500D02*
D03*
X30000Y30000D02*
D03*
X22500Y50000D02*
D03*
X30000Y70000D02*
D03*
D88*
X318000Y415000D02*
D03*
X520000Y307000D02*
D03*
X79000Y441000D02*
D03*
X667000Y385000D02*
D03*
M02*
