M48
;Layer_Color=9474304
;FILE_FORMAT=4:4
METRIC,LZ
;TYPE=PLATED
T01F00S00C0.3000
%
T01
X0027432Y0010033
X0030226
X0032766
X0035179
X0037719
X0037084Y0033274
X0035864Y0033351
X00363991Y00375102
X0036449Y0038735
X00383088Y00370341
X00395788Y00371611
X0015748Y0036957
X0015367Y0034544
Y0032004
X001524Y0029464
X00408488Y00370341
X00421188
X00433888
X00446588Y00367801
X00459288Y00369071
X00471988Y00370341
X00484688Y00369071
X00497388
X0051054Y0036957
X00522788Y00369071
X00544059Y00375468
X00542789Y00388168
X0055245Y0015875
X0057785
X0060325Y0015748
X0052832Y0016256
X0049911Y0015494
X0047498Y0014859
X0045212Y0009779
X0042799Y0009906
X0040386
X008128Y002921
Y0032004
Y0034544
Y0036957
Y0039497
X0081407Y0042164
Y0044577
X0081534Y004699
X0076454Y0049276
X0075819Y0051689
X0075057Y005461
X0075438Y0057023
Y0059563
X0075565Y0062103
X00544059Y00540568
X0054356Y0052832
X00544059Y00515168
Y00502468
X00542789Y00489768
X00544059Y00477068
X00545329Y00464368
X00542789Y00451668
Y00438968
Y00426268
X00541519Y00413568
X00542789Y00400868
X00522422Y00530089
X00509722Y00528819
X00497022
X00484322Y00527549
X00471622Y00528819
X00458922
X00446222
X00433522Y00531359
X00420822Y00530089
X00408122Y00528819
X0040513Y0075057
X00381Y0074422
X0035179Y007366
X0032766Y0074041
X0030226
X0027686Y0074168
X00357708Y00572795
X0036957Y0057404
X00363991Y00540202
X00365261Y00527502
Y00514802
X00366531Y00502102
X00365261Y00489402
Y00476702
Y00464002
X00362721Y00451302
X00363991Y00438602
X00365261Y00425902
X00363991Y00413202
Y00400502
X00382722Y00530089
X00395422
X0009525Y005207
Y005461
Y0057023
Y0059563
Y0062357
X0009398Y0049403
Y004699
X0009271Y0044577
X0014351Y0042291
X0014986Y0039878
X0042799Y0080137
X0045212Y008001
X0047625
X0050292Y0079883
X0052832
X0055245
X0057785
X0060579
M30
