G04*
G04 #@! TF.GenerationSoftware,Altium Limited,Altium Designer,24.3.1 (35)*
G04*
G04 Layer_Physical_Order=2*
G04 Layer_Color=36540*
%FSLAX44Y44*%
%MOMM*%
G71*
G04*
G04 #@! TF.SameCoordinates,A09364C8-3F5A-4848-A1E5-A5872CA7DBD6*
G04*
G04*
G04 #@! TF.FilePolarity,Positive*
G04*
G01*
G75*
%ADD85C,1.6000*%
G04:AMPARAMS|DCode=86|XSize=1.6mm|YSize=1.6mm|CornerRadius=0.4mm|HoleSize=0mm|Usage=FLASHONLY|Rotation=270.000|XOffset=0mm|YOffset=0mm|HoleType=Round|Shape=RoundedRectangle|*
%AMROUNDEDRECTD86*
21,1,1.6000,0.8000,0,0,270.0*
21,1,0.8000,1.6000,0,0,270.0*
1,1,0.8000,-0.4000,-0.4000*
1,1,0.8000,-0.4000,0.4000*
1,1,0.8000,0.4000,0.4000*
1,1,0.8000,0.4000,-0.4000*
%
%ADD86ROUNDEDRECTD86*%
%ADD87C,7.0000*%
%ADD88C,2.0000*%
G04:AMPARAMS|DCode=89|XSize=2mm|YSize=2mm|CornerRadius=0.5mm|HoleSize=0mm|Usage=FLASHONLY|Rotation=270.000|XOffset=0mm|YOffset=0mm|HoleType=Round|Shape=RoundedRectangle|*
%AMROUNDEDRECTD89*
21,1,2.0000,1.0000,0,0,270.0*
21,1,1.0000,2.0000,0,0,270.0*
1,1,1.0000,-0.5000,-0.5000*
1,1,1.0000,-0.5000,0.5000*
1,1,1.0000,0.5000,0.5000*
1,1,1.0000,0.5000,-0.5000*
%
%ADD89ROUNDEDRECTD89*%
%ADD90C,1.2000*%
%ADD91C,1.3000*%
%ADD92C,1.5000*%
%ADD93C,0.7000*%
%ADD94C,0.5000*%
G36*
X650000Y550000D02*
X653277D01*
X659775Y549144D01*
X666106Y547448D01*
X672162Y544940D01*
X677838Y541663D01*
X683038Y537673D01*
X687673Y533038D01*
X691663Y527838D01*
X694940Y522162D01*
X697448Y516106D01*
X699144Y509775D01*
X700000Y503277D01*
Y500000D01*
X700000Y500000D01*
X700000Y500000D01*
X700000Y50000D01*
Y46723D01*
X699144Y40224D01*
X697448Y33893D01*
X694940Y27838D01*
X691663Y22162D01*
X687673Y16962D01*
X683038Y12327D01*
X677838Y8337D01*
X672162Y5060D01*
X666106Y2552D01*
X659775Y856D01*
X653277Y0D01*
X650000Y0D01*
X50000Y0D01*
X46723D01*
X40224Y856D01*
X33893Y2552D01*
X27838Y5060D01*
X22162Y8337D01*
X16962Y12327D01*
X12327Y16962D01*
X8337Y22162D01*
X5060Y27838D01*
X2552Y33893D01*
X856Y40224D01*
X0Y46723D01*
X0Y50000D01*
X0Y500000D01*
Y503277D01*
X856Y509775D01*
X2552Y516106D01*
X5060Y522162D01*
X8337Y527838D01*
X12327Y533038D01*
X16962Y537673D01*
X22162Y541663D01*
X27838Y544940D01*
X33893Y547448D01*
X40224Y549144D01*
X46723Y550000D01*
X50000D01*
X50000Y550000D01*
X650000Y550000D01*
D02*
G37*
%LPC*%
G36*
X385995Y536050D02*
X383625D01*
X381336Y535437D01*
X379284Y534252D01*
X377608Y532576D01*
X376423Y530524D01*
X375810Y528235D01*
Y525865D01*
X376423Y523576D01*
X377608Y521524D01*
X379284Y519848D01*
X381336Y518663D01*
X383625Y518050D01*
X385995D01*
X388284Y518663D01*
X390336Y519848D01*
X392012Y521524D01*
X393197Y523576D01*
X393810Y525865D01*
Y528235D01*
X393197Y530524D01*
X392012Y532576D01*
X390336Y534252D01*
X388284Y535437D01*
X385995Y536050D01*
D02*
G37*
G36*
X335195D02*
X332825D01*
X330536Y535437D01*
X328484Y534252D01*
X326808Y532576D01*
X325623Y530524D01*
X325010Y528235D01*
Y525865D01*
X325623Y523576D01*
X326808Y521524D01*
X328484Y519848D01*
X330536Y518663D01*
X332825Y518050D01*
X335195D01*
X337484Y518663D01*
X339536Y519848D01*
X341212Y521524D01*
X342397Y523576D01*
X343010Y525865D01*
Y528235D01*
X342397Y530524D01*
X341212Y532576D01*
X339536Y534252D01*
X337484Y535437D01*
X335195Y536050D01*
D02*
G37*
G36*
X600900Y536658D02*
X592900D01*
X590754Y536231D01*
X588935Y535015D01*
X587719Y533196D01*
X587292Y531050D01*
Y523050D01*
X587719Y520904D01*
X588935Y519085D01*
X590754Y517869D01*
X592900Y517442D01*
X600900D01*
X603046Y517869D01*
X604865Y519085D01*
X606081Y520904D01*
X606508Y523050D01*
Y531050D01*
X606081Y533196D01*
X604865Y535015D01*
X603046Y536231D01*
X600900Y536658D01*
D02*
G37*
G36*
X191053Y532270D02*
X188947D01*
X186912Y531725D01*
X185088Y530672D01*
X183598Y529182D01*
X182545Y527358D01*
X182000Y525323D01*
Y523217D01*
X182545Y521182D01*
X183598Y519358D01*
X185088Y517868D01*
X186912Y516815D01*
X188947Y516270D01*
X191053D01*
X193088Y516815D01*
X194912Y517868D01*
X196402Y519358D01*
X197455Y521182D01*
X198000Y523217D01*
Y525323D01*
X197455Y527358D01*
X196402Y529182D01*
X194912Y530672D01*
X193088Y531725D01*
X191053Y532270D01*
D02*
G37*
G36*
X128553D02*
X126447D01*
X124412Y531725D01*
X122588Y530672D01*
X121098Y529182D01*
X120045Y527358D01*
X119500Y525323D01*
Y523217D01*
X120045Y521182D01*
X121098Y519358D01*
X122588Y517868D01*
X124412Y516815D01*
X126447Y516270D01*
X128553D01*
X130588Y516815D01*
X132412Y517868D01*
X133902Y519358D01*
X134955Y521182D01*
X135500Y523217D01*
Y525323D01*
X134955Y527358D01*
X133902Y529182D01*
X132412Y530672D01*
X130588Y531725D01*
X128553Y532270D01*
D02*
G37*
G36*
X253526Y519620D02*
X251934D01*
X250464Y519011D01*
X249339Y517886D01*
X248730Y516416D01*
Y514824D01*
X249339Y513354D01*
X250464Y512229D01*
X251934Y511620D01*
X253526D01*
X254996Y512229D01*
X256121Y513354D01*
X256730Y514824D01*
Y516416D01*
X256121Y517886D01*
X254996Y519011D01*
X253526Y519620D01*
D02*
G37*
G36*
X523004Y534260D02*
X519976D01*
X517051Y533476D01*
X514429Y531962D01*
X512288Y529821D01*
X510774Y527199D01*
X509990Y524274D01*
Y521246D01*
X510774Y518321D01*
X512288Y515699D01*
X514429Y513558D01*
X517051Y512044D01*
X519976Y511260D01*
X523004D01*
X525929Y512044D01*
X528551Y513558D01*
X530692Y515699D01*
X532206Y518321D01*
X532990Y521246D01*
Y524274D01*
X532206Y527199D01*
X530692Y529821D01*
X528551Y531962D01*
X525929Y533476D01*
X523004Y534260D01*
D02*
G37*
G36*
X493004D02*
X489976D01*
X487051Y533476D01*
X484429Y531962D01*
X482288Y529821D01*
X480774Y527199D01*
X479990Y524274D01*
Y521246D01*
X480774Y518321D01*
X482288Y515699D01*
X484429Y513558D01*
X487051Y512044D01*
X489976Y511260D01*
X493004D01*
X495929Y512044D01*
X498551Y513558D01*
X500692Y515699D01*
X502206Y518321D01*
X502990Y521246D01*
Y524274D01*
X502206Y527199D01*
X500692Y529821D01*
X498551Y531962D01*
X495929Y533476D01*
X493004Y534260D01*
D02*
G37*
G36*
X466490Y534316D02*
X456490D01*
X454793Y534093D01*
X453212Y533438D01*
X451854Y532396D01*
X450812Y531038D01*
X450157Y529457D01*
X449934Y527760D01*
Y517760D01*
X450157Y516063D01*
X450812Y514482D01*
X451854Y513124D01*
X453212Y512082D01*
X454793Y511427D01*
X456490Y511204D01*
X466490D01*
X468187Y511427D01*
X469768Y512082D01*
X471126Y513124D01*
X472168Y514482D01*
X472823Y516063D01*
X473046Y517760D01*
Y527760D01*
X472823Y529457D01*
X472168Y531038D01*
X471126Y532396D01*
X469768Y533438D01*
X468187Y534093D01*
X466490Y534316D01*
D02*
G37*
G36*
X183676Y509460D02*
X182084D01*
X180614Y508851D01*
X179489Y507726D01*
X178880Y506256D01*
Y504664D01*
X179489Y503194D01*
X180614Y502069D01*
X182084Y501460D01*
X183676D01*
X185146Y502069D01*
X186271Y503194D01*
X186880Y504664D01*
Y506256D01*
X186271Y507726D01*
X185146Y508851D01*
X183676Y509460D01*
D02*
G37*
G36*
X375446Y501840D02*
X373854D01*
X372384Y501231D01*
X371259Y500106D01*
X370650Y498636D01*
Y497044D01*
X371259Y495574D01*
X372384Y494449D01*
X373854Y493840D01*
X375446D01*
X376916Y494449D01*
X378041Y495574D01*
X378650Y497044D01*
Y498636D01*
X378041Y500106D01*
X376916Y501231D01*
X375446Y501840D01*
D02*
G37*
G36*
X598151Y511150D02*
X595649D01*
X593233Y510503D01*
X591067Y509252D01*
X589298Y507483D01*
X588047Y505317D01*
X587400Y502901D01*
Y500399D01*
X588047Y497983D01*
X589298Y495817D01*
X591067Y494048D01*
X593233Y492797D01*
X595649Y492150D01*
X598151D01*
X600567Y492797D01*
X602733Y494048D01*
X604502Y495817D01*
X605753Y497983D01*
X606400Y500399D01*
Y502901D01*
X605753Y505317D01*
X604502Y507483D01*
X602733Y509252D01*
X600567Y510503D01*
X598151Y511150D01*
D02*
G37*
G36*
X493004Y504260D02*
X489976D01*
X487051Y503476D01*
X484429Y501962D01*
X482288Y499821D01*
X480774Y497199D01*
X479990Y494274D01*
Y491246D01*
X480774Y488321D01*
X482288Y485699D01*
X484429Y483558D01*
X487051Y482044D01*
X489976Y481260D01*
X493004D01*
X495929Y482044D01*
X498551Y483558D01*
X500692Y485699D01*
X502206Y488321D01*
X502990Y491246D01*
Y494274D01*
X502206Y497199D01*
X500692Y499821D01*
X498551Y501962D01*
X495929Y503476D01*
X493004Y504260D01*
D02*
G37*
G36*
X463004D02*
X459976D01*
X457051Y503476D01*
X454429Y501962D01*
X452288Y499821D01*
X450774Y497199D01*
X449990Y494274D01*
Y491246D01*
X450774Y488321D01*
X452288Y485699D01*
X454429Y483558D01*
X457051Y482044D01*
X459976Y481260D01*
X463004D01*
X465929Y482044D01*
X468551Y483558D01*
X470692Y485699D01*
X472206Y488321D01*
X472990Y491246D01*
Y494274D01*
X472206Y497199D01*
X470692Y499821D01*
X468551Y501962D01*
X465929Y503476D01*
X463004Y504260D01*
D02*
G37*
G36*
X552167Y491370D02*
X550193D01*
X548285Y490859D01*
X546575Y489871D01*
X545178Y488475D01*
X544191Y486765D01*
X543680Y484857D01*
Y482883D01*
X544191Y480975D01*
X545178Y479265D01*
X546575Y477868D01*
X548285Y476881D01*
X550193Y476370D01*
X552167D01*
X554075Y476881D01*
X555785Y477868D01*
X557182Y479265D01*
X558169Y480975D01*
X558680Y482883D01*
Y484857D01*
X558169Y486765D01*
X557182Y488475D01*
X555785Y489871D01*
X554075Y490859D01*
X552167Y491370D01*
D02*
G37*
G36*
X432787D02*
X430813D01*
X428905Y490859D01*
X427195Y489871D01*
X425798Y488475D01*
X424811Y486765D01*
X424300Y484857D01*
Y482883D01*
X424811Y480975D01*
X425798Y479265D01*
X427195Y477868D01*
X428905Y476881D01*
X430813Y476370D01*
X432787D01*
X434695Y476881D01*
X436405Y477868D01*
X437802Y479265D01*
X438789Y480975D01*
X439300Y482883D01*
Y484857D01*
X438789Y486765D01*
X437802Y488475D01*
X436405Y489871D01*
X434695Y490859D01*
X432787Y491370D01*
D02*
G37*
G36*
X367826Y476440D02*
X366234D01*
X364764Y475831D01*
X363639Y474706D01*
X363030Y473236D01*
Y471644D01*
X363639Y470174D01*
X364764Y469049D01*
X366234Y468440D01*
X367826D01*
X369296Y469049D01*
X370421Y470174D01*
X371030Y471644D01*
Y473236D01*
X370421Y474706D01*
X369296Y475831D01*
X367826Y476440D01*
D02*
G37*
G36*
X598151Y485750D02*
X595649D01*
X593233Y485103D01*
X591067Y483852D01*
X589298Y482083D01*
X588047Y479917D01*
X587400Y477501D01*
Y474999D01*
X588047Y472583D01*
X589298Y470417D01*
X591067Y468648D01*
X593233Y467397D01*
X595649Y466750D01*
X598151D01*
X600567Y467397D01*
X602733Y468648D01*
X604502Y470417D01*
X605753Y472583D01*
X606400Y474999D01*
Y477501D01*
X605753Y479917D01*
X604502Y482083D01*
X602733Y483852D01*
X600567Y485103D01*
X598151Y485750D01*
D02*
G37*
G36*
X592616Y447230D02*
X591024D01*
X589554Y446621D01*
X588429Y445496D01*
X587820Y444026D01*
Y442434D01*
X588429Y440964D01*
X589554Y439839D01*
X591024Y439230D01*
X592616D01*
X594086Y439839D01*
X595211Y440964D01*
X595820Y442434D01*
Y444026D01*
X595211Y445496D01*
X594086Y446621D01*
X592616Y447230D01*
D02*
G37*
G36*
X287796Y446000D02*
X286204D01*
X284734Y445391D01*
X283609Y444266D01*
X283000Y442796D01*
Y441204D01*
X283609Y439734D01*
X284734Y438609D01*
X286204Y438000D01*
X287796D01*
X289266Y438609D01*
X290391Y439734D01*
X291000Y441204D01*
Y442796D01*
X290391Y444266D01*
X289266Y445391D01*
X287796Y446000D01*
D02*
G37*
G36*
X565946Y444690D02*
X564354D01*
X562884Y444081D01*
X561759Y442956D01*
X561150Y441486D01*
Y439894D01*
X561759Y438424D01*
X562884Y437299D01*
X564354Y436690D01*
X565946D01*
X567416Y437299D01*
X568541Y438424D01*
X569150Y439894D01*
Y441486D01*
X568541Y442956D01*
X567416Y444081D01*
X565946Y444690D01*
D02*
G37*
G36*
X618016Y442150D02*
X616424D01*
X614954Y441541D01*
X613829Y440416D01*
X613220Y438946D01*
Y437354D01*
X613829Y435884D01*
X614954Y434759D01*
X616424Y434150D01*
X618016D01*
X619486Y434759D01*
X620611Y435884D01*
X621220Y437354D01*
Y438946D01*
X620611Y440416D01*
X619486Y441541D01*
X618016Y442150D01*
D02*
G37*
G36*
X647055Y434690D02*
X645065D01*
X643228Y433929D01*
X641821Y432522D01*
X641060Y430685D01*
Y428695D01*
X641821Y426858D01*
X643228Y425451D01*
X645065Y424690D01*
X647055D01*
X648892Y425451D01*
X650299Y426858D01*
X651060Y428695D01*
Y430685D01*
X650299Y432522D01*
X648892Y433929D01*
X647055Y434690D01*
D02*
G37*
G36*
X169706Y431990D02*
X168114D01*
X166644Y431381D01*
X165519Y430256D01*
X164910Y428786D01*
Y427194D01*
X165519Y425724D01*
X166644Y424599D01*
X168114Y423990D01*
X169706D01*
X171176Y424599D01*
X172301Y425724D01*
X172910Y427194D01*
Y428786D01*
X172301Y430256D01*
X171176Y431381D01*
X169706Y431990D01*
D02*
G37*
G36*
X25590Y442678D02*
X17590D01*
X15444Y442251D01*
X13625Y441035D01*
X12409Y439216D01*
X11982Y437070D01*
Y429070D01*
X12409Y426924D01*
X13625Y425105D01*
X15444Y423889D01*
X17590Y423462D01*
X25590D01*
X27736Y423889D01*
X29555Y425105D01*
X30771Y426924D01*
X31198Y429070D01*
Y437070D01*
X30771Y439216D01*
X29555Y441035D01*
X27736Y442251D01*
X25590Y442678D01*
D02*
G37*
G36*
X399576Y419290D02*
X397984D01*
X396514Y418681D01*
X395389Y417556D01*
X394780Y416086D01*
Y414494D01*
X395389Y413024D01*
X396514Y411899D01*
X397984Y411290D01*
X399576D01*
X401046Y411899D01*
X402171Y413024D01*
X402780Y414494D01*
Y416086D01*
X402171Y417556D01*
X401046Y418681D01*
X399576Y419290D01*
D02*
G37*
G36*
X386876Y418020D02*
X385284D01*
X383814Y417411D01*
X382689Y416286D01*
X382080Y414816D01*
Y413224D01*
X382689Y411754D01*
X383814Y410629D01*
X385284Y410020D01*
X386876D01*
X388346Y410629D01*
X389471Y411754D01*
X390080Y413224D01*
Y414816D01*
X389471Y416286D01*
X388346Y417411D01*
X386876Y418020D01*
D02*
G37*
G36*
X248446D02*
X246854D01*
X245384Y417411D01*
X244259Y416286D01*
X243650Y414816D01*
Y413224D01*
X244259Y411754D01*
X245384Y410629D01*
X246854Y410020D01*
X248446D01*
X249916Y410629D01*
X251041Y411754D01*
X251294Y412366D01*
X252669D01*
X252949Y411690D01*
X254074Y410564D01*
X255545Y409956D01*
X257136D01*
X258606Y410564D01*
X259731Y411690D01*
X260340Y413160D01*
Y414751D01*
X259731Y416221D01*
X258606Y417347D01*
X257136Y417956D01*
X255545D01*
X254074Y417347D01*
X252949Y416221D01*
X252696Y415610D01*
X251321D01*
X251041Y416286D01*
X249916Y417411D01*
X248446Y418020D01*
D02*
G37*
G36*
X535796Y413000D02*
X534204D01*
X532734Y412391D01*
X531609Y411266D01*
X531000Y409796D01*
Y408204D01*
X531609Y406734D01*
X532734Y405609D01*
X534204Y405000D01*
X535796D01*
X537266Y405609D01*
X538391Y406734D01*
X539000Y408204D01*
Y409796D01*
X538391Y411266D01*
X537266Y412391D01*
X535796Y413000D01*
D02*
G37*
G36*
X601506Y409130D02*
X599914D01*
X598444Y408521D01*
X597319Y407396D01*
X596710Y405926D01*
Y404334D01*
X597319Y402864D01*
X598444Y401739D01*
X599914Y401130D01*
X601506D01*
X602976Y401739D01*
X604101Y402864D01*
X604710Y404334D01*
Y405926D01*
X604101Y407396D01*
X602976Y408521D01*
X601506Y409130D01*
D02*
G37*
G36*
X513876Y407860D02*
X512284D01*
X510814Y407251D01*
X509689Y406126D01*
X509080Y404656D01*
Y403064D01*
X509689Y401594D01*
X510814Y400469D01*
X512284Y399860D01*
X513876D01*
X515346Y400469D01*
X516471Y401594D01*
X517080Y403064D01*
Y404656D01*
X516471Y406126D01*
X515346Y407251D01*
X513876Y407860D01*
D02*
G37*
G36*
X22841Y417170D02*
X20339D01*
X17923Y416523D01*
X15757Y415272D01*
X13988Y413503D01*
X12737Y411337D01*
X12090Y408921D01*
Y406419D01*
X12737Y404003D01*
X13988Y401837D01*
X15757Y400068D01*
X17923Y398817D01*
X20339Y398170D01*
X22841D01*
X25257Y398817D01*
X27423Y400068D01*
X29192Y401837D01*
X30443Y404003D01*
X31090Y406419D01*
Y408921D01*
X30443Y411337D01*
X29192Y413503D01*
X27423Y415272D01*
X25257Y416523D01*
X22841Y417170D01*
D02*
G37*
G36*
X352586Y405320D02*
X350994D01*
X349524Y404711D01*
X348399Y403586D01*
X347790Y402116D01*
Y400524D01*
X348399Y399054D01*
X349524Y397929D01*
X350994Y397320D01*
X352586D01*
X354056Y397929D01*
X355181Y399054D01*
X355790Y400524D01*
Y402116D01*
X355181Y403586D01*
X354056Y404711D01*
X352586Y405320D01*
D02*
G37*
G36*
X337346D02*
X335754D01*
X334284Y404711D01*
X333159Y403586D01*
X332550Y402116D01*
Y400524D01*
X333159Y399054D01*
X334284Y397929D01*
X335754Y397320D01*
X337346D01*
X338816Y397929D01*
X339941Y399054D01*
X340550Y400524D01*
Y402116D01*
X339941Y403586D01*
X338816Y404711D01*
X337346Y405320D01*
D02*
G37*
G36*
X372906Y404050D02*
X371314D01*
X369844Y403441D01*
X368719Y402316D01*
X368110Y400846D01*
Y399254D01*
X368719Y397784D01*
X369844Y396659D01*
X371314Y396050D01*
X372906D01*
X374376Y396659D01*
X375501Y397784D01*
X376110Y399254D01*
Y400846D01*
X375501Y402316D01*
X374376Y403441D01*
X372906Y404050D01*
D02*
G37*
G36*
X362746D02*
X361154D01*
X359684Y403441D01*
X358559Y402316D01*
X357950Y400846D01*
Y399254D01*
X358559Y397784D01*
X359684Y396659D01*
X361154Y396050D01*
X362746D01*
X364216Y396659D01*
X365341Y397784D01*
X365950Y399254D01*
Y400846D01*
X365341Y402316D01*
X364216Y403441D01*
X362746Y404050D01*
D02*
G37*
G36*
X564796Y404000D02*
X563204D01*
X561734Y403391D01*
X560609Y402266D01*
X560000Y400796D01*
Y399204D01*
X560609Y397734D01*
X561734Y396609D01*
X563204Y396000D01*
X564796D01*
X566266Y396609D01*
X567391Y397734D01*
X568000Y399204D01*
Y400796D01*
X567391Y402266D01*
X566266Y403391D01*
X564796Y404000D01*
D02*
G37*
G36*
X647055Y393190D02*
X645065D01*
X643228Y392429D01*
X641821Y391022D01*
X641060Y389185D01*
Y387195D01*
X641821Y385358D01*
X643228Y383951D01*
X645065Y383190D01*
X647055D01*
X648892Y383951D01*
X650299Y385358D01*
X651060Y387195D01*
Y389185D01*
X650299Y391022D01*
X648892Y392429D01*
X647055Y393190D01*
D02*
G37*
G36*
X324796Y369000D02*
X323204D01*
X321734Y368391D01*
X320609Y367266D01*
X320000Y365796D01*
Y364204D01*
X320609Y362734D01*
X321734Y361609D01*
X323204Y361000D01*
X324796D01*
X326266Y361609D01*
X327391Y362734D01*
X328000Y364204D01*
Y365796D01*
X327391Y367266D01*
X326266Y368391D01*
X324796Y369000D01*
D02*
G37*
G36*
X571026Y365950D02*
X569434D01*
X567964Y365341D01*
X566839Y364216D01*
X566230Y362746D01*
Y361154D01*
X566839Y359684D01*
X567964Y358559D01*
X569434Y357950D01*
X571026D01*
X572496Y358559D01*
X573621Y359684D01*
X574230Y361154D01*
Y362746D01*
X573621Y364216D01*
X572496Y365341D01*
X571026Y365950D01*
D02*
G37*
G36*
X334947Y365809D02*
X333356D01*
X331886Y365200D01*
X330760Y364074D01*
X330151Y362604D01*
Y361013D01*
X330760Y359543D01*
X331886Y358418D01*
X333356Y357809D01*
X334947D01*
X336417Y358418D01*
X337542Y359543D01*
X338151Y361013D01*
Y362604D01*
X337542Y364074D01*
X336417Y365200D01*
X334947Y365809D01*
D02*
G37*
G36*
X281796Y364000D02*
X280204D01*
X278734Y363391D01*
X277609Y362266D01*
X277000Y360796D01*
Y359204D01*
X277609Y357734D01*
X278734Y356609D01*
X280204Y356000D01*
X281796D01*
X283266Y356609D01*
X284391Y357734D01*
X285000Y359204D01*
Y360796D01*
X284391Y362266D01*
X283266Y363391D01*
X281796Y364000D01*
D02*
G37*
G36*
X404796Y361000D02*
X403204D01*
X401734Y360391D01*
X400609Y359266D01*
X400000Y357796D01*
Y356204D01*
X400609Y354734D01*
X401734Y353609D01*
X403204Y353000D01*
X404796D01*
X406266Y353609D01*
X407391Y354734D01*
X408000Y356204D01*
Y357796D01*
X407391Y359266D01*
X406266Y360391D01*
X404796Y361000D01*
D02*
G37*
G36*
X534103Y360865D02*
X532512D01*
X531042Y360256D01*
X529916Y359131D01*
X529308Y357661D01*
Y356069D01*
X529916Y354599D01*
X531042Y353474D01*
X532512Y352865D01*
X534103D01*
X535573Y353474D01*
X536698Y354599D01*
X537307Y356069D01*
Y357661D01*
X536698Y359131D01*
X535573Y360256D01*
X534103Y360865D01*
D02*
G37*
G36*
X348796Y367000D02*
X347204D01*
X345734Y366391D01*
X344609Y365266D01*
X344000Y363796D01*
Y362204D01*
X344609Y360734D01*
X345734Y359609D01*
X346487Y359297D01*
X346493Y359288D01*
X346688Y357839D01*
X346019Y357170D01*
X345410Y355700D01*
Y354108D01*
X346019Y352638D01*
X347144Y351513D01*
X348614Y350904D01*
X350206D01*
X351676Y351513D01*
X352801Y352638D01*
X353410Y354108D01*
Y355700D01*
X352801Y357170D01*
X351676Y358295D01*
X350923Y358607D01*
X350917Y358616D01*
X350722Y360065D01*
X351391Y360734D01*
X352000Y362204D01*
Y363796D01*
X351391Y365266D01*
X350266Y366391D01*
X348796Y367000D01*
D02*
G37*
G36*
X436796Y358000D02*
X435204D01*
X433734Y357391D01*
X432609Y356266D01*
X432000Y354796D01*
Y353204D01*
X432609Y351734D01*
X433734Y350609D01*
X435204Y350000D01*
X436796D01*
X438266Y350609D01*
X439391Y351734D01*
X440000Y353204D01*
Y354796D01*
X439391Y356266D01*
X438266Y357391D01*
X436796Y358000D01*
D02*
G37*
G36*
X22841Y366370D02*
X20339D01*
X17923Y365723D01*
X15757Y364472D01*
X13988Y362703D01*
X12737Y360537D01*
X12090Y358121D01*
Y355619D01*
X12737Y353203D01*
X13988Y351037D01*
X15757Y349268D01*
X17923Y348017D01*
X20339Y347370D01*
X22841D01*
X25257Y348017D01*
X27423Y349268D01*
X29192Y351037D01*
X30443Y353203D01*
X31090Y355619D01*
Y358121D01*
X30443Y360537D01*
X29192Y362703D01*
X27423Y364472D01*
X25257Y365723D01*
X22841Y366370D01*
D02*
G37*
G36*
X330206Y354000D02*
X328614D01*
X327144Y353391D01*
X326019Y352266D01*
X325410Y350796D01*
Y349204D01*
X326019Y347734D01*
X327144Y346609D01*
X328614Y346000D01*
X330206D01*
X331676Y346609D01*
X332801Y347734D01*
X333410Y349204D01*
Y350796D01*
X332801Y352266D01*
X331676Y353391D01*
X330206Y354000D01*
D02*
G37*
G36*
X397796Y351000D02*
X396204D01*
X394734Y350391D01*
X393609Y349266D01*
X393000Y347796D01*
Y346204D01*
X393609Y344734D01*
X394734Y343609D01*
X396204Y343000D01*
X397796D01*
X399266Y343609D01*
X400391Y344734D01*
X401000Y346204D01*
Y347796D01*
X400391Y349266D01*
X399266Y350391D01*
X397796Y351000D01*
D02*
G37*
G36*
X340206D02*
X338614D01*
X337144Y350391D01*
X336019Y349266D01*
X335410Y347796D01*
Y346204D01*
X336019Y344734D01*
X337144Y343609D01*
X338614Y343000D01*
X340206D01*
X341676Y343609D01*
X342801Y344734D01*
X343410Y346204D01*
Y347796D01*
X342801Y349266D01*
X341676Y350391D01*
X340206Y351000D01*
D02*
G37*
G36*
X309796D02*
X308204D01*
X306734Y350391D01*
X305609Y349266D01*
X305000Y347796D01*
Y346204D01*
X305609Y344734D01*
X306734Y343609D01*
X308204Y343000D01*
X309796D01*
X311266Y343609D01*
X312391Y344734D01*
X313000Y346204D01*
Y347796D01*
X312391Y349266D01*
X311266Y350391D01*
X309796Y351000D01*
D02*
G37*
G36*
X410001Y350795D02*
X408409D01*
X406939Y350186D01*
X405814Y349061D01*
X405205Y347591D01*
Y345999D01*
X405814Y344529D01*
X406939Y343404D01*
X408409Y342795D01*
X410001D01*
X411471Y343404D01*
X412596Y344529D01*
X413205Y345999D01*
Y347591D01*
X412596Y349061D01*
X411471Y350186D01*
X410001Y350795D01*
D02*
G37*
G36*
X355206Y346900D02*
X353614D01*
X352144Y346291D01*
X351019Y345166D01*
X350410Y343696D01*
Y342104D01*
X351019Y340634D01*
X352144Y339509D01*
X353614Y338900D01*
X355206D01*
X356676Y339509D01*
X357801Y340634D01*
X358410Y342104D01*
Y343696D01*
X357801Y345166D01*
X356676Y346291D01*
X355206Y346900D01*
D02*
G37*
G36*
X675796Y345000D02*
X674204D01*
X672734Y344391D01*
X671609Y343266D01*
X671000Y341796D01*
Y340204D01*
X671609Y338734D01*
X672734Y337609D01*
X674204Y337000D01*
X675796D01*
X677266Y337609D01*
X678391Y338734D01*
X679000Y340204D01*
Y341796D01*
X678391Y343266D01*
X677266Y344391D01*
X675796Y345000D01*
D02*
G37*
G36*
X263686Y332930D02*
X262094D01*
X260624Y332321D01*
X259499Y331196D01*
X258890Y329726D01*
Y328134D01*
X259499Y326664D01*
X260624Y325539D01*
X262094Y324930D01*
X263686D01*
X265156Y325539D01*
X266281Y326664D01*
X266890Y328134D01*
Y329726D01*
X266281Y331196D01*
X265156Y332321D01*
X263686Y332930D01*
D02*
G37*
G36*
X22841Y340970D02*
X20339D01*
X17923Y340323D01*
X15757Y339072D01*
X13988Y337303D01*
X12737Y335137D01*
X12090Y332721D01*
Y330219D01*
X12737Y327803D01*
X13988Y325637D01*
X15757Y323868D01*
X17923Y322617D01*
X20339Y321970D01*
X22841D01*
X25257Y322617D01*
X27423Y323868D01*
X29192Y325637D01*
X30443Y327803D01*
X31090Y330219D01*
Y332721D01*
X30443Y335137D01*
X29192Y337303D01*
X27423Y339072D01*
X25257Y340323D01*
X22841Y340970D01*
D02*
G37*
G36*
X444796Y329000D02*
X443204D01*
X441734Y328391D01*
X440609Y327266D01*
X440000Y325796D01*
Y324204D01*
X440609Y322734D01*
X441734Y321609D01*
X443204Y321000D01*
X444796D01*
X446266Y321609D01*
X447391Y322734D01*
X448000Y324204D01*
Y325796D01*
X447391Y327266D01*
X446266Y328391D01*
X444796Y329000D01*
D02*
G37*
G36*
X316556Y321908D02*
X314964D01*
X313494Y321299D01*
X312369Y320174D01*
X311760Y318704D01*
Y317112D01*
X312369Y315642D01*
X313494Y314517D01*
X314964Y313908D01*
X316556D01*
X318026Y314517D01*
X319151Y315642D01*
X319760Y317112D01*
X321000Y317040D01*
X321000Y315939D01*
X321609Y314469D01*
X322734Y313344D01*
X324204Y312735D01*
X325796D01*
X327266Y313344D01*
X328391Y314469D01*
X329000Y315939D01*
Y317531D01*
X328391Y319001D01*
X327266Y320126D01*
X325796Y320735D01*
X324204D01*
X322734Y320126D01*
X321609Y319001D01*
X321000Y317531D01*
X319760Y317603D01*
X319760Y318704D01*
X319151Y320174D01*
X318026Y321299D01*
X316556Y321908D01*
D02*
G37*
G36*
X415796Y318000D02*
X414204D01*
X412734Y317391D01*
X411609Y316266D01*
X411000Y314796D01*
Y313204D01*
X411609Y311734D01*
X412734Y310609D01*
X414204Y310000D01*
X415796D01*
X417266Y310609D01*
X418391Y311734D01*
X419000Y313204D01*
Y314796D01*
X418391Y316266D01*
X417266Y317391D01*
X415796Y318000D01*
D02*
G37*
G36*
X405926Y308800D02*
X404334D01*
X402864Y308191D01*
X401739Y307066D01*
X401130Y305596D01*
Y304004D01*
X401739Y302534D01*
X402864Y301409D01*
X404334Y300800D01*
X405926D01*
X407396Y301409D01*
X408521Y302534D01*
X409130Y304004D01*
Y305596D01*
X408521Y307066D01*
X407396Y308191D01*
X405926Y308800D01*
D02*
G37*
G36*
X267966Y306730D02*
X266374D01*
X264904Y306121D01*
X263779Y304996D01*
X263170Y303526D01*
Y301934D01*
X263779Y300464D01*
X264904Y299339D01*
X266374Y298730D01*
X267966D01*
X269436Y299339D01*
X270561Y300464D01*
X271170Y301934D01*
Y303526D01*
X270561Y304996D01*
X269436Y306121D01*
X267966Y306730D01*
D02*
G37*
G36*
X110016Y306260D02*
X108424D01*
X106954Y305651D01*
X105829Y304526D01*
X105220Y303056D01*
Y301464D01*
X105829Y299994D01*
X106954Y298869D01*
X108424Y298260D01*
X110016D01*
X111486Y298869D01*
X112611Y299994D01*
X113220Y301464D01*
Y303056D01*
X112611Y304526D01*
X111486Y305651D01*
X110016Y306260D01*
D02*
G37*
G36*
X22841Y315570D02*
X20339D01*
X17923Y314923D01*
X15757Y313672D01*
X13988Y311903D01*
X12737Y309737D01*
X12090Y307321D01*
Y304819D01*
X12737Y302403D01*
X13988Y300237D01*
X15757Y298468D01*
X17923Y297217D01*
X20339Y296570D01*
X22841D01*
X25257Y297217D01*
X27423Y298468D01*
X29192Y300237D01*
X30443Y302403D01*
X31090Y304819D01*
Y307321D01*
X30443Y309737D01*
X29192Y311903D01*
X27423Y313672D01*
X25257Y314923D01*
X22841Y315570D01*
D02*
G37*
G36*
X308136Y303212D02*
X306544D01*
X305074Y302603D01*
X303949Y301478D01*
X303340Y300008D01*
Y298416D01*
X303949Y296946D01*
X305074Y295821D01*
X306544Y295212D01*
X308136D01*
X309606Y295821D01*
X310731Y296946D01*
X311340Y298416D01*
Y300008D01*
X310731Y301478D01*
X309606Y302603D01*
X308136Y303212D01*
D02*
G37*
G36*
X415796Y303000D02*
X414204D01*
X412734Y302391D01*
X411609Y301266D01*
X411000Y299796D01*
Y298204D01*
X411609Y296734D01*
X412734Y295609D01*
X414204Y295000D01*
X415796D01*
X417266Y295609D01*
X418391Y296734D01*
X419000Y298204D01*
Y299796D01*
X418391Y301266D01*
X417266Y302391D01*
X415796Y303000D01*
D02*
G37*
G36*
X258796Y301000D02*
X257204D01*
X255734Y300391D01*
X254609Y299266D01*
X254000Y297796D01*
Y296204D01*
X254609Y294734D01*
X255734Y293609D01*
X257204Y293000D01*
X258796D01*
X260266Y293609D01*
X261391Y294734D01*
X262000Y296204D01*
Y297796D01*
X261391Y299266D01*
X260266Y300391D01*
X258796Y301000D01*
D02*
G37*
G36*
X299796Y298000D02*
X298204D01*
X296734Y297391D01*
X295609Y296266D01*
X295000Y294796D01*
Y293204D01*
X295609Y291734D01*
X296734Y290609D01*
X298204Y290000D01*
X299796D01*
X301266Y290609D01*
X302391Y291734D01*
X303000Y293204D01*
Y294796D01*
X302391Y296266D01*
X301266Y297391D01*
X299796Y298000D01*
D02*
G37*
G36*
X269796Y296000D02*
X268204D01*
X266734Y295391D01*
X265609Y294266D01*
X265000Y292796D01*
Y291204D01*
X265609Y289734D01*
X266734Y288609D01*
X268204Y288000D01*
X269796D01*
X271266Y288609D01*
X272391Y289734D01*
X273000Y291204D01*
Y292796D01*
X272391Y294266D01*
X271266Y295391D01*
X269796Y296000D01*
D02*
G37*
G36*
X409796Y294000D02*
X408204D01*
X406734Y293391D01*
X405609Y292266D01*
X405000Y290796D01*
Y289204D01*
X405609Y287734D01*
X406734Y286609D01*
X408204Y286000D01*
X409796D01*
X411266Y286609D01*
X412391Y287734D01*
X413000Y289204D01*
Y290796D01*
X412391Y292266D01*
X411266Y293391D01*
X409796Y294000D01*
D02*
G37*
G36*
X587856Y289960D02*
X586265D01*
X584795Y289351D01*
X583670Y288225D01*
X583061Y286755D01*
Y285164D01*
X583670Y283694D01*
X584795Y282568D01*
X586265Y281959D01*
X587856D01*
X589327Y282568D01*
X590452Y283694D01*
X591061Y285164D01*
Y286755D01*
X590452Y288225D01*
X589327Y289351D01*
X587856Y289960D01*
D02*
G37*
G36*
X579916Y284670D02*
X578324D01*
X576854Y284061D01*
X575729Y282936D01*
X575120Y281466D01*
Y279874D01*
X575729Y278404D01*
X576854Y277279D01*
X578324Y276670D01*
X579916D01*
X581386Y277279D01*
X582511Y278404D01*
X583120Y279874D01*
Y281466D01*
X582511Y282936D01*
X581386Y284061D01*
X579916Y284670D01*
D02*
G37*
G36*
X409796Y283000D02*
X408204D01*
X406734Y282391D01*
X405609Y281266D01*
X405000Y279796D01*
Y278204D01*
X405609Y276734D01*
X406734Y275609D01*
X408204Y275000D01*
X409796D01*
X411266Y275609D01*
X412391Y276734D01*
X413000Y278204D01*
Y279796D01*
X412391Y281266D01*
X411266Y282391D01*
X409796Y283000D01*
D02*
G37*
G36*
X296796Y287000D02*
X295204D01*
X293734Y286391D01*
X292609Y285266D01*
X292000Y283796D01*
Y282204D01*
X292609Y280734D01*
X293734Y279609D01*
X295204Y279000D01*
X296796D01*
X298266Y279609D01*
X298689Y280032D01*
X299765Y279313D01*
X299500Y278672D01*
Y277080D01*
X300109Y275610D01*
X301234Y274485D01*
X302704Y273876D01*
X304296D01*
X305766Y274485D01*
X306891Y275610D01*
X307500Y277080D01*
Y278672D01*
X306891Y280142D01*
X305766Y281267D01*
X304296Y281876D01*
X302704D01*
X301234Y281267D01*
X300811Y280844D01*
X299734Y281563D01*
X300000Y282204D01*
Y283796D01*
X299391Y285266D01*
X298266Y286391D01*
X296796Y287000D01*
D02*
G37*
G36*
Y276000D02*
X295204D01*
X293734Y275391D01*
X292609Y274266D01*
X292000Y272796D01*
Y271204D01*
X292609Y269734D01*
X293734Y268609D01*
X295204Y268000D01*
X296796D01*
X298266Y268609D01*
X299391Y269734D01*
X300000Y271204D01*
Y272796D01*
X299391Y274266D01*
X298266Y275391D01*
X296796Y276000D01*
D02*
G37*
G36*
X460536Y275780D02*
X458944D01*
X457474Y275171D01*
X456349Y274046D01*
X455740Y272576D01*
Y270984D01*
X456349Y269514D01*
X457474Y268389D01*
X458944Y267780D01*
X460536D01*
X462006Y268389D01*
X463131Y269514D01*
X463740Y270984D01*
Y272576D01*
X463131Y274046D01*
X462006Y275171D01*
X460536Y275780D01*
D02*
G37*
G36*
X502446Y271970D02*
X500854D01*
X499384Y271361D01*
X498259Y270236D01*
X497650Y268766D01*
Y267174D01*
X498259Y265704D01*
X499384Y264579D01*
X500854Y263970D01*
X502446D01*
X503916Y264579D01*
X505041Y265704D01*
X505650Y267174D01*
Y268766D01*
X505041Y270236D01*
X503916Y271361D01*
X502446Y271970D01*
D02*
G37*
G36*
X410796Y271000D02*
X409204D01*
X407734Y270391D01*
X406609Y269266D01*
X406000Y267796D01*
Y266204D01*
X406609Y264734D01*
X407734Y263609D01*
X409204Y263000D01*
X410796D01*
X412266Y263609D01*
X413391Y264734D01*
X414000Y266204D01*
Y267796D01*
X413391Y269266D01*
X412266Y270391D01*
X410796Y271000D01*
D02*
G37*
G36*
X299796Y267000D02*
X298204D01*
X296734Y266391D01*
X295609Y265266D01*
X295000Y263796D01*
Y262204D01*
X295609Y260734D01*
X296734Y259609D01*
X298204Y259000D01*
X299796D01*
X301266Y259609D01*
X302391Y260734D01*
X303000Y262204D01*
Y263796D01*
X302391Y265266D01*
X301266Y266391D01*
X299796Y267000D01*
D02*
G37*
G36*
X328796Y266000D02*
X327204D01*
X325734Y265391D01*
X324609Y264266D01*
X324000Y262796D01*
Y261204D01*
X324609Y259734D01*
X325734Y258609D01*
X327204Y258000D01*
X328796D01*
X330266Y258609D01*
X331391Y259734D01*
X332000Y261204D01*
Y262796D01*
X331391Y264266D01*
X330266Y265391D01*
X328796Y266000D01*
D02*
G37*
G36*
X565946Y263080D02*
X564354D01*
X562884Y262471D01*
X561759Y261346D01*
X561150Y259876D01*
Y258284D01*
X561759Y256814D01*
X562884Y255689D01*
X564354Y255080D01*
X565946D01*
X567416Y255689D01*
X568541Y256814D01*
X569150Y258284D01*
Y259876D01*
X568541Y261346D01*
X567416Y262471D01*
X565946Y263080D01*
D02*
G37*
G36*
X459266Y261810D02*
X457674D01*
X456204Y261201D01*
X455079Y260076D01*
X454470Y258606D01*
Y257014D01*
X455079Y255544D01*
X456204Y254419D01*
X457674Y253810D01*
X459266D01*
X460736Y254419D01*
X461861Y255544D01*
X462470Y257014D01*
Y258606D01*
X461861Y260076D01*
X460736Y261201D01*
X459266Y261810D01*
D02*
G37*
G36*
X421796Y261000D02*
X420204D01*
X418734Y260391D01*
X417609Y259266D01*
X417000Y257796D01*
Y256204D01*
X417609Y254734D01*
X418734Y253609D01*
X420204Y253000D01*
X421796D01*
X423266Y253609D01*
X424391Y254734D01*
X425000Y256204D01*
Y257796D01*
X424391Y259266D01*
X423266Y260391D01*
X421796Y261000D01*
D02*
G37*
G36*
X459266Y250380D02*
X457674D01*
X456204Y249771D01*
X455079Y248646D01*
X454470Y247176D01*
Y245584D01*
X455079Y244114D01*
X456204Y242989D01*
X457674Y242380D01*
X459266D01*
X460736Y242989D01*
X461861Y244114D01*
X462470Y245584D01*
Y247176D01*
X461861Y248646D01*
X460736Y249771D01*
X459266Y250380D01*
D02*
G37*
G36*
X34015Y248840D02*
X32025D01*
X30188Y248079D01*
X28781Y246672D01*
X28020Y244835D01*
Y242845D01*
X28781Y241008D01*
X30188Y239601D01*
X32025Y238840D01*
X34015D01*
X35852Y239601D01*
X37259Y241008D01*
X38020Y242845D01*
Y244835D01*
X37259Y246672D01*
X35852Y248079D01*
X34015Y248840D01*
D02*
G37*
G36*
X300356Y246730D02*
X298764D01*
X297294Y246121D01*
X296169Y244996D01*
X295560Y243526D01*
Y241934D01*
X296169Y240464D01*
X297294Y239339D01*
X298764Y238730D01*
X300356D01*
X301826Y239339D01*
X302951Y240464D01*
X303560Y241934D01*
Y243526D01*
X302951Y244996D01*
X301826Y246121D01*
X300356Y246730D01*
D02*
G37*
G36*
X265196Y241620D02*
X263604D01*
X262134Y241011D01*
X261009Y239886D01*
X260400Y238416D01*
Y236824D01*
X261009Y235354D01*
X262134Y234229D01*
X263604Y233620D01*
X265196D01*
X266666Y234229D01*
X267791Y235354D01*
X268400Y236824D01*
Y238416D01*
X267791Y239886D01*
X266666Y241011D01*
X265196Y241620D01*
D02*
G37*
G36*
X639606Y235140D02*
X638014D01*
X636544Y234531D01*
X635419Y233406D01*
X634810Y231936D01*
Y230344D01*
X635419Y228874D01*
X636544Y227749D01*
X638014Y227140D01*
X639606D01*
X641076Y227749D01*
X642201Y228874D01*
X642810Y230344D01*
Y231936D01*
X642201Y233406D01*
X641076Y234531D01*
X639606Y235140D01*
D02*
G37*
G36*
X300796Y232000D02*
X299204D01*
X297734Y231391D01*
X296609Y230266D01*
X296000Y228796D01*
Y227204D01*
X296609Y225734D01*
X297734Y224609D01*
X299204Y224000D01*
X300796D01*
X302266Y224609D01*
X303391Y225734D01*
X304000Y227204D01*
Y228796D01*
X303391Y230266D01*
X302266Y231391D01*
X300796Y232000D01*
D02*
G37*
G36*
X555786Y230060D02*
X554194D01*
X552724Y229451D01*
X551599Y228326D01*
X550990Y226856D01*
Y225264D01*
X551599Y223794D01*
X552724Y222669D01*
X554194Y222060D01*
X555786D01*
X557256Y222669D01*
X558381Y223794D01*
X558990Y225264D01*
Y226856D01*
X558381Y228326D01*
X557256Y229451D01*
X555786Y230060D01*
D02*
G37*
G36*
X457796Y230000D02*
X456204D01*
X454734Y229391D01*
X453609Y228266D01*
X453000Y226796D01*
Y225204D01*
X453609Y223734D01*
X454734Y222609D01*
X456204Y222000D01*
X457796D01*
X459266Y222609D01*
X460391Y223734D01*
X461000Y225204D01*
Y226796D01*
X460391Y228266D01*
X459266Y229391D01*
X457796Y230000D01*
D02*
G37*
G36*
X310905Y236984D02*
X309314D01*
X307844Y236375D01*
X306719Y235250D01*
X306110Y233780D01*
Y232188D01*
X306719Y230718D01*
X307844Y229593D01*
X308690Y229243D01*
X309213Y228153D01*
X309167Y227775D01*
X308664Y226559D01*
Y224968D01*
X309273Y223498D01*
X310398Y222373D01*
X311868Y221764D01*
X313460D01*
X314930Y222373D01*
X316055Y223498D01*
X316664Y224968D01*
Y226559D01*
X316055Y228029D01*
X314930Y229155D01*
X314084Y229505D01*
X313560Y230594D01*
X313606Y230973D01*
X314110Y232188D01*
Y233780D01*
X313501Y235250D01*
X312376Y236375D01*
X310905Y236984D01*
D02*
G37*
G36*
X159796Y224000D02*
X158204D01*
X156734Y223391D01*
X155609Y222266D01*
X155000Y220796D01*
Y219204D01*
X155609Y217734D01*
X156734Y216609D01*
X158204Y216000D01*
X159796D01*
X161266Y216609D01*
X162391Y217734D01*
X163000Y219204D01*
Y220796D01*
X162391Y222266D01*
X161266Y223391D01*
X159796Y224000D01*
D02*
G37*
G36*
X459796Y219000D02*
X458204D01*
X456734Y218391D01*
X455609Y217266D01*
X455000Y215796D01*
Y214204D01*
X455609Y212734D01*
X456734Y211609D01*
X458204Y211000D01*
X459796D01*
X461266Y211609D01*
X462391Y212734D01*
X463000Y214204D01*
Y215796D01*
X462391Y217266D01*
X461266Y218391D01*
X459796Y219000D01*
D02*
G37*
G36*
X321796Y225000D02*
X320204D01*
X318734Y224391D01*
X317609Y223266D01*
X317000Y221796D01*
Y220204D01*
X317609Y218734D01*
X318734Y217609D01*
X320204Y217000D01*
X321796D01*
X323266Y217609D01*
X324028Y216655D01*
X322999Y215626D01*
X322390Y214156D01*
Y212564D01*
X322999Y211094D01*
X324124Y209969D01*
X325594Y209360D01*
X327186D01*
X328656Y209969D01*
X329781Y211094D01*
X330390Y212564D01*
Y214156D01*
X329781Y215626D01*
X328656Y216751D01*
X327186Y217360D01*
X325594D01*
X324124Y216751D01*
X323362Y217705D01*
X324391Y218734D01*
X325000Y220204D01*
Y221796D01*
X324391Y223266D01*
X323266Y224391D01*
X321796Y225000D01*
D02*
G37*
G36*
X418796Y216000D02*
X417204D01*
X415734Y215391D01*
X414609Y214266D01*
X414000Y212796D01*
Y211204D01*
X414609Y209734D01*
X415734Y208609D01*
X417204Y208000D01*
X418796D01*
X420266Y208609D01*
X421391Y209734D01*
X422000Y211204D01*
Y212796D01*
X421391Y214266D01*
X420266Y215391D01*
X418796Y216000D01*
D02*
G37*
G36*
X389796Y213000D02*
X388204D01*
X386734Y212391D01*
X385609Y211266D01*
X385000Y209796D01*
Y208204D01*
X385609Y206734D01*
X386734Y205609D01*
X388204Y205000D01*
X389796D01*
X391266Y205609D01*
X392391Y206734D01*
X393000Y208204D01*
Y209796D01*
X392391Y211266D01*
X391266Y212391D01*
X389796Y213000D01*
D02*
G37*
G36*
X379796Y209000D02*
X378204D01*
X376734Y208391D01*
X375609Y207266D01*
X375000Y205796D01*
Y204204D01*
X375609Y202734D01*
X376734Y201609D01*
X378204Y201000D01*
X379796D01*
X381266Y201609D01*
X382391Y202734D01*
X383000Y204204D01*
Y205796D01*
X382391Y207266D01*
X381266Y208391D01*
X379796Y209000D01*
D02*
G37*
G36*
X461806Y207200D02*
X460214D01*
X458744Y206591D01*
X457619Y205466D01*
X457010Y203996D01*
Y202404D01*
X457619Y200934D01*
X458744Y199809D01*
X460214Y199200D01*
X461806D01*
X463276Y199809D01*
X464401Y200934D01*
X465010Y202404D01*
Y203996D01*
X464401Y205466D01*
X463276Y206591D01*
X461806Y207200D01*
D02*
G37*
G36*
X419161Y206365D02*
X417569D01*
X416099Y205756D01*
X414974Y204631D01*
X414365Y203161D01*
Y201569D01*
X414974Y200099D01*
X416099Y198974D01*
X417569Y198365D01*
X419161D01*
X420631Y198974D01*
X421756Y200099D01*
X422365Y201569D01*
Y203161D01*
X421756Y204631D01*
X420631Y205756D01*
X419161Y206365D01*
D02*
G37*
G36*
X558326Y205930D02*
X556734D01*
X555264Y205321D01*
X554139Y204196D01*
X553530Y202726D01*
Y201134D01*
X554139Y199664D01*
X555264Y198539D01*
X556734Y197930D01*
X558326D01*
X559796Y198539D01*
X560921Y199664D01*
X561530Y201134D01*
Y202726D01*
X560921Y204196D01*
X559796Y205321D01*
X558326Y205930D01*
D02*
G37*
G36*
X673896Y204660D02*
X672304D01*
X670834Y204051D01*
X669709Y202926D01*
X669100Y201456D01*
Y199864D01*
X669709Y198394D01*
X670834Y197269D01*
X672304Y196660D01*
X673896D01*
X675366Y197269D01*
X676491Y198394D01*
X677100Y199864D01*
Y201456D01*
X676491Y202926D01*
X675366Y204051D01*
X673896Y204660D01*
D02*
G37*
G36*
X317026Y211010D02*
X315434D01*
X313964Y210401D01*
X312839Y209276D01*
X312230Y207806D01*
Y206214D01*
X312839Y204744D01*
X313964Y203619D01*
X315434Y203010D01*
X316557D01*
X317124Y201781D01*
X316609Y201266D01*
X316000Y199796D01*
Y198204D01*
X316609Y196734D01*
X317734Y195609D01*
X319204Y195000D01*
X320796D01*
X322266Y195609D01*
X323391Y196734D01*
X324000Y198204D01*
Y199796D01*
X323391Y201266D01*
X322266Y202391D01*
X320796Y203000D01*
X319673D01*
X319106Y204229D01*
X319621Y204744D01*
X320230Y206214D01*
Y207806D01*
X319621Y209276D01*
X318496Y210401D01*
X317026Y211010D01*
D02*
G37*
G36*
X454186Y197040D02*
X452594D01*
X451124Y196431D01*
X449999Y195306D01*
X449390Y193836D01*
Y192244D01*
X449999Y190774D01*
X451124Y189649D01*
X452594Y189040D01*
X454186D01*
X455656Y189649D01*
X456781Y190774D01*
X457390Y192244D01*
Y193836D01*
X456781Y195306D01*
X455656Y196431D01*
X454186Y197040D01*
D02*
G37*
G36*
X385206Y197000D02*
X383614D01*
X382144Y196391D01*
X381019Y195266D01*
X380410Y193796D01*
Y192204D01*
X381019Y190734D01*
X382144Y189609D01*
X383614Y189000D01*
X385206D01*
X386676Y189609D01*
X387801Y190734D01*
X388410Y192204D01*
Y193796D01*
X387801Y195266D01*
X386676Y196391D01*
X385206Y197000D01*
D02*
G37*
G36*
X405796Y196000D02*
X404204D01*
X402734Y195391D01*
X401609Y194266D01*
X401000Y192796D01*
Y191204D01*
X401609Y189734D01*
X402734Y188609D01*
X404204Y188000D01*
X405796D01*
X407266Y188609D01*
X408391Y189734D01*
X409000Y191204D01*
Y192796D01*
X408391Y194266D01*
X407266Y195391D01*
X405796Y196000D01*
D02*
G37*
G36*
X395796D02*
X394204D01*
X392734Y195391D01*
X391609Y194266D01*
X391000Y192796D01*
Y191204D01*
X391609Y189734D01*
X392734Y188609D01*
X394204Y188000D01*
X395796D01*
X397266Y188609D01*
X398391Y189734D01*
X399000Y191204D01*
Y192796D01*
X398391Y194266D01*
X397266Y195391D01*
X395796Y196000D01*
D02*
G37*
G36*
X325796Y195000D02*
X324204D01*
X322734Y194391D01*
X321609Y193266D01*
X321000Y191796D01*
Y190204D01*
X321609Y188734D01*
X322734Y187609D01*
X324204Y187000D01*
X325796D01*
X327266Y187609D01*
X328391Y188734D01*
X329000Y190204D01*
Y191796D01*
X328391Y193266D01*
X327266Y194391D01*
X325796Y195000D01*
D02*
G37*
G36*
X310796Y202000D02*
X309204D01*
X307734Y201391D01*
X306609Y200266D01*
X306000Y198796D01*
Y197204D01*
X306609Y195734D01*
X307734Y194609D01*
X309204Y194000D01*
X310796D01*
X311071Y194114D01*
X311791Y193038D01*
X311019Y192266D01*
X310410Y190796D01*
Y189204D01*
X311019Y187734D01*
X312144Y186609D01*
X313614Y186000D01*
X315206D01*
X316676Y186609D01*
X317801Y187734D01*
X318410Y189204D01*
Y190796D01*
X317801Y192266D01*
X316676Y193391D01*
X315206Y194000D01*
X313614D01*
X313339Y193886D01*
X312619Y194962D01*
X313391Y195734D01*
X314000Y197204D01*
Y198796D01*
X313391Y200266D01*
X312266Y201391D01*
X310796Y202000D01*
D02*
G37*
G36*
X558326Y189420D02*
X556734D01*
X555264Y188811D01*
X554139Y187686D01*
X553530Y186216D01*
Y184624D01*
X554139Y183154D01*
X555264Y182029D01*
X556734Y181420D01*
X558326D01*
X559796Y182029D01*
X560921Y183154D01*
X561530Y184624D01*
Y186216D01*
X560921Y187686D01*
X559796Y188811D01*
X558326Y189420D01*
D02*
G37*
G36*
X154466Y183070D02*
X152874D01*
X151404Y182461D01*
X150279Y181336D01*
X149670Y179866D01*
Y178274D01*
X150279Y176804D01*
X151404Y175679D01*
X152874Y175070D01*
X154466D01*
X155936Y175679D01*
X157061Y176804D01*
X157670Y178274D01*
Y179866D01*
X157061Y181336D01*
X155936Y182461D01*
X154466Y183070D01*
D02*
G37*
G36*
X132876Y180530D02*
X131284D01*
X129814Y179921D01*
X128689Y178796D01*
X128080Y177326D01*
Y175734D01*
X128689Y174264D01*
X129814Y173139D01*
X131284Y172530D01*
X132876D01*
X134346Y173139D01*
X135471Y174264D01*
X136080Y175734D01*
Y177326D01*
X135471Y178796D01*
X134346Y179921D01*
X132876Y180530D01*
D02*
G37*
G36*
X400846Y165290D02*
X399254D01*
X397784Y164681D01*
X396659Y163556D01*
X396050Y162086D01*
Y160494D01*
X396659Y159024D01*
X397784Y157899D01*
X399254Y157290D01*
X400846D01*
X402316Y157899D01*
X403441Y159024D01*
X404050Y160494D01*
Y162086D01*
X403441Y163556D01*
X402316Y164681D01*
X400846Y165290D01*
D02*
G37*
G36*
X339886Y157670D02*
X338294D01*
X336824Y157061D01*
X335699Y155936D01*
X335090Y154466D01*
Y152874D01*
X335699Y151404D01*
X336824Y150279D01*
X338294Y149670D01*
X339886D01*
X341356Y150279D01*
X342481Y151404D01*
X343090Y152874D01*
Y154466D01*
X342481Y155936D01*
X341356Y157061D01*
X339886Y157670D01*
D02*
G37*
G36*
X327796D02*
X326204D01*
X324734Y157061D01*
X323609Y155936D01*
X323000Y154466D01*
Y152874D01*
X323609Y151404D01*
X324734Y150279D01*
X326204Y149670D01*
X327796D01*
X329266Y150279D01*
X330391Y151404D01*
X331000Y152874D01*
Y154466D01*
X330391Y155936D01*
X329266Y157061D01*
X327796Y157670D01*
D02*
G37*
G36*
X423796Y146000D02*
X422204D01*
X420734Y145391D01*
X419609Y144266D01*
X419000Y142796D01*
Y141204D01*
X419609Y139734D01*
X420734Y138609D01*
X422204Y138000D01*
X423796D01*
X425266Y138609D01*
X426391Y139734D01*
X427000Y141204D01*
Y142796D01*
X426391Y144266D01*
X425266Y145391D01*
X423796Y146000D01*
D02*
G37*
G36*
X346236Y144970D02*
X344644D01*
X343174Y144361D01*
X342049Y143236D01*
X341440Y141766D01*
Y140174D01*
X342049Y138704D01*
X343174Y137579D01*
X344644Y136970D01*
X346236D01*
X347706Y137579D01*
X348831Y138704D01*
X349440Y140174D01*
Y141766D01*
X348831Y143236D01*
X347706Y144361D01*
X346236Y144970D01*
D02*
G37*
G36*
X309796Y144000D02*
X308204D01*
X306734Y143391D01*
X305609Y142266D01*
X305000Y140796D01*
Y139204D01*
X305609Y137734D01*
X306734Y136609D01*
X308204Y136000D01*
X309796D01*
X311266Y136609D01*
X312391Y137734D01*
X313000Y139204D01*
Y140796D01*
X312391Y142266D01*
X311266Y143391D01*
X309796Y144000D01*
D02*
G37*
G36*
X330996Y139890D02*
X329404D01*
X327934Y139281D01*
X326809Y138156D01*
X326200Y136686D01*
Y135094D01*
X326809Y133624D01*
X327934Y132499D01*
X329404Y131890D01*
X330996D01*
X332466Y132499D01*
X333591Y133624D01*
X334200Y135094D01*
Y136686D01*
X333591Y138156D01*
X332466Y139281D01*
X330996Y139890D01*
D02*
G37*
G36*
X356396Y136080D02*
X354804D01*
X353334Y135471D01*
X352209Y134346D01*
X351600Y132876D01*
Y131284D01*
X352209Y129814D01*
X353334Y128689D01*
X354804Y128080D01*
X356396D01*
X357866Y128689D01*
X358991Y129814D01*
X359600Y131284D01*
Y132876D01*
X358991Y134346D01*
X357866Y135471D01*
X356396Y136080D01*
D02*
G37*
G36*
X343696Y132270D02*
X342104D01*
X340634Y131661D01*
X339509Y130536D01*
X338900Y129066D01*
Y127474D01*
X339509Y126004D01*
X340634Y124879D01*
X342104Y124270D01*
X343696D01*
X345166Y124879D01*
X346291Y126004D01*
X346900Y127474D01*
Y129066D01*
X346291Y130536D01*
X345166Y131661D01*
X343696Y132270D01*
D02*
G37*
G36*
X360796Y121000D02*
X359204D01*
X357734Y120391D01*
X356609Y119266D01*
X356000Y117796D01*
Y116204D01*
X356609Y114734D01*
X357734Y113609D01*
X359204Y113000D01*
X360796D01*
X362266Y113609D01*
X363391Y114734D01*
X364000Y116204D01*
Y117796D01*
X363391Y119266D01*
X362266Y120391D01*
X360796Y121000D01*
D02*
G37*
G36*
X349796D02*
X348204D01*
X346734Y120391D01*
X345609Y119266D01*
X345000Y117796D01*
Y116204D01*
X345609Y114734D01*
X346734Y113609D01*
X348204Y113000D01*
X349796D01*
X351266Y113609D01*
X352391Y114734D01*
X353000Y116204D01*
Y117796D01*
X352391Y119266D01*
X351266Y120391D01*
X349796Y121000D01*
D02*
G37*
G36*
X464346Y113220D02*
X462754D01*
X461284Y112611D01*
X460159Y111486D01*
X459550Y110016D01*
Y108424D01*
X460159Y106954D01*
X461284Y105829D01*
X462754Y105220D01*
X464346D01*
X465816Y105829D01*
X466941Y106954D01*
X467550Y108424D01*
Y110016D01*
X466941Y111486D01*
X465816Y112611D01*
X464346Y113220D01*
D02*
G37*
G36*
X278926Y85280D02*
X277334D01*
X275864Y84671D01*
X274739Y83546D01*
X274130Y82076D01*
Y80484D01*
X274739Y79014D01*
X275864Y77889D01*
X277334Y77280D01*
X278926D01*
X280396Y77889D01*
X281521Y79014D01*
X281827Y79752D01*
X283194Y79735D01*
X283609Y78734D01*
X284734Y77609D01*
X286204Y77000D01*
X287796D01*
X289266Y77609D01*
X290391Y78734D01*
X291000Y80204D01*
Y81796D01*
X290391Y83266D01*
X289266Y84391D01*
X287796Y85000D01*
X286204D01*
X284734Y84391D01*
X283609Y83266D01*
X283303Y82528D01*
X281936Y82545D01*
X281521Y83546D01*
X280396Y84671D01*
X278926Y85280D01*
D02*
G37*
G36*
X318796Y84000D02*
X317204D01*
X315734Y83391D01*
X314609Y82266D01*
X314000Y80796D01*
Y79204D01*
X314609Y77734D01*
X315734Y76609D01*
X317204Y76000D01*
X318796D01*
X320266Y76609D01*
X321391Y77734D01*
X322000Y79204D01*
Y80796D01*
X321391Y82266D01*
X320266Y83391D01*
X318796Y84000D01*
D02*
G37*
G36*
X361476Y82740D02*
X359884D01*
X358414Y82131D01*
X357289Y81006D01*
X356680Y79536D01*
Y77944D01*
X357289Y76474D01*
X358414Y75349D01*
X359884Y74740D01*
X361476D01*
X362946Y75349D01*
X364071Y76474D01*
X364680Y77944D01*
Y79536D01*
X364071Y81006D01*
X362946Y82131D01*
X361476Y82740D01*
D02*
G37*
%LPD*%
D85*
X21590Y306070D02*
D03*
Y331470D02*
D03*
Y382270D02*
D03*
Y407670D02*
D03*
Y356870D02*
D03*
X596900Y476250D02*
D03*
Y501650D02*
D03*
D86*
X21590Y433070D02*
D03*
X596900Y527050D02*
D03*
D87*
X650000Y50000D02*
D03*
X651030Y500420D02*
D03*
X50000Y500000D02*
D03*
Y50000D02*
D03*
D88*
X521490Y522760D02*
D03*
X491490D02*
D03*
X521490Y492760D02*
D03*
X491490D02*
D03*
X461490D02*
D03*
D89*
Y522760D02*
D03*
D90*
X431800Y483870D02*
D03*
X551180D02*
D03*
D91*
X127500Y524270D02*
D03*
X190000D02*
D03*
D92*
X384810Y527050D02*
D03*
X334010D02*
D03*
X359410D02*
D03*
D93*
X646060Y429690D02*
D03*
Y388190D02*
D03*
X33020Y243840D02*
D03*
D94*
X348000Y363000D02*
D03*
X188722Y298196D02*
D03*
X325000Y316735D02*
D03*
X315760Y317908D02*
D03*
X307340Y299212D02*
D03*
X303500Y277876D02*
D03*
X267208Y250444D02*
D03*
X159000Y220000D02*
D03*
X299000Y263000D02*
D03*
X287000Y442000D02*
D03*
X675000Y341000D02*
D03*
X318000Y80000D02*
D03*
X287000Y81000D02*
D03*
X349000Y117000D02*
D03*
X360000D02*
D03*
X296000Y283000D02*
D03*
Y272000D02*
D03*
X535000Y409000D02*
D03*
X564000Y400000D02*
D03*
X444000Y325000D02*
D03*
X309000Y140000D02*
D03*
X267170Y302730D02*
D03*
X269000Y292000D02*
D03*
X354410Y342900D02*
D03*
X349410Y354904D02*
D03*
X329410Y350000D02*
D03*
X324000Y365000D02*
D03*
X334151Y361809D02*
D03*
X339410Y347000D02*
D03*
X457000Y226000D02*
D03*
X459000Y215000D02*
D03*
X418000Y212000D02*
D03*
X418365Y202365D02*
D03*
X405000Y192000D02*
D03*
X395000D02*
D03*
X379000Y205000D02*
D03*
X384410Y193000D02*
D03*
X389000Y209000D02*
D03*
X310000Y198000D02*
D03*
X325000Y191000D02*
D03*
X314410Y190000D02*
D03*
X320000Y199000D02*
D03*
X312664Y225764D02*
D03*
X321000Y221000D02*
D03*
X326390Y213360D02*
D03*
X299000Y294000D02*
D03*
X410000Y267000D02*
D03*
X409000Y279000D02*
D03*
X415000Y299000D02*
D03*
X409000Y290000D02*
D03*
X415000Y314000D02*
D03*
X421000Y257000D02*
D03*
X281000Y360000D02*
D03*
X300000Y228000D02*
D03*
X409205Y346795D02*
D03*
X436000Y354000D02*
D03*
X404000Y357000D02*
D03*
X397000Y347000D02*
D03*
X354330Y350266D02*
D03*
X258000Y297000D02*
D03*
X309000Y347000D02*
D03*
X328000Y262000D02*
D03*
X360680Y78740D02*
D03*
X372110Y400050D02*
D03*
X351790Y401320D02*
D03*
X361950Y400050D02*
D03*
X336550Y401320D02*
D03*
X400050Y161290D02*
D03*
X278130Y81280D02*
D03*
X386080Y414020D02*
D03*
X398780Y415290D02*
D03*
X453390Y193040D02*
D03*
X461010Y203200D02*
D03*
X501650Y267970D02*
D03*
X638810Y231140D02*
D03*
X565150Y259080D02*
D03*
X458470Y257810D02*
D03*
X459740Y271780D02*
D03*
X153670Y179070D02*
D03*
X132080Y176530D02*
D03*
X423000Y142000D02*
D03*
X316230Y207010D02*
D03*
X310110Y232984D02*
D03*
X557530Y185420D02*
D03*
Y201930D02*
D03*
X262890Y328930D02*
D03*
X554990Y226060D02*
D03*
X405130Y304800D02*
D03*
X299560Y242730D02*
D03*
X264400Y237620D02*
D03*
X327000Y153670D02*
D03*
X355600Y132080D02*
D03*
X342900Y128270D02*
D03*
X345440Y140970D02*
D03*
X339090Y153670D02*
D03*
X330200Y135890D02*
D03*
X458470Y246380D02*
D03*
X168910Y427990D02*
D03*
X256340Y413956D02*
D03*
X247650Y414020D02*
D03*
X374650Y497840D02*
D03*
X367030Y472440D02*
D03*
X570230Y361950D02*
D03*
X533307Y356865D02*
D03*
X182880Y505460D02*
D03*
X600710Y405130D02*
D03*
X513080Y403860D02*
D03*
X463550Y109220D02*
D03*
X109220Y302260D02*
D03*
X252730Y515620D02*
D03*
X587061Y285959D02*
D03*
X579120Y280670D02*
D03*
X565150Y440690D02*
D03*
X591820Y443230D02*
D03*
X617220Y438150D02*
D03*
X673100Y200660D02*
D03*
X630000Y70000D02*
D03*
X622500Y50000D02*
D03*
X630000Y30000D02*
D03*
X650000Y22500D02*
D03*
X670000Y30000D02*
D03*
X677500Y50000D02*
D03*
X670000Y70000D02*
D03*
X650000Y77500D02*
D03*
X630000Y520000D02*
D03*
X622500Y500000D02*
D03*
X630000Y480000D02*
D03*
X650000Y472500D02*
D03*
X670000Y480000D02*
D03*
X677500Y500000D02*
D03*
X670000Y520000D02*
D03*
X650000Y527500D02*
D03*
X50000D02*
D03*
X70000Y520000D02*
D03*
X77500Y500000D02*
D03*
X70000Y480000D02*
D03*
X50000Y472500D02*
D03*
X30000Y480000D02*
D03*
X22500Y500000D02*
D03*
X30000Y520000D02*
D03*
X50000Y77500D02*
D03*
X70000Y70000D02*
D03*
X77500Y50000D02*
D03*
X70000Y30000D02*
D03*
X50000Y22500D02*
D03*
X30000Y30000D02*
D03*
X22500Y50000D02*
D03*
X30000Y70000D02*
D03*
M02*
