G04*
G04 #@! TF.GenerationSoftware,Altium Limited,Altium Designer,24.3.1 (35)*
G04*
G04 Layer_Physical_Order=2*
G04 Layer_Color=36540*
%FSLAX44Y44*%
%MOMM*%
G71*
G04*
G04 #@! TF.SameCoordinates,322CD918-2172-4AA8-915D-2EDBC1309AB6*
G04*
G04*
G04 #@! TF.FilePolarity,Positive*
G04*
G01*
G75*
%ADD85C,1.6000*%
G04:AMPARAMS|DCode=86|XSize=1.6mm|YSize=1.6mm|CornerRadius=0.4mm|HoleSize=0mm|Usage=FLASHONLY|Rotation=270.000|XOffset=0mm|YOffset=0mm|HoleType=Round|Shape=RoundedRectangle|*
%AMROUNDEDRECTD86*
21,1,1.6000,0.8000,0,0,270.0*
21,1,0.8000,1.6000,0,0,270.0*
1,1,0.8000,-0.4000,-0.4000*
1,1,0.8000,-0.4000,0.4000*
1,1,0.8000,0.4000,0.4000*
1,1,0.8000,0.4000,-0.4000*
%
%ADD86ROUNDEDRECTD86*%
%ADD87C,7.0000*%
%ADD88C,2.0000*%
G04:AMPARAMS|DCode=89|XSize=2mm|YSize=2mm|CornerRadius=0.5mm|HoleSize=0mm|Usage=FLASHONLY|Rotation=270.000|XOffset=0mm|YOffset=0mm|HoleType=Round|Shape=RoundedRectangle|*
%AMROUNDEDRECTD89*
21,1,2.0000,1.0000,0,0,270.0*
21,1,1.0000,2.0000,0,0,270.0*
1,1,1.0000,-0.5000,-0.5000*
1,1,1.0000,-0.5000,0.5000*
1,1,1.0000,0.5000,0.5000*
1,1,1.0000,0.5000,-0.5000*
%
%ADD89ROUNDEDRECTD89*%
%ADD90C,1.2000*%
%ADD91C,1.3000*%
%ADD92C,1.5000*%
%ADD93C,0.7000*%
%ADD94C,0.5000*%
G36*
X650000Y550000D02*
X653277D01*
X659775Y549144D01*
X666106Y547448D01*
X672162Y544940D01*
X677838Y541663D01*
X683038Y537673D01*
X687673Y533038D01*
X691663Y527838D01*
X694940Y522162D01*
X697448Y516106D01*
X699144Y509775D01*
X700000Y503277D01*
Y500000D01*
X700000Y500000D01*
X700000Y500000D01*
X700000Y50000D01*
Y46723D01*
X699144Y40224D01*
X697448Y33893D01*
X694940Y27838D01*
X691663Y22162D01*
X687673Y16962D01*
X683038Y12327D01*
X677838Y8337D01*
X672162Y5060D01*
X666106Y2552D01*
X659775Y856D01*
X653277Y0D01*
X650000Y0D01*
X50000Y0D01*
X46723D01*
X40224Y856D01*
X33893Y2552D01*
X27838Y5060D01*
X22162Y8337D01*
X16962Y12327D01*
X12327Y16962D01*
X8337Y22162D01*
X5060Y27838D01*
X2552Y33893D01*
X856Y40224D01*
X0Y46723D01*
X0Y50000D01*
X0Y500000D01*
Y503277D01*
X856Y509775D01*
X2552Y516106D01*
X5060Y522162D01*
X8337Y527838D01*
X12327Y533038D01*
X16962Y537673D01*
X22162Y541663D01*
X27838Y544940D01*
X33893Y547448D01*
X40224Y549144D01*
X46723Y550000D01*
X50000D01*
X50000Y550000D01*
X650000Y550000D01*
D02*
G37*
%LPC*%
G36*
X384810Y536128D02*
X382461Y535818D01*
X380271Y534911D01*
X378391Y533469D01*
X376949Y531589D01*
X376042Y529399D01*
X375732Y527050D01*
X376042Y524701D01*
X376949Y522511D01*
X378391Y520631D01*
X380271Y519188D01*
X382461Y518282D01*
X384810Y517972D01*
X387160Y518282D01*
X389349Y519188D01*
X391229Y520631D01*
X392672Y522511D01*
X393578Y524701D01*
X393888Y527050D01*
X393578Y529399D01*
X392672Y531589D01*
X391229Y533469D01*
X389349Y534911D01*
X387160Y535818D01*
X384810Y536128D01*
D02*
G37*
G36*
X334010D02*
X331660Y535818D01*
X329471Y534911D01*
X327591Y533469D01*
X326148Y531589D01*
X325242Y529399D01*
X324932Y527050D01*
X325242Y524701D01*
X326148Y522511D01*
X327591Y520631D01*
X329471Y519188D01*
X331660Y518282D01*
X334010Y517972D01*
X336359Y518282D01*
X338549Y519188D01*
X340429Y520631D01*
X341871Y522511D01*
X342778Y524701D01*
X343088Y527050D01*
X342778Y529399D01*
X341871Y531589D01*
X340429Y533469D01*
X338549Y534911D01*
X336359Y535818D01*
X334010Y536128D01*
D02*
G37*
G36*
X600900Y536658D02*
X592900D01*
X590754Y536231D01*
X588935Y535015D01*
X587719Y533196D01*
X587292Y531050D01*
Y523050D01*
X587719Y520904D01*
X588935Y519085D01*
X590754Y517869D01*
X592900Y517442D01*
X600900D01*
X603046Y517869D01*
X604865Y519085D01*
X606081Y520904D01*
X606508Y523050D01*
Y531050D01*
X606081Y533196D01*
X604865Y535015D01*
X603046Y536231D01*
X600900Y536658D01*
D02*
G37*
G36*
X190000Y532339D02*
X187912Y532064D01*
X185965Y531258D01*
X184294Y529976D01*
X183012Y528304D01*
X182206Y526358D01*
X181931Y524270D01*
X182206Y522182D01*
X183012Y520235D01*
X184294Y518564D01*
X185965Y517282D01*
X187912Y516476D01*
X190000Y516201D01*
X192088Y516476D01*
X194035Y517282D01*
X195706Y518564D01*
X196988Y520235D01*
X197794Y522182D01*
X198069Y524270D01*
X197794Y526358D01*
X196988Y528304D01*
X195706Y529976D01*
X194035Y531258D01*
X192088Y532064D01*
X190000Y532339D01*
D02*
G37*
G36*
X127500D02*
X125412Y532064D01*
X123465Y531258D01*
X121794Y529976D01*
X120512Y528304D01*
X119706Y526358D01*
X119431Y524270D01*
X119706Y522182D01*
X120512Y520235D01*
X121794Y518564D01*
X123465Y517282D01*
X125412Y516476D01*
X127500Y516201D01*
X129588Y516476D01*
X131535Y517282D01*
X133206Y518564D01*
X134488Y520235D01*
X135294Y522182D01*
X135569Y524270D01*
X135294Y526358D01*
X134488Y528304D01*
X133206Y529976D01*
X131535Y531258D01*
X129588Y532064D01*
X127500Y532339D01*
D02*
G37*
G36*
X252730Y519698D02*
X251169Y519388D01*
X249846Y518504D01*
X248962Y517181D01*
X248652Y515620D01*
X248962Y514059D01*
X249846Y512736D01*
X251169Y511852D01*
X252730Y511542D01*
X254291Y511852D01*
X255614Y512736D01*
X256498Y514059D01*
X256808Y515620D01*
X256498Y517181D01*
X255614Y518504D01*
X254291Y519388D01*
X252730Y519698D01*
D02*
G37*
G36*
X466490Y534316D02*
X456490D01*
X454793Y534093D01*
X453212Y533438D01*
X451854Y532396D01*
X450812Y531038D01*
X450157Y529457D01*
X449934Y527760D01*
Y517760D01*
X450157Y516063D01*
X450812Y514482D01*
X451854Y513124D01*
X453212Y512082D01*
X454793Y511427D01*
X456490Y511204D01*
X466490D01*
X468187Y511427D01*
X469768Y512082D01*
X471126Y513124D01*
X472168Y514482D01*
X472823Y516063D01*
X473046Y517760D01*
Y527760D01*
X472823Y529457D01*
X472168Y531038D01*
X471126Y532396D01*
X469768Y533438D01*
X468187Y534093D01*
X466490Y534316D01*
D02*
G37*
G36*
X521490Y534359D02*
X518488Y533964D01*
X515690Y532805D01*
X513288Y530962D01*
X511445Y528560D01*
X510286Y525762D01*
X509891Y522760D01*
X510286Y519758D01*
X511445Y516960D01*
X513288Y514558D01*
X515690Y512715D01*
X518488Y511556D01*
X521490Y511161D01*
X524492Y511556D01*
X527290Y512715D01*
X529692Y514558D01*
X531535Y516960D01*
X532694Y519758D01*
X533089Y522760D01*
X532694Y525762D01*
X531535Y528560D01*
X529692Y530962D01*
X527290Y532805D01*
X524492Y533964D01*
X521490Y534359D01*
D02*
G37*
G36*
X491490D02*
X488488Y533964D01*
X485690Y532805D01*
X483288Y530962D01*
X481445Y528560D01*
X480286Y525762D01*
X479891Y522760D01*
X480286Y519758D01*
X481445Y516960D01*
X483288Y514558D01*
X485690Y512715D01*
X488488Y511556D01*
X491490Y511161D01*
X494492Y511556D01*
X497290Y512715D01*
X499692Y514558D01*
X501535Y516960D01*
X502694Y519758D01*
X503089Y522760D01*
X502694Y525762D01*
X501535Y528560D01*
X499692Y530962D01*
X497290Y532805D01*
X494492Y533964D01*
X491490Y534359D01*
D02*
G37*
G36*
X182880Y509538D02*
X181319Y509228D01*
X179996Y508344D01*
X179112Y507021D01*
X178802Y505460D01*
X179112Y503899D01*
X179996Y502576D01*
X181319Y501692D01*
X182880Y501382D01*
X184441Y501692D01*
X185764Y502576D01*
X186648Y503899D01*
X186958Y505460D01*
X186648Y507021D01*
X185764Y508344D01*
X184441Y509228D01*
X182880Y509538D01*
D02*
G37*
G36*
X374650Y501918D02*
X373089Y501608D01*
X371766Y500724D01*
X370882Y499401D01*
X370572Y497840D01*
X370882Y496279D01*
X371766Y494956D01*
X373089Y494072D01*
X374650Y493762D01*
X376211Y494072D01*
X377534Y494956D01*
X378418Y496279D01*
X378728Y497840D01*
X378418Y499401D01*
X377534Y500724D01*
X376211Y501608D01*
X374650Y501918D01*
D02*
G37*
G36*
X596900Y511232D02*
X594420Y510905D01*
X592109Y509948D01*
X590125Y508425D01*
X588602Y506441D01*
X587645Y504130D01*
X587318Y501650D01*
X587645Y499170D01*
X588602Y496859D01*
X590125Y494874D01*
X592109Y493352D01*
X594420Y492394D01*
X596900Y492068D01*
X599380Y492394D01*
X601691Y493352D01*
X603675Y494874D01*
X605198Y496859D01*
X606156Y499170D01*
X606482Y501650D01*
X606156Y504130D01*
X605198Y506441D01*
X603675Y508425D01*
X601691Y509948D01*
X599380Y510905D01*
X596900Y511232D01*
D02*
G37*
G36*
X491490Y504359D02*
X488488Y503964D01*
X485690Y502805D01*
X483288Y500962D01*
X481445Y498560D01*
X480286Y495762D01*
X479891Y492760D01*
X480286Y489758D01*
X481445Y486960D01*
X483288Y484558D01*
X485690Y482715D01*
X488488Y481556D01*
X491490Y481161D01*
X494492Y481556D01*
X497290Y482715D01*
X499692Y484558D01*
X501535Y486960D01*
X502694Y489758D01*
X503089Y492760D01*
X502694Y495762D01*
X501535Y498560D01*
X499692Y500962D01*
X497290Y502805D01*
X494492Y503964D01*
X491490Y504359D01*
D02*
G37*
G36*
X461490D02*
X458488Y503964D01*
X455690Y502805D01*
X453288Y500962D01*
X451445Y498560D01*
X450286Y495762D01*
X449891Y492760D01*
X450286Y489758D01*
X451445Y486960D01*
X453288Y484558D01*
X455690Y482715D01*
X458488Y481556D01*
X461490Y481161D01*
X464492Y481556D01*
X467290Y482715D01*
X469692Y484558D01*
X471535Y486960D01*
X472694Y489758D01*
X473089Y492760D01*
X472694Y495762D01*
X471535Y498560D01*
X469692Y500962D01*
X467290Y502805D01*
X464492Y503964D01*
X461490Y504359D01*
D02*
G37*
G36*
X551180Y491435D02*
X549222Y491177D01*
X547398Y490421D01*
X545831Y489219D01*
X544629Y487652D01*
X543873Y485828D01*
X543615Y483870D01*
X543873Y481912D01*
X544629Y480088D01*
X545831Y478521D01*
X547398Y477319D01*
X549222Y476563D01*
X551180Y476305D01*
X553138Y476563D01*
X554962Y477319D01*
X556529Y478521D01*
X557731Y480088D01*
X558487Y481912D01*
X558745Y483870D01*
X558487Y485828D01*
X557731Y487652D01*
X556529Y489219D01*
X554962Y490421D01*
X553138Y491177D01*
X551180Y491435D01*
D02*
G37*
G36*
X431800D02*
X429842Y491177D01*
X428018Y490421D01*
X426451Y489219D01*
X425249Y487652D01*
X424493Y485828D01*
X424235Y483870D01*
X424493Y481912D01*
X425249Y480088D01*
X426451Y478521D01*
X428018Y477319D01*
X429842Y476563D01*
X431800Y476305D01*
X433758Y476563D01*
X435582Y477319D01*
X437149Y478521D01*
X438351Y480088D01*
X439107Y481912D01*
X439365Y483870D01*
X439107Y485828D01*
X438351Y487652D01*
X437149Y489219D01*
X435582Y490421D01*
X433758Y491177D01*
X431800Y491435D01*
D02*
G37*
G36*
X367030Y476518D02*
X365469Y476208D01*
X364146Y475324D01*
X363262Y474001D01*
X362952Y472440D01*
X363262Y470879D01*
X364146Y469556D01*
X365469Y468672D01*
X367030Y468362D01*
X368591Y468672D01*
X369914Y469556D01*
X370798Y470879D01*
X371108Y472440D01*
X370798Y474001D01*
X369914Y475324D01*
X368591Y476208D01*
X367030Y476518D01*
D02*
G37*
G36*
X596900Y485832D02*
X594420Y485505D01*
X592109Y484548D01*
X590125Y483025D01*
X588602Y481041D01*
X587645Y478730D01*
X587318Y476250D01*
X587645Y473770D01*
X588602Y471459D01*
X590125Y469474D01*
X592109Y467952D01*
X594420Y466995D01*
X596900Y466668D01*
X599380Y466995D01*
X601691Y467952D01*
X603675Y469474D01*
X605198Y471459D01*
X606156Y473770D01*
X606482Y476250D01*
X606156Y478730D01*
X605198Y481041D01*
X603675Y483025D01*
X601691Y484548D01*
X599380Y485505D01*
X596900Y485832D01*
D02*
G37*
G36*
X487680Y454928D02*
X486119Y454618D01*
X484796Y453734D01*
X483912Y452411D01*
X483602Y450850D01*
X483912Y449289D01*
X484796Y447966D01*
X486119Y447082D01*
X487680Y446772D01*
X489241Y447082D01*
X490564Y447966D01*
X491448Y449289D01*
X491758Y450850D01*
X491448Y452411D01*
X490564Y453734D01*
X489241Y454618D01*
X487680Y454928D01*
D02*
G37*
G36*
X591820Y447308D02*
X590259Y446998D01*
X588936Y446114D01*
X588052Y444791D01*
X587742Y443230D01*
X588052Y441669D01*
X588936Y440346D01*
X590259Y439462D01*
X591820Y439152D01*
X593381Y439462D01*
X594704Y440346D01*
X595588Y441669D01*
X595898Y443230D01*
X595588Y444791D01*
X594704Y446114D01*
X593381Y446998D01*
X591820Y447308D01*
D02*
G37*
G36*
X565150Y444768D02*
X563589Y444458D01*
X562266Y443574D01*
X561382Y442251D01*
X561072Y440690D01*
X561382Y439129D01*
X562266Y437806D01*
X563589Y436922D01*
X565150Y436612D01*
X566711Y436922D01*
X568034Y437806D01*
X568918Y439129D01*
X569228Y440690D01*
X568918Y442251D01*
X568034Y443574D01*
X566711Y444458D01*
X565150Y444768D01*
D02*
G37*
G36*
X302260D02*
X300699Y444458D01*
X299376Y443574D01*
X298492Y442251D01*
X298182Y440690D01*
X298492Y439129D01*
X299376Y437806D01*
X300699Y436922D01*
X302260Y436612D01*
X303821Y436922D01*
X305144Y437806D01*
X306028Y439129D01*
X306338Y440690D01*
X306028Y442251D01*
X305144Y443574D01*
X303821Y444458D01*
X302260Y444768D01*
D02*
G37*
G36*
X617220Y442228D02*
X615659Y441918D01*
X614336Y441034D01*
X613452Y439711D01*
X613142Y438150D01*
X613452Y436589D01*
X614336Y435266D01*
X615659Y434382D01*
X617220Y434072D01*
X618781Y434382D01*
X620104Y435266D01*
X620988Y436589D01*
X621298Y438150D01*
X620988Y439711D01*
X620104Y441034D01*
X618781Y441918D01*
X617220Y442228D01*
D02*
G37*
G36*
X646060Y434788D02*
X644109Y434400D01*
X642455Y433295D01*
X641350Y431641D01*
X640962Y429690D01*
X641350Y427739D01*
X642455Y426085D01*
X644109Y424980D01*
X646060Y424592D01*
X648011Y424980D01*
X649665Y426085D01*
X650770Y427739D01*
X651158Y429690D01*
X650770Y431641D01*
X649665Y433295D01*
X648011Y434400D01*
X646060Y434788D01*
D02*
G37*
G36*
X168910Y432068D02*
X167349Y431758D01*
X166026Y430874D01*
X165142Y429551D01*
X164832Y427990D01*
X165142Y426429D01*
X166026Y425106D01*
X167349Y424222D01*
X168910Y423912D01*
X170471Y424222D01*
X171794Y425106D01*
X172678Y426429D01*
X172988Y427990D01*
X172678Y429551D01*
X171794Y430874D01*
X170471Y431758D01*
X168910Y432068D01*
D02*
G37*
G36*
X25590Y442678D02*
X17590D01*
X15444Y442251D01*
X13625Y441035D01*
X12409Y439216D01*
X11982Y437070D01*
Y429070D01*
X12409Y426924D01*
X13625Y425105D01*
X15444Y423889D01*
X17590Y423462D01*
X25590D01*
X27736Y423889D01*
X29555Y425105D01*
X30771Y426924D01*
X31198Y429070D01*
Y437070D01*
X30771Y439216D01*
X29555Y441035D01*
X27736Y442251D01*
X25590Y442678D01*
D02*
G37*
G36*
X398780Y419368D02*
X397219Y419058D01*
X395896Y418174D01*
X395012Y416851D01*
X394702Y415290D01*
X395012Y413729D01*
X395896Y412406D01*
X397219Y411522D01*
X398780Y411212D01*
X400341Y411522D01*
X401664Y412406D01*
X402548Y413729D01*
X402858Y415290D01*
X402548Y416851D01*
X401664Y418174D01*
X400341Y419058D01*
X398780Y419368D01*
D02*
G37*
G36*
X386080Y418098D02*
X384519Y417788D01*
X383196Y416904D01*
X382312Y415581D01*
X382002Y414020D01*
X382312Y412459D01*
X383196Y411136D01*
X384519Y410252D01*
X386080Y409942D01*
X387641Y410252D01*
X388964Y411136D01*
X389848Y412459D01*
X390158Y414020D01*
X389848Y415581D01*
X388964Y416904D01*
X387641Y417788D01*
X386080Y418098D01*
D02*
G37*
G36*
X247650D02*
X246089Y417788D01*
X244766Y416904D01*
X243882Y415581D01*
X243572Y414020D01*
X243882Y412459D01*
X244766Y411136D01*
X246089Y410252D01*
X247650Y409942D01*
X249211Y410252D01*
X250534Y411136D01*
X251300Y412283D01*
X252065Y412350D01*
X252671Y412248D01*
X253456Y411072D01*
X254780Y410188D01*
X256340Y409877D01*
X257901Y410188D01*
X259224Y411072D01*
X260108Y412395D01*
X260419Y413956D01*
X260108Y415516D01*
X259224Y416839D01*
X257901Y417724D01*
X256340Y418034D01*
X254780Y417724D01*
X253456Y416839D01*
X252691Y415693D01*
X251926Y415625D01*
X251320Y415728D01*
X250534Y416904D01*
X249211Y417788D01*
X247650Y418098D01*
D02*
G37*
G36*
X600710Y409208D02*
X599149Y408898D01*
X597826Y408014D01*
X596942Y406691D01*
X596632Y405130D01*
X596942Y403569D01*
X597826Y402246D01*
X599149Y401362D01*
X600710Y401052D01*
X602271Y401362D01*
X603594Y402246D01*
X604478Y403569D01*
X604788Y405130D01*
X604478Y406691D01*
X603594Y408014D01*
X602271Y408898D01*
X600710Y409208D01*
D02*
G37*
G36*
X589280Y407938D02*
X587719Y407628D01*
X586396Y406744D01*
X585512Y405421D01*
X585202Y403860D01*
X585512Y402299D01*
X586396Y400976D01*
X587719Y400092D01*
X589280Y399782D01*
X590841Y400092D01*
X592164Y400976D01*
X593048Y402299D01*
X593358Y403860D01*
X593048Y405421D01*
X592164Y406744D01*
X590841Y407628D01*
X589280Y407938D01*
D02*
G37*
G36*
X513080D02*
X511519Y407628D01*
X510196Y406744D01*
X509312Y405421D01*
X509002Y403860D01*
X509312Y402299D01*
X510196Y400976D01*
X511519Y400092D01*
X513080Y399782D01*
X514641Y400092D01*
X515964Y400976D01*
X516848Y402299D01*
X517158Y403860D01*
X516848Y405421D01*
X515964Y406744D01*
X514641Y407628D01*
X513080Y407938D01*
D02*
G37*
G36*
X21590Y417252D02*
X19110Y416926D01*
X16799Y415968D01*
X14815Y414445D01*
X13292Y412461D01*
X12335Y410150D01*
X12008Y407670D01*
X12335Y405190D01*
X13292Y402879D01*
X14815Y400895D01*
X16799Y399372D01*
X19110Y398414D01*
X21590Y398088D01*
X24070Y398414D01*
X26381Y399372D01*
X28365Y400895D01*
X29888Y402879D01*
X30845Y405190D01*
X31172Y407670D01*
X30845Y410150D01*
X29888Y412461D01*
X28365Y414445D01*
X26381Y415968D01*
X24070Y416926D01*
X21590Y417252D01*
D02*
G37*
G36*
X351790Y405398D02*
X350229Y405088D01*
X348906Y404204D01*
X348022Y402881D01*
X347712Y401320D01*
X348022Y399759D01*
X348906Y398436D01*
X350229Y397552D01*
X351790Y397242D01*
X353351Y397552D01*
X354674Y398436D01*
X355558Y399759D01*
X355868Y401320D01*
X355558Y402881D01*
X354674Y404204D01*
X353351Y405088D01*
X351790Y405398D01*
D02*
G37*
G36*
X336550D02*
X334989Y405088D01*
X333666Y404204D01*
X332782Y402881D01*
X332472Y401320D01*
X332782Y399759D01*
X333666Y398436D01*
X334989Y397552D01*
X336550Y397242D01*
X338111Y397552D01*
X339434Y398436D01*
X340318Y399759D01*
X340628Y401320D01*
X340318Y402881D01*
X339434Y404204D01*
X338111Y405088D01*
X336550Y405398D01*
D02*
G37*
G36*
X372110Y404128D02*
X370549Y403818D01*
X369226Y402934D01*
X368342Y401611D01*
X368032Y400050D01*
X368342Y398489D01*
X369226Y397166D01*
X370549Y396282D01*
X372110Y395972D01*
X373671Y396282D01*
X374994Y397166D01*
X375878Y398489D01*
X376188Y400050D01*
X375878Y401611D01*
X374994Y402934D01*
X373671Y403818D01*
X372110Y404128D01*
D02*
G37*
G36*
X361950D02*
X360389Y403818D01*
X359066Y402934D01*
X358182Y401611D01*
X357872Y400050D01*
X358182Y398489D01*
X359066Y397166D01*
X360389Y396282D01*
X361950Y395972D01*
X363511Y396282D01*
X364834Y397166D01*
X365718Y398489D01*
X366028Y400050D01*
X365718Y401611D01*
X364834Y402934D01*
X363511Y403818D01*
X361950Y404128D01*
D02*
G37*
G36*
X646060Y393288D02*
X644109Y392900D01*
X642455Y391795D01*
X641350Y390141D01*
X640962Y388190D01*
X641350Y386239D01*
X642455Y384585D01*
X644109Y383480D01*
X646060Y383092D01*
X648011Y383480D01*
X649665Y384585D01*
X650770Y386239D01*
X651158Y388190D01*
X650770Y390141D01*
X649665Y391795D01*
X648011Y392900D01*
X646060Y393288D01*
D02*
G37*
G36*
X261620Y376188D02*
X260059Y375878D01*
X258736Y374994D01*
X257852Y373671D01*
X257542Y372110D01*
X257852Y370549D01*
X258736Y369226D01*
X260059Y368342D01*
X261620Y368032D01*
X263181Y368342D01*
X264504Y369226D01*
X265388Y370549D01*
X265698Y372110D01*
X265388Y373671D01*
X264504Y374994D01*
X263181Y375878D01*
X261620Y376188D01*
D02*
G37*
G36*
X350159Y367659D02*
X348599Y367348D01*
X347276Y366464D01*
X346493Y365292D01*
X345724Y365177D01*
X345111Y365211D01*
X344514Y366104D01*
X343191Y366988D01*
X341630Y367298D01*
X340069Y366988D01*
X338746Y366104D01*
X338088Y365118D01*
X336975Y364959D01*
X336618Y365031D01*
X336461Y365266D01*
X335138Y366151D01*
X333577Y366461D01*
X332017Y366151D01*
X330694Y365266D01*
X329809Y363943D01*
X329499Y362383D01*
X329809Y360822D01*
X330694Y359499D01*
X332017Y358615D01*
X333577Y358304D01*
X335138Y358615D01*
X336461Y359499D01*
X337120Y360484D01*
X338232Y360643D01*
X338589Y360571D01*
X338746Y360336D01*
X340069Y359452D01*
X341630Y359142D01*
X343191Y359452D01*
X344514Y360336D01*
X345297Y361508D01*
X346065Y361623D01*
X346679Y361590D01*
X347276Y360697D01*
X348053Y360177D01*
X347784Y358829D01*
X346993Y358672D01*
X345670Y357788D01*
X344786Y356465D01*
X344476Y354904D01*
X344786Y353343D01*
X345670Y352020D01*
X346993Y351136D01*
X348554Y350826D01*
X350115Y351136D01*
X351438Y352020D01*
X352322Y353343D01*
X352632Y354904D01*
X352322Y356465D01*
X351438Y357788D01*
X350661Y358307D01*
X350929Y359655D01*
X351720Y359813D01*
X353043Y360697D01*
X353927Y362020D01*
X354238Y363581D01*
X353927Y365141D01*
X353043Y366464D01*
X351720Y367348D01*
X350159Y367659D01*
D02*
G37*
G36*
X324410Y371818D02*
X322849Y371508D01*
X321526Y370624D01*
X320642Y369301D01*
X320332Y367740D01*
X320642Y366179D01*
X321526Y364856D01*
X322849Y363972D01*
X324410Y363662D01*
X325971Y363972D01*
X327294Y364856D01*
X328178Y366179D01*
X328488Y367740D01*
X328178Y369301D01*
X327294Y370624D01*
X325971Y371508D01*
X324410Y371818D01*
D02*
G37*
G36*
X421640Y369838D02*
X420079Y369528D01*
X418756Y368644D01*
X417872Y367321D01*
X417562Y365760D01*
X417872Y364199D01*
X418756Y362876D01*
X420079Y361992D01*
X421640Y361682D01*
X423201Y361992D01*
X424524Y362876D01*
X425408Y364199D01*
X425718Y365760D01*
X425408Y367321D01*
X424524Y368644D01*
X423201Y369528D01*
X421640Y369838D01*
D02*
G37*
G36*
X435610Y368568D02*
X434049Y368258D01*
X432726Y367374D01*
X431842Y366051D01*
X431532Y364490D01*
X431842Y362929D01*
X432726Y361606D01*
X434049Y360722D01*
X435610Y360412D01*
X437171Y360722D01*
X438494Y361606D01*
X439378Y362929D01*
X439688Y364490D01*
X439378Y366051D01*
X438494Y367374D01*
X437171Y368258D01*
X435610Y368568D01*
D02*
G37*
G36*
X410210D02*
X408649Y368258D01*
X407326Y367374D01*
X406442Y366051D01*
X406132Y364490D01*
X406442Y362929D01*
X407326Y361606D01*
X408649Y360722D01*
X410210Y360412D01*
X411771Y360722D01*
X413094Y361606D01*
X413978Y362929D01*
X414288Y364490D01*
X413978Y366051D01*
X413094Y367374D01*
X411771Y368258D01*
X410210Y368568D01*
D02*
G37*
G36*
X400050Y367298D02*
X398489Y366988D01*
X397166Y366104D01*
X396282Y364781D01*
X395972Y363220D01*
X396282Y361659D01*
X397166Y360336D01*
X398489Y359452D01*
X400050Y359142D01*
X401611Y359452D01*
X402934Y360336D01*
X403818Y361659D01*
X404128Y363220D01*
X403818Y364781D01*
X402934Y366104D01*
X401611Y366988D01*
X400050Y367298D01*
D02*
G37*
G36*
X570230Y366028D02*
X568669Y365718D01*
X567346Y364834D01*
X566462Y363511D01*
X566152Y361950D01*
X566462Y360389D01*
X567346Y359066D01*
X568669Y358182D01*
X570230Y357872D01*
X571791Y358182D01*
X573114Y359066D01*
X573998Y360389D01*
X574308Y361950D01*
X573998Y363511D01*
X573114Y364834D01*
X571791Y365718D01*
X570230Y366028D01*
D02*
G37*
G36*
X533307Y360943D02*
X531747Y360633D01*
X530424Y359749D01*
X529539Y358426D01*
X529229Y356865D01*
X529539Y355304D01*
X530424Y353981D01*
X531747Y353097D01*
X533307Y352787D01*
X534868Y353097D01*
X536191Y353981D01*
X537075Y355304D01*
X537386Y356865D01*
X537075Y358426D01*
X536191Y359749D01*
X534868Y360633D01*
X533307Y360943D01*
D02*
G37*
G36*
X21590Y366452D02*
X19110Y366125D01*
X16799Y365168D01*
X14815Y363645D01*
X13292Y361661D01*
X12335Y359350D01*
X12008Y356870D01*
X12335Y354390D01*
X13292Y352079D01*
X14815Y350094D01*
X16799Y348572D01*
X19110Y347615D01*
X21590Y347288D01*
X24070Y347615D01*
X26381Y348572D01*
X28365Y350094D01*
X29888Y352079D01*
X30845Y354390D01*
X31172Y356870D01*
X30845Y359350D01*
X29888Y361661D01*
X28365Y363645D01*
X26381Y365168D01*
X24070Y366125D01*
X21590Y366452D01*
D02*
G37*
G36*
X327410Y354178D02*
X325849Y353867D01*
X324526Y352983D01*
X323642Y351660D01*
X323332Y350099D01*
X323642Y348539D01*
X324526Y347216D01*
X325849Y346332D01*
X327410Y346021D01*
X328971Y346332D01*
X330294Y347216D01*
X331178Y348539D01*
X331488Y350099D01*
X331178Y351660D01*
X330294Y352983D01*
X328971Y353867D01*
X327410Y354178D01*
D02*
G37*
G36*
X311977Y348194D02*
X310416Y347884D01*
X309093Y347000D01*
X308209Y345676D01*
X307898Y344116D01*
X308209Y342555D01*
X309093Y341232D01*
X310416Y340348D01*
X311977Y340037D01*
X313538Y340348D01*
X314861Y341232D01*
X315745Y342555D01*
X316055Y344116D01*
X315745Y345676D01*
X314861Y347000D01*
X313538Y347884D01*
X311977Y348194D01*
D02*
G37*
G36*
X354330Y346978D02*
X352769Y346668D01*
X351446Y345784D01*
X350562Y344461D01*
X350252Y342900D01*
X350562Y341339D01*
X351446Y340016D01*
X352769Y339132D01*
X354330Y338822D01*
X355891Y339132D01*
X357214Y340016D01*
X358098Y341339D01*
X358408Y342900D01*
X358098Y344461D01*
X357214Y345784D01*
X355891Y346668D01*
X354330Y346978D01*
D02*
G37*
G36*
X674370Y345708D02*
X672809Y345398D01*
X671486Y344514D01*
X670602Y343191D01*
X670292Y341630D01*
X670602Y340069D01*
X671486Y338746D01*
X672809Y337862D01*
X674370Y337552D01*
X675931Y337862D01*
X677254Y338746D01*
X678138Y340069D01*
X678448Y341630D01*
X678138Y343191D01*
X677254Y344514D01*
X675931Y345398D01*
X674370Y345708D01*
D02*
G37*
G36*
X262890Y333008D02*
X261329Y332698D01*
X260006Y331814D01*
X259122Y330491D01*
X258812Y328930D01*
X259122Y327369D01*
X260006Y326046D01*
X261329Y325162D01*
X262890Y324852D01*
X264451Y325162D01*
X265774Y326046D01*
X266658Y327369D01*
X266968Y328930D01*
X266658Y330491D01*
X265774Y331814D01*
X264451Y332698D01*
X262890Y333008D01*
D02*
G37*
G36*
X445770Y331738D02*
X444209Y331428D01*
X442886Y330544D01*
X442002Y329221D01*
X441692Y327660D01*
X442002Y326099D01*
X442886Y324776D01*
X444209Y323892D01*
X445770Y323582D01*
X447331Y323892D01*
X448654Y324776D01*
X449538Y326099D01*
X449848Y327660D01*
X449538Y329221D01*
X448654Y330544D01*
X447331Y331428D01*
X445770Y331738D01*
D02*
G37*
G36*
X21590Y341052D02*
X19110Y340726D01*
X16799Y339768D01*
X14815Y338246D01*
X13292Y336261D01*
X12335Y333950D01*
X12008Y331470D01*
X12335Y328990D01*
X13292Y326679D01*
X14815Y324695D01*
X16799Y323172D01*
X19110Y322215D01*
X21590Y321888D01*
X24070Y322215D01*
X26381Y323172D01*
X28365Y324695D01*
X29888Y326679D01*
X30845Y328990D01*
X31172Y331470D01*
X30845Y333950D01*
X29888Y336261D01*
X28365Y338246D01*
X26381Y339768D01*
X24070Y340726D01*
X21590Y341052D01*
D02*
G37*
G36*
X315760Y321986D02*
X314199Y321676D01*
X312876Y320792D01*
X311992Y319469D01*
X311681Y317908D01*
X311992Y316347D01*
X312876Y315024D01*
X314199Y314140D01*
X315760Y313830D01*
X317320Y314140D01*
X318644Y315024D01*
X319528Y316347D01*
X319838Y317908D01*
X319528Y319469D01*
X318644Y320792D01*
X317320Y321676D01*
X315760Y321986D01*
D02*
G37*
G36*
X330200Y321813D02*
X328639Y321503D01*
X327316Y320619D01*
X326432Y319296D01*
X326122Y317735D01*
X326432Y316174D01*
X327316Y314851D01*
X328639Y313967D01*
X330200Y313657D01*
X331761Y313967D01*
X333084Y314851D01*
X333968Y316174D01*
X334278Y317735D01*
X333968Y319296D01*
X333084Y320619D01*
X331761Y321503D01*
X330200Y321813D01*
D02*
G37*
G36*
X414020Y317768D02*
X412459Y317458D01*
X411136Y316574D01*
X410252Y315251D01*
X409942Y313690D01*
X410252Y312129D01*
X411136Y310806D01*
X412459Y309922D01*
X414020Y309612D01*
X415581Y309922D01*
X416904Y310806D01*
X417788Y312129D01*
X418098Y313690D01*
X417788Y315251D01*
X416904Y316574D01*
X415581Y317458D01*
X414020Y317768D01*
D02*
G37*
G36*
X405130Y308878D02*
X403569Y308568D01*
X402246Y307684D01*
X401362Y306361D01*
X401052Y304800D01*
X401362Y303239D01*
X402246Y301916D01*
X403569Y301032D01*
X405130Y300722D01*
X406691Y301032D01*
X408014Y301916D01*
X408898Y303239D01*
X409208Y304800D01*
X408898Y306361D01*
X408014Y307684D01*
X406691Y308568D01*
X405130Y308878D01*
D02*
G37*
G36*
X267170Y306808D02*
X265609Y306498D01*
X264286Y305614D01*
X263402Y304291D01*
X263092Y302730D01*
X263402Y301169D01*
X264286Y299846D01*
X265609Y298962D01*
X267170Y298652D01*
X268731Y298962D01*
X270054Y299846D01*
X270938Y301169D01*
X271248Y302730D01*
X270938Y304291D01*
X270054Y305614D01*
X268731Y306498D01*
X267170Y306808D01*
D02*
G37*
G36*
X109220Y306338D02*
X107659Y306028D01*
X106336Y305144D01*
X105452Y303821D01*
X105142Y302260D01*
X105452Y300699D01*
X106336Y299376D01*
X107659Y298492D01*
X109220Y298182D01*
X110781Y298492D01*
X112104Y299376D01*
X112988Y300699D01*
X113298Y302260D01*
X112988Y303821D01*
X112104Y305144D01*
X110781Y306028D01*
X109220Y306338D01*
D02*
G37*
G36*
X21590Y315652D02*
X19110Y315326D01*
X16799Y314368D01*
X14815Y312845D01*
X13292Y310861D01*
X12335Y308550D01*
X12008Y306070D01*
X12335Y303590D01*
X13292Y301279D01*
X14815Y299294D01*
X16799Y297772D01*
X19110Y296814D01*
X21590Y296488D01*
X24070Y296814D01*
X26381Y297772D01*
X28365Y299294D01*
X29888Y301279D01*
X30845Y303590D01*
X31172Y306070D01*
X30845Y308550D01*
X29888Y310861D01*
X28365Y312845D01*
X26381Y314368D01*
X24070Y315326D01*
X21590Y315652D01*
D02*
G37*
G36*
X416070Y302528D02*
X414509Y302218D01*
X413186Y301334D01*
X412302Y300011D01*
X411992Y298450D01*
X412302Y296889D01*
X413186Y295566D01*
X414509Y294682D01*
X416070Y294372D01*
X417631Y294682D01*
X418954Y295566D01*
X419838Y296889D01*
X420148Y298450D01*
X419838Y300011D01*
X418954Y301334D01*
X417631Y302218D01*
X416070Y302528D01*
D02*
G37*
G36*
X361950Y299988D02*
X360389Y299678D01*
X359066Y298794D01*
X358182Y297471D01*
X357872Y295910D01*
X358182Y294349D01*
X359066Y293026D01*
X360389Y292142D01*
X361950Y291832D01*
X363511Y292142D01*
X364834Y293026D01*
X365718Y294349D01*
X366028Y295910D01*
X365718Y297471D01*
X364834Y298794D01*
X363511Y299678D01*
X361950Y299988D01*
D02*
G37*
G36*
X345440Y298718D02*
X343879Y298408D01*
X342556Y297524D01*
X341672Y296201D01*
X341362Y294640D01*
X341672Y293079D01*
X342556Y291756D01*
X343879Y290872D01*
X345440Y290562D01*
X347001Y290872D01*
X348324Y291756D01*
X349208Y293079D01*
X349518Y294640D01*
X349208Y296201D01*
X348324Y297524D01*
X347001Y298408D01*
X345440Y298718D01*
D02*
G37*
G36*
X334010Y294908D02*
X332449Y294598D01*
X331126Y293714D01*
X330242Y292391D01*
X329932Y290830D01*
X330242Y289269D01*
X331126Y287946D01*
X332449Y287062D01*
X334010Y286752D01*
X335571Y287062D01*
X336894Y287946D01*
X337778Y289269D01*
X338088Y290830D01*
X337778Y292391D01*
X336894Y293714D01*
X335571Y294598D01*
X334010Y294908D01*
D02*
G37*
G36*
X406400Y293638D02*
X404839Y293328D01*
X403516Y292444D01*
X402632Y291121D01*
X402322Y289560D01*
X402632Y287999D01*
X403516Y286676D01*
X404839Y285792D01*
X406400Y285482D01*
X407961Y285792D01*
X409284Y286676D01*
X410168Y287999D01*
X410478Y289560D01*
X410168Y291121D01*
X409284Y292444D01*
X407961Y293328D01*
X406400Y293638D01*
D02*
G37*
G36*
X323850Y291098D02*
X322289Y290788D01*
X320966Y289904D01*
X320082Y288581D01*
X319772Y287020D01*
X320082Y285459D01*
X320966Y284136D01*
X322289Y283252D01*
X323850Y282942D01*
X325411Y283252D01*
X326734Y284136D01*
X327618Y285459D01*
X327928Y287020D01*
X327618Y288581D01*
X326734Y289904D01*
X325411Y290788D01*
X323850Y291098D01*
D02*
G37*
G36*
X587061Y290038D02*
X585500Y289727D01*
X584177Y288843D01*
X583293Y287520D01*
X582982Y285959D01*
X583293Y284399D01*
X584177Y283076D01*
X585500Y282192D01*
X587061Y281881D01*
X588622Y282192D01*
X589945Y283076D01*
X590829Y284399D01*
X591139Y285959D01*
X590829Y287520D01*
X589945Y288843D01*
X588622Y289727D01*
X587061Y290038D01*
D02*
G37*
G36*
X579120Y284748D02*
X577559Y284438D01*
X576236Y283554D01*
X575352Y282231D01*
X575042Y280670D01*
X575352Y279109D01*
X576236Y277786D01*
X577559Y276902D01*
X579120Y276592D01*
X580681Y276902D01*
X582004Y277786D01*
X582888Y279109D01*
X583198Y280670D01*
X582888Y282231D01*
X582004Y283554D01*
X580681Y284438D01*
X579120Y284748D01*
D02*
G37*
G36*
X406400Y279668D02*
X404839Y279358D01*
X403516Y278474D01*
X402632Y277151D01*
X402322Y275590D01*
X402632Y274029D01*
X403516Y272706D01*
X404839Y271822D01*
X406400Y271512D01*
X407961Y271822D01*
X409284Y272706D01*
X410168Y274029D01*
X410478Y275590D01*
X410168Y277151D01*
X409284Y278474D01*
X407961Y279358D01*
X406400Y279668D01*
D02*
G37*
G36*
X323850D02*
X322289Y279358D01*
X320966Y278474D01*
X320082Y277151D01*
X319772Y275590D01*
X320082Y274029D01*
X320966Y272706D01*
X322289Y271822D01*
X323850Y271512D01*
X325411Y271822D01*
X326734Y272706D01*
X327618Y274029D01*
X327928Y275590D01*
X327618Y277151D01*
X326734Y278474D01*
X325411Y279358D01*
X323850Y279668D01*
D02*
G37*
G36*
X459740Y275858D02*
X458179Y275548D01*
X456856Y274664D01*
X455972Y273341D01*
X455662Y271780D01*
X455972Y270219D01*
X456856Y268896D01*
X458179Y268012D01*
X459740Y267702D01*
X461301Y268012D01*
X462624Y268896D01*
X463508Y270219D01*
X463818Y271780D01*
X463508Y273341D01*
X462624Y274664D01*
X461301Y275548D01*
X459740Y275858D01*
D02*
G37*
G36*
X313690D02*
X312129Y275548D01*
X310806Y274664D01*
X309922Y273341D01*
X309612Y271780D01*
X309922Y270219D01*
X310806Y268896D01*
X312129Y268012D01*
X313690Y267702D01*
X315251Y268012D01*
X316574Y268896D01*
X317458Y270219D01*
X317768Y271780D01*
X317458Y273341D01*
X316574Y274664D01*
X315251Y275548D01*
X313690Y275858D01*
D02*
G37*
G36*
X501650Y272048D02*
X500089Y271738D01*
X498766Y270854D01*
X497882Y269531D01*
X497572Y267970D01*
X497882Y266409D01*
X498766Y265086D01*
X500089Y264202D01*
X501650Y263892D01*
X503211Y264202D01*
X504534Y265086D01*
X505418Y266409D01*
X505728Y267970D01*
X505418Y269531D01*
X504534Y270854D01*
X503211Y271738D01*
X501650Y272048D01*
D02*
G37*
G36*
X305592Y271257D02*
X304031Y270946D01*
X302708Y270062D01*
X301824Y268739D01*
X301513Y267178D01*
X301824Y265618D01*
X302708Y264294D01*
X304031Y263410D01*
X305592Y263100D01*
X307152Y263410D01*
X308475Y264294D01*
X309360Y265618D01*
X309670Y267178D01*
X309360Y268739D01*
X308475Y270062D01*
X307152Y270946D01*
X305592Y271257D01*
D02*
G37*
G36*
X407510Y266808D02*
X405949Y266498D01*
X404626Y265614D01*
X403742Y264291D01*
X403432Y262730D01*
X403742Y261169D01*
X404626Y259846D01*
X405949Y258962D01*
X407510Y258652D01*
X409071Y258962D01*
X410394Y259846D01*
X411278Y261169D01*
X411588Y262730D01*
X411278Y264291D01*
X410394Y265614D01*
X409071Y266498D01*
X407510Y266808D01*
D02*
G37*
G36*
X297180Y264428D02*
X295619Y264118D01*
X294296Y263234D01*
X293412Y261911D01*
X293102Y260350D01*
X293412Y258789D01*
X294296Y257466D01*
X295619Y256582D01*
X297180Y256272D01*
X298741Y256582D01*
X300064Y257466D01*
X300948Y258789D01*
X301258Y260350D01*
X300948Y261911D01*
X300064Y263234D01*
X298741Y264118D01*
X297180Y264428D01*
D02*
G37*
G36*
X565150Y263158D02*
X563589Y262848D01*
X562266Y261964D01*
X561382Y260641D01*
X561072Y259080D01*
X561382Y257519D01*
X562266Y256196D01*
X563589Y255312D01*
X565150Y255002D01*
X566711Y255312D01*
X568034Y256196D01*
X568918Y257519D01*
X569228Y259080D01*
X568918Y260641D01*
X568034Y261964D01*
X566711Y262848D01*
X565150Y263158D01*
D02*
G37*
G36*
X458470Y261888D02*
X456909Y261578D01*
X455586Y260694D01*
X454702Y259371D01*
X454392Y257810D01*
X454702Y256249D01*
X455586Y254926D01*
X456909Y254042D01*
X458470Y253732D01*
X460031Y254042D01*
X461354Y254926D01*
X462238Y256249D01*
X462548Y257810D01*
X462238Y259371D01*
X461354Y260694D01*
X460031Y261578D01*
X458470Y261888D01*
D02*
G37*
G36*
X408940Y254268D02*
X407379Y253958D01*
X406056Y253074D01*
X405172Y251751D01*
X404862Y250190D01*
X405172Y248629D01*
X406056Y247306D01*
X407379Y246422D01*
X408940Y246112D01*
X410501Y246422D01*
X411824Y247306D01*
X412708Y248629D01*
X413018Y250190D01*
X412708Y251751D01*
X411824Y253074D01*
X410501Y253958D01*
X408940Y254268D01*
D02*
G37*
G36*
X458470Y250458D02*
X456909Y250148D01*
X455586Y249264D01*
X454702Y247941D01*
X454392Y246380D01*
X454702Y244819D01*
X455586Y243496D01*
X456909Y242612D01*
X458470Y242302D01*
X460031Y242612D01*
X461354Y243496D01*
X462238Y244819D01*
X462548Y246380D01*
X462238Y247941D01*
X461354Y249264D01*
X460031Y250148D01*
X458470Y250458D01*
D02*
G37*
G36*
X33020Y248938D02*
X31069Y248550D01*
X29415Y247445D01*
X28310Y245791D01*
X27922Y243840D01*
X28310Y241889D01*
X29415Y240235D01*
X31069Y239130D01*
X33020Y238742D01*
X34971Y239130D01*
X36625Y240235D01*
X37730Y241889D01*
X38118Y243840D01*
X37730Y245791D01*
X36625Y247445D01*
X34971Y248550D01*
X33020Y248938D01*
D02*
G37*
G36*
X299560Y246808D02*
X297999Y246498D01*
X296676Y245614D01*
X295792Y244291D01*
X295482Y242730D01*
X295792Y241169D01*
X296676Y239846D01*
X297999Y238962D01*
X299560Y238652D01*
X301121Y238962D01*
X302444Y239846D01*
X303328Y241169D01*
X303638Y242730D01*
X303328Y244291D01*
X302444Y245614D01*
X301121Y246498D01*
X299560Y246808D01*
D02*
G37*
G36*
X264400Y241698D02*
X262839Y241388D01*
X261516Y240504D01*
X260632Y239181D01*
X260322Y237620D01*
X260632Y236059D01*
X261516Y234736D01*
X262839Y233852D01*
X264400Y233542D01*
X265961Y233852D01*
X267284Y234736D01*
X268168Y236059D01*
X268478Y237620D01*
X268168Y239181D01*
X267284Y240504D01*
X265961Y241388D01*
X264400Y241698D01*
D02*
G37*
G36*
X310110Y237062D02*
X308549Y236752D01*
X307226Y235868D01*
X306342Y234545D01*
X306031Y232984D01*
X306342Y231423D01*
X307226Y230100D01*
X308549Y229216D01*
X310110Y228906D01*
X311670Y229216D01*
X312994Y230100D01*
X313878Y231423D01*
X314188Y232984D01*
X313878Y234545D01*
X312994Y235868D01*
X311670Y236752D01*
X310110Y237062D01*
D02*
G37*
G36*
X638810Y235218D02*
X637249Y234908D01*
X635926Y234024D01*
X635042Y232701D01*
X634732Y231140D01*
X635042Y229579D01*
X635926Y228256D01*
X637249Y227372D01*
X638810Y227062D01*
X640371Y227372D01*
X641694Y228256D01*
X642578Y229579D01*
X642888Y231140D01*
X642578Y232701D01*
X641694Y234024D01*
X640371Y234908D01*
X638810Y235218D01*
D02*
G37*
G36*
X202500Y231913D02*
X200939Y231603D01*
X199616Y230718D01*
X198732Y229395D01*
X198422Y227835D01*
X198732Y226274D01*
X199616Y224951D01*
X200939Y224067D01*
X202500Y223756D01*
X204061Y224067D01*
X205384Y224951D01*
X206268Y226274D01*
X206578Y227835D01*
X206268Y229395D01*
X205384Y230718D01*
X204061Y231603D01*
X202500Y231913D01*
D02*
G37*
G36*
X327660Y231408D02*
X326099Y231098D01*
X324776Y230214D01*
X323892Y228891D01*
X323582Y227330D01*
X323892Y225769D01*
X324776Y224446D01*
X326099Y223562D01*
X327660Y223252D01*
X329221Y223562D01*
X330544Y224446D01*
X331428Y225769D01*
X331738Y227330D01*
X331428Y228891D01*
X330544Y230214D01*
X329221Y231098D01*
X327660Y231408D01*
D02*
G37*
G36*
X299720Y230438D02*
X298159Y230128D01*
X296836Y229244D01*
X295952Y227921D01*
X295642Y226360D01*
X295952Y224799D01*
X296836Y223476D01*
X298159Y222592D01*
X299720Y222282D01*
X301281Y222592D01*
X302604Y223476D01*
X303488Y224799D01*
X303798Y226360D01*
X303488Y227921D01*
X302604Y229244D01*
X301281Y230128D01*
X299720Y230438D01*
D02*
G37*
G36*
X554990Y230138D02*
X553429Y229828D01*
X552106Y228944D01*
X551222Y227621D01*
X550912Y226060D01*
X551222Y224499D01*
X552106Y223176D01*
X553429Y222292D01*
X554990Y221982D01*
X556551Y222292D01*
X557874Y223176D01*
X558758Y224499D01*
X559068Y226060D01*
X558758Y227621D01*
X557874Y228944D01*
X556551Y229828D01*
X554990Y230138D01*
D02*
G37*
G36*
X461488Y228077D02*
X459928Y227766D01*
X458605Y226882D01*
X457720Y225559D01*
X457410Y223998D01*
X457720Y222438D01*
X458605Y221115D01*
X459928Y220230D01*
X461488Y219920D01*
X463049Y220230D01*
X464372Y221115D01*
X465256Y222438D01*
X465567Y223998D01*
X465256Y225559D01*
X464372Y226882D01*
X463049Y227766D01*
X461488Y228077D01*
D02*
G37*
G36*
X341630Y226328D02*
X340069Y226018D01*
X338746Y225134D01*
X337862Y223811D01*
X337552Y222250D01*
X337862Y220689D01*
X338746Y219366D01*
X340069Y218482D01*
X341630Y218172D01*
X343191Y218482D01*
X344514Y219366D01*
X345398Y220689D01*
X345708Y222250D01*
X345398Y223811D01*
X344514Y225134D01*
X343191Y226018D01*
X341630Y226328D01*
D02*
G37*
G36*
X411480Y222518D02*
X409919Y222208D01*
X408596Y221324D01*
X407712Y220001D01*
X407402Y218440D01*
X407712Y216879D01*
X408596Y215556D01*
X409919Y214672D01*
X411480Y214362D01*
X413041Y214672D01*
X414364Y215556D01*
X415248Y216879D01*
X415558Y218440D01*
X415248Y220001D01*
X414364Y221324D01*
X413041Y222208D01*
X411480Y222518D01*
D02*
G37*
G36*
X381000D02*
X379439Y222208D01*
X378116Y221324D01*
X377232Y220001D01*
X376922Y218440D01*
X377232Y216879D01*
X378116Y215556D01*
X379439Y214672D01*
X381000Y214362D01*
X382561Y214672D01*
X383884Y215556D01*
X384768Y216879D01*
X385078Y218440D01*
X384768Y220001D01*
X383884Y221324D01*
X382561Y222208D01*
X381000Y222518D01*
D02*
G37*
G36*
X454660Y219978D02*
X453099Y219668D01*
X451776Y218784D01*
X450892Y217461D01*
X450582Y215900D01*
X450892Y214339D01*
X451776Y213016D01*
X453099Y212132D01*
X454660Y211822D01*
X456221Y212132D01*
X457544Y213016D01*
X458428Y214339D01*
X458738Y215900D01*
X458428Y217461D01*
X457544Y218784D01*
X456221Y219668D01*
X454660Y219978D01*
D02*
G37*
G36*
X326390Y217438D02*
X324829Y217128D01*
X323506Y216244D01*
X322622Y214921D01*
X322312Y213360D01*
X322622Y211799D01*
X323506Y210476D01*
X324829Y209592D01*
X326390Y209282D01*
X327951Y209592D01*
X329274Y210476D01*
X330158Y211799D01*
X330468Y213360D01*
X330158Y214921D01*
X329274Y216244D01*
X327951Y217128D01*
X326390Y217438D01*
D02*
G37*
G36*
X365760Y214898D02*
X364199Y214588D01*
X362876Y213704D01*
X361992Y212381D01*
X361682Y210820D01*
X361992Y209259D01*
X362876Y207936D01*
X364199Y207052D01*
X365760Y206742D01*
X367321Y207052D01*
X368644Y207936D01*
X369528Y209259D01*
X369838Y210820D01*
X369528Y212381D01*
X368644Y213704D01*
X367321Y214588D01*
X365760Y214898D01*
D02*
G37*
G36*
X316230Y211088D02*
X314669Y210778D01*
X313346Y209894D01*
X312462Y208571D01*
X312152Y207010D01*
X312462Y205449D01*
X313346Y204126D01*
X314669Y203242D01*
X316230Y202932D01*
X317791Y203242D01*
X319114Y204126D01*
X319998Y205449D01*
X320308Y207010D01*
X319998Y208571D01*
X319114Y209894D01*
X317791Y210778D01*
X316230Y211088D01*
D02*
G37*
G36*
X461010Y207278D02*
X459449Y206968D01*
X458126Y206084D01*
X457242Y204761D01*
X456932Y203200D01*
X457242Y201639D01*
X458126Y200316D01*
X459449Y199432D01*
X461010Y199122D01*
X462571Y199432D01*
X463894Y200316D01*
X464778Y201639D01*
X465088Y203200D01*
X464778Y204761D01*
X463894Y206084D01*
X462571Y206968D01*
X461010Y207278D01*
D02*
G37*
G36*
X557530Y206008D02*
X555969Y205698D01*
X554646Y204814D01*
X553762Y203491D01*
X553452Y201930D01*
X553762Y200369D01*
X554646Y199046D01*
X555969Y198162D01*
X557530Y197852D01*
X559091Y198162D01*
X560414Y199046D01*
X561298Y200369D01*
X561608Y201930D01*
X561298Y203491D01*
X560414Y204814D01*
X559091Y205698D01*
X557530Y206008D01*
D02*
G37*
G36*
X393700D02*
X392139Y205698D01*
X390816Y204814D01*
X389932Y203491D01*
X389622Y201930D01*
X389932Y200369D01*
X390816Y199046D01*
X392139Y198162D01*
X393700Y197852D01*
X395261Y198162D01*
X396584Y199046D01*
X397468Y200369D01*
X397778Y201930D01*
X397468Y203491D01*
X396584Y204814D01*
X395261Y205698D01*
X393700Y206008D01*
D02*
G37*
G36*
X339090D02*
X337529Y205698D01*
X336206Y204814D01*
X335322Y203491D01*
X335012Y201930D01*
X335322Y200369D01*
X336206Y199046D01*
X337529Y198162D01*
X339090Y197852D01*
X340651Y198162D01*
X341974Y199046D01*
X342858Y200369D01*
X343168Y201930D01*
X342858Y203491D01*
X341974Y204814D01*
X340651Y205698D01*
X339090Y206008D01*
D02*
G37*
G36*
X327660D02*
X326099Y205698D01*
X324776Y204814D01*
X323892Y203491D01*
X323582Y201930D01*
X323892Y200369D01*
X324776Y199046D01*
X326099Y198162D01*
X327660Y197852D01*
X329221Y198162D01*
X330544Y199046D01*
X331428Y200369D01*
X331738Y201930D01*
X331428Y203491D01*
X330544Y204814D01*
X329221Y205698D01*
X327660Y206008D01*
D02*
G37*
G36*
X673100Y204738D02*
X671539Y204428D01*
X670216Y203544D01*
X669332Y202221D01*
X669022Y200660D01*
X669332Y199099D01*
X670216Y197776D01*
X671539Y196892D01*
X673100Y196582D01*
X674661Y196892D01*
X675984Y197776D01*
X676868Y199099D01*
X677178Y200660D01*
X676868Y202221D01*
X675984Y203544D01*
X674661Y204428D01*
X673100Y204738D01*
D02*
G37*
G36*
X415290Y202198D02*
X413729Y201888D01*
X412406Y201004D01*
X411522Y199681D01*
X411212Y198120D01*
X411522Y196559D01*
X412406Y195236D01*
X413729Y194352D01*
X415290Y194042D01*
X416851Y194352D01*
X418174Y195236D01*
X419058Y196559D01*
X419368Y198120D01*
X419058Y199681D01*
X418174Y201004D01*
X416851Y201888D01*
X415290Y202198D01*
D02*
G37*
G36*
X347980Y200928D02*
X346419Y200618D01*
X345096Y199734D01*
X344212Y198411D01*
X343902Y196850D01*
X344212Y195289D01*
X345096Y193966D01*
X346419Y193082D01*
X347980Y192772D01*
X349541Y193082D01*
X350864Y193966D01*
X351748Y195289D01*
X352058Y196850D01*
X351748Y198411D01*
X350864Y199734D01*
X349541Y200618D01*
X347980Y200928D01*
D02*
G37*
G36*
X309880Y199658D02*
X308319Y199348D01*
X306996Y198464D01*
X306112Y197141D01*
X305802Y195580D01*
X306112Y194019D01*
X306996Y192696D01*
X308319Y191812D01*
X309880Y191502D01*
X311441Y191812D01*
X312764Y192696D01*
X313648Y194019D01*
X313958Y195580D01*
X313648Y197141D01*
X312764Y198464D01*
X311441Y199348D01*
X309880Y199658D01*
D02*
G37*
G36*
X403860Y198388D02*
X402299Y198078D01*
X400976Y197194D01*
X400092Y195871D01*
X399782Y194310D01*
X400092Y192749D01*
X400976Y191426D01*
X402299Y190542D01*
X403860Y190232D01*
X405421Y190542D01*
X406744Y191426D01*
X407628Y192749D01*
X407938Y194310D01*
X407628Y195871D01*
X406744Y197194D01*
X405421Y198078D01*
X403860Y198388D01*
D02*
G37*
G36*
X363220D02*
X361659Y198078D01*
X360336Y197194D01*
X359452Y195871D01*
X359142Y194310D01*
X359452Y192749D01*
X360336Y191426D01*
X361659Y190542D01*
X363220Y190232D01*
X364781Y190542D01*
X366104Y191426D01*
X366988Y192749D01*
X367298Y194310D01*
X366988Y195871D01*
X366104Y197194D01*
X364781Y198078D01*
X363220Y198388D01*
D02*
G37*
G36*
X453390Y197118D02*
X451829Y196808D01*
X450506Y195924D01*
X449622Y194601D01*
X449312Y193040D01*
X449622Y191479D01*
X450506Y190156D01*
X451829Y189272D01*
X453390Y188962D01*
X454951Y189272D01*
X456274Y190156D01*
X457158Y191479D01*
X457468Y193040D01*
X457158Y194601D01*
X456274Y195924D01*
X454951Y196808D01*
X453390Y197118D01*
D02*
G37*
G36*
X557530Y189498D02*
X555969Y189188D01*
X554646Y188304D01*
X553762Y186981D01*
X553452Y185420D01*
X553762Y183859D01*
X554646Y182536D01*
X555969Y181652D01*
X557530Y181342D01*
X559091Y181652D01*
X560414Y182536D01*
X561298Y183859D01*
X561608Y185420D01*
X561298Y186981D01*
X560414Y188304D01*
X559091Y189188D01*
X557530Y189498D01*
D02*
G37*
G36*
X153670Y183148D02*
X152109Y182838D01*
X150786Y181954D01*
X149902Y180631D01*
X149592Y179070D01*
X149902Y177509D01*
X150786Y176186D01*
X152109Y175302D01*
X153670Y174992D01*
X155231Y175302D01*
X156554Y176186D01*
X157438Y177509D01*
X157748Y179070D01*
X157438Y180631D01*
X156554Y181954D01*
X155231Y182838D01*
X153670Y183148D01*
D02*
G37*
G36*
X132080Y180608D02*
X130519Y180298D01*
X129196Y179414D01*
X128312Y178091D01*
X128002Y176530D01*
X128312Y174969D01*
X129196Y173646D01*
X130519Y172762D01*
X132080Y172452D01*
X133641Y172762D01*
X134964Y173646D01*
X135848Y174969D01*
X136158Y176530D01*
X135848Y178091D01*
X134964Y179414D01*
X133641Y180298D01*
X132080Y180608D01*
D02*
G37*
G36*
X400050Y165368D02*
X398489Y165058D01*
X397166Y164174D01*
X396282Y162851D01*
X395972Y161290D01*
X396282Y159729D01*
X397166Y158406D01*
X398489Y157522D01*
X400050Y157212D01*
X401611Y157522D01*
X402934Y158406D01*
X403818Y159729D01*
X404128Y161290D01*
X403818Y162851D01*
X402934Y164174D01*
X401611Y165058D01*
X400050Y165368D01*
D02*
G37*
G36*
X339090Y157748D02*
X337529Y157438D01*
X336206Y156554D01*
X335322Y155231D01*
X335012Y153670D01*
X335322Y152109D01*
X336206Y150786D01*
X337529Y149902D01*
X339090Y149592D01*
X340651Y149902D01*
X341974Y150786D01*
X342858Y152109D01*
X343168Y153670D01*
X342858Y155231D01*
X341974Y156554D01*
X340651Y157438D01*
X339090Y157748D01*
D02*
G37*
G36*
X327000D02*
X325439Y157438D01*
X324116Y156554D01*
X323232Y155231D01*
X322922Y153670D01*
X323232Y152109D01*
X324116Y150786D01*
X325439Y149902D01*
X327000Y149592D01*
X328561Y149902D01*
X329884Y150786D01*
X330768Y152109D01*
X331078Y153670D01*
X330768Y155231D01*
X329884Y156554D01*
X328561Y157438D01*
X327000Y157748D01*
D02*
G37*
G36*
X345440Y145048D02*
X343879Y144738D01*
X342556Y143854D01*
X341672Y142531D01*
X341362Y140970D01*
X341672Y139409D01*
X342556Y138086D01*
X343879Y137202D01*
X345440Y136892D01*
X347001Y137202D01*
X348324Y138086D01*
X349208Y139409D01*
X349518Y140970D01*
X349208Y142531D01*
X348324Y143854D01*
X347001Y144738D01*
X345440Y145048D01*
D02*
G37*
G36*
X330200Y139968D02*
X328639Y139658D01*
X327316Y138774D01*
X326432Y137451D01*
X326122Y135890D01*
X326432Y134329D01*
X327316Y133006D01*
X328639Y132122D01*
X330200Y131812D01*
X331761Y132122D01*
X333084Y133006D01*
X333968Y134329D01*
X334278Y135890D01*
X333968Y137451D01*
X333084Y138774D01*
X331761Y139658D01*
X330200Y139968D01*
D02*
G37*
G36*
X355600Y136158D02*
X354039Y135848D01*
X352716Y134964D01*
X351832Y133641D01*
X351522Y132080D01*
X351832Y130519D01*
X352716Y129196D01*
X354039Y128312D01*
X355600Y128002D01*
X357161Y128312D01*
X358484Y129196D01*
X359368Y130519D01*
X359678Y132080D01*
X359368Y133641D01*
X358484Y134964D01*
X357161Y135848D01*
X355600Y136158D01*
D02*
G37*
G36*
X342900Y132348D02*
X341339Y132038D01*
X340016Y131154D01*
X339132Y129831D01*
X338822Y128270D01*
X339132Y126709D01*
X340016Y125386D01*
X341339Y124502D01*
X342900Y124192D01*
X344461Y124502D01*
X345784Y125386D01*
X346668Y126709D01*
X346978Y128270D01*
X346668Y129831D01*
X345784Y131154D01*
X344461Y132038D01*
X342900Y132348D01*
D02*
G37*
G36*
X425450Y131078D02*
X423889Y130768D01*
X422566Y129884D01*
X421682Y128561D01*
X421372Y127000D01*
X421682Y125439D01*
X422566Y124116D01*
X423889Y123232D01*
X425450Y122922D01*
X427011Y123232D01*
X428334Y124116D01*
X429218Y125439D01*
X429528Y127000D01*
X429218Y128561D01*
X428334Y129884D01*
X427011Y130768D01*
X425450Y131078D01*
D02*
G37*
G36*
X463550Y113298D02*
X461989Y112988D01*
X460666Y112104D01*
X459782Y110781D01*
X459472Y109220D01*
X459782Y107659D01*
X460666Y106336D01*
X461989Y105452D01*
X463550Y105142D01*
X465111Y105452D01*
X466434Y106336D01*
X467318Y107659D01*
X467628Y109220D01*
X467318Y110781D01*
X466434Y112104D01*
X465111Y112988D01*
X463550Y113298D01*
D02*
G37*
G36*
X356870Y109488D02*
X355309Y109178D01*
X353986Y108294D01*
X353102Y106971D01*
X352792Y105410D01*
X353102Y103849D01*
X353986Y102526D01*
X355309Y101642D01*
X356870Y101332D01*
X358431Y101642D01*
X359754Y102526D01*
X360638Y103849D01*
X360948Y105410D01*
X360638Y106971D01*
X359754Y108294D01*
X358431Y109178D01*
X356870Y109488D01*
D02*
G37*
G36*
X344170Y106948D02*
X342609Y106638D01*
X341286Y105754D01*
X340402Y104431D01*
X340092Y102870D01*
X340402Y101309D01*
X341286Y99986D01*
X342609Y99102D01*
X344170Y98792D01*
X345731Y99102D01*
X347054Y99986D01*
X347938Y101309D01*
X348248Y102870D01*
X347938Y104431D01*
X347054Y105754D01*
X345731Y106638D01*
X344170Y106948D01*
D02*
G37*
G36*
X300690Y87736D02*
X299129Y87425D01*
X297806Y86541D01*
X296922Y85218D01*
X296611Y83657D01*
X296922Y82096D01*
X297806Y80773D01*
X299129Y79889D01*
X300690Y79579D01*
X302250Y79889D01*
X303574Y80773D01*
X304458Y82096D01*
X304768Y83657D01*
X304458Y85218D01*
X303574Y86541D01*
X302250Y87425D01*
X300690Y87736D01*
D02*
G37*
G36*
X278130Y85358D02*
X276569Y85048D01*
X275246Y84164D01*
X274362Y82841D01*
X274052Y81280D01*
X274362Y79719D01*
X275246Y78396D01*
X276569Y77512D01*
X278130Y77202D01*
X279691Y77512D01*
X281014Y78396D01*
X281898Y79719D01*
X282208Y81280D01*
X281898Y82841D01*
X281014Y84164D01*
X279691Y85048D01*
X278130Y85358D01*
D02*
G37*
G36*
X317500Y84088D02*
X315939Y83778D01*
X314616Y82894D01*
X313732Y81571D01*
X313422Y80010D01*
X313732Y78449D01*
X314616Y77126D01*
X315939Y76242D01*
X317500Y75932D01*
X319061Y76242D01*
X320384Y77126D01*
X321268Y78449D01*
X321578Y80010D01*
X321268Y81571D01*
X320384Y82894D01*
X319061Y83778D01*
X317500Y84088D01*
D02*
G37*
G36*
X360680Y82818D02*
X359119Y82508D01*
X357796Y81624D01*
X356912Y80301D01*
X356602Y78740D01*
X356912Y77179D01*
X357796Y75856D01*
X359119Y74972D01*
X360680Y74662D01*
X362241Y74972D01*
X363564Y75856D01*
X364448Y77179D01*
X364758Y78740D01*
X364448Y80301D01*
X363564Y81624D01*
X362241Y82508D01*
X360680Y82818D01*
D02*
G37*
%LPD*%
D85*
X21590Y306070D02*
D03*
Y331470D02*
D03*
Y382270D02*
D03*
Y407670D02*
D03*
Y356870D02*
D03*
X596900Y476250D02*
D03*
Y501650D02*
D03*
D86*
X21590Y433070D02*
D03*
X596900Y527050D02*
D03*
D87*
X650000Y50000D02*
D03*
X651030Y500420D02*
D03*
X50000Y500000D02*
D03*
Y50000D02*
D03*
D88*
X521490Y522760D02*
D03*
X491490D02*
D03*
X521490Y492760D02*
D03*
X491490D02*
D03*
X461490D02*
D03*
D89*
Y522760D02*
D03*
D90*
X431800Y483870D02*
D03*
X551180D02*
D03*
D91*
X127500Y524270D02*
D03*
X190000D02*
D03*
D92*
X384810Y527050D02*
D03*
X334010D02*
D03*
X359410D02*
D03*
D93*
X646060Y429690D02*
D03*
Y388190D02*
D03*
X660000Y330000D02*
D03*
X675000Y240000D02*
D03*
X660000Y210000D02*
D03*
Y150000D02*
D03*
X675000Y120000D02*
D03*
X660000Y90000D02*
D03*
X645000Y360000D02*
D03*
X630000Y270000D02*
D03*
Y150000D02*
D03*
X615000Y480000D02*
D03*
Y300000D02*
D03*
Y180000D02*
D03*
X600000Y90000D02*
D03*
Y30000D02*
D03*
X570000Y510000D02*
D03*
Y150000D02*
D03*
Y90000D02*
D03*
X585000Y60000D02*
D03*
X570000Y30000D02*
D03*
X540000Y510000D02*
D03*
Y330000D02*
D03*
Y30000D02*
D03*
X510000Y510000D02*
D03*
Y30000D02*
D03*
X480000Y390000D02*
D03*
X495000Y60000D02*
D03*
X480000Y30000D02*
D03*
X450000Y450000D02*
D03*
Y390000D02*
D03*
X465000Y360000D02*
D03*
X450000Y150000D02*
D03*
X465000Y60000D02*
D03*
X450000Y30000D02*
D03*
X420000D02*
D03*
X390000Y450000D02*
D03*
Y270000D02*
D03*
X405000Y240000D02*
D03*
X390000Y30000D02*
D03*
X360000Y270000D02*
D03*
X375000Y240000D02*
D03*
X360000Y30000D02*
D03*
X345000Y240000D02*
D03*
X330000Y30000D02*
D03*
X300000D02*
D03*
X270000D02*
D03*
X255000Y480000D02*
D03*
Y120000D02*
D03*
X240000Y90000D02*
D03*
X255000Y60000D02*
D03*
X240000Y30000D02*
D03*
X210000Y510000D02*
D03*
X225000Y120000D02*
D03*
X210000Y90000D02*
D03*
X225000Y60000D02*
D03*
X210000Y30000D02*
D03*
X180000Y450000D02*
D03*
X195000Y420000D02*
D03*
Y360000D02*
D03*
Y120000D02*
D03*
Y60000D02*
D03*
X180000Y30000D02*
D03*
X150000Y510000D02*
D03*
X165000Y360000D02*
D03*
X150000Y210000D02*
D03*
X165000Y120000D02*
D03*
Y60000D02*
D03*
X150000Y30000D02*
D03*
X120000Y510000D02*
D03*
X135000Y480000D02*
D03*
X120000Y450000D02*
D03*
X135000Y420000D02*
D03*
X120000Y270000D02*
D03*
Y210000D02*
D03*
X135000Y60000D02*
D03*
X120000Y30000D02*
D03*
X90000Y510000D02*
D03*
X105000Y480000D02*
D03*
X90000Y450000D02*
D03*
X105000Y420000D02*
D03*
X90000Y270000D02*
D03*
X105000Y180000D02*
D03*
X90000Y150000D02*
D03*
X105000Y120000D02*
D03*
X90000Y90000D02*
D03*
X105000Y60000D02*
D03*
X90000Y30000D02*
D03*
X60000Y450000D02*
D03*
X75000Y360000D02*
D03*
X60000Y330000D02*
D03*
X75000Y300000D02*
D03*
Y240000D02*
D03*
X60000Y210000D02*
D03*
X75000Y180000D02*
D03*
X60000Y150000D02*
D03*
X75000Y120000D02*
D03*
X60000Y90000D02*
D03*
X30000Y450000D02*
D03*
Y270000D02*
D03*
X45000Y180000D02*
D03*
X30000Y150000D02*
D03*
X45000Y120000D02*
D03*
X30000Y90000D02*
D03*
X33020Y243840D02*
D03*
D94*
X674370Y341630D02*
D03*
X317500Y80010D02*
D03*
X300690Y83657D02*
D03*
X360680Y78740D02*
D03*
X348554Y354904D02*
D03*
X354330Y350520D02*
D03*
X350159Y363581D02*
D03*
X341630Y363220D02*
D03*
X372110Y400050D02*
D03*
X351790Y401320D02*
D03*
X361950Y400050D02*
D03*
X336550Y401320D02*
D03*
X354330Y342900D02*
D03*
X461488Y223998D02*
D03*
X400050Y161290D02*
D03*
X347980Y196850D02*
D03*
X313690Y271780D02*
D03*
X323850Y275590D02*
D03*
X330200Y317735D02*
D03*
X315760Y317908D02*
D03*
X311977Y344116D02*
D03*
X324410Y367740D02*
D03*
X333577Y362383D02*
D03*
X421640Y365760D02*
D03*
X435610Y364490D02*
D03*
X410210D02*
D03*
X400050Y363220D02*
D03*
X196850Y278130D02*
D03*
X193040Y255270D02*
D03*
X278130Y81280D02*
D03*
X386080Y414020D02*
D03*
X398780Y415290D02*
D03*
X302260Y440690D02*
D03*
X445770Y327660D02*
D03*
X327660Y201930D02*
D03*
X339090D02*
D03*
X403860Y194310D02*
D03*
X381000Y218440D02*
D03*
X393700Y201930D02*
D03*
X415290Y198120D02*
D03*
X411480Y218440D02*
D03*
X365760Y210820D02*
D03*
X363220Y194310D02*
D03*
X453390Y193040D02*
D03*
X461010Y203200D02*
D03*
X454660Y215900D02*
D03*
X501650Y267970D02*
D03*
X345440Y294640D02*
D03*
X638810Y231140D02*
D03*
X565150Y259080D02*
D03*
X458470Y257810D02*
D03*
X459740Y271780D02*
D03*
X153670Y179070D02*
D03*
X132080Y176530D02*
D03*
X425450Y127000D02*
D03*
X316230Y207010D02*
D03*
X326390Y213360D02*
D03*
X299720Y226360D02*
D03*
X341630Y222250D02*
D03*
X310110Y232984D02*
D03*
X327660Y227330D02*
D03*
X557530Y185420D02*
D03*
Y201930D02*
D03*
X261620Y372110D02*
D03*
X327410Y350099D02*
D03*
X202500Y227835D02*
D03*
X414020Y313690D02*
D03*
X262890Y328930D02*
D03*
X267170Y302730D02*
D03*
X361950Y295910D02*
D03*
X554990Y226060D02*
D03*
X405130Y304800D02*
D03*
X323850Y287020D02*
D03*
X406400Y289560D02*
D03*
Y275590D02*
D03*
X408940Y250190D02*
D03*
X334010Y290830D02*
D03*
X305592Y267178D02*
D03*
X297180Y260350D02*
D03*
X299560Y242730D02*
D03*
X264400Y237620D02*
D03*
X309880Y195580D02*
D03*
X327000Y153670D02*
D03*
X356870Y105410D02*
D03*
X344170Y102870D02*
D03*
X355600Y132080D02*
D03*
X342900Y128270D02*
D03*
X345440Y140970D02*
D03*
X339090Y153670D02*
D03*
X330200Y135890D02*
D03*
X458470Y246380D02*
D03*
X407510Y262730D02*
D03*
X416070Y298450D02*
D03*
X168910Y427990D02*
D03*
X256340Y413956D02*
D03*
X247650Y414020D02*
D03*
X374650Y497840D02*
D03*
X367030Y472440D02*
D03*
X570230Y361950D02*
D03*
X533307Y356865D02*
D03*
X182880Y505460D02*
D03*
X600710Y405130D02*
D03*
X589280Y403860D02*
D03*
X487680Y450850D02*
D03*
X513080Y403860D02*
D03*
X463550Y109220D02*
D03*
X109220Y302260D02*
D03*
X252730Y515620D02*
D03*
X587061Y285959D02*
D03*
X579120Y280670D02*
D03*
X565150Y440690D02*
D03*
X591820Y443230D02*
D03*
X617220Y438150D02*
D03*
X673100Y200660D02*
D03*
X630000Y70000D02*
D03*
X622500Y50000D02*
D03*
X630000Y30000D02*
D03*
X650000Y22500D02*
D03*
X670000Y30000D02*
D03*
X677500Y50000D02*
D03*
X670000Y70000D02*
D03*
X650000Y77500D02*
D03*
X630000Y520000D02*
D03*
X622500Y500000D02*
D03*
X630000Y480000D02*
D03*
X650000Y472500D02*
D03*
X670000Y480000D02*
D03*
X677500Y500000D02*
D03*
X670000Y520000D02*
D03*
X650000Y527500D02*
D03*
X50000D02*
D03*
X70000Y520000D02*
D03*
X77500Y500000D02*
D03*
X70000Y480000D02*
D03*
X50000Y472500D02*
D03*
X30000Y480000D02*
D03*
X22500Y500000D02*
D03*
X30000Y520000D02*
D03*
X50000Y77500D02*
D03*
X70000Y70000D02*
D03*
X77500Y50000D02*
D03*
X70000Y30000D02*
D03*
X50000Y22500D02*
D03*
X30000Y30000D02*
D03*
X22500Y50000D02*
D03*
X30000Y70000D02*
D03*
M02*
