G04*
G04 #@! TF.GenerationSoftware,Altium Limited,Altium Designer,24.3.1 (35)*
G04*
G04 Layer_Physical_Order=1*
G04 Layer_Color=255*
%FSLAX44Y44*%
%MOMM*%
G71*
G04*
G04 #@! TF.SameCoordinates,A09364C8-3F5A-4848-A1E5-A5872CA7DBD6*
G04*
G04*
G04 #@! TF.FilePolarity,Positive*
G04*
G01*
G75*
%ADD10C,0.2000*%
%ADD18R,0.9000X1.4500*%
%ADD19R,1.4500X0.9000*%
%ADD20R,1.3000X0.9000*%
%ADD21R,1.3500X1.1500*%
%ADD22R,2.6500X1.2500*%
G04:AMPARAMS|DCode=23|XSize=1.2mm|YSize=1.1mm|CornerRadius=0.275mm|HoleSize=0mm|Usage=FLASHONLY|Rotation=0.000|XOffset=0mm|YOffset=0mm|HoleType=Round|Shape=RoundedRectangle|*
%AMROUNDEDRECTD23*
21,1,1.2000,0.5500,0,0,0.0*
21,1,0.6500,1.1000,0,0,0.0*
1,1,0.5500,0.3250,-0.2750*
1,1,0.5500,-0.3250,-0.2750*
1,1,0.5500,-0.3250,0.2750*
1,1,0.5500,0.3250,0.2750*
%
%ADD23ROUNDEDRECTD23*%
%ADD24R,2.2000X1.3000*%
%ADD25C,1.0000*%
%ADD26R,1.6000X1.4000*%
G04:AMPARAMS|DCode=27|XSize=0.65mm|YSize=1.7mm|CornerRadius=0.1625mm|HoleSize=0mm|Usage=FLASHONLY|Rotation=90.000|XOffset=0mm|YOffset=0mm|HoleType=Round|Shape=RoundedRectangle|*
%AMROUNDEDRECTD27*
21,1,0.6500,1.3750,0,0,90.0*
21,1,0.3250,1.7000,0,0,90.0*
1,1,0.3250,0.6875,0.1625*
1,1,0.3250,0.6875,-0.1625*
1,1,0.3250,-0.6875,-0.1625*
1,1,0.3250,-0.6875,0.1625*
%
%ADD27ROUNDEDRECTD27*%
%ADD28R,1.0000X1.9000*%
%ADD29R,0.9000X1.3000*%
G04:AMPARAMS|DCode=30|XSize=1.08mm|YSize=1.22mm|CornerRadius=0.27mm|HoleSize=0mm|Usage=FLASHONLY|Rotation=180.000|XOffset=0mm|YOffset=0mm|HoleType=Round|Shape=RoundedRectangle|*
%AMROUNDEDRECTD30*
21,1,1.0800,0.6800,0,0,180.0*
21,1,0.5400,1.2200,0,0,180.0*
1,1,0.5400,-0.2700,0.3400*
1,1,0.5400,0.2700,0.3400*
1,1,0.5400,0.2700,-0.3400*
1,1,0.5400,-0.2700,-0.3400*
%
%ADD30ROUNDEDRECTD30*%
%ADD31R,1.4750X0.3000*%
%ADD32R,0.3000X1.4750*%
%ADD33R,1.9500X1.4000*%
%ADD34R,1.3500X0.4000*%
%ADD35R,1.9000X1.8000*%
%ADD36R,1.9000X1.9000*%
G04:AMPARAMS|DCode=37|XSize=3.3mm|YSize=2.1mm|CornerRadius=0.525mm|HoleSize=0mm|Usage=FLASHONLY|Rotation=180.000|XOffset=0mm|YOffset=0mm|HoleType=Round|Shape=RoundedRectangle|*
%AMROUNDEDRECTD37*
21,1,3.3000,1.0500,0,0,180.0*
21,1,2.2500,2.1000,0,0,180.0*
1,1,1.0500,-1.1250,0.5250*
1,1,1.0500,1.1250,0.5250*
1,1,1.0500,1.1250,-0.5250*
1,1,1.0500,-1.1250,-0.5250*
%
%ADD37ROUNDEDRECTD37*%
G04:AMPARAMS|DCode=38|XSize=1mm|YSize=2.1mm|CornerRadius=0.25mm|HoleSize=0mm|Usage=FLASHONLY|Rotation=180.000|XOffset=0mm|YOffset=0mm|HoleType=Round|Shape=RoundedRectangle|*
%AMROUNDEDRECTD38*
21,1,1.0000,1.6000,0,0,180.0*
21,1,0.5000,2.1000,0,0,180.0*
1,1,0.5000,-0.2500,0.8000*
1,1,0.5000,0.2500,0.8000*
1,1,0.5000,0.2500,-0.8000*
1,1,0.5000,-0.2500,-0.8000*
%
%ADD38ROUNDEDRECTD38*%
G04:AMPARAMS|DCode=39|XSize=1.7mm|YSize=2.5mm|CornerRadius=0.425mm|HoleSize=0mm|Usage=FLASHONLY|Rotation=0.000|XOffset=0mm|YOffset=0mm|HoleType=Round|Shape=RoundedRectangle|*
%AMROUNDEDRECTD39*
21,1,1.7000,1.6500,0,0,0.0*
21,1,0.8500,2.5000,0,0,0.0*
1,1,0.8500,0.4250,-0.8250*
1,1,0.8500,-0.4250,-0.8250*
1,1,0.8500,-0.4250,0.8250*
1,1,0.8500,0.4250,0.8250*
%
%ADD39ROUNDEDRECTD39*%
G04:AMPARAMS|DCode=40|XSize=1.3mm|YSize=1.1mm|CornerRadius=0.275mm|HoleSize=0mm|Usage=FLASHONLY|Rotation=90.000|XOffset=0mm|YOffset=0mm|HoleType=Round|Shape=RoundedRectangle|*
%AMROUNDEDRECTD40*
21,1,1.3000,0.5500,0,0,90.0*
21,1,0.7500,1.1000,0,0,90.0*
1,1,0.5500,0.2750,0.3750*
1,1,0.5500,0.2750,-0.3750*
1,1,0.5500,-0.2750,-0.3750*
1,1,0.5500,-0.2750,0.3750*
%
%ADD40ROUNDEDRECTD40*%
G04:AMPARAMS|DCode=41|XSize=1.7mm|YSize=2.5mm|CornerRadius=0.425mm|HoleSize=0mm|Usage=FLASHONLY|Rotation=270.000|XOffset=0mm|YOffset=0mm|HoleType=Round|Shape=RoundedRectangle|*
%AMROUNDEDRECTD41*
21,1,1.7000,1.6500,0,0,270.0*
21,1,0.8500,2.5000,0,0,270.0*
1,1,0.8500,-0.8250,-0.4250*
1,1,0.8500,-0.8250,0.4250*
1,1,0.8500,0.8250,0.4250*
1,1,0.8500,0.8250,-0.4250*
%
%ADD41ROUNDEDRECTD41*%
%ADD42R,2.7500X1.0000*%
%ADD43R,1.1500X1.3500*%
G04:AMPARAMS|DCode=44|XSize=1.6mm|YSize=1.4mm|CornerRadius=0.35mm|HoleSize=0mm|Usage=FLASHONLY|Rotation=180.000|XOffset=0mm|YOffset=0mm|HoleType=Round|Shape=RoundedRectangle|*
%AMROUNDEDRECTD44*
21,1,1.6000,0.7000,0,0,180.0*
21,1,0.9000,1.4000,0,0,180.0*
1,1,0.7000,-0.4500,0.3500*
1,1,0.7000,0.4500,0.3500*
1,1,0.7000,0.4500,-0.3500*
1,1,0.7000,-0.4500,-0.3500*
%
%ADD44ROUNDEDRECTD44*%
%ADD82C,0.5000*%
%ADD83C,0.3000*%
%ADD84C,0.3810*%
%ADD85C,1.6000*%
G04:AMPARAMS|DCode=86|XSize=1.6mm|YSize=1.6mm|CornerRadius=0.4mm|HoleSize=0mm|Usage=FLASHONLY|Rotation=270.000|XOffset=0mm|YOffset=0mm|HoleType=Round|Shape=RoundedRectangle|*
%AMROUNDEDRECTD86*
21,1,1.6000,0.8000,0,0,270.0*
21,1,0.8000,1.6000,0,0,270.0*
1,1,0.8000,-0.4000,-0.4000*
1,1,0.8000,-0.4000,0.4000*
1,1,0.8000,0.4000,0.4000*
1,1,0.8000,0.4000,-0.4000*
%
%ADD86ROUNDEDRECTD86*%
%ADD87C,7.0000*%
%ADD88C,2.0000*%
G04:AMPARAMS|DCode=89|XSize=2mm|YSize=2mm|CornerRadius=0.5mm|HoleSize=0mm|Usage=FLASHONLY|Rotation=270.000|XOffset=0mm|YOffset=0mm|HoleType=Round|Shape=RoundedRectangle|*
%AMROUNDEDRECTD89*
21,1,2.0000,1.0000,0,0,270.0*
21,1,1.0000,2.0000,0,0,270.0*
1,1,1.0000,-0.5000,-0.5000*
1,1,1.0000,-0.5000,0.5000*
1,1,1.0000,0.5000,0.5000*
1,1,1.0000,0.5000,-0.5000*
%
%ADD89ROUNDEDRECTD89*%
%ADD90C,1.2000*%
%ADD91C,1.3000*%
%ADD92C,1.5000*%
%ADD93C,0.7000*%
%ADD94C,0.5000*%
G36*
X657796Y554826D02*
X661073D01*
X667571Y553970D01*
X673902Y552274D01*
X679958Y549766D01*
X685634Y546489D01*
X690834Y542499D01*
X695469Y537864D01*
X699459Y532664D01*
X702736Y526988D01*
X705244Y520932D01*
X706940Y514601D01*
X707796Y508103D01*
Y504826D01*
X707796Y504826D01*
X707796Y504826D01*
X707796Y54826D01*
Y51549D01*
X706940Y45051D01*
X705244Y38719D01*
X702736Y32664D01*
X699459Y26988D01*
X695469Y21788D01*
X690834Y17153D01*
X685634Y13163D01*
X679958Y9886D01*
X673902Y7378D01*
X667571Y5681D01*
X661073Y4826D01*
X657796Y4826D01*
X57796Y4826D01*
X54519D01*
X48021Y5681D01*
X41690Y7378D01*
X35634Y9886D01*
X29958Y13163D01*
X24758Y17153D01*
X20123Y21788D01*
X16133Y26988D01*
X12856Y32664D01*
X10348Y38719D01*
X8651Y45051D01*
X7796Y51549D01*
X7796Y54826D01*
Y247293D01*
X9066Y248450D01*
X28763D01*
X29289Y247180D01*
X28781Y246672D01*
X28020Y244835D01*
Y242845D01*
X28781Y241008D01*
X30188Y239601D01*
X32025Y238840D01*
X34015D01*
X35852Y239601D01*
X37259Y241008D01*
X38020Y242845D01*
Y244835D01*
X37259Y246672D01*
X36751Y247180D01*
X37277Y248450D01*
X38570D01*
Y252401D01*
X65570D01*
Y248450D01*
X96070D01*
Y252401D01*
X98324D01*
X108908Y241818D01*
X109735Y241265D01*
X110710Y241071D01*
X260398D01*
X261009Y239886D01*
X260400Y238416D01*
Y236824D01*
X261009Y235354D01*
X262134Y234229D01*
X263604Y233620D01*
X265196D01*
X266666Y234229D01*
X267563Y235126D01*
X273155D01*
Y224730D01*
X290905D01*
Y225181D01*
X297162D01*
X297734Y224609D01*
X299204Y224000D01*
X300796D01*
X302266Y224609D01*
X303391Y225734D01*
X304000Y227204D01*
Y228796D01*
X303840Y229181D01*
X304689Y230451D01*
X306986D01*
X307844Y229593D01*
X308690Y229243D01*
X309213Y228153D01*
X309167Y227775D01*
X308664Y226559D01*
Y225368D01*
X293575Y210279D01*
X290905D01*
Y220730D01*
X282325D01*
X282030Y220789D01*
X271730D01*
X270560Y220556D01*
X269567Y219893D01*
X269567Y219893D01*
X262270Y212596D01*
X261000Y213122D01*
Y213500D01*
X245000D01*
Y211659D01*
X236000D01*
Y213500D01*
X220000D01*
Y211659D01*
X212982D01*
Y212000D01*
X212656Y213639D01*
X211728Y215028D01*
X210339Y215956D01*
X208700Y216282D01*
X203300D01*
X201661Y215956D01*
X200272Y215028D01*
X199344Y213639D01*
X199018Y212000D01*
Y205200D01*
X199344Y203561D01*
X200272Y202172D01*
X201661Y201244D01*
X203300Y200918D01*
X208700D01*
X210339Y201244D01*
X211728Y202172D01*
X212656Y203561D01*
X212982Y205200D01*
Y205541D01*
X220000D01*
Y201500D01*
X236000D01*
Y205541D01*
X245000D01*
Y201500D01*
X261000D01*
Y205541D01*
X262600D01*
X262600Y205541D01*
X263771Y205774D01*
X264763Y206437D01*
X266724Y208398D01*
X267897Y207912D01*
Y189223D01*
X266133Y187459D01*
X263000D01*
Y189500D01*
X247000D01*
Y187459D01*
X238000D01*
Y190500D01*
X222000D01*
Y187459D01*
X211982D01*
Y187800D01*
X211656Y189439D01*
X210728Y190828D01*
X209339Y191756D01*
X207700Y192082D01*
X202300D01*
X200661Y191756D01*
X199272Y190828D01*
X198344Y189439D01*
X198018Y187800D01*
Y181000D01*
X198096Y180604D01*
X196926Y179979D01*
X161549Y215356D01*
Y216892D01*
X162391Y217734D01*
X163000Y219204D01*
Y219583D01*
X163868Y220451D01*
X199326D01*
X199344Y220361D01*
X200272Y218972D01*
X201661Y218044D01*
X203300Y217718D01*
X208700D01*
X210339Y218044D01*
X211728Y218972D01*
X212656Y220361D01*
X212982Y222000D01*
Y228800D01*
X212656Y230439D01*
X211728Y231828D01*
X210339Y232756D01*
X208700Y233082D01*
X203300D01*
X201661Y232756D01*
X200272Y231828D01*
X199344Y230439D01*
X199018Y228800D01*
Y225549D01*
X162812D01*
X161836Y225355D01*
X161009Y224802D01*
X160086Y223880D01*
X159796Y224000D01*
X158204D01*
X156734Y223391D01*
X155609Y222266D01*
X155000Y220796D01*
Y219204D01*
X155609Y217734D01*
X156451Y216892D01*
Y214300D01*
X156645Y213325D01*
X157198Y212498D01*
X198130Y171565D01*
X198018Y171000D01*
Y164200D01*
X198344Y162561D01*
X199272Y161172D01*
X200661Y160244D01*
X202300Y159918D01*
X207700D01*
X209339Y160244D01*
X210728Y161172D01*
X211656Y162561D01*
X211982Y164200D01*
Y171000D01*
X211656Y172639D01*
X210728Y174028D01*
X209339Y174956D01*
X207700Y175282D01*
X202535D01*
X202383Y175448D01*
X202830Y176549D01*
X203015Y176718D01*
X207700D01*
X209339Y177044D01*
X210728Y177972D01*
X211656Y179361D01*
X211982Y181000D01*
Y181341D01*
X222000D01*
Y178500D01*
X238000D01*
Y181341D01*
X247000D01*
Y177500D01*
X263000D01*
Y181341D01*
X267400D01*
X267400Y181341D01*
X268570Y181574D01*
X269563Y182237D01*
X273119Y185793D01*
X273119Y185793D01*
X273782Y186786D01*
X274015Y187956D01*
Y189730D01*
X290905D01*
Y190181D01*
X294137D01*
X294623Y189008D01*
X255484Y149869D01*
X189870D01*
X188895Y149675D01*
X188068Y149122D01*
X183715Y144770D01*
X170820D01*
Y130270D01*
X187320D01*
Y141165D01*
X190926Y144771D01*
X256540D01*
X257516Y144965D01*
X258342Y145518D01*
X299468Y186643D01*
X301192D01*
X302167Y186837D01*
X302994Y187390D01*
X305688Y190083D01*
X306861Y189597D01*
Y184225D01*
X301410D01*
Y166475D01*
X301861D01*
Y164533D01*
X302055Y163557D01*
X302608Y162730D01*
X303951Y161387D01*
Y160000D01*
X300500D01*
Y144000D01*
X305547D01*
X306073Y142730D01*
X305609Y142266D01*
X305000Y140796D01*
Y139204D01*
X305609Y137734D01*
X306734Y136609D01*
X308204Y136000D01*
X309796D01*
X311266Y136609D01*
X312391Y137734D01*
X313000Y139204D01*
Y140796D01*
X312391Y142266D01*
X311927Y142730D01*
X312453Y144000D01*
X312500D01*
Y160000D01*
X309049D01*
Y162442D01*
X308855Y163418D01*
X308302Y164245D01*
X307342Y165205D01*
X307868Y166475D01*
X320496D01*
X320982Y165302D01*
X315088Y159407D01*
X314535Y158581D01*
X314341Y157605D01*
Y152926D01*
X314535Y151950D01*
X314941Y151342D01*
Y90936D01*
X307554Y83549D01*
X290108D01*
X289266Y84391D01*
X287796Y85000D01*
X286204D01*
X284734Y84391D01*
X283609Y83266D01*
X283303Y82528D01*
X281936Y82545D01*
X281780Y82921D01*
X281721Y83216D01*
X281554Y83466D01*
X281521Y83546D01*
X281460Y83607D01*
X281058Y84208D01*
X280457Y84610D01*
X280396Y84671D01*
X280316Y84704D01*
X280066Y84871D01*
X279771Y84930D01*
X278926Y85280D01*
X277334D01*
X275864Y84671D01*
X274739Y83546D01*
X274130Y82076D01*
Y80484D01*
X274739Y79014D01*
X275864Y77889D01*
X277334Y77280D01*
X278926D01*
X280396Y77889D01*
X281521Y79014D01*
X281827Y79752D01*
X283194Y79735D01*
X283609Y78734D01*
X284734Y77609D01*
X286204Y77000D01*
X287796D01*
X289266Y77609D01*
X290108Y78451D01*
X308610D01*
X309585Y78645D01*
X310412Y79198D01*
X313060Y81845D01*
X314137Y81126D01*
X314000Y80796D01*
Y79204D01*
X314609Y77734D01*
X315734Y76609D01*
X317204Y76000D01*
X318796D01*
X320266Y76609D01*
X321391Y77734D01*
X322000Y79204D01*
Y80738D01*
X323520Y82258D01*
X324072Y83085D01*
X324267Y84061D01*
Y149098D01*
X325536Y149947D01*
X326204Y149670D01*
X327796D01*
X329266Y150279D01*
X330391Y151404D01*
X331000Y152874D01*
Y154466D01*
X330939Y154614D01*
X340591Y164266D01*
X341097Y164198D01*
X341861Y163821D01*
Y160046D01*
X339485Y157670D01*
X338294D01*
X336824Y157061D01*
X335699Y155936D01*
X335090Y154466D01*
Y152874D01*
X335699Y151404D01*
X336824Y150279D01*
X338294Y149670D01*
X338579D01*
X339105Y148400D01*
X330595Y139890D01*
X329404D01*
X327934Y139281D01*
X326809Y138156D01*
X326200Y136686D01*
Y135094D01*
X326809Y133624D01*
X327934Y132499D01*
X329404Y131890D01*
X330996D01*
X332466Y132499D01*
X333591Y133624D01*
X334200Y135094D01*
Y136285D01*
X340337Y142423D01*
X341335Y141828D01*
X341440Y141729D01*
Y140174D01*
X342049Y138704D01*
X343174Y137579D01*
X344644Y136970D01*
X346199D01*
X346298Y136865D01*
X346893Y135868D01*
X343295Y132270D01*
X342104D01*
X340634Y131661D01*
X339509Y130536D01*
X338900Y129066D01*
Y127474D01*
X339509Y126004D01*
X340634Y124879D01*
X342104Y124270D01*
X343696D01*
X345166Y124879D01*
X346291Y126004D01*
X346900Y127474D01*
Y128665D01*
X350330Y132095D01*
X351600Y131569D01*
Y131284D01*
X352209Y129814D01*
X353334Y128689D01*
X354804Y128080D01*
X355089D01*
X355615Y126810D01*
X349802Y120997D01*
X349796Y121000D01*
X348204D01*
X346734Y120391D01*
X345609Y119266D01*
X345000Y117796D01*
Y116204D01*
X345609Y114734D01*
X346734Y113609D01*
X348204Y113000D01*
X349796D01*
X351266Y113609D01*
X352391Y114734D01*
X353000Y116204D01*
Y116985D01*
X355202Y119187D01*
X356278Y118467D01*
X356000Y117796D01*
Y116204D01*
X356609Y114734D01*
X357734Y113609D01*
X359204Y113000D01*
X360796D01*
X362266Y113609D01*
X363391Y114734D01*
X364000Y116204D01*
Y117395D01*
X374712Y128108D01*
X375102Y128690D01*
X390270D01*
Y137944D01*
X390319Y138190D01*
Y139134D01*
X411212Y160028D01*
X411765Y160855D01*
X411959Y161830D01*
Y166475D01*
X412410D01*
Y184225D01*
X407254D01*
Y188604D01*
X407266Y188609D01*
X408391Y189734D01*
X409000Y191204D01*
Y192796D01*
X408391Y194266D01*
X407266Y195391D01*
X405796Y196000D01*
X404204D01*
X402734Y195391D01*
X401609Y194266D01*
X401000Y192796D01*
Y191204D01*
X401609Y189734D01*
X402156Y189187D01*
Y184225D01*
X397254D01*
Y188604D01*
X397266Y188609D01*
X398391Y189734D01*
X399000Y191204D01*
Y192796D01*
X398391Y194266D01*
X397266Y195391D01*
X395796Y196000D01*
X394204D01*
X393229Y195596D01*
X391959Y196275D01*
Y206302D01*
X392391Y206734D01*
X393000Y208204D01*
Y209796D01*
X392391Y211266D01*
X391266Y212391D01*
X389796Y213000D01*
X388204D01*
X386734Y212391D01*
X385609Y211266D01*
X385000Y209796D01*
Y208204D01*
X385609Y206734D01*
X386734Y205609D01*
X386861Y205556D01*
Y197689D01*
X385591Y196840D01*
X385206Y197000D01*
X383614D01*
X383024Y196756D01*
X381754Y197604D01*
Y202097D01*
X382391Y202734D01*
X383000Y204204D01*
Y205796D01*
X382391Y207266D01*
X381266Y208391D01*
X379796Y209000D01*
X378204D01*
X376734Y208391D01*
X375609Y207266D01*
X375000Y205796D01*
Y204204D01*
X375609Y202734D01*
X376656Y201687D01*
Y184225D01*
X327254D01*
Y187604D01*
X327266Y187609D01*
X328391Y188734D01*
X329000Y190204D01*
Y191796D01*
X328391Y193266D01*
X327266Y194391D01*
X325796Y195000D01*
X324204D01*
X323204Y195960D01*
X323151Y196495D01*
X323391Y196734D01*
X324000Y198204D01*
Y199796D01*
X323391Y201266D01*
X322266Y202391D01*
X320796Y203000D01*
X319673D01*
X319106Y204229D01*
X319621Y204744D01*
X320230Y206214D01*
Y207806D01*
X319621Y209276D01*
X319356Y209541D01*
X319882Y210811D01*
X323282D01*
X324124Y209969D01*
X325594Y209360D01*
X327186D01*
X328656Y209969D01*
X329781Y211094D01*
X330390Y212564D01*
Y214156D01*
X329781Y215626D01*
X328656Y216751D01*
X327186Y217360D01*
X325594D01*
X324124Y216751D01*
X323362Y217705D01*
X324391Y218734D01*
X325000Y220204D01*
Y221796D01*
X324391Y223266D01*
X323266Y224391D01*
X321796Y225000D01*
X320204D01*
X318734Y224391D01*
X318390Y224047D01*
X317686Y224116D01*
X316664Y224968D01*
Y226559D01*
X316055Y228029D01*
X314930Y229155D01*
X314084Y229505D01*
X313560Y230594D01*
X313606Y230973D01*
X314110Y232188D01*
Y233780D01*
X313501Y235250D01*
X312376Y236375D01*
X310905Y236984D01*
X309314D01*
X307844Y236375D01*
X307018Y235549D01*
X290905D01*
Y240181D01*
X296452D01*
X297294Y239339D01*
X298764Y238730D01*
X300356D01*
X301826Y239339D01*
X302951Y240464D01*
X303560Y241934D01*
Y243526D01*
X302951Y244996D01*
X301826Y246121D01*
X300356Y246730D01*
X298764D01*
X297294Y246121D01*
X296452Y245279D01*
X290905D01*
Y249730D01*
Y259671D01*
X296672D01*
X296734Y259609D01*
X298204Y259000D01*
X299796D01*
X301266Y259609D01*
X302312Y260655D01*
X302574D01*
X303549Y260849D01*
X304377Y261402D01*
X313460Y270486D01*
X314013Y271313D01*
X314207Y272288D01*
Y281686D01*
X314013Y282661D01*
X313460Y283488D01*
X307146Y289802D01*
X306320Y290355D01*
X305344Y290549D01*
X303002D01*
X302391Y291734D01*
X303000Y293204D01*
Y294796D01*
X302777Y295333D01*
X303076Y296215D01*
X303431Y296710D01*
X303713Y296746D01*
X304256Y296639D01*
X305074Y295821D01*
X306544Y295212D01*
X308136D01*
X309606Y295821D01*
X310731Y296946D01*
X311340Y298416D01*
Y300008D01*
X310964Y300916D01*
X311664Y302155D01*
X311708Y302186D01*
X337494D01*
X338470Y302380D01*
X339297Y302933D01*
X343695Y307331D01*
X383662D01*
X384637Y307525D01*
X385464Y308078D01*
X396212Y318826D01*
X396765Y319653D01*
X396959Y320628D01*
Y321235D01*
X416467D01*
X416578Y319965D01*
X414613Y318000D01*
X414204D01*
X412734Y317391D01*
X411609Y316266D01*
X411000Y314796D01*
Y313204D01*
X411609Y311734D01*
X412734Y310609D01*
X414204Y310000D01*
X415796D01*
X417266Y310609D01*
X418391Y311734D01*
X419000Y313204D01*
Y314796D01*
X418888Y315066D01*
X421007Y317185D01*
X421560Y318012D01*
X421754Y318987D01*
Y321235D01*
X422410D01*
Y338985D01*
X416959D01*
Y342354D01*
X426056Y351451D01*
X432892D01*
X433734Y350609D01*
X435204Y350000D01*
X436796D01*
X438266Y350609D01*
X439391Y351734D01*
X440000Y353204D01*
Y354796D01*
X439391Y356266D01*
X438266Y357391D01*
X436796Y358000D01*
X435204D01*
X433734Y357391D01*
X432892Y356549D01*
X425000D01*
X424025Y356355D01*
X423198Y355802D01*
X414475Y347080D01*
X413205Y347591D01*
X412596Y349061D01*
X411471Y350186D01*
X410001Y350795D01*
X408409D01*
X407819Y350550D01*
X406549Y351399D01*
Y353892D01*
X407391Y354734D01*
X408000Y356204D01*
Y357796D01*
X407391Y359266D01*
X406266Y360391D01*
X404796Y361000D01*
X403204D01*
X401734Y360391D01*
X400609Y359266D01*
X400000Y357796D01*
Y356204D01*
X400609Y354734D01*
X401451Y353892D01*
Y349865D01*
X401172Y349708D01*
X400181Y349476D01*
X399266Y350391D01*
X397796Y351000D01*
X396204D01*
X394734Y350391D01*
X393609Y349266D01*
X393000Y347796D01*
Y346204D01*
X393609Y344734D01*
X394734Y343609D01*
X396204Y343000D01*
X396583D01*
X396861Y342722D01*
Y338985D01*
X386959D01*
Y399864D01*
X398385Y411290D01*
X399576D01*
X401046Y411899D01*
X402171Y413024D01*
X402780Y414494D01*
Y416086D01*
X402171Y417556D01*
X401046Y418681D01*
X399576Y419290D01*
X397984D01*
X396514Y418681D01*
X395389Y417556D01*
X394780Y416086D01*
Y414895D01*
X383229Y403344D01*
X381959Y403870D01*
Y406294D01*
X385685Y410020D01*
X386876D01*
X388346Y410629D01*
X389471Y411754D01*
X390080Y413224D01*
Y414816D01*
X389471Y416286D01*
X388346Y417411D01*
X386876Y418020D01*
X385284D01*
X383814Y417411D01*
X382689Y416286D01*
X382080Y414816D01*
Y413625D01*
X377608Y409152D01*
X377055Y408326D01*
X376861Y407350D01*
Y402351D01*
X375591Y402099D01*
X375501Y402316D01*
X374376Y403441D01*
X372906Y404050D01*
X371314D01*
X369844Y403441D01*
X368719Y402316D01*
X368110Y400846D01*
Y399291D01*
X368005Y399192D01*
X367007Y398597D01*
X365950Y399655D01*
Y400846D01*
X365341Y402316D01*
X364216Y403441D01*
X362746Y404050D01*
X361154D01*
X359684Y403441D01*
X358559Y402316D01*
X357950Y400846D01*
Y400561D01*
X356680Y400035D01*
X355790Y400925D01*
Y402116D01*
X355181Y403586D01*
X354056Y404711D01*
X352586Y405320D01*
X350994D01*
X349524Y404711D01*
X348399Y403586D01*
X347790Y402116D01*
Y400524D01*
X348399Y399054D01*
X349524Y397929D01*
X350994Y397320D01*
X352185D01*
X361861Y387644D01*
Y381410D01*
X360591Y380884D01*
X340550Y400925D01*
Y402116D01*
X339941Y403586D01*
X338816Y404711D01*
X337346Y405320D01*
X335754D01*
X334284Y404711D01*
X333159Y403586D01*
X332550Y402116D01*
Y400524D01*
X333159Y399054D01*
X334284Y397929D01*
X335754Y397320D01*
X336945D01*
X356861Y377404D01*
Y347589D01*
X355591Y346740D01*
X355206Y346900D01*
X353614D01*
X352819Y346571D01*
X351549Y347355D01*
Y351460D01*
X351676Y351513D01*
X352801Y352638D01*
X353410Y354108D01*
Y355700D01*
X352801Y357170D01*
X351676Y358295D01*
X350923Y358607D01*
X350917Y358616D01*
X350722Y360065D01*
X351391Y360734D01*
X352000Y362204D01*
Y363796D01*
X351391Y365266D01*
X350266Y366391D01*
X348796Y367000D01*
X347204D01*
X345734Y366391D01*
X344609Y365266D01*
X344000Y363796D01*
Y362204D01*
X344058Y362065D01*
X342608Y360614D01*
X342055Y359787D01*
X341861Y358812D01*
Y351689D01*
X340591Y350840D01*
X340206Y351000D01*
X338614D01*
X338229Y350840D01*
X336959Y351689D01*
Y358959D01*
X337542Y359543D01*
X338151Y361013D01*
Y362604D01*
X337542Y364074D01*
X336417Y365200D01*
X334947Y365809D01*
X333356D01*
X331886Y365200D01*
X330760Y364074D01*
X330151Y362604D01*
Y361013D01*
X330760Y359543D01*
X331861Y358442D01*
Y354689D01*
X330591Y353840D01*
X330206Y354000D01*
X328614D01*
X328024Y353755D01*
X326754Y354604D01*
Y362097D01*
X327391Y362734D01*
X328000Y364204D01*
Y365796D01*
X327391Y367266D01*
X326266Y368391D01*
X324796Y369000D01*
X323204D01*
X321734Y368391D01*
X320609Y367266D01*
X320000Y365796D01*
Y364204D01*
X320609Y362734D01*
X321656Y361687D01*
Y338985D01*
X311959D01*
Y344302D01*
X312391Y344734D01*
X313000Y346204D01*
Y347796D01*
X312391Y349266D01*
X311266Y350391D01*
X309796Y351000D01*
X308204D01*
X306734Y350391D01*
X305609Y349266D01*
X305000Y347796D01*
Y346204D01*
X305609Y344734D01*
X306734Y343609D01*
X306861Y343556D01*
Y338985D01*
X306410D01*
Y321570D01*
X306410Y321235D01*
X305424Y320549D01*
X303396D01*
X302410Y321235D01*
Y338985D01*
X301959D01*
Y348590D01*
X301765Y349566D01*
X301212Y350392D01*
X297549Y354056D01*
Y356500D01*
X297500Y356746D01*
Y368000D01*
X285500D01*
Y364078D01*
X281000D01*
X280606Y364000D01*
X280204D01*
X279833Y363846D01*
X279439Y363768D01*
X279105Y363545D01*
X278734Y363391D01*
X278450Y363107D01*
X278116Y362884D01*
X277893Y362550D01*
X277609Y362266D01*
X277455Y361895D01*
X277232Y361561D01*
X277154Y361167D01*
X277000Y360796D01*
Y360394D01*
X276922Y360000D01*
X277000Y359606D01*
Y359204D01*
X277154Y358833D01*
X277232Y358439D01*
X277455Y358105D01*
X277609Y357734D01*
X277893Y357450D01*
X278116Y357116D01*
X278450Y356893D01*
X278734Y356609D01*
X279105Y356455D01*
X279439Y356232D01*
X279833Y356154D01*
X280204Y356000D01*
X280606D01*
X281000Y355922D01*
X285500D01*
Y352000D01*
X292661D01*
X293198Y351198D01*
X296861Y347534D01*
Y338985D01*
X296410D01*
Y325964D01*
X295237Y325478D01*
X290315Y330399D01*
X290092Y330732D01*
X289265Y331285D01*
X288290Y331479D01*
X265998D01*
X265156Y332321D01*
X263686Y332930D01*
X262094D01*
X260624Y332321D01*
X259499Y331196D01*
X258890Y329726D01*
Y328134D01*
X259499Y326664D01*
X260624Y325539D01*
X262094Y324930D01*
X263686D01*
X265156Y325539D01*
X265998Y326381D01*
X287124D01*
X288799Y324706D01*
X288312Y323533D01*
X266144D01*
X265168Y323339D01*
X264341Y322786D01*
X235368Y293813D01*
X163341D01*
X153399Y303754D01*
Y332677D01*
X153205Y333652D01*
X152653Y334479D01*
X143933Y343199D01*
X144379Y343866D01*
X144621Y345085D01*
Y348335D01*
X144379Y349554D01*
X143688Y350588D01*
X142654Y351279D01*
X141489Y351511D01*
Y357990D01*
X143096D01*
X144749Y358433D01*
X146231Y359289D01*
X147441Y360499D01*
X148297Y361981D01*
X148740Y363634D01*
Y365346D01*
X148297Y366999D01*
X147441Y368481D01*
X146231Y369691D01*
X144749Y370547D01*
X143096Y370990D01*
X141384D01*
X139776Y370559D01*
X137374Y372961D01*
Y378345D01*
X137180Y379321D01*
X136627Y380148D01*
X132710Y384065D01*
Y396230D01*
X116210D01*
Y381730D01*
X127835D01*
X130662Y378903D01*
X130176Y377730D01*
X116210D01*
Y372119D01*
X107886D01*
X107583Y373638D01*
X106644Y375044D01*
X105238Y375983D01*
X103580Y376313D01*
X97080D01*
X95422Y375983D01*
X94016Y375044D01*
X93077Y373638D01*
X92747Y371980D01*
Y366480D01*
X93077Y364822D01*
X94016Y363416D01*
X95422Y362477D01*
X97080Y362147D01*
X103580D01*
X105238Y362477D01*
X106644Y363416D01*
X107583Y364822D01*
X107913Y366480D01*
Y367021D01*
X116210D01*
Y363230D01*
X132710D01*
Y368619D01*
X133980Y369145D01*
X136171Y366954D01*
X136025Y366411D01*
X135604Y365780D01*
X135371Y364610D01*
Y351521D01*
X127685D01*
X126466Y351279D01*
X125432Y350588D01*
X124741Y349554D01*
X124499Y348335D01*
Y345085D01*
X124741Y343866D01*
X125432Y342832D01*
X126466Y342141D01*
X127685Y341899D01*
X138744D01*
X138854Y341343D01*
X139407Y340516D01*
X148302Y331621D01*
Y305382D01*
X147128Y304897D01*
X144621Y307404D01*
Y310235D01*
X144379Y311454D01*
X143688Y312488D01*
X142654Y313179D01*
X141435Y313421D01*
X128985D01*
X128459Y314691D01*
X130266Y316499D01*
X141435D01*
X142654Y316741D01*
X143688Y317432D01*
X144379Y318466D01*
X144621Y319685D01*
Y322935D01*
X144379Y324154D01*
X143688Y325188D01*
X142654Y325879D01*
X141435Y326121D01*
X127685D01*
X126466Y325879D01*
X125432Y325188D01*
X124741Y324154D01*
X124499Y322935D01*
Y322267D01*
X123201Y320968D01*
X118490D01*
Y322890D01*
X102490D01*
Y320968D01*
X94360D01*
Y322890D01*
X78360D01*
Y310890D01*
X88592D01*
X99723Y299759D01*
X99724Y299759D01*
X101047Y298875D01*
X102607Y298564D01*
X107551D01*
X107659Y298492D01*
X108053Y298414D01*
X108424Y298260D01*
X108826D01*
X109220Y298182D01*
X109614Y298260D01*
X110016D01*
X110387Y298414D01*
X110781Y298492D01*
X111115Y298715D01*
X111486Y298869D01*
X111770Y299153D01*
X112104Y299376D01*
X112327Y299710D01*
X112611Y299994D01*
X112765Y300365D01*
X112988Y300699D01*
X113066Y301093D01*
X113220Y301464D01*
Y301866D01*
X113298Y302260D01*
X113220Y302654D01*
Y303056D01*
X113066Y303427D01*
X112988Y303821D01*
X112765Y304155D01*
X112611Y304526D01*
X112327Y304810D01*
X112104Y305144D01*
X111721Y305527D01*
X110398Y306411D01*
X108837Y306721D01*
X108837Y306721D01*
X104297D01*
X99379Y311638D01*
X99865Y312812D01*
X102490D01*
Y310890D01*
X118490D01*
Y312812D01*
X124121D01*
X124800Y311542D01*
X124741Y311454D01*
X124499Y310235D01*
Y308125D01*
X111164Y294790D01*
X110904D01*
X109251Y294347D01*
X107769Y293491D01*
X106559Y292281D01*
X105703Y290799D01*
X105260Y289146D01*
Y287434D01*
X105703Y285781D01*
X106559Y284299D01*
X107769Y283089D01*
X109251Y282233D01*
X110904Y281790D01*
X112616D01*
X114269Y282233D01*
X115751Y283089D01*
X116961Y284299D01*
X117817Y285781D01*
X118260Y287434D01*
Y289146D01*
X117817Y290799D01*
X117088Y292062D01*
X128825Y303799D01*
X141017D01*
X159108Y285708D01*
X159935Y285155D01*
X160910Y284961D01*
X240534D01*
X241509Y285155D01*
X242336Y285708D01*
X252827Y296198D01*
X254184Y295760D01*
X254609Y294734D01*
X255734Y293609D01*
X257204Y293000D01*
X258796D01*
X260266Y293609D01*
X261391Y294734D01*
X261425Y294816D01*
X264500D01*
X265311Y293546D01*
X265000Y292796D01*
Y291204D01*
X265609Y289734D01*
X266734Y288609D01*
X268204Y288000D01*
X269796D01*
X271266Y288609D01*
X271885Y289228D01*
X273155Y288702D01*
Y279730D01*
Y269730D01*
X290905D01*
Y269816D01*
X292575D01*
X292609Y269734D01*
X293734Y268609D01*
X295204Y268000D01*
X296796D01*
X298266Y268609D01*
X299391Y269734D01*
X300000Y271204D01*
Y272796D01*
X299898Y273041D01*
X300672Y274480D01*
X301149Y274570D01*
X301234Y274485D01*
X302704Y273876D01*
X304296D01*
X305766Y274485D01*
X306891Y275610D01*
X307500Y277080D01*
Y278672D01*
X306891Y280142D01*
X305766Y281267D01*
X304296Y281876D01*
X302704D01*
X301234Y281267D01*
X300811Y280844D01*
X299806Y281516D01*
X299759Y281622D01*
X300000Y282204D01*
Y283796D01*
X299840Y284181D01*
X300689Y285451D01*
X304288D01*
X309109Y280630D01*
Y273344D01*
X301711Y265946D01*
X301266Y266391D01*
X299796Y267000D01*
X298204D01*
X296734Y266391D01*
X296132Y265789D01*
X282030D01*
X281735Y265730D01*
X273155D01*
Y265730D01*
X271885Y265220D01*
X264500Y272605D01*
Y286000D01*
X245500D01*
Y272605D01*
X239444Y266549D01*
X206556D01*
X202190Y270915D01*
Y282066D01*
X190190D01*
Y266066D01*
X199829D01*
X201714Y264181D01*
X201099Y263000D01*
X189500D01*
Y258589D01*
X189291Y257540D01*
Y255540D01*
X189500Y254491D01*
Y247000D01*
X188574Y246169D01*
X111766D01*
X101182Y256752D01*
X100356Y257305D01*
X99380Y257499D01*
X96070D01*
Y261450D01*
X69175D01*
X67319Y263306D01*
Y277739D01*
X67125Y278715D01*
X66572Y279542D01*
X24900Y321214D01*
X25112Y322579D01*
X25257Y322617D01*
X27423Y323868D01*
X29192Y325637D01*
X30443Y327803D01*
X31090Y330219D01*
Y332721D01*
X30443Y335137D01*
X29192Y337303D01*
X27423Y339072D01*
X25257Y340323D01*
X25112Y340361D01*
X24900Y341726D01*
X60222Y377048D01*
X60775Y377875D01*
X60969Y378851D01*
Y383550D01*
X70480D01*
Y398050D01*
X53980D01*
Y393256D01*
X53931Y393010D01*
Y392010D01*
X53980Y391764D01*
Y383550D01*
X55871D01*
Y379907D01*
X32360Y356395D01*
X31090Y356922D01*
Y358121D01*
X30443Y360537D01*
X29192Y362703D01*
X27423Y364472D01*
X25257Y365723D01*
X22841Y366370D01*
X20339D01*
X17923Y365723D01*
X15757Y364472D01*
X13988Y362703D01*
X12737Y360537D01*
X12090Y358121D01*
Y355619D01*
X12737Y353203D01*
X13988Y351037D01*
X15757Y349268D01*
X17923Y348017D01*
X20339Y347370D01*
X21538D01*
X22064Y346100D01*
X20237Y344272D01*
X19684Y343446D01*
X19490Y342470D01*
Y340742D01*
X17923Y340323D01*
X15757Y339072D01*
X13988Y337303D01*
X12737Y335137D01*
X12090Y332721D01*
Y330219D01*
X12737Y327803D01*
X13988Y325637D01*
X15757Y323868D01*
X17923Y322617D01*
X19490Y322197D01*
Y320470D01*
X19684Y319494D01*
X20237Y318668D01*
X22064Y316840D01*
X21538Y315570D01*
X20339D01*
X17923Y314923D01*
X15757Y313672D01*
X13988Y311903D01*
X12737Y309737D01*
X12090Y307321D01*
Y304819D01*
X12737Y302403D01*
X13988Y300237D01*
X15757Y298468D01*
X17923Y297217D01*
X20339Y296570D01*
X22841D01*
X25257Y297217D01*
X27423Y298468D01*
X29192Y300237D01*
X30443Y302403D01*
X31090Y304819D01*
Y306018D01*
X32360Y306544D01*
X62221Y276683D01*
Y262250D01*
X62415Y261275D01*
X62968Y260448D01*
X64646Y258769D01*
X64120Y257499D01*
X38570D01*
Y261450D01*
X9066D01*
X8070Y261450D01*
X7796Y262607D01*
X7796Y504826D01*
Y508103D01*
X8651Y514601D01*
X10348Y520932D01*
X12856Y526988D01*
X16133Y532664D01*
X20123Y537864D01*
X24758Y542499D01*
X29958Y546489D01*
X35634Y549766D01*
X41690Y552274D01*
X48021Y553970D01*
X54519Y554826D01*
X57796D01*
X57796Y554826D01*
X657796Y554826D01*
D02*
G37*
G36*
X264527Y259904D02*
X264647Y259300D01*
X265200Y258473D01*
X272245Y251428D01*
X272886Y251000D01*
X272902Y250241D01*
X272752Y249678D01*
X272284Y249585D01*
X271457Y249032D01*
X268594Y246169D01*
X226500D01*
Y257451D01*
X241964D01*
X242940Y257645D01*
X243767Y258198D01*
X247020Y261451D01*
X262980D01*
X264527Y259904D01*
D02*
G37*
G36*
X397181Y164078D02*
X396659Y163556D01*
X396050Y162086D01*
Y160494D01*
X396659Y159024D01*
X397784Y157899D01*
X399254Y157290D01*
X399469D01*
X399995Y156020D01*
X385968Y141992D01*
X385415Y141166D01*
X385321Y140690D01*
X377513D01*
X376959Y141366D01*
Y166475D01*
X397181D01*
Y164078D01*
D02*
G37*
%LPC*%
G36*
X588401Y542628D02*
X588401Y542628D01*
X339721D01*
X339721Y542628D01*
X338160Y542318D01*
X336837Y541434D01*
X336837Y541434D01*
X333040Y537636D01*
X332155Y536313D01*
X332062Y535846D01*
X330536Y535437D01*
X328484Y534252D01*
X326808Y532576D01*
X325623Y530524D01*
X325010Y528235D01*
Y525865D01*
X325623Y523576D01*
X326808Y521524D01*
X328484Y519848D01*
X330536Y518663D01*
X332825Y518050D01*
X335195D01*
X337484Y518663D01*
X339536Y519848D01*
X341212Y521524D01*
X342397Y523576D01*
X343010Y525865D01*
Y528235D01*
X342397Y530524D01*
X341212Y532576D01*
X340363Y533425D01*
X341410Y534472D01*
X377708D01*
X378234Y533202D01*
X377608Y532576D01*
X376423Y530524D01*
X375810Y528235D01*
Y525865D01*
X376423Y523576D01*
X377608Y521524D01*
X379284Y519848D01*
X381336Y518663D01*
X383625Y518050D01*
X385995D01*
X388284Y518663D01*
X390336Y519848D01*
X392012Y521524D01*
X393197Y523576D01*
X393810Y525865D01*
Y528235D01*
X393197Y530524D01*
X392012Y532576D01*
X391386Y533202D01*
X391912Y534472D01*
X452537D01*
X452904Y533202D01*
X451854Y532396D01*
X450812Y531038D01*
X450157Y529457D01*
X449934Y527760D01*
Y526838D01*
X443800D01*
Y526851D01*
X439187Y526488D01*
X434687Y525407D01*
X430411Y523637D01*
X426466Y521219D01*
X422947Y518213D01*
X419941Y514694D01*
X417523Y510749D01*
X415752Y506473D01*
X414672Y501973D01*
X414309Y497360D01*
X414322D01*
Y445723D01*
X410150D01*
X407906Y445276D01*
X406004Y444006D01*
X404734Y442104D01*
X404287Y439860D01*
Y439688D01*
X394690D01*
X392320Y439376D01*
X390477Y438613D01*
X386860D01*
X385202Y438283D01*
X383796Y437344D01*
X382857Y435938D01*
X382527Y434280D01*
Y426780D01*
X382857Y425122D01*
X383796Y423716D01*
X385202Y422777D01*
X386860Y422447D01*
X392360D01*
X394018Y422777D01*
X395424Y423716D01*
X396363Y425122D01*
X396693Y426780D01*
Y431532D01*
X404287D01*
Y431360D01*
X404734Y429117D01*
X406004Y427215D01*
X407906Y425944D01*
X410150Y425497D01*
X413752D01*
Y414054D01*
X412629Y412931D01*
X411773Y411449D01*
X411330Y409796D01*
Y408084D01*
X411773Y406431D01*
X412629Y404949D01*
X413839Y403739D01*
X415321Y402883D01*
X416974Y402440D01*
X418686D01*
X420339Y402883D01*
X421821Y403739D01*
X423031Y404949D01*
X423887Y406431D01*
X424330Y408084D01*
Y409796D01*
X423887Y411449D01*
X423031Y412931D01*
X421908Y414054D01*
Y425497D01*
X426650D01*
X428894Y425944D01*
X430796Y427215D01*
X432066Y429117D01*
X432513Y431360D01*
Y439860D01*
X432066Y442104D01*
X430796Y444006D01*
X428894Y445276D01*
X426650Y445723D01*
X422478D01*
Y497360D01*
X422442Y497542D01*
X422835Y501530D01*
X424051Y505540D01*
X426027Y509236D01*
X428685Y512475D01*
X431924Y515133D01*
X435620Y517109D01*
X439630Y518325D01*
X443618Y518718D01*
X443800Y518682D01*
X449934D01*
Y517760D01*
X450157Y516063D01*
X450812Y514482D01*
X451854Y513124D01*
X453212Y512082D01*
X454793Y511427D01*
X456490Y511204D01*
X466490D01*
X468187Y511427D01*
X469768Y512082D01*
X471126Y513124D01*
X472168Y514482D01*
X472823Y516063D01*
X473046Y517760D01*
Y527760D01*
X472823Y529457D01*
X472168Y531038D01*
X471126Y532396D01*
X470076Y533202D01*
X470443Y534472D01*
X486235D01*
X486576Y533202D01*
X484429Y531962D01*
X482288Y529821D01*
X480774Y527199D01*
X479990Y524274D01*
Y521246D01*
X480774Y518321D01*
X482288Y515699D01*
X484429Y513558D01*
X487051Y512044D01*
X489976Y511260D01*
X493004D01*
X495929Y512044D01*
X498551Y513558D01*
X500692Y515699D01*
X502206Y518321D01*
X502990Y521246D01*
Y524274D01*
X502206Y527199D01*
X500692Y529821D01*
X498551Y531962D01*
X496404Y533202D01*
X496745Y534472D01*
X516235D01*
X516575Y533202D01*
X514429Y531962D01*
X512288Y529821D01*
X510774Y527199D01*
X509990Y524274D01*
Y521246D01*
X510774Y518321D01*
X512288Y515699D01*
X514429Y513558D01*
X517051Y512044D01*
X519976Y511260D01*
X523004D01*
X525929Y512044D01*
X528551Y513558D01*
X530692Y515699D01*
X532206Y518321D01*
X532990Y521246D01*
Y524274D01*
X532206Y527199D01*
X530692Y529821D01*
X528551Y531962D01*
X526404Y533202D01*
X526745Y534472D01*
X586712D01*
X587827Y533357D01*
X587719Y533196D01*
X587292Y531050D01*
Y523050D01*
X587719Y520904D01*
X588935Y519085D01*
X590754Y517869D01*
X592900Y517442D01*
X600900D01*
X603046Y517869D01*
X604865Y519085D01*
X606081Y520904D01*
X606508Y523050D01*
Y531050D01*
X606081Y533196D01*
X604865Y535015D01*
X603046Y536231D01*
X600900Y536658D01*
X595779D01*
X595210Y537509D01*
X595210Y537509D01*
X591285Y541434D01*
X589962Y542318D01*
X589703Y542369D01*
X588401Y542628D01*
D02*
G37*
G36*
X191053Y532270D02*
X188947D01*
X186912Y531725D01*
X185088Y530672D01*
X183598Y529182D01*
X182545Y527358D01*
X182000Y525323D01*
Y523217D01*
X182545Y521182D01*
X183598Y519358D01*
X185088Y517868D01*
X186912Y516815D01*
X188947Y516270D01*
X191053D01*
X193088Y516815D01*
X194912Y517868D01*
X196402Y519358D01*
X197455Y521182D01*
X198000Y523217D01*
Y525323D01*
X197455Y527358D01*
X196402Y529182D01*
X194912Y530672D01*
X193088Y531725D01*
X191053Y532270D01*
D02*
G37*
G36*
X128553D02*
X126447D01*
X124412Y531725D01*
X122588Y530672D01*
X121098Y529182D01*
X120045Y527358D01*
X119500Y525323D01*
Y523217D01*
X120045Y521182D01*
X121098Y519358D01*
X122588Y517868D01*
X124412Y516815D01*
X126447Y516270D01*
X128553D01*
X130588Y516815D01*
X132412Y517868D01*
X133902Y519358D01*
X134955Y521182D01*
X135500Y523217D01*
Y525323D01*
X134955Y527358D01*
X133902Y529182D01*
X132412Y530672D01*
X130588Y531725D01*
X128553Y532270D01*
D02*
G37*
G36*
X598151Y511150D02*
X595649D01*
X593233Y510503D01*
X591067Y509252D01*
X589298Y507483D01*
X588047Y505317D01*
X587400Y502901D01*
Y500399D01*
X587924Y498442D01*
X533196Y443714D01*
X532312Y442391D01*
X532235Y442006D01*
X530949Y442048D01*
X530906Y442372D01*
X530226Y444014D01*
X529144Y445424D01*
X527734Y446506D01*
X526092Y447186D01*
X524330Y447418D01*
X501830D01*
X500068Y447186D01*
X498426Y446506D01*
X497016Y445424D01*
X495934Y444014D01*
X495254Y442372D01*
X495022Y440610D01*
Y430110D01*
X495254Y428348D01*
X495934Y426706D01*
X497016Y425296D01*
X498426Y424214D01*
X500068Y423534D01*
X501830Y423302D01*
X510021D01*
Y406458D01*
X509689Y406126D01*
X509080Y404656D01*
Y403064D01*
X509689Y401594D01*
X510021Y401262D01*
Y384327D01*
X509019Y384128D01*
X507696Y383244D01*
X506812Y381921D01*
X506502Y380360D01*
Y364360D01*
X506812Y362799D01*
X507696Y361476D01*
X509019Y360592D01*
X510580Y360282D01*
X515580D01*
X517141Y360592D01*
X518464Y361476D01*
X519348Y362799D01*
X519658Y364360D01*
Y380360D01*
X519348Y381921D01*
X518464Y383244D01*
X517141Y384128D01*
X516139Y384327D01*
Y401262D01*
X516471Y401594D01*
X517080Y403064D01*
Y404656D01*
X516471Y406126D01*
X516139Y406458D01*
Y423302D01*
X524330D01*
X526092Y423534D01*
X527734Y424214D01*
X529144Y425296D01*
X530226Y426706D01*
X530732Y427926D01*
X532002Y427674D01*
Y411659D01*
X531609Y411266D01*
X531000Y409796D01*
Y408204D01*
X531609Y406734D01*
X532002Y406342D01*
Y384116D01*
X530696Y383244D01*
X529812Y381921D01*
X529502Y380360D01*
Y364360D01*
X529812Y362799D01*
X530696Y361476D01*
X530782Y361419D01*
X530719Y359933D01*
X529916Y359131D01*
X529308Y357661D01*
Y356069D01*
X529916Y354599D01*
X531042Y353474D01*
X532512Y352865D01*
X534103D01*
X535573Y353474D01*
X536415Y354316D01*
X565145D01*
X566120Y354510D01*
X566947Y355062D01*
X569835Y357950D01*
X571026D01*
X572496Y358559D01*
X573621Y359684D01*
X574230Y361154D01*
Y362746D01*
X573621Y364216D01*
X572496Y365341D01*
X571026Y365950D01*
X569434D01*
X567964Y365341D01*
X566839Y364216D01*
X566230Y362746D01*
Y361555D01*
X564089Y359414D01*
X541196D01*
X541013Y359648D01*
X541289Y361359D01*
X541464Y361476D01*
X542348Y362799D01*
X542658Y364360D01*
Y380360D01*
X542348Y381921D01*
X541464Y383244D01*
X540158Y384116D01*
Y439141D01*
X593692Y492674D01*
X595649Y492150D01*
X598151D01*
X600567Y492797D01*
X602733Y494048D01*
X604502Y495817D01*
X605753Y497983D01*
X606400Y500399D01*
Y502901D01*
X605753Y505317D01*
X604502Y507483D01*
X602733Y509252D01*
X600567Y510503D01*
X598151Y511150D01*
D02*
G37*
G36*
X493004Y504260D02*
X489976D01*
X487051Y503476D01*
X484429Y501962D01*
X482288Y499821D01*
X480774Y497199D01*
X479990Y494274D01*
Y491246D01*
X480774Y488321D01*
X482288Y485699D01*
X484429Y483558D01*
X487051Y482044D01*
X489976Y481260D01*
X493004D01*
X495929Y482044D01*
X498551Y483558D01*
X500692Y485699D01*
X502206Y488321D01*
X502990Y491246D01*
Y494274D01*
X502206Y497199D01*
X500692Y499821D01*
X498551Y501962D01*
X495929Y503476D01*
X493004Y504260D01*
D02*
G37*
G36*
X463004D02*
X459976D01*
X457051Y503476D01*
X454429Y501962D01*
X452288Y499821D01*
X450774Y497199D01*
X449990Y494274D01*
Y491246D01*
X450774Y488321D01*
X452288Y485699D01*
X454429Y483558D01*
X457051Y482044D01*
X459976Y481260D01*
X463004D01*
X465929Y482044D01*
X468551Y483558D01*
X470692Y485699D01*
X472206Y488321D01*
X472990Y491246D01*
Y494274D01*
X472206Y497199D01*
X470692Y499821D01*
X468551Y501962D01*
X465929Y503476D01*
X463004Y504260D01*
D02*
G37*
G36*
X552167Y491370D02*
X550193D01*
X548285Y490859D01*
X546575Y489871D01*
X545178Y488475D01*
X544191Y486765D01*
X543680Y484857D01*
Y482883D01*
X544191Y480975D01*
X545178Y479265D01*
X546575Y477868D01*
X548285Y476881D01*
X550193Y476370D01*
X552167D01*
X554075Y476881D01*
X555785Y477868D01*
X557182Y479265D01*
X558169Y480975D01*
X558680Y482883D01*
Y484857D01*
X558169Y486765D01*
X557182Y488475D01*
X555785Y489871D01*
X554075Y490859D01*
X552167Y491370D01*
D02*
G37*
G36*
X432787D02*
X430813D01*
X428905Y490859D01*
X427195Y489871D01*
X425798Y488475D01*
X424811Y486765D01*
X424300Y484857D01*
Y482883D01*
X424811Y480975D01*
X425798Y479265D01*
X427195Y477868D01*
X428905Y476881D01*
X430813Y476370D01*
X432787D01*
X434695Y476881D01*
X436405Y477868D01*
X437802Y479265D01*
X438789Y480975D01*
X439300Y482883D01*
Y484857D01*
X438789Y486765D01*
X437802Y488475D01*
X436405Y489871D01*
X434695Y490859D01*
X432787Y491370D01*
D02*
G37*
G36*
X183676Y509460D02*
X182084D01*
X180614Y508851D01*
X179489Y507726D01*
X178880Y506256D01*
Y504664D01*
X179489Y503194D01*
X180614Y502069D01*
X182084Y501460D01*
X182554D01*
X185691Y498323D01*
Y494770D01*
X182250D01*
Y472770D01*
X195250D01*
Y494770D01*
X191809D01*
Y499590D01*
X191809Y499590D01*
X191576Y500760D01*
X190913Y501753D01*
X190913Y501753D01*
X186880Y505786D01*
Y506256D01*
X186271Y507726D01*
X185146Y508851D01*
X183676Y509460D01*
D02*
G37*
G36*
X375446Y501840D02*
X373854D01*
X372384Y501231D01*
X371259Y500106D01*
X370731Y498830D01*
X364575Y492675D01*
X363823Y491549D01*
X363558Y490220D01*
Y474511D01*
X363030Y473236D01*
Y471644D01*
X363639Y470174D01*
X364764Y469049D01*
X366234Y468440D01*
X367826D01*
X369296Y469049D01*
X370421Y470174D01*
X371030Y471644D01*
Y473236D01*
X370502Y474511D01*
Y488782D01*
X375640Y493921D01*
X376916Y494449D01*
X378041Y495574D01*
X378650Y497044D01*
Y498636D01*
X378041Y500106D01*
X376916Y501231D01*
X375446Y501840D01*
D02*
G37*
G36*
X598151Y485750D02*
X595649D01*
X593233Y485103D01*
X591067Y483852D01*
X589298Y482083D01*
X588047Y479917D01*
X587400Y477501D01*
Y474999D01*
X588047Y472583D01*
X589298Y470417D01*
X591067Y468648D01*
X593233Y467397D01*
X595649Y466750D01*
X598151D01*
X600567Y467397D01*
X602733Y468648D01*
X604502Y470417D01*
X605753Y472583D01*
X606400Y474999D01*
Y477501D01*
X605753Y479917D01*
X604502Y482083D01*
X602733Y483852D01*
X600567Y485103D01*
X598151Y485750D01*
D02*
G37*
G36*
X240067Y543047D02*
X215067D01*
Y527047D01*
X218172D01*
Y464742D01*
X217856Y464500D01*
X216144D01*
X214491Y464057D01*
X213009Y463201D01*
X211799Y461991D01*
X210943Y460509D01*
X210500Y458856D01*
Y457144D01*
X210943Y455491D01*
X211799Y454009D01*
X213009Y452799D01*
X214491Y451943D01*
X216144Y451500D01*
X217262D01*
X218084Y450822D01*
X218262Y450294D01*
X218482Y449189D01*
X219366Y447866D01*
X228116Y439116D01*
X229439Y438232D01*
X231000Y437922D01*
X231000Y437922D01*
X287000D01*
X287394Y438000D01*
X287796D01*
X288167Y438154D01*
X288561Y438232D01*
X288895Y438455D01*
X289266Y438609D01*
X289550Y438893D01*
X289884Y439116D01*
X290107Y439450D01*
X290391Y439734D01*
X290545Y440105D01*
X290768Y440439D01*
X290846Y440833D01*
X291000Y441204D01*
Y441606D01*
X291078Y442000D01*
X291000Y442394D01*
Y442796D01*
X290846Y443167D01*
X290768Y443561D01*
X290545Y443895D01*
X290391Y444266D01*
X290107Y444550D01*
X289884Y444884D01*
X289550Y445107D01*
X289266Y445391D01*
X288895Y445545D01*
X288561Y445768D01*
X288167Y445846D01*
X287796Y446000D01*
X287394D01*
X287000Y446078D01*
X232689D01*
X226328Y452439D01*
Y527047D01*
X234299D01*
X246344Y515002D01*
X239686Y508344D01*
X238802Y507021D01*
X238492Y505460D01*
X238492Y505460D01*
Y469510D01*
X227820D01*
Y454010D01*
X257320D01*
Y469510D01*
X246648D01*
Y503771D01*
X255614Y512736D01*
X255614Y512736D01*
X255837Y513070D01*
X256121Y513354D01*
X256275Y513725D01*
X256498Y514059D01*
X256576Y514453D01*
X256730Y514824D01*
Y515226D01*
X256808Y515620D01*
X256730Y516014D01*
Y516416D01*
X256576Y516787D01*
X256498Y517181D01*
X256275Y517515D01*
X256121Y517886D01*
X255837Y518170D01*
X255614Y518504D01*
X255231Y518886D01*
X253908Y519771D01*
X252912Y519969D01*
X240067Y532814D01*
Y543047D01*
D02*
G37*
G36*
X155250Y494770D02*
X142250D01*
Y472770D01*
X145278D01*
Y463180D01*
X140340D01*
Y448680D01*
X156840D01*
Y463180D01*
X152222D01*
Y472770D01*
X155250D01*
Y494770D01*
D02*
G37*
G36*
X595070Y448113D02*
X588570D01*
X586912Y447783D01*
X585506Y446844D01*
X584567Y445438D01*
X584237Y443780D01*
Y438280D01*
X584567Y436622D01*
X585506Y435216D01*
X586912Y434277D01*
X588570Y433947D01*
X595070D01*
X596728Y434277D01*
X598134Y435216D01*
X599073Y436622D01*
X599403Y438280D01*
Y443780D01*
X599073Y445438D01*
X598134Y446844D01*
X596728Y447783D01*
X595070Y448113D01*
D02*
G37*
G36*
X568400D02*
X561900D01*
X560242Y447783D01*
X558836Y446844D01*
X557897Y445438D01*
X557567Y443780D01*
Y438280D01*
X557897Y436622D01*
X558836Y435216D01*
X560242Y434277D01*
X561900Y433947D01*
X568400D01*
X570058Y434277D01*
X571464Y435216D01*
X572403Y436622D01*
X572733Y438280D01*
Y443780D01*
X572403Y445438D01*
X571464Y446844D01*
X570058Y447783D01*
X568400Y448113D01*
D02*
G37*
G36*
X621720Y446508D02*
X612720D01*
X610769Y446120D01*
X609115Y445015D01*
X608010Y443361D01*
X607622Y441410D01*
Y434410D01*
X608010Y432459D01*
X609115Y430805D01*
X610769Y429700D01*
X612720Y429312D01*
X621720D01*
X623671Y429700D01*
X625325Y430805D01*
X626430Y432459D01*
X626818Y434410D01*
Y441410D01*
X626430Y443361D01*
X625325Y445015D01*
X623671Y446120D01*
X621720Y446508D01*
D02*
G37*
G36*
X647055Y434690D02*
X645065D01*
X643228Y433929D01*
X641821Y432522D01*
X641060Y430685D01*
Y428695D01*
X641821Y426858D01*
X643228Y425451D01*
X645065Y424690D01*
X647055D01*
X648892Y425451D01*
X650299Y426858D01*
X651060Y428695D01*
Y430685D01*
X650299Y432522D01*
X648892Y433929D01*
X647055Y434690D01*
D02*
G37*
G36*
X156840Y444680D02*
X140340D01*
Y430180D01*
X156840D01*
Y434881D01*
X158414D01*
X164910Y428385D01*
Y427194D01*
X165519Y425724D01*
X166644Y424599D01*
X168114Y423990D01*
X169706D01*
X171176Y424599D01*
X172301Y425724D01*
X172910Y427194D01*
Y428786D01*
X172301Y430256D01*
X171176Y431381D01*
X169706Y431990D01*
X168515D01*
X161272Y439232D01*
X160445Y439785D01*
X159470Y439979D01*
X156840D01*
Y444680D01*
D02*
G37*
G36*
X293000Y486480D02*
X268000D01*
Y470480D01*
X279132D01*
Y463420D01*
X268460D01*
Y447920D01*
X297960D01*
Y453122D01*
X305895D01*
X331371Y427646D01*
X331371Y427646D01*
X332694Y426762D01*
X334254Y426452D01*
X347592D01*
X347857Y425122D01*
X348796Y423716D01*
X350202Y422777D01*
X351860Y422447D01*
X357360D01*
X359018Y422777D01*
X360424Y423716D01*
X361363Y425122D01*
X361693Y426780D01*
Y434280D01*
X361363Y435938D01*
X360424Y437344D01*
X359018Y438283D01*
X357360Y438613D01*
X351860D01*
X350202Y438283D01*
X348796Y437344D01*
X347857Y435938D01*
X347592Y434608D01*
X335944D01*
X310468Y460084D01*
X309145Y460968D01*
X307584Y461278D01*
X307584Y461278D01*
X297960D01*
Y463420D01*
X287288D01*
Y470480D01*
X293000D01*
Y486480D01*
D02*
G37*
G36*
X25590Y442678D02*
X17590D01*
X15444Y442251D01*
X13625Y441035D01*
X12409Y439216D01*
X11982Y437070D01*
Y429070D01*
X12409Y426924D01*
X13625Y425105D01*
X15444Y423889D01*
X17590Y423462D01*
X25590D01*
X27736Y423889D01*
X29555Y425105D01*
X30771Y426924D01*
X31117Y428662D01*
X32366Y429209D01*
X53980Y407595D01*
Y402050D01*
X70480D01*
Y416550D01*
X53980D01*
Y416464D01*
X52807Y415978D01*
X33912Y434872D01*
X33085Y435425D01*
X32110Y435619D01*
X31198D01*
Y437070D01*
X30771Y439216D01*
X29555Y441035D01*
X27736Y442251D01*
X25590Y442678D01*
D02*
G37*
G36*
X601506Y409130D02*
X599914D01*
X598444Y408521D01*
X597319Y407396D01*
X596710Y405926D01*
Y404334D01*
X597319Y402864D01*
X598444Y401739D01*
X599914Y401130D01*
X601506D01*
X602976Y401739D01*
X604101Y402864D01*
X604710Y404334D01*
Y405926D01*
X604101Y407396D01*
X602976Y408521D01*
X601506Y409130D01*
D02*
G37*
G36*
X22841Y417170D02*
X20339D01*
X17923Y416523D01*
X15757Y415272D01*
X13988Y413503D01*
X12737Y411337D01*
X12090Y408921D01*
Y406419D01*
X12737Y404003D01*
X13988Y401837D01*
X15757Y400068D01*
X17923Y398817D01*
X20339Y398170D01*
X22841D01*
X25257Y398817D01*
X27423Y400068D01*
X29192Y401837D01*
X30443Y404003D01*
X31090Y406419D01*
Y408921D01*
X30443Y411337D01*
X29192Y413503D01*
X27423Y415272D01*
X25257Y416523D01*
X22841Y417170D01*
D02*
G37*
G36*
X564796Y404000D02*
X563204D01*
X561734Y403391D01*
X560609Y402266D01*
X560000Y400796D01*
Y399204D01*
X560609Y397734D01*
X561734Y396609D01*
X563204Y396000D01*
X564796D01*
X566266Y396609D01*
X567391Y397734D01*
X568000Y399204D01*
Y400796D01*
X567391Y402266D01*
X566266Y403391D01*
X564796Y404000D01*
D02*
G37*
G36*
X211676Y423060D02*
X209964D01*
X208311Y422617D01*
X206829Y421761D01*
X205619Y420551D01*
X204763Y419069D01*
X204320Y417416D01*
Y415704D01*
X204763Y414051D01*
X205619Y412569D01*
X206829Y411359D01*
X208311Y410503D01*
X209964Y410060D01*
X211676D01*
X212255Y410215D01*
X226345Y396125D01*
X227471Y395373D01*
X228800Y395108D01*
X237020D01*
Y392580D01*
X252953D01*
Y382923D01*
X249610Y379580D01*
X240760D01*
X240425Y379647D01*
X240089Y379580D01*
X237020D01*
Y376510D01*
X236953Y376175D01*
X237020Y375840D01*
Y367580D01*
X254520D01*
Y374670D01*
X258880Y379030D01*
X259632Y380156D01*
X259889Y381444D01*
X259911Y381495D01*
X261167Y382352D01*
X262034Y382120D01*
X263746D01*
X265399Y382563D01*
X266881Y383419D01*
X268091Y384629D01*
X268947Y386111D01*
X269390Y387764D01*
Y389476D01*
X268947Y391129D01*
X268091Y392611D01*
X266881Y393821D01*
X265399Y394677D01*
X263746Y395120D01*
X262034D01*
X261167Y394888D01*
X259897Y395784D01*
Y412089D01*
X260340Y413160D01*
Y414751D01*
X259731Y416221D01*
X258606Y417347D01*
X257136Y417956D01*
X255545D01*
X254074Y417347D01*
X252949Y416221D01*
X252696Y415610D01*
X251321D01*
X251041Y416286D01*
X249916Y417411D01*
X248446Y418020D01*
X246854D01*
X245384Y417411D01*
X244259Y416286D01*
X243650Y414816D01*
Y413224D01*
X244178Y411949D01*
Y404580D01*
X237020D01*
Y402052D01*
X230238D01*
X217165Y415125D01*
X217320Y415704D01*
Y417416D01*
X216877Y419069D01*
X216021Y420551D01*
X214811Y421761D01*
X213329Y422617D01*
X211676Y423060D01*
D02*
G37*
G36*
X172306Y405280D02*
X170594D01*
X168941Y404837D01*
X167459Y403981D01*
X166249Y402771D01*
X165393Y401289D01*
X164950Y399636D01*
Y397924D01*
X165393Y396271D01*
X166249Y394789D01*
X167459Y393579D01*
X168941Y392723D01*
X170594Y392280D01*
X172306D01*
X173959Y392723D01*
X175441Y393579D01*
X176651Y394789D01*
X177190Y395721D01*
X192520D01*
Y392580D01*
X203961D01*
Y387354D01*
X203961Y387354D01*
X204194Y386183D01*
X204857Y385191D01*
X209198Y380850D01*
X208672Y379580D01*
X196846D01*
X194533Y381893D01*
X193541Y382556D01*
X192370Y382789D01*
X192370Y382789D01*
X177190D01*
X176651Y383721D01*
X175441Y384931D01*
X173959Y385787D01*
X172306Y386230D01*
X170594D01*
X168941Y385787D01*
X167459Y384931D01*
X166249Y383721D01*
X165393Y382239D01*
X164950Y380586D01*
Y378874D01*
X165393Y377221D01*
X166249Y375739D01*
X167459Y374529D01*
X168941Y373673D01*
X170594Y373230D01*
X172306D01*
X173959Y373673D01*
X175441Y374529D01*
X176651Y375739D01*
X177190Y376671D01*
X191103D01*
X192520Y375254D01*
Y367580D01*
X210020D01*
Y370521D01*
X213163D01*
X239891Y343793D01*
X239405Y342620D01*
X233300D01*
Y337069D01*
X200235D01*
X199688Y337888D01*
X198654Y338579D01*
X197435Y338821D01*
X183685D01*
X182466Y338579D01*
X181432Y337888D01*
X180741Y336854D01*
X180499Y335635D01*
Y332385D01*
X180741Y331166D01*
X181432Y330132D01*
X182466Y329441D01*
X183685Y329199D01*
X197435D01*
X198654Y329441D01*
X199688Y330132D01*
X200235Y330951D01*
X233300D01*
Y330620D01*
X244557D01*
X245044Y329447D01*
X241306Y325709D01*
X225170D01*
Y328650D01*
X209170D01*
Y324369D01*
X200235D01*
X199688Y325188D01*
X198654Y325879D01*
X197435Y326121D01*
X183685D01*
X182466Y325879D01*
X181432Y325188D01*
X180741Y324154D01*
X180499Y322935D01*
Y319685D01*
X180741Y318466D01*
X181432Y317432D01*
X182466Y316741D01*
X183685Y316499D01*
X197435D01*
X198654Y316741D01*
X199688Y317432D01*
X200235Y318251D01*
X209170D01*
Y316650D01*
X225170D01*
Y319591D01*
X242572D01*
X242573Y319591D01*
X243743Y319824D01*
X244736Y320487D01*
X252963Y328714D01*
X252963Y328714D01*
X253626Y329707D01*
X253859Y330877D01*
X253859Y330877D01*
Y343574D01*
X253859Y343574D01*
X253626Y344744D01*
X252963Y345737D01*
X252963Y345737D01*
X210079Y388621D01*
Y395580D01*
X210020Y395876D01*
Y404580D01*
X192520D01*
Y401839D01*
X177190D01*
X176651Y402771D01*
X175441Y403981D01*
X173959Y404837D01*
X172306Y405280D01*
D02*
G37*
G36*
X310500Y363059D02*
X309329Y362826D01*
X308337Y362163D01*
X307674Y361171D01*
X307441Y360000D01*
Y358000D01*
X307674Y356829D01*
X308337Y355837D01*
X309329Y355174D01*
X310500Y354941D01*
X311670Y355174D01*
X312663Y355837D01*
X313326Y356829D01*
X313559Y358000D01*
Y360000D01*
X313326Y361171D01*
X312663Y362163D01*
X311670Y362826D01*
X310500Y363059D01*
D02*
G37*
G36*
X652060Y412440D02*
X635560D01*
Y410509D01*
X633755D01*
X632780Y410315D01*
X631953Y409762D01*
X620246Y398055D01*
X607602D01*
X606627Y397861D01*
X605800Y397309D01*
X596522Y388031D01*
X595811Y388741D01*
X594329Y389597D01*
X592676Y390040D01*
X590964D01*
X589311Y389597D01*
X587829Y388741D01*
X586619Y387531D01*
X585763Y386049D01*
X585320Y384396D01*
Y382684D01*
X585763Y381031D01*
X586619Y379549D01*
X587829Y378339D01*
X589311Y377483D01*
X590964Y377040D01*
X592676D01*
X593081Y377149D01*
X594351Y376174D01*
Y364063D01*
X592650D01*
X590406Y363616D01*
X588504Y362346D01*
X587234Y360444D01*
X586787Y358200D01*
Y341700D01*
X587234Y339456D01*
X588504Y337555D01*
X590406Y336284D01*
X592650Y335837D01*
X594351D01*
Y332749D01*
X588184D01*
X587208Y332555D01*
X586381Y332002D01*
X559538Y305159D01*
X558985Y304332D01*
X558791Y303356D01*
Y290517D01*
X555983Y287710D01*
X554810Y288196D01*
Y295550D01*
X532310D01*
Y283369D01*
X481600D01*
X478232Y286737D01*
X478719Y287910D01*
X485990D01*
Y303910D01*
X477595D01*
X476972Y304532D01*
X476146Y305085D01*
X475170Y305279D01*
X445665D01*
Y305730D01*
X427915D01*
Y300279D01*
X426331D01*
X420008Y306602D01*
X419181Y307155D01*
X418205Y307349D01*
X408238D01*
X407396Y308191D01*
X405926Y308800D01*
X404334D01*
X402864Y308191D01*
X401739Y307066D01*
X401130Y305596D01*
Y304004D01*
X401739Y302534D01*
X402864Y301409D01*
X404334Y300800D01*
X405926D01*
X407396Y301409D01*
X408238Y302251D01*
X410935D01*
X411491Y300981D01*
X411000Y299796D01*
Y298204D01*
X411609Y296734D01*
X412451Y295892D01*
Y294002D01*
X411266Y293391D01*
X409796Y294000D01*
X408204D01*
X406734Y293391D01*
X405609Y292266D01*
X405000Y290796D01*
Y289204D01*
X405609Y287734D01*
X406734Y286609D01*
X408204Y286000D01*
X409395D01*
X412065Y283330D01*
X411266Y282391D01*
X409796Y283000D01*
X408204D01*
X406734Y282391D01*
X405609Y281266D01*
X405000Y279796D01*
Y278204D01*
X405609Y276734D01*
X406734Y275609D01*
X408204Y275000D01*
X409395D01*
X413065Y271330D01*
X412266Y270391D01*
X410796Y271000D01*
X409204D01*
X407734Y270391D01*
X406609Y269266D01*
X406000Y267796D01*
Y266204D01*
X406609Y264734D01*
X407734Y263609D01*
X409204Y263000D01*
X410796D01*
X410974Y263074D01*
X413120Y260928D01*
X413947Y260375D01*
X414922Y260181D01*
X416865D01*
X417462Y258911D01*
X417000Y257796D01*
Y256204D01*
X417609Y254734D01*
X418734Y253609D01*
X420204Y253000D01*
X421796D01*
X423266Y253609D01*
X424391Y254734D01*
X424425Y254816D01*
X427915D01*
Y249730D01*
Y239730D01*
Y229730D01*
Y219730D01*
Y210279D01*
X423326D01*
X422000Y211605D01*
Y212796D01*
X421391Y214266D01*
X420266Y215391D01*
X418796Y216000D01*
X417204D01*
X415734Y215391D01*
X414609Y214266D01*
X414000Y212796D01*
Y211204D01*
X414609Y209734D01*
X415734Y208609D01*
X417204Y208000D01*
X417537D01*
X417781Y207635D01*
X417722Y207285D01*
X417203Y206213D01*
X416099Y205756D01*
X414974Y204631D01*
X414365Y203161D01*
Y201569D01*
X414974Y200099D01*
X416099Y198974D01*
X417569Y198365D01*
X419161D01*
X420631Y198974D01*
X421473Y199816D01*
X427915D01*
Y189730D01*
X440616D01*
Y184215D01*
X440810Y183239D01*
X441363Y182413D01*
X479458Y144317D01*
X479249Y142731D01*
X478609Y142361D01*
X477399Y141151D01*
X476543Y139669D01*
X476100Y138016D01*
Y136304D01*
X476543Y134651D01*
X477399Y133169D01*
X478609Y131959D01*
X480091Y131103D01*
X481744Y130660D01*
X483456D01*
X485109Y131103D01*
X486591Y131959D01*
X487801Y133169D01*
X488171Y133809D01*
X489757Y134018D01*
X493559Y130217D01*
X494386Y129664D01*
X495361Y129470D01*
X520552D01*
X528034Y121988D01*
X528515Y121666D01*
X528867Y121237D01*
X528901Y120132D01*
X528601Y119684D01*
X528359Y118465D01*
Y117796D01*
X524471Y113908D01*
X513460D01*
Y115830D01*
X497460D01*
Y113273D01*
X488060D01*
Y114560D01*
X472060D01*
Y112638D01*
X466175D01*
X465652Y112988D01*
X464091Y113298D01*
X464091Y113298D01*
X463550D01*
X463156Y113220D01*
X462754D01*
X462383Y113066D01*
X461989Y112988D01*
X461655Y112765D01*
X461284Y112611D01*
X461000Y112327D01*
X460666Y112104D01*
X460443Y111770D01*
X460159Y111486D01*
X460005Y111115D01*
X459782Y110781D01*
X459704Y110387D01*
X459550Y110016D01*
Y109614D01*
X459472Y109220D01*
X459550Y108826D01*
Y108424D01*
X459704Y108053D01*
X459782Y107659D01*
X460005Y107325D01*
X460159Y106954D01*
X460443Y106670D01*
X460666Y106336D01*
X461000Y106113D01*
X461284Y105829D01*
X461655Y105675D01*
X461989Y105452D01*
X462293Y105392D01*
X463190Y104792D01*
X464751Y104482D01*
X472060D01*
Y102560D01*
X488060D01*
Y105117D01*
X497460D01*
Y103830D01*
X513460D01*
Y105752D01*
X526160D01*
X526160Y105752D01*
X527127Y105944D01*
X527194Y105934D01*
X528062Y105386D01*
X528226Y105216D01*
X528359Y104993D01*
Y102515D01*
X528601Y101296D01*
X529292Y100262D01*
X530326Y99571D01*
X531545Y99329D01*
X535361D01*
Y65400D01*
X529600D01*
Y48900D01*
X544100D01*
Y65400D01*
X541479D01*
Y99329D01*
X545295D01*
X546514Y99571D01*
X547548Y100262D01*
X548239Y101296D01*
X548481Y102515D01*
Y105346D01*
X551222Y108088D01*
X551775Y108914D01*
X551969Y109890D01*
Y120174D01*
X551775Y121149D01*
X551222Y121976D01*
X547606Y125592D01*
X546779Y126145D01*
X545804Y126339D01*
X530892D01*
X525063Y132168D01*
X525550Y133341D01*
X532070D01*
X533046Y133535D01*
X533872Y134088D01*
X537214Y137429D01*
X545295D01*
X546514Y137671D01*
X547548Y138362D01*
X548239Y139396D01*
X548481Y140615D01*
Y143865D01*
X548239Y145084D01*
X547548Y146118D01*
X546514Y146809D01*
X545295Y147051D01*
X531545D01*
X530326Y146809D01*
X529292Y146118D01*
X528601Y145084D01*
X528359Y143865D01*
Y140615D01*
X528539Y139709D01*
X527829Y138439D01*
X512826D01*
X511851Y139709D01*
X511960Y140114D01*
Y141826D01*
X511517Y143479D01*
X510661Y144961D01*
X509451Y146171D01*
X507969Y147027D01*
X506316Y147470D01*
X504604D01*
X502951Y147027D01*
X501469Y146171D01*
X500259Y144961D01*
X499403Y143479D01*
X498960Y141826D01*
Y140114D01*
X498067Y139086D01*
X497037Y139028D01*
X496558Y139507D01*
X496558Y139507D01*
X493292Y142772D01*
X449214Y186851D01*
Y189763D01*
X450484Y190289D01*
X451124Y189649D01*
X452594Y189040D01*
X454186D01*
X455656Y189649D01*
X456781Y190774D01*
X457390Y192244D01*
Y193836D01*
X456781Y195306D01*
X455939Y196148D01*
Y199891D01*
X457151Y200989D01*
X457619Y200934D01*
X458744Y199809D01*
X460214Y199200D01*
X461806D01*
X463276Y199809D01*
X464401Y200934D01*
X465010Y202404D01*
Y203996D01*
X464401Y205466D01*
X463276Y206591D01*
X461806Y207200D01*
X460214D01*
X459021Y206706D01*
X458830D01*
X446624Y218911D01*
X446693Y219417D01*
X447070Y220181D01*
X450214D01*
X455000Y215395D01*
Y214204D01*
X455609Y212734D01*
X456734Y211609D01*
X458204Y211000D01*
X459796D01*
X461266Y211609D01*
X462391Y212734D01*
X463000Y214204D01*
Y215796D01*
X462391Y217266D01*
X461266Y218391D01*
X459796Y219000D01*
X458605D01*
X456875Y220730D01*
X457401Y222000D01*
X457796D01*
X459266Y222609D01*
X460391Y223734D01*
X461000Y225204D01*
Y226796D01*
X460391Y228266D01*
X459746Y228911D01*
X460272Y230181D01*
X470540D01*
Y228816D01*
X470491Y228570D01*
Y221739D01*
X467198Y218446D01*
X466645Y217619D01*
X466451Y216643D01*
Y205140D01*
X466645Y204165D01*
X467198Y203338D01*
X469939Y200596D01*
Y197765D01*
X470181Y196546D01*
X470872Y195512D01*
X471906Y194821D01*
X473125Y194579D01*
X486875D01*
X488094Y194821D01*
X489128Y195512D01*
X489819Y196546D01*
X490061Y197765D01*
Y201015D01*
X489819Y202234D01*
X489128Y203268D01*
X488094Y203959D01*
X486875Y204201D01*
X473544D01*
X472368Y205377D01*
X472418Y206196D01*
X473125Y207279D01*
X486875D01*
X488094Y207521D01*
X489128Y208212D01*
X489819Y209246D01*
X490061Y210465D01*
Y213715D01*
X489940Y214325D01*
Y215104D01*
X498563Y223727D01*
X499226Y224720D01*
X499459Y225890D01*
X500691Y226070D01*
X509900Y226070D01*
X510021Y224850D01*
Y203087D01*
X485736Y178801D01*
X473125D01*
X471906Y178559D01*
X470872Y177868D01*
X470181Y176834D01*
X469939Y175615D01*
Y172365D01*
X470181Y171146D01*
X470872Y170112D01*
X471906Y169421D01*
X473125Y169179D01*
X486875D01*
X488094Y169421D01*
X489128Y170112D01*
X489819Y171146D01*
X490061Y172365D01*
Y174475D01*
X515243Y199657D01*
X515906Y200650D01*
X516139Y201820D01*
X516139Y201820D01*
Y230053D01*
X536636Y250550D01*
X554810D01*
Y256021D01*
X562552D01*
X562884Y255689D01*
X564354Y255080D01*
X565946D01*
X567416Y255689D01*
X568541Y256814D01*
X569150Y258284D01*
Y259876D01*
X568541Y261346D01*
X567416Y262471D01*
X565946Y263080D01*
X564354D01*
X562884Y262471D01*
X562552Y262139D01*
X554810D01*
Y267550D01*
X532310D01*
Y262109D01*
X522595D01*
X522595Y262109D01*
X521424Y261876D01*
X520432Y261213D01*
X520432Y261213D01*
X518348Y259129D01*
X505900D01*
X505605Y259070D01*
X493400D01*
Y254879D01*
X487040D01*
Y259070D01*
X470540D01*
Y245389D01*
X470540Y244570D01*
X469457Y244119D01*
X466790D01*
X465815Y243925D01*
X464988Y243372D01*
X461894Y240279D01*
X457770D01*
X457244Y241549D01*
X458075Y242380D01*
X459266D01*
X460736Y242989D01*
X461861Y244114D01*
X462470Y245584D01*
Y247176D01*
X461861Y248646D01*
X460736Y249771D01*
X459266Y250380D01*
X457674D01*
X456756Y250000D01*
X456037Y251076D01*
X458770Y253810D01*
X459266D01*
X460736Y254419D01*
X461861Y255544D01*
X462470Y257014D01*
Y258606D01*
X461861Y260076D01*
X460736Y261201D01*
X459266Y261810D01*
X458981D01*
X458455Y263080D01*
X460586Y265211D01*
X461138Y266038D01*
X461332Y267013D01*
Y268110D01*
X462006Y268389D01*
X463131Y269514D01*
X463740Y270984D01*
Y272576D01*
X463131Y274046D01*
X462006Y275171D01*
X460536Y275780D01*
X458944D01*
X457474Y275171D01*
X456349Y274046D01*
X455740Y272576D01*
Y270984D01*
X456234Y269791D01*
Y268069D01*
X446838Y258673D01*
X445665Y259159D01*
Y269730D01*
Y280181D01*
X462974D01*
X476988Y266168D01*
X477815Y265615D01*
X478790Y265421D01*
X498542D01*
X499384Y264579D01*
X500854Y263970D01*
X502446D01*
X503916Y264579D01*
X505041Y265704D01*
X505650Y267174D01*
Y268766D01*
X505041Y270236D01*
X503916Y271361D01*
X502446Y271970D01*
X500854D01*
X499384Y271361D01*
X498542Y270519D01*
X479846D01*
X477746Y272619D01*
X478372Y273789D01*
X478664Y273731D01*
X554579D01*
X555554Y273925D01*
X556381Y274478D01*
X567682Y285779D01*
X568235Y286606D01*
X568429Y287581D01*
Y300420D01*
X590910Y322901D01*
X624094D01*
X625335Y321045D01*
X627237Y319774D01*
X629480Y319327D01*
X637980D01*
X640223Y319774D01*
X642125Y321045D01*
X643396Y322946D01*
X643843Y325190D01*
Y341690D01*
X643396Y343934D01*
X642125Y345835D01*
X640223Y347106D01*
X637980Y347553D01*
X629480D01*
X628659Y348610D01*
Y349913D01*
X628465Y350889D01*
X627912Y351716D01*
X607531Y372097D01*
X608135Y373289D01*
X609569Y373673D01*
X611051Y374529D01*
X612261Y375739D01*
X613117Y377221D01*
X613560Y378874D01*
Y380586D01*
X613117Y382239D01*
X612261Y383721D01*
X611051Y384931D01*
X609655Y385737D01*
X609445Y385963D01*
X609157Y387036D01*
X610539Y388417D01*
X623182D01*
X624157Y388611D01*
X624984Y389164D01*
X634290Y398469D01*
X635560Y397943D01*
Y392440D01*
X641443D01*
X641969Y391170D01*
X641821Y391022D01*
X641060Y389185D01*
Y387195D01*
X641821Y385358D01*
X643228Y383951D01*
X645065Y383190D01*
X647055D01*
X648892Y383951D01*
X650299Y385358D01*
X650712Y386355D01*
X650821Y386377D01*
X652030Y386218D01*
X652264Y384442D01*
X652261Y384430D01*
Y356870D01*
X652250D01*
X652528Y354761D01*
X653342Y352795D01*
X654637Y351107D01*
X656325Y349812D01*
X658291Y348998D01*
X660400Y348720D01*
Y348731D01*
X666050D01*
X666390Y347461D01*
X665299Y346831D01*
X664089Y345621D01*
X663233Y344139D01*
X662790Y342486D01*
Y340774D01*
X663233Y339121D01*
X664089Y337639D01*
X665299Y336429D01*
X666781Y335573D01*
X668434Y335130D01*
X670146D01*
X671799Y335573D01*
X673281Y336429D01*
X673956Y337103D01*
X674204Y337000D01*
X675796D01*
X677266Y337609D01*
X678323Y338666D01*
X678395Y338668D01*
X678999Y338132D01*
X679131Y336869D01*
X677633Y334915D01*
X676691Y332641D01*
X676369Y330200D01*
X676391D01*
Y322153D01*
X675200D01*
X672956Y321706D01*
X671055Y320435D01*
X669784Y318534D01*
X669337Y316290D01*
Y308927D01*
X665722Y306995D01*
X661978Y303922D01*
X658905Y300178D01*
X656622Y295906D01*
X655216Y291271D01*
X654741Y286450D01*
X654801D01*
Y251457D01*
X638484Y235140D01*
X638014D01*
X636544Y234531D01*
X636212Y234199D01*
X633700D01*
Y241990D01*
X608700D01*
Y225990D01*
X633700D01*
Y228081D01*
X636212D01*
X636544Y227749D01*
X638014Y227140D01*
X639606D01*
X641076Y227749D01*
X642201Y228874D01*
X642810Y230344D01*
Y230814D01*
X660023Y248027D01*
X660686Y249020D01*
X660919Y250190D01*
Y286450D01*
X660905Y286521D01*
X661254Y290069D01*
X662310Y293550D01*
X664024Y296757D01*
X666331Y299569D01*
X668067Y300993D01*
X669337Y300392D01*
Y299790D01*
X669784Y297546D01*
X671055Y295644D01*
X672956Y294374D01*
X675200Y293927D01*
X683700D01*
X685944Y294374D01*
X687846Y295644D01*
X689116Y297546D01*
X689563Y299790D01*
Y316290D01*
X689116Y318534D01*
X687846Y320435D01*
X685944Y321706D01*
X683700Y322153D01*
X682509D01*
Y329478D01*
X682717Y329748D01*
X683607Y330321D01*
X683838Y330346D01*
X684944Y330050D01*
X686656D01*
X688309Y330493D01*
X689791Y331349D01*
X691001Y332559D01*
X691857Y334041D01*
X692300Y335694D01*
Y337406D01*
X691857Y339059D01*
X691001Y340541D01*
X689791Y341751D01*
X688309Y342607D01*
X687737Y342760D01*
X687493Y343564D01*
X685799Y346733D01*
X683520Y349510D01*
X680743Y351789D01*
X677574Y353483D01*
X674136Y354526D01*
X670560Y354878D01*
Y354849D01*
X660400D01*
Y354879D01*
X659638Y355030D01*
X658992Y355462D01*
X658560Y356108D01*
X658409Y356870D01*
X658379D01*
Y384430D01*
X658445D01*
X657946Y388218D01*
X656484Y391748D01*
X654159Y394779D01*
X652060Y396389D01*
Y405440D01*
Y412440D01*
D02*
G37*
G36*
X444796Y329000D02*
X443204D01*
X441734Y328391D01*
X440609Y327266D01*
X440000Y325796D01*
Y324204D01*
X440609Y322734D01*
X441734Y321609D01*
X443204Y321000D01*
X444796D01*
X446266Y321609D01*
X446332Y321675D01*
X447720D01*
X452000Y317395D01*
Y315279D01*
X445665D01*
Y315730D01*
X427915D01*
Y309730D01*
X445665D01*
Y310181D01*
X452000D01*
Y309000D01*
X468000D01*
Y321000D01*
X455605D01*
X450376Y326228D01*
X449549Y326781D01*
X448574Y326975D01*
X447511D01*
X447391Y327266D01*
X446266Y328391D01*
X444796Y329000D01*
D02*
G37*
G36*
X197435Y313421D02*
X183685D01*
X182466Y313179D01*
X181432Y312488D01*
X180741Y311454D01*
X180499Y310235D01*
Y306985D01*
X180741Y305766D01*
X181432Y304732D01*
X182466Y304041D01*
X183685Y303799D01*
X197435D01*
X198654Y304041D01*
X199688Y304732D01*
X200379Y305766D01*
X200621Y306985D01*
Y310235D01*
X200379Y311454D01*
X199688Y312488D01*
X198654Y313179D01*
X197435Y313421D01*
D02*
G37*
G36*
X587856Y289960D02*
X586265D01*
X584795Y289351D01*
X583670Y288225D01*
X583061Y286755D01*
Y285164D01*
X583338Y284494D01*
X583130Y284113D01*
X581558Y283889D01*
X581386Y284061D01*
X579916Y284670D01*
X578324D01*
X576854Y284061D01*
X575729Y282936D01*
X575120Y281466D01*
Y279874D01*
X575648Y278599D01*
Y271780D01*
Y244568D01*
X574896Y243990D01*
X573184D01*
X571531Y243547D01*
X570049Y242691D01*
X568839Y241481D01*
X567983Y239999D01*
X567540Y238346D01*
Y236634D01*
X567983Y234981D01*
X568839Y233499D01*
X570049Y232289D01*
X570743Y231888D01*
X571071Y230410D01*
X570586Y229780D01*
X564230D01*
Y217190D01*
X555686Y208645D01*
X554933Y207519D01*
X554669Y206190D01*
Y204725D01*
X554139Y204196D01*
X553530Y202726D01*
Y201134D01*
X554139Y199664D01*
X555264Y198539D01*
X556734Y197930D01*
X558326D01*
X559796Y198539D01*
X560921Y199664D01*
X561530Y201134D01*
Y202128D01*
X561612Y202540D01*
Y204752D01*
X569140Y212280D01*
X576230D01*
Y224870D01*
X581575Y230215D01*
X581822Y230585D01*
X582109Y230705D01*
X583397Y230703D01*
X589230Y224870D01*
Y217190D01*
X561542Y189502D01*
X558140D01*
X557728Y189420D01*
X556734D01*
X555264Y188811D01*
X554139Y187686D01*
X553530Y186216D01*
Y184624D01*
X554139Y183154D01*
X555264Y182029D01*
X556734Y181420D01*
X558326D01*
X559796Y182029D01*
X560326Y182559D01*
X562980D01*
X563248Y182612D01*
X564230Y181806D01*
Y167780D01*
X575375D01*
X576571Y166584D01*
Y126890D01*
X576765Y125914D01*
X577318Y125088D01*
X584359Y118046D01*
Y115215D01*
X584601Y113996D01*
X585292Y112962D01*
X586326Y112271D01*
X587545Y112029D01*
X601295D01*
X602514Y112271D01*
X603548Y112962D01*
X604239Y113996D01*
X604297Y114291D01*
X616840D01*
Y109640D01*
X629235D01*
X639993Y98882D01*
X639930Y98646D01*
Y96934D01*
X640373Y95281D01*
X641229Y93799D01*
X642439Y92589D01*
X643921Y91733D01*
X645574Y91290D01*
X647286D01*
X648939Y91733D01*
X650421Y92589D01*
X651631Y93799D01*
X652487Y95281D01*
X652930Y96934D01*
Y98646D01*
X652487Y100299D01*
X651631Y101781D01*
X650421Y102991D01*
X648939Y103847D01*
X647286Y104290D01*
X645574D01*
X643921Y103847D01*
X642854Y103231D01*
X632840Y113245D01*
Y121640D01*
X616840D01*
Y119389D01*
X604297D01*
X604239Y119684D01*
X603548Y120718D01*
X602514Y121409D01*
X601295Y121651D01*
X587964D01*
X586175Y123440D01*
X586216Y123700D01*
X587545Y124729D01*
X601295D01*
X602514Y124971D01*
X603548Y125662D01*
X604239Y126696D01*
X604297Y126991D01*
X644360D01*
X645335Y127185D01*
X646162Y127738D01*
X648385Y129960D01*
X660780D01*
Y141960D01*
X644780D01*
Y133565D01*
X643304Y132089D01*
X636016D01*
X635041Y133359D01*
X635150Y133764D01*
Y135476D01*
X634707Y137129D01*
X633851Y138611D01*
X632641Y139821D01*
X631159Y140677D01*
X629506Y141120D01*
X627794D01*
X626141Y140677D01*
X624659Y139821D01*
X623449Y138611D01*
X622593Y137129D01*
X622150Y135476D01*
Y133764D01*
X622259Y133359D01*
X621284Y132089D01*
X604297D01*
X604239Y132384D01*
X603548Y133418D01*
X602514Y134109D01*
X601295Y134351D01*
X587963D01*
X585969Y136346D01*
Y167074D01*
X588057Y169162D01*
X589230Y168676D01*
Y167780D01*
X601230D01*
Y185280D01*
X589230D01*
Y176161D01*
X588902D01*
X587926Y175966D01*
X587099Y175414D01*
X581891Y170206D01*
X581877Y170195D01*
X580811Y170051D01*
X580227Y170138D01*
X576230Y174135D01*
Y185280D01*
X568799D01*
X568313Y186453D01*
X594140Y212280D01*
X601230D01*
Y229780D01*
X594140D01*
X588942Y234978D01*
Y267068D01*
X590212Y268022D01*
X590964Y267820D01*
X592676D01*
X594329Y268263D01*
X595811Y269119D01*
X597021Y270329D01*
X597877Y271811D01*
X598320Y273464D01*
Y275176D01*
X597877Y276829D01*
X597021Y278311D01*
X595811Y279521D01*
X594329Y280377D01*
X592676Y280820D01*
X590964D01*
X590532Y281151D01*
Y283888D01*
X591061Y285164D01*
Y286755D01*
X590452Y288225D01*
X589327Y289351D01*
X587856Y289960D01*
D02*
G37*
G36*
X328796Y266000D02*
X327204D01*
X325734Y265391D01*
X324609Y264266D01*
X324000Y262796D01*
Y261204D01*
X324609Y259734D01*
X325734Y258609D01*
X327204Y258000D01*
X328796D01*
X330266Y258609D01*
X331391Y259734D01*
X332000Y261204D01*
Y262796D01*
X331391Y264266D01*
X330266Y265391D01*
X328796Y266000D01*
D02*
G37*
G36*
X555786Y230060D02*
X554194D01*
X552724Y229451D01*
X551599Y228326D01*
X550990Y226856D01*
Y225264D01*
X551599Y223794D01*
X552724Y222669D01*
X554194Y222060D01*
X555786D01*
X557256Y222669D01*
X558381Y223794D01*
X558990Y225264D01*
Y226856D01*
X558381Y228326D01*
X557256Y229451D01*
X555786Y230060D01*
D02*
G37*
G36*
X542875Y204201D02*
X529125D01*
X527906Y203959D01*
X526872Y203268D01*
X526181Y202234D01*
X525939Y201015D01*
Y197765D01*
X526181Y196546D01*
X526872Y195512D01*
X527906Y194821D01*
X529125Y194579D01*
X542875D01*
X544094Y194821D01*
X545128Y195512D01*
X545819Y196546D01*
X546061Y197765D01*
Y201015D01*
X545819Y202234D01*
X545128Y203268D01*
X544094Y203959D01*
X542875Y204201D01*
D02*
G37*
G36*
Y191501D02*
X529125D01*
X527906Y191259D01*
X526872Y190568D01*
X526181Y189534D01*
X525939Y188315D01*
Y185065D01*
X526181Y183846D01*
X526872Y182812D01*
X527906Y182121D01*
X529125Y181879D01*
X542875D01*
X544094Y182121D01*
X545128Y182812D01*
X545819Y183846D01*
X546061Y185065D01*
Y188315D01*
X545819Y189534D01*
X545128Y190568D01*
X544094Y191259D01*
X542875Y191501D01*
D02*
G37*
G36*
X673896Y204660D02*
X672304D01*
X670834Y204051D01*
X669709Y202926D01*
X669100Y201456D01*
Y199864D01*
X669709Y198394D01*
X670834Y197269D01*
X671075Y197169D01*
Y185423D01*
X661633D01*
Y169423D01*
X686633D01*
Y185423D01*
X677192D01*
Y199627D01*
X677212D01*
X677100Y200192D01*
Y201456D01*
X676491Y202926D01*
X675366Y204051D01*
X673896Y204660D01*
D02*
G37*
G36*
X542875Y178801D02*
X529125D01*
X527906Y178559D01*
X526872Y177868D01*
X526181Y176834D01*
X525939Y175615D01*
Y172365D01*
X526181Y171146D01*
X526872Y170112D01*
X527906Y169421D01*
X529125Y169179D01*
X542875D01*
X544094Y169421D01*
X545128Y170112D01*
X545819Y171146D01*
X546061Y172365D01*
Y175615D01*
X545819Y176834D01*
X545128Y177868D01*
X544094Y178559D01*
X542875Y178801D01*
D02*
G37*
G36*
X132876Y180530D02*
X131284D01*
X129814Y179921D01*
X128689Y178796D01*
X128080Y177326D01*
Y176135D01*
X121388Y169442D01*
X120835Y168615D01*
X120641Y167640D01*
Y157470D01*
X114940D01*
Y142970D01*
X131440D01*
Y157470D01*
X125739D01*
Y166584D01*
X131685Y172530D01*
X132876D01*
X134346Y173139D01*
X135471Y174264D01*
X136080Y175734D01*
Y177326D01*
X135471Y178796D01*
X134346Y179921D01*
X132876Y180530D01*
D02*
G37*
G36*
X154466Y183070D02*
X152874D01*
X151404Y182461D01*
X150279Y181336D01*
X149670Y179866D01*
Y178274D01*
X149949Y177601D01*
X149328Y176979D01*
X148775Y176152D01*
X148581Y175177D01*
Y156200D01*
X142880D01*
Y141700D01*
X159380D01*
Y156200D01*
X153679D01*
Y174121D01*
X154742Y175185D01*
X155936Y175679D01*
X157061Y176804D01*
X157670Y178274D01*
Y179866D01*
X157061Y181336D01*
X155936Y182461D01*
X154466Y183070D01*
D02*
G37*
G36*
X422410Y184225D02*
X416410D01*
Y166475D01*
X416861D01*
Y163000D01*
X416500D01*
Y147000D01*
X420451D01*
Y145108D01*
X419609Y144266D01*
X419000Y142796D01*
Y141204D01*
X419609Y139734D01*
X420734Y138609D01*
X422204Y138000D01*
X423796D01*
X425266Y138609D01*
X426391Y139734D01*
X427000Y141204D01*
Y142796D01*
X426391Y144266D01*
X425549Y145108D01*
Y147000D01*
X428500D01*
Y163000D01*
X421959D01*
Y166475D01*
X422410D01*
Y184225D01*
D02*
G37*
G36*
X131440Y138970D02*
X114940D01*
Y124470D01*
X120131D01*
Y109057D01*
X115016Y103942D01*
X115010Y103943D01*
X108510D01*
X106852Y103613D01*
X105446Y102674D01*
X104507Y101268D01*
X104177Y99610D01*
Y94110D01*
X104507Y92452D01*
X105446Y91046D01*
X106852Y90107D01*
X108510Y89777D01*
X115010D01*
X116668Y90107D01*
X118074Y91046D01*
X119013Y92452D01*
X119343Y94110D01*
Y99610D01*
X119342Y99616D01*
X125353Y105627D01*
X125353Y105627D01*
X126016Y106620D01*
X126249Y107790D01*
Y124470D01*
X131440D01*
Y138970D01*
D02*
G37*
G36*
X601295Y108951D02*
X587545D01*
X586326Y108709D01*
X585292Y108018D01*
X584601Y106984D01*
X584359Y105765D01*
Y102515D01*
X584601Y101296D01*
X585292Y100262D01*
X586326Y99571D01*
X587545Y99329D01*
X601295D01*
X602514Y99571D01*
X603548Y100262D01*
X604239Y101296D01*
X604481Y102515D01*
Y105765D01*
X604239Y106984D01*
X603548Y108018D01*
X602514Y108709D01*
X601295Y108951D01*
D02*
G37*
G36*
X159380Y137700D02*
X142880D01*
Y127526D01*
X138807Y123453D01*
X138144Y122460D01*
X137911Y121290D01*
X137911Y121290D01*
Y103943D01*
X137720D01*
X136062Y103613D01*
X134656Y102674D01*
X133717Y101268D01*
X133387Y99610D01*
Y94110D01*
X133717Y92452D01*
X134656Y91046D01*
X136062Y90107D01*
X137720Y89777D01*
X144220D01*
X145878Y90107D01*
X147284Y91046D01*
X148223Y92452D01*
X148553Y94110D01*
Y99610D01*
X148223Y101268D01*
X147284Y102674D01*
X145878Y103613D01*
X144220Y103943D01*
X144029D01*
Y120023D01*
X147206Y123200D01*
X159380D01*
Y137700D01*
D02*
G37*
G36*
X187320Y126270D02*
X170820D01*
Y116096D01*
X169287Y114563D01*
X168624Y113570D01*
X168391Y112400D01*
X168391Y112400D01*
Y101403D01*
X168200D01*
X166542Y101073D01*
X165136Y100134D01*
X164197Y98728D01*
X163867Y97070D01*
Y91570D01*
X164197Y89912D01*
X165136Y88506D01*
X166542Y87567D01*
X168200Y87237D01*
X174700D01*
X176358Y87567D01*
X177764Y88506D01*
X178703Y89912D01*
X179033Y91570D01*
Y97070D01*
X178703Y98728D01*
X177764Y100134D01*
X176358Y101073D01*
X174700Y101403D01*
X174509D01*
Y111133D01*
X175146Y111770D01*
X187320D01*
Y126270D01*
D02*
G37*
G36*
X361476Y82740D02*
X359884D01*
X358414Y82131D01*
X357289Y81006D01*
X356680Y79536D01*
Y77944D01*
X357289Y76474D01*
X358414Y75349D01*
X359884Y74740D01*
X361476D01*
X362946Y75349D01*
X364071Y76474D01*
X364680Y77944D01*
Y79536D01*
X364071Y81006D01*
X362946Y82131D01*
X361476Y82740D01*
D02*
G37*
G36*
X562600Y65400D02*
X548100D01*
Y48900D01*
X562600D01*
Y54091D01*
X570073D01*
X576618Y47546D01*
X576617Y47540D01*
Y42040D01*
X576947Y40382D01*
X577886Y38976D01*
X579292Y38037D01*
X580950Y37707D01*
X587450D01*
X589108Y38037D01*
X590514Y38976D01*
X591453Y40382D01*
X591783Y42040D01*
Y47540D01*
X591453Y49198D01*
X590514Y50604D01*
X589108Y51543D01*
X587450Y51873D01*
X580950D01*
X580944Y51872D01*
X573503Y59313D01*
X572510Y59976D01*
X571340Y60209D01*
X571340Y60209D01*
X562600D01*
Y65400D01*
D02*
G37*
%LPD*%
G36*
X623561Y348858D02*
Y346819D01*
X623755Y345843D01*
X624308Y345017D01*
X624595Y344729D01*
X624064Y343934D01*
X623617Y341690D01*
Y327999D01*
X598928D01*
X598402Y329269D01*
X598702Y329569D01*
X599255Y330396D01*
X599449Y331372D01*
Y335837D01*
X601150D01*
X603394Y336284D01*
X605295Y337555D01*
X606566Y339456D01*
X607013Y341700D01*
Y358200D01*
X606566Y360444D01*
X605295Y362346D01*
X603394Y363616D01*
X601150Y364063D01*
X599449D01*
Y371174D01*
X600719Y371700D01*
X623561Y348858D01*
D02*
G37*
G36*
X532155Y254721D02*
X511170Y233736D01*
X510177Y234016D01*
X509900Y234214D01*
Y240570D01*
X497005D01*
X494275Y243300D01*
X494300Y243608D01*
X494696Y244570D01*
X509900D01*
Y253011D01*
X519615D01*
X519615Y253011D01*
X520785Y253244D01*
X521778Y253907D01*
X523862Y255991D01*
X531937D01*
X532155Y254721D01*
D02*
G37*
G36*
X493400Y236965D02*
Y229366D01*
X493341Y229070D01*
X493341Y229070D01*
Y227157D01*
X484718Y218534D01*
X484055Y217542D01*
X483928Y216901D01*
X474659D01*
X474133Y218171D01*
X474842Y218881D01*
X475395Y219708D01*
X475589Y220683D01*
Y226070D01*
X487040D01*
Y239021D01*
X491344D01*
X493400Y236965D01*
D02*
G37*
D10*
X306950Y148230D02*
X307270D01*
X309000Y146500D01*
Y140000D02*
Y146500D01*
X304410Y164533D02*
X306500Y162442D01*
Y152000D02*
Y162442D01*
X304410Y164533D02*
Y175350D01*
X302474Y299786D02*
X306766D01*
X290030Y312230D02*
X302474Y299786D01*
X306766D02*
X307340Y299212D01*
X282103Y277803D02*
X303427D01*
X303500Y277876D01*
X282030Y277730D02*
X282103Y277803D01*
X299000Y263000D02*
X299204Y263204D01*
X302574D01*
X311658Y272288D01*
Y281686D01*
X305344Y288000D02*
X311658Y281686D01*
X282300Y288000D02*
X305344D01*
X282030Y287730D02*
X282300Y288000D01*
X159000Y214300D02*
X205000Y168300D01*
X159000Y214300D02*
Y220000D01*
X205000Y167600D02*
Y168300D01*
X162812Y223000D02*
X203600D01*
X159812Y220000D02*
X162812Y223000D01*
X159000Y220000D02*
X159812D01*
X203600Y223000D02*
X206000Y225400D01*
X195500Y256500D02*
X199000Y260000D01*
X211500D01*
X217000Y254500D01*
X195500Y255000D02*
Y256500D01*
Y274000D02*
Y276000D01*
Y274000D02*
X205500Y264000D01*
X240500D01*
X254000Y277500D02*
X255000D01*
X240500Y264000D02*
X254000Y277500D01*
X274047Y253230D02*
X281530D01*
X264035Y264000D02*
X267002Y261033D01*
X245965Y264000D02*
X264035D01*
X270502Y261725D02*
Y262998D01*
X267002Y260275D02*
Y261033D01*
X281530Y258230D02*
X282030Y257730D01*
X267002Y260275D02*
X274047Y253230D01*
X274483Y258230D02*
X274483Y258230D01*
X281530D01*
X273997Y258230D02*
X274483D01*
X270502Y261725D02*
X273997Y258230D01*
X256000Y277500D02*
X270502Y262998D01*
X222500Y260000D02*
X241964D01*
X245965Y264000D01*
X217000Y254500D02*
X222500Y260000D01*
X281530Y253230D02*
X282030Y252730D01*
X255000Y277500D02*
X256000D01*
X318000Y80000D02*
Y80343D01*
X321717Y84061D02*
Y153048D01*
X318000Y80343D02*
X321717Y84061D01*
X287000Y81000D02*
X308610D01*
X317490Y89880D01*
X349410Y117000D02*
X369410Y137000D01*
X349000Y117000D02*
X349410D01*
X369410Y137000D02*
Y175350D01*
X360000Y117000D02*
X372910Y129910D01*
Y139866D02*
X374410Y141365D01*
X372910Y129910D02*
Y139866D01*
X374410Y141365D02*
Y175350D01*
X282165Y282865D02*
X295865D01*
X296000Y283000D01*
X282030Y282730D02*
X282165Y282865D01*
X295635Y272365D02*
X296000Y272000D01*
X282030Y272730D02*
X282395Y272365D01*
X295635D01*
X423000Y142000D02*
Y154500D01*
X422500Y155000D02*
X423000Y154500D01*
X419410Y158090D02*
Y175350D01*
Y158090D02*
X422500Y155000D01*
X444574Y324426D02*
X448574D01*
X458000Y315000D02*
X460000D01*
X448574Y324426D02*
X458000Y315000D01*
X444000Y325000D02*
X444574Y324426D01*
X436790Y312730D02*
X457730D01*
X460000Y315000D01*
X281665Y292365D02*
X282030Y292730D01*
X269365Y292365D02*
X281665D01*
X269000Y292000D02*
X269365Y292365D01*
X349000Y330520D02*
Y354494D01*
Y330520D02*
X349410Y330110D01*
X344410Y358812D02*
X348000Y362402D01*
Y363000D01*
X349000Y354494D02*
X349410Y354904D01*
X344410Y330110D02*
Y358812D01*
X329410Y330110D02*
Y350000D01*
X324205Y330315D02*
Y364795D01*
Y330315D02*
X324410Y330110D01*
X324000Y365000D02*
X324205Y364795D01*
X334410Y330110D02*
Y359711D01*
X339205Y330315D02*
Y346795D01*
X334151Y359970D02*
Y361809D01*
Y359970D02*
X334410Y359711D01*
X339205Y346795D02*
X339410Y347000D01*
X436790Y232730D02*
X477200D01*
X477790Y233320D01*
X473040Y228570D02*
X477200Y232730D01*
X469000Y216643D02*
X473040Y220683D01*
X469000Y205140D02*
Y216643D01*
Y205140D02*
X474750Y199390D01*
X480000D01*
X477790Y233320D02*
X478790D01*
X473040Y220683D02*
Y228570D01*
X462950Y237730D02*
X466790Y241570D01*
X436790Y237730D02*
X462950D01*
X466790Y241570D02*
X492400D01*
X500650Y233320D01*
X436790Y227730D02*
X454458D01*
X456188Y226000D01*
X457000D01*
X436790Y222730D02*
X451270D01*
X459000Y215000D01*
X453390Y193040D02*
Y203540D01*
X444701Y212230D02*
X453390Y203540D01*
X422270Y207730D02*
X436790D01*
X418000Y212000D02*
X422270Y207730D01*
X418365Y202365D02*
X436425D01*
X436790Y202730D01*
X404705Y175645D02*
Y191705D01*
X405000Y192000D01*
X404410Y175350D02*
X404705Y175645D01*
X394705D02*
Y191705D01*
X394410Y175350D02*
X394705Y175645D01*
Y191705D02*
X395000Y192000D01*
X389410Y175350D02*
Y208590D01*
X389000Y209000D02*
X389410Y208590D01*
X384205Y175555D02*
Y192795D01*
X384410Y193000D01*
X379205Y175555D02*
Y204795D01*
X379000Y205000D02*
X379205Y204795D01*
Y175555D02*
X379410Y175350D01*
X384205Y175555D02*
X384410Y175350D01*
X310000Y197188D02*
Y198000D01*
X309410Y175350D02*
Y196598D01*
X310000Y197188D01*
X301192Y189192D02*
X310000Y198000D01*
X298412Y189192D02*
X301192D01*
X324705Y190705D02*
X325000Y191000D01*
X324705Y175645D02*
Y190705D01*
X324410Y175350D02*
X324705Y175645D01*
X319410Y175350D02*
X319705Y175645D01*
X314410Y175350D02*
X314410Y175350D01*
X319705Y175645D02*
Y198705D01*
X314410Y175350D02*
Y190000D01*
X319705Y198705D02*
X320000Y199000D01*
X294630Y207730D02*
X312664Y225764D01*
X282030Y207730D02*
X294630D01*
X320764Y220764D02*
X321000Y221000D01*
X295913Y202730D02*
X313947Y220764D01*
X320764D01*
X282030Y197730D02*
X295863D01*
X282030Y192730D02*
X295812D01*
X309730Y206647D01*
X295863Y197730D02*
X311493Y213360D01*
X282030Y202730D02*
X295913D01*
X311493Y213360D02*
X326390D01*
X309730Y206647D02*
X315868D01*
X298426Y294574D02*
Y298885D01*
X290081Y307230D02*
X298426Y298885D01*
Y294574D02*
X299000Y294000D01*
X282530Y307230D02*
X290081D01*
X282030Y307730D02*
X282530Y307230D01*
X270254Y317230D02*
X289980D01*
X160910Y287510D02*
X240534D01*
X270254Y317230D01*
X410000Y267000D02*
X410652D01*
X414922Y262730D02*
X436790D01*
X410652Y267000D02*
X414922Y262730D01*
X409000Y279000D02*
X420270Y267730D01*
X436790D01*
X409000Y290000D02*
X426270Y272730D01*
X436790D01*
X415000Y292110D02*
Y299000D01*
Y292110D02*
X428880Y278230D01*
X436290D01*
X436790Y277730D01*
X419205Y318987D02*
Y329905D01*
X415000Y314000D02*
Y314782D01*
X419205Y318987D01*
Y329905D02*
X419410Y330110D01*
X421000Y257000D02*
X421365Y257365D01*
X436425D02*
X436790Y257730D01*
X421365Y257365D02*
X436425D01*
X295000Y353000D02*
X299410Y348590D01*
Y330110D02*
Y348590D01*
X295000Y353000D02*
Y356500D01*
X291500Y360000D02*
X295000Y356500D01*
X299109Y318000D02*
X307139D01*
X288290Y328820D02*
X299109Y318000D01*
X307139D02*
X313404Y311735D01*
X334595D02*
X341630Y318770D01*
X336045Y308235D02*
X342024Y314214D01*
X337494Y304735D02*
X342639Y309880D01*
X313404Y311735D02*
X334595D01*
X310504Y304735D02*
X337494D01*
X305106Y310134D02*
X310504Y304735D01*
X306555Y313634D02*
X311954Y308235D01*
X336045D01*
X282300Y233000D02*
X310094D01*
X282030Y227730D02*
X299730D01*
X282030Y232730D02*
X282300Y233000D01*
X310094D02*
X310110Y232984D01*
X299730Y227730D02*
X300000Y228000D01*
X319910Y321825D02*
X325000Y316735D01*
X319910Y321825D02*
Y329610D01*
X425000Y354000D02*
X436000D01*
X414410Y343410D02*
X425000Y354000D01*
X414410Y330110D02*
Y343410D01*
X409205Y330315D02*
Y346795D01*
X404000Y330520D02*
Y357000D01*
Y330520D02*
X404410Y330110D01*
X409205Y330315D02*
X409410Y330110D01*
X397000Y346188D02*
X399410Y343778D01*
Y330110D02*
Y343778D01*
X397000Y346188D02*
Y347000D01*
X354410Y330110D02*
Y342900D01*
Y330110D02*
X354410Y330110D01*
X339205Y330315D02*
X339410Y330110D01*
X359410D02*
Y378460D01*
X336550Y401320D02*
X359410Y378460D01*
X258365Y297365D02*
X281665D01*
X282030Y297730D01*
X258000Y297000D02*
X258365Y297365D01*
X267170Y302730D02*
X282030D01*
X309000Y347000D02*
X309410Y346590D01*
Y330110D02*
Y346590D01*
X596900Y382270D02*
Y384804D01*
Y349950D02*
Y382270D01*
X601980Y374044D02*
X626110Y349913D01*
X601980Y383463D02*
X609483Y390966D01*
X601980Y374044D02*
Y383463D01*
X596900Y331372D02*
Y349950D01*
Y384804D02*
X607602Y395506D01*
X609483Y390966D02*
X623182D01*
X621301Y395506D02*
X633755Y407960D01*
X623182Y390966D02*
X635232Y403016D01*
X607602Y395506D02*
X621301D01*
X635232Y403016D02*
X642426D01*
X642830Y403420D01*
X633755Y407960D02*
X642830D01*
X320390Y154375D02*
X321717Y153048D01*
X29020Y254950D02*
X72070D01*
X33020Y243840D02*
Y250950D01*
X23320Y254950D02*
X29020D01*
X33020Y250950D01*
X22039Y320470D02*
X64770Y277739D01*
Y262250D02*
X72070Y254950D01*
X64770Y262250D02*
Y277739D01*
X99380Y254950D02*
X110710Y243620D01*
X269650D01*
X80820Y254950D02*
X99380D01*
X72070D02*
X80820D01*
X21590Y331470D02*
X22039Y331021D01*
Y320470D02*
Y331021D01*
X374410Y330110D02*
Y392540D01*
X372110Y394840D02*
X374410Y392540D01*
X372110Y394840D02*
Y400050D01*
X351790Y401320D02*
X364410Y388700D01*
Y330110D02*
Y388700D01*
X354330Y330030D02*
X354410Y330110D01*
X388910Y322200D02*
Y329610D01*
X389410Y330110D01*
X380924Y314214D02*
X388910Y322200D01*
X32110Y433070D02*
X55880Y409300D01*
X22039Y342470D02*
X58420Y378851D01*
Y386990D01*
X62230Y390800D01*
X21590Y433070D02*
X32110D01*
X21590Y331470D02*
X22039Y331919D01*
Y342470D01*
X384410Y400920D02*
X398780Y415290D01*
X379410Y330110D02*
Y407350D01*
X386080Y414020D01*
X384410Y330110D02*
Y400920D01*
X626840Y115640D02*
X642150Y100330D01*
X61230Y406040D02*
X62230D01*
X56480Y392010D02*
Y393010D01*
X269650Y243620D02*
X273260Y247230D01*
X281530D01*
X236424Y291264D02*
X266144Y320984D01*
X150851Y302698D02*
X162285Y291264D01*
X236424D01*
X139810Y308610D02*
X160910Y287510D01*
X63500Y409300D02*
X64770Y410570D01*
X444701Y217230D02*
X457774Y204157D01*
X460053D02*
X461010Y203200D01*
X457774Y204157D02*
X460053D01*
X437290Y217230D02*
X444701D01*
X436790Y217730D02*
X437290Y217230D01*
X588184Y330200D02*
X595728D01*
X561340Y303356D02*
X588184Y330200D01*
X595728D02*
X596900Y331372D01*
X633730Y332703D02*
Y333440D01*
X626477Y325450D02*
X633730Y332703D01*
X589854Y325450D02*
X626477D01*
X633730Y333440D02*
Y339199D01*
X626110Y346819D02*
X633730Y339199D01*
X626110Y346819D02*
Y349913D01*
X464030Y282730D02*
X478790Y267970D01*
X501650D01*
X418205Y304800D02*
X425275Y297730D01*
X436790D01*
X405130Y304800D02*
X418205D01*
X124190Y388980D02*
X134825Y378345D01*
X123190Y388980D02*
X124190D01*
X134825Y371905D02*
X142240Y364490D01*
X134825Y371905D02*
Y378345D01*
X99060Y369570D02*
X122280D01*
X123190Y370480D01*
X136690Y346710D02*
X139007D01*
X449086Y247730D02*
X458470Y257114D01*
X436790Y247730D02*
X449086D01*
X458470Y257114D02*
Y257810D01*
X437290Y253230D02*
X445000D01*
X458783Y267013D02*
Y270823D01*
X445000Y253230D02*
X458783Y267013D01*
Y270823D02*
X459740Y271780D01*
X436790Y252730D02*
X437290Y253230D01*
X151130Y175177D02*
X153670Y177717D01*
Y179070D01*
X151130Y148950D02*
Y175177D01*
X123190Y150220D02*
Y167640D01*
X132080Y176530D01*
X316890Y152926D02*
X317490Y152325D01*
Y89880D02*
Y152325D01*
X315868Y206647D02*
X316230Y207010D01*
X399730Y161610D02*
Y175030D01*
Y161610D02*
X400050Y161290D01*
X399410Y175350D02*
X399730Y175030D01*
X288290Y328820D02*
Y328930D01*
X262890D02*
X288290D01*
X298526Y313634D02*
X306555D01*
X297076Y310134D02*
X305106D01*
X289980Y317230D02*
X297076Y310134D01*
X291176Y320984D02*
X298526Y313634D01*
X342639Y309880D02*
X383662D01*
X342024Y314214D02*
X380924D01*
X354330Y319942D02*
Y330030D01*
X341630Y318770D02*
X353158D01*
X354330Y319942D01*
X383662Y309880D02*
X394410Y320628D01*
Y330110D01*
X314910Y318758D02*
Y329610D01*
X282530Y312230D02*
X290030D01*
X314910Y318758D02*
X315760Y317908D01*
X266144Y320984D02*
X291176D01*
X141209Y342318D02*
Y344508D01*
X139007Y346710D02*
X141209Y344508D01*
Y342318D02*
X150851Y332677D01*
X282030Y312730D02*
X282530Y312230D01*
X150851Y302698D02*
Y332677D01*
X314410Y330110D02*
X314910Y329610D01*
X180070Y137520D02*
X189870Y147320D01*
X256540D02*
X298412Y189192D01*
X189870Y147320D02*
X256540D01*
X179070Y137520D02*
X180070D01*
X282030Y242730D02*
X299560D01*
X264290Y237620D02*
X264400D01*
X264455Y237675D01*
X281975D01*
X282030Y237730D01*
X324582Y165297D02*
X326768D01*
X328910Y174850D02*
X329410Y175350D01*
X320390Y154375D02*
Y156155D01*
X316890Y157605D02*
X324582Y165297D01*
X316890Y152926D02*
Y157605D01*
X328910Y167439D02*
Y174850D01*
X326768Y165297D02*
X328910Y167439D01*
X327000Y153670D02*
Y154280D01*
X338910Y166190D01*
X326032Y161797D02*
X328268D01*
X320390Y156155D02*
X326032Y161797D01*
X328268D02*
X333910Y167439D01*
Y174850D01*
X334410Y175350D01*
X355600Y132080D02*
X364410Y140890D01*
Y175350D01*
X359410Y144780D02*
Y175350D01*
X342900Y128270D02*
X359410Y144780D01*
X354410Y149940D02*
Y175350D01*
X345440Y140970D02*
X354410Y149940D01*
X330200Y135890D02*
X349410Y155100D01*
Y175350D01*
X339090Y153670D02*
X344410Y158990D01*
Y175350D01*
X338910Y174850D02*
X339410Y175350D01*
X338910Y166190D02*
Y174850D01*
X480000Y173990D02*
X485250D01*
X436790Y282730D02*
X464030D01*
X446665Y185795D02*
Y195266D01*
X444701Y197230D02*
X446665Y195266D01*
X437290Y197230D02*
X444701D01*
X436790Y212730D02*
X437290Y212230D01*
X444701D01*
X454820Y242730D02*
X458470Y246380D01*
X436790Y242730D02*
X454820D01*
X148590Y437430D02*
X159470D01*
X168910Y427990D01*
X319410Y330110D02*
X319910Y329610D01*
X361950Y400050D02*
X369410Y392590D01*
Y330110D02*
Y392590D01*
X565145Y356865D02*
X570230Y361950D01*
X533307Y356865D02*
X565145D01*
X491490Y140970D02*
X494756Y137704D01*
X446665Y185795D02*
X491490Y140970D01*
X488950Y138430D02*
X495361Y132019D01*
X443165Y184215D02*
X488950Y138430D01*
X488950Y138430D02*
X488950Y138430D01*
X495361Y132019D02*
X521608D01*
X496570Y135890D02*
X532070D01*
X494756Y137704D02*
X496570Y135890D01*
X494756Y137704D02*
X494756D01*
X482600Y136350D02*
Y137160D01*
X521608Y132019D02*
X529836Y123790D01*
X387770Y138190D02*
Y140190D01*
X382270Y134690D02*
X384270D01*
X387770Y138190D01*
Y140190D02*
X409410Y161830D01*
Y175350D01*
X281530Y247230D02*
X282030Y247730D01*
X479990Y295910D02*
Y297910D01*
X436790Y302730D02*
X475170D01*
X479990Y297910D01*
X480545Y280820D02*
X552698D01*
X642830Y403420D02*
X643810Y402440D01*
X642830Y407960D02*
X643810Y408940D01*
X554579Y276280D02*
X565880Y287581D01*
X478664Y276280D02*
X554579D01*
X436790Y287730D02*
X437020Y287960D01*
X552698Y280820D02*
X561340Y289462D01*
X437020Y287960D02*
X466984D01*
X437020Y292500D02*
X468865D01*
X480545Y280820D01*
X565880Y287581D02*
Y301476D01*
X561340Y289462D02*
Y303356D01*
X466984Y287960D02*
X478664Y276280D01*
X436790Y292730D02*
X437020Y292500D01*
X565880Y301476D02*
X589854Y325450D01*
X583420Y135290D02*
Y168130D01*
X588902Y173612D02*
X592312D01*
X595230Y176530D01*
X583420Y168130D02*
X588902Y173612D01*
X579120Y126890D02*
X589170Y116840D01*
X570230Y176530D02*
X579120Y167640D01*
Y126890D02*
Y167640D01*
X583420Y135290D02*
X589170Y129540D01*
X594420D01*
X644360D01*
X589170Y116840D02*
X594420D01*
X652780Y135960D02*
X655250Y138430D01*
X624840Y115640D02*
X626840D01*
X644360Y129540D02*
X650780Y135960D01*
X652780D01*
X594420Y116840D02*
X623640D01*
X624840Y115640D01*
X436790Y197730D02*
X437290Y197230D01*
X442665Y192730D02*
X443165Y192230D01*
X436790Y192730D02*
X442665D01*
X443165Y184215D02*
Y192230D01*
X529836Y123790D02*
X545804D01*
X549420Y120174D01*
Y109890D02*
Y120174D01*
X543670Y104140D02*
X549420Y109890D01*
X538420Y104140D02*
X543670D01*
X532070Y135890D02*
X538420Y142240D01*
D18*
X570230Y176530D02*
D03*
X595230D02*
D03*
X570230Y221030D02*
D03*
X595230D02*
D03*
D19*
X201270Y398580D02*
D03*
Y373580D02*
D03*
X245770Y398580D02*
D03*
Y373580D02*
D03*
D20*
X624840Y92640D02*
D03*
Y115640D02*
D03*
X382270Y134690D02*
D03*
Y111690D02*
D03*
X217170Y322650D02*
D03*
Y299650D02*
D03*
X241300Y313620D02*
D03*
Y336620D02*
D03*
X652780Y112960D02*
D03*
Y135960D02*
D03*
X86360Y335890D02*
D03*
Y316890D02*
D03*
X110490Y335890D02*
D03*
Y316890D02*
D03*
X505460Y90830D02*
D03*
Y109830D02*
D03*
X480060Y89560D02*
D03*
Y108560D02*
D03*
X460000Y334000D02*
D03*
Y315000D02*
D03*
X255000Y164500D02*
D03*
Y183500D02*
D03*
X230000Y165500D02*
D03*
Y184500D02*
D03*
X228000Y226500D02*
D03*
Y207500D02*
D03*
X253000Y226500D02*
D03*
Y207500D02*
D03*
D21*
X62230Y409300D02*
D03*
Y390800D02*
D03*
X124460Y388980D02*
D03*
Y370480D02*
D03*
X478790Y233320D02*
D03*
Y251820D02*
D03*
X501650Y233320D02*
D03*
Y251820D02*
D03*
X123190Y131720D02*
D03*
Y150220D02*
D03*
X151130Y148950D02*
D03*
Y130450D02*
D03*
X179070Y137520D02*
D03*
Y119020D02*
D03*
X148590Y455930D02*
D03*
Y437430D02*
D03*
D22*
X242570Y461760D02*
D03*
Y429260D02*
D03*
X283210Y455670D02*
D03*
Y423170D02*
D03*
D23*
X100330Y390230D02*
D03*
Y369230D02*
D03*
X565150Y420030D02*
D03*
Y441030D02*
D03*
X591820Y420030D02*
D03*
Y441030D02*
D03*
X584200Y23790D02*
D03*
Y44790D02*
D03*
X171450Y73320D02*
D03*
Y94320D02*
D03*
X140970Y75860D02*
D03*
Y96860D02*
D03*
X111760D02*
D03*
Y75860D02*
D03*
D24*
X280500Y478480D02*
D03*
X227567Y535047D02*
D03*
X674133Y177423D02*
D03*
X621200Y233990D02*
D03*
D25*
X505460Y140970D02*
D03*
X171450Y379730D02*
D03*
Y398780D02*
D03*
X628650Y134620D02*
D03*
X210820Y416560D02*
D03*
X262890Y388620D02*
D03*
X646430Y97790D02*
D03*
X111760Y288290D02*
D03*
X142240Y364490D02*
D03*
X574040Y237490D02*
D03*
X591820Y274320D02*
D03*
X482600Y137160D02*
D03*
X591820Y383540D02*
D03*
X607060Y379730D02*
D03*
X217000Y458000D02*
D03*
X669290Y341630D02*
D03*
X685800Y336550D02*
D03*
X417830Y408940D02*
D03*
D26*
X255000Y254500D02*
D03*
X217000D02*
D03*
Y277500D02*
D03*
X255000D02*
D03*
D27*
X134560Y346710D02*
D03*
Y334010D02*
D03*
Y321310D02*
D03*
Y308610D02*
D03*
X190560Y346710D02*
D03*
Y334010D02*
D03*
Y321310D02*
D03*
Y308610D02*
D03*
X538420Y142240D02*
D03*
Y129540D02*
D03*
Y116840D02*
D03*
Y104140D02*
D03*
X594420Y142240D02*
D03*
Y129540D02*
D03*
Y116840D02*
D03*
Y104140D02*
D03*
X536000Y173990D02*
D03*
Y186690D02*
D03*
Y199390D02*
D03*
Y212090D02*
D03*
X480000Y173990D02*
D03*
Y186690D02*
D03*
Y199390D02*
D03*
Y212090D02*
D03*
D28*
X148750Y483770D02*
D03*
X168750D02*
D03*
X188750D02*
D03*
D29*
X287500Y152000D02*
D03*
X306500D02*
D03*
X310500Y360000D02*
D03*
X291500D02*
D03*
X479990Y295910D02*
D03*
X502990D02*
D03*
X441500Y155000D02*
D03*
X422500D02*
D03*
X196190Y274066D02*
D03*
X177190D02*
D03*
X195500Y255000D02*
D03*
X176500D02*
D03*
D30*
X205000Y167600D02*
D03*
Y184400D02*
D03*
X206000Y225400D02*
D03*
Y208600D02*
D03*
D31*
X282030Y312730D02*
D03*
Y307730D02*
D03*
Y302730D02*
D03*
Y297730D02*
D03*
Y292730D02*
D03*
Y287730D02*
D03*
Y282730D02*
D03*
Y277730D02*
D03*
Y272730D02*
D03*
Y267730D02*
D03*
Y262730D02*
D03*
Y257730D02*
D03*
Y252730D02*
D03*
Y247730D02*
D03*
Y242730D02*
D03*
Y237730D02*
D03*
Y232730D02*
D03*
Y227730D02*
D03*
Y222730D02*
D03*
Y217730D02*
D03*
Y212730D02*
D03*
Y207730D02*
D03*
Y202730D02*
D03*
Y197730D02*
D03*
Y192730D02*
D03*
X436790D02*
D03*
Y197730D02*
D03*
Y202730D02*
D03*
Y207730D02*
D03*
Y212730D02*
D03*
Y217730D02*
D03*
Y222730D02*
D03*
Y227730D02*
D03*
Y232730D02*
D03*
Y237730D02*
D03*
Y242730D02*
D03*
Y247730D02*
D03*
Y252730D02*
D03*
Y257730D02*
D03*
Y262730D02*
D03*
Y267730D02*
D03*
Y272730D02*
D03*
Y277730D02*
D03*
Y282730D02*
D03*
Y287730D02*
D03*
Y292730D02*
D03*
Y297730D02*
D03*
Y302730D02*
D03*
Y307730D02*
D03*
Y312730D02*
D03*
D32*
X299410Y175350D02*
D03*
X304410D02*
D03*
X309410D02*
D03*
X314410D02*
D03*
X319410D02*
D03*
X324410D02*
D03*
X329410D02*
D03*
X334410D02*
D03*
X339410D02*
D03*
X344410D02*
D03*
X349410D02*
D03*
X354410D02*
D03*
X359410D02*
D03*
X364410D02*
D03*
X369410D02*
D03*
X374410D02*
D03*
X379410D02*
D03*
X384410D02*
D03*
X389410D02*
D03*
X394410D02*
D03*
X399410D02*
D03*
X404410D02*
D03*
X409410D02*
D03*
X414410D02*
D03*
X419410D02*
D03*
Y330110D02*
D03*
X414410D02*
D03*
X409410D02*
D03*
X404410D02*
D03*
X399410D02*
D03*
X394410D02*
D03*
X389410D02*
D03*
X384410D02*
D03*
X379410D02*
D03*
X374410D02*
D03*
X369410D02*
D03*
X364410D02*
D03*
X359410D02*
D03*
X354410D02*
D03*
X349410D02*
D03*
X344410D02*
D03*
X339410D02*
D03*
X334410D02*
D03*
X329410D02*
D03*
X324410D02*
D03*
X319410D02*
D03*
X314410D02*
D03*
X309410D02*
D03*
X304410D02*
D03*
X299410D02*
D03*
D33*
X543560Y259050D02*
D03*
Y287050D02*
D03*
D34*
X643810Y415440D02*
D03*
Y408940D02*
D03*
Y402440D02*
D03*
Y421940D02*
D03*
Y395940D02*
D03*
D35*
X670560Y448940D02*
D03*
Y368940D02*
D03*
D36*
Y420940D02*
D03*
Y396940D02*
D03*
D37*
X513080Y435360D02*
D03*
D38*
X536080Y372360D02*
D03*
X513080D02*
D03*
X490080D02*
D03*
D39*
X679450Y268540D02*
D03*
Y308040D02*
D03*
X596900Y310450D02*
D03*
Y349950D02*
D03*
X633730Y293940D02*
D03*
Y333440D02*
D03*
D40*
X389610Y430530D02*
D03*
X354610D02*
D03*
D41*
X418400Y435610D02*
D03*
X457900D02*
D03*
D42*
X23320Y254950D02*
D03*
X80820D02*
D03*
X23320Y214950D02*
D03*
X80820D02*
D03*
D43*
X555350Y57150D02*
D03*
X536850D02*
D03*
D44*
X617220Y407910D02*
D03*
Y437910D02*
D03*
D82*
X227567Y535047D02*
G03*
X222250Y529730I0J-5317D01*
G01*
X394690Y435610D02*
G03*
X389610Y430530I0J-5080D01*
G01*
X418400Y435610D02*
G03*
X417830Y435040I0J-570D01*
G01*
X443800Y522760D02*
G03*
X418400Y497360I0J-25400D01*
G01*
X231000Y442000D02*
X287000D01*
X222250Y450750D02*
Y529730D01*
Y450750D02*
X231000Y442000D01*
X536080Y372360D02*
Y440830D01*
X289500Y360000D02*
X290230Y359270D01*
Y358730D02*
Y359270D01*
X281000Y360000D02*
X289500D01*
X307584Y457200D02*
X334254Y430530D01*
X354610D01*
X283210Y457200D02*
X307584D01*
X280500Y478480D02*
X283210Y475770D01*
Y457200D02*
Y475770D01*
X227567Y535047D02*
X232067D01*
X227567D02*
X227567D01*
X232067D02*
X251111Y516003D01*
X252347D01*
X252730Y515620D01*
X242570Y505460D02*
X252730Y515620D01*
X242570Y458210D02*
Y505460D01*
X536080Y440830D02*
X596900Y501650D01*
X464091Y109220D02*
X464751Y108560D01*
X463550Y109220D02*
X464091D01*
X464751Y108560D02*
X480060D01*
X88360Y316890D02*
X110490D01*
X86360D02*
X88360D01*
X102607Y302643D01*
X108837D01*
X109220Y302260D01*
X110490Y316890D02*
X124890D01*
X129310Y321310D01*
X134560D01*
X533170Y116840D02*
X538420D01*
X505460Y109830D02*
X526160D01*
X533170Y116840D01*
X480695Y109195D02*
X504825D01*
X505460Y109830D01*
X480060Y108560D02*
X480695Y109195D01*
X592326Y531624D02*
X596900Y527050D01*
X592326Y531624D02*
Y534625D01*
X588401Y538550D02*
X592326Y534625D01*
X339721Y538550D02*
X588401D01*
X335923Y528963D02*
Y534752D01*
X339721Y538550D01*
X334010Y527050D02*
X335923Y528963D01*
X274320Y478480D02*
X280500D01*
X418400Y435610D02*
Y497360D01*
X417830Y408940D02*
Y435040D01*
X394690Y435610D02*
X418400D01*
X443800Y522760D02*
X461490D01*
D83*
X674133Y199627D02*
G03*
X673100Y200660I-1033J0D01*
G01*
X679450Y308040D02*
G03*
X657860Y286450I0J-21590D01*
G01*
X685800Y336550D02*
G03*
X670560Y351790I-15240J0D01*
G01*
X685800Y336550D02*
G03*
X679450Y330200I0J-6350D01*
G01*
X655320Y356870D02*
G03*
X660400Y351790I5080J0D01*
G01*
X655320Y384430D02*
G03*
X643810Y395940I-11510J0D01*
G01*
X205000Y184400D02*
X267400D01*
X270956Y187956D02*
Y209774D01*
X273912Y212730D01*
X267400Y184400D02*
X270956Y187956D01*
X273912Y212730D02*
X282030D01*
X206000Y208600D02*
X262600D01*
X271730Y217730D01*
X282030D01*
X198190Y274066D02*
Y276066D01*
X480000Y199390D02*
X485250D01*
X282030Y262730D02*
X296729D01*
X278130Y81280D02*
X278895Y82045D01*
X138430Y348451D02*
Y364610D01*
X134560Y346710D02*
X136690D01*
X138430Y348451D01*
X630700Y231140D02*
X638810D01*
X657860Y250190D01*
Y286450D01*
X621200Y233990D02*
X630700Y231140D01*
X505900Y256070D02*
X519615D01*
X501650Y251820D02*
X505900Y256070D01*
X519615D02*
X522595Y259050D01*
X540810D02*
X543560D01*
X543590Y259080D01*
X565150D01*
X522595Y259050D02*
X540810D01*
X306950Y148230D02*
X307500Y148780D01*
X570230Y218280D02*
Y221030D01*
X310500Y358000D02*
Y360000D01*
X208930Y222470D02*
X209320Y222080D01*
X206000Y225400D02*
X208930Y222470D01*
X207020Y387354D02*
X250800Y343574D01*
X240300Y335620D02*
X244147Y339467D01*
Y343863D01*
X214430Y373580D02*
X244147Y343863D01*
X513080Y231320D02*
X540810Y259050D01*
X513080Y201820D02*
Y231320D01*
X485250Y173990D02*
X513080Y201820D01*
X478790Y251820D02*
X501650D01*
X182880Y505460D02*
X188750Y499590D01*
Y483770D02*
Y499590D01*
X538420Y58720D02*
Y104140D01*
X536850Y57150D02*
X538420Y58720D01*
X583700Y44790D02*
X584200D01*
X555350Y57150D02*
X571340D01*
X583700Y44790D01*
X513080Y403860D02*
Y435360D01*
Y372360D02*
Y403860D01*
X134560Y308610D02*
X139810D01*
X113099Y289629D02*
Y292399D01*
X129310Y308610D02*
X134560D01*
X113099Y292399D02*
X129310Y308610D01*
X111760Y288290D02*
X113099Y289629D01*
X238690Y334010D02*
X240300Y335620D01*
X250800Y330877D02*
Y343574D01*
X201270Y373580D02*
X214430D01*
X207020Y387354D02*
Y395580D01*
X204020Y398580D02*
X207020Y395580D01*
X198520Y373580D02*
X201270D01*
X190560Y334010D02*
X238690D01*
X215830Y321310D02*
X217170Y322650D01*
X190560Y321310D02*
X215830D01*
X242573Y322650D02*
X250800Y330877D01*
X201270Y398580D02*
X204020D01*
X217170Y322650D02*
X242573D01*
X171450Y379730D02*
X192370D01*
X198520Y373580D01*
X171450Y398780D02*
X201070D01*
X201270Y398580D01*
X480000Y212090D02*
X485140D01*
X486881Y213831D02*
Y216371D01*
X496400Y225890D02*
Y229070D01*
X485140Y212090D02*
X486881Y213831D01*
Y216371D02*
X496400Y225890D01*
Y229070D02*
X500650Y233320D01*
X171450Y112400D02*
X178070Y119020D01*
X179070D01*
X171450Y94320D02*
Y112400D01*
X150130Y130450D02*
X151130D01*
X140970Y96860D02*
Y121290D01*
X150130Y130450D01*
X123190Y107790D02*
Y131720D01*
X112260Y96860D02*
X123190Y107790D01*
X111760Y96860D02*
X112260D01*
X192350Y255540D02*
Y257540D01*
X205000Y184350D02*
Y184400D01*
X674133Y177423D02*
Y199627D01*
X679450Y308040D02*
Y330200D01*
X660400Y351790D02*
X670560D01*
X655320Y356870D02*
Y384430D01*
D84*
X228800Y398580D02*
X245770D01*
X210820Y416560D02*
X228800Y398580D01*
X210820Y416560D02*
X211376D01*
X245770Y373580D02*
X248520D01*
X243020D02*
X245770D01*
X587061Y273371D02*
Y285959D01*
X585470Y271780D02*
X587061Y273371D01*
X558140Y202540D02*
Y206190D01*
X570230Y218280D01*
X557530Y201930D02*
X558140Y202540D01*
X562980Y186030D02*
X595230Y218280D01*
X557530Y185420D02*
X558140Y186030D01*
X595230Y218280D02*
Y221030D01*
X558140Y186030D02*
X562980D01*
X248520Y373580D02*
X256425Y381485D01*
Y413871D01*
X256340Y413956D02*
X256425Y413871D01*
X245770Y398580D02*
X247650Y400460D01*
Y414020D01*
X148590Y455930D02*
X148750Y456090D01*
Y483770D01*
X367030Y490220D02*
X374650Y497840D01*
X367030Y472440D02*
Y490220D01*
X240425Y376175D02*
X243020Y373580D01*
X585470Y233540D02*
X595230Y223780D01*
Y221030D02*
Y223780D01*
X585470Y233540D02*
Y271780D01*
X579120D02*
Y280670D01*
Y232670D02*
Y271780D01*
X570230Y223780D02*
X579120Y232670D01*
X570230Y221030D02*
Y223780D01*
D85*
X21590Y306070D02*
D03*
Y331470D02*
D03*
Y382270D02*
D03*
Y407670D02*
D03*
Y356870D02*
D03*
X596900Y476250D02*
D03*
Y501650D02*
D03*
D86*
X21590Y433070D02*
D03*
X596900Y527050D02*
D03*
D87*
X650000Y50000D02*
D03*
X651030Y500420D02*
D03*
X50000Y500000D02*
D03*
Y50000D02*
D03*
D88*
X521490Y522760D02*
D03*
X491490D02*
D03*
X521490Y492760D02*
D03*
X491490D02*
D03*
X461490D02*
D03*
D89*
Y522760D02*
D03*
D90*
X431800Y483870D02*
D03*
X551180D02*
D03*
D91*
X127500Y524270D02*
D03*
X190000D02*
D03*
D92*
X384810Y527050D02*
D03*
X334010D02*
D03*
X359410D02*
D03*
D93*
X646060Y429690D02*
D03*
Y388190D02*
D03*
X33020Y243840D02*
D03*
D94*
X348000Y363000D02*
D03*
X188722Y298196D02*
D03*
X325000Y316735D02*
D03*
X315760Y317908D02*
D03*
X307340Y299212D02*
D03*
X303500Y277876D02*
D03*
X267208Y250444D02*
D03*
X159000Y220000D02*
D03*
X299000Y263000D02*
D03*
X287000Y442000D02*
D03*
X675000Y341000D02*
D03*
X318000Y80000D02*
D03*
X287000Y81000D02*
D03*
X349000Y117000D02*
D03*
X360000D02*
D03*
X296000Y283000D02*
D03*
Y272000D02*
D03*
X535000Y409000D02*
D03*
X564000Y400000D02*
D03*
X444000Y325000D02*
D03*
X309000Y140000D02*
D03*
X267170Y302730D02*
D03*
X269000Y292000D02*
D03*
X354410Y342900D02*
D03*
X349410Y354904D02*
D03*
X329410Y350000D02*
D03*
X324000Y365000D02*
D03*
X334151Y361809D02*
D03*
X339410Y347000D02*
D03*
X457000Y226000D02*
D03*
X459000Y215000D02*
D03*
X418000Y212000D02*
D03*
X418365Y202365D02*
D03*
X405000Y192000D02*
D03*
X395000D02*
D03*
X379000Y205000D02*
D03*
X384410Y193000D02*
D03*
X389000Y209000D02*
D03*
X310000Y198000D02*
D03*
X325000Y191000D02*
D03*
X314410Y190000D02*
D03*
X320000Y199000D02*
D03*
X312664Y225764D02*
D03*
X321000Y221000D02*
D03*
X326390Y213360D02*
D03*
X299000Y294000D02*
D03*
X410000Y267000D02*
D03*
X409000Y279000D02*
D03*
X415000Y299000D02*
D03*
X409000Y290000D02*
D03*
X415000Y314000D02*
D03*
X421000Y257000D02*
D03*
X281000Y360000D02*
D03*
X300000Y228000D02*
D03*
X409205Y346795D02*
D03*
X436000Y354000D02*
D03*
X404000Y357000D02*
D03*
X397000Y347000D02*
D03*
X354330Y350266D02*
D03*
X258000Y297000D02*
D03*
X309000Y347000D02*
D03*
X328000Y262000D02*
D03*
X360680Y78740D02*
D03*
X372110Y400050D02*
D03*
X351790Y401320D02*
D03*
X361950Y400050D02*
D03*
X336550Y401320D02*
D03*
X400050Y161290D02*
D03*
X278130Y81280D02*
D03*
X386080Y414020D02*
D03*
X398780Y415290D02*
D03*
X453390Y193040D02*
D03*
X461010Y203200D02*
D03*
X501650Y267970D02*
D03*
X638810Y231140D02*
D03*
X565150Y259080D02*
D03*
X458470Y257810D02*
D03*
X459740Y271780D02*
D03*
X153670Y179070D02*
D03*
X132080Y176530D02*
D03*
X423000Y142000D02*
D03*
X316230Y207010D02*
D03*
X310110Y232984D02*
D03*
X557530Y185420D02*
D03*
Y201930D02*
D03*
X262890Y328930D02*
D03*
X554990Y226060D02*
D03*
X405130Y304800D02*
D03*
X299560Y242730D02*
D03*
X264400Y237620D02*
D03*
X327000Y153670D02*
D03*
X355600Y132080D02*
D03*
X342900Y128270D02*
D03*
X345440Y140970D02*
D03*
X339090Y153670D02*
D03*
X330200Y135890D02*
D03*
X458470Y246380D02*
D03*
X168910Y427990D02*
D03*
X256340Y413956D02*
D03*
X247650Y414020D02*
D03*
X374650Y497840D02*
D03*
X367030Y472440D02*
D03*
X570230Y361950D02*
D03*
X533307Y356865D02*
D03*
X182880Y505460D02*
D03*
X600710Y405130D02*
D03*
X513080Y403860D02*
D03*
X463550Y109220D02*
D03*
X109220Y302260D02*
D03*
X252730Y515620D02*
D03*
X587061Y285959D02*
D03*
X579120Y280670D02*
D03*
X565150Y440690D02*
D03*
X591820Y443230D02*
D03*
X617220Y438150D02*
D03*
X673100Y200660D02*
D03*
X630000Y70000D02*
D03*
X622500Y50000D02*
D03*
X630000Y30000D02*
D03*
X650000Y22500D02*
D03*
X670000Y30000D02*
D03*
X677500Y50000D02*
D03*
X670000Y70000D02*
D03*
X650000Y77500D02*
D03*
X630000Y520000D02*
D03*
X622500Y500000D02*
D03*
X630000Y480000D02*
D03*
X650000Y472500D02*
D03*
X670000Y480000D02*
D03*
X677500Y500000D02*
D03*
X670000Y520000D02*
D03*
X650000Y527500D02*
D03*
X50000D02*
D03*
X70000Y520000D02*
D03*
X77500Y500000D02*
D03*
X70000Y480000D02*
D03*
X50000Y472500D02*
D03*
X30000Y480000D02*
D03*
X22500Y500000D02*
D03*
X30000Y520000D02*
D03*
X50000Y77500D02*
D03*
X70000Y70000D02*
D03*
X77500Y50000D02*
D03*
X70000Y30000D02*
D03*
X50000Y22500D02*
D03*
X30000Y30000D02*
D03*
X22500Y50000D02*
D03*
X30000Y70000D02*
D03*
M02*
