M48
;Layer_Color=9474304
;FILE_FORMAT=4:4
METRIC,LZ
;TYPE=PLATED
T01F00S00C0.2000
T02F00S00C0.3000
T03F00S00C0.4000
T04F00S00C0.5000
T05F00S00C0.8000
T06F00S00C1.0000
T07F00S00C1.1000
T08F00S00C1.2000
T09F00S00C3.2000
;TYPE=NON_PLATED
T10F00S00C0.7000
%
T01
X00119Y0008025
X00143Y00123
X0016Y00127
X00208Y00114
X00227Y00115
X00247
X00253Y00187
X00256318Y00197318
X00222Y00192
X00219Y00201
Y00214
X00223Y00225
X00222818Y00238818
X00221Y00247
X002365
X00251Y00238
X00303Y00228
X00321636Y00223
X003255Y00233
X00325Y00238
X00329136Y00243
X00326Y00248
X00332Y00253
X00341Y00257
X0033Y00278
X00326Y00288
X00328Y00318
X00341Y00319
Y00342
X00344743Y00346
X00351Y00341
X00356Y00345
X0036Y00339
X00366Y00344
X00371Y00339
X00376Y00343
X00381Y0034
X00386Y00344
X00323184Y00343057
X00277Y00339
X00254734Y003326
X00256Y00352
X00220898Y003405
X00224Y00328
X00221488Y00316025
X002365Y00316
X00236Y00303
X00219Y00303
X00215Y00289
X00214Y00275
X00211Y00267
X00144Y002395
Y002205
X00131Y002975
X00132Y00317
X00151Y00318
X00198Y0035
X00229Y00374
X000795Y00379532
X00048Y00337282
X00288Y002065
Y001875
X0031Y0014
X00322
X00335Y00141
X00348
X00358Y00142
X00371Y00141
X00383Y00142
X00396
X00383Y00109
X00366Y00223
X00361Y00229
X00427Y00225
X00452Y00233
X00449226Y00238
X00449226Y00248063
X00454226Y00243063
X00455226Y00253063
X00449226Y00258063
X00449226Y00278063
X00453226Y00283063
X00449226Y00288063
X00453226Y00293063
X00449226Y00298063
X00451226Y00303063
X00452Y00313
X00447Y00327
X00448Y00344
X00421Y00379
X00426Y00387
X00455226Y00273063
X00447Y00186
X00441Y00192
X00435Y00154
X00423
X0041
X00398Y00129
X00441Y001255
X00448Y00154
X00462Y00152
X00472Y00151
X0049Y00096
X00549Y00243
X00581Y002307
X00582Y00218
X00606Y00292
X00597Y003515
Y003705
X00628Y00391
X00716875Y00361125
X007705Y003875
X00792Y00321
X00782Y0030425
X00784Y00275
X0076Y00269
X00737
Y002475
X00725Y00217
X00694Y00235
X0071Y00283
X00679Y00311
X00555Y00332
X00545Y00404
X00522Y00398
X00499Y00405
X00463Y00408
X0045
X00438252Y00409897
X00425Y00408
Y00451
X00412
X00399
X0045325Y00475
Y005005
X00425Y00529
X0042325Y00551
X00614Y0049
X00602Y004621
X00592Y00448
X0062Y00433
X00573Y00409
X00721Y00436
X00374Y00448
X00361Y00447
X00348
X00335Y00448
X00323Y00449
X0031
X00298Y00448
X002975Y00474
X00263Y00477
X00246Y00476
X00266Y004605
X00275Y00437
X00298Y0041
X00235Y004165
X00204Y0042
X00209Y00477
X00268Y005375
Y00559
X00288Y00551
X0031446Y0056925
X00320049Y00568053
X00333305Y0054277
X00334071Y0053723
X00343Y00551
X00364Y00512
X00363234Y00505695
X00378Y0050146
X00376Y00485
X003835Y0053
X00108Y00525
Y00537
Y0055005
X00107Y00511
X00102Y00451532
X00078
X0008Y00398532
X00034Y00399532
T02
X00264Y00223
X00686Y0037525
X00243Y00455
X00147Y00523
T03
X00308Y00105
X00333Y00116
X00545Y00218
X00733418Y00302605
X00522Y00469
X00463Y00455
X0045Y00456
X0021Y00465
X00103Y00469782
T04
X0003Y0008
X0005Y000725
X0007Y0008
X000775Y001
X0007Y0012
X0005Y001275
X0003Y0012
X000225Y001
X007225Y00101
X0073Y00121
X0075Y001285
X0077Y00121
X007775Y00101
X0077Y00081
X0075Y000735
X0073Y00081
Y00531
X0075Y005235
X0077Y00531
X007775Y00551
X0077Y00571
X0075Y005785
X0073Y00571
X007225Y00551
X000775Y00549
X0007Y00529
X0005Y005215
X0003Y00529
X000225Y00549
X0003Y00569
X0005Y005765
X0007Y00569
T05
X0020575Y00074
X0026825
T06
X006212Y00574
X006466
X00672
T07
X003064Y00076
X003318
X003572
X003826
X00408
X004334
X004723Y00077
X004977
X0078Y004432
Y004686
Y00494
T08
X00487Y00534555
Y00564555
X00517
X00547
Y00534555
X00517
X0045731Y00573445
X0057669
T09
X0005Y001
X0075Y00101
Y00551
X0005Y00549
T10
X007465Y0035425
Y0039575
M30
