G04*
G04 #@! TF.GenerationSoftware,Altium Limited,Altium Designer,23.11.1 (41)*
G04*
G04 Layer_Physical_Order=3*
G04 Layer_Color=16440176*
%FSLAX44Y44*%
%MOMM*%
G71*
G04*
G04 #@! TF.SameCoordinates,4CE7A35D-70A9-472E-BD1E-F3F5204FB4D5*
G04*
G04*
G04 #@! TF.FilePolarity,Positive*
G04*
G01*
G75*
%ADD13C,0.6000*%
%ADD24C,2.0000*%
%ADD67C,1.8000*%
%ADD72C,1.5000*%
%ADD83C,1.6000*%
G04:AMPARAMS|DCode=84|XSize=1.6mm|YSize=1.6mm|CornerRadius=0.4mm|HoleSize=0mm|Usage=FLASHONLY|Rotation=0.000|XOffset=0mm|YOffset=0mm|HoleType=Round|Shape=RoundedRectangle|*
%AMROUNDEDRECTD84*
21,1,1.6000,0.8000,0,0,0.0*
21,1,0.8000,1.6000,0,0,0.0*
1,1,0.8000,0.4000,-0.4000*
1,1,0.8000,-0.4000,-0.4000*
1,1,0.8000,-0.4000,0.4000*
1,1,0.8000,0.4000,0.4000*
%
%ADD84ROUNDEDRECTD84*%
%ADD85C,7.0000*%
%ADD86C,1.2000*%
G04:AMPARAMS|DCode=87|XSize=2mm|YSize=2mm|CornerRadius=0.5mm|HoleSize=0mm|Usage=FLASHONLY|Rotation=90.000|XOffset=0mm|YOffset=0mm|HoleType=Round|Shape=RoundedRectangle|*
%AMROUNDEDRECTD87*
21,1,2.0000,1.0000,0,0,90.0*
21,1,1.0000,2.0000,0,0,90.0*
1,1,1.0000,0.5000,0.5000*
1,1,1.0000,0.5000,-0.5000*
1,1,1.0000,-0.5000,-0.5000*
1,1,1.0000,-0.5000,0.5000*
%
%ADD87ROUNDEDRECTD87*%
%ADD88C,1.3000*%
G04:AMPARAMS|DCode=89|XSize=1.6mm|YSize=1.6mm|CornerRadius=0.4mm|HoleSize=0mm|Usage=FLASHONLY|Rotation=270.000|XOffset=0mm|YOffset=0mm|HoleType=Round|Shape=RoundedRectangle|*
%AMROUNDEDRECTD89*
21,1,1.6000,0.8000,0,0,270.0*
21,1,0.8000,1.6000,0,0,270.0*
1,1,0.8000,-0.4000,-0.4000*
1,1,0.8000,-0.4000,0.4000*
1,1,0.8000,0.4000,0.4000*
1,1,0.8000,0.4000,-0.4000*
%
%ADD89ROUNDEDRECTD89*%
%ADD90C,0.7000*%
%ADD91C,0.3000*%
%ADD92C,0.4000*%
G36*
X750000Y600000D02*
X753277D01*
X759775Y599144D01*
X766106Y597448D01*
X772162Y594940D01*
X777838Y591663D01*
X783038Y587673D01*
X787673Y583038D01*
X791663Y577838D01*
X794940Y572162D01*
X797448Y566106D01*
X799144Y559775D01*
X800000Y553277D01*
Y550000D01*
X800000Y550000D01*
X800000Y550000D01*
X800000Y100000D01*
Y96723D01*
X799145Y90225D01*
X797448Y83893D01*
X794940Y77838D01*
X791663Y72162D01*
X787673Y66962D01*
X783038Y62327D01*
X777838Y58337D01*
X772162Y55060D01*
X766106Y52552D01*
X759775Y50855D01*
X753277Y50000D01*
X46723D01*
X40224Y50855D01*
X33893Y52552D01*
X27838Y55060D01*
X22162Y58337D01*
X16962Y62327D01*
X12327Y66962D01*
X8337Y72162D01*
X5060Y77838D01*
X2552Y83893D01*
X856Y90225D01*
X0Y96723D01*
Y100000D01*
Y550000D01*
Y553277D01*
X856Y559775D01*
X2552Y566106D01*
X5060Y572162D01*
X8337Y577838D01*
X12327Y583038D01*
X16962Y587673D01*
X22162Y591663D01*
X27838Y594940D01*
X33893Y597448D01*
X40224Y599145D01*
X46723Y600000D01*
X50000D01*
X750000Y600000D01*
D02*
G37*
%LPC*%
G36*
X577743Y581445D02*
X575637D01*
X573602Y580900D01*
X571778Y579847D01*
X570288Y578357D01*
X569235Y576533D01*
X568690Y574498D01*
Y572392D01*
X569235Y570357D01*
X570288Y568533D01*
X571778Y567043D01*
X573602Y565990D01*
X575637Y565445D01*
X577743D01*
X579778Y565990D01*
X581602Y567043D01*
X583092Y568533D01*
X584145Y570357D01*
X584690Y572392D01*
Y574498D01*
X584145Y576533D01*
X583092Y578357D01*
X581602Y579847D01*
X579778Y580900D01*
X577743Y581445D01*
D02*
G37*
G36*
X458363D02*
X456257D01*
X454222Y580900D01*
X452398Y579847D01*
X450908Y578357D01*
X449855Y576533D01*
X449310Y574498D01*
Y572392D01*
X449855Y570357D01*
X450908Y568533D01*
X452398Y567043D01*
X454222Y565990D01*
X456257Y565445D01*
X458363D01*
X460398Y565990D01*
X462222Y567043D01*
X463712Y568533D01*
X464765Y570357D01*
X465310Y572392D01*
Y574498D01*
X464765Y576533D01*
X463712Y578357D01*
X462222Y579847D01*
X460398Y580900D01*
X458363Y581445D01*
D02*
G37*
G36*
X315156Y572750D02*
X313764D01*
X312477Y572217D01*
X311493Y571233D01*
X310960Y569946D01*
Y568554D01*
X311493Y567267D01*
X312477Y566283D01*
X313764Y565750D01*
X315156D01*
X315870Y566046D01*
X317082Y566070D01*
X318066Y565086D01*
X319353Y564553D01*
X320745D01*
X322032Y565086D01*
X323016Y566070D01*
X323549Y567357D01*
Y568749D01*
X323016Y570036D01*
X322032Y571020D01*
X320745Y571553D01*
X319353D01*
X318639Y571257D01*
X317427Y571233D01*
X316443Y572217D01*
X315156Y572750D01*
D02*
G37*
G36*
X673251Y583500D02*
X670749D01*
X668333Y582853D01*
X666167Y581602D01*
X664398Y579833D01*
X663147Y577667D01*
X662500Y575251D01*
Y572749D01*
X663147Y570333D01*
X664398Y568167D01*
X666167Y566398D01*
X668333Y565147D01*
X670749Y564500D01*
X673251D01*
X675667Y565147D01*
X677833Y566398D01*
X679602Y568167D01*
X680853Y570333D01*
X681500Y572749D01*
Y575251D01*
X680853Y577667D01*
X679602Y579833D01*
X677833Y581602D01*
X675667Y582853D01*
X673251Y583500D01*
D02*
G37*
G36*
X647851D02*
X645349D01*
X642933Y582853D01*
X640767Y581602D01*
X638998Y579833D01*
X637747Y577667D01*
X637100Y575251D01*
Y572749D01*
X637747Y570333D01*
X638998Y568167D01*
X640767Y566398D01*
X642933Y565147D01*
X645349Y564500D01*
X647851D01*
X650267Y565147D01*
X652433Y566398D01*
X654202Y568167D01*
X655453Y570333D01*
X656100Y572749D01*
Y575251D01*
X655453Y577667D01*
X654202Y579833D01*
X652433Y581602D01*
X650267Y582853D01*
X647851Y583500D01*
D02*
G37*
G36*
X622451D02*
X619949D01*
X617533Y582853D01*
X615367Y581602D01*
X613598Y579833D01*
X612347Y577667D01*
X611700Y575251D01*
Y572749D01*
X612347Y570333D01*
X613598Y568167D01*
X615367Y566398D01*
X617533Y565147D01*
X619949Y564500D01*
X622451D01*
X624867Y565147D01*
X627033Y566398D01*
X628802Y568167D01*
X630053Y570333D01*
X630700Y572749D01*
Y575251D01*
X630053Y577667D01*
X628802Y579833D01*
X627033Y581602D01*
X624867Y582853D01*
X622451Y583500D01*
D02*
G37*
G36*
X268696Y562500D02*
X267304D01*
X266017Y561967D01*
X265033Y560983D01*
X264500Y559696D01*
Y558304D01*
X265033Y557017D01*
X266017Y556033D01*
X267304Y555500D01*
X268696D01*
X269983Y556033D01*
X270967Y557017D01*
X271500Y558304D01*
Y559696D01*
X270967Y560983D01*
X269983Y561967D01*
X268696Y562500D01*
D02*
G37*
G36*
X548580Y576555D02*
X545420D01*
X542368Y575737D01*
X539632Y574157D01*
X537398Y571923D01*
X535818Y569187D01*
X535000Y566135D01*
Y562975D01*
X535818Y559923D01*
X537398Y557187D01*
X539632Y554953D01*
X542368Y553373D01*
X545420Y552555D01*
X548580D01*
X551632Y553373D01*
X554368Y554953D01*
X556602Y557187D01*
X558182Y559923D01*
X559000Y562975D01*
Y566135D01*
X558182Y569187D01*
X556602Y571923D01*
X554368Y574157D01*
X551632Y575737D01*
X548580Y576555D01*
D02*
G37*
G36*
X518580D02*
X515420D01*
X512368Y575737D01*
X509632Y574157D01*
X507398Y571923D01*
X505818Y569187D01*
X505000Y566135D01*
Y562975D01*
X505818Y559923D01*
X507398Y557187D01*
X509632Y554953D01*
X512368Y553373D01*
X515420Y552555D01*
X518580D01*
X521632Y553373D01*
X524368Y554953D01*
X526602Y557187D01*
X528182Y559923D01*
X529000Y562975D01*
Y566135D01*
X528182Y569187D01*
X526602Y571923D01*
X524368Y574157D01*
X521632Y575737D01*
X518580Y576555D01*
D02*
G37*
G36*
X488580D02*
X485420D01*
X482368Y575737D01*
X479632Y574157D01*
X477398Y571923D01*
X475818Y569187D01*
X475000Y566135D01*
Y562975D01*
X475818Y559923D01*
X477398Y557187D01*
X479632Y554953D01*
X482368Y553373D01*
X485420Y552555D01*
X488580D01*
X491632Y553373D01*
X494368Y554953D01*
X496602Y557187D01*
X498182Y559923D01*
X499000Y562975D01*
Y566135D01*
X498182Y569187D01*
X496602Y571923D01*
X494368Y574157D01*
X491632Y575737D01*
X488580Y576555D01*
D02*
G37*
G36*
X423946Y554500D02*
X422554D01*
X421267Y553967D01*
X420283Y552983D01*
X419750Y551696D01*
Y550304D01*
X420283Y549017D01*
X421267Y548033D01*
X422554Y547500D01*
X423946D01*
X425233Y548033D01*
X426217Y549017D01*
X426750Y550304D01*
Y551696D01*
X426217Y552983D01*
X425233Y553967D01*
X423946Y554500D01*
D02*
G37*
G36*
X343696D02*
X342304D01*
X341017Y553967D01*
X340033Y552983D01*
X339500Y551696D01*
Y550304D01*
X340033Y549017D01*
X341017Y548033D01*
X342304Y547500D01*
X343696D01*
X344983Y548033D01*
X345967Y549017D01*
X346500Y550304D01*
Y551696D01*
X345967Y552983D01*
X344983Y553967D01*
X343696Y554500D01*
D02*
G37*
G36*
X288696D02*
X287304D01*
X286017Y553967D01*
X285033Y552983D01*
X284500Y551696D01*
Y550304D01*
X285033Y549017D01*
X286017Y548033D01*
X287304Y547500D01*
X288696D01*
X289983Y548033D01*
X290967Y549017D01*
X291500Y550304D01*
Y551696D01*
X290967Y552983D01*
X289983Y553967D01*
X288696Y554500D01*
D02*
G37*
G36*
X108696Y553550D02*
X107304D01*
X106017Y553017D01*
X105033Y552033D01*
X104500Y550746D01*
Y549354D01*
X105033Y548067D01*
X106017Y547083D01*
X107304Y546550D01*
X108696D01*
X109983Y547083D01*
X110967Y548067D01*
X111500Y549354D01*
Y550746D01*
X110967Y552033D01*
X109983Y553017D01*
X108696Y553550D01*
D02*
G37*
G36*
X268696Y541000D02*
X267304D01*
X266017Y540467D01*
X265033Y539483D01*
X264500Y538196D01*
Y536804D01*
X265033Y535517D01*
X266017Y534533D01*
X267304Y534000D01*
X268696D01*
X269983Y534533D01*
X270967Y535517D01*
X271500Y536804D01*
Y538196D01*
X270967Y539483D01*
X269983Y540467D01*
X268696Y541000D01*
D02*
G37*
G36*
X334001Y546270D02*
X332609D01*
X331322Y545737D01*
X330338Y544753D01*
X329805Y543466D01*
Y542074D01*
X330338Y540787D01*
X330662Y540463D01*
X331104Y539213D01*
X330571Y537926D01*
Y536534D01*
X331104Y535247D01*
X332088Y534263D01*
X333375Y533730D01*
X334767D01*
X336054Y534263D01*
X337038Y535247D01*
X337571Y536534D01*
Y537926D01*
X337038Y539213D01*
X336714Y539537D01*
X336272Y540787D01*
X336805Y542074D01*
Y543466D01*
X336272Y544753D01*
X335288Y545737D01*
X334001Y546270D01*
D02*
G37*
G36*
X108696Y540500D02*
X107304D01*
X106017Y539967D01*
X105033Y538983D01*
X104500Y537696D01*
Y536304D01*
X105033Y535017D01*
X106017Y534033D01*
X107304Y533500D01*
X108696D01*
X109983Y534033D01*
X110967Y535017D01*
X111500Y536304D01*
Y537696D01*
X110967Y538983D01*
X109983Y539967D01*
X108696Y540500D01*
D02*
G37*
G36*
X384196Y533500D02*
X382804D01*
X381517Y532967D01*
X380533Y531983D01*
X380000Y530696D01*
Y529304D01*
X380533Y528017D01*
X381517Y527033D01*
X382804Y526500D01*
X384196D01*
X385483Y527033D01*
X386467Y528017D01*
X387000Y529304D01*
Y530696D01*
X386467Y531983D01*
X385483Y532967D01*
X384196Y533500D01*
D02*
G37*
G36*
X425696Y532500D02*
X424304D01*
X423017Y531967D01*
X422033Y530983D01*
X421500Y529696D01*
Y528304D01*
X422033Y527017D01*
X423017Y526033D01*
X424304Y525500D01*
X425696D01*
X426983Y526033D01*
X427967Y527017D01*
X428500Y528304D01*
Y529696D01*
X427967Y530983D01*
X426983Y531967D01*
X425696Y532500D01*
D02*
G37*
G36*
X518580Y546555D02*
X515420D01*
X512368Y545737D01*
X509632Y544157D01*
X507398Y541923D01*
X505818Y539187D01*
X505000Y536135D01*
Y532975D01*
X505818Y529923D01*
X507398Y527187D01*
X509632Y524953D01*
X512368Y523373D01*
X515420Y522555D01*
X518580D01*
X521632Y523373D01*
X524368Y524953D01*
X526602Y527187D01*
X528182Y529923D01*
X529000Y532975D01*
Y536135D01*
X528182Y539187D01*
X526602Y541923D01*
X524368Y544157D01*
X521632Y545737D01*
X518580Y546555D01*
D02*
G37*
G36*
X488580D02*
X485420D01*
X482368Y545737D01*
X479632Y544157D01*
X477398Y541923D01*
X475818Y539187D01*
X475000Y536135D01*
Y532975D01*
X475818Y529923D01*
X477398Y527187D01*
X479632Y524953D01*
X482368Y523373D01*
X485420Y522555D01*
X488580D01*
X491632Y523373D01*
X494368Y524953D01*
X496602Y527187D01*
X498182Y529923D01*
X499000Y532975D01*
Y536135D01*
X498182Y539187D01*
X496602Y541923D01*
X494368Y544157D01*
X491632Y545737D01*
X488580Y546555D01*
D02*
G37*
G36*
X552000Y546615D02*
X542000D01*
X540173Y546375D01*
X538470Y545670D01*
X537007Y544548D01*
X535886Y543085D01*
X535180Y541382D01*
X534940Y539555D01*
Y529555D01*
X535180Y527728D01*
X535886Y526025D01*
X537007Y524563D01*
X538470Y523441D01*
X540173Y522735D01*
X542000Y522495D01*
X552000D01*
X553827Y522735D01*
X555530Y523441D01*
X556992Y524563D01*
X558115Y526025D01*
X558820Y527728D01*
X559060Y529555D01*
Y539555D01*
X558820Y541382D01*
X558115Y543085D01*
X556992Y544548D01*
X555530Y545670D01*
X553827Y546375D01*
X552000Y546615D01*
D02*
G37*
G36*
X108696Y528500D02*
X107304D01*
X106017Y527967D01*
X105033Y526983D01*
X104500Y525696D01*
Y524304D01*
X105033Y523017D01*
X106017Y522033D01*
X107304Y521500D01*
X108696D01*
X109983Y522033D01*
X110967Y523017D01*
X111500Y524304D01*
Y525696D01*
X110967Y526983D01*
X109983Y527967D01*
X108696Y528500D01*
D02*
G37*
G36*
X752912Y588000D02*
X747088D01*
X741336Y587089D01*
X735797Y585289D01*
X730608Y582645D01*
X725896Y579222D01*
X721778Y575104D01*
X718355Y570392D01*
X715711Y565203D01*
X713911Y559664D01*
X713000Y553912D01*
Y548088D01*
X713911Y542336D01*
X715711Y536797D01*
X718355Y531608D01*
X721778Y526896D01*
X725896Y522778D01*
X730608Y519355D01*
X735797Y516711D01*
X741336Y514911D01*
X747088Y514000D01*
X752912D01*
X758664Y514911D01*
X764203Y516711D01*
X769392Y519355D01*
X774104Y522778D01*
X778222Y526896D01*
X781645Y531608D01*
X784289Y536797D01*
X786089Y542336D01*
X787000Y548088D01*
Y553912D01*
X786089Y559664D01*
X784289Y565203D01*
X781645Y570392D01*
X778222Y575104D01*
X774104Y579222D01*
X769392Y582645D01*
X764203Y585289D01*
X758664Y587089D01*
X752912Y588000D01*
D02*
G37*
G36*
X52912Y586000D02*
X47088D01*
X41336Y585089D01*
X35797Y583289D01*
X30608Y580645D01*
X25896Y577222D01*
X21778Y573104D01*
X18355Y568392D01*
X15711Y563203D01*
X13911Y557664D01*
X13000Y551912D01*
Y546088D01*
X13911Y540336D01*
X15711Y534797D01*
X18355Y529608D01*
X21778Y524896D01*
X25896Y520778D01*
X30608Y517355D01*
X35797Y514711D01*
X41336Y512911D01*
X47088Y512000D01*
X52912D01*
X58664Y512911D01*
X64203Y514711D01*
X69392Y517355D01*
X74104Y520778D01*
X78222Y524896D01*
X81645Y529608D01*
X84289Y534797D01*
X86089Y540336D01*
X87000Y546088D01*
Y551912D01*
X86089Y557664D01*
X84289Y563203D01*
X81645Y568392D01*
X78222Y573104D01*
X74104Y577222D01*
X69392Y580645D01*
X64203Y583289D01*
X58664Y585089D01*
X52912Y586000D01*
D02*
G37*
G36*
X107696Y514500D02*
X106304D01*
X105017Y513967D01*
X104033Y512983D01*
X103500Y511696D01*
Y510304D01*
X104033Y509017D01*
X105017Y508033D01*
X106304Y507500D01*
X107696D01*
X108983Y508033D01*
X109967Y509017D01*
X110500Y510304D01*
Y511696D01*
X109967Y512983D01*
X108983Y513967D01*
X107696Y514500D01*
D02*
G37*
G36*
X364696Y515500D02*
X363304D01*
X362017Y514967D01*
X361033Y513983D01*
X360500Y512696D01*
Y511304D01*
X361033Y510017D01*
X361084Y509967D01*
X361252Y508662D01*
X360991Y508400D01*
X360267Y507677D01*
X359734Y506391D01*
Y504998D01*
X360267Y503712D01*
X361252Y502727D01*
X362538Y502195D01*
X363931D01*
X365217Y502727D01*
X366202Y503712D01*
X366735Y504998D01*
Y506391D01*
X366202Y507677D01*
X366151Y507728D01*
X365983Y509033D01*
X366244Y509294D01*
X366967Y510017D01*
X367500Y511304D01*
Y512696D01*
X366967Y513983D01*
X365983Y514967D01*
X364696Y515500D01*
D02*
G37*
G36*
X378696Y504960D02*
X377304D01*
X376017Y504427D01*
X375033Y503443D01*
X374500Y502156D01*
Y500764D01*
X375033Y499477D01*
X376017Y498493D01*
X377304Y497960D01*
X378696D01*
X379983Y498493D01*
X380967Y499477D01*
X381500Y500764D01*
Y502156D01*
X380967Y503443D01*
X379983Y504427D01*
X378696Y504960D01*
D02*
G37*
G36*
X453946Y504000D02*
X452554D01*
X451267Y503467D01*
X450283Y502483D01*
X449750Y501196D01*
Y499804D01*
X450283Y498517D01*
X451267Y497533D01*
X452554Y497000D01*
X453946D01*
X455233Y497533D01*
X456217Y498517D01*
X456750Y499804D01*
Y501196D01*
X456217Y502483D01*
X455233Y503467D01*
X453946Y504000D01*
D02*
G37*
G36*
X614696Y493500D02*
X613304D01*
X612017Y492967D01*
X611033Y491983D01*
X610500Y490696D01*
Y489304D01*
X611033Y488017D01*
X612017Y487033D01*
X613304Y486500D01*
X614696D01*
X615983Y487033D01*
X616967Y488017D01*
X617500Y489304D01*
Y490696D01*
X616967Y491983D01*
X615983Y492967D01*
X614696Y493500D01*
D02*
G37*
G36*
X784000Y504118D02*
X776000D01*
X773659Y503652D01*
X771674Y502326D01*
X770348Y500341D01*
X769883Y498000D01*
Y490000D01*
X770348Y487659D01*
X771674Y485674D01*
X773659Y484348D01*
X776000Y483882D01*
X784000D01*
X786341Y484348D01*
X788326Y485674D01*
X789652Y487659D01*
X790117Y490000D01*
Y498000D01*
X789652Y500341D01*
X788326Y502326D01*
X786341Y503652D01*
X784000Y504118D01*
D02*
G37*
G36*
X376696Y488500D02*
X375304D01*
X374017Y487967D01*
X373033Y486983D01*
X372500Y485696D01*
Y484304D01*
X373033Y483017D01*
X374017Y482033D01*
X375304Y481500D01*
X376696D01*
X377983Y482033D01*
X378967Y483017D01*
X379500Y484304D01*
Y485696D01*
X378967Y486983D01*
X377983Y487967D01*
X376696Y488500D01*
D02*
G37*
G36*
X263696Y480500D02*
X262304D01*
X261017Y479967D01*
X260033Y478983D01*
X259500Y477696D01*
Y476304D01*
X260033Y475017D01*
X261017Y474033D01*
X262304Y473500D01*
X263696D01*
X264983Y474033D01*
X265967Y475017D01*
X266500Y476304D01*
Y477696D01*
X265967Y478983D01*
X264983Y479967D01*
X263696Y480500D01*
D02*
G37*
G36*
X209696D02*
X208304D01*
X207017Y479967D01*
X206033Y478983D01*
X205500Y477696D01*
Y476304D01*
X206033Y475017D01*
X207017Y474033D01*
X208304Y473500D01*
X209696D01*
X210983Y474033D01*
X211967Y475017D01*
X212500Y476304D01*
Y477696D01*
X211967Y478983D01*
X210983Y479967D01*
X209696Y480500D01*
D02*
G37*
G36*
X246696Y479500D02*
X245304D01*
X244017Y478967D01*
X243033Y477983D01*
X242500Y476696D01*
Y475304D01*
X243033Y474017D01*
X244017Y473033D01*
X245304Y472500D01*
X246696D01*
X247983Y473033D01*
X248967Y474017D01*
X249500Y475304D01*
Y476696D01*
X248967Y477983D01*
X247983Y478967D01*
X246696Y479500D01*
D02*
G37*
G36*
X541849Y482598D02*
X519500D01*
X517549Y482210D01*
X517382Y482098D01*
X485640D01*
X485387Y482048D01*
X482700Y481783D01*
X479872Y480925D01*
X477266Y479532D01*
X474982Y477658D01*
X473108Y475374D01*
X471715Y472768D01*
X471512Y472098D01*
X456957D01*
X456362Y473368D01*
X456750Y474304D01*
Y475696D01*
X456217Y476983D01*
X455233Y477967D01*
X453946Y478500D01*
X452554D01*
X451267Y477967D01*
X450283Y476983D01*
X449750Y475696D01*
Y474304D01*
X450138Y473368D01*
X449543Y472098D01*
X301644D01*
X300938Y473154D01*
X301000Y473304D01*
Y474696D01*
X300467Y475983D01*
X299483Y476967D01*
X298196Y477500D01*
X296804D01*
X295517Y476967D01*
X294533Y475983D01*
X294000Y474696D01*
Y473304D01*
X294062Y473154D01*
X293356Y472098D01*
X255000D01*
X253049Y471710D01*
X251395Y470605D01*
X239395Y458605D01*
X238290Y456951D01*
X237902Y455000D01*
Y420207D01*
X236632Y419612D01*
X235696Y420000D01*
X234304D01*
X233017Y419467D01*
X232033Y418483D01*
X231500Y417196D01*
Y415804D01*
X232033Y414517D01*
X233017Y413533D01*
X234304Y413000D01*
X235696D01*
X236632Y413388D01*
X237902Y412793D01*
Y319972D01*
X237196Y319500D01*
X235804D01*
X234517Y318967D01*
X233533Y317983D01*
X233000Y316696D01*
Y315304D01*
X233533Y314017D01*
X234517Y313033D01*
X235804Y312500D01*
X237196D01*
X237902Y312028D01*
Y307143D01*
X236846Y306438D01*
X236696Y306500D01*
X235304D01*
X234017Y305967D01*
X233033Y304983D01*
X232500Y303696D01*
Y302304D01*
X233033Y301017D01*
X234017Y300033D01*
X235304Y299500D01*
X236696D01*
X236846Y299562D01*
X237902Y298857D01*
Y250972D01*
X237196Y250500D01*
X235804D01*
X234517Y249967D01*
X233533Y248983D01*
X233000Y247696D01*
Y246304D01*
X233533Y245017D01*
X234517Y244033D01*
X235804Y243500D01*
X237196D01*
X237969Y243037D01*
X238376Y238903D01*
X239863Y234002D01*
X242277Y229485D01*
X245526Y225526D01*
X249485Y222277D01*
X254002Y219863D01*
X258903Y218376D01*
X264000Y217874D01*
Y217895D01*
X264004Y217898D01*
X264014Y217900D01*
X270443D01*
X273179Y215164D01*
Y207030D01*
X273567Y205079D01*
X274673Y203426D01*
X278902Y199196D01*
Y194804D01*
X277895Y193797D01*
X276790Y192143D01*
X276402Y190192D01*
Y184808D01*
X276790Y182857D01*
X277895Y181203D01*
X278902Y180196D01*
Y130000D01*
X278914Y129940D01*
X279275Y126275D01*
X280361Y122694D01*
X282126Y119393D01*
X284500Y116500D01*
X287393Y114126D01*
X290694Y112361D01*
X294275Y111275D01*
X297940Y110914D01*
X298000Y110902D01*
X333000D01*
X334951Y111290D01*
X336605Y112395D01*
X337710Y114049D01*
X338098Y116000D01*
X337710Y117951D01*
X336605Y119605D01*
X334951Y120710D01*
X333000Y121098D01*
X298000D01*
X297856Y121069D01*
X295684Y121355D01*
X293525Y122249D01*
X291672Y123672D01*
X290249Y125525D01*
X289355Y127684D01*
X289069Y129856D01*
X289098Y130000D01*
Y182308D01*
X288710Y184259D01*
X287605Y185912D01*
X286675Y186843D01*
Y188158D01*
X287605Y189088D01*
X288710Y190742D01*
X289098Y192692D01*
Y201308D01*
X288756Y203025D01*
X289983Y203533D01*
X290967Y204517D01*
X291500Y205804D01*
Y207196D01*
X290967Y208483D01*
X289983Y209467D01*
X288696Y210000D01*
X287304D01*
X286017Y209467D01*
X285294Y208743D01*
X284449Y208703D01*
X283375Y209713D01*
Y217276D01*
X282987Y219227D01*
X281882Y220881D01*
X276159Y226603D01*
X274506Y227708D01*
X272555Y228096D01*
X264008D01*
X264000Y228098D01*
Y228098D01*
X262761Y228172D01*
X260888Y228357D01*
X257896Y229264D01*
X255139Y230738D01*
X252722Y232722D01*
X252214Y233340D01*
X252599Y234874D01*
X252983Y235033D01*
X253967Y236017D01*
X254500Y237304D01*
Y238696D01*
X253967Y239983D01*
X252983Y240967D01*
X251696Y241500D01*
X250304D01*
X249601Y241209D01*
X248320Y241840D01*
X248255Y241921D01*
X248066Y243839D01*
X248098Y244000D01*
Y452888D01*
X257112Y461902D01*
X262028D01*
X262500Y461196D01*
Y459804D01*
X263033Y458517D01*
X264017Y457533D01*
X265304Y457000D01*
X266696D01*
X267983Y457533D01*
X268967Y458517D01*
X269500Y459804D01*
Y461196D01*
X269972Y461902D01*
X460768D01*
X461300Y461014D01*
X461317Y460632D01*
X459302Y458510D01*
X458241Y456827D01*
X457904Y454867D01*
X458343Y452927D01*
X459490Y451302D01*
X461172Y450241D01*
X463133Y449904D01*
X465073Y450343D01*
X466698Y451490D01*
X468957Y453871D01*
X469376Y454534D01*
X469811Y455084D01*
X469818Y455086D01*
X469838Y455076D01*
X470672Y456638D01*
X472606Y458994D01*
X474962Y460928D01*
X477464Y462265D01*
X477591Y462290D01*
X479245Y463395D01*
X480350Y465049D01*
X480738Y467000D01*
X480705Y467167D01*
X481050Y468901D01*
X482127Y470513D01*
X483739Y471590D01*
X484441Y471730D01*
X485640Y471902D01*
Y471902D01*
X519000D01*
X520951Y472290D01*
X521118Y472402D01*
X539737D01*
X547144Y464995D01*
X547554Y464721D01*
X547728Y463463D01*
X545730Y461124D01*
X543230Y457044D01*
X541399Y452623D01*
X540281Y447970D01*
X539909Y443233D01*
X539902Y443200D01*
Y404000D01*
Y250304D01*
X538895Y249297D01*
X537790Y247643D01*
X537402Y245692D01*
Y240308D01*
X537790Y238357D01*
X538895Y236703D01*
X539902Y235696D01*
Y218000D01*
X540290Y216049D01*
X541395Y214395D01*
X543049Y213290D01*
X545000Y212902D01*
X546951Y213290D01*
X548605Y214395D01*
X548632Y214436D01*
X549902Y214051D01*
Y134400D01*
X549948Y134168D01*
X549580Y130426D01*
X548420Y126604D01*
X546538Y123082D01*
X544005Y119995D01*
X540918Y117462D01*
X537396Y115580D01*
X533574Y114420D01*
X529832Y114052D01*
X529600Y114098D01*
X383000D01*
X381049Y113710D01*
X379395Y112605D01*
X378290Y110951D01*
X377902Y109000D01*
X378290Y107049D01*
X379395Y105395D01*
X381049Y104290D01*
X383000Y103902D01*
X529600D01*
X529633Y103909D01*
X534370Y104282D01*
X539023Y105399D01*
X543444Y107230D01*
X547524Y109730D01*
X551162Y112837D01*
X554270Y116476D01*
X556770Y120556D01*
X558601Y124977D01*
X559719Y129630D01*
X560091Y134367D01*
X560098Y134400D01*
Y238189D01*
X560210Y238357D01*
X560598Y240308D01*
Y245692D01*
X560210Y247643D01*
X560098Y247811D01*
Y332000D01*
Y422600D01*
X560052Y422832D01*
X560420Y426574D01*
X561580Y430396D01*
X563462Y433918D01*
X565995Y437005D01*
X569082Y439538D01*
X572604Y441420D01*
X576426Y442580D01*
X580168Y442948D01*
X580400Y442902D01*
X592000D01*
X593951Y443290D01*
X595605Y444395D01*
X596710Y446049D01*
X597098Y448000D01*
X596710Y449951D01*
X595605Y451605D01*
X593951Y452710D01*
X592000Y453098D01*
X580400D01*
X580367Y453091D01*
X575630Y452719D01*
X570977Y451601D01*
X566556Y449770D01*
X562476Y447270D01*
X558838Y444162D01*
X555730Y440524D01*
X553230Y436444D01*
X551399Y432023D01*
X551368Y431896D01*
X550098Y432046D01*
Y443200D01*
X550052Y443432D01*
X550420Y447174D01*
X551580Y450996D01*
X553462Y454518D01*
X555995Y457604D01*
X559082Y460138D01*
X562604Y462020D01*
X566426Y463180D01*
X569699Y463502D01*
X598028D01*
X598500Y462796D01*
Y461404D01*
X599033Y460117D01*
X600017Y459133D01*
X601304Y458600D01*
X602696D01*
X603983Y459133D01*
X604967Y460117D01*
X605500Y461404D01*
Y462796D01*
X605972Y463502D01*
X687244D01*
X687776Y462349D01*
X686730Y461124D01*
X684230Y457044D01*
X682399Y452623D01*
X681281Y447970D01*
X680909Y443233D01*
X680902Y443200D01*
Y375250D01*
X681290Y373299D01*
X682395Y371645D01*
X684049Y370540D01*
X686000Y370152D01*
X687951Y370540D01*
X689605Y371645D01*
X690710Y373299D01*
X691098Y375250D01*
Y443200D01*
X691052Y443432D01*
X691420Y447174D01*
X692580Y450996D01*
X694462Y454518D01*
X696995Y457604D01*
X700082Y460138D01*
X703604Y462020D01*
X707426Y463180D01*
X710699Y463502D01*
X734244D01*
X734776Y462349D01*
X733730Y461124D01*
X731230Y457044D01*
X729398Y452623D01*
X728281Y447970D01*
X727909Y443233D01*
X727902Y443200D01*
Y303022D01*
X728290Y301072D01*
X729395Y299418D01*
X729813Y299000D01*
X731467Y297895D01*
X733418Y297507D01*
X735369Y297895D01*
X737023Y299000D01*
X738128Y300654D01*
X738516Y302605D01*
X738128Y304555D01*
X738098Y304600D01*
Y443200D01*
X738052Y443432D01*
X738420Y447174D01*
X739580Y450996D01*
X741462Y454518D01*
X743996Y457604D01*
X747082Y460138D01*
X750604Y462020D01*
X754426Y463180D01*
X757699Y463502D01*
X771396D01*
X771998Y462460D01*
X773860Y460598D01*
X776140Y459282D01*
X778683Y458600D01*
X781317D01*
X783860Y459282D01*
X786140Y460598D01*
X788002Y462460D01*
X789318Y464740D01*
X790000Y467284D01*
Y469916D01*
X789318Y472460D01*
X788002Y474740D01*
X786140Y476602D01*
X783860Y477919D01*
X781317Y478600D01*
X778683D01*
X776140Y477919D01*
X773860Y476602D01*
X771998Y474740D01*
X771396Y473698D01*
X552861D01*
X545454Y481105D01*
X543800Y482210D01*
X541849Y482598D01*
D02*
G37*
G36*
X147000Y528098D02*
X145049Y527710D01*
X143395Y526605D01*
X142290Y524951D01*
X141902Y523000D01*
Y493400D01*
X141903Y493393D01*
X142291Y488473D01*
X143444Y483667D01*
X145336Y479101D01*
X147918Y474887D01*
X149315Y473251D01*
X148783Y472098D01*
X107466D01*
X106605Y473387D01*
X104951Y474492D01*
X103000Y474880D01*
X101049Y474492D01*
X99395Y473387D01*
X98290Y471733D01*
X97902Y469782D01*
X97933D01*
X98200Y467751D01*
X98984Y465858D01*
X100232Y464232D01*
X101858Y462985D01*
X103751Y462200D01*
X105324Y461993D01*
X105782Y461902D01*
X207441D01*
X207734Y461609D01*
X209204Y461000D01*
X210796D01*
X212266Y461609D01*
X213391Y462734D01*
X213763Y463632D01*
X214710Y465049D01*
X215098Y467000D01*
X214710Y468951D01*
X213605Y470605D01*
X211951Y471710D01*
X210000Y472098D01*
X172650D01*
X169230Y472435D01*
X165220Y473651D01*
X161524Y475627D01*
X158285Y478285D01*
X155627Y481524D01*
X153651Y485220D01*
X152435Y489230D01*
X152049Y493152D01*
X152098Y493400D01*
Y523000D01*
X151710Y524951D01*
X150605Y526605D01*
X148951Y527710D01*
X147000Y528098D01*
D02*
G37*
G36*
X450796Y460000D02*
X449204D01*
X447734Y459391D01*
X446609Y458266D01*
X446000Y456796D01*
Y455204D01*
X446609Y453734D01*
X447734Y452609D01*
X449204Y452000D01*
X450796D01*
X452266Y452609D01*
X453391Y453734D01*
X454000Y455204D01*
Y456796D01*
X453391Y458266D01*
X452266Y459391D01*
X450796Y460000D01*
D02*
G37*
G36*
X102696Y455032D02*
X101304D01*
X100017Y454499D01*
X99033Y453515D01*
X98500Y452228D01*
Y450836D01*
X99033Y449550D01*
X100017Y448565D01*
X101304Y448032D01*
X102696D01*
X103982Y448565D01*
X104967Y449550D01*
X105500Y450836D01*
Y452228D01*
X104967Y453515D01*
X103982Y454499D01*
X102696Y455032D01*
D02*
G37*
G36*
X78696D02*
X77304D01*
X76017Y454499D01*
X75033Y453515D01*
X74500Y452228D01*
Y450836D01*
X75033Y449550D01*
X76017Y448565D01*
X77304Y448032D01*
X78696D01*
X79983Y448565D01*
X80967Y449550D01*
X81500Y450836D01*
Y452228D01*
X80967Y453515D01*
X79983Y454499D01*
X78696Y455032D01*
D02*
G37*
G36*
X323696Y452500D02*
X322304D01*
X321017Y451967D01*
X320033Y450983D01*
X319500Y449696D01*
Y448304D01*
X320033Y447017D01*
X321017Y446033D01*
X322304Y445500D01*
X323696D01*
X324983Y446033D01*
X325967Y447017D01*
X326500Y448304D01*
Y449696D01*
X325967Y450983D01*
X324983Y451967D01*
X323696Y452500D01*
D02*
G37*
G36*
X310696D02*
X309304D01*
X308017Y451967D01*
X307033Y450983D01*
X306500Y449696D01*
Y448304D01*
X307033Y447017D01*
X308017Y446033D01*
X309304Y445500D01*
X310696D01*
X311983Y446033D01*
X312967Y447017D01*
X313500Y448304D01*
Y449696D01*
X312967Y450983D01*
X311983Y451967D01*
X310696Y452500D01*
D02*
G37*
G36*
X374696Y451500D02*
X373304D01*
X372017Y450967D01*
X371033Y449983D01*
X370500Y448696D01*
Y447304D01*
X371033Y446017D01*
X372017Y445033D01*
X373304Y444500D01*
X374696D01*
X375983Y445033D01*
X376967Y446017D01*
X377500Y447304D01*
Y448696D01*
X376967Y449983D01*
X375983Y450967D01*
X374696Y451500D01*
D02*
G37*
G36*
X335696D02*
X334304D01*
X333017Y450967D01*
X332033Y449983D01*
X331500Y448696D01*
Y447304D01*
X332033Y446017D01*
X333017Y445033D01*
X334304Y444500D01*
X335696D01*
X336983Y445033D01*
X337967Y446017D01*
X338500Y447304D01*
Y448696D01*
X337967Y449983D01*
X336983Y450967D01*
X335696Y451500D01*
D02*
G37*
G36*
X361696Y450500D02*
X360304D01*
X359017Y449967D01*
X358033Y448983D01*
X357500Y447696D01*
Y446304D01*
X358033Y445017D01*
X359017Y444033D01*
X360304Y443500D01*
X361696D01*
X362983Y444033D01*
X363967Y445017D01*
X364500Y446304D01*
Y447696D01*
X363967Y448983D01*
X362983Y449967D01*
X361696Y450500D01*
D02*
G37*
G36*
X348696D02*
X347304D01*
X346017Y449967D01*
X345033Y448983D01*
X344500Y447696D01*
Y446304D01*
X345033Y445017D01*
X346017Y444033D01*
X347304Y443500D01*
X348696D01*
X349983Y444033D01*
X350967Y445017D01*
X351500Y446304D01*
Y447696D01*
X350967Y448983D01*
X349983Y449967D01*
X348696Y450500D01*
D02*
G37*
G36*
X781317Y453200D02*
X778683D01*
X776140Y452519D01*
X773860Y451202D01*
X771998Y449340D01*
X770682Y447060D01*
X770000Y444516D01*
Y441884D01*
X770682Y439340D01*
X771998Y437060D01*
X773860Y435198D01*
X776140Y433881D01*
X778683Y433200D01*
X781317D01*
X783860Y433881D01*
X786140Y435198D01*
X788002Y437060D01*
X789318Y439340D01*
X790000Y441884D01*
Y444516D01*
X789318Y447060D01*
X788002Y449340D01*
X786140Y451202D01*
X783860Y452519D01*
X781317Y453200D01*
D02*
G37*
G36*
X721696Y439500D02*
X720304D01*
X719017Y438967D01*
X718033Y437983D01*
X717500Y436696D01*
Y435304D01*
X718033Y434017D01*
X719017Y433033D01*
X720304Y432500D01*
X721696D01*
X722983Y433033D01*
X723967Y434017D01*
X724500Y435304D01*
Y436696D01*
X723967Y437983D01*
X722983Y438967D01*
X721696Y439500D01*
D02*
G37*
G36*
X620696Y436500D02*
X619304D01*
X618017Y435967D01*
X617033Y434983D01*
X616500Y433696D01*
Y432304D01*
X617033Y431017D01*
X618017Y430033D01*
X619304Y429500D01*
X620696D01*
X621983Y430033D01*
X622967Y431017D01*
X623500Y432304D01*
Y433696D01*
X622967Y434983D01*
X621983Y435967D01*
X620696Y436500D01*
D02*
G37*
G36*
X204696Y423500D02*
X203304D01*
X202017Y422967D01*
X201033Y421983D01*
X200500Y420696D01*
Y419304D01*
X201033Y418017D01*
X202017Y417033D01*
X203304Y416500D01*
X204696D01*
X205983Y417033D01*
X206967Y418017D01*
X207500Y419304D01*
Y420696D01*
X206967Y421983D01*
X205983Y422967D01*
X204696Y423500D01*
D02*
G37*
G36*
X425000Y456098D02*
X399000D01*
X397049Y455710D01*
X395395Y454605D01*
X393395Y452605D01*
X392290Y450951D01*
X391902Y449000D01*
Y433094D01*
X391941Y432900D01*
X391613Y429572D01*
X390586Y426185D01*
X388917Y423064D01*
X386672Y420328D01*
X383936Y418083D01*
X380815Y416414D01*
X377428Y415387D01*
X374100Y415059D01*
X373906Y415098D01*
X298000D01*
X296049Y414710D01*
X294395Y413605D01*
X293290Y411951D01*
X292902Y410000D01*
X293290Y408049D01*
X294395Y406395D01*
X296049Y405290D01*
X298000Y404902D01*
X373906D01*
X373998Y404920D01*
X378314Y405260D01*
X382614Y406292D01*
X386700Y407985D01*
X390470Y410295D01*
X393833Y413167D01*
X396705Y416530D01*
X399015Y420300D01*
X400708Y424386D01*
X401740Y428686D01*
X402080Y433002D01*
X402098Y433094D01*
Y445902D01*
X425000D01*
X426951Y446290D01*
X428605Y447395D01*
X429710Y449049D01*
X430098Y451000D01*
X429710Y452951D01*
X428605Y454605D01*
X426951Y455710D01*
X425000Y456098D01*
D02*
G37*
G36*
X438948Y413397D02*
X437556D01*
X436269Y412864D01*
X435285Y411880D01*
X434752Y410593D01*
Y409201D01*
X435285Y407915D01*
X436269Y406930D01*
X437556Y406397D01*
X438948D01*
X440235Y406930D01*
X441219Y407915D01*
X441752Y409201D01*
Y410593D01*
X441219Y411880D01*
X440235Y412864D01*
X438948Y413397D01*
D02*
G37*
G36*
X573696Y412500D02*
X572304D01*
X571017Y411967D01*
X570033Y410983D01*
X569500Y409696D01*
Y408304D01*
X570033Y407017D01*
X571017Y406033D01*
X572304Y405500D01*
X573696D01*
X574983Y406033D01*
X575967Y407017D01*
X576500Y408304D01*
Y409696D01*
X575967Y410983D01*
X574983Y411967D01*
X573696Y412500D01*
D02*
G37*
G36*
X463696Y411500D02*
X462304D01*
X461017Y410967D01*
X460033Y409983D01*
X459500Y408696D01*
Y407304D01*
X460033Y406017D01*
X461017Y405033D01*
X462304Y404500D01*
X463696D01*
X464983Y405033D01*
X465967Y406017D01*
X466500Y407304D01*
Y408696D01*
X465967Y409983D01*
X464983Y410967D01*
X463696Y411500D01*
D02*
G37*
G36*
X450696D02*
X449304D01*
X448017Y410967D01*
X447033Y409983D01*
X446500Y408696D01*
Y407304D01*
X447033Y406017D01*
X448017Y405033D01*
X449304Y404500D01*
X450696D01*
X451983Y405033D01*
X452967Y406017D01*
X453500Y407304D01*
Y408696D01*
X452967Y409983D01*
X451983Y410967D01*
X450696Y411500D01*
D02*
G37*
G36*
X425696D02*
X424304D01*
X423017Y410967D01*
X422033Y409983D01*
X421500Y408696D01*
Y407304D01*
X422033Y406017D01*
X423017Y405033D01*
X424304Y404500D01*
X425696D01*
X426983Y405033D01*
X427967Y406017D01*
X428500Y407304D01*
Y408696D01*
X427967Y409983D01*
X426983Y410967D01*
X425696Y411500D01*
D02*
G37*
G36*
X499696Y408500D02*
X498304D01*
X497017Y407967D01*
X496033Y406983D01*
X495500Y405696D01*
Y404304D01*
X496033Y403017D01*
X497017Y402033D01*
X498304Y401500D01*
X499696D01*
X500983Y402033D01*
X501967Y403017D01*
X502500Y404304D01*
Y405696D01*
X501967Y406983D01*
X500983Y407967D01*
X499696Y408500D01*
D02*
G37*
G36*
X34696Y403032D02*
X33304D01*
X32017Y402499D01*
X31033Y401515D01*
X30500Y400228D01*
Y398836D01*
X31033Y397550D01*
X32017Y396565D01*
X33304Y396032D01*
X34696D01*
X35983Y396565D01*
X36967Y397550D01*
X37500Y398836D01*
Y400228D01*
X36967Y401515D01*
X35983Y402499D01*
X34696Y403032D01*
D02*
G37*
G36*
X80696Y402032D02*
X79304D01*
X78017Y401499D01*
X77033Y400515D01*
X76500Y399228D01*
Y397836D01*
X77033Y396550D01*
X78017Y395565D01*
X79304Y395032D01*
X80696D01*
X81983Y395565D01*
X82967Y396550D01*
X83500Y397836D01*
Y399228D01*
X82967Y400515D01*
X81983Y401499D01*
X80696Y402032D01*
D02*
G37*
G36*
X747594Y401250D02*
X745406D01*
X743384Y400413D01*
X741837Y398866D01*
X741000Y396844D01*
Y394656D01*
X741837Y392635D01*
X743384Y391087D01*
X745406Y390250D01*
X747594D01*
X749615Y391087D01*
X751163Y392635D01*
X752000Y394656D01*
Y396844D01*
X751163Y398866D01*
X749615Y400413D01*
X747594Y401250D01*
D02*
G37*
G36*
X771196Y391000D02*
X769804D01*
X768517Y390467D01*
X767533Y389483D01*
X767000Y388196D01*
Y386804D01*
X767533Y385517D01*
X768517Y384533D01*
X769804Y384000D01*
X771196D01*
X772483Y384533D01*
X773467Y385517D01*
X774000Y386804D01*
Y388196D01*
X773467Y389483D01*
X772483Y390467D01*
X771196Y391000D01*
D02*
G37*
G36*
X426696Y390500D02*
X425304D01*
X424017Y389967D01*
X423033Y388983D01*
X422500Y387696D01*
Y386304D01*
X423033Y385017D01*
X424017Y384033D01*
X425304Y383500D01*
X426696D01*
X427983Y384033D01*
X428967Y385017D01*
X429500Y386304D01*
Y387696D01*
X428967Y388983D01*
X427983Y389967D01*
X426696Y390500D01*
D02*
G37*
G36*
X80196Y383032D02*
X78804D01*
X77517Y382499D01*
X76533Y381515D01*
X76000Y380228D01*
Y378836D01*
X76533Y377550D01*
X77517Y376565D01*
X78804Y376032D01*
X80196D01*
X81483Y376565D01*
X82467Y377550D01*
X83000Y378836D01*
Y380228D01*
X82467Y381515D01*
X81483Y382499D01*
X80196Y383032D01*
D02*
G37*
G36*
X421696Y382500D02*
X420304D01*
X419017Y381967D01*
X418033Y380983D01*
X417500Y379696D01*
Y378304D01*
X418033Y377017D01*
X419017Y376033D01*
X420304Y375500D01*
X421696D01*
X422983Y376033D01*
X423967Y377017D01*
X424500Y378304D01*
Y379696D01*
X423967Y380983D01*
X422983Y381967D01*
X421696Y382500D01*
D02*
G37*
G36*
X229696Y377500D02*
X228304D01*
X227017Y376967D01*
X226033Y375983D01*
X225500Y374696D01*
Y373304D01*
X226033Y372017D01*
X227017Y371033D01*
X228304Y370500D01*
X229696D01*
X230983Y371033D01*
X231967Y372017D01*
X232500Y373304D01*
Y374696D01*
X231967Y375983D01*
X230983Y376967D01*
X229696Y377500D01*
D02*
G37*
G36*
X717571Y364625D02*
X716179D01*
X714892Y364092D01*
X713908Y363108D01*
X713375Y361821D01*
Y360429D01*
X713908Y359142D01*
X714892Y358158D01*
X716179Y357625D01*
X717571D01*
X718858Y358158D01*
X719842Y359142D01*
X720375Y360429D01*
Y361821D01*
X719842Y363108D01*
X718858Y364092D01*
X717571Y364625D01*
D02*
G37*
G36*
X747594Y359750D02*
X745406D01*
X743384Y358913D01*
X741837Y357365D01*
X741000Y355344D01*
Y353156D01*
X741837Y351134D01*
X743384Y349587D01*
X745406Y348750D01*
X747594D01*
X749615Y349587D01*
X751163Y351134D01*
X752000Y353156D01*
Y355344D01*
X751163Y357365D01*
X749615Y358913D01*
X747594Y359750D01*
D02*
G37*
G36*
X597696Y355000D02*
X596304D01*
X595017Y354467D01*
X594033Y353483D01*
X593500Y352196D01*
Y350804D01*
X594033Y349517D01*
X595017Y348533D01*
X596304Y348000D01*
X597696D01*
X598983Y348533D01*
X599967Y349517D01*
X600500Y350804D01*
Y352196D01*
X599967Y353483D01*
X598983Y354467D01*
X597696Y355000D01*
D02*
G37*
G36*
X198696Y353500D02*
X197304D01*
X196017Y352967D01*
X195033Y351983D01*
X194500Y350696D01*
Y349304D01*
X195033Y348017D01*
X196017Y347033D01*
X197304Y346500D01*
X198696D01*
X199983Y347033D01*
X200967Y348017D01*
X201500Y349304D01*
Y350696D01*
X200967Y351983D01*
X199983Y352967D01*
X198696Y353500D01*
D02*
G37*
G36*
X448696Y347500D02*
X447304D01*
X446017Y346967D01*
X445033Y345983D01*
X444500Y344696D01*
Y343304D01*
X445033Y342017D01*
X446017Y341033D01*
X447304Y340500D01*
X448696D01*
X449983Y341033D01*
X450967Y342017D01*
X451500Y343304D01*
Y344696D01*
X450967Y345983D01*
X449983Y346967D01*
X448696Y347500D01*
D02*
G37*
G36*
X323880Y346557D02*
X322488D01*
X321202Y346025D01*
X320217Y345040D01*
X319684Y343754D01*
Y342361D01*
X320217Y341075D01*
X321202Y340090D01*
X322488Y339557D01*
X323880D01*
X325167Y340090D01*
X326151Y341075D01*
X326684Y342361D01*
Y343754D01*
X326151Y345040D01*
X325167Y346025D01*
X323880Y346557D01*
D02*
G37*
G36*
X221594Y344000D02*
X220202D01*
X218916Y343467D01*
X217931Y342483D01*
X217398Y341196D01*
Y339804D01*
X217931Y338517D01*
X218916Y337533D01*
X220202Y337000D01*
X221594D01*
X222881Y337533D01*
X223865Y338517D01*
X224398Y339804D01*
Y341196D01*
X223865Y342483D01*
X222881Y343467D01*
X221594Y344000D01*
D02*
G37*
G36*
X345439Y349500D02*
X344047D01*
X342760Y348967D01*
X341776Y347983D01*
X341243Y346696D01*
Y345500D01*
X340304D01*
X339017Y344967D01*
X338033Y343983D01*
X337500Y342696D01*
Y341304D01*
X338033Y340017D01*
X339017Y339033D01*
X340304Y338500D01*
X341696D01*
X342983Y339033D01*
X343967Y340017D01*
X344500Y341304D01*
Y342500D01*
X345439D01*
X346669Y343010D01*
X346875Y342913D01*
X347723Y342234D01*
X347500Y341696D01*
Y340304D01*
X348033Y339017D01*
X349017Y338033D01*
X350304Y337500D01*
X351696D01*
X352983Y338033D01*
X353967Y339017D01*
X354500Y340304D01*
X355608Y340849D01*
X355671Y340847D01*
X356500Y339696D01*
Y338304D01*
X357033Y337017D01*
X358017Y336033D01*
X359304Y335500D01*
X360696D01*
X361983Y336033D01*
X362967Y337017D01*
X363500Y338304D01*
Y339696D01*
X363362Y340029D01*
X364384Y340881D01*
X365304Y340500D01*
X366458D01*
X367046Y340046D01*
X367500Y339458D01*
Y338304D01*
X368033Y337017D01*
X369017Y336033D01*
X370304Y335500D01*
X371696D01*
X372983Y336033D01*
X373967Y337017D01*
X374500Y338304D01*
Y338458D01*
X375304Y339500D01*
X376696D01*
X377799Y338582D01*
X378033Y338017D01*
X379017Y337033D01*
X380304Y336500D01*
X381696D01*
X382983Y337033D01*
X383967Y338017D01*
X384500Y339304D01*
Y339458D01*
X385304Y340500D01*
X386696D01*
X387983Y341033D01*
X388967Y342017D01*
X389500Y343304D01*
Y344696D01*
X388967Y345983D01*
X387983Y346967D01*
X386696Y347500D01*
X385304D01*
X384017Y346967D01*
X383033Y345983D01*
X382500Y344696D01*
Y344542D01*
X381696Y343500D01*
X380304D01*
X379201Y344418D01*
X378967Y344983D01*
X377983Y345967D01*
X376696Y346500D01*
X375304D01*
X374017Y345967D01*
X373033Y344983D01*
X372500Y343696D01*
Y343542D01*
X371790Y342622D01*
X370491Y342539D01*
X369954Y342954D01*
X369500Y343542D01*
Y344696D01*
X368967Y345983D01*
X367983Y346967D01*
X366696Y347500D01*
X365304D01*
X364017Y346967D01*
X363033Y345983D01*
X362500Y344696D01*
Y343304D01*
X362638Y342971D01*
X361616Y342119D01*
X360696Y342500D01*
X360109D01*
X359274Y343758D01*
X359500Y344304D01*
Y345696D01*
X358967Y346983D01*
X357983Y347967D01*
X356696Y348500D01*
X355304D01*
X354017Y347967D01*
X353033Y346983D01*
X352500Y345696D01*
Y345542D01*
X351696Y344500D01*
X350304D01*
X349073Y343990D01*
X348867Y344087D01*
X348020Y344766D01*
X348243Y345304D01*
Y346696D01*
X347710Y347983D01*
X346725Y348967D01*
X345439Y349500D01*
D02*
G37*
G36*
X277696Y342500D02*
X276304D01*
X275017Y341967D01*
X274033Y340983D01*
X273500Y339696D01*
Y338304D01*
X274033Y337017D01*
X275017Y336033D01*
X276304Y335500D01*
X277696D01*
X278983Y336033D01*
X279967Y337017D01*
X280500Y338304D01*
Y339696D01*
X279967Y340983D01*
X278983Y341967D01*
X277696Y342500D01*
D02*
G37*
G36*
X48696Y340782D02*
X47304D01*
X46017Y340249D01*
X45033Y339265D01*
X44500Y337978D01*
Y336586D01*
X45033Y335300D01*
X46017Y334315D01*
X47304Y333782D01*
X48696D01*
X49983Y334315D01*
X50967Y335300D01*
X51500Y336586D01*
Y337978D01*
X50967Y339265D01*
X49983Y340249D01*
X48696Y340782D01*
D02*
G37*
G36*
X255431Y336100D02*
X254038D01*
X252752Y335567D01*
X251767Y334583D01*
X251234Y333296D01*
Y331904D01*
X251767Y330617D01*
X252752Y329633D01*
X254038Y329100D01*
X255431D01*
X256717Y329633D01*
X257702Y330617D01*
X258234Y331904D01*
Y333296D01*
X257702Y334583D01*
X256717Y335567D01*
X255431Y336100D01*
D02*
G37*
G36*
X224696Y331500D02*
X223304D01*
X222017Y330967D01*
X221033Y329983D01*
X220500Y328696D01*
Y327304D01*
X221033Y326017D01*
X222017Y325033D01*
X223304Y324500D01*
X224696D01*
X225983Y325033D01*
X226967Y326017D01*
X227500Y327304D01*
Y328696D01*
X226967Y329983D01*
X225983Y330967D01*
X224696Y331500D01*
D02*
G37*
G36*
X447696Y330500D02*
X446304D01*
X445017Y329967D01*
X444033Y328983D01*
X443500Y327696D01*
Y326304D01*
X444033Y325017D01*
X445017Y324033D01*
X446304Y323500D01*
X447696D01*
X448983Y324033D01*
X449967Y325017D01*
X450500Y326304D01*
Y327696D01*
X449967Y328983D01*
X448983Y329967D01*
X447696Y330500D01*
D02*
G37*
G36*
X792696Y324500D02*
X791304D01*
X790017Y323967D01*
X789033Y322983D01*
X788500Y321696D01*
Y320304D01*
X789033Y319017D01*
X790017Y318033D01*
X791304Y317500D01*
X792696D01*
X793983Y318033D01*
X794967Y319017D01*
X795500Y320304D01*
Y321696D01*
X794967Y322983D01*
X793983Y323967D01*
X792696Y324500D01*
D02*
G37*
G36*
X341696Y322500D02*
X340304D01*
X339017Y321967D01*
X338033Y320983D01*
X337500Y319696D01*
Y318304D01*
X338033Y317017D01*
X339017Y316033D01*
X340304Y315500D01*
X341696D01*
X342983Y316033D01*
X343967Y317017D01*
X344500Y318304D01*
Y319696D01*
X343967Y320983D01*
X342983Y321967D01*
X341696Y322500D01*
D02*
G37*
G36*
X328696Y321500D02*
X327304D01*
X326017Y320967D01*
X325033Y319983D01*
X324500Y318696D01*
Y317304D01*
X325033Y316017D01*
X326017Y315033D01*
X327304Y314500D01*
X328696D01*
X329983Y315033D01*
X330967Y316017D01*
X331500Y317304D01*
Y318696D01*
X330967Y319983D01*
X329983Y320967D01*
X328696Y321500D01*
D02*
G37*
G36*
X151696D02*
X150304D01*
X149017Y320967D01*
X148033Y319983D01*
X147500Y318696D01*
Y317304D01*
X148033Y316017D01*
X149017Y315033D01*
X150304Y314500D01*
X151696D01*
X152983Y315033D01*
X153967Y316017D01*
X154500Y317304D01*
Y318696D01*
X153967Y319983D01*
X152983Y320967D01*
X151696Y321500D01*
D02*
G37*
G36*
X132696Y320500D02*
X131304D01*
X130017Y319967D01*
X129033Y318983D01*
X128500Y317696D01*
Y316304D01*
X129033Y315017D01*
X130017Y314033D01*
X131304Y313500D01*
X132696D01*
X133983Y314033D01*
X134967Y315017D01*
X135500Y316304D01*
Y317696D01*
X134967Y318983D01*
X133983Y319967D01*
X132696Y320500D01*
D02*
G37*
G36*
X222184Y319525D02*
X220791D01*
X219505Y318992D01*
X218520Y318008D01*
X217987Y316721D01*
Y315329D01*
X218520Y314042D01*
X219505Y313058D01*
X220791Y312525D01*
X222184D01*
X223470Y313058D01*
X224455Y314042D01*
X224988Y315329D01*
Y316721D01*
X224455Y318008D01*
X223470Y318992D01*
X222184Y319525D01*
D02*
G37*
G36*
X452696Y316500D02*
X451304D01*
X450017Y315967D01*
X449033Y314983D01*
X448500Y313696D01*
Y312304D01*
X449033Y311017D01*
X450017Y310033D01*
X451304Y309500D01*
X452696D01*
X453983Y310033D01*
X454967Y311017D01*
X455500Y312304D01*
Y313696D01*
X454967Y314983D01*
X453983Y315967D01*
X452696Y316500D01*
D02*
G37*
G36*
X679696Y314500D02*
X678304D01*
X677017Y313967D01*
X676033Y312983D01*
X675500Y311696D01*
Y310304D01*
X676033Y309017D01*
X677017Y308033D01*
X678304Y307500D01*
X679696D01*
X680983Y308033D01*
X681967Y309017D01*
X682500Y310304D01*
Y311696D01*
X681967Y312983D01*
X680983Y313967D01*
X679696Y314500D01*
D02*
G37*
G36*
X782696Y307750D02*
X781304D01*
X780017Y307217D01*
X779033Y306233D01*
X778500Y304946D01*
Y303554D01*
X779033Y302267D01*
X780017Y301283D01*
X781304Y300750D01*
X782696D01*
X783983Y301283D01*
X784967Y302267D01*
X785500Y303554D01*
Y304946D01*
X784967Y306233D01*
X783983Y307217D01*
X782696Y307750D01*
D02*
G37*
G36*
X219696Y306500D02*
X218304D01*
X217017Y305967D01*
X216033Y304983D01*
X215500Y303696D01*
Y302304D01*
X216033Y301017D01*
X217017Y300033D01*
X218304Y299500D01*
X219696D01*
X220983Y300033D01*
X221967Y301017D01*
X222500Y302304D01*
Y303696D01*
X221967Y304983D01*
X220983Y305967D01*
X219696Y306500D01*
D02*
G37*
G36*
X131696Y301000D02*
X130304D01*
X129017Y300467D01*
X128033Y299483D01*
X127500Y298196D01*
Y296804D01*
X128033Y295517D01*
X129017Y294533D01*
X130304Y294000D01*
X131696D01*
X132983Y294533D01*
X133967Y295517D01*
X134500Y296804D01*
Y298196D01*
X133967Y299483D01*
X132983Y300467D01*
X131696Y301000D01*
D02*
G37*
G36*
X215696Y292500D02*
X214304D01*
X213017Y291967D01*
X212033Y290983D01*
X211500Y289696D01*
Y288304D01*
X212033Y287017D01*
X213017Y286033D01*
X214304Y285500D01*
X215696D01*
X216983Y286033D01*
X217967Y287017D01*
X218500Y288304D01*
Y289696D01*
X217967Y290983D01*
X216983Y291967D01*
X215696Y292500D01*
D02*
G37*
G36*
X326696Y291500D02*
X325304D01*
X324017Y290967D01*
X323033Y289983D01*
X322500Y288696D01*
Y287304D01*
X323033Y286017D01*
X324017Y285033D01*
X325304Y284500D01*
X326696D01*
X327983Y285033D01*
X328967Y286017D01*
X329500Y287304D01*
Y288696D01*
X328967Y289983D01*
X327983Y290967D01*
X326696Y291500D01*
D02*
G37*
G36*
X710696Y286500D02*
X709304D01*
X708017Y285967D01*
X707033Y284983D01*
X706500Y283696D01*
Y282304D01*
X707033Y281017D01*
X708017Y280033D01*
X709304Y279500D01*
X710696D01*
X711983Y280033D01*
X712967Y281017D01*
X713500Y282304D01*
Y283696D01*
X712967Y284983D01*
X711983Y285967D01*
X710696Y286500D01*
D02*
G37*
G36*
X330696Y281500D02*
X329304D01*
X328017Y280967D01*
X327033Y279983D01*
X326500Y278696D01*
Y277304D01*
X327033Y276017D01*
X328017Y275033D01*
X329304Y274500D01*
X330696D01*
X331983Y275033D01*
X332967Y276017D01*
X333500Y277304D01*
Y278696D01*
X332967Y279983D01*
X331983Y280967D01*
X330696Y281500D01*
D02*
G37*
G36*
X784696Y278500D02*
X783304D01*
X782017Y277967D01*
X781033Y276983D01*
X780500Y275696D01*
Y274304D01*
X781033Y273017D01*
X782017Y272033D01*
X783304Y271500D01*
X784696D01*
X785983Y272033D01*
X786967Y273017D01*
X787500Y274304D01*
Y275696D01*
X786967Y276983D01*
X785983Y277967D01*
X784696Y278500D01*
D02*
G37*
G36*
X214696D02*
X213304D01*
X212017Y277967D01*
X211033Y276983D01*
X210500Y275696D01*
Y274304D01*
X211033Y273017D01*
X212017Y272033D01*
X213304Y271500D01*
X214696D01*
X215983Y272033D01*
X216967Y273017D01*
X217500Y274304D01*
Y275696D01*
X216967Y276983D01*
X215983Y277967D01*
X214696Y278500D01*
D02*
G37*
G36*
X451923Y306563D02*
X450530D01*
X449244Y306030D01*
X448259Y305046D01*
X447726Y303759D01*
Y302367D01*
X448128Y301397D01*
X447244Y301030D01*
X446259Y300046D01*
X445726Y298759D01*
Y297367D01*
X446259Y296080D01*
X447244Y295096D01*
X448530Y294563D01*
X448685D01*
X449726Y293759D01*
Y292367D01*
X448685Y291563D01*
X448530D01*
X447244Y291030D01*
X446259Y290046D01*
X445726Y288759D01*
Y287367D01*
X446259Y286080D01*
X447244Y285096D01*
X448530Y284563D01*
X448685D01*
X449726Y283759D01*
Y282367D01*
X448685Y281563D01*
X448530D01*
X447244Y281030D01*
X446259Y280046D01*
X445726Y278759D01*
Y277367D01*
X446259Y276080D01*
X447244Y275096D01*
X448530Y274563D01*
X449923D01*
X450843Y274944D01*
X451864Y274092D01*
X451726Y273759D01*
Y272367D01*
X452259Y271080D01*
X453244Y270096D01*
X454530Y269563D01*
X455923D01*
X457209Y270096D01*
X458194Y271080D01*
X458726Y272367D01*
Y273759D01*
X458194Y275046D01*
X457209Y276030D01*
X455923Y276563D01*
X454530D01*
X453610Y276182D01*
X452589Y277034D01*
X452726Y277367D01*
Y278759D01*
X453768Y279563D01*
X453923D01*
X455209Y280096D01*
X456194Y281080D01*
X456726Y282367D01*
Y283759D01*
X456194Y285046D01*
X455209Y286030D01*
X453923Y286563D01*
X453768D01*
X452726Y287367D01*
Y288759D01*
X453768Y289563D01*
X453923D01*
X455209Y290096D01*
X456194Y291080D01*
X456726Y292367D01*
Y293759D01*
X456194Y295046D01*
X455209Y296030D01*
X453923Y296563D01*
X453768D01*
X452726Y297367D01*
Y298759D01*
X452324Y299729D01*
X453209Y300096D01*
X454194Y301080D01*
X454726Y302367D01*
Y303759D01*
X454194Y305046D01*
X453209Y306030D01*
X451923Y306563D01*
D02*
G37*
G36*
X760696Y272500D02*
X759304D01*
X758017Y271967D01*
X757033Y270983D01*
X756500Y269696D01*
Y268304D01*
X757033Y267017D01*
X758017Y266033D01*
X759304Y265500D01*
X760696D01*
X761983Y266033D01*
X762967Y267017D01*
X763500Y268304D01*
Y269696D01*
X762967Y270983D01*
X761983Y271967D01*
X760696Y272500D01*
D02*
G37*
G36*
X737696D02*
X736304D01*
X735017Y271967D01*
X734033Y270983D01*
X733500Y269696D01*
Y268304D01*
X734033Y267017D01*
X735017Y266033D01*
X736304Y265500D01*
X737696D01*
X738983Y266033D01*
X739967Y267017D01*
X740500Y268304D01*
Y269696D01*
X739967Y270983D01*
X738983Y271967D01*
X737696Y272500D01*
D02*
G37*
G36*
X211696Y270500D02*
X210304D01*
X209017Y269967D01*
X208033Y268983D01*
X207500Y267696D01*
Y266304D01*
X208033Y265017D01*
X209017Y264033D01*
X210304Y263500D01*
X211696D01*
X212983Y264033D01*
X213967Y265017D01*
X214500Y266304D01*
Y267696D01*
X213967Y268983D01*
X212983Y269967D01*
X211696Y270500D01*
D02*
G37*
G36*
X341696Y260500D02*
X340304D01*
X339017Y259967D01*
X338033Y258983D01*
X337500Y257696D01*
Y256304D01*
X338033Y255017D01*
X339017Y254033D01*
X340304Y253500D01*
X341696D01*
X342983Y254033D01*
X343967Y255017D01*
X344500Y256304D01*
Y257696D01*
X343967Y258983D01*
X342983Y259967D01*
X341696Y260500D01*
D02*
G37*
G36*
X449923Y261563D02*
X448530D01*
X447244Y261030D01*
X446259Y260046D01*
X445726Y258759D01*
Y257367D01*
X446259Y256080D01*
X447244Y255096D01*
X448530Y254563D01*
X449923D01*
X450843Y254944D01*
X451864Y254092D01*
X451726Y253759D01*
Y252367D01*
X451864Y252034D01*
X450843Y251182D01*
X449923Y251563D01*
X448530D01*
X447244Y251030D01*
X446259Y250046D01*
X445726Y248759D01*
Y247367D01*
X446259Y246080D01*
X447244Y245096D01*
X448530Y244563D01*
X449685D01*
X450273Y244109D01*
X450726Y243521D01*
Y242542D01*
X450331Y242029D01*
X449711Y241500D01*
X448530D01*
X447244Y240967D01*
X446259Y239983D01*
X445726Y238696D01*
Y237304D01*
X446259Y236017D01*
X447244Y235033D01*
X447615Y234879D01*
X448500Y233696D01*
Y232304D01*
X449033Y231017D01*
X450017Y230033D01*
X451304Y229500D01*
X452696D01*
X453983Y230033D01*
X454967Y231017D01*
X455500Y232304D01*
Y233696D01*
X454967Y234983D01*
X453983Y235967D01*
X453611Y236121D01*
X452726Y237304D01*
Y238521D01*
X453122Y239034D01*
X453742Y239563D01*
X454923D01*
X456209Y240096D01*
X457194Y241080D01*
X457726Y242367D01*
Y243759D01*
X457194Y245046D01*
X456209Y246030D01*
X454923Y246563D01*
X453768D01*
X453180Y247017D01*
X452726Y247605D01*
Y248759D01*
X452589Y249092D01*
X453610Y249944D01*
X454530Y249563D01*
X455923D01*
X457209Y250096D01*
X458194Y251080D01*
X458726Y252367D01*
Y253759D01*
X458194Y255046D01*
X457209Y256030D01*
X455923Y256563D01*
X454530D01*
X453610Y256182D01*
X452589Y257034D01*
X452726Y257367D01*
Y258759D01*
X452194Y260046D01*
X451209Y261030D01*
X449923Y261563D01*
D02*
G37*
G36*
X332696Y256500D02*
X331304D01*
X330017Y255967D01*
X329033Y254983D01*
X328500Y253696D01*
Y252304D01*
X328638Y251971D01*
X327616Y251119D01*
X326696Y251500D01*
X325304D01*
X324017Y250967D01*
X323033Y249983D01*
X322500Y248696D01*
Y247304D01*
X323033Y246017D01*
X324017Y245033D01*
X324698Y244751D01*
X325636Y243696D01*
Y242304D01*
X324594Y241500D01*
X324304D01*
X323017Y240967D01*
X322033Y239983D01*
X321500Y238696D01*
Y237304D01*
X322033Y236017D01*
X322800Y235250D01*
X322533Y234983D01*
X322000Y233696D01*
Y232304D01*
X322533Y231017D01*
X323517Y230033D01*
X324804Y229500D01*
X326196D01*
X327483Y230033D01*
X328467Y231017D01*
X329000Y232304D01*
Y233696D01*
X328467Y234983D01*
X327700Y235750D01*
X327967Y236017D01*
X328500Y237304D01*
Y238696D01*
X329542Y239500D01*
X329832D01*
X331119Y240033D01*
X332103Y241017D01*
X332636Y242304D01*
Y243696D01*
X332103Y244983D01*
X331119Y245967D01*
X330438Y246249D01*
X329500Y247304D01*
Y248696D01*
X329362Y249029D01*
X330384Y249881D01*
X331304Y249500D01*
X332696D01*
X333983Y250033D01*
X334967Y251017D01*
X335500Y252304D01*
Y253696D01*
X334967Y254983D01*
X333983Y255967D01*
X332696Y256500D01*
D02*
G37*
G36*
X737696Y251000D02*
X736304D01*
X735017Y250467D01*
X734033Y249483D01*
X733500Y248196D01*
Y246804D01*
X734033Y245517D01*
X735017Y244533D01*
X736304Y244000D01*
X737696D01*
X738983Y244533D01*
X739967Y245517D01*
X740500Y246804D01*
Y248196D01*
X739967Y249483D01*
X738983Y250467D01*
X737696Y251000D01*
D02*
G37*
G36*
X221696Y250500D02*
X220304D01*
X219017Y249967D01*
X218033Y248983D01*
X217500Y247696D01*
Y246304D01*
X218033Y245017D01*
X219017Y244033D01*
X220304Y243500D01*
X221696D01*
X222983Y244033D01*
X223967Y245017D01*
X224500Y246304D01*
Y247696D01*
X223967Y248983D01*
X222983Y249967D01*
X221696Y250500D01*
D02*
G37*
G36*
X144696Y243000D02*
X143304D01*
X142017Y242467D01*
X141033Y241483D01*
X140500Y240196D01*
Y238804D01*
X141033Y237517D01*
X142017Y236533D01*
X143304Y236000D01*
X144696D01*
X145983Y236533D01*
X146967Y237517D01*
X147500Y238804D01*
Y240196D01*
X146967Y241483D01*
X145983Y242467D01*
X144696Y243000D01*
D02*
G37*
G36*
X223514Y242318D02*
X222122D01*
X220835Y241785D01*
X219851Y240801D01*
X219318Y239514D01*
Y238122D01*
X219851Y236835D01*
X220835Y235851D01*
X222122Y235318D01*
X223514D01*
X224801Y235851D01*
X225785Y236835D01*
X226318Y238122D01*
Y239514D01*
X225785Y240801D01*
X224801Y241785D01*
X223514Y242318D01*
D02*
G37*
G36*
X694696Y238500D02*
X693304D01*
X692017Y237967D01*
X691033Y236983D01*
X690500Y235696D01*
Y234304D01*
X691033Y233017D01*
X692017Y232033D01*
X693304Y231500D01*
X694696D01*
X695983Y232033D01*
X696967Y233017D01*
X697500Y234304D01*
Y235696D01*
X696967Y236983D01*
X695983Y237967D01*
X694696Y238500D01*
D02*
G37*
G36*
X581696Y234200D02*
X580304D01*
X579017Y233667D01*
X578033Y232683D01*
X577500Y231396D01*
Y230004D01*
X578033Y228717D01*
X579017Y227733D01*
X580304Y227200D01*
X581696D01*
X582983Y227733D01*
X583967Y228717D01*
X584500Y230004D01*
Y231396D01*
X583967Y232683D01*
X582983Y233667D01*
X581696Y234200D01*
D02*
G37*
G36*
X303696Y231500D02*
X302304D01*
X301017Y230967D01*
X300033Y229983D01*
X299500Y228696D01*
Y227304D01*
X300033Y226017D01*
X301017Y225033D01*
X302304Y224500D01*
X303696D01*
X304983Y225033D01*
X305967Y226017D01*
X306500Y227304D01*
Y228696D01*
X305967Y229983D01*
X304983Y230967D01*
X303696Y231500D01*
D02*
G37*
G36*
X427696Y228500D02*
X426304D01*
X425017Y227967D01*
X424033Y226983D01*
X423500Y225696D01*
Y224304D01*
X424033Y223017D01*
X425017Y222033D01*
X426304Y221500D01*
X427696D01*
X428983Y222033D01*
X429967Y223017D01*
X430500Y224304D01*
Y225696D01*
X429967Y226983D01*
X428983Y227967D01*
X427696Y228500D01*
D02*
G37*
G36*
X223696D02*
X222304D01*
X221017Y227967D01*
X220033Y226983D01*
X219500Y225696D01*
Y224304D01*
X220033Y223017D01*
X221017Y222033D01*
X222304Y221500D01*
X223696D01*
X224983Y222033D01*
X225967Y223017D01*
X226500Y224304D01*
Y225696D01*
X225967Y226983D01*
X224983Y227967D01*
X223696Y228500D01*
D02*
G37*
G36*
X361696Y232500D02*
X360304D01*
X359017Y231967D01*
X358033Y230983D01*
X357500Y229696D01*
Y228304D01*
X358033Y227017D01*
X359017Y226033D01*
X360304Y225500D01*
X361696D01*
X362029Y225638D01*
X362881Y224616D01*
X362500Y223696D01*
Y222304D01*
X363033Y221017D01*
X364017Y220033D01*
X365304Y219500D01*
X366696D01*
X367983Y220033D01*
X368967Y221017D01*
X369500Y222304D01*
Y223696D01*
X368967Y224983D01*
X367983Y225967D01*
X366696Y226500D01*
X365304D01*
X364971Y226362D01*
X364119Y227384D01*
X364500Y228304D01*
Y229696D01*
X363967Y230983D01*
X362983Y231967D01*
X361696Y232500D01*
D02*
G37*
G36*
X322332Y226500D02*
X320940D01*
X319653Y225967D01*
X318669Y224983D01*
X318136Y223696D01*
Y222304D01*
X318669Y221017D01*
X319653Y220033D01*
X320940Y219500D01*
X322332D01*
X323619Y220033D01*
X324603Y221017D01*
X325136Y222304D01*
Y223696D01*
X324603Y224983D01*
X323619Y225967D01*
X322332Y226500D01*
D02*
G37*
G36*
X725696Y220500D02*
X724304D01*
X723017Y219967D01*
X722033Y218983D01*
X721500Y217696D01*
Y216304D01*
X722033Y215017D01*
X723017Y214033D01*
X724304Y213500D01*
X725696D01*
X726983Y214033D01*
X727967Y215017D01*
X728500Y216304D01*
Y217696D01*
X727967Y218983D01*
X726983Y219967D01*
X725696Y220500D01*
D02*
G37*
G36*
X219696Y217500D02*
X218304D01*
X217017Y216967D01*
X216033Y215983D01*
X215500Y214696D01*
Y213304D01*
X216033Y212017D01*
X217017Y211033D01*
X218304Y210500D01*
X219696D01*
X220983Y211033D01*
X221967Y212017D01*
X222500Y213304D01*
Y214696D01*
X221967Y215983D01*
X220983Y216967D01*
X219696Y217500D01*
D02*
G37*
G36*
Y204500D02*
X218304D01*
X217017Y203967D01*
X216033Y202983D01*
X215500Y201696D01*
Y200304D01*
X216033Y199017D01*
X217017Y198033D01*
X218304Y197500D01*
X219696D01*
X220983Y198033D01*
X221967Y199017D01*
X222500Y200304D01*
Y201696D01*
X221967Y202983D01*
X220983Y203967D01*
X219696Y204500D01*
D02*
G37*
G36*
X257014Y200818D02*
X255622D01*
X254335Y200285D01*
X253351Y199301D01*
X252818Y198014D01*
Y196622D01*
X253351Y195335D01*
X254335Y194351D01*
X255622Y193818D01*
X257014D01*
X258301Y194351D01*
X259285Y195335D01*
X259818Y196622D01*
Y198014D01*
X259285Y199301D01*
X258301Y200285D01*
X257014Y200818D01*
D02*
G37*
G36*
X441696Y195500D02*
X440304D01*
X439017Y194967D01*
X438033Y193983D01*
X437500Y192696D01*
Y191304D01*
X438033Y190017D01*
X439017Y189033D01*
X440304Y188500D01*
X441696D01*
X442983Y189033D01*
X443967Y190017D01*
X444500Y191304D01*
Y192696D01*
X443967Y193983D01*
X442983Y194967D01*
X441696Y195500D01*
D02*
G37*
G36*
X222696D02*
X221304D01*
X220017Y194967D01*
X219033Y193983D01*
X218500Y192696D01*
Y191304D01*
X219033Y190017D01*
X220017Y189033D01*
X221304Y188500D01*
X222696D01*
X223983Y189033D01*
X224967Y190017D01*
X225500Y191304D01*
Y192696D01*
X224967Y193983D01*
X223983Y194967D01*
X222696Y195500D01*
D02*
G37*
G36*
X253696Y190500D02*
X252304D01*
X251017Y189967D01*
X250033Y188983D01*
X249500Y187696D01*
Y186304D01*
X250033Y185017D01*
X251017Y184033D01*
X252304Y183500D01*
X253696D01*
X254983Y184033D01*
X255967Y185017D01*
X256500Y186304D01*
Y187696D01*
X255967Y188983D01*
X254983Y189967D01*
X253696Y190500D01*
D02*
G37*
G36*
X447696Y189500D02*
X446304D01*
X445017Y188967D01*
X444033Y187983D01*
X443500Y186696D01*
Y185304D01*
X444033Y184017D01*
X445017Y183033D01*
X446304Y182500D01*
X447696D01*
X448983Y183033D01*
X449967Y184017D01*
X450500Y185304D01*
Y186696D01*
X449967Y187983D01*
X448983Y188967D01*
X447696Y189500D01*
D02*
G37*
G36*
X448696Y157500D02*
X447304D01*
X446017Y156967D01*
X445033Y155983D01*
X444500Y154696D01*
Y153304D01*
X445033Y152017D01*
X446017Y151033D01*
X447304Y150500D01*
X448696D01*
X449983Y151033D01*
X450967Y152017D01*
X451500Y153304D01*
Y154696D01*
X450967Y155983D01*
X449983Y156967D01*
X448696Y157500D01*
D02*
G37*
G36*
X435696D02*
X434304D01*
X433017Y156967D01*
X432033Y155983D01*
X431500Y154696D01*
Y153304D01*
X432033Y152017D01*
X433017Y151033D01*
X434304Y150500D01*
X435696D01*
X436983Y151033D01*
X437967Y152017D01*
X438500Y153304D01*
Y154696D01*
X437967Y155983D01*
X436983Y156967D01*
X435696Y157500D01*
D02*
G37*
G36*
X423696D02*
X422304D01*
X421017Y156967D01*
X420033Y155983D01*
X419500Y154696D01*
Y153304D01*
X420033Y152017D01*
X421017Y151033D01*
X422304Y150500D01*
X423696D01*
X424983Y151033D01*
X425967Y152017D01*
X426500Y153304D01*
Y154696D01*
X425967Y155983D01*
X424983Y156967D01*
X423696Y157500D01*
D02*
G37*
G36*
X410696D02*
X409304D01*
X408017Y156967D01*
X407033Y155983D01*
X406500Y154696D01*
Y153304D01*
X407033Y152017D01*
X408017Y151033D01*
X409304Y150500D01*
X410696D01*
X411983Y151033D01*
X412967Y152017D01*
X413500Y153304D01*
Y154696D01*
X412967Y155983D01*
X411983Y156967D01*
X410696Y157500D01*
D02*
G37*
G36*
X462696Y155500D02*
X461304D01*
X460017Y154967D01*
X459033Y153983D01*
X458500Y152696D01*
Y151304D01*
X459033Y150017D01*
X460017Y149033D01*
X461304Y148500D01*
X462696D01*
X463983Y149033D01*
X464967Y150017D01*
X465500Y151304D01*
Y152696D01*
X464967Y153983D01*
X463983Y154967D01*
X462696Y155500D01*
D02*
G37*
G36*
X472696Y154500D02*
X471304D01*
X470017Y153967D01*
X469033Y152983D01*
X468500Y151696D01*
Y150304D01*
X469033Y149017D01*
X470017Y148033D01*
X471304Y147500D01*
X472696D01*
X473983Y148033D01*
X474967Y149017D01*
X475500Y150304D01*
Y151696D01*
X474967Y152983D01*
X473983Y153967D01*
X472696Y154500D01*
D02*
G37*
G36*
X396696Y145500D02*
X395304D01*
X394017Y144967D01*
X393033Y143983D01*
X392500Y142696D01*
Y141304D01*
X393033Y140017D01*
X394017Y139033D01*
X395304Y138500D01*
X396696D01*
X397983Y139033D01*
X398967Y140017D01*
X399500Y141304D01*
Y142696D01*
X398967Y143983D01*
X397983Y144967D01*
X396696Y145500D01*
D02*
G37*
G36*
X383696D02*
X382304D01*
X381017Y144967D01*
X380033Y143983D01*
X379500Y142696D01*
Y141304D01*
X380033Y140017D01*
X381017Y139033D01*
X382304Y138500D01*
X383696D01*
X384983Y139033D01*
X385967Y140017D01*
X386500Y141304D01*
Y142696D01*
X385967Y143983D01*
X384983Y144967D01*
X383696Y145500D01*
D02*
G37*
G36*
X358696D02*
X357304D01*
X356017Y144967D01*
X355033Y143983D01*
X354500Y142696D01*
Y141304D01*
X355033Y140017D01*
X356017Y139033D01*
X357304Y138500D01*
X358696D01*
X359983Y139033D01*
X360967Y140017D01*
X361500Y141304D01*
Y142696D01*
X360967Y143983D01*
X359983Y144967D01*
X358696Y145500D01*
D02*
G37*
G36*
X371696Y144500D02*
X370304D01*
X369017Y143967D01*
X368033Y142983D01*
X367500Y141696D01*
Y140304D01*
X368033Y139017D01*
X369017Y138033D01*
X370304Y137500D01*
X371696D01*
X372983Y138033D01*
X373967Y139017D01*
X374500Y140304D01*
Y141696D01*
X373967Y142983D01*
X372983Y143967D01*
X371696Y144500D01*
D02*
G37*
G36*
X348696D02*
X347304D01*
X346017Y143967D01*
X345033Y142983D01*
X344500Y141696D01*
Y140304D01*
X345033Y139017D01*
X346017Y138033D01*
X347304Y137500D01*
X348696D01*
X349983Y138033D01*
X350967Y139017D01*
X351500Y140304D01*
Y141696D01*
X350967Y142983D01*
X349983Y143967D01*
X348696Y144500D01*
D02*
G37*
G36*
X335696D02*
X334304D01*
X333017Y143967D01*
X332033Y142983D01*
X331500Y141696D01*
Y140304D01*
X332033Y139017D01*
X333017Y138033D01*
X334304Y137500D01*
X335696D01*
X336983Y138033D01*
X337967Y139017D01*
X338500Y140304D01*
Y141696D01*
X337967Y142983D01*
X336983Y143967D01*
X335696Y144500D01*
D02*
G37*
G36*
X322696Y143500D02*
X321304D01*
X320017Y142967D01*
X319033Y141983D01*
X318500Y140696D01*
Y139304D01*
X319033Y138017D01*
X320017Y137033D01*
X321304Y136500D01*
X322696D01*
X323983Y137033D01*
X324967Y138017D01*
X325500Y139304D01*
Y140696D01*
X324967Y141983D01*
X323983Y142967D01*
X322696Y143500D01*
D02*
G37*
G36*
X310696D02*
X309304D01*
X308017Y142967D01*
X307033Y141983D01*
X306500Y140696D01*
Y139304D01*
X307033Y138017D01*
X308017Y137033D01*
X309304Y136500D01*
X310696D01*
X311983Y137033D01*
X312967Y138017D01*
X313500Y139304D01*
Y140696D01*
X312967Y141983D01*
X311983Y142967D01*
X310696Y143500D01*
D02*
G37*
G36*
X398696Y132500D02*
X397304D01*
X396017Y131967D01*
X395033Y130983D01*
X394500Y129696D01*
Y128304D01*
X395033Y127017D01*
X396017Y126033D01*
X397304Y125500D01*
X398696D01*
X399983Y126033D01*
X400967Y127017D01*
X401500Y128304D01*
Y129696D01*
X400967Y130983D01*
X399983Y131967D01*
X398696Y132500D01*
D02*
G37*
G36*
X160696Y130500D02*
X159304D01*
X158017Y129967D01*
X157033Y128983D01*
X156500Y127696D01*
Y126304D01*
X157033Y125017D01*
X158017Y124033D01*
X159304Y123500D01*
X160696D01*
X161983Y124033D01*
X162967Y125017D01*
X163500Y126304D01*
Y127696D01*
X162967Y128983D01*
X161983Y129967D01*
X160696Y130500D01*
D02*
G37*
G36*
X441696Y129000D02*
X440304D01*
X439017Y128467D01*
X438033Y127483D01*
X437500Y126196D01*
Y124804D01*
X438033Y123517D01*
X439017Y122533D01*
X440304Y122000D01*
X441696D01*
X442983Y122533D01*
X443967Y123517D01*
X444500Y124804D01*
Y126196D01*
X443967Y127483D01*
X442983Y128467D01*
X441696Y129000D01*
D02*
G37*
G36*
X143696Y126500D02*
X142304D01*
X141017Y125967D01*
X140033Y124983D01*
X139500Y123696D01*
Y122304D01*
X140033Y121017D01*
X141017Y120033D01*
X142304Y119500D01*
X143696D01*
X144983Y120033D01*
X145967Y121017D01*
X146500Y122304D01*
Y123696D01*
X145967Y124983D01*
X144983Y125967D01*
X143696Y126500D01*
D02*
G37*
G36*
X247696Y118500D02*
X246304D01*
X245017Y117967D01*
X244033Y116983D01*
X243500Y115696D01*
Y114304D01*
X244033Y113017D01*
X245017Y112033D01*
X246304Y111500D01*
X247696D01*
X248983Y112033D01*
X249967Y113017D01*
X250500Y114304D01*
Y115696D01*
X249967Y116983D01*
X248983Y117967D01*
X247696Y118500D01*
D02*
G37*
G36*
X227696D02*
X226304D01*
X225017Y117967D01*
X224033Y116983D01*
X223500Y115696D01*
Y114304D01*
X224033Y113017D01*
X225017Y112033D01*
X226304Y111500D01*
X227696D01*
X228983Y112033D01*
X229967Y113017D01*
X230500Y114304D01*
Y115696D01*
X229967Y116983D01*
X228983Y117967D01*
X227696Y118500D01*
D02*
G37*
G36*
X119696Y83750D02*
X118304D01*
X117017Y83217D01*
X116033Y82233D01*
X115500Y80946D01*
Y79554D01*
X116033Y78267D01*
X117017Y77283D01*
X118304Y76750D01*
X119696D01*
X120983Y77283D01*
X121967Y78267D01*
X122500Y79554D01*
Y80946D01*
X121967Y82233D01*
X120983Y83217D01*
X119696Y83750D01*
D02*
G37*
G36*
X499148Y88000D02*
X496252D01*
X493454Y87250D01*
X490946Y85802D01*
X488898Y83754D01*
X487450Y81246D01*
X486700Y78448D01*
Y75552D01*
X487450Y72754D01*
X488898Y70246D01*
X490946Y68198D01*
X493454Y66750D01*
X496252Y66000D01*
X499148D01*
X501946Y66750D01*
X504454Y68198D01*
X506502Y70246D01*
X507950Y72754D01*
X508700Y75552D01*
Y78448D01*
X507950Y81246D01*
X506502Y83754D01*
X504454Y85802D01*
X501946Y87250D01*
X499148Y88000D01*
D02*
G37*
G36*
X473748D02*
X470852D01*
X468054Y87250D01*
X465546Y85802D01*
X463498Y83754D01*
X462050Y81246D01*
X461300Y78448D01*
Y75552D01*
X462050Y72754D01*
X463498Y70246D01*
X465546Y68198D01*
X468054Y66750D01*
X470852Y66000D01*
X473748D01*
X476546Y66750D01*
X479054Y68198D01*
X481102Y70246D01*
X482550Y72754D01*
X483300Y75552D01*
Y78448D01*
X482550Y81246D01*
X481102Y83754D01*
X479054Y85802D01*
X476546Y87250D01*
X473748Y88000D01*
D02*
G37*
G36*
X434716Y86000D02*
X432084D01*
X429540Y85318D01*
X427260Y84002D01*
X425398Y82140D01*
X424081Y79860D01*
X423400Y77316D01*
Y74683D01*
X424081Y72140D01*
X425398Y69860D01*
X427260Y67998D01*
X429540Y66681D01*
X432084Y66000D01*
X434716D01*
X437260Y66681D01*
X439540Y67998D01*
X441402Y69860D01*
X442719Y72140D01*
X443400Y74683D01*
Y77316D01*
X442719Y79860D01*
X441402Y82140D01*
X439540Y84002D01*
X437260Y85318D01*
X434716Y86000D01*
D02*
G37*
G36*
X409316D02*
X406684D01*
X404140Y85318D01*
X401860Y84002D01*
X399998Y82140D01*
X398681Y79860D01*
X398000Y77316D01*
Y74683D01*
X398681Y72140D01*
X399998Y69860D01*
X401860Y67998D01*
X404140Y66681D01*
X406684Y66000D01*
X409316D01*
X411860Y66681D01*
X414140Y67998D01*
X416002Y69860D01*
X417318Y72140D01*
X418000Y74683D01*
Y77316D01*
X417318Y79860D01*
X416002Y82140D01*
X414140Y84002D01*
X411860Y85318D01*
X409316Y86000D01*
D02*
G37*
G36*
X383917D02*
X381283D01*
X378740Y85318D01*
X376460Y84002D01*
X374598Y82140D01*
X373282Y79860D01*
X372600Y77316D01*
Y74683D01*
X373282Y72140D01*
X374598Y69860D01*
X376460Y67998D01*
X378740Y66681D01*
X381283Y66000D01*
X383917D01*
X386460Y66681D01*
X388740Y67998D01*
X390602Y69860D01*
X391918Y72140D01*
X392600Y74683D01*
Y77316D01*
X391918Y79860D01*
X390602Y82140D01*
X388740Y84002D01*
X386460Y85318D01*
X383917Y86000D01*
D02*
G37*
G36*
X358517D02*
X355883D01*
X353340Y85318D01*
X351060Y84002D01*
X349198Y82140D01*
X347882Y79860D01*
X347200Y77316D01*
Y74683D01*
X347882Y72140D01*
X349198Y69860D01*
X351060Y67998D01*
X353340Y66681D01*
X355883Y66000D01*
X358517D01*
X361060Y66681D01*
X363340Y67998D01*
X365202Y69860D01*
X366519Y72140D01*
X367200Y74683D01*
Y77316D01*
X366519Y79860D01*
X365202Y82140D01*
X363340Y84002D01*
X361060Y85318D01*
X358517Y86000D01*
D02*
G37*
G36*
X333116D02*
X330484D01*
X327940Y85318D01*
X325660Y84002D01*
X323798Y82140D01*
X322481Y79860D01*
X321800Y77316D01*
Y74683D01*
X322481Y72140D01*
X323798Y69860D01*
X325660Y67998D01*
X327940Y66681D01*
X330484Y66000D01*
X333116D01*
X335660Y66681D01*
X337940Y67998D01*
X339802Y69860D01*
X341119Y72140D01*
X341800Y74683D01*
Y77316D01*
X341119Y79860D01*
X339802Y82140D01*
X337940Y84002D01*
X335660Y85318D01*
X333116Y86000D01*
D02*
G37*
G36*
X269369Y82500D02*
X267131D01*
X264969Y81921D01*
X263031Y80802D01*
X261448Y79219D01*
X260329Y77281D01*
X259750Y75119D01*
Y72881D01*
X260329Y70719D01*
X261448Y68781D01*
X263031Y67198D01*
X264969Y66079D01*
X267131Y65500D01*
X269369D01*
X271531Y66079D01*
X273469Y67198D01*
X275052Y68781D01*
X276171Y70719D01*
X276750Y72881D01*
Y75119D01*
X276171Y77281D01*
X275052Y79219D01*
X273469Y80802D01*
X271531Y81921D01*
X269369Y82500D01*
D02*
G37*
G36*
X206869D02*
X204631D01*
X202469Y81921D01*
X200531Y80802D01*
X198948Y79219D01*
X197829Y77281D01*
X197250Y75119D01*
Y72881D01*
X197829Y70719D01*
X198948Y68781D01*
X200531Y67198D01*
X202469Y66079D01*
X204631Y65500D01*
X206869D01*
X209031Y66079D01*
X210969Y67198D01*
X212552Y68781D01*
X213671Y70719D01*
X214250Y72881D01*
Y75119D01*
X213671Y77281D01*
X212552Y79219D01*
X210969Y80802D01*
X209031Y81921D01*
X206869Y82500D01*
D02*
G37*
G36*
X752912Y138000D02*
X747088D01*
X741336Y137089D01*
X735797Y135289D01*
X730608Y132645D01*
X725896Y129222D01*
X721778Y125104D01*
X718355Y120392D01*
X715711Y115203D01*
X713911Y109664D01*
X713000Y103912D01*
Y98088D01*
X713911Y92336D01*
X715711Y86797D01*
X718355Y81608D01*
X721778Y76896D01*
X725896Y72778D01*
X730608Y69355D01*
X735797Y66711D01*
X741336Y64911D01*
X747088Y64000D01*
X752912D01*
X758664Y64911D01*
X764203Y66711D01*
X769392Y69355D01*
X774104Y72778D01*
X778222Y76896D01*
X781645Y81608D01*
X784289Y86797D01*
X786089Y92336D01*
X787000Y98088D01*
Y103912D01*
X786089Y109664D01*
X784289Y115203D01*
X781645Y120392D01*
X778222Y125104D01*
X774104Y129222D01*
X769392Y132645D01*
X764203Y135289D01*
X758664Y137089D01*
X752912Y138000D01*
D02*
G37*
G36*
X52912Y137000D02*
X47088D01*
X41336Y136089D01*
X35797Y134289D01*
X30608Y131645D01*
X25896Y128222D01*
X21778Y124104D01*
X18355Y119392D01*
X15711Y114203D01*
X13911Y108664D01*
X13000Y102912D01*
Y97088D01*
X13911Y91336D01*
X15711Y85797D01*
X18355Y80608D01*
X21778Y75896D01*
X25896Y71778D01*
X30608Y68355D01*
X35797Y65711D01*
X41336Y63911D01*
X47088Y63000D01*
X52912D01*
X58664Y63911D01*
X64203Y65711D01*
X69392Y68355D01*
X74104Y71778D01*
X78222Y75896D01*
X81645Y80608D01*
X84289Y85797D01*
X86089Y91336D01*
X87000Y97088D01*
Y102912D01*
X86089Y108664D01*
X84289Y114203D01*
X81645Y119392D01*
X78222Y124104D01*
X74104Y128222D01*
X69392Y131645D01*
X64203Y134289D01*
X58664Y136089D01*
X52912Y137000D01*
D02*
G37*
%LPD*%
D13*
X485640Y477000D02*
G03*
X475640Y467000I0J-10000D01*
G01*
X570400Y468600D02*
G03*
X545000Y443200I0J-25400D01*
G01*
X243000Y244000D02*
G03*
X264000Y223000I21000J0D01*
G01*
X284000Y130000D02*
G03*
X298000Y116000I14000J0D01*
G01*
X529600Y109000D02*
G03*
X555000Y134400I0J25400D01*
G01*
X580400Y448000D02*
G03*
X555000Y422600I0J-25400D01*
G01*
X475640Y467000D02*
G03*
X465280Y457420I7960J-19000D01*
G01*
X465259Y457380D02*
G03*
X465275Y457410I-5316J2783D01*
G01*
X373906Y410000D02*
G03*
X397000Y433094I0J23094D01*
G01*
X147000Y493400D02*
G03*
X173400Y467000I26400J0D01*
G01*
X758400Y468600D02*
G03*
X733000Y443200I0J-25400D01*
G01*
X711400Y468600D02*
G03*
X686000Y443200I0J-25400D01*
G01*
X103000Y469782D02*
G03*
X105782Y467000I2782J0D01*
G01*
X553400Y468600D02*
X570400D01*
X711400D01*
X758400D01*
X541849Y477500D02*
X550749Y468600D01*
X485640Y477000D02*
X519000D01*
X519500Y477500D01*
X541849D01*
X550749Y468600D02*
X553400D01*
X243000Y244000D02*
Y455000D01*
X255000Y467000D01*
X284000Y192692D02*
Y201308D01*
X264004Y222996D02*
X264006Y222998D01*
X281500Y190192D02*
X284000Y192692D01*
Y130000D02*
Y182308D01*
X281500Y184808D02*
Y190192D01*
Y184808D02*
X284000Y182308D01*
X278277Y207030D02*
Y217276D01*
Y207030D02*
X284000Y201308D01*
X264006Y222998D02*
X264462D01*
X272555D01*
X278277Y217276D01*
X555000Y246192D02*
Y332000D01*
X555500Y240308D02*
Y245692D01*
X542500Y240308D02*
Y245692D01*
X555000Y239808D02*
X555500Y240308D01*
X555000Y246192D02*
X555500Y245692D01*
X545000Y218000D02*
Y237808D01*
X542500Y240308D02*
X545000Y237808D01*
Y248192D02*
Y404000D01*
X542500Y245692D02*
X545000Y248192D01*
X555000Y134400D02*
Y239808D01*
X173400Y467000D02*
X210000D01*
X298000Y116000D02*
X333000D01*
X555000Y332000D02*
Y422600D01*
X383000Y109000D02*
X529600D01*
X580400Y448000D02*
X592000D01*
X463000Y455000D02*
X465259Y457380D01*
X465275Y457410D02*
X465280Y457420D01*
X397000Y449000D02*
X399000Y451000D01*
X397000Y433094D02*
Y449000D01*
X399000Y451000D02*
X412000D01*
X425000D01*
X298000Y410000D02*
X373906D01*
X105782Y467000D02*
X173400D01*
X147000Y493400D02*
Y523000D01*
X733000Y303022D02*
X733418Y302605D01*
X733000Y303022D02*
Y443200D01*
X255000Y467000D02*
X475640D01*
X758400Y468600D02*
X780000D01*
X686000Y375250D02*
Y443200D01*
X545000Y404000D02*
Y443200D01*
D24*
X547000Y564555D02*
D03*
X517000D02*
D03*
X487000D02*
D03*
X517000Y534555D02*
D03*
X487000D02*
D03*
D67*
X472300Y77000D02*
D03*
X497700D02*
D03*
D72*
X672000Y574000D02*
D03*
X621200D02*
D03*
X646600D02*
D03*
D83*
X433400Y76000D02*
D03*
X408000D02*
D03*
X357200D02*
D03*
X331800D02*
D03*
X382600D02*
D03*
X780000Y443200D02*
D03*
Y468600D02*
D03*
D84*
X306400Y76000D02*
D03*
D85*
X50000Y549000D02*
D03*
X750000Y101000D02*
D03*
Y551000D02*
D03*
X50000Y100000D02*
D03*
D86*
X457310Y573445D02*
D03*
X576690D02*
D03*
D87*
X547000Y534555D02*
D03*
D88*
X268250Y74000D02*
D03*
X205750D02*
D03*
D89*
X780000Y494000D02*
D03*
D90*
X746500Y354250D02*
D03*
Y395750D02*
D03*
X30000Y569000D02*
D03*
X22500Y549000D02*
D03*
X30000Y529000D02*
D03*
X50000Y521500D02*
D03*
X70000Y529000D02*
D03*
X77500Y549000D02*
D03*
X70000Y569000D02*
D03*
X50000Y576500D02*
D03*
X730000Y121000D02*
D03*
X722500Y101000D02*
D03*
X730000Y81000D02*
D03*
X750000Y73500D02*
D03*
X770000Y81000D02*
D03*
X777500Y101000D02*
D03*
X770000Y121000D02*
D03*
X750000Y128500D02*
D03*
Y578500D02*
D03*
X770000Y571000D02*
D03*
X777500Y551000D02*
D03*
X770000Y531000D02*
D03*
X750000Y523500D02*
D03*
X730000Y531000D02*
D03*
X722500Y551000D02*
D03*
X730000Y571000D02*
D03*
X50000Y127500D02*
D03*
X70000Y120000D02*
D03*
X77500Y100000D02*
D03*
X70000Y80000D02*
D03*
X50000Y72500D02*
D03*
X30000Y80000D02*
D03*
X22500Y100000D02*
D03*
X30000Y120000D02*
D03*
D91*
X602000Y462100D02*
D03*
X694000Y235000D02*
D03*
X449226Y238000D02*
D03*
X454226Y243063D02*
D03*
X449226Y248063D02*
D03*
X251000Y238000D02*
D03*
X214000Y275000D02*
D03*
X215000Y289000D02*
D03*
X277000Y339000D02*
D03*
X236000Y303000D02*
D03*
X236500Y316000D02*
D03*
X211000Y267000D02*
D03*
X221000Y247000D02*
D03*
X222818Y238818D02*
D03*
X144000Y220500D02*
D03*
Y239500D02*
D03*
X275000Y437000D02*
D03*
X254734Y332600D02*
D03*
X288000Y187500D02*
D03*
Y206500D02*
D03*
X549000Y243000D02*
D03*
X792000Y321000D02*
D03*
X243000Y455000D02*
D03*
X246000Y476000D02*
D03*
X209000Y477000D02*
D03*
X348000Y141000D02*
D03*
X358000Y142000D02*
D03*
X396000D02*
D03*
X383000D02*
D03*
X371000Y141000D02*
D03*
X310000Y140000D02*
D03*
X322000D02*
D03*
X335000Y141000D02*
D03*
X219000Y201000D02*
D03*
X256318Y197318D02*
D03*
X253000Y187000D02*
D03*
X264000Y223000D02*
D03*
X499000Y405000D02*
D03*
X220898Y340500D02*
D03*
X247000Y115000D02*
D03*
X597000Y351500D02*
D03*
X441000Y125500D02*
D03*
X555000Y332000D02*
D03*
X573000Y409000D02*
D03*
X592000Y448000D02*
D03*
X412000Y451000D02*
D03*
X399000D02*
D03*
X425000D02*
D03*
X204000Y420000D02*
D03*
X235000Y416500D02*
D03*
X298000Y410000D02*
D03*
X490000Y96000D02*
D03*
X448000Y154000D02*
D03*
Y344000D02*
D03*
X449226Y288063D02*
D03*
X452000Y313000D02*
D03*
X449226Y298063D02*
D03*
X451226Y303063D02*
D03*
X453226Y293063D02*
D03*
Y283063D02*
D03*
X447000Y327000D02*
D03*
X449226Y278063D02*
D03*
X455226Y273063D02*
D03*
X323000Y449000D02*
D03*
X310000D02*
D03*
X374000Y448000D02*
D03*
X298000D02*
D03*
X348000Y447000D02*
D03*
X361000D02*
D03*
X335000Y448000D02*
D03*
X108000Y525000D02*
D03*
X107000Y511000D02*
D03*
X78000Y451532D02*
D03*
X453250Y500500D02*
D03*
X102000Y451532D02*
D03*
X410000Y154000D02*
D03*
X438252Y409897D02*
D03*
X463000Y408000D02*
D03*
X522000Y398000D02*
D03*
X256000Y352000D02*
D03*
X425000Y408000D02*
D03*
X472000Y151000D02*
D03*
X423000Y154000D02*
D03*
X427000Y225000D02*
D03*
X450000Y408000D02*
D03*
X366000Y344000D02*
D03*
X371000Y339000D02*
D03*
X386000Y344000D02*
D03*
X236500Y247000D02*
D03*
X147000Y523000D02*
D03*
X266000Y460500D02*
D03*
X545000Y404000D02*
D03*
X686000Y375250D02*
D03*
X721000Y436000D02*
D03*
X198000Y350000D02*
D03*
X341000Y319000D02*
D03*
Y257000D02*
D03*
X329136Y243000D02*
D03*
X325500Y233000D02*
D03*
X332000Y253000D02*
D03*
X398000Y129000D02*
D03*
X597000Y370500D02*
D03*
X143000Y123000D02*
D03*
X426000Y387000D02*
D03*
X421000Y379000D02*
D03*
X323184Y343057D02*
D03*
X341000Y342000D02*
D03*
X108000Y550050D02*
D03*
X452000Y233000D02*
D03*
X343000Y551000D02*
D03*
X376000Y485000D02*
D03*
X378000Y501460D02*
D03*
X383500Y530000D02*
D03*
X447000Y186000D02*
D03*
X160000Y127000D02*
D03*
X321636Y223000D02*
D03*
X330000Y278000D02*
D03*
X303000Y228000D02*
D03*
X441000Y192000D02*
D03*
X462000Y152000D02*
D03*
X360000Y339000D02*
D03*
X263000Y477000D02*
D03*
X268000Y537500D02*
D03*
X297500Y474000D02*
D03*
X34000Y399532D02*
D03*
X79500Y379532D02*
D03*
X80000Y398532D02*
D03*
X48000Y337282D02*
D03*
X108000Y537000D02*
D03*
X268000Y559000D02*
D03*
X288000Y551000D02*
D03*
X314460Y569250D02*
D03*
X320049Y568053D02*
D03*
X453250Y475000D02*
D03*
X334071Y537230D02*
D03*
X333305Y542770D02*
D03*
X363234Y505695D02*
D03*
X364000Y512000D02*
D03*
X425000Y529000D02*
D03*
X423250Y551000D02*
D03*
X119000Y80250D02*
D03*
X227000Y115000D02*
D03*
X208000Y114000D02*
D03*
X132000Y317000D02*
D03*
X151000Y318000D02*
D03*
X221488Y316025D02*
D03*
X381000Y340000D02*
D03*
X581000Y230700D02*
D03*
X679000Y311000D02*
D03*
X737000Y269000D02*
D03*
X620000Y433000D02*
D03*
X760000Y269000D02*
D03*
X784000Y275000D02*
D03*
X782000Y304250D02*
D03*
X710000Y283000D02*
D03*
X737000Y247500D02*
D03*
X716875Y361125D02*
D03*
X725000Y217000D02*
D03*
X582000Y218000D02*
D03*
X606000Y292000D02*
D03*
X628000Y391000D02*
D03*
X131000Y297500D02*
D03*
X435000Y154000D02*
D03*
X219000Y214000D02*
D03*
X229000Y374000D02*
D03*
X328000Y318000D02*
D03*
X223000Y225000D02*
D03*
X326000Y288000D02*
D03*
X219000Y303000D02*
D03*
X224000Y328000D02*
D03*
X326000Y248000D02*
D03*
X325000Y238000D02*
D03*
X455226Y253063D02*
D03*
X449226Y258063D02*
D03*
X344743Y346000D02*
D03*
X356000Y345000D02*
D03*
X351000Y341000D02*
D03*
X376000Y343000D02*
D03*
X222000Y192000D02*
D03*
X361000Y229000D02*
D03*
X366000Y223000D02*
D03*
X614000Y490000D02*
D03*
X770500Y387500D02*
D03*
D92*
X522000Y469000D02*
D03*
X450000Y456000D02*
D03*
X210000Y465000D02*
D03*
X308000Y105000D02*
D03*
X333000Y116000D02*
D03*
X383000Y109000D02*
D03*
X463000Y455000D02*
D03*
X733418Y302605D02*
D03*
X545000Y218000D02*
D03*
X103000Y469782D02*
D03*
M02*
