G04*
G04 #@! TF.GenerationSoftware,Altium Limited,Altium Designer,23.11.1 (41)*
G04*
G04 Layer_Color=128*
%FSLAX44Y44*%
%MOMM*%
G71*
G04*
G04 #@! TF.SameCoordinates,4CE7A35D-70A9-472E-BD1E-F3F5204FB4D5*
G04*
G04*
G04 #@! TF.FilePolarity,Positive*
G04*
G01*
G75*
%ADD18R,1.3000X0.9000*%
%ADD19R,0.9000X1.3000*%
%ADD23R,1.3500X1.1500*%
%ADD93R,2.4000X0.7500*%
G04:AMPARAMS|DCode=94|XSize=1.75mm|YSize=1.25mm|CornerRadius=0.3125mm|HoleSize=0mm|Usage=FLASHONLY|Rotation=0.000|XOffset=0mm|YOffset=0mm|HoleType=Round|Shape=RoundedRectangle|*
%AMROUNDEDRECTD94*
21,1,1.7500,0.6250,0,0,0.0*
21,1,1.1250,1.2500,0,0,0.0*
1,1,0.6250,0.5625,-0.3125*
1,1,0.6250,-0.5625,-0.3125*
1,1,0.6250,-0.5625,0.3125*
1,1,0.6250,0.5625,0.3125*
%
%ADD94ROUNDEDRECTD94*%
G04:AMPARAMS|DCode=95|XSize=1.75mm|YSize=1.25mm|CornerRadius=0.3125mm|HoleSize=0mm|Usage=FLASHONLY|Rotation=90.000|XOffset=0mm|YOffset=0mm|HoleType=Round|Shape=RoundedRectangle|*
%AMROUNDEDRECTD95*
21,1,1.7500,0.6250,0,0,90.0*
21,1,1.1250,1.2500,0,0,90.0*
1,1,0.6250,0.3125,0.5625*
1,1,0.6250,0.3125,-0.5625*
1,1,0.6250,-0.3125,-0.5625*
1,1,0.6250,-0.3125,0.5625*
%
%ADD95ROUNDEDRECTD95*%
%ADD96R,1.6000X1.2000*%
%ADD97R,0.7500X2.4000*%
D18*
X750000Y234500D02*
D03*
Y215500D02*
D03*
X725249Y235499D02*
D03*
Y216499D02*
D03*
X226000Y457000D02*
D03*
Y476000D02*
D03*
X246000Y457000D02*
D03*
Y476000D02*
D03*
X131000Y523500D02*
D03*
Y542500D02*
D03*
X151000Y523500D02*
D03*
Y542500D02*
D03*
X748000Y434000D02*
D03*
Y415000D02*
D03*
X678000Y286500D02*
D03*
Y309500D02*
D03*
X764000Y361500D02*
D03*
Y342500D02*
D03*
X782000Y362500D02*
D03*
Y339500D02*
D03*
X684000Y371500D02*
D03*
Y390500D02*
D03*
X632000Y371500D02*
D03*
Y390500D02*
D03*
X643000Y466500D02*
D03*
Y489500D02*
D03*
X602000Y466000D02*
D03*
Y489000D02*
D03*
X575000Y466000D02*
D03*
Y489000D02*
D03*
D19*
X424000Y176000D02*
D03*
X447000D02*
D03*
X383500Y530000D02*
D03*
X406500D02*
D03*
X384500Y550000D02*
D03*
X407500D02*
D03*
X391500Y477000D02*
D03*
X414500D02*
D03*
X391500Y496000D02*
D03*
X414500D02*
D03*
D23*
X106000Y410282D02*
D03*
Y428782D02*
D03*
X103000Y451282D02*
D03*
Y469782D02*
D03*
X83000Y412750D02*
D03*
Y431250D02*
D03*
X80000Y451282D02*
D03*
Y469782D02*
D03*
X138000Y328750D02*
D03*
Y347250D02*
D03*
X162000Y327750D02*
D03*
Y346250D02*
D03*
X783000Y285750D02*
D03*
Y304250D02*
D03*
X738000D02*
D03*
Y285750D02*
D03*
X760000Y304250D02*
D03*
Y285750D02*
D03*
D93*
X220500Y289050D02*
D03*
Y301750D02*
D03*
X259500Y289050D02*
D03*
Y301750D02*
D03*
X220500Y314450D02*
D03*
X259500D02*
D03*
X220500Y327150D02*
D03*
X259500D02*
D03*
X220500Y339850D02*
D03*
X259500D02*
D03*
Y352550D02*
D03*
X220500D02*
D03*
X259500Y276350D02*
D03*
X220500D02*
D03*
X259500Y263650D02*
D03*
Y250950D02*
D03*
X220500Y263650D02*
D03*
Y250950D02*
D03*
X259500Y238250D02*
D03*
Y225550D02*
D03*
Y212850D02*
D03*
Y200150D02*
D03*
Y187450D02*
D03*
X220500Y238250D02*
D03*
Y225550D02*
D03*
Y212850D02*
D03*
Y200150D02*
D03*
Y187450D02*
D03*
X510500Y217450D02*
D03*
Y230150D02*
D03*
Y242850D02*
D03*
Y255550D02*
D03*
Y268250D02*
D03*
X549500Y217450D02*
D03*
Y230150D02*
D03*
Y242850D02*
D03*
Y255550D02*
D03*
Y268250D02*
D03*
X510500Y280950D02*
D03*
Y293650D02*
D03*
X549500Y280950D02*
D03*
Y293650D02*
D03*
X510500Y306350D02*
D03*
X549500D02*
D03*
X510500Y382550D02*
D03*
X549500D02*
D03*
Y369850D02*
D03*
X510500D02*
D03*
X549500Y357150D02*
D03*
X510500D02*
D03*
X549500Y344450D02*
D03*
X510500D02*
D03*
X549500Y331750D02*
D03*
Y319050D02*
D03*
X510500Y331750D02*
D03*
Y319050D02*
D03*
D94*
X711000Y282750D02*
D03*
Y311250D02*
D03*
D95*
X643000Y519000D02*
D03*
X614500D02*
D03*
D96*
X145000Y89500D02*
D03*
Y120500D02*
D03*
D97*
X472550Y110500D02*
D03*
X459850D02*
D03*
X447150D02*
D03*
X434450D02*
D03*
X421750D02*
D03*
X472550Y149500D02*
D03*
X459850D02*
D03*
X447150D02*
D03*
X434450D02*
D03*
X421750D02*
D03*
X409050Y110500D02*
D03*
X396350D02*
D03*
X409050Y149500D02*
D03*
X396350D02*
D03*
X383650Y110500D02*
D03*
Y149500D02*
D03*
X307450Y110500D02*
D03*
Y149500D02*
D03*
X320150D02*
D03*
Y110500D02*
D03*
X332850Y149500D02*
D03*
Y110500D02*
D03*
X345550Y149500D02*
D03*
Y110500D02*
D03*
X358250Y149500D02*
D03*
X370950D02*
D03*
X358250Y110500D02*
D03*
X370950D02*
D03*
X462550Y410500D02*
D03*
X449850D02*
D03*
X437150D02*
D03*
X424450D02*
D03*
X411750D02*
D03*
X462550Y449500D02*
D03*
X449850D02*
D03*
X437150D02*
D03*
X424450D02*
D03*
X411750D02*
D03*
X399050Y410500D02*
D03*
X386350D02*
D03*
X399050Y449500D02*
D03*
X386350D02*
D03*
X373650Y410500D02*
D03*
Y449500D02*
D03*
X297450Y410500D02*
D03*
Y449500D02*
D03*
X310150D02*
D03*
Y410500D02*
D03*
X322850Y449500D02*
D03*
Y410500D02*
D03*
X335550Y449500D02*
D03*
Y410500D02*
D03*
X348250Y449500D02*
D03*
X360950D02*
D03*
X348250Y410500D02*
D03*
X360950D02*
D03*
M02*
