G04*
G04 #@! TF.GenerationSoftware,Altium Limited,Altium Designer,23.11.1 (41)*
G04*
G04 Layer_Physical_Order=4*
G04 Layer_Color=16711680*
%FSLAX44Y44*%
%MOMM*%
G71*
G04*
G04 #@! TF.SameCoordinates,4CE7A35D-70A9-472E-BD1E-F3F5204FB4D5*
G04*
G04*
G04 #@! TF.FilePolarity,Positive*
G04*
G01*
G75*
%ADD13C,0.6000*%
%ADD14C,0.4000*%
%ADD15C,0.2000*%
%ADD18R,1.3000X0.9000*%
%ADD19R,0.9000X1.3000*%
%ADD23R,1.3500X1.1500*%
%ADD24C,2.0000*%
%ADD67C,1.8000*%
%ADD72C,1.5000*%
%ADD80C,0.2300*%
%ADD81C,0.3000*%
%ADD83C,1.6000*%
G04:AMPARAMS|DCode=84|XSize=1.6mm|YSize=1.6mm|CornerRadius=0.4mm|HoleSize=0mm|Usage=FLASHONLY|Rotation=0.000|XOffset=0mm|YOffset=0mm|HoleType=Round|Shape=RoundedRectangle|*
%AMROUNDEDRECTD84*
21,1,1.6000,0.8000,0,0,0.0*
21,1,0.8000,1.6000,0,0,0.0*
1,1,0.8000,0.4000,-0.4000*
1,1,0.8000,-0.4000,-0.4000*
1,1,0.8000,-0.4000,0.4000*
1,1,0.8000,0.4000,0.4000*
%
%ADD84ROUNDEDRECTD84*%
%ADD85C,7.0000*%
%ADD86C,1.2000*%
G04:AMPARAMS|DCode=87|XSize=2mm|YSize=2mm|CornerRadius=0.5mm|HoleSize=0mm|Usage=FLASHONLY|Rotation=90.000|XOffset=0mm|YOffset=0mm|HoleType=Round|Shape=RoundedRectangle|*
%AMROUNDEDRECTD87*
21,1,2.0000,1.0000,0,0,90.0*
21,1,1.0000,2.0000,0,0,90.0*
1,1,1.0000,0.5000,0.5000*
1,1,1.0000,0.5000,-0.5000*
1,1,1.0000,-0.5000,-0.5000*
1,1,1.0000,-0.5000,0.5000*
%
%ADD87ROUNDEDRECTD87*%
%ADD88C,1.3000*%
G04:AMPARAMS|DCode=89|XSize=1.6mm|YSize=1.6mm|CornerRadius=0.4mm|HoleSize=0mm|Usage=FLASHONLY|Rotation=270.000|XOffset=0mm|YOffset=0mm|HoleType=Round|Shape=RoundedRectangle|*
%AMROUNDEDRECTD89*
21,1,1.6000,0.8000,0,0,270.0*
21,1,0.8000,1.6000,0,0,270.0*
1,1,0.8000,-0.4000,-0.4000*
1,1,0.8000,-0.4000,0.4000*
1,1,0.8000,0.4000,0.4000*
1,1,0.8000,0.4000,-0.4000*
%
%ADD89ROUNDEDRECTD89*%
%ADD90C,0.7000*%
%ADD91C,0.3000*%
%ADD92C,0.4000*%
%ADD93R,2.4000X0.7500*%
G04:AMPARAMS|DCode=94|XSize=1.75mm|YSize=1.25mm|CornerRadius=0.3125mm|HoleSize=0mm|Usage=FLASHONLY|Rotation=0.000|XOffset=0mm|YOffset=0mm|HoleType=Round|Shape=RoundedRectangle|*
%AMROUNDEDRECTD94*
21,1,1.7500,0.6250,0,0,0.0*
21,1,1.1250,1.2500,0,0,0.0*
1,1,0.6250,0.5625,-0.3125*
1,1,0.6250,-0.5625,-0.3125*
1,1,0.6250,-0.5625,0.3125*
1,1,0.6250,0.5625,0.3125*
%
%ADD94ROUNDEDRECTD94*%
G04:AMPARAMS|DCode=95|XSize=1.75mm|YSize=1.25mm|CornerRadius=0.3125mm|HoleSize=0mm|Usage=FLASHONLY|Rotation=90.000|XOffset=0mm|YOffset=0mm|HoleType=Round|Shape=RoundedRectangle|*
%AMROUNDEDRECTD95*
21,1,1.7500,0.6250,0,0,90.0*
21,1,1.1250,1.2500,0,0,90.0*
1,1,0.6250,0.3125,0.5625*
1,1,0.6250,0.3125,-0.5625*
1,1,0.6250,-0.3125,-0.5625*
1,1,0.6250,-0.3125,0.5625*
%
%ADD95ROUNDEDRECTD95*%
%ADD96R,1.6000X1.2000*%
%ADD97R,0.7500X2.4000*%
D13*
X549500Y306350D02*
G03*
X555000Y311850I0J5500D01*
G01*
X358250Y110500D02*
G03*
X359750Y109000I1500J0D01*
G01*
X204000Y420000D02*
G03*
X214000Y410000I10000J0D01*
G01*
X210000Y465000D02*
X216000D01*
X224000Y457000D02*
X226000D01*
X216000Y465000D02*
X224000Y457000D01*
X226000D02*
X227500Y455500D01*
X242000Y455000D02*
X243000D01*
X241500Y455500D02*
X242000Y455000D01*
X227500Y455500D02*
X241500D01*
X555000Y311850D02*
Y332000D01*
X359750Y109000D02*
X383000D01*
X214000Y410000D02*
X298000D01*
X690500Y466500D02*
X721000Y436000D01*
X646173Y509827D02*
X661000Y495000D01*
X645000Y466500D02*
X661000Y482500D01*
Y495000D01*
X646173Y509827D02*
Y515827D01*
X643000Y519000D02*
X646173Y515827D01*
X645000Y466500D02*
X690500D01*
X643000D02*
X645000D01*
X614500Y519000D02*
Y521500D01*
X665278Y572278D01*
X670278D01*
X672000Y574000D01*
D14*
X606000Y292000D02*
X614337Y300337D01*
X718913D02*
X727250Y308674D01*
Y311657D01*
X729593Y314000D01*
X749250D01*
X759000Y304250D01*
X614337Y300337D02*
X718913D01*
X759000Y304250D02*
X760000D01*
X761000D01*
D15*
X206879Y429577D02*
G03*
X207428Y429500I549J1923D01*
G01*
X206866Y429580D02*
G03*
X201141Y429583I-2866J-9580D01*
G01*
X200572Y429500D02*
G03*
X201141Y429583I-0J2000D01*
G01*
X206092Y425624D02*
G03*
X206784Y425500I692J1876D01*
G01*
X201216D02*
G03*
X201917Y425627I0J2000D01*
G01*
X206092Y425624D02*
G03*
X201917Y425627I-2092J-5623D01*
G01*
X451227Y303063D02*
G03*
X452509Y303638I-125J1996D01*
G01*
X498500Y363900D02*
G03*
X495500Y360900I0J-3000D01*
G01*
X494917Y355474D02*
G03*
X495500Y356885I-1417J1412D01*
G01*
X508500Y363900D02*
G03*
X510500Y365900I0J2000D01*
G01*
X471553Y322682D02*
G03*
X472141Y324099I-1412J1417D01*
G01*
X473317Y333874D02*
G03*
X472141Y331041I2823J-2833D01*
G01*
X265587Y464768D02*
G03*
X265013Y465987I-1991J-193D01*
G01*
X522000Y398000D02*
Y469000D01*
X449850Y455850D02*
X450000Y456000D01*
X449850Y449500D02*
Y455850D01*
X222000Y188950D02*
Y192000D01*
X220500Y187450D02*
X222000Y188950D01*
X220500Y250950D02*
X221000Y250450D01*
Y247000D02*
Y250450D01*
X694000Y235000D02*
X694271D01*
X694770Y235499D02*
X725249D01*
X694271Y235000D02*
X694770Y235499D01*
X726249Y234500D02*
X750000D01*
X725249Y235499D02*
X726249Y234500D01*
X620000Y433000D02*
X662500Y390500D01*
X684000D01*
X449289Y238063D02*
X494337D01*
X449226Y238000D02*
X449289Y238063D01*
X494337D02*
X502250Y230150D01*
X510287Y243063D02*
X510500Y242850D01*
X454226Y243063D02*
X510287D01*
X251250Y238250D02*
X259500D01*
X251000Y238000D02*
X251250Y238250D01*
X241500Y302000D02*
X259250D01*
X236000Y303000D02*
X240500D01*
X241500Y302000D01*
X236500Y316000D02*
X257950D01*
X259250Y302000D02*
X259500Y301750D01*
X257950Y316000D02*
X259500Y314450D01*
X254734Y329900D02*
Y332600D01*
X254000Y329900D02*
X254734D01*
X617000Y371500D02*
X632000D01*
X597000Y351500D02*
X617000Y371500D01*
X525991Y397809D02*
X541250Y382550D01*
X522191Y397809D02*
X525991D01*
X522000Y398000D02*
X522191Y397809D01*
X541250Y382550D02*
X549500D01*
X209000Y477000D02*
X209271D01*
X210271Y476000D02*
X226000D01*
X209271Y477000D02*
X210271Y476000D01*
X226000D02*
X246000D01*
X295200Y135393D02*
Y162899D01*
X320719Y188419D01*
X321167D01*
X361000Y228958D02*
Y229000D01*
X344500Y206186D02*
X361314Y223000D01*
X322824Y184419D02*
X344500Y206094D01*
X322376Y184419D02*
X322824D01*
X344500Y206094D02*
Y206186D01*
X340500Y208458D02*
X361000Y228958D01*
X321167Y188419D02*
X340500Y207751D01*
X300700Y162743D02*
X322376Y184419D01*
X361314Y223000D02*
X366000D01*
X340500Y207751D02*
Y208458D01*
X254000Y329900D02*
X256750Y327150D01*
X259500D01*
X247000Y115000D02*
Y132636D01*
X206866Y429580D02*
X206879Y429577D01*
X207428Y429500D02*
X469199D01*
X194157D02*
X200572D01*
X206784Y425500D02*
X467542D01*
X192500D02*
X201216D01*
X108271Y525000D02*
X109771Y523500D01*
X108000Y525000D02*
X108271D01*
X109771Y523500D02*
X131000D01*
X107000Y511000D02*
X112750Y505250D01*
X70250Y443000D02*
Y512300D01*
X451226Y303063D02*
X451227D01*
X495500Y356885D02*
Y360900D01*
X473317Y333874D02*
X494917Y355474D01*
X473317Y333874D02*
X473317Y333874D01*
X498500Y363900D02*
X508500D01*
X471553Y322682D02*
X471553Y322682D01*
X452509Y303638D02*
X471553Y322682D01*
X472141Y324099D02*
Y331041D01*
X510500Y365900D02*
Y369850D01*
X427000Y225000D02*
Y325000D01*
X440726Y336726D02*
X448000Y344000D01*
X386000D02*
X408000D01*
X453226Y293063D02*
X453247D01*
X444726Y224950D02*
Y324456D01*
X449226Y278063D02*
X473963D01*
X452590Y298063D02*
X476141Y321613D01*
X440726Y217879D02*
Y336726D01*
X458563Y288063D02*
X502250Y331750D01*
X453247Y293063D02*
X480141Y319956D01*
X453226Y283063D02*
X466263D01*
X452000Y313000D02*
Y332300D01*
X449226Y288063D02*
X458563D01*
X449226Y298063D02*
X452590D01*
X444726Y324456D02*
X447000Y326729D01*
Y327000D01*
X131000Y523500D02*
X147000D01*
X265007Y465993D02*
X265013Y465987D01*
X258500Y472500D02*
X265007Y465993D01*
X265587Y464768D02*
X266000Y460500D01*
X112750Y505250D02*
X192500Y425500D01*
X178000Y445657D02*
X194157Y429500D01*
X469199D02*
X473300Y425399D01*
X453386Y387000D02*
X461886Y395500D01*
X426000Y387000D02*
X453386D01*
X467542Y425500D02*
X469300Y423743D01*
Y397257D02*
Y423743D01*
X473300Y395601D02*
Y425399D01*
X461886Y395500D02*
X467543D01*
X469300Y397257D01*
X178000Y445657D02*
Y530743D01*
X70250Y512300D02*
X108000Y550050D01*
X70250Y443000D02*
X82000Y431250D01*
X83000D01*
X65968Y412750D02*
X83000D01*
X52750Y399532D02*
X65968Y412750D01*
X112750Y444290D02*
Y505250D01*
X106000Y437540D02*
X112750Y444290D01*
X106000Y428782D02*
Y437540D01*
X156007Y357000D02*
X208328D01*
X716875Y361125D02*
X780625D01*
X716875Y399118D02*
X741379Y423621D01*
X748000Y426500D02*
Y434000D01*
X745121Y423621D02*
X748000Y426500D01*
X741379Y423621D02*
X745121D01*
X716875Y361125D02*
Y399118D01*
X780625Y361125D02*
X782000Y362500D01*
X341000Y226636D02*
Y257000D01*
X311100Y233000D02*
X325500D01*
X319686Y243000D02*
X329136D01*
X247000Y132636D02*
X341000Y226636D01*
X235000Y127000D02*
X336500Y228500D01*
Y271500D01*
X277191Y322408D02*
X278500Y321100D01*
X277191Y322408D02*
Y338809D01*
X274500Y313843D02*
X298318Y290025D01*
X273191Y320751D02*
X274500Y319443D01*
X267750Y327150D02*
X273191Y321709D01*
X278500Y315500D02*
Y321100D01*
X273191Y320751D02*
Y321709D01*
X306000Y288000D02*
X326000D01*
X274500Y313843D02*
Y319443D01*
X278500Y315500D02*
X306000Y288000D01*
X298318Y275682D02*
Y290025D01*
X408000Y344000D02*
X427000Y325000D01*
X341000Y320000D02*
X360000Y339000D01*
X321000Y253000D02*
X332000D01*
X330000Y278000D02*
X336500Y271500D01*
X440726Y217879D02*
X479300Y179305D01*
Y97257D02*
Y179305D01*
X469199Y391500D02*
X473300Y395601D01*
X451043Y379000D02*
X463543Y391500D01*
X469199D01*
X421000Y379000D02*
X451043D01*
X312357Y363300D02*
X329234Y346423D01*
X323184Y343057D02*
Y343109D01*
X306993Y359300D02*
X323184Y343109D01*
X239700Y363300D02*
X312357D01*
X329234Y340331D02*
Y346423D01*
X331000Y321000D02*
Y338565D01*
X328000Y318000D02*
X331000Y321000D01*
X329234Y340331D02*
X331000Y338565D01*
X158693Y550050D02*
X178000Y530743D01*
X108000Y550050D02*
X158693D01*
X452063Y233063D02*
X486637D01*
X452000Y233000D02*
X452063Y233063D01*
X486637D02*
X502250Y217450D01*
X391500Y496000D02*
Y497960D01*
X388000Y501460D02*
X391500Y497960D01*
X378000Y501460D02*
X388000D01*
X391500Y477000D02*
Y496000D01*
X384500Y531000D02*
Y550000D01*
X383500Y530000D02*
X384500Y531000D01*
X424000Y178000D02*
X437809Y191809D01*
X440809D01*
X441000Y192000D01*
X424000Y176000D02*
Y178000D01*
X447000Y176000D02*
Y186000D01*
X160000Y127000D02*
X235000D01*
X295700Y223000D02*
X321636D01*
X300700Y161700D02*
Y162743D01*
X299973Y160973D02*
X300700Y161700D01*
X299389Y159646D02*
X299423Y160423D01*
X299973Y160973D01*
X302809Y228191D02*
X303000Y228000D01*
X302809Y228191D02*
Y228591D01*
X267750Y263650D02*
X302809Y228591D01*
X267750Y250950D02*
X295700Y223000D01*
X478699Y91000D02*
X483300Y95601D01*
Y186377D01*
X444726Y224950D02*
X483300Y186377D01*
X439572Y87500D02*
X443072Y91000D01*
X478699D01*
X441915Y95500D02*
X477543D01*
X479300Y97257D01*
X437915Y91500D02*
X441915Y95500D01*
X402287Y91500D02*
X437915D01*
X402300Y95500D02*
X409050Y102250D01*
X302457Y95500D02*
X402300D01*
X383756Y77156D02*
X393600D01*
X354644Y89000D02*
X399787D01*
X402287Y91500D01*
X382600Y76000D02*
X383756Y77156D01*
X403944Y87500D02*
X439572D01*
X393600Y77156D02*
X403944Y87500D01*
X296286Y101671D02*
X302457Y95500D01*
X342800Y77156D02*
X354644Y89000D01*
X332956Y77156D02*
X342800D01*
X331800Y76000D02*
X332956Y77156D01*
X452000Y332300D02*
X502250Y382550D01*
X299200Y155318D02*
X299389Y159646D01*
X299200Y137050D02*
Y155318D01*
X263000Y542000D02*
X272000Y551000D01*
X258500Y472500D02*
Y549500D01*
X268000Y559000D01*
X263000Y477000D02*
Y542000D01*
X272000Y551000D02*
X288000D01*
X34000Y399532D02*
X52750D01*
X87993Y398532D02*
X94993Y405532D01*
X80000Y398532D02*
X87993D01*
X101250Y405532D02*
X106000Y410282D01*
X94993Y405532D02*
X101250D01*
X138000Y347250D02*
X138321Y347571D01*
X146578D01*
X156007Y357000D01*
X209500Y355300D02*
Y355828D01*
X208328Y357000D02*
X209500Y355828D01*
Y355300D02*
X212250Y352550D01*
X239507D01*
X131000Y542500D02*
X151000D01*
X113500D02*
X131000D01*
X108000Y537000D02*
X113500Y542500D01*
X200000Y187957D02*
X207257Y180700D01*
X200000Y187957D02*
Y309250D01*
X163000Y346250D02*
X200000Y309250D01*
X251250Y250950D02*
X259500D01*
X241121Y188079D02*
Y240821D01*
X233743Y180700D02*
X241121Y188079D01*
X207257Y180700D02*
X233743D01*
X241121Y240821D02*
X251250Y250950D01*
X162000Y346250D02*
X163000D01*
X295700Y102257D02*
X296286Y101671D01*
X299200Y137050D02*
X299786Y136465D01*
X295200Y135393D02*
X295700Y102257D01*
X299786Y136465D02*
X307725Y128525D01*
X386575D01*
X396350Y118750D01*
X409050Y102250D02*
Y110500D01*
X246257Y359300D02*
X306993D01*
X229000Y374000D02*
X239700Y363300D01*
X277000Y339000D02*
X277191Y338809D01*
X239507Y352550D02*
X246257Y359300D01*
X298318Y275682D02*
X321000Y253000D01*
X320343Y248000D02*
X326000D01*
X289343Y273343D02*
Y280157D01*
X293343Y275000D02*
X320343Y248000D01*
X267750Y314450D02*
X293343Y288857D01*
X267750Y301750D02*
X289343Y280157D01*
X293343Y275000D02*
Y288857D01*
X289343Y273343D02*
X319686Y243000D01*
X259500Y327150D02*
X267750D01*
X259500Y314450D02*
X267750D01*
X259500Y301750D02*
X267750D01*
X318800Y238000D02*
X325000D01*
X259500Y289050D02*
X267750D01*
X318800Y238000D01*
X267750Y276350D02*
X311100Y233000D01*
X259500Y276350D02*
X267750D01*
X259500Y263650D02*
X267750D01*
X259500Y250950D02*
X267750D01*
X502250Y217450D02*
X510500D01*
X502250Y230150D02*
X510500D01*
X502250Y255550D02*
X510500D01*
X494763Y248063D02*
X502250Y255550D01*
X449226Y248063D02*
X494763D01*
X487063Y253063D02*
X502250Y268250D01*
X455226Y253063D02*
X487063D01*
X502250Y268250D02*
X510500D01*
X479363Y258063D02*
X502250Y280950D01*
X449226Y258063D02*
X479363D01*
X502250Y280950D02*
X510500D01*
X455226Y273063D02*
X481663D01*
X502250Y293650D02*
X510500D01*
X481663Y273063D02*
X502250Y293650D01*
X473963Y278063D02*
X502250Y306350D01*
X510500D01*
X502250Y319050D02*
X510500D01*
X466263Y283063D02*
X502250Y319050D01*
Y331750D02*
X510500D01*
X502250Y344450D02*
X510500D01*
X480141Y322341D02*
X502250Y344450D01*
X480141Y319956D02*
Y322341D01*
X476141Y321613D02*
Y331041D01*
X502250Y357150D01*
X510500D01*
X502250Y382550D02*
X510500D01*
D18*
X750000Y234500D02*
D03*
Y215500D02*
D03*
X725249Y235499D02*
D03*
Y216499D02*
D03*
X226000Y457000D02*
D03*
Y476000D02*
D03*
X246000Y457000D02*
D03*
Y476000D02*
D03*
X131000Y523500D02*
D03*
Y542500D02*
D03*
X151000Y523500D02*
D03*
Y542500D02*
D03*
X748000Y434000D02*
D03*
Y415000D02*
D03*
X678000Y286500D02*
D03*
Y309500D02*
D03*
X764000Y361500D02*
D03*
Y342500D02*
D03*
X782000Y362500D02*
D03*
Y339500D02*
D03*
X684000Y371500D02*
D03*
Y390500D02*
D03*
X632000Y371500D02*
D03*
Y390500D02*
D03*
X643000Y466500D02*
D03*
Y489500D02*
D03*
X602000Y466000D02*
D03*
Y489000D02*
D03*
X575000Y466000D02*
D03*
Y489000D02*
D03*
D19*
X424000Y176000D02*
D03*
X447000D02*
D03*
X383500Y530000D02*
D03*
X406500D02*
D03*
X384500Y550000D02*
D03*
X407500D02*
D03*
X391500Y477000D02*
D03*
X414500D02*
D03*
X391500Y496000D02*
D03*
X414500D02*
D03*
D23*
X106000Y410282D02*
D03*
Y428782D02*
D03*
X103000Y451282D02*
D03*
Y469782D02*
D03*
X83000Y412750D02*
D03*
Y431250D02*
D03*
X80000Y451282D02*
D03*
Y469782D02*
D03*
X138000Y328750D02*
D03*
Y347250D02*
D03*
X162000Y327750D02*
D03*
Y346250D02*
D03*
X783000Y285750D02*
D03*
Y304250D02*
D03*
X738000D02*
D03*
Y285750D02*
D03*
X760000Y304250D02*
D03*
Y285750D02*
D03*
D24*
X547000Y564555D02*
D03*
X517000D02*
D03*
X487000D02*
D03*
X517000Y534555D02*
D03*
X487000D02*
D03*
D67*
X472300Y77000D02*
D03*
X497700D02*
D03*
D72*
X672000Y574000D02*
D03*
X621200D02*
D03*
X646600D02*
D03*
D80*
X602000Y462100D02*
Y466000D01*
D81*
X766750Y319500D02*
X782000Y304250D01*
X714033Y311250D02*
X722283Y319500D01*
X766750D01*
X711000Y311250D02*
X714033D01*
X575000Y466000D02*
X602000D01*
X442950Y127450D02*
X472550D01*
X441000Y125500D02*
X442950Y127450D01*
X472550Y110500D02*
Y127450D01*
X549000Y243000D02*
X549150Y242850D01*
X549500D01*
X683500Y283000D02*
X710000D01*
X680000Y286500D02*
X683500Y283000D01*
X678000Y286500D02*
X680000D01*
X782000Y331000D02*
Y339500D01*
Y331000D02*
X792000Y321000D01*
X767000Y339500D02*
X782000D01*
X764000Y342500D02*
X767000Y339500D01*
X753000Y410000D02*
Y412000D01*
X748000Y415000D02*
X750000D01*
X753000Y412000D01*
Y410000D02*
X770500Y392500D01*
Y387500D02*
Y392500D01*
X132750Y317750D02*
Y324500D01*
X137000Y328750D02*
X138000D01*
X132750Y324500D02*
X137000Y328750D01*
X132000Y317000D02*
X132750Y317750D01*
X151000Y318000D02*
X151250D01*
X161000Y327750D02*
X162000D01*
X151250Y318000D02*
X161000Y327750D01*
X565000Y417000D02*
X573000Y409000D01*
X565000Y417000D02*
Y517800D01*
X453250Y491027D02*
Y500500D01*
X360950Y349050D02*
X366000Y344000D01*
X371000Y339000D02*
Y393971D01*
X386000Y344000D02*
Y376500D01*
X725000Y217000D02*
X726500Y215500D01*
X143000Y91500D02*
X145000D01*
X131750Y80250D02*
X143000Y91500D01*
X338734Y344266D02*
X341000Y342000D01*
X338734Y344266D02*
Y372473D01*
X316400Y394808D02*
X338734Y372473D01*
X334071Y537230D02*
X365230D01*
X362935Y542770D02*
X370960Y550795D01*
X365230Y537230D02*
X376500Y548500D01*
X333305Y542770D02*
X362935D01*
X360950Y349050D02*
Y410500D01*
X80000Y469782D02*
X103000D01*
X320000Y556048D02*
X320020Y556068D01*
X314460Y569250D02*
X314480Y569230D01*
X320000Y544230D02*
Y556048D01*
X314460Y558342D02*
X314480Y558363D01*
Y569230D01*
X320020Y568024D02*
X320049Y568053D01*
X314460Y541935D02*
Y558342D01*
X320020Y556068D02*
Y568024D01*
X392960Y548590D02*
Y557490D01*
X403783Y532718D02*
Y537768D01*
X392744Y565540D02*
X398500Y559785D01*
X406628Y549128D02*
X407500Y550000D01*
X370960Y560244D02*
X376255Y565540D01*
X403783Y532718D02*
X406500Y530000D01*
X378550Y560000D02*
X390450D01*
X376500Y548500D02*
Y557950D01*
X370960Y550795D02*
Y560244D01*
X390450Y560000D02*
X392960Y557490D01*
X376500Y557950D02*
X378550Y560000D01*
X398500Y550885D02*
X400257Y549128D01*
X392960Y548590D02*
X403783Y537768D01*
X400257Y549128D02*
X406628D01*
X398500Y550885D02*
Y559785D01*
X376255Y565540D02*
X392744D01*
X412257Y542563D02*
X418067D01*
X415928Y536868D02*
X421493D01*
X418067Y542563D02*
X418223Y542408D01*
X320000Y544230D02*
X352547Y511683D01*
X350252Y506143D02*
X362786D01*
X415773Y537023D02*
X415928Y536868D01*
X411257Y537023D02*
X415773D01*
X361705Y512000D02*
X399285D01*
X423250Y544165D02*
Y551000D01*
X418223Y542408D02*
X421493D01*
X423250Y544165D01*
X314460Y541935D02*
X350252Y506143D01*
X352547Y511683D02*
X361388D01*
X406500Y488050D02*
Y496950D01*
X409743Y486000D02*
X411500Y484243D01*
Y482000D02*
Y484243D01*
X406500Y488050D02*
X408550Y486000D01*
X409743D01*
X364000Y506460D02*
X396990D01*
X411500Y501000D02*
X414500Y498000D01*
X410285Y501000D02*
X411500D01*
X361388Y511683D02*
X361705Y512000D01*
X399285D02*
X410285Y501000D01*
X414500Y496000D02*
Y498000D01*
X396990Y506460D02*
X406500Y496950D01*
X414500Y494000D02*
Y496000D01*
X411500Y482000D02*
X414500Y479000D01*
Y477000D02*
Y479000D01*
X419230Y489270D02*
X451493D01*
Y483730D02*
X453250Y481973D01*
X419230Y483730D02*
X451493D01*
X453250Y475000D02*
Y481973D01*
X451493Y489270D02*
X453250Y491027D01*
X414500Y479000D02*
X419230Y483730D01*
X363234Y505695D02*
X364000Y506460D01*
X414500Y494000D02*
X419230Y489270D01*
X362786Y506143D02*
X363234Y505695D01*
X425000Y529000D02*
Y533360D01*
X421493Y536868D02*
X425000Y533360D01*
X409500Y535266D02*
X411257Y537023D01*
X409500Y533000D02*
Y535266D01*
X406500Y530000D02*
X409500Y533000D01*
X410500Y544320D02*
X412257Y542563D01*
X410500Y544320D02*
Y547000D01*
X407500Y550000D02*
X410500Y547000D01*
X119000Y80250D02*
X131750D01*
X160000Y325750D02*
X162000Y327750D01*
X381000Y340000D02*
Y384200D01*
X678000Y310000D02*
X679000Y311000D01*
X678000Y309500D02*
Y310000D01*
X737000Y269000D02*
X738000Y270000D01*
Y285750D01*
X614000Y439000D02*
X620000Y433000D01*
X614000Y439000D02*
Y490000D01*
X565000Y517800D02*
X621200Y574000D01*
X614000Y490000D02*
X614500Y489500D01*
X643000D01*
X602000Y489000D02*
X613000D01*
X614000Y490000D01*
X575000Y489000D02*
X602000D01*
X760000Y269000D02*
Y285750D01*
X783000Y276000D02*
Y285750D01*
Y276000D02*
X784000Y275000D01*
X782000Y304250D02*
X783000D01*
X726500Y215500D02*
X750000D01*
X396350Y110500D02*
Y118750D01*
X310150Y402250D02*
X316400Y396000D01*
Y394808D02*
Y396000D01*
X310150Y402250D02*
Y410500D01*
X322850Y402250D02*
Y410500D01*
Y402250D02*
X344743Y380357D01*
Y346000D02*
Y380357D01*
X349743Y342257D02*
X351000Y341000D01*
X349743Y342257D02*
Y388057D01*
X335550Y402250D02*
X349743Y388057D01*
X335550Y402250D02*
Y410500D01*
X354743Y346257D02*
Y395757D01*
Y346257D02*
X356000Y345000D01*
X348250Y402250D02*
Y410500D01*
Y402250D02*
X354743Y395757D01*
X371400Y394371D02*
Y408250D01*
X373650Y410500D01*
X371000Y393971D02*
X371400Y394371D01*
X376000Y391900D02*
X386350Y402250D01*
Y410500D01*
X376000Y343000D02*
Y391900D01*
X381000Y384200D02*
X399050Y402250D01*
Y410500D01*
X386000Y376500D02*
X411750Y402250D01*
Y410500D01*
D83*
X433400Y76000D02*
D03*
X408000D02*
D03*
X357200D02*
D03*
X331800D02*
D03*
X382600D02*
D03*
X780000Y443200D02*
D03*
Y468600D02*
D03*
D84*
X306400Y76000D02*
D03*
D85*
X50000Y549000D02*
D03*
X750000Y101000D02*
D03*
Y551000D02*
D03*
X50000Y100000D02*
D03*
D86*
X457310Y573445D02*
D03*
X576690D02*
D03*
D87*
X547000Y534555D02*
D03*
D88*
X268250Y74000D02*
D03*
X205750D02*
D03*
D89*
X780000Y494000D02*
D03*
D90*
X746500Y354250D02*
D03*
Y395750D02*
D03*
X30000Y569000D02*
D03*
X22500Y549000D02*
D03*
X30000Y529000D02*
D03*
X50000Y521500D02*
D03*
X70000Y529000D02*
D03*
X77500Y549000D02*
D03*
X70000Y569000D02*
D03*
X50000Y576500D02*
D03*
X730000Y121000D02*
D03*
X722500Y101000D02*
D03*
X730000Y81000D02*
D03*
X750000Y73500D02*
D03*
X770000Y81000D02*
D03*
X777500Y101000D02*
D03*
X770000Y121000D02*
D03*
X750000Y128500D02*
D03*
Y578500D02*
D03*
X770000Y571000D02*
D03*
X777500Y551000D02*
D03*
X770000Y531000D02*
D03*
X750000Y523500D02*
D03*
X730000Y531000D02*
D03*
X722500Y551000D02*
D03*
X730000Y571000D02*
D03*
X50000Y127500D02*
D03*
X70000Y120000D02*
D03*
X77500Y100000D02*
D03*
X70000Y80000D02*
D03*
X50000Y72500D02*
D03*
X30000Y80000D02*
D03*
X22500Y100000D02*
D03*
X30000Y120000D02*
D03*
D91*
X602000Y462100D02*
D03*
X694000Y235000D02*
D03*
X449226Y238000D02*
D03*
X454226Y243063D02*
D03*
X449226Y248063D02*
D03*
X251000Y238000D02*
D03*
X214000Y275000D02*
D03*
X215000Y289000D02*
D03*
X277000Y339000D02*
D03*
X236000Y303000D02*
D03*
X236500Y316000D02*
D03*
X211000Y267000D02*
D03*
X221000Y247000D02*
D03*
X222818Y238818D02*
D03*
X144000Y220500D02*
D03*
Y239500D02*
D03*
X275000Y437000D02*
D03*
X254734Y332600D02*
D03*
X288000Y187500D02*
D03*
Y206500D02*
D03*
X549000Y243000D02*
D03*
X792000Y321000D02*
D03*
X243000Y455000D02*
D03*
X246000Y476000D02*
D03*
X209000Y477000D02*
D03*
X348000Y141000D02*
D03*
X358000Y142000D02*
D03*
X396000D02*
D03*
X383000D02*
D03*
X371000Y141000D02*
D03*
X310000Y140000D02*
D03*
X322000D02*
D03*
X335000Y141000D02*
D03*
X219000Y201000D02*
D03*
X256318Y197318D02*
D03*
X253000Y187000D02*
D03*
X264000Y223000D02*
D03*
X499000Y405000D02*
D03*
X220898Y340500D02*
D03*
X247000Y115000D02*
D03*
X597000Y351500D02*
D03*
X441000Y125500D02*
D03*
X555000Y332000D02*
D03*
X573000Y409000D02*
D03*
X592000Y448000D02*
D03*
X412000Y451000D02*
D03*
X399000D02*
D03*
X425000D02*
D03*
X204000Y420000D02*
D03*
X235000Y416500D02*
D03*
X298000Y410000D02*
D03*
X490000Y96000D02*
D03*
X448000Y154000D02*
D03*
Y344000D02*
D03*
X449226Y288063D02*
D03*
X452000Y313000D02*
D03*
X449226Y298063D02*
D03*
X451226Y303063D02*
D03*
X453226Y293063D02*
D03*
Y283063D02*
D03*
X447000Y327000D02*
D03*
X449226Y278063D02*
D03*
X455226Y273063D02*
D03*
X323000Y449000D02*
D03*
X310000D02*
D03*
X374000Y448000D02*
D03*
X298000D02*
D03*
X348000Y447000D02*
D03*
X361000D02*
D03*
X335000Y448000D02*
D03*
X108000Y525000D02*
D03*
X107000Y511000D02*
D03*
X78000Y451532D02*
D03*
X453250Y500500D02*
D03*
X102000Y451532D02*
D03*
X410000Y154000D02*
D03*
X438252Y409897D02*
D03*
X463000Y408000D02*
D03*
X522000Y398000D02*
D03*
X256000Y352000D02*
D03*
X425000Y408000D02*
D03*
X472000Y151000D02*
D03*
X423000Y154000D02*
D03*
X427000Y225000D02*
D03*
X450000Y408000D02*
D03*
X366000Y344000D02*
D03*
X371000Y339000D02*
D03*
X386000Y344000D02*
D03*
X236500Y247000D02*
D03*
X147000Y523000D02*
D03*
X266000Y460500D02*
D03*
X545000Y404000D02*
D03*
X686000Y375250D02*
D03*
X721000Y436000D02*
D03*
X198000Y350000D02*
D03*
X341000Y319000D02*
D03*
Y257000D02*
D03*
X329136Y243000D02*
D03*
X325500Y233000D02*
D03*
X332000Y253000D02*
D03*
X398000Y129000D02*
D03*
X597000Y370500D02*
D03*
X143000Y123000D02*
D03*
X426000Y387000D02*
D03*
X421000Y379000D02*
D03*
X323184Y343057D02*
D03*
X341000Y342000D02*
D03*
X108000Y550050D02*
D03*
X452000Y233000D02*
D03*
X343000Y551000D02*
D03*
X376000Y485000D02*
D03*
X378000Y501460D02*
D03*
X383500Y530000D02*
D03*
X447000Y186000D02*
D03*
X160000Y127000D02*
D03*
X321636Y223000D02*
D03*
X330000Y278000D02*
D03*
X303000Y228000D02*
D03*
X441000Y192000D02*
D03*
X462000Y152000D02*
D03*
X360000Y339000D02*
D03*
X263000Y477000D02*
D03*
X268000Y537500D02*
D03*
X297500Y474000D02*
D03*
X34000Y399532D02*
D03*
X79500Y379532D02*
D03*
X80000Y398532D02*
D03*
X48000Y337282D02*
D03*
X108000Y537000D02*
D03*
X268000Y559000D02*
D03*
X288000Y551000D02*
D03*
X314460Y569250D02*
D03*
X320049Y568053D02*
D03*
X453250Y475000D02*
D03*
X334071Y537230D02*
D03*
X333305Y542770D02*
D03*
X363234Y505695D02*
D03*
X364000Y512000D02*
D03*
X425000Y529000D02*
D03*
X423250Y551000D02*
D03*
X119000Y80250D02*
D03*
X227000Y115000D02*
D03*
X208000Y114000D02*
D03*
X132000Y317000D02*
D03*
X151000Y318000D02*
D03*
X221488Y316025D02*
D03*
X381000Y340000D02*
D03*
X581000Y230700D02*
D03*
X679000Y311000D02*
D03*
X737000Y269000D02*
D03*
X620000Y433000D02*
D03*
X760000Y269000D02*
D03*
X784000Y275000D02*
D03*
X782000Y304250D02*
D03*
X710000Y283000D02*
D03*
X737000Y247500D02*
D03*
X716875Y361125D02*
D03*
X725000Y217000D02*
D03*
X582000Y218000D02*
D03*
X606000Y292000D02*
D03*
X628000Y391000D02*
D03*
X131000Y297500D02*
D03*
X435000Y154000D02*
D03*
X219000Y214000D02*
D03*
X229000Y374000D02*
D03*
X328000Y318000D02*
D03*
X223000Y225000D02*
D03*
X326000Y288000D02*
D03*
X219000Y303000D02*
D03*
X224000Y328000D02*
D03*
X326000Y248000D02*
D03*
X325000Y238000D02*
D03*
X455226Y253063D02*
D03*
X449226Y258063D02*
D03*
X344743Y346000D02*
D03*
X356000Y345000D02*
D03*
X351000Y341000D02*
D03*
X376000Y343000D02*
D03*
X222000Y192000D02*
D03*
X361000Y229000D02*
D03*
X366000Y223000D02*
D03*
X614000Y490000D02*
D03*
X770500Y387500D02*
D03*
D92*
X522000Y469000D02*
D03*
X450000Y456000D02*
D03*
X210000Y465000D02*
D03*
X308000Y105000D02*
D03*
X333000Y116000D02*
D03*
X383000Y109000D02*
D03*
X463000Y455000D02*
D03*
X733418Y302605D02*
D03*
X545000Y218000D02*
D03*
X103000Y469782D02*
D03*
D93*
X220500Y289050D02*
D03*
Y301750D02*
D03*
X259500Y289050D02*
D03*
Y301750D02*
D03*
X220500Y314450D02*
D03*
X259500D02*
D03*
X220500Y327150D02*
D03*
X259500D02*
D03*
X220500Y339850D02*
D03*
X259500D02*
D03*
Y352550D02*
D03*
X220500D02*
D03*
X259500Y276350D02*
D03*
X220500D02*
D03*
X259500Y263650D02*
D03*
Y250950D02*
D03*
X220500Y263650D02*
D03*
Y250950D02*
D03*
X259500Y238250D02*
D03*
Y225550D02*
D03*
Y212850D02*
D03*
Y200150D02*
D03*
Y187450D02*
D03*
X220500Y238250D02*
D03*
Y225550D02*
D03*
Y212850D02*
D03*
Y200150D02*
D03*
Y187450D02*
D03*
X510500Y217450D02*
D03*
Y230150D02*
D03*
Y242850D02*
D03*
Y255550D02*
D03*
Y268250D02*
D03*
X549500Y217450D02*
D03*
Y230150D02*
D03*
Y242850D02*
D03*
Y255550D02*
D03*
Y268250D02*
D03*
X510500Y280950D02*
D03*
Y293650D02*
D03*
X549500Y280950D02*
D03*
Y293650D02*
D03*
X510500Y306350D02*
D03*
X549500D02*
D03*
X510500Y382550D02*
D03*
X549500D02*
D03*
Y369850D02*
D03*
X510500D02*
D03*
X549500Y357150D02*
D03*
X510500D02*
D03*
X549500Y344450D02*
D03*
X510500D02*
D03*
X549500Y331750D02*
D03*
Y319050D02*
D03*
X510500Y331750D02*
D03*
Y319050D02*
D03*
D94*
X711000Y282750D02*
D03*
Y311250D02*
D03*
D95*
X643000Y519000D02*
D03*
X614500D02*
D03*
D96*
X145000Y89500D02*
D03*
Y120500D02*
D03*
D97*
X472550Y110500D02*
D03*
X459850D02*
D03*
X447150D02*
D03*
X434450D02*
D03*
X421750D02*
D03*
X472550Y149500D02*
D03*
X459850D02*
D03*
X447150D02*
D03*
X434450D02*
D03*
X421750D02*
D03*
X409050Y110500D02*
D03*
X396350D02*
D03*
X409050Y149500D02*
D03*
X396350D02*
D03*
X383650Y110500D02*
D03*
Y149500D02*
D03*
X307450Y110500D02*
D03*
Y149500D02*
D03*
X320150D02*
D03*
Y110500D02*
D03*
X332850Y149500D02*
D03*
Y110500D02*
D03*
X345550Y149500D02*
D03*
Y110500D02*
D03*
X358250Y149500D02*
D03*
X370950D02*
D03*
X358250Y110500D02*
D03*
X370950D02*
D03*
X462550Y410500D02*
D03*
X449850D02*
D03*
X437150D02*
D03*
X424450D02*
D03*
X411750D02*
D03*
X462550Y449500D02*
D03*
X449850D02*
D03*
X437150D02*
D03*
X424450D02*
D03*
X411750D02*
D03*
X399050Y410500D02*
D03*
X386350D02*
D03*
X399050Y449500D02*
D03*
X386350D02*
D03*
X373650Y410500D02*
D03*
Y449500D02*
D03*
X297450Y410500D02*
D03*
Y449500D02*
D03*
X310150D02*
D03*
Y410500D02*
D03*
X322850Y449500D02*
D03*
Y410500D02*
D03*
X335550Y449500D02*
D03*
Y410500D02*
D03*
X348250Y449500D02*
D03*
X360950D02*
D03*
X348250Y410500D02*
D03*
X360950D02*
D03*
M02*
