G04*
G04 #@! TF.GenerationSoftware,Altium Limited,Altium Designer,23.11.1 (41)*
G04*
G04 Layer_Color=8388736*
%FSLAX44Y44*%
%MOMM*%
G71*
G04*
G04 #@! TF.SameCoordinates,4CE7A35D-70A9-472E-BD1E-F3F5204FB4D5*
G04*
G04*
G04 #@! TF.FilePolarity,Negative*
G04*
G01*
G75*
%ADD42R,2.2000X5.7000*%
%ADD43R,1.5000X1.1000*%
%ADD44R,1.1000X1.5000*%
%ADD45R,1.2000X2.9500*%
G04:AMPARAMS|DCode=46|XSize=0.85mm|YSize=1.4mm|CornerRadius=0.2625mm|HoleSize=0mm|Usage=FLASHONLY|Rotation=90.000|XOffset=0mm|YOffset=0mm|HoleType=Round|Shape=RoundedRectangle|*
%AMROUNDEDRECTD46*
21,1,0.8500,0.8750,0,0,90.0*
21,1,0.3250,1.4000,0,0,90.0*
1,1,0.5250,0.4375,0.1625*
1,1,0.5250,0.4375,-0.1625*
1,1,0.5250,-0.4375,-0.1625*
1,1,0.5250,-0.4375,0.1625*
%
%ADD46ROUNDEDRECTD46*%
G04:AMPARAMS|DCode=47|XSize=1.4mm|YSize=1.3mm|CornerRadius=0.375mm|HoleSize=0mm|Usage=FLASHONLY|Rotation=180.000|XOffset=0mm|YOffset=0mm|HoleType=Round|Shape=RoundedRectangle|*
%AMROUNDEDRECTD47*
21,1,1.4000,0.5500,0,0,180.0*
21,1,0.6500,1.3000,0,0,180.0*
1,1,0.7500,-0.3250,0.2750*
1,1,0.7500,0.3250,0.2750*
1,1,0.7500,0.3250,-0.2750*
1,1,0.7500,-0.3250,-0.2750*
%
%ADD47ROUNDEDRECTD47*%
%ADD48R,1.5500X1.3500*%
%ADD49C,2.2000*%
%ADD50R,1.3500X1.5500*%
%ADD51R,0.5000X1.6750*%
%ADD52R,1.6750X0.5000*%
%ADD53R,2.1500X1.6000*%
%ADD54R,0.7500X1.7000*%
G04:AMPARAMS|DCode=55|XSize=0.85mm|YSize=1.9mm|CornerRadius=0.2625mm|HoleSize=0mm|Usage=FLASHONLY|Rotation=90.000|XOffset=0mm|YOffset=0mm|HoleType=Round|Shape=RoundedRectangle|*
%AMROUNDEDRECTD55*
21,1,0.8500,1.3750,0,0,90.0*
21,1,0.3250,1.9000,0,0,90.0*
1,1,0.5250,0.6875,0.1625*
1,1,0.5250,0.6875,-0.1625*
1,1,0.5250,-0.6875,-0.1625*
1,1,0.5250,-0.6875,0.1625*
%
%ADD55ROUNDEDRECTD55*%
G04:AMPARAMS|DCode=56|XSize=1.9mm|YSize=2.7mm|CornerRadius=0.525mm|HoleSize=0mm|Usage=FLASHONLY|Rotation=270.000|XOffset=0mm|YOffset=0mm|HoleType=Round|Shape=RoundedRectangle|*
%AMROUNDEDRECTD56*
21,1,1.9000,1.6500,0,0,270.0*
21,1,0.8500,2.7000,0,0,270.0*
1,1,1.0500,-0.8250,-0.4250*
1,1,1.0500,-0.8250,0.4250*
1,1,1.0500,0.8250,0.4250*
1,1,1.0500,0.8250,-0.4250*
%
%ADD56ROUNDEDRECTD56*%
%ADD57R,2.4000X1.5000*%
G04:AMPARAMS|DCode=58|XSize=1.5mm|YSize=1.3mm|CornerRadius=0.375mm|HoleSize=0mm|Usage=FLASHONLY|Rotation=180.000|XOffset=0mm|YOffset=0mm|HoleType=Round|Shape=RoundedRectangle|*
%AMROUNDEDRECTD58*
21,1,1.5000,0.5500,0,0,180.0*
21,1,0.7500,1.3000,0,0,180.0*
1,1,0.7500,-0.3750,0.2750*
1,1,0.7500,0.3750,0.2750*
1,1,0.7500,0.3750,-0.2750*
1,1,0.7500,-0.3750,-0.2750*
%
%ADD58ROUNDEDRECTD58*%
%ADD59R,1.2000X2.1000*%
%ADD60R,2.1000X2.1000*%
%ADD61R,2.1000X2.0000*%
%ADD62R,1.5500X0.6000*%
G04:AMPARAMS|DCode=63|XSize=1.9mm|YSize=2.7mm|CornerRadius=0.525mm|HoleSize=0mm|Usage=FLASHONLY|Rotation=180.000|XOffset=0mm|YOffset=0mm|HoleType=Round|Shape=RoundedRectangle|*
%AMROUNDEDRECTD63*
21,1,1.9000,1.6500,0,0,180.0*
21,1,0.8500,2.7000,0,0,180.0*
1,1,1.0500,-0.4250,0.8250*
1,1,1.0500,0.4250,0.8250*
1,1,1.0500,0.4250,-0.8250*
1,1,1.0500,-0.4250,-0.8250*
%
%ADD63ROUNDEDRECTD63*%
G04:AMPARAMS|DCode=64|XSize=1.2mm|YSize=2.3mm|CornerRadius=0.35mm|HoleSize=0mm|Usage=FLASHONLY|Rotation=180.000|XOffset=0mm|YOffset=0mm|HoleType=Round|Shape=RoundedRectangle|*
%AMROUNDEDRECTD64*
21,1,1.2000,1.6000,0,0,180.0*
21,1,0.5000,2.3000,0,0,180.0*
1,1,0.7000,-0.2500,0.8000*
1,1,0.7000,0.2500,0.8000*
1,1,0.7000,0.2500,-0.8000*
1,1,0.7000,-0.2500,-0.8000*
%
%ADD64ROUNDEDRECTD64*%
G04:AMPARAMS|DCode=65|XSize=3.5mm|YSize=2.3mm|CornerRadius=0.625mm|HoleSize=0mm|Usage=FLASHONLY|Rotation=180.000|XOffset=0mm|YOffset=0mm|HoleType=Round|Shape=RoundedRectangle|*
%AMROUNDEDRECTD65*
21,1,3.5000,1.0500,0,0,180.0*
21,1,2.2500,2.3000,0,0,180.0*
1,1,1.2500,-1.1250,0.5250*
1,1,1.2500,1.1250,0.5250*
1,1,1.2500,1.1250,-0.5250*
1,1,1.2500,-1.1250,-0.5250*
%
%ADD65ROUNDEDRECTD65*%
G04:AMPARAMS|DCode=66|XSize=1.8mm|YSize=1.6mm|CornerRadius=0.45mm|HoleSize=0mm|Usage=FLASHONLY|Rotation=180.000|XOffset=0mm|YOffset=0mm|HoleType=Round|Shape=RoundedRectangle|*
%AMROUNDEDRECTD66*
21,1,1.8000,0.7000,0,0,180.0*
21,1,0.9000,1.6000,0,0,180.0*
1,1,0.9000,-0.4500,0.3500*
1,1,0.9000,0.4500,0.3500*
1,1,0.9000,0.4500,-0.3500*
1,1,0.9000,-0.4500,-0.3500*
%
%ADD66ROUNDEDRECTD66*%
%ADD67C,1.8000*%
G04:AMPARAMS|DCode=68|XSize=1.8mm|YSize=1.8mm|CornerRadius=0.5mm|HoleSize=0mm|Usage=FLASHONLY|Rotation=0.000|XOffset=0mm|YOffset=0mm|HoleType=Round|Shape=RoundedRectangle|*
%AMROUNDEDRECTD68*
21,1,1.8000,0.8000,0,0,0.0*
21,1,0.8000,1.8000,0,0,0.0*
1,1,1.0000,0.4000,-0.4000*
1,1,1.0000,-0.4000,-0.4000*
1,1,1.0000,-0.4000,0.4000*
1,1,1.0000,0.4000,0.4000*
%
%ADD68ROUNDEDRECTD68*%
%ADD69C,7.2000*%
%ADD70C,1.4000*%
G04:AMPARAMS|DCode=71|XSize=2.2mm|YSize=2.2mm|CornerRadius=0.6mm|HoleSize=0mm|Usage=FLASHONLY|Rotation=90.000|XOffset=0mm|YOffset=0mm|HoleType=Round|Shape=RoundedRectangle|*
%AMROUNDEDRECTD71*
21,1,2.2000,1.0000,0,0,90.0*
21,1,1.0000,2.2000,0,0,90.0*
1,1,1.2000,0.5000,0.5000*
1,1,1.2000,0.5000,-0.5000*
1,1,1.2000,-0.5000,-0.5000*
1,1,1.2000,-0.5000,0.5000*
%
%ADD71ROUNDEDRECTD71*%
%ADD72C,1.5000*%
%ADD73C,1.7000*%
%ADD74C,2.0000*%
G04:AMPARAMS|DCode=75|XSize=1.8mm|YSize=1.8mm|CornerRadius=0.5mm|HoleSize=0mm|Usage=FLASHONLY|Rotation=270.000|XOffset=0mm|YOffset=0mm|HoleType=Round|Shape=RoundedRectangle|*
%AMROUNDEDRECTD75*
21,1,1.8000,0.8000,0,0,270.0*
21,1,0.8000,1.8000,0,0,270.0*
1,1,1.0000,-0.4000,-0.4000*
1,1,1.0000,-0.4000,0.4000*
1,1,1.0000,0.4000,0.4000*
1,1,1.0000,0.4000,-0.4000*
%
%ADD75ROUNDEDRECTD75*%
%ADD76C,0.9000*%
%ADD77C,0.5000*%
%ADD78C,0.6000*%
D42*
X272000Y359000D02*
D03*
Y264000D02*
D03*
D43*
X162000Y239500D02*
D03*
Y220500D02*
D03*
X144000Y239500D02*
D03*
Y220500D02*
D03*
X199000Y239500D02*
D03*
Y220500D02*
D03*
X181000Y239500D02*
D03*
Y220500D02*
D03*
X288000Y206500D02*
D03*
Y187500D02*
D03*
X235000Y412000D02*
D03*
Y393000D02*
D03*
X288000Y526500D02*
D03*
Y549500D02*
D03*
X196000Y284500D02*
D03*
Y265500D02*
D03*
X176000Y284500D02*
D03*
Y265500D02*
D03*
X176000Y317500D02*
D03*
Y298500D02*
D03*
X195000Y317500D02*
D03*
Y298500D02*
D03*
X268000Y537500D02*
D03*
Y560500D02*
D03*
X502000Y336500D02*
D03*
Y359500D02*
D03*
X229000Y374500D02*
D03*
Y355500D02*
D03*
X238000Y266500D02*
D03*
Y247500D02*
D03*
X559000Y351500D02*
D03*
Y370500D02*
D03*
X597000Y351500D02*
D03*
Y370500D02*
D03*
X578000Y351500D02*
D03*
Y370500D02*
D03*
X541000Y351500D02*
D03*
Y370500D02*
D03*
X522000Y351500D02*
D03*
Y370500D02*
D03*
D44*
X305500Y432000D02*
D03*
X286500D02*
D03*
X325500Y417000D02*
D03*
X306500D02*
D03*
X306500Y182000D02*
D03*
X325500D02*
D03*
X317500Y401000D02*
D03*
X336500D02*
D03*
X328500Y383000D02*
D03*
X347500D02*
D03*
X427000Y138000D02*
D03*
X408000D02*
D03*
X426500Y119000D02*
D03*
X407500D02*
D03*
X460500Y105000D02*
D03*
X441500D02*
D03*
X460500Y122000D02*
D03*
X441500D02*
D03*
X460000Y140000D02*
D03*
X441000D02*
D03*
X297500Y474000D02*
D03*
X320500D02*
D03*
X370500Y540000D02*
D03*
X347500D02*
D03*
X398500Y484000D02*
D03*
X375500D02*
D03*
X298000Y495000D02*
D03*
X321000D02*
D03*
D45*
X120000Y73250D02*
D03*
Y130750D02*
D03*
X160000Y73250D02*
D03*
Y130750D02*
D03*
D46*
X80000Y398032D02*
D03*
Y379032D02*
D03*
X106000Y388532D02*
D03*
X34000Y399032D02*
D03*
Y380032D02*
D03*
X60000Y389532D02*
D03*
D47*
X88000Y430032D02*
D03*
Y451032D02*
D03*
X66000Y430032D02*
D03*
Y451032D02*
D03*
X151000Y318500D02*
D03*
Y297500D02*
D03*
X131000Y318500D02*
D03*
Y297500D02*
D03*
X760000Y247500D02*
D03*
Y268500D02*
D03*
X737000Y247500D02*
D03*
Y268500D02*
D03*
D48*
X48000Y337282D02*
D03*
Y355782D02*
D03*
X71000Y337032D02*
D03*
Y355532D02*
D03*
X204000Y423250D02*
D03*
Y404750D02*
D03*
X668000Y235250D02*
D03*
Y216750D02*
D03*
X693000D02*
D03*
Y235250D02*
D03*
D49*
X189000Y578000D02*
D03*
X218000D02*
D03*
X250000Y579000D02*
D03*
X277000D02*
D03*
X383000Y572000D02*
D03*
X356000Y571000D02*
D03*
X331000Y578000D02*
D03*
X304000D02*
D03*
X605000Y407000D02*
D03*
X592000Y448000D02*
D03*
X747000Y306000D02*
D03*
X776000Y307000D02*
D03*
X620000Y433000D02*
D03*
X574000Y409000D02*
D03*
X539000Y494000D02*
D03*
X547000Y564555D02*
D03*
X517000D02*
D03*
X487000D02*
D03*
X517000Y534555D02*
D03*
X487000D02*
D03*
D50*
X423250Y551000D02*
D03*
X404750D02*
D03*
X424250Y529000D02*
D03*
X405750D02*
D03*
X453250Y497000D02*
D03*
X434750D02*
D03*
X453250Y475000D02*
D03*
X434750D02*
D03*
D51*
X331000Y360380D02*
D03*
X336000D02*
D03*
X341000D02*
D03*
X346000D02*
D03*
X351000D02*
D03*
X356000D02*
D03*
X361000D02*
D03*
X366000D02*
D03*
X371000D02*
D03*
X376000D02*
D03*
X381000D02*
D03*
X386000D02*
D03*
X391000D02*
D03*
X396000D02*
D03*
X401000D02*
D03*
X406000D02*
D03*
X411000D02*
D03*
X416000D02*
D03*
X421000D02*
D03*
X426000D02*
D03*
X431000D02*
D03*
X436000D02*
D03*
X441000D02*
D03*
X446000D02*
D03*
X451000D02*
D03*
Y205620D02*
D03*
X446000D02*
D03*
X441000D02*
D03*
X436000D02*
D03*
X431000D02*
D03*
X426000D02*
D03*
X421000D02*
D03*
X416000D02*
D03*
X411000D02*
D03*
X406000D02*
D03*
X401000D02*
D03*
X396000D02*
D03*
X391000D02*
D03*
X386000D02*
D03*
X381000D02*
D03*
X376000D02*
D03*
X371000D02*
D03*
X366000D02*
D03*
X361000D02*
D03*
X356000D02*
D03*
X351000D02*
D03*
X346000D02*
D03*
X341000D02*
D03*
X336000D02*
D03*
X331000D02*
D03*
D52*
X468380Y343000D02*
D03*
Y338000D02*
D03*
Y333000D02*
D03*
Y328000D02*
D03*
Y323000D02*
D03*
Y318000D02*
D03*
Y313000D02*
D03*
Y308000D02*
D03*
Y303000D02*
D03*
Y298000D02*
D03*
Y293000D02*
D03*
Y288000D02*
D03*
Y283000D02*
D03*
Y278000D02*
D03*
Y273000D02*
D03*
Y268000D02*
D03*
Y263000D02*
D03*
Y258000D02*
D03*
Y253000D02*
D03*
Y248000D02*
D03*
Y243000D02*
D03*
Y238000D02*
D03*
Y233000D02*
D03*
Y228000D02*
D03*
Y223000D02*
D03*
X313620D02*
D03*
Y228000D02*
D03*
Y233000D02*
D03*
Y238000D02*
D03*
Y243000D02*
D03*
Y248000D02*
D03*
Y253000D02*
D03*
Y258000D02*
D03*
Y263000D02*
D03*
Y268000D02*
D03*
Y273000D02*
D03*
Y278000D02*
D03*
Y283000D02*
D03*
Y288000D02*
D03*
Y293000D02*
D03*
Y298000D02*
D03*
Y303000D02*
D03*
Y308000D02*
D03*
Y313000D02*
D03*
Y318000D02*
D03*
Y323000D02*
D03*
Y328000D02*
D03*
Y333000D02*
D03*
Y338000D02*
D03*
Y343000D02*
D03*
D53*
X606000Y320000D02*
D03*
Y292000D02*
D03*
X202000Y383000D02*
D03*
Y355000D02*
D03*
D54*
X323000Y523750D02*
D03*
X313000Y554250D02*
D03*
X323000D02*
D03*
X313000Y523750D02*
D03*
X345000Y506250D02*
D03*
X355000Y475750D02*
D03*
X345000D02*
D03*
X355000Y506250D02*
D03*
D55*
X108000Y550050D02*
D03*
Y537350D02*
D03*
Y524650D02*
D03*
Y511950D02*
D03*
X164000Y550050D02*
D03*
Y537350D02*
D03*
Y524650D02*
D03*
Y511950D02*
D03*
X209000Y490050D02*
D03*
Y477350D02*
D03*
Y464650D02*
D03*
Y451950D02*
D03*
X265000Y490050D02*
D03*
Y477350D02*
D03*
Y464650D02*
D03*
Y451950D02*
D03*
X581000Y256100D02*
D03*
Y243400D02*
D03*
Y230700D02*
D03*
Y218000D02*
D03*
X637000Y256100D02*
D03*
Y243400D02*
D03*
Y230700D02*
D03*
Y218000D02*
D03*
D56*
X613750Y490000D02*
D03*
X574250D02*
D03*
D57*
X666500Y492250D02*
D03*
X719433Y435683D02*
D03*
X711433Y259683D02*
D03*
X658500Y316250D02*
D03*
D58*
X641000Y498500D02*
D03*
Y463500D02*
D03*
D59*
X247000Y114500D02*
D03*
X227000D02*
D03*
X207000D02*
D03*
D60*
X771000Y363000D02*
D03*
Y387000D02*
D03*
D61*
Y335000D02*
D03*
Y415000D02*
D03*
D62*
X744250Y362000D02*
D03*
Y388000D02*
D03*
Y368500D02*
D03*
Y375000D02*
D03*
Y381500D02*
D03*
D63*
X682000Y398750D02*
D03*
Y359250D02*
D03*
X647000Y398750D02*
D03*
Y359250D02*
D03*
X716000Y399750D02*
D03*
Y360250D02*
D03*
D64*
X499000Y405500D02*
D03*
X522000D02*
D03*
X545000D02*
D03*
D65*
X522000Y468500D02*
D03*
D66*
X784000Y274000D02*
D03*
Y244000D02*
D03*
D67*
X433400Y76000D02*
D03*
X408000D02*
D03*
X357200D02*
D03*
X331800D02*
D03*
X382600D02*
D03*
X780000Y443200D02*
D03*
Y468600D02*
D03*
D68*
X306400Y76000D02*
D03*
D69*
X50000Y549000D02*
D03*
X750000Y101000D02*
D03*
Y551000D02*
D03*
X50000Y100000D02*
D03*
D70*
X457310Y573445D02*
D03*
X576690D02*
D03*
D71*
X547000Y534555D02*
D03*
D72*
X268250Y74000D02*
D03*
X205750D02*
D03*
D73*
X672000Y574000D02*
D03*
X621200D02*
D03*
X646600D02*
D03*
D74*
X472300Y77000D02*
D03*
X497700D02*
D03*
D75*
X780000Y494000D02*
D03*
D76*
X746500Y354250D02*
D03*
Y395750D02*
D03*
X30000Y569000D02*
D03*
X22500Y549000D02*
D03*
X30000Y529000D02*
D03*
X50000Y521500D02*
D03*
X70000Y529000D02*
D03*
X77500Y549000D02*
D03*
X70000Y569000D02*
D03*
X50000Y576500D02*
D03*
X730000Y121000D02*
D03*
X722500Y101000D02*
D03*
X730000Y81000D02*
D03*
X750000Y73500D02*
D03*
X770000Y81000D02*
D03*
X777500Y101000D02*
D03*
X770000Y121000D02*
D03*
X750000Y128500D02*
D03*
Y578500D02*
D03*
X770000Y571000D02*
D03*
X777500Y551000D02*
D03*
X770000Y531000D02*
D03*
X750000Y523500D02*
D03*
X730000Y531000D02*
D03*
X722500Y551000D02*
D03*
X730000Y571000D02*
D03*
X50000Y127500D02*
D03*
X70000Y120000D02*
D03*
X77500Y100000D02*
D03*
X70000Y80000D02*
D03*
X50000Y72500D02*
D03*
X30000Y80000D02*
D03*
X22500Y100000D02*
D03*
X30000Y120000D02*
D03*
D77*
X602000Y462100D02*
D03*
X694000Y235000D02*
D03*
X449226Y238000D02*
D03*
X454226Y243063D02*
D03*
X449226Y248063D02*
D03*
X251000Y238000D02*
D03*
X214000Y275000D02*
D03*
X215000Y289000D02*
D03*
X277000Y339000D02*
D03*
X236000Y303000D02*
D03*
X236500Y316000D02*
D03*
X211000Y267000D02*
D03*
X221000Y247000D02*
D03*
X222818Y238818D02*
D03*
X144000Y220500D02*
D03*
Y239500D02*
D03*
X275000Y437000D02*
D03*
X254734Y332600D02*
D03*
X288000Y187500D02*
D03*
Y206500D02*
D03*
X549000Y243000D02*
D03*
X792000Y321000D02*
D03*
X243000Y455000D02*
D03*
X246000Y476000D02*
D03*
X209000Y477000D02*
D03*
X348000Y141000D02*
D03*
X358000Y142000D02*
D03*
X396000D02*
D03*
X383000D02*
D03*
X371000Y141000D02*
D03*
X310000Y140000D02*
D03*
X322000D02*
D03*
X335000Y141000D02*
D03*
X219000Y201000D02*
D03*
X256318Y197318D02*
D03*
X253000Y187000D02*
D03*
X264000Y223000D02*
D03*
X499000Y405000D02*
D03*
X220898Y340500D02*
D03*
X247000Y115000D02*
D03*
X597000Y351500D02*
D03*
X441000Y125500D02*
D03*
X555000Y332000D02*
D03*
X573000Y409000D02*
D03*
X592000Y448000D02*
D03*
X412000Y451000D02*
D03*
X399000D02*
D03*
X425000D02*
D03*
X204000Y420000D02*
D03*
X235000Y416500D02*
D03*
X298000Y410000D02*
D03*
X490000Y96000D02*
D03*
X448000Y154000D02*
D03*
Y344000D02*
D03*
X449226Y288063D02*
D03*
X452000Y313000D02*
D03*
X449226Y298063D02*
D03*
X451226Y303063D02*
D03*
X453226Y293063D02*
D03*
Y283063D02*
D03*
X447000Y327000D02*
D03*
X449226Y278063D02*
D03*
X455226Y273063D02*
D03*
X323000Y449000D02*
D03*
X310000D02*
D03*
X374000Y448000D02*
D03*
X298000D02*
D03*
X348000Y447000D02*
D03*
X361000D02*
D03*
X335000Y448000D02*
D03*
X108000Y525000D02*
D03*
X107000Y511000D02*
D03*
X78000Y451532D02*
D03*
X453250Y500500D02*
D03*
X102000Y451532D02*
D03*
X410000Y154000D02*
D03*
X438252Y409897D02*
D03*
X463000Y408000D02*
D03*
X522000Y398000D02*
D03*
X256000Y352000D02*
D03*
X425000Y408000D02*
D03*
X472000Y151000D02*
D03*
X423000Y154000D02*
D03*
X427000Y225000D02*
D03*
X450000Y408000D02*
D03*
X366000Y344000D02*
D03*
X371000Y339000D02*
D03*
X386000Y344000D02*
D03*
X236500Y247000D02*
D03*
X147000Y523000D02*
D03*
X266000Y460500D02*
D03*
X545000Y404000D02*
D03*
X686000Y375250D02*
D03*
X721000Y436000D02*
D03*
X198000Y350000D02*
D03*
X341000Y319000D02*
D03*
Y257000D02*
D03*
X329136Y243000D02*
D03*
X325500Y233000D02*
D03*
X332000Y253000D02*
D03*
X398000Y129000D02*
D03*
X597000Y370500D02*
D03*
X143000Y123000D02*
D03*
X426000Y387000D02*
D03*
X421000Y379000D02*
D03*
X323184Y343057D02*
D03*
X341000Y342000D02*
D03*
X108000Y550050D02*
D03*
X452000Y233000D02*
D03*
X343000Y551000D02*
D03*
X376000Y485000D02*
D03*
X378000Y501460D02*
D03*
X383500Y530000D02*
D03*
X447000Y186000D02*
D03*
X160000Y127000D02*
D03*
X321636Y223000D02*
D03*
X330000Y278000D02*
D03*
X303000Y228000D02*
D03*
X441000Y192000D02*
D03*
X462000Y152000D02*
D03*
X360000Y339000D02*
D03*
X263000Y477000D02*
D03*
X268000Y537500D02*
D03*
X297500Y474000D02*
D03*
X34000Y399532D02*
D03*
X79500Y379532D02*
D03*
X80000Y398532D02*
D03*
X48000Y337282D02*
D03*
X108000Y537000D02*
D03*
X268000Y559000D02*
D03*
X288000Y551000D02*
D03*
X314460Y569250D02*
D03*
X320049Y568053D02*
D03*
X453250Y475000D02*
D03*
X334071Y537230D02*
D03*
X333305Y542770D02*
D03*
X363234Y505695D02*
D03*
X364000Y512000D02*
D03*
X425000Y529000D02*
D03*
X423250Y551000D02*
D03*
X119000Y80250D02*
D03*
X227000Y115000D02*
D03*
X208000Y114000D02*
D03*
X132000Y317000D02*
D03*
X151000Y318000D02*
D03*
X221488Y316025D02*
D03*
X381000Y340000D02*
D03*
X581000Y230700D02*
D03*
X679000Y311000D02*
D03*
X737000Y269000D02*
D03*
X620000Y433000D02*
D03*
X760000Y269000D02*
D03*
X784000Y275000D02*
D03*
X782000Y304250D02*
D03*
X710000Y283000D02*
D03*
X737000Y247500D02*
D03*
X716875Y361125D02*
D03*
X725000Y217000D02*
D03*
X582000Y218000D02*
D03*
X606000Y292000D02*
D03*
X628000Y391000D02*
D03*
X131000Y297500D02*
D03*
X435000Y154000D02*
D03*
X219000Y214000D02*
D03*
X229000Y374000D02*
D03*
X328000Y318000D02*
D03*
X223000Y225000D02*
D03*
X326000Y288000D02*
D03*
X219000Y303000D02*
D03*
X224000Y328000D02*
D03*
X326000Y248000D02*
D03*
X325000Y238000D02*
D03*
X455226Y253063D02*
D03*
X449226Y258063D02*
D03*
X344743Y346000D02*
D03*
X356000Y345000D02*
D03*
X351000Y341000D02*
D03*
X376000Y343000D02*
D03*
X222000Y192000D02*
D03*
X361000Y229000D02*
D03*
X366000Y223000D02*
D03*
X614000Y490000D02*
D03*
X770500Y387500D02*
D03*
D78*
X522000Y469000D02*
D03*
X450000Y456000D02*
D03*
X210000Y465000D02*
D03*
X308000Y105000D02*
D03*
X333000Y116000D02*
D03*
X383000Y109000D02*
D03*
X463000Y455000D02*
D03*
X733418Y302605D02*
D03*
X545000Y218000D02*
D03*
X103000Y469782D02*
D03*
M02*
